<?xml version="1.0" encoding="utf-8"?>
<!-- Generator: Adobe Illustrator 16.0.3, SVG Export Plug-In . SVG Version: 6.00 Build 0)  -->
<!DOCTYPE svg PUBLIC "-//W3C//DTD SVG 1.1//EN" "http://www.w3.org/Graphics/SVG/1.1/DTD/svg11.dtd">
<svg version="1.1" xmlns="http://www.w3.org/2000/svg" xmlns:xlink="http://www.w3.org/1999/xlink" x="0px" y="0px" width="575px"
	 height="125px" viewBox="0 0 575 125" enable-background="new 0 0 575 125" xml:space="preserve">
  <style>path.bw {fill:#222;} @media (prefers-color-scheme: dark) {path.bw {fill:#ddd;} </style>
<g id="レイヤー_1">
	<g>
		<path class="bw" d="M119.5068359,16.1977539h13.0410156v1.5537109l-5.2080078,4.2841797l0.0209961,0.0209961
			c0.1401367-0.027832,0.2519531-0.0419922,0.3359375-0.0419922c0.4902344,0,0.875,0.1889648,1.1552734,0.5668945
			c0.2797852,0.3779297,0.5668945,1.1269531,0.8608398,2.2470703c0.2661133,0.9521484,0.5390625,1.5537109,0.8193359,1.8061523
			c0.2797852,0.2519531,0.8046875,0.3779297,1.574707,0.3779297c0.9101563,0,1.8061523-0.1259766,2.6879883-0.3779297
			l0.2729492,1.3857422c-1.0219727,0.2797852-2.0581055,0.4199219-3.1079102,0.4199219
			c-1.1201172,0-1.9389648-0.1962891-2.4570313-0.5878906s-0.9101563-1.1201172-1.1757813-2.184082
			c-0.2382813-0.9516602-0.4829102-1.5957031-0.7353516-1.9321289c-0.2519531-0.3359375-0.5668945-0.5107422-0.9448242-0.5249023
			c-0.2241211,0-0.40625,0.0209961-0.5458984,0.0629883c-0.1259766,0.0283203-0.4692383,0.2382813-1.0292969,0.6303711
			s-1.2529297,0.9101563-2.0786133,1.5537109c-0.8261719,0.644043-2.1352539,1.6943359-3.9272461,3.1499023l-0.9238281-1.1757813
			l12.1586914-9.8071289l-0.0209961-0.0419922h-10.7729492V16.1977539z M121.7119141,12.9633789l0.1889648-1.3857422
			c3.1499023,0.5039063,6.2441406,0.7558594,9.2822266,0.7558594v1.4492188
			C128.4111328,13.7827148,125.2539063,13.5097656,121.7119141,12.9633789z"/>
		<path class="bw" d="M143.0688477,18.6757813v0.0419922l12.3691406-0.9243164l0.0839844,1.4072266l-5.2080078,0.3779297
			c-1.722168,0.5878906-3.03125,1.315918-3.9267578,2.184082c-0.8964844,0.8681641-1.3442383,1.777832-1.3442383,2.7299805
			c0,1.9038086,1.777832,2.855957,5.3339844,2.855957c1.1621094,0,2.2050781-0.0908203,3.1289063-0.2729492l0.1679688,1.4277344
			c-1.0639648,0.1958008-2.1625977,0.2939453-3.296875,0.2939453c-1.315918,0-2.4433594-0.1118164-3.3808594-0.3359375
			c-0.9521484-0.2382813-1.6801758-0.5532227-2.184082-0.9448242s-0.8681641-0.8261719-1.0917969-1.3022461
			c-0.2241211-0.4755859-0.3432617-0.9936523-0.3574219-1.5537109c0-1.9038086,1.3232422-3.5209961,3.9692383-4.8510742v-0.0419922
			l-9.3032227,0.6928711l-0.0839844-1.4067383c1.4980469-0.1118164,3.269043-0.6513672,5.3129883-1.6171875
			s4.1298828-2.2749023,6.2583008-3.9267578l-0.0209961-0.0419922h-8.2319336v-1.4072266h10.730957l0.1049805,1.3652344
			C148.6967773,15.8476563,145.6870117,17.5976563,143.0688477,18.6757813z M152.519043,13.3623047l1.2387695-0.440918
			c0.4760742,1.0366211,0.9379883,2.1352539,1.3862305,3.2973633l-1.2392578,0.3989258
			C153.625,15.8896484,153.1625977,14.8046875,152.519043,13.3623047z M155.1020508,13.0053711l1.2597656-0.4199219
			c0.6582031,1.456543,1.1342773,2.5761719,1.4282227,3.3598633l-1.2602539,0.3994141
			C156.1098633,15.2807617,155.6337891,14.1679688,155.1020508,13.0053711z"/>
		<path class="bw" d="M159.1967773,13.4677734h10.1430664v-2.7304688h1.5332031v2.7304688h6.2368164v1.3227539h-6.2368164v4.7041016
			c0.265625,0.8261719,0.3989258,1.6870117,0.3989258,2.5830078c0,2.0859375-0.5600586,3.6748047-1.6801758,4.7670898
			c-1.1201172,1.0917969-2.9257813,1.8125-5.4179688,2.1625977l-0.230957-1.4697266
			c1.9741211-0.237793,3.4233398-0.7348633,4.347168-1.4912109c0.9238281-0.7558594,1.4208984-1.784668,1.4907227-3.0869141
			v-0.2729492h-0.0419922c-0.644043,0.9379883-1.7080078,1.4072266-3.1918945,1.4072266
			c-1.1621094-0.0141602-2.1347656-0.3994141-2.9189453-1.1552734s-1.1689453-1.7011719-1.1547852-2.8349609
			c-0.0141602-1.1337891,0.3706055-2.0791016,1.1547852-2.8349609s1.7568359-1.1411133,2.9189453-1.1547852
			c1.0639648,0,1.980957,0.3149414,2.7509766,0.9448242h0.0419922v-2.2680664h-10.1430664V13.4677734z M164.0478516,20.1035156
			c0,0.7280273,0.2592773,1.3442383,0.7773438,1.8481445c0.5175781,0.5039063,1.168457,0.7558594,1.9526367,0.7558594
			s1.4350586-0.2519531,1.953125-0.7558594s0.7768555-1.1201172,0.7768555-1.8481445
			c0-0.7138672-0.2587891-1.3227539-0.7768555-1.8271484c-0.5180664-0.5039063-1.1689453-0.7558594-1.953125-0.7558594
			s-1.4350586,0.2519531-1.9526367,0.7558594C164.3071289,18.7807617,164.0478516,19.3896484,164.0478516,20.1035156z
			 M172.237793,17.5625l1.2602539-0.671875c0.6855469,1.1337891,1.3369141,2.2822266,1.953125,3.4438477l-1.2602539,0.6298828
			C173.5888672,19.8305664,172.9379883,18.6967773,172.237793,17.5625z M175.1782227,16.7646484l1.2807617-0.6928711
			c0.8256836,1.3579102,1.4980469,2.5336914,2.0161133,3.527832l-1.3022461,0.6298828
			C176.5288086,19.0395508,175.8637695,17.8847656,175.1782227,16.7646484z"/>
		<path class="bw" d="M185.2368164,11.6196289c-0.1679688,3.7939453-0.2519531,6.9506836-0.2519531,9.4707031
			c-0.0141602,1.3164063,0.0629883,2.394043,0.230957,3.234375c0.1679688,0.8398438,0.434082,1.4770508,0.7983398,1.9106445
			c0.3637695,0.434082,0.7978516,0.7353516,1.3017578,0.9033203c0.4897461,0.1679688,1.1269531,0.2519531,1.9111328,0.2519531
			c1.4697266,0,2.8139648-0.5600586,4.0317383-1.6801758c1.2182617-1.1196289,2.2329102-2.7368164,3.0454102-4.8510742
			l1.4487305,0.5673828c-0.9101563,2.449707-2.0932617,4.3120117-3.5488281,5.5859375
			c-1.456543,1.2734375-3.1152344,1.9106445-4.9770508,1.9106445c-2.2124023-0.0136719-3.7451172-0.5810547-4.5991211-1.7006836
			c-0.8540039-1.1201172-1.2807617-3.1640625-1.2807617-6.1323242c0-2.8139648,0.0766602-5.9916992,0.230957-9.5336914
			L185.2368164,11.6196289z"/>
		<path class="bw" d="M222.9951172,13.2363281c5.5576172,0,11.2207031-0.1396484,16.9887695-0.4199219l0.0839844,1.4702148
			c-3.527832,0.3359375-6.2299805,1.1757813-8.105957,2.5200195c-1.8759766,1.34375-2.8212891,3.0029297-2.8349609,4.9770508
			c0,1.6098633,0.5390625,2.8842773,1.6171875,3.8217773c1.0776367,0.9379883,2.5200195,1.4072266,4.3256836,1.4072266
			c0.8261719,0,1.7011719-0.0771484,2.625-0.230957l0.1889648,1.4907227
			c-0.8681641,0.1538086-1.8266602,0.230957-2.8769531,0.230957c-2.3237305-0.0141602-4.171875-0.6088867-5.5439453-1.784668
			c-1.3720703-1.1762695-2.0581055-2.7719727-2.0581055-4.7880859c-0.0136719-1.6240234,0.5253906-3.0800781,1.6171875-4.3681641
			s2.6318359-2.3100586,4.6201172-3.065918v-0.0419922c-4.1723633,0.1679688-7.7211914,0.2519531-10.6469727,0.2519531V13.2363281z"
			/>
		<path class="bw" d="M254.012207,13.9716797c-0.1542969-0.8959961-0.2592773-1.8339844-0.3154297-2.8139648l1.5332031-0.0839844
			c0.0556641,1.0219727,0.1606445,1.9736328,0.3149414,2.855957c1.2319336-0.0419922,2.9887695-0.1191406,5.2709961-0.230957
			l0.0629883,1.4067383c-1.1201172,0.0561523-2.8139648,0.1259766-5.0820313,0.2099609
			c0.4619141,2.1142578,1.3369141,4.1303711,2.625,6.0483398l-1.4067383,0.8398438
			c-1.6523438-1.1621094-3.5283203-1.7431641-5.6279297-1.7431641c-1.3862305,0-2.4711914,0.2729492-3.2553711,0.8193359
			c-0.7841797,0.5458984-1.1689453,1.3017578-1.1547852,2.2675781c0,2.4643555,2.0507813,3.6962891,6.152832,3.6962891
			c1.5820313,0,3.2338867-0.1606445,4.9560547-0.4829102l0.2519531,1.4067383
			c-1.6376953,0.3217773-3.3740234,0.4829102-5.2080078,0.4829102c-1.4277344,0-2.6601563-0.1401367-3.6958008-0.4199219
			c-1.0361328-0.2802734-1.8481445-0.671875-2.4360352-1.1757813s-1.0078125-1.050293-1.2602539-1.6381836
			c-0.2519531-0.5878906-0.3779297-1.2387695-0.3779297-1.953125c0-1.3574219,0.5249023-2.4287109,1.5751953-3.2128906
			c1.0498047-0.7836914,2.5058594-1.1826172,4.3681641-1.1967773c1.6235352,0,3.1987305,0.3642578,4.7246094,1.0917969
			l0.0209961-0.0209961c-0.7841797-1.4140625-1.3720703-3.0029297-1.7636719-4.7670898
			c-3.6264648,0.1123047-7.0004883,0.1679688-10.1220703,0.1679688v-1.4067383
			C247.6347656,14.1186523,250.9179688,14.0698242,254.012207,13.9716797z"/>
		<path class="bw" d="M267.2421875,12.1025391c-0.6865234,2.6040039-1.0292969,5.3901367-1.0292969,8.3579102
			c0,2.9682617,0.3427734,5.7539063,1.0292969,8.3579102l-1.512207,0.2099609
			c-0.7001953-2.659668-1.0498047-5.515625-1.0498047-8.5678711c0-3.0517578,0.3496094-5.9077148,1.0498047-8.5678711
			L267.2421875,12.1025391z M269.9511719,15.2104492h6.4257813v-3.6328125h1.5541992v3.6328125h4.199707v1.4072266h-4.199707
			v6.6147461c1.0214844,0.6860352,2.3100586,1.8061523,3.8637695,3.3603516l-1.0708008,1.0498047
			c-0.9379883-0.9658203-1.8764648-1.8271484-2.8139648-2.5830078c-0.0561523,2.6323242-1.3793945,3.9477539-3.9692383,3.9477539
			c-1.4418945-0.0136719-2.5620117-0.3427734-3.3598633-0.9868164c-0.7978516-0.6435547-1.1972656-1.5541992-1.1972656-2.7299805
			c0-1.0917969,0.3920898-1.9321289,1.1762695-2.5200195c0.7836914-0.5878906,1.9111328-0.8886719,3.3808594-0.902832
			c0.8398438,0,1.6518555,0.1679688,2.4360352,0.5039063v-5.7539063h-6.4257813V15.2104492z M276.3769531,23.9887695
			c-0.8398438-0.4624023-1.6801758-0.6933594-2.5200195-0.6933594c-1.9599609,0-2.9399414,0.6650391-2.9399414,1.9951172
			c0,1.5400391,0.9799805,2.3100586,2.9399414,2.3100586c0.8681641,0,1.5048828-0.2236328,1.9111328-0.671875
			c0.4057617-0.4482422,0.6088867-1.1552734,0.6088867-2.1210938V23.9887695z M278.6030273,10.6953125l1.2177734-0.4199219
			c0.5180664,1.1206055,0.9799805,2.2124023,1.3862305,3.2763672l-1.2182617,0.3989258
			C279.7089844,13.2226563,279.246582,12.1376953,278.6030273,10.6953125z M281.1650391,10.3383789l1.2597656-0.4199219
			c0.6582031,1.456543,1.1342773,2.5761719,1.4282227,3.3598633l-1.2602539,0.3994141
			C282.1728516,12.6137695,281.6967773,11.5009766,281.1650391,10.3383789z"/>
		<path class="bw" d="M295.1928711,13.4887695c-0.1259766-0.7983398-0.2099609-1.6240234-0.2519531-2.4780273l1.5332031-0.0839844
			c0.0556641,0.7978516,0.1538086,1.6376953,0.2939453,2.5200195c1.7919922-0.0561523,3.6396484-0.1401367,5.5439453-0.2524414
			L302.375,14.5385742c-2.4501953,0.1123047-4.2421875,0.1889648-5.3759766,0.230957
			c0.1816406,0.8818359,0.4335938,1.7641602,0.7558594,2.6459961c2.2680664-0.0839844,3.9550781-0.1538086,5.0610352-0.2099609
			l0.0419922,1.3227539c-1.0078125,0.0561523-2.5341797,0.1264648-4.578125,0.2104492
			c0.5043945,1.1479492,1.2041016,2.3935547,2.1000977,3.737793l-1.4067383,0.9868164
			c-1.9462891-0.909668-3.7802734-1.3647461-5.5019531-1.3647461c-2.8422852,0-4.2631836,0.7841797-4.2631836,2.3520508
			c0,1.0078125,0.4755859,1.7568359,1.4282227,2.2470703c0.9516602,0.4902344,2.4775391,0.7348633,4.5776367,0.7348633
			c1.512207,0,3.1430664-0.1396484,4.8930664-0.4199219l0.1889648,1.3647461
			c-1.7216797,0.2797852-3.4160156,0.4199219-5.0820313,0.4199219c-5.1240234,0-7.6860352-1.4487305-7.6860352-4.3466797
			c0-1.0639648,0.4760742-1.9458008,1.4282227-2.6459961c0.9516602-0.7001953,2.4570313-1.0429688,4.5151367-1.0292969
			c1.4833984,0,3.0029297,0.3012695,4.5566406,0.9033203l0.0209961-0.0419922
			c-0.4619141-0.840332-0.9238281-1.7919922-1.3857422-2.855957c-3.7802734,0.1118164-7.2802734,0.1679688-10.5,0.1679688
			v-1.3232422c3.5136719,0,6.8457031-0.0488281,9.9960938-0.1469727c-0.2802734-0.7978516-0.5253906-1.6870117-0.7353516-2.6669922
			c-3.3740234,0.0981445-6.2089844,0.1469727-8.5048828,0.1469727v-1.34375
			C289.6206055,13.6147461,292.3789063,13.5727539,295.1928711,13.4887695z"/>
		<path class="bw" d="M329.0869141,13.1733398h14.7001953v14.1542969h-14.7001953v-1.4702148h13.0830078V14.6435547h-13.0830078V13.1733398z"/>
		<path class="bw" d="M351.2631836,27.6635742h-1.6801758V12.8374023h15.8339844v14.8261719H351.2631836z M351.2631836,26.1723633h12.4736328
			v-11.84375h-12.4736328V26.1723633z"/>
		<path class="bw" d="M370.9399414,14.2236328h6.6782227v-3.1499023h1.6796875v3.1499023h6.972168v1.4697266
			c-1.2041016,1.918457-2.8911133,3.6196289-5.0610352,5.1030273c2.4780273,1.6523438,4.4941406,3.0380859,6.0478516,4.1582031
			l-0.9868164,1.2177734c-2.0161133-1.4414063-4.1860352-2.9257813-6.5102539-4.4516602
			c-0.0556641,0.027832-0.1396484,0.0698242-0.2519531,0.1259766c-0.1118164,0.0561523-0.1821289,0.0981445-0.2099609,0.1259766
			v7.034668h-1.6796875v-6.1738281c-2.1000977,0.9941406-4.6064453,1.8344727-7.5180664,2.5200195l-0.3779297-1.4912109
			c6.7753906-1.5957031,11.6474609-4.3183594,14.6157227-8.1689453h-13.3979492V14.2236328z"/>
		<path class="bw" d="M411.7851563,12.4804688h9.1977539v1.4072266l-5.019043,4.9350586v0.0419922h0.6303711
			c1.4833984,0,2.6176758,0.3569336,3.4018555,1.0708008c0.7836914,0.7138672,1.1826172,1.75,1.1967773,3.1079102
			c0.0136719,1.5825195-0.4550781,2.8071289-1.4067383,3.675293c-0.9521484,0.8681641-2.3032227,1.3017578-4.0532227,1.3017578
			c-1.5117188,0-2.8422852-0.3637695-3.9897461-1.0917969l0.5039063-1.3652344
			c1.1757813,0.7001953,2.3378906,1.050293,3.4858398,1.050293c1.2319336,0,2.1699219-0.3012695,2.8139648-0.9033203
			c0.644043-0.6015625,0.9663086-1.4907227,0.9663086-2.6669922c0.0136719-0.9936523-0.3149414-1.7290039-0.9873047-2.2050781
			c-0.671875-0.4755859-1.7358398-0.7207031-3.1918945-0.7348633h-1.5332031v-1.3017578l5.019043-4.8720703v-0.0419922h-7.034668
			V12.4804688z"/>
		<path class="bw" d="M424.8046875,27.8105469V12.4804688h1.7011719l5.4599609,9.2402344h0.0419922l5.4394531-9.2402344h1.7636719v15.3300781
			H437.53125V15.2944336h-0.0419922l-4.7255859,7.9589844h-1.5742188l-4.7255859-7.9589844h-0.0419922v12.5161133H424.8046875z"/>
		<path class="bw" d="M441.9404297,22.140625c0-1.7358398,0.3857422-3.0800781,1.1552734-4.0322266
			c0.7695313-0.9516602,1.8339844-1.4277344,3.1914063-1.4277344c1.6386719,0,2.8496094,0.6791992,3.6328125,2.0371094h0.0429688
			l0.0410156-1.8271484h1.4707031v10.0170898c0,3.8217773-1.7080078,5.7329102-5.1240234,5.7329102
			c-1.1757813,0-2.3037109-0.2241211-3.3808594-0.671875l0.3359375-1.2392578
			c0.9931641,0.4335938,2.0087891,0.6508789,3.0449219,0.6508789c1.2314453,0,2.1347656-0.3432617,2.7089844-1.0288086
			c0.5732422-0.6860352,0.8603516-1.8134766,0.8603516-3.3808594v-1.3442383h-0.0410156
			c-0.7558594,1.3164063-1.953125,1.9741211-3.5917969,1.9741211c-1.2734375,0-2.3164063-0.4897461-3.1289063-1.4702148
			C442.3466797,25.1508789,441.9404297,23.8203125,441.9404297,22.140625z M443.453125,22.140625
			c0,1.2880859,0.2929688,2.3100586,0.8808594,3.065918s1.3583984,1.1337891,2.3105469,1.1337891
			c0.9667969,0,1.7568359-0.3637695,2.3730469-1.0917969c0.6152344-0.7275391,0.9169922-1.7290039,0.9023438-3.0029297v-0.2099609
			c0-1.2739258-0.3076172-2.2749023-0.9238281-3.0029297c-0.6152344-0.7280273-1.3994141-1.0922852-2.3515625-1.0922852
			c-0.9941406,0-1.7714844,0.3642578-2.3310547,1.0922852S443.4667969,20.7963867,443.453125,22.140625z"/>
		<path class="bw" d="M455.4853516,16.890625l3.2763672,8.987793h0.0410156l3.5703125-8.987793h1.6386719l-6.5097656,15.5400391h-1.6386719
			l2.0585938-4.6831055l-4.1376953-10.8569336H455.4853516z"/>
		<path class="bw" d="M471.8867188,19.6416016l3.7578125,3.96875v-4.5776367h1.5761719v6.2578125l2.3730469,2.5200195h-2.0166016
			l-1.4072266-1.4912109c-1.7636719,1.1342773-3.5839844,1.7011719-5.4599609,1.7011719
			c-1.5957031,0-2.8134766-0.3217773-3.6533203-0.9658203s-1.2607422-1.5820313-1.2607422-2.8139648
			c0-0.7841797,0.2871094-1.546875,0.8613281-2.2890625c0.5732422-0.7421875,1.5605469-1.5751953,2.9609375-2.4990234
			l-0.2519531-0.2729492c-0.7841797-0.7983398-1.3310547-1.4912109-1.6376953-2.0791016
			c-0.3085938-0.5878906-0.4628906-1.1689453-0.4628906-1.7431641c0-0.9375,0.3642578-1.6865234,1.0917969-2.2470703
			c0.7285156-0.5595703,1.7089844-0.8398438,2.9404297-0.8398438c1.2880859,0,2.2685547,0.2661133,2.9404297,0.7978516
			c0.671875,0.5322266,1.0078125,1.2675781,1.0078125,2.2050781c0,0.7700195-0.2451172,1.4775391-0.734375,2.1210938
			C474.0214844,18.0385742,473.1464844,18.7875977,471.8867188,19.6416016z M470.5839844,20.4604492
			c-1.1201172,0.7280273-1.9179688,1.3862305-2.3945313,1.9741211c-0.4755859,0.5878906-0.7128906,1.1689453-0.7128906,1.7431641
			c0,0.7978516,0.2792969,1.4140625,0.8398438,1.8476563c0.5595703,0.434082,1.3789063,0.6513672,2.4570313,0.6513672
			c0.8535156,0,1.6025391-0.1123047,2.2460938-0.3364258c0.6445313-0.2236328,1.3378906-0.6015625,2.0800781-1.1337891
			L470.5839844,20.4604492z M470.9199219,18.6123047c1.1201172-0.7558594,1.8613281-1.3574219,2.2265625-1.8056641
			c0.3632813-0.4477539,0.5449219-0.9311523,0.5449219-1.4492188c0-0.5595703-0.203125-0.9936523-0.6083984-1.3017578
			c-0.40625-0.3081055-1.0009766-0.4619141-1.7851563-0.4619141c-0.7421875,0-1.3232422,0.1611328-1.7431641,0.4829102
			c-0.4199219,0.3222656-0.6289063,0.7490234-0.6289063,1.2807617c0,0.4482422,0.1181641,0.875,0.3564453,1.28125
			C469.5195313,17.0449219,470.0664063,17.7026367,470.9199219,18.6123047z"/>
	</g>
	<g>
		<path class="bw" d="M120.2631836,53.659668c3.6118164,0,7.3989258-0.2661133,11.3608398-0.7983398l0.2939453,1.6801758
			c-0.6162109,0.5458984-1.519043,1.3369141-2.7089844,2.3730469s-2.1074219,1.8413086-2.7509766,2.4150391l0.0209961,0.0209961
			c0.3217773-0.1958008,0.671875-0.2939453,1.0498047-0.2939453c0.6723633,0,1.1899414,0.1821289,1.5541992,0.5458984
			c0.3637695,0.3642578,0.6015625,1.0498047,0.7138672,2.0581055c0.1259766,0.9941406,0.3291016,1.6308594,0.6088867,1.9111328
			c0.2802734,0.2797852,0.8681641,0.4199219,1.7641602,0.4199219c0.7138672,0,1.6098633-0.1259766,2.6879883-0.3779297
			l0.2099609,1.4277344c-1.0498047,0.2797852-2.1069336,0.4199219-3.1708984,0.4199219
			c-1.1899414,0.0136719-2.0371094-0.1889648-2.5410156-0.6088867s-0.8261719-1.1967773-0.9658203-2.3310547
			c-0.1123047-0.909668-0.2661133-1.4907227-0.4619141-1.7431641c-0.1962891-0.2519531-0.5322266-0.3706055-1.0083008-0.3569336
			c-1.1201172,0-3.7241211,1.6875-7.8120117,5.0610352l-0.902832-1.1337891
			c3.9755859-3.3041992,7.8188477-6.5869141,11.5288086-9.8491211l-0.0209961-0.0419922
			c-3.3740234,0.4482422-6.5239258,0.671875-9.449707,0.671875V53.659668z M122.3417969,48.4306641
			c2.7441406,0.7421875,5.5791016,1.2319336,8.5053711,1.4697266l-0.1889648,1.4072266
			c-2.9404297-0.237793-5.8242188-0.7348633-8.6523438-1.4912109L122.3417969,48.4306641z"/>
		<path class="bw" d="M141.2421875,49.8583984c3.6816406,0,7.1254883-0.1958008,10.3320313-0.5878906l0.2519531,1.4912109
			c-1.3583984,1.2739258-2.6181641,2.3027344-3.7802734,3.0869141s-2.4082031,1.4560547-3.737793,2.0161133v0.0419922
			c3.9477539-0.2099609,7.7348633-0.5112305,11.3608398-0.9033203l0.1049805,1.3442383
			c-3.5141602,0.3642578-6.1738281,1.0151367-7.9799805,1.953125s-2.7089844,1.9179688-2.7089844,2.9399414
			c0,2.0297852,2.3588867,3.0942383,7.0771484,3.1918945l-0.0419922,1.4277344
			c-5.7822266-0.1259766-8.6733398-1.5957031-8.6733398-4.409668c0-1.8061523,1.5258789-3.2973633,4.578125-4.4731445v-0.0419922
			c-3.6958008,0.3222656-6.9716797,0.4829102-9.828125,0.4829102v-1.2807617
			c2.0297852-0.027832,3.9272461-0.4482422,5.6914063-1.2602539c1.7636719-0.8115234,3.7026367-2.1699219,5.8168945-4.0737305
			l-0.0209961-0.0209961c-2.6879883,0.3222656-5.5019531,0.4829102-8.4418945,0.4829102V49.8583984z M152.2460938,47.6323242
			l1.2177734-0.440918c0.5600586,1.2324219,1.0292969,2.3310547,1.4072266,3.2973633l-1.2392578,0.3989258
			C153.3515625,50.159668,152.8896484,49.074707,152.2460938,47.6323242z M154.8291016,47.2753906l1.2387695-0.4199219
			c0.6582031,1.4560547,1.1342773,2.5761719,1.4282227,3.3598633l-1.2602539,0.3994141
			C155.7456055,49.3408203,155.2768555,48.2275391,154.8291016,47.2753906z"/>
		<path class="bw" d="M171.4399414,56.746582c0.3076172,0.8261719,0.4619141,1.777832,0.4619141,2.855957
			c0,1.8764648-0.6088867,3.3808594-1.8266602,4.5151367c-1.2182617,1.1337891-3.0170898,1.8339844-5.3969727,2.1000977
			l-0.2944336-1.512207c3.3461914-0.3496094,5.2709961-1.5678711,5.7753906-3.6538086l0.1259766-0.6933594h-0.0419922
			c-0.7421875,0.840332-1.722168,1.2602539-2.9399414,1.2602539c-1.1342773,0-2.0722656-0.3637695-2.8144531-1.0922852
			c-0.7421875-0.7275391-1.112793-1.6445313-1.112793-2.7509766c0-1.0776367,0.3706055-1.9736328,1.112793-2.6879883
			c0.7421875-0.7138672,1.6801758-1.0708008,2.8144531-1.0708008c0.9658203,0,1.8125,0.2519531,2.5410156,0.7558594
			l0.0419922-0.0209961c0-0.2939453-0.0141602-0.6367188-0.0419922-1.0288086
			c-0.0283203-0.3920898-0.0424805-0.6791992-0.0424805-0.8613281c-3.6958008,0.168457-7.1889648,0.2524414-10.4785156,0.2524414
			v-1.3652344c3.2617188,0,6.7407227-0.0839844,10.4365234-0.2519531c-0.0419922-1.1342773-0.0629883-2.2749023-0.0629883-3.4228516
			h1.5332031c0,1.0917969,0.0209961,2.2045898,0.0629883,3.3388672c1.9458008-0.0976563,3.8852539-0.2167969,5.8168945-0.3569336
			l0.0839844,1.3647461c-1.9458008,0.1401367-3.8989258,0.2592773-5.8588867,0.3569336
			C171.4047852,55.0175781,171.4399414,56.3408203,171.4399414,56.746582z M165.7280273,56.074707
			c-0.4902344,0.4760742-0.7348633,1.0571289-0.7348633,1.7426758c0,0.6860352,0.2446289,1.2675781,0.7348633,1.7431641
			c0.4897461,0.4760742,1.0849609,0.7211914,1.7851563,0.7348633c0.699707-0.0136719,1.2944336-0.2587891,1.784668-0.7348633
			c0.4902344-0.4755859,0.7353516-1.0571289,0.7353516-1.7431641c0-0.7275391-0.2382813-1.3227539-0.7143555-1.784668
			c-0.4760742-0.4624023-1.078125-0.6933594-1.8056641-0.6933594
			C166.8129883,55.3535156,166.2177734,55.5986328,165.7280273,56.074707z M173.078125,47.8217773l1.1547852-0.609375
			c0.5742188,0.9384766,1.1621094,1.9814453,1.7641602,3.1289063l-1.1552734,0.5673828
			C174.3935547,50.0405273,173.8056641,49.0117188,173.078125,47.8217773z M175.9130859,47.4643555l1.1757813-0.6088867
			c0.6303711,1.0361328,1.2319336,2.1000977,1.8061523,3.1918945l-1.1757813,0.5883789
			C177.1025391,49.4736328,176.5009766,48.4169922,175.9130859,47.4643555z"/>
		<path class="bw" d="M184.0400391,48.8505859h1.6381836c0,1.2597656-0.0561523,3.0522461-0.168457,5.3759766
			c-0.1118164,2.3242188-0.1679688,4.0322266-0.1679688,5.1240234c0,3.2900391,1.1972656,4.9350586,3.5913086,4.9350586
			c1.3579102,0,2.652832-0.5322266,3.8847656-1.5961914c1.2319336-1.0634766,2.3447266-2.6669922,3.3393555-4.809082
			l1.4067383,0.6933594c-1.0498047,2.3798828-2.3100586,4.1787109-3.7797852,5.3969727
			c-1.4702148,1.2177734-3.0874023,1.8266602-4.8510742,1.8266602c-0.7700195-0.0141602-1.456543-0.1191406-2.0581055-0.3149414
			c-0.6020508-0.1962891-1.1547852-0.5322266-1.6591797-1.0078125c-0.5039063-0.4760742-0.8818359-1.1342773-1.1337891-1.9741211
			c-0.2661133-0.8676758-0.3989258-1.9179688-0.3989258-3.1499023c0-1.0639648,0.0556641-2.7578125,0.1679688-5.0820313
			C183.9770508,51.6508789,184.0400391,49.8447266,184.0400391,48.8505859z"/>
		<path class="bw" d="M223.3100586,51.2236328c5.0258789,0,10.4648438-0.3920898,16.3168945-1.1762695l0.1469727,1.4702148
			c-2.9682617,0.40625-5.2993164,1.2387695-6.9931641,2.4990234c-1.6938477,1.2597656-2.5405273,2.7089844-2.5405273,4.347168
			c0,1.5258789,0.6015625,2.7578125,1.8056641,3.6958008s2.9189453,1.4912109,5.1450195,1.6591797l-0.1679688,1.5117188
			c-2.6459961-0.1821289-4.7182617-0.8676758-6.2158203-2.0581055c-1.4985352-1.1894531-2.2470703-2.7226563-2.2470703-4.5986328
			c0-1.315918,0.440918-2.5478516,1.3227539-3.6962891c0.8823242-1.1474609,2.1279297-2.0791016,3.7382813-2.7929688
			l-0.0209961-0.0419922c-3.8081055,0.4902344-7.2382813,0.7348633-10.2900391,0.7348633V51.2236328z"/>
		<path class="bw" d="M244.394043,52.1474609c2.8696289,0.1123047,5.8657227,0.0141602,8.987793-0.2939453
			c-0.3081055-0.9379883-0.644043-2.1489258-1.0078125-3.6328125l1.512207-0.1679688
			c0.3217773,1.315918,0.6645508,2.5268555,1.0288086,3.6328125c1.9458008-0.237793,3.8007813-0.5317383,5.5649414-0.8818359
			l0.230957,1.3647461c-1.8481445,0.3642578-3.6191406,0.644043-5.3129883,0.840332
			c0.6157227,1.6240234,1.5332031,3.4091797,2.7509766,5.3549805l-1.8061523,0.9238281
			c-1.4560547-0.9799805-3.0380859-1.4702148-4.7456055-1.4702148c-1.2744141,0-2.2612305,0.2519531-2.9609375,0.7563477
			c-0.7006836,0.5039063-1.043457,1.2041016-1.0292969,2.0996094c0.0136719,1.0644531,0.5107422,1.8901367,1.4912109,2.4780273
			c0.9794922,0.5883789,2.394043,0.8823242,4.2416992,0.8823242c1.078125,0,2.4707031-0.1611328,4.1791992-0.4829102
			l0.2519531,1.4067383c-1.6660156,0.3217773-3.1430664,0.4829102-4.4311523,0.4829102
			c-2.3798828,0-4.199707-0.4199219-5.4599609-1.2597656c-1.2597656-0.840332-1.8896484-2.0087891-1.8896484-3.5073242
			c0-1.2734375,0.4897461-2.3027344,1.4697266-3.0869141c0.9799805-0.7836914,2.2890625-1.1757813,3.9272461-1.1757813
			c1.6235352,0,3.1147461,0.3500977,4.4726563,1.0498047l0.0209961-0.0209961
			c-0.8261719-1.5117188-1.4980469-2.9326172-2.015625-4.2626953c-3.3466797,0.3217773-6.5102539,0.434082-9.4921875,0.3359375
			L244.394043,52.1474609z"/>
		<path class="bw" d="M266.1499023,49.2285156l1.5332031,0.2099609c-0.7001953,2.5761719-1.050293,5.25-1.050293,8.0219727
			s0.3500977,5.4462891,1.050293,8.0219727l-1.5332031,0.2099609c-0.7001953-2.6738281-1.0498047-5.4179688-1.0498047-8.2319336
			S265.449707,51.902832,266.1499023,49.2285156z M276.4399414,48.9135742l1.5332031,0.0209961
			c-0.0981445,1.1899414-0.1469727,2.4433594-0.1469727,3.7587891c1.2177734-0.1118164,2.5478516-0.2729492,3.9897461-0.4829102
			l0.1049805,1.4282227c-1.4277344,0.1962891-2.7929688,0.3569336-4.0947266,0.4829102c0,0.2661133,0,0.5390625,0,0.8188477
			c0,0.2802734,0.0136719,0.6020508,0.0419922,0.9663086c0.0136719,0.3642578,0.0209961,0.644043,0.0209961,0.8398438
			c0.027832,0.8398438,0.0556641,2.0649414,0.0839844,3.6748047c1.0917969,0.7280273,2.3657227,1.8061523,3.8217773,3.234375
			l-1.0498047,0.9868164c-0.9521484-0.9521484-1.8833008-1.777832-2.7929688-2.4780273
			c-0.2099609,2.3242188-1.5053711,3.4858398-3.8852539,3.4858398c-1.2460938,0-2.2329102-0.3012695-2.9609375-0.902832
			s-1.0991211-1.4208984-1.112793-2.4570313c0.0136719-0.9658203,0.3847656-1.7431641,1.112793-2.3310547
			s1.7148438-0.8818359,2.9609375-0.8818359c0.7841797,0,1.5678711,0.1679688,2.3520508,0.5039063
			c-0.0141602-0.3496094-0.0351563-0.8466797-0.0629883-1.4912109c-0.0283203-0.6435547-0.0351563-1.112793-0.0209961-1.4067383
			c-0.0141602-0.5600586-0.0351563-1.3720703-0.0629883-2.4360352c-2.128418,0.1542969-4.1230469,0.230957-5.9848633,0.230957
			v-1.4277344c1.8618164,0,3.8564453-0.0771484,5.9848633-0.2314453
			C276.2719727,51.6435547,276.3276367,50.3413086,276.4399414,48.9135742z M276.4399414,61.1777344
			c-0.8681641-0.4760742-1.6870117-0.7143555-2.4570313-0.7143555c-0.7700195-0.0136719-1.3647461,0.1469727-1.784668,0.4833984
			c-0.4204102,0.3359375-0.6303711,0.7841797-0.6303711,1.34375c0,0.6298828,0.2099609,1.112793,0.6303711,1.4492188
			c0.4199219,0.3359375,1.0146484,0.5039063,1.784668,0.5039063c0.8540039,0.0141602,1.4770508-0.203125,1.8691406-0.6508789
			c0.3916016-0.4482422,0.5878906-1.1831055,0.5878906-2.2050781V61.1777344z M278.6030273,47.6953125l1.2177734-0.4199219
			c0.5180664,1.1206055,0.9799805,2.2124023,1.3862305,3.2763672l-1.2182617,0.3989258
			C279.7089844,50.2226563,279.246582,49.1376953,278.6030273,47.6953125z M281.1650391,47.3383789l1.2597656-0.4199219
			c0.6582031,1.456543,1.1342773,2.5761719,1.4282227,3.3598633l-1.2602539,0.3994141
			C282.1728516,49.6137695,281.6967773,48.5009766,281.1650391,47.3383789z"/>
		<path class="bw" d="M293.828125,48.0737305l1.574707-0.0839844c0.1118164,0.8540039,0.3081055,1.8198242,0.5883789,2.8979492
			c1.6933594-0.1821289,3.3457031-0.4272461,4.9555664-0.7353516l0.168457,1.3232422
			c-1.6103516,0.2939453-3.1992188,0.5322266-4.7670898,0.7138672c0.2099609,0.671875,0.5107422,1.4775391,0.902832,2.4150391
			c1.6938477-0.1958008,3.4648438-0.4545898,5.3129883-0.7768555l0.1469727,1.3227539
			c-1.3857422,0.2382813-3.0102539,0.4760742-4.8720703,0.7143555c0.7563477,1.5400391,1.6171875,2.9750977,2.5830078,4.3046875
			l-1.6796875,0.840332c-1.1206055-0.5742188-2.0581055-0.9731445-2.8139648-1.1972656
			c-0.7563477-0.2236328-1.5615234-0.3286133-2.4150391-0.3149414c-2.2822266,0-3.4233398,0.7348633-3.4233398,2.2050781
			c0,0.8959961,0.434082,1.5820313,1.3022461,2.0581055c0.8676758,0.4760742,2.1630859,0.7211914,3.8847656,0.7348633
			c1.2182617,0,2.7021484-0.1396484,4.4521484-0.4199219l0.1889648,1.3647461
			c-1.722168,0.2797852-3.269043,0.4199219-4.6411133,0.4199219c-2.2119141,0-3.8989258-0.3642578-5.0610352-1.0917969
			c-1.1621094-0.7280273-1.7426758-1.7431641-1.7426758-3.0449219c0-0.434082,0.0766602-0.847168,0.230957-1.2392578
			c0.1396484-0.3916016,0.3916016-0.7695313,0.7558594-1.1337891c0.3637695-0.3637695,0.8959961-0.6577148,1.5961914-0.8818359
			c0.699707-0.2241211,1.5185547-0.3291016,2.4570313-0.3154297c1.5117188,0,3.0097656,0.3710938,4.4936523,1.1132813
			l0.0419922-0.0209961c-0.7001953-1.105957-1.2949219-2.1699219-1.784668-3.1918945
			c-3.6264648,0.3779297-6.965332,0.5668945-10.0170898,0.5668945v-1.3232422c2.9257813,0,6.0756836-0.1748047,9.449707-0.5249023
			c-0.3500977-0.8115234-0.644043-1.6166992-0.8818359-2.4150391c-2.4501953,0.2519531-4.815918,0.3779297-7.0981445,0.3779297
			v-1.3227539c2.1000977,0,4.3398438-0.1186523,6.7202148-0.3569336
			C294.1289063,49.8515625,293.9257813,48.8579102,293.828125,48.0737305z"/>
		<path class="bw" d="M329.296875,50.6777344h14.2802734v14.1328125h-1.6171875v-1.2597656H329.296875v-1.4282227h12.6630859V52.1054688
			H329.296875V50.6777344z"/>
		<path class="bw" d="M349.9819336,50.2573242h15.0361328v14.5952148h-1.5961914v-1.4492188h-11.84375v1.4492188h-1.5961914V50.2573242z
			 M363.421875,62.0175781V51.6435547h-11.84375v10.3740234H363.421875z"/>
		<path class="bw" d="M371.5068359,51.5175781h6.1533203v-3.3598633h1.6166992v3.3598633h6.4262695v1.3857422
			c-0.9243164,1.6103516-2.4291992,3.0595703-4.5151367,4.347168c2.1137695,1.1762695,4.2490234,2.4433594,6.4047852,3.8012695
			l-0.8608398,1.2597656c-2.2119141-1.4277344-4.5922852-2.8208008-7.1401367-4.1791992
			c-0.1401367,0.0839844-0.2451172,0.1401367-0.3149414,0.168457v7.6225586h-1.6166992v-6.9086914
			c-2.1420898,0.8818359-4.6972656,1.6240234-7.6650391,2.2260742L369.5751953,59.8125
			c3.5834961-0.699707,6.5727539-1.6381836,8.9667969-2.8139648s4.0952148-2.5410156,5.1030273-4.0952148h-12.1381836V51.5175781z"
			/>
		<path class="bw" d="M416.2998047,50.6777344c-1.2739258,0-2.5756836,0.3920898-3.9057617,1.1757813l-0.440918-1.3227539
			c1.4838867-0.840332,3.0029297-1.2602539,4.5566406-1.2602539c1.4560547,0,2.6040039,0.3222656,3.4443359,0.9658203
			c0.8398438,0.6445313,1.2524414,1.4912109,1.2387695,2.5410156c0,1.9321289-1.1269531,3.1782227-3.3808594,3.7382813v0.0419922
			c2.4638672,0.40625,3.6958008,1.6870117,3.6958008,3.8427734c0,1.456543-0.4760742,2.590332-1.4277344,3.4023438
			c-0.9521484,0.8120117-2.2963867,1.2177734-4.0322266,1.2177734c-1.5820313,0-3.0942383-0.4335938-4.5356445-1.3017578
			l0.4199219-1.3442383c1.3017578,0.8261719,2.652832,1.2392578,4.0527344,1.2392578
			c1.2739258,0.0136719,2.2329102-0.2592773,2.8769531-0.8193359c0.644043-0.5595703,0.9663086-1.3789063,0.9663086-2.4570313
			c0-1.0078125-0.3920898-1.7636719-1.1762695-2.2680664c-0.7841797-0.5039063-2.0439453-0.7558594-3.7797852-0.7558594h-0.9873047
			v-1.3857422h0.9873047c1.5400391,0,2.7016602-0.2519531,3.4858398-0.7563477
			c0.7841797-0.5039063,1.1831055-1.2104492,1.1972656-2.1206055
			C419.5551758,51.46875,418.4697266,50.6777344,416.2998047,50.6777344z"/>
		<path class="bw" d="M423.9648438,64.8105469L425.8125,49.4804688h2.0585938l3.8427734,13.3769531h0.0419922l3.84375-13.3769531h2.0576172
			l1.8476563,15.3300781h-1.6796875l-1.4287109-12.9360352h-0.0410156l-3.6962891,12.9360352h-1.9111328l-3.6953125-12.9360352
			h-0.0429688l-1.4277344,12.9360352H423.9648438z"/>
		<path class="bw" d="M449.7109375,53.890625h1.4697266v3.7167969c-0.0146484,1.1762695-0.4130859,2.0864258-1.1962891,2.7299805
			c-0.7851563,0.644043-1.9257813,0.9663086-3.4238281,0.9663086c-0.9375,0-1.7216797-0.1328125-2.3515625-0.3989258
			c-0.2949219,0.3081055-0.4414063,0.5952148-0.4414063,0.8608398c0,0.3500977,0.2167969,0.6230469,0.6513672,0.8188477
			c0.4335938,0.1962891,1.2451172,0.2939453,2.4355469,0.2939453c1.75,0,3.03125,0.2519531,3.8427734,0.7563477
			c0.8125,0.5039063,1.2109375,1.2597656,1.1972656,2.2675781c0,1.1762695-0.4824219,2.0927734-1.4492188,2.7509766
			c-0.9658203,0.6582031-2.3652344,0.9873047-4.1992188,0.9873047c-1.5117188,0-2.703125-0.2802734-3.5703125-0.8398438
			c-0.8681641-0.5605469-1.2949219-1.3095703-1.28125-2.2470703c0.0136719-0.6020508,0.203125-1.1835938,0.5673828-1.7431641
			s0.8466797-1.0078125,1.4482422-1.3442383c-0.6992188-0.3637695-1.0488281-0.8745117-1.0488281-1.5327148
			c0-0.5317383,0.265625-1.0849609,0.796875-1.6591797c-0.8115234-0.6577148-1.2167969-1.5605469-1.2167969-2.7089844
			c0.0136719-1.1337891,0.3984375-2.0649414,1.1542969-2.7929688c0.7558594-0.7275391,1.7226563-1.0917969,2.8984375-1.0917969
			c1.5820313,0,2.8066406,0.4829102,3.6748047,1.4487305h0.0419922V53.890625z M450.2773438,66.0703125
			c0-0.644043-0.265625-1.1479492-0.7978516-1.5117188s-1.4775391-0.5390625-2.8349609-0.5249023
			c-0.7138672,0-1.3369141-0.0419922-1.8691406-0.1259766c-0.53125,0.2519531-0.9726563,0.6162109-1.3222656,1.0917969
			c-0.3505859,0.4755859-0.5253906,0.9521484-0.5253906,1.4282227c0,0.5878906,0.3076172,1.0708008,0.9238281,1.4487305
			s1.4414063,0.5668945,2.4785156,0.5668945c1.2597656,0,2.2324219-0.2099609,2.9179688-0.6298828
			C449.9345703,67.3935547,450.2773438,66.8125,450.2773438,66.0703125z M444.3134766,55.6123047
			c-0.5322266,0.5043945-0.7978516,1.1694336-0.7978516,1.9951172c0,0.8261719,0.265625,1.4775391,0.7978516,1.953125
			c0.5322266,0.4760742,1.2666016,0.7070313,2.2050781,0.6928711c0.9101563,0,1.6308594-0.237793,2.1630859-0.7138672
			c0.53125-0.4755859,0.8046875-1.1201172,0.8183594-1.9321289c-0.0136719-0.8535156-0.3007813-1.5258789-0.8603516-2.0161133
			c-0.5595703-0.4897461-1.3095703-0.7348633-2.2470703-0.7348633
			C445.5390625,54.8564453,444.8457031,55.1083984,444.3134766,55.6123047z"/>
		<path class="bw" d="M455.5058594,53.890625l3.4863281,9.0507813h0.0419922l3.2978516-9.0507813h1.6582031l-4.2207031,10.9199219
			c-0.7285156,1.8759766-1.5087891,3.1499023-2.3417969,3.8217773c-0.8330078,0.6723633-2.0058594,1.0083008-3.5175781,1.0083008
			l-0.0625-1.28125c1.1337891,0,2.0078125-0.2412109,2.625-0.7241211c0.6152344-0.4833984,1.1972656-1.4248047,1.7421875-2.824707
			l-4.4306641-10.9199219H455.5058594z"/>
		<path class="bw" d="M471.2773438,49.2705078c1.2871094,0,2.2675781,0.2661133,2.9394531,0.7978516
			c0.671875,0.5322266,1.0078125,1.2675781,1.0078125,2.2050781c0,0.7700195-0.2441406,1.4775391-0.734375,2.1210938
			c-0.4902344,0.644043-1.3652344,1.3930664-2.625,2.2470703l3.7587891,3.96875
			c0.5039063-0.9375,0.8603516-2.1069336,1.0712891-3.5068359l1.6171875,0.0209961
			c-0.28125,1.8623047-0.8261719,3.4018555-1.6386719,4.6201172l2.8984375,3.065918h-2.015625L475.75,62.9204102
			c-1.3574219,1.4003906-3.0449219,2.1000977-5.0605469,2.1000977c-1.5957031,0-2.8144531-0.3217773-3.6542969-0.9658203
			s-1.2597656-1.5820313-1.2597656-2.8139648c0-0.7841797,0.2871094-1.546875,0.8613281-2.2890625
			c0.5732422-0.7421875,1.5605469-1.5751953,2.9609375-2.4990234l-0.2519531-0.2729492
			c-0.7851563-0.7983398-1.3310547-1.4912109-1.6386719-2.0791016c-0.3085938-0.5878906-0.4619141-1.1689453-0.4619141-1.7431641
			c0-0.9375,0.3642578-1.6865234,1.0917969-2.2470703C469.0644531,49.5507813,470.0449219,49.2705078,471.2773438,49.2705078z
			 M474.7636719,61.8706055L470.5625,57.4604492c-1.1191406,0.7280273-1.9179688,1.3862305-2.3935547,1.9741211
			s-0.7138672,1.1689453-0.7138672,1.7431641c0,0.7978516,0.2792969,1.4140625,0.8398438,1.8476563
			c0.5605469,0.434082,1.3789063,0.6513672,2.4570313,0.6513672
			C472.3759766,63.6767578,473.7128906,63.074707,474.7636719,61.8706055z M470.8984375,55.6123047
			c1.1210938-0.7558594,1.8623047-1.3574219,2.2265625-1.8056641c0.3632813-0.4477539,0.5458984-0.9311523,0.5458984-1.4492188
			c0-0.5595703-0.203125-0.9936523-0.6083984-1.3017578c-0.40625-0.3081055-1.0019531-0.4619141-1.7851563-0.4619141
			c-0.7421875,0-1.3232422,0.1611328-1.7431641,0.4829102c-0.4199219,0.3222656-0.6298828,0.7490234-0.6298828,1.2807617
			c0,0.4482422,0.1191406,0.875,0.3574219,1.28125C469.4990234,54.0449219,470.0449219,54.7026367,470.8984375,55.6123047z"/>
	</g>
	<g>
		<path fill="#E4007F" d="M120.2631836,90.659668c3.6118164,0,7.3989258-0.2661133,11.3608398-0.7983398l0.2939453,1.6801758
			c-0.6162109,0.5458984-1.519043,1.3369141-2.7089844,2.3730469s-2.1074219,1.8413086-2.7509766,2.4150391l0.0209961,0.0209961
			c0.3217773-0.1958008,0.671875-0.2939453,1.0498047-0.2939453c0.6723633,0,1.1899414,0.1821289,1.5541992,0.5458984
			c0.3637695,0.3642578,0.6015625,1.0498047,0.7138672,2.0581055c0.1259766,0.9941406,0.3291016,1.6308594,0.6088867,1.9111328
			c0.2802734,0.2797852,0.8681641,0.4199219,1.7641602,0.4199219c0.7138672,0,1.6098633-0.1259766,2.6879883-0.3779297
			l0.2099609,1.4277344c-1.0498047,0.2797852-2.1069336,0.4199219-3.1708984,0.4199219
			c-1.1899414,0.0136719-2.0371094-0.1889648-2.5410156-0.6088867s-0.8261719-1.1967773-0.9658203-2.3310547
			c-0.1123047-0.909668-0.2661133-1.4907227-0.4619141-1.7431641c-0.1962891-0.2519531-0.5322266-0.3706055-1.0083008-0.3569336
			c-1.1201172,0-3.7241211,1.6875-7.8120117,5.0610352l-0.902832-1.1337891
			c3.9755859-3.3041992,7.8188477-6.5869141,11.5288086-9.8491211l-0.0209961-0.0419922
			c-3.3740234,0.4482422-6.5239258,0.671875-9.449707,0.671875V90.659668z M122.3417969,85.4306641
			c2.7441406,0.7421875,5.5791016,1.2319336,8.5053711,1.4697266l-0.1889648,1.4072266
			c-2.9404297-0.237793-5.8242188-0.7348633-8.6523438-1.4912109L122.3417969,85.4306641z"/>
		<path fill="#E4007F" d="M141.2421875,86.8583984c3.6816406,0,7.1254883-0.1958008,10.3320313-0.5878906l0.2519531,1.4912109
			c-1.3583984,1.2739258-2.6181641,2.3027344-3.7802734,3.0869141s-2.4082031,1.4560547-3.737793,2.0161133v0.0419922
			c3.9477539-0.2099609,7.7348633-0.5112305,11.3608398-0.9033203l0.1049805,1.3442383
			c-3.5141602,0.3642578-6.1738281,1.0151367-7.9799805,1.953125s-2.7089844,1.9179688-2.7089844,2.9399414
			c0,2.0297852,2.3588867,3.0942383,7.0771484,3.1918945l-0.0419922,1.4277344
			c-5.7822266-0.1259766-8.6733398-1.5957031-8.6733398-4.409668c0-1.8061523,1.5258789-3.2973633,4.578125-4.4731445v-0.0419922
			c-3.6958008,0.3222656-6.9716797,0.4829102-9.828125,0.4829102v-1.2807617
			c2.0297852-0.027832,3.9272461-0.4482422,5.6914063-1.2602539c1.7636719-0.8115234,3.7026367-2.1699219,5.8168945-4.0737305
			l-0.0209961-0.0209961c-2.6879883,0.3222656-5.5019531,0.4829102-8.4418945,0.4829102V86.8583984z M152.2460938,84.6323242
			l1.2177734-0.440918c0.5600586,1.2324219,1.0292969,2.3310547,1.4072266,3.2973633l-1.2392578,0.3989258
			C153.3515625,87.159668,152.8896484,86.074707,152.2460938,84.6323242z M154.8291016,84.2753906l1.2387695-0.4199219
			c0.6582031,1.4560547,1.1342773,2.5761719,1.4282227,3.3598633l-1.2602539,0.3994141
			C155.7456055,86.3408203,155.2768555,85.2275391,154.8291016,84.2753906z"/>
		<path fill="#E4007F" d="M171.4399414,93.746582c0.3076172,0.8261719,0.4619141,1.777832,0.4619141,2.855957
			c0,1.8764648-0.6088867,3.3808594-1.8266602,4.5151367c-1.2182617,1.1337891-3.0170898,1.8339844-5.3969727,2.1000977
			l-0.2944336-1.512207c3.3461914-0.3496094,5.2709961-1.5678711,5.7753906-3.6538086l0.1259766-0.6933594h-0.0419922
			c-0.7421875,0.840332-1.722168,1.2602539-2.9399414,1.2602539c-1.1342773,0-2.0722656-0.3637695-2.8144531-1.0922852
			c-0.7421875-0.7275391-1.112793-1.6445313-1.112793-2.7509766c0-1.0776367,0.3706055-1.9736328,1.112793-2.6879883
			c0.7421875-0.7138672,1.6801758-1.0708008,2.8144531-1.0708008c0.9658203,0,1.8125,0.2519531,2.5410156,0.7558594
			l0.0419922-0.0209961c0-0.2939453-0.0141602-0.6367188-0.0419922-1.0288086
			c-0.0283203-0.3920898-0.0424805-0.6791992-0.0424805-0.8613281c-3.6958008,0.168457-7.1889648,0.2524414-10.4785156,0.2524414
			v-1.3652344c3.2617188,0,6.7407227-0.0839844,10.4365234-0.2519531c-0.0419922-1.1342773-0.0629883-2.2749023-0.0629883-3.4228516
			h1.5332031c0,1.0917969,0.0209961,2.2045898,0.0629883,3.3388672c1.9458008-0.0976563,3.8852539-0.2167969,5.8168945-0.3569336
			l0.0839844,1.3647461c-1.9458008,0.1401367-3.8989258,0.2592773-5.8588867,0.3569336
			C171.4047852,92.0175781,171.4399414,93.3408203,171.4399414,93.746582z M165.7280273,93.074707
			c-0.4902344,0.4760742-0.7348633,1.0571289-0.7348633,1.7426758c0,0.6860352,0.2446289,1.2675781,0.7348633,1.7431641
			c0.4897461,0.4760742,1.0849609,0.7211914,1.7851563,0.7348633c0.699707-0.0136719,1.2944336-0.2587891,1.784668-0.7348633
			c0.4902344-0.4755859,0.7353516-1.0571289,0.7353516-1.7431641c0-0.7275391-0.2382813-1.3227539-0.7143555-1.784668
			c-0.4760742-0.4624023-1.078125-0.6933594-1.8056641-0.6933594
			C166.8129883,92.3535156,166.2177734,92.5986328,165.7280273,93.074707z M173.078125,84.8217773l1.1547852-0.609375
			c0.5742188,0.9384766,1.1621094,1.9814453,1.7641602,3.1289063l-1.1552734,0.5673828
			C174.3935547,87.0405273,173.8056641,86.0117188,173.078125,84.8217773z M175.9130859,84.4643555l1.1757813-0.6088867
			c0.6303711,1.0361328,1.2319336,2.1000977,1.8061523,3.1918945l-1.1757813,0.5883789
			C177.1025391,86.4736328,176.5009766,85.4169922,175.9130859,84.4643555z"/>
		<path fill="#E4007F" d="M184.0400391,85.8505859h1.6381836c0,1.2597656-0.0561523,3.0522461-0.168457,5.3759766
			c-0.1118164,2.3242188-0.1679688,4.0322266-0.1679688,5.1240234c0,3.2900391,1.1972656,4.9350586,3.5913086,4.9350586
			c1.3579102,0,2.652832-0.5322266,3.8847656-1.5961914c1.2319336-1.0634766,2.3447266-2.6669922,3.3393555-4.809082
			l1.4067383,0.6933594c-1.0498047,2.3798828-2.3100586,4.1787109-3.7797852,5.3969727
			c-1.4702148,1.2177734-3.0874023,1.8266602-4.8510742,1.8266602c-0.7700195-0.0141602-1.456543-0.1191406-2.0581055-0.3149414
			c-0.6020508-0.1962891-1.1547852-0.5322266-1.6591797-1.0078125c-0.5039063-0.4760742-0.8818359-1.1342773-1.1337891-1.9741211
			c-0.2661133-0.8676758-0.3989258-1.9179688-0.3989258-3.1499023c0-1.0639648,0.0556641-2.7578125,0.1679688-5.0820313
			C183.9770508,88.6508789,184.0400391,86.8447266,184.0400391,85.8505859z"/>
		<path fill="#E4007F" d="M223.3100586,88.2236328c5.0258789,0,10.4648438-0.3920898,16.3168945-1.1762695l0.1469727,1.4702148
			c-2.9682617,0.40625-5.2993164,1.2387695-6.9931641,2.4990234c-1.6938477,1.2597656-2.5405273,2.7089844-2.5405273,4.347168
			c0,1.5258789,0.6015625,2.7578125,1.8056641,3.6958008s2.9189453,1.4912109,5.1450195,1.6591797l-0.1679688,1.5117188
			c-2.6459961-0.1821289-4.7182617-0.8676758-6.2158203-2.0581055c-1.4985352-1.1894531-2.2470703-2.7226563-2.2470703-4.5986328
			c0-1.315918,0.440918-2.5478516,1.3227539-3.6962891c0.8823242-1.1474609,2.1279297-2.0791016,3.7382813-2.7929688
			l-0.0209961-0.0419922c-3.8081055,0.4902344-7.2382813,0.7348633-10.2900391,0.7348633V88.2236328z"/>
		<path fill="#E4007F" d="M244.394043,89.1474609c2.8696289,0.1123047,5.8657227,0.0141602,8.987793-0.2939453
			c-0.3081055-0.9379883-0.644043-2.1489258-1.0078125-3.6328125l1.512207-0.1679688
			c0.3217773,1.315918,0.6645508,2.5268555,1.0288086,3.6328125c1.9458008-0.237793,3.8007813-0.5317383,5.5649414-0.8818359
			l0.230957,1.3647461c-1.8481445,0.3642578-3.6191406,0.644043-5.3129883,0.840332
			c0.6157227,1.6240234,1.5332031,3.4091797,2.7509766,5.3549805l-1.8061523,0.9238281
			c-1.4560547-0.9799805-3.0380859-1.4702148-4.7456055-1.4702148c-1.2744141,0-2.2612305,0.2519531-2.9609375,0.7563477
			c-0.7006836,0.5039063-1.043457,1.2041016-1.0292969,2.0996094c0.0136719,1.0644531,0.5107422,1.8901367,1.4912109,2.4780273
			c0.9794922,0.5883789,2.394043,0.8823242,4.2416992,0.8823242c1.078125,0,2.4707031-0.1611328,4.1791992-0.4829102
			l0.2519531,1.4067383c-1.6660156,0.3217773-3.1430664,0.4829102-4.4311523,0.4829102
			c-2.3798828,0-4.199707-0.4199219-5.4599609-1.2597656c-1.2597656-0.840332-1.8896484-2.0087891-1.8896484-3.5073242
			c0-1.2734375,0.4897461-2.3027344,1.4697266-3.0869141c0.9799805-0.7836914,2.2890625-1.1757813,3.9272461-1.1757813
			c1.6235352,0,3.1147461,0.3500977,4.4726563,1.0498047l0.0209961-0.0209961
			c-0.8261719-1.5117188-1.4980469-2.9326172-2.015625-4.2626953c-3.3466797,0.3217773-6.5102539,0.434082-9.4921875,0.3359375
			L244.394043,89.1474609z"/>
		<path fill="#E4007F" d="M266.1499023,86.2285156l1.5332031,0.2099609c-0.7001953,2.5761719-1.050293,5.25-1.050293,8.0219727
			s0.3500977,5.4462891,1.050293,8.0219727l-1.5332031,0.2099609c-0.7001953-2.6738281-1.0498047-5.4179688-1.0498047-8.2319336
			S265.449707,88.902832,266.1499023,86.2285156z M276.4399414,85.9135742l1.5332031,0.0209961
			c-0.0981445,1.1899414-0.1469727,2.4433594-0.1469727,3.7587891c1.2177734-0.1118164,2.5478516-0.2729492,3.9897461-0.4829102
			l0.1049805,1.4282227c-1.4277344,0.1962891-2.7929688,0.3569336-4.0947266,0.4829102c0,0.2661133,0,0.5390625,0,0.8188477
			c0,0.2802734,0.0136719,0.6020508,0.0419922,0.9663086c0.0136719,0.3642578,0.0209961,0.644043,0.0209961,0.8398438
			c0.027832,0.8398438,0.0556641,2.0649414,0.0839844,3.6748047c1.0917969,0.7280273,2.3657227,1.8061523,3.8217773,3.234375
			l-1.0498047,0.9868164c-0.9521484-0.9521484-1.8833008-1.777832-2.7929688-2.4780273
			c-0.2099609,2.3242188-1.5053711,3.4858398-3.8852539,3.4858398c-1.2460938,0-2.2329102-0.3012695-2.9609375-0.902832
			s-1.0991211-1.4208984-1.112793-2.4570313c0.0136719-0.9658203,0.3847656-1.7431641,1.112793-2.3310547
			s1.7148438-0.8818359,2.9609375-0.8818359c0.7841797,0,1.5678711,0.1679688,2.3520508,0.5039063
			c-0.0141602-0.3496094-0.0351563-0.8466797-0.0629883-1.4912109c-0.0283203-0.6435547-0.0351563-1.112793-0.0209961-1.4067383
			c-0.0141602-0.5600586-0.0351563-1.3720703-0.0629883-2.4360352c-2.128418,0.1542969-4.1230469,0.230957-5.9848633,0.230957
			v-1.4277344c1.8618164,0,3.8564453-0.0771484,5.9848633-0.2314453
			C276.2719727,88.6435547,276.3276367,87.3413086,276.4399414,85.9135742z M276.4399414,98.1777344
			c-0.8681641-0.4760742-1.6870117-0.7143555-2.4570313-0.7143555c-0.7700195-0.0136719-1.3647461,0.1469727-1.784668,0.4833984
			c-0.4204102,0.3359375-0.6303711,0.7841797-0.6303711,1.34375c0,0.6298828,0.2099609,1.112793,0.6303711,1.4492188
			c0.4199219,0.3359375,1.0146484,0.5039063,1.784668,0.5039063c0.8540039,0.0141602,1.4770508-0.203125,1.8691406-0.6508789
			c0.3916016-0.4482422,0.5878906-1.1831055,0.5878906-2.2050781V98.1777344z M278.6030273,84.6953125l1.2177734-0.4199219
			c0.5180664,1.1206055,0.9799805,2.2124023,1.3862305,3.2763672l-1.2182617,0.3989258
			C279.7089844,87.2226563,279.246582,86.1376953,278.6030273,84.6953125z M281.1650391,84.3383789l1.2597656-0.4199219
			c0.6582031,1.456543,1.1342773,2.5761719,1.4282227,3.3598633l-1.2602539,0.3994141
			C282.1728516,86.6137695,281.6967773,85.5009766,281.1650391,84.3383789z"/>
		<path fill="#E4007F" d="M293.828125,85.0737305l1.574707-0.0839844c0.1118164,0.8540039,0.3081055,1.8198242,0.5883789,2.8979492
			c1.6933594-0.1821289,3.3457031-0.4272461,4.9555664-0.7353516l0.168457,1.3232422
			c-1.6103516,0.2939453-3.1992188,0.5322266-4.7670898,0.7138672c0.2099609,0.671875,0.5107422,1.4775391,0.902832,2.4150391
			c1.6938477-0.1958008,3.4648438-0.4545898,5.3129883-0.7768555l0.1469727,1.3227539
			c-1.3857422,0.2382813-3.0102539,0.4760742-4.8720703,0.7143555c0.7563477,1.5400391,1.6171875,2.9750977,2.5830078,4.3046875
			l-1.6796875,0.840332c-1.1206055-0.5742188-2.0581055-0.9731445-2.8139648-1.1972656
			c-0.7563477-0.2236328-1.5615234-0.3286133-2.4150391-0.3149414c-2.2822266,0-3.4233398,0.7348633-3.4233398,2.2050781
			c0,0.8959961,0.434082,1.5820313,1.3022461,2.0581055c0.8676758,0.4760742,2.1630859,0.7211914,3.8847656,0.7348633
			c1.2182617,0,2.7021484-0.1396484,4.4521484-0.4199219l0.1889648,1.3647461
			c-1.722168,0.2797852-3.269043,0.4199219-4.6411133,0.4199219c-2.2119141,0-3.8989258-0.3642578-5.0610352-1.0917969
			c-1.1621094-0.7280273-1.7426758-1.7431641-1.7426758-3.0449219c0-0.434082,0.0766602-0.847168,0.230957-1.2392578
			c0.1396484-0.3916016,0.3916016-0.7695313,0.7558594-1.1337891c0.3637695-0.3637695,0.8959961-0.6577148,1.5961914-0.8818359
			c0.699707-0.2241211,1.5185547-0.3291016,2.4570313-0.3154297c1.5117188,0,3.0097656,0.3710938,4.4936523,1.1132813
			l0.0419922-0.0209961c-0.7001953-1.105957-1.2949219-2.1699219-1.784668-3.1918945
			c-3.6264648,0.3779297-6.965332,0.5668945-10.0170898,0.5668945v-1.3232422c2.9257813,0,6.0756836-0.1748047,9.449707-0.5249023
			c-0.3500977-0.8115234-0.644043-1.6166992-0.8818359-2.4150391c-2.4501953,0.2519531-4.815918,0.3779297-7.0981445,0.3779297
			v-1.3227539c2.1000977,0,4.3398438-0.1186523,6.7202148-0.3569336
			C294.1289063,86.8515625,293.9257813,85.8579102,293.828125,85.0737305z"/>
		<path fill="#E4007F" d="M329.296875,87.6777344h14.2802734v14.1328125h-1.6171875v-1.2597656H329.296875v-1.4282227h12.6630859
			V89.1054688H329.296875V87.6777344z"/>
		<path fill="#E4007F" d="M349.9819336,87.2573242h15.0361328v14.5952148h-1.5961914v-1.4492188h-11.84375v1.4492188h-1.5961914
			V87.2573242z M363.421875,99.0175781V88.6435547h-11.84375v10.3740234H363.421875z"/>
		<path fill="#E4007F" d="M371.5068359,88.5175781h6.1533203v-3.3598633h1.6166992v3.3598633h6.4262695v1.3857422
			c-0.9243164,1.6103516-2.4291992,3.0595703-4.5151367,4.347168c2.1137695,1.1762695,4.2490234,2.4433594,6.4047852,3.8012695
			l-0.8608398,1.2597656c-2.2119141-1.4277344-4.5922852-2.8208008-7.1401367-4.1791992
			c-0.1401367,0.0839844-0.2451172,0.1401367-0.3149414,0.168457v7.6225586h-1.6166992v-6.9086914
			c-2.1420898,0.8818359-4.6972656,1.6240234-7.6650391,2.2260742L369.5751953,96.8125
			c3.5834961-0.699707,6.5727539-1.6381836,8.9667969-2.8139648s4.0952148-2.5410156,5.1030273-4.0952148h-12.1381836V88.5175781z"
			/>
		<path fill="#E4007F" d="M416.2998047,87.6777344c-1.2739258,0-2.5756836,0.3920898-3.9057617,1.1757813l-0.440918-1.3227539
			c1.4838867-0.840332,3.0029297-1.2602539,4.5566406-1.2602539c1.4560547,0,2.6040039,0.3222656,3.4443359,0.9658203
			c0.8398438,0.6445313,1.2524414,1.4912109,1.2387695,2.5410156c0,1.9321289-1.1269531,3.1782227-3.3808594,3.7382813v0.0419922
			c2.4638672,0.40625,3.6958008,1.6870117,3.6958008,3.8427734c0,1.456543-0.4760742,2.590332-1.4277344,3.4023438
			c-0.9521484,0.8120117-2.2963867,1.2177734-4.0322266,1.2177734c-1.5820313,0-3.0942383-0.4335938-4.5356445-1.3017578
			l0.4199219-1.3442383c1.3017578,0.8261719,2.652832,1.2392578,4.0527344,1.2392578
			c1.2739258,0.0136719,2.2329102-0.2592773,2.8769531-0.8193359c0.644043-0.5595703,0.9663086-1.3789063,0.9663086-2.4570313
			c0-1.0078125-0.3920898-1.7636719-1.1762695-2.2680664c-0.7841797-0.5039063-2.0439453-0.7558594-3.7797852-0.7558594h-0.9873047
			v-1.3857422h0.9873047c1.5400391,0,2.7016602-0.2519531,3.4858398-0.7563477
			c0.7841797-0.5039063,1.1831055-1.2104492,1.1972656-2.1206055
			C419.5551758,88.46875,418.4697266,87.6777344,416.2998047,87.6777344z"/>
		<path fill="#E4007F" d="M423.9648438,101.8105469L425.8125,86.4804688h2.0585938l3.8427734,13.3769531h0.0419922
			l3.84375-13.3769531h2.0576172l1.8476563,15.3300781h-1.6796875l-1.4287109-12.9360352h-0.0410156l-3.6962891,12.9360352
			h-1.9111328l-3.6953125-12.9360352h-0.0429688l-1.4277344,12.9360352H423.9648438z"/>
		<path fill="#E4007F" d="M449.7109375,90.890625h1.4697266v3.7167969
			c-0.0146484,1.1762695-0.4130859,2.0864258-1.1962891,2.7299805c-0.7851563,0.644043-1.9257813,0.9663086-3.4238281,0.9663086
			c-0.9375,0-1.7216797-0.1328125-2.3515625-0.3989258c-0.2949219,0.3081055-0.4414063,0.5952148-0.4414063,0.8608398
			c0,0.3500977,0.2167969,0.6230469,0.6513672,0.8188477c0.4335938,0.1962891,1.2451172,0.2939453,2.4355469,0.2939453
			c1.75,0,3.03125,0.2519531,3.8427734,0.7563477c0.8125,0.5039063,1.2109375,1.2597656,1.1972656,2.2675781
			c0,1.1762695-0.4824219,2.0927734-1.4492188,2.7509766c-0.9658203,0.6582031-2.3652344,0.9873047-4.1992188,0.9873047
			c-1.5117188,0-2.703125-0.2802734-3.5703125-0.8398438c-0.8681641-0.5605469-1.2949219-1.3095703-1.28125-2.2470703
			c0.0136719-0.6020508,0.203125-1.1835938,0.5673828-1.7431641s0.8466797-1.0078125,1.4482422-1.3442383
			c-0.6992188-0.3637695-1.0488281-0.8745117-1.0488281-1.5327148c0-0.5317383,0.265625-1.0849609,0.796875-1.6591797
			c-0.8115234-0.6577148-1.2167969-1.5605469-1.2167969-2.7089844c0.0136719-1.1337891,0.3984375-2.0649414,1.1542969-2.7929688
			c0.7558594-0.7275391,1.7226563-1.0917969,2.8984375-1.0917969c1.5820313,0,2.8066406,0.4829102,3.6748047,1.4487305h0.0419922
			V90.890625z M450.2773438,103.0703125c0-0.644043-0.265625-1.1479492-0.7978516-1.5117188
			s-1.4775391-0.5390625-2.8349609-0.5249023c-0.7138672,0-1.3369141-0.0419922-1.8691406-0.1259766
			c-0.53125,0.2519531-0.9726563,0.6162109-1.3222656,1.0917969c-0.3505859,0.4755859-0.5253906,0.9521484-0.5253906,1.4282227
			c0,0.5878906,0.3076172,1.0708008,0.9238281,1.4487305s1.4414063,0.5668945,2.4785156,0.5668945
			c1.2597656,0,2.2324219-0.2099609,2.9179688-0.6298828C449.9345703,104.3935547,450.2773438,103.8125,450.2773438,103.0703125z
			 M444.3134766,92.6123047c-0.5322266,0.5043945-0.7978516,1.1694336-0.7978516,1.9951172
			c0,0.8261719,0.265625,1.4775391,0.7978516,1.953125c0.5322266,0.4760742,1.2666016,0.7070313,2.2050781,0.6928711
			c0.9101563,0,1.6308594-0.237793,2.1630859-0.7138672c0.53125-0.4755859,0.8046875-1.1201172,0.8183594-1.9321289
			c-0.0136719-0.8535156-0.3007813-1.5258789-0.8603516-2.0161133c-0.5595703-0.4897461-1.3095703-0.7348633-2.2470703-0.7348633
			C445.5390625,91.8564453,444.8457031,92.1083984,444.3134766,92.6123047z"/>
		<path fill="#E4007F" d="M455.5058594,90.890625l3.4863281,9.0507813h0.0419922l3.2978516-9.0507813h1.6582031
			l-4.2207031,10.9199219c-0.7285156,1.8759766-1.5087891,3.1499023-2.3417969,3.8217773
			c-0.8330078,0.6723633-2.0058594,1.0083008-3.5175781,1.0083008l-0.0625-1.28125c1.1337891,0,2.0078125-0.2412109,2.625-0.7241211
			c0.6152344-0.4833984,1.1972656-1.4248047,1.7421875-2.824707l-4.4306641-10.9199219H455.5058594z"/>
		<path fill="#E4007F" d="M471.2773438,86.2705078c1.2871094,0,2.2675781,0.2661133,2.9394531,0.7978516
			c0.671875,0.5322266,1.0078125,1.2675781,1.0078125,2.2050781c0,0.7700195-0.2441406,1.4775391-0.734375,2.1210938
			c-0.4902344,0.644043-1.3652344,1.3930664-2.625,2.2470703l3.7587891,3.96875
			c0.5039063-0.9375,0.8603516-2.1069336,1.0712891-3.5068359l1.6171875,0.0209961
			c-0.28125,1.8623047-0.8261719,3.4018555-1.6386719,4.6201172l2.8984375,3.065918h-2.015625L475.75,99.9204102
			c-1.3574219,1.4003906-3.0449219,2.1000977-5.0605469,2.1000977c-1.5957031,0-2.8144531-0.3217773-3.6542969-0.9658203
			s-1.2597656-1.5820313-1.2597656-2.8139648c0-0.7841797,0.2871094-1.546875,0.8613281-2.2890625
			c0.5732422-0.7421875,1.5605469-1.5751953,2.9609375-2.4990234l-0.2519531-0.2729492
			c-0.7851563-0.7983398-1.3310547-1.4912109-1.6386719-2.0791016c-0.3085938-0.5878906-0.4619141-1.1689453-0.4619141-1.7431641
			c0-0.9375,0.3642578-1.6865234,1.0917969-2.2470703C469.0644531,86.5507813,470.0449219,86.2705078,471.2773438,86.2705078z
			 M474.7636719,98.8706055L470.5625,94.4604492c-1.1191406,0.7280273-1.9179688,1.3862305-2.3935547,1.9741211
			s-0.7138672,1.1689453-0.7138672,1.7431641c0,0.7978516,0.2792969,1.4140625,0.8398438,1.8476563
			c0.5605469,0.434082,1.3789063,0.6513672,2.4570313,0.6513672
			C472.3759766,100.6767578,473.7128906,100.074707,474.7636719,98.8706055z M470.8984375,92.6123047
			c1.1210938-0.7558594,1.8623047-1.3574219,2.2265625-1.8056641c0.3632813-0.4477539,0.5458984-0.9311523,0.5458984-1.4492188
			c0-0.5595703-0.203125-0.9936523-0.6083984-1.3017578c-0.40625-0.3081055-1.0019531-0.4619141-1.7851563-0.4619141
			c-0.7421875,0-1.3232422,0.1611328-1.7431641,0.4829102c-0.4199219,0.3222656-0.6298828,0.7490234-0.6298828,1.2807617
			c0,0.4482422,0.1191406,0.875,0.3574219,1.28125C469.4990234,91.0449219,470.0449219,91.7026367,470.8984375,92.6123047z"/>
	</g>
	<g>
		<path fill="#00A0E9" d="M46.9350586,21.7905273v-8.0297852h0.8911133l2.8598633,4.8398438h0.0219727l2.8491211-4.8398438
			h0.9238281v8.0297852h-0.8798828V15.234375h-0.0219727l-2.4750977,4.1689453h-0.8251953l-2.4746094-4.1689453h-0.0219727
			v6.5561523H46.9350586z"/>
		<path fill="#00A0E9" d="M56.6811523,14.7504883v-1.2099609h0.8579102v1.2099609H56.6811523z M56.6811523,21.7905273v-5.7202148
			h0.8579102v5.7202148H56.6811523z"/>
		<path fill="#00A0E9" d="M59.2993164,18.8203125c0-0.9091797,0.2016602-1.612793,0.6049805-2.1118164
			c0.4033203-0.4985352,0.9604492-0.7480469,1.671875-0.7480469c0.8579102,0,1.4921875,0.355957,1.902832,1.0668945h0.0219727
			l0.0224609-0.9570313h0.7695313v5.2470703c0,2.0019531-0.8945313,3.0029297-2.6835938,3.0029297
			c-0.6162109,0-1.206543-0.1171875-1.7709961-0.3515625l0.1757813-0.6494141
			c0.5205078,0.2275391,1.0522461,0.3413086,1.5952148,0.3413086c0.6450195,0,1.1181641-0.1796875,1.4189453-0.5390625
			c0.300293-0.359375,0.4506836-0.949707,0.4506836-1.7709961v-0.7041016h-0.0219727
			c-0.3959961,0.6894531-1.0229492,1.0341797-1.8808594,1.0341797c-0.6674805,0-1.2138672-0.2568359-1.6391602-0.7700195
			S59.2993164,19.7006836,59.2993164,18.8203125z M60.0913086,18.8203125c0,0.6748047,0.1538086,1.2104492,0.4619141,1.6064453
			s0.7114258,0.59375,1.2099609,0.59375c0.5058594,0,0.9204102-0.1904297,1.2431641-0.5717773
			c0.3222656-0.3813477,0.4799805-0.9057617,0.4726563-1.5732422V18.765625c0-0.6674805-0.1611328-1.1918945-0.4838867-1.5732422
			c-0.3227539-0.3808594-0.7333984-0.5717773-1.2319336-0.5717773c-0.5209961,0-0.9277344,0.190918-1.2211914,0.5717773
			C60.2490234,17.5737305,60.0986328,18.1166992,60.0913086,18.8203125z"/>
		<path fill="#00A0E9" d="M66.0532227,21.7905273v-8.0297852h0.8911133l2.8598633,4.8398438h0.0219727l2.8491211-4.8398438
			h0.9238281v8.0297852h-0.8798828V15.234375h-0.0219727l-2.4750977,4.1689453h-0.8251953l-2.4746094-4.1689453h-0.0219727
			v6.5561523H66.0532227z"/>
		<path fill="#00A0E9" d="M75.7993164,14.7504883v-1.2099609h0.8579102v1.2099609H75.7993164z M75.7993164,21.7905273v-5.7202148
			h0.8579102v5.7202148H75.7993164z"/>
		<path fill="#00A0E9" d="M79.484375,16.0703125l1.4848633,2.2773438h0.0219727l1.4960938-2.2773438h0.9238281l-1.9580078,2.8164063
			l2.0131836,2.9038086h-0.9570313l-1.5400391-2.3759766h-0.0219727l-1.5507813,2.3759766H78.472168l2.0131836-2.9038086
			l-1.9580078-2.8164063H79.484375z"/>
		<path fill="#00A0E9" d="M90.6381836,21.7905273v-6.9741211h-0.0219727l-2.1669922,2.0019531l-0.3413086-0.7148438
			l2.5302734-2.3427734h0.8798828v8.0297852H90.6381836z"/>
		<path fill="#00A0E9" d="M94.9609375,13.8266602c0.7626953-0.1171875,1.5068359-0.1762695,2.2329102-0.1762695
			c0.9970703,0,1.7524414,0.2128906,2.2661133,0.6381836c0.5131836,0.425293,0.7734375,1.0268555,0.7807617,1.8037109
			c0,0.8510742-0.2602539,1.4960938-0.7807617,1.9360352c-0.5209961,0.4404297-1.2758789,0.6601563-2.2661133,0.6601563
			c-0.4838867,0-0.9350586-0.0219727-1.3530273-0.065918v3.1679688h-0.8798828V13.8266602z M95.8408203,17.8964844
			c0.425293,0.0585938,0.8544922,0.0878906,1.2871094,0.0878906c0.7333984,0,1.2905273-0.1572266,1.671875-0.4726563
			s0.5722656-0.7666016,0.5722656-1.3530273c0-0.5869141-0.190918-1.0341797-0.5722656-1.3422852
			s-0.9384766-0.4580078-1.671875-0.4506836c-0.4033203,0-0.8325195,0.0366211-1.2871094,0.1098633V17.8964844z"/>
	</g>
	<g>
		<path fill="#E4007F" d="M46.4951172,58.7905273l0.9677734-8.0297852h1.078125l2.0131836,7.0068359h0.0219727l2.0126953-7.0068359
			h1.078125l0.9677734,8.0297852h-0.8798828l-0.7480469-6.7758789h-0.0219727l-1.9360352,6.7758789h-1.0009766l-1.9360352-6.7758789
			h-0.0219727l-0.7480469,6.7758789H46.4951172z"/>
		<path fill="#E4007F" d="M56.3950195,51.7504883v-1.2099609h0.8579102v1.2099609H56.3950195z M56.3950195,58.7905273v-5.7202148
			h0.8579102v5.7202148H56.3950195z"/>
		<path fill="#E4007F" d="M63.3691406,53.0703125h0.7700195v1.9472656
			c-0.0073242,0.6157227-0.2163086,1.0927734-0.6269531,1.4301758c-0.4111328,0.3374023-1.0083008,0.5058594-1.7929688,0.5058594
			c-0.4916992,0-0.9023438-0.0698242-1.2319336-0.2089844c-0.1542969,0.1611328-0.2314453,0.3115234-0.2314453,0.4506836
			c0,0.1835938,0.1137695,0.3266602,0.3413086,0.4291992c0.2270508,0.1030273,0.6523438,0.1538086,1.2758789,0.1538086
			c0.9165039,0,1.5874023,0.1323242,2.0131836,0.3959961c0.425293,0.2641602,0.6342773,0.6601563,0.6269531,1.1879883
			c0,0.6162109-0.2529297,1.0966797-0.7592773,1.4414063c-0.5058594,0.3442383-1.2392578,0.5166016-2.199707,0.5166016
			c-0.7919922,0-1.4155273-0.1464844-1.8701172-0.4399414s-0.6782227-0.6855469-0.6708984-1.1767578
			c0.0073242-0.3154297,0.105957-0.6196289,0.296875-0.9130859c0.1904297-0.293457,0.4438477-0.527832,0.7587891-0.7041016
			c-0.3666992-0.1904297-0.5498047-0.4580078-0.5498047-0.8027344c0-0.2788086,0.1391602-0.5683594,0.4179688-0.8691406
			c-0.425293-0.3447266-0.6381836-0.8178711-0.6381836-1.4189453c0.0073242-0.5942383,0.2094727-1.081543,0.6054688-1.4628906
			s0.9018555-0.5722656,1.5175781-0.5722656c0.8286133,0,1.4702148,0.2529297,1.925293,0.7592773h0.0219727V53.0703125z
			 M63.6660156,59.4506836c0-0.3374023-0.1391602-0.6015625-0.4179688-0.7919922
			c-0.2788086-0.190918-0.7739258-0.2822266-1.4848633-0.2753906c-0.3740234,0-0.7006836-0.0219727-0.9790039-0.065918
			c-0.2788086,0.1323242-0.5097656,0.3227539-0.6928711,0.5722656c-0.1835938,0.2490234-0.2753906,0.4985352-0.2753906,0.7480469
			c0,0.3076172,0.1611328,0.5610352,0.484375,0.7587891c0.3222656,0.1982422,0.7548828,0.296875,1.2978516,0.296875
			c0.6601563,0,1.1694336-0.1098633,1.5288086-0.3295898C63.4863281,60.1435547,63.6660156,59.8393555,63.6660156,59.4506836z
			 M60.5419922,53.9726563c-0.2788086,0.2636719-0.4179688,0.6123047-0.4179688,1.0449219s0.1391602,0.7739258,0.4179688,1.0229492
			c0.2788086,0.2495117,0.6635742,0.3706055,1.1552734,0.362793c0.4765625,0,0.8540039-0.1245117,1.1328125-0.3740234
			c0.2788086-0.2490234,0.4213867-0.5864258,0.4291992-1.0117188c-0.0078125-0.4472656-0.1582031-0.7993164-0.4511719-1.0561523
			c-0.293457-0.2563477-0.6860352-0.3847656-1.1772461-0.3847656
			C61.1835938,53.5766602,60.8208008,53.7084961,60.5419922,53.9726563z"/>
		<path fill="#E4007F" d="M65.5581055,58.7905273l0.9677734-8.0297852h1.078125l2.0131836,7.0068359h0.0219727l2.0126953-7.0068359
			h1.078125l0.9677734,8.0297852h-0.8798828l-0.7480469-6.7758789h-0.0219727l-1.9360352,6.7758789h-1.0009766l-1.9360352-6.7758789
			H67.152832l-0.7480469,6.7758789H65.5581055z"/>
		<path fill="#E4007F" d="M75.4580078,51.7504883v-1.2099609h0.8579102v1.2099609H75.4580078z M75.4580078,58.7905273v-5.7202148
			h0.8579102v5.7202148H75.4580078z"/>
		<path fill="#E4007F" d="M79.1430664,53.0703125l1.4848633,2.2773438h0.0219727l1.4960938-2.2773438h0.9238281
			l-1.9580078,2.8164063L83.125,58.7905273h-0.9570313l-1.5400391-2.3759766H80.605957l-1.5507813,2.3759766h-0.9243164
			l2.0131836-2.9038086l-1.9580078-2.8164063H79.1430664z"/>
		<path fill="#E4007F" d="M90.1098633,51.3984375c-0.7260742,0-1.4521484,0.2529297-2.1782227,0.7592773l-0.2636719-0.7041016
			c0.7475586-0.5351563,1.5981445-0.8032227,2.5517578-0.8032227c0.784668,0,1.3930664,0.1982422,1.8261719,0.5942383
			c0.4326172,0.3959961,0.6489258,0.9570313,0.6489258,1.6831055c0,0.71875-0.2602539,1.4443359-0.78125,2.1777344
			c-0.5205078,0.7333984-1.4956055,1.7089844-2.9257813,2.9262695v0.0219727h3.7397461v0.7368164h-4.949707v-0.7368164
			c1.5620117-1.2983398,2.621582-2.3066406,3.1787109-3.0253906c0.5576172-0.7182617,0.8364258-1.3969727,0.8364258-2.034668
			c0-0.5205078-0.1430664-0.9165039-0.4291992-1.1879883S90.659668,51.3984375,90.1098633,51.3984375z"/>
		<path fill="#E4007F" d="M94.6196289,50.7607422h2.0131836c1.1362305,0,1.9648438,0.1831055,2.4858398,0.5498047
			c0.5205078,0.3666992,0.7807617,0.9458008,0.7807617,1.737793c0,1.7016602-1.0268555,2.5522461-3.0800781,2.5522461h-1.3198242
			v3.1899414h-0.8798828V50.7607422z M95.4995117,54.8964844h1.2431641c1.5249023,0,2.2880859-0.590332,2.2880859-1.7709961
			c0-0.5498047-0.1762695-0.9643555-0.5283203-1.2431641c-0.3520508-0.2783203-0.949707-0.4140625-1.7929688-0.4067383h-1.2099609
			V54.8964844z"/>
	</g>
</g>
<g id="レイヤー_2">
	<g>
		<path fill="#00A0E9" d="M119.5068359,90.1977539h13.0410156v1.5537109l-5.2080078,4.2841797l0.0209961,0.0209961
			c0.1401367-0.027832,0.2519531-0.0419922,0.3359375-0.0419922c0.4902344,0,0.875,0.1889648,1.1552734,0.5668945
			c0.2797852,0.3779297,0.5668945,1.1269531,0.8608398,2.2470703c0.2661133,0.9521484,0.5390625,1.5537109,0.8193359,1.8061523
			c0.2797852,0.2519531,0.8046875,0.3779297,1.574707,0.3779297c0.9101563,0,1.8061523-0.1259766,2.6879883-0.3779297
			l0.2729492,1.3857422c-1.0219727,0.2797852-2.0581055,0.4199219-3.1079102,0.4199219
			c-1.1201172,0-1.9389648-0.1962891-2.4570313-0.5878906s-0.9101563-1.1201172-1.1757813-2.184082
			c-0.2382813-0.9516602-0.4829102-1.5957031-0.7353516-1.9321289c-0.2519531-0.3359375-0.5668945-0.5107422-0.9448242-0.5249023
			c-0.2241211,0-0.40625,0.0209961-0.5458984,0.0629883c-0.1259766,0.0283203-0.4692383,0.2382813-1.0292969,0.6303711
			s-1.2529297,0.9101563-2.0786133,1.5537109c-0.8261719,0.644043-2.1352539,1.6943359-3.9272461,3.1499023l-0.9238281-1.1757813
			l12.1586914-9.8071289l-0.0209961-0.0419922h-10.7729492V90.1977539z M121.7119141,86.9633789l0.1889648-1.3857422
			c3.1499023,0.5039063,6.2441406,0.7558594,9.2822266,0.7558594v1.4492188
			C128.4111328,87.7827148,125.2539063,87.5097656,121.7119141,86.9633789z"/>
		<path fill="#00A0E9" d="M143.0688477,92.6757813v0.0419922l12.3691406-0.9243164l0.0839844,1.4072266l-5.2080078,0.3779297
			c-1.722168,0.5878906-3.03125,1.315918-3.9267578,2.184082c-0.8964844,0.8681641-1.3442383,1.777832-1.3442383,2.7299805
			c0,1.9038086,1.777832,2.855957,5.3339844,2.855957c1.1621094,0,2.2050781-0.0908203,3.1289063-0.2729492l0.1679688,1.4277344
			c-1.0639648,0.1958008-2.1625977,0.2939453-3.296875,0.2939453c-1.315918,0-2.4433594-0.1118164-3.3808594-0.3359375
			c-0.9521484-0.2382813-1.6801758-0.5532227-2.184082-0.9448242s-0.8681641-0.8261719-1.0917969-1.3022461
			c-0.2241211-0.4755859-0.3432617-0.9936523-0.3574219-1.5537109c0-1.9038086,1.3232422-3.5209961,3.9692383-4.8510742v-0.0419922
			l-9.3032227,0.6928711l-0.0839844-1.4067383c1.4980469-0.1118164,3.269043-0.6513672,5.3129883-1.6171875
			s4.1298828-2.2749023,6.2583008-3.9267578l-0.0209961-0.0419922h-8.2319336v-1.4072266h10.730957l0.1049805,1.3652344
			C148.6967773,89.8476563,145.6870117,91.5976563,143.0688477,92.6757813z M152.519043,87.3623047l1.2387695-0.440918
			c0.4760742,1.0366211,0.9379883,2.1352539,1.3862305,3.2973633l-1.2392578,0.3989258
			C153.625,89.8896484,153.1625977,88.8046875,152.519043,87.3623047z M155.1020508,87.0053711l1.2597656-0.4199219
			c0.6582031,1.456543,1.1342773,2.5761719,1.4282227,3.3598633l-1.2602539,0.3994141
			C156.1098633,89.2807617,155.6337891,88.1679688,155.1020508,87.0053711z"/>
		<path fill="#00A0E9" d="M159.1967773,87.4677734h10.1430664v-2.7304688h1.5332031v2.7304688h6.2368164v1.3227539h-6.2368164
			v4.7041016c0.265625,0.8261719,0.3989258,1.6870117,0.3989258,2.5830078c0,2.0859375-0.5600586,3.6748047-1.6801758,4.7670898
			c-1.1201172,1.0917969-2.9257813,1.8125-5.4179688,2.1625977l-0.230957-1.4697266
			c1.9741211-0.237793,3.4233398-0.7348633,4.347168-1.4912109c0.9238281-0.7558594,1.4208984-1.784668,1.4907227-3.0869141
			v-0.2729492h-0.0419922c-0.644043,0.9379883-1.7080078,1.4072266-3.1918945,1.4072266
			c-1.1621094-0.0141602-2.1347656-0.3994141-2.9189453-1.1552734s-1.1689453-1.7011719-1.1547852-2.8349609
			c-0.0141602-1.1337891,0.3706055-2.0791016,1.1547852-2.8349609s1.7568359-1.1411133,2.9189453-1.1547852
			c1.0639648,0,1.980957,0.3149414,2.7509766,0.9448242h0.0419922v-2.2680664h-10.1430664V87.4677734z M164.0478516,94.1035156
			c0,0.7280273,0.2592773,1.3442383,0.7773438,1.8481445c0.5175781,0.5039063,1.168457,0.7558594,1.9526367,0.7558594
			s1.4350586-0.2519531,1.953125-0.7558594s0.7768555-1.1201172,0.7768555-1.8481445
			c0-0.7138672-0.2587891-1.3227539-0.7768555-1.8271484c-0.5180664-0.5039063-1.1689453-0.7558594-1.953125-0.7558594
			s-1.4350586,0.2519531-1.9526367,0.7558594C164.3071289,92.7807617,164.0478516,93.3896484,164.0478516,94.1035156z
			 M172.237793,91.5625l1.2602539-0.671875c0.6855469,1.1337891,1.3369141,2.2822266,1.953125,3.4438477l-1.2602539,0.6298828
			C173.5888672,93.8305664,172.9379883,92.6967773,172.237793,91.5625z M175.1782227,90.7646484l1.2807617-0.6928711
			c0.8256836,1.3579102,1.4980469,2.5336914,2.0161133,3.527832l-1.3022461,0.6298828
			C176.5288086,93.0395508,175.8637695,91.8847656,175.1782227,90.7646484z"/>
		<path fill="#00A0E9" d="M185.2368164,85.6196289c-0.1679688,3.7939453-0.2519531,6.9506836-0.2519531,9.4707031
			c-0.0141602,1.3164063,0.0629883,2.394043,0.230957,3.234375c0.1679688,0.8398438,0.434082,1.4770508,0.7983398,1.9106445
			c0.3637695,0.434082,0.7978516,0.7353516,1.3017578,0.9033203c0.4897461,0.1679688,1.1269531,0.2519531,1.9111328,0.2519531
			c1.4697266,0,2.8139648-0.5600586,4.0317383-1.6801758c1.2182617-1.1196289,2.2329102-2.7368164,3.0454102-4.8510742
			l1.4487305,0.5673828c-0.9101563,2.449707-2.0932617,4.3120117-3.5488281,5.5859375
			c-1.456543,1.2734375-3.1152344,1.9106445-4.9770508,1.9106445c-2.2124023-0.0136719-3.7451172-0.5810547-4.5991211-1.7006836
			c-0.8540039-1.1201172-1.2807617-3.1640625-1.2807617-6.1323242c0-2.8139648,0.0766602-5.9916992,0.230957-9.5336914
			L185.2368164,85.6196289z"/>
		<path fill="#00A0E9" d="M222.9951172,87.2363281c5.5576172,0,11.2207031-0.1396484,16.9887695-0.4199219l0.0839844,1.4702148
			c-3.527832,0.3359375-6.2299805,1.1757813-8.105957,2.5200195c-1.8759766,1.34375-2.8212891,3.0029297-2.8349609,4.9770508
			c0,1.6098633,0.5390625,2.8842773,1.6171875,3.8217773c1.0776367,0.9379883,2.5200195,1.4072266,4.3256836,1.4072266
			c0.8261719,0,1.7011719-0.0771484,2.625-0.230957l0.1889648,1.4907227
			c-0.8681641,0.1538086-1.8266602,0.230957-2.8769531,0.230957c-2.3237305-0.0141602-4.171875-0.6088867-5.5439453-1.784668
			c-1.3720703-1.1762695-2.0581055-2.7719727-2.0581055-4.7880859c-0.0136719-1.6240234,0.5253906-3.0800781,1.6171875-4.3681641
			s2.6318359-2.3100586,4.6201172-3.065918v-0.0419922c-4.1723633,0.1679688-7.7211914,0.2519531-10.6469727,0.2519531V87.2363281z"
			/>
		<path fill="#00A0E9" d="M254.012207,87.9716797c-0.1542969-0.8959961-0.2592773-1.8339844-0.3154297-2.8139648
			l1.5332031-0.0839844c0.0556641,1.0219727,0.1606445,1.9736328,0.3149414,2.855957
			c1.2319336-0.0419922,2.9887695-0.1191406,5.2709961-0.230957l0.0629883,1.4067383
			c-1.1201172,0.0561523-2.8139648,0.1259766-5.0820313,0.2099609c0.4619141,2.1142578,1.3369141,4.1303711,2.625,6.0483398
			l-1.4067383,0.8398438c-1.6523438-1.1621094-3.5283203-1.7431641-5.6279297-1.7431641
			c-1.3862305,0-2.4711914,0.2729492-3.2553711,0.8193359c-0.7841797,0.5458984-1.1689453,1.3017578-1.1547852,2.2675781
			c0,2.4643555,2.0507813,3.6962891,6.152832,3.6962891c1.5820313,0,3.2338867-0.1606445,4.9560547-0.4829102l0.2519531,1.4067383
			c-1.6376953,0.3217773-3.3740234,0.4829102-5.2080078,0.4829102c-1.4277344,0-2.6601563-0.1401367-3.6958008-0.4199219
			c-1.0361328-0.2802734-1.8481445-0.671875-2.4360352-1.1757813s-1.0078125-1.050293-1.2602539-1.6381836
			c-0.2519531-0.5878906-0.3779297-1.2387695-0.3779297-1.953125c0-1.3574219,0.5249023-2.4287109,1.5751953-3.2128906
			c1.0498047-0.7836914,2.5058594-1.1826172,4.3681641-1.1967773c1.6235352,0,3.1987305,0.3642578,4.7246094,1.0917969
			l0.0209961-0.0209961c-0.7841797-1.4140625-1.3720703-3.0029297-1.7636719-4.7670898
			c-3.6264648,0.1123047-7.0004883,0.1679688-10.1220703,0.1679688v-1.4067383
			C247.6347656,88.1186523,250.9179688,88.0698242,254.012207,87.9716797z"/>
		<path fill="#00A0E9" d="M267.2421875,86.1025391c-0.6865234,2.6040039-1.0292969,5.3901367-1.0292969,8.3579102
			c0,2.9682617,0.3427734,5.7539063,1.0292969,8.3579102l-1.512207,0.2099609
			c-0.7001953-2.659668-1.0498047-5.515625-1.0498047-8.5678711c0-3.0517578,0.3496094-5.9077148,1.0498047-8.5678711
			L267.2421875,86.1025391z M269.9511719,89.2104492h6.4257813v-3.6328125h1.5541992v3.6328125h4.199707v1.4072266h-4.199707
			v6.6147461c1.0214844,0.6860352,2.3100586,1.8061523,3.8637695,3.3603516l-1.0708008,1.0498047
			c-0.9379883-0.9658203-1.8764648-1.8271484-2.8139648-2.5830078c-0.0561523,2.6323242-1.3793945,3.9477539-3.9692383,3.9477539
			c-1.4418945-0.0136719-2.5620117-0.3427734-3.3598633-0.9868164c-0.7978516-0.6435547-1.1972656-1.5541992-1.1972656-2.7299805
			c0-1.0917969,0.3920898-1.9321289,1.1762695-2.5200195c0.7836914-0.5878906,1.9111328-0.8886719,3.3808594-0.902832
			c0.8398438,0,1.6518555,0.1679688,2.4360352,0.5039063v-5.7539063h-6.4257813V89.2104492z M276.3769531,97.9887695
			c-0.8398438-0.4624023-1.6801758-0.6933594-2.5200195-0.6933594c-1.9599609,0-2.9399414,0.6650391-2.9399414,1.9951172
			c0,1.5400391,0.9799805,2.3100586,2.9399414,2.3100586c0.8681641,0,1.5048828-0.2236328,1.9111328-0.671875
			c0.4057617-0.4482422,0.6088867-1.1552734,0.6088867-2.1210938V97.9887695z M278.6030273,84.6953125l1.2177734-0.4199219
			c0.5180664,1.1206055,0.9799805,2.2124023,1.3862305,3.2763672l-1.2182617,0.3989258
			C279.7089844,87.2226563,279.246582,86.1376953,278.6030273,84.6953125z M281.1650391,84.3383789l1.2597656-0.4199219
			c0.6582031,1.456543,1.1342773,2.5761719,1.4282227,3.3598633l-1.2602539,0.3994141
			C282.1728516,86.6137695,281.6967773,85.5009766,281.1650391,84.3383789z"/>
		<path fill="#00A0E9" d="M295.1928711,87.4887695c-0.1259766-0.7983398-0.2099609-1.6240234-0.2519531-2.4780273
			l1.5332031-0.0839844c0.0556641,0.7978516,0.1538086,1.6376953,0.2939453,2.5200195
			c1.7919922-0.0561523,3.6396484-0.1401367,5.5439453-0.2524414L302.375,88.5385742
			c-2.4501953,0.1123047-4.2421875,0.1889648-5.3759766,0.230957c0.1816406,0.8818359,0.4335938,1.7641602,0.7558594,2.6459961
			c2.2680664-0.0839844,3.9550781-0.1538086,5.0610352-0.2099609l0.0419922,1.3227539
			c-1.0078125,0.0561523-2.5341797,0.1264648-4.578125,0.2104492c0.5043945,1.1479492,1.2041016,2.3935547,2.1000977,3.737793
			l-1.4067383,0.9868164c-1.9462891-0.909668-3.7802734-1.3647461-5.5019531-1.3647461
			c-2.8422852,0-4.2631836,0.7841797-4.2631836,2.3520508c0,1.0078125,0.4755859,1.7568359,1.4282227,2.2470703
			c0.9516602,0.4902344,2.4775391,0.7348633,4.5776367,0.7348633c1.512207,0,3.1430664-0.1396484,4.8930664-0.4199219
			l0.1889648,1.3647461c-1.7216797,0.2797852-3.4160156,0.4199219-5.0820313,0.4199219
			c-5.1240234,0-7.6860352-1.4487305-7.6860352-4.3466797c0-1.0639648,0.4760742-1.9458008,1.4282227-2.6459961
			c0.9516602-0.7001953,2.4570313-1.0429688,4.5151367-1.0292969c1.4833984,0,3.0029297,0.3012695,4.5566406,0.9033203
			l0.0209961-0.0419922c-0.4619141-0.840332-0.9238281-1.7919922-1.3857422-2.855957
			c-3.7802734,0.1118164-7.2802734,0.1679688-10.5,0.1679688v-1.3232422c3.5136719,0,6.8457031-0.0488281,9.9960938-0.1469727
			c-0.2802734-0.7978516-0.5253906-1.6870117-0.7353516-2.6669922c-3.3740234,0.0981445-6.2089844,0.1469727-8.5048828,0.1469727
			v-1.34375C289.6206055,87.6147461,292.3789063,87.5727539,295.1928711,87.4887695z"/>
		<path fill="#00A0E9" d="M329.0869141,87.1733398h14.7001953v14.1542969h-14.7001953v-1.4702148h13.0830078V88.6435547h-13.0830078
			V87.1733398z"/>
		<path fill="#00A0E9" d="M351.2631836,101.6635742h-1.6801758V86.8374023h15.8339844v14.8261719H351.2631836z
			 M351.2631836,100.1723633h12.4736328v-11.84375h-12.4736328V100.1723633z"/>
		<path fill="#00A0E9" d="M370.9399414,88.2236328h6.6782227v-3.1499023h1.6796875v3.1499023h6.972168v1.4697266
			c-1.2041016,1.918457-2.8911133,3.6196289-5.0610352,5.1030273c2.4780273,1.6523438,4.4941406,3.0380859,6.0478516,4.1582031
			l-0.9868164,1.2177734c-2.0161133-1.4414063-4.1860352-2.9257813-6.5102539-4.4516602
			c-0.0556641,0.027832-0.1396484,0.0698242-0.2519531,0.1259766c-0.1118164,0.0561523-0.1821289,0.0981445-0.2099609,0.1259766
			v7.034668h-1.6796875v-6.1738281c-2.1000977,0.9941406-4.6064453,1.8344727-7.5180664,2.5200195l-0.3779297-1.4912109
			c6.7753906-1.5957031,11.6474609-4.3183594,14.6157227-8.1689453h-13.3979492V88.2236328z"/>
		<path fill="#00A0E9" d="M411.7851563,86.4804688h9.1977539v1.4072266l-5.019043,4.9350586v0.0419922h0.6303711
			c1.4833984,0,2.6176758,0.3569336,3.4018555,1.0708008c0.7836914,0.7138672,1.1826172,1.75,1.1967773,3.1079102
			c0.0136719,1.5825195-0.4550781,2.8071289-1.4067383,3.675293c-0.9521484,0.8681641-2.3032227,1.3017578-4.0532227,1.3017578
			c-1.5117188,0-2.8422852-0.3637695-3.9897461-1.0917969l0.5039063-1.3652344
			c1.1757813,0.7001953,2.3378906,1.050293,3.4858398,1.050293c1.2319336,0,2.1699219-0.3012695,2.8139648-0.9033203
			c0.644043-0.6015625,0.9663086-1.4907227,0.9663086-2.6669922c0.0136719-0.9936523-0.3149414-1.7290039-0.9873047-2.2050781
			c-0.671875-0.4755859-1.7358398-0.7207031-3.1918945-0.7348633h-1.5332031v-1.3017578l5.019043-4.8720703v-0.0419922h-7.034668
			V86.4804688z"/>
		<path fill="#00A0E9" d="M424.8046875,101.8105469V86.4804688h1.7011719l5.4599609,9.2402344h0.0419922l5.4394531-9.2402344
			h1.7636719v15.3300781H437.53125V89.2944336h-0.0419922l-4.7255859,7.9589844h-1.5742188l-4.7255859-7.9589844h-0.0419922
			v12.5161133H424.8046875z"/>
		<path fill="#00A0E9" d="M441.9404297,96.140625c0-1.7358398,0.3857422-3.0800781,1.1552734-4.0322266
			c0.7695313-0.9516602,1.8339844-1.4277344,3.1914063-1.4277344c1.6386719,0,2.8496094,0.6791992,3.6328125,2.0371094h0.0429688
			l0.0410156-1.8271484h1.4707031v10.0170898c0,3.8217773-1.7080078,5.7329102-5.1240234,5.7329102
			c-1.1757813,0-2.3037109-0.2241211-3.3808594-0.671875l0.3359375-1.2392578
			c0.9931641,0.4335938,2.0087891,0.6508789,3.0449219,0.6508789c1.2314453,0,2.1347656-0.3432617,2.7089844-1.0288086
			c0.5732422-0.6860352,0.8603516-1.8134766,0.8603516-3.3808594v-1.3442383h-0.0410156
			c-0.7558594,1.3164063-1.953125,1.9741211-3.5917969,1.9741211c-1.2734375,0-2.3164063-0.4897461-3.1289063-1.4702148
			C442.3466797,99.1508789,441.9404297,97.8203125,441.9404297,96.140625z M443.453125,96.140625
			c0,1.2880859,0.2929688,2.3100586,0.8808594,3.065918s1.3583984,1.1337891,2.3105469,1.1337891
			c0.9667969,0,1.7568359-0.3637695,2.3730469-1.0917969c0.6152344-0.7275391,0.9169922-1.7290039,0.9023438-3.0029297v-0.2099609
			c0-1.2739258-0.3076172-2.2749023-0.9238281-3.0029297c-0.6152344-0.7280273-1.3994141-1.0922852-2.3515625-1.0922852
			c-0.9941406,0-1.7714844,0.3642578-2.3310547,1.0922852S443.4667969,94.7963867,443.453125,96.140625z"/>
		<path fill="#00A0E9" d="M455.4853516,90.890625l3.2763672,8.987793h0.0410156l3.5703125-8.987793h1.6386719l-6.5097656,15.5400391
			h-1.6386719l2.0585938-4.6831055l-4.1376953-10.8569336H455.4853516z"/>
		<path fill="#00A0E9" d="M471.8867188,93.6416016l3.7578125,3.96875v-4.5776367h1.5761719v6.2578125l2.3730469,2.5200195
			h-2.0166016l-1.4072266-1.4912109c-1.7636719,1.1342773-3.5839844,1.7011719-5.4599609,1.7011719
			c-1.5957031,0-2.8134766-0.3217773-3.6533203-0.9658203s-1.2607422-1.5820313-1.2607422-2.8139648
			c0-0.7841797,0.2871094-1.546875,0.8613281-2.2890625c0.5732422-0.7421875,1.5605469-1.5751953,2.9609375-2.4990234
			l-0.2519531-0.2729492c-0.7841797-0.7983398-1.3310547-1.4912109-1.6376953-2.0791016
			c-0.3085938-0.5878906-0.4628906-1.1689453-0.4628906-1.7431641c0-0.9375,0.3642578-1.6865234,1.0917969-2.2470703
			c0.7285156-0.5595703,1.7089844-0.8398438,2.9404297-0.8398438c1.2880859,0,2.2685547,0.2661133,2.9404297,0.7978516
			c0.671875,0.5322266,1.0078125,1.2675781,1.0078125,2.2050781c0,0.7700195-0.2451172,1.4775391-0.734375,2.1210938
			C474.0214844,92.0385742,473.1464844,92.7875977,471.8867188,93.6416016z M470.5839844,94.4604492
			c-1.1201172,0.7280273-1.9179688,1.3862305-2.3945313,1.9741211c-0.4755859,0.5878906-0.7128906,1.1689453-0.7128906,1.7431641
			c0,0.7978516,0.2792969,1.4140625,0.8398438,1.8476563c0.5595703,0.434082,1.3789063,0.6513672,2.4570313,0.6513672
			c0.8535156,0,1.6025391-0.1123047,2.2460938-0.3364258c0.6445313-0.2236328,1.3378906-0.6015625,2.0800781-1.1337891
			L470.5839844,94.4604492z M470.9199219,92.6123047c1.1201172-0.7558594,1.8613281-1.3574219,2.2265625-1.8056641
			c0.3632813-0.4477539,0.5449219-0.9311523,0.5449219-1.4492188c0-0.5595703-0.203125-0.9936523-0.6083984-1.3017578
			c-0.40625-0.3081055-1.0009766-0.4619141-1.7851563-0.4619141c-0.7421875,0-1.3232422,0.1611328-1.7431641,0.4829102
			c-0.4199219,0.3222656-0.6289063,0.7490234-0.6289063,1.2807617c0,0.4482422,0.1181641,0.875,0.3564453,1.28125
			C469.5195313,91.0449219,470.0664063,91.7026367,470.9199219,92.6123047z"/>
	</g>
</g>
</svg>
