<?xml version="1.0" encoding="utf-8"?>
<!-- Generator: Adobe Illustrator 16.0.3, SVG Export Plug-In . SVG Version: 6.00 Build 0)  -->
<!DOCTYPE svg PUBLIC "-//W3C//DTD SVG 1.1//EN" "http://www.w3.org/Graphics/SVG/1.1/DTD/svg11.dtd">
<svg version="1.1" id="レイヤー_1" xmlns="http://www.w3.org/2000/svg" xmlns:xlink="http://www.w3.org/1999/xlink" x="0px"
	 y="0px" width="575px" height="150px" viewBox="0 0 575 150" enable-background="new 0 0 575 150" xml:space="preserve">
  <style>path {fill:#222;} @media (prefers-color-scheme: dark) {path {fill:#ddd;}}</style>
<g>
	<path d="M78.6669922,12.4804688l3.0869141,13.5239258h0.0419922l3.1499023-13.5239258h2.184082l3.1708984,13.5239258h0.0419922
		l3.0874023-13.5239258h1.6586914L91.309082,27.8105469h-2.1210938l-3.1499023-13.5239258h-0.0419922l-3.1499023,13.5239258
		h-2.1210938l-3.7802734-15.3300781H78.6669922z"/>
	<path d="M98.4277344,22.9384766c0.027832,1.1899414,0.3916016,2.128418,1.0917969,2.8139648
		c0.7001953,0.6860352,1.6098633,1.0292969,2.7299805,1.0292969c1.0922852,0,2.1699219-0.2802734,3.234375-0.840332
		l0.4199219,1.1972656c-1.1762695,0.5878906-2.4360352,0.8818359-3.7802734,0.8818359
		c-1.5678711,0-2.8349609-0.5107422-3.8007813-1.5332031c-0.9658203-1.0214844-1.4492188-2.4008789-1.4492188-4.1367188
		c0-1.7641602,0.4516602-3.1499023,1.3544922-4.1582031c0.9033203-1.0078125,2.1318359-1.5117188,3.6855469-1.5117188
		c1.512207,0,2.6806641,0.4760742,3.5073242,1.4277344c0.8256836,0.9521484,1.2387695,2.3310547,1.2387695,4.137207
		c0,0.3222656-0.0073242,0.5532227-0.0209961,0.6928711H98.4277344z M98.4277344,21.7207031h6.7407227
		c-0.0136719-1.2182617-0.3081055-2.1557617-0.8818359-2.8139648c-0.5742188-0.6582031-1.3647461-0.9873047-2.3730469-0.9873047
		c-1.0498047,0-1.8828125,0.3330078-2.4990234,0.9975586C98.7983398,19.5820313,98.4697266,20.5166016,98.4277344,21.7207031z"/>
	<path d="M114.3881836,28.0205078c-1.6103516,0-2.800293-0.6855469-3.5703125-2.0581055h-0.0419922l-0.0209961,1.8481445h-1.4697266
		v-15.75h1.5327148v6.6152344h0.0419922c0.7700195-1.3300781,1.9458008-1.9951172,3.5283203-1.9951172
		c1.371582,0,2.449707,0.4863281,3.2338867,1.4594727c0.7836914,0.9731445,1.1757813,2.3764648,1.1757813,4.2104492
		c0,1.8061523-0.3989258,3.2026367-1.1967773,4.1894531S115.7319336,28.0205078,114.3881836,28.0205078z M117.2861328,22.3505859
		c0-1.4282227-0.2836914-2.5200195-0.8505859-3.2758789c-0.5668945-0.7563477-1.3618164-1.1342773-2.3837891-1.1342773
		c-0.9521484,0-1.7290039,0.3779297-2.3305664,1.1342773c-0.6025391,0.7558594-0.9033203,1.7988281-0.9033203,3.1289063v0.2939453
		c0,1.3579102,0.3007813,2.4082031,0.9033203,3.1499023c0.6015625,0.7421875,1.378418,1.1132813,2.3305664,1.1132813
		c0.9941406,0,1.7817383-0.3813477,2.362793-1.1445313C116.9951172,24.8530273,117.2861328,23.7646484,117.2861328,22.3505859z"/>
	<path d="M121.3178711,14.706543v-1.4702148c5.5576172,0,11.2207031-0.1396484,16.9887695-0.4199219l0.0839844,1.4702148
		c-3.5419922,0.3222656-6.2509766,1.1757813-8.1269531,2.5620117c-1.8759766,1.3857422-2.8139648,3.1079102-2.8139648,5.1660156
		c0,1.6796875,0.5385742,3.0029297,1.6171875,3.96875c1.0776367,0.9663086,2.5200195,1.4492188,4.3256836,1.4492188
		c0.8261719,0,1.7011719-0.0766602,2.625-0.230957l0.1889648,1.4697266
		c-0.9379883,0.1679688-1.8969727,0.2519531-2.8769531,0.2519531c-2.3242188-0.0136719-4.171875-0.6230469-5.5439453-1.8266602
		c-1.3720703-1.2041016-2.0581055-2.8491211-2.0581055-4.9350586c-0.0141602-1.722168,0.5249023-3.2407227,1.6171875-4.5571289
		c1.0917969-1.315918,2.6386719-2.3520508,4.6411133-3.1079102l-0.0209961-0.0419922
		C127.7646484,14.6225586,124.2158203,14.706543,121.3178711,14.706543z M133.7495117,17.7724609l1.2392578-0.671875
		c0.6855469,1.1337891,1.3369141,2.2822266,1.953125,3.4438477l-1.2602539,0.6298828
		C134.9956055,19.8867188,134.3515625,18.7524414,133.7495117,17.7724609z M136.6894531,16.9746094l1.2602539-0.6928711
		c0.8256836,1.3579102,1.4980469,2.5336914,2.0161133,3.527832l-1.28125,0.6298828
		C138.0405273,19.25,137.3754883,18.0947266,136.6894531,16.9746094z"/>
	<path d="M143.8295898,13.1733398h14.7001953v14.1542969h-14.7001953v-1.4702148h13.0830078V14.6435547h-13.0830078V13.1733398z"/>
	<path d="M164.8295898,13.9296875l0.7558594-1.4282227c2.2402344,1.1201172,4.3818359,2.3100586,6.4262695,3.5703125
		l-0.8188477,1.4277344C169.2607422,16.2958984,167.1396484,15.1054688,164.8295898,13.9296875z M181.0625,14.7485352
		c-1.4140625,8.0639648-6.5869141,12.4882813-15.519043,13.2719727l-0.2519531-1.5751953
		c4.1020508-0.3779297,7.3291016-1.5605469,9.6811523-3.5488281c2.3520508-1.987793,3.8710938-4.815918,4.5571289-8.4838867
		L181.0625,14.7485352z"/>
	<path d="M187.5097656,12.3334961v6.4472656c3.8217773-0.6303711,7.5600586-1.5541992,11.2138672-2.7719727
		c-0.5180664-0.1962891-0.9448242-0.5253906-1.2807617-0.9873047c-0.3364258-0.4619141-0.4970703-0.9794922-0.4833984-1.5537109
		c0-0.7563477,0.2661133-1.3999023,0.7983398-1.9321289c0.5317383-0.5322266,1.1757813-0.7983398,1.9316406-0.7983398
		c0.7563477,0,1.3999023,0.2661133,1.9321289,0.7983398s0.7978516,1.1757813,0.7978516,1.9321289
		c0,0.6582031-0.2099609,1.2387695-0.6298828,1.7426758s-0.9448242,0.8120117-1.574707,0.9243164l0.2729492,0.8818359
		c-4.2705078,1.5117188-8.5961914,2.6181641-12.9780273,3.3178711v3.0239258
		c-0.0141602,1.4003906,0.2026367,2.3242188,0.6508789,2.7719727c0.4477539,0.4482422,1.3789063,0.6723633,2.7929688,0.6723633
		c3.2617188,0,6.3842773-0.1049805,9.3662109-0.3154297l0.0629883,1.4912109
		c-3.3183594,0.2099609-6.496582,0.3149414-9.5341797,0.3149414c-1.9321289,0-3.2480469-0.3432617-3.9477539-1.0288086
		c-0.7001953-0.6860352-1.043457-1.9951172-1.0292969-3.9272461V12.3334961H187.5097656z M201.2226563,13.4677734
		c0-0.4204102-0.1542969-0.7841797-0.4619141-1.0922852c-0.3081055-0.3076172-0.6650391-0.4619141-1.0712891-0.4619141
		c-0.4199219,0-0.7841797,0.1542969-1.0917969,0.4619141c-0.3081055,0.3081055-0.4619141,0.671875-0.4619141,1.0922852
		c0,0.4057617,0.1538086,0.7631836,0.4619141,1.0708008c0.3076172,0.3081055,0.671875,0.4619141,1.0917969,0.4619141
		c0.40625,0,0.7631836-0.1538086,1.0712891-0.4619141C201.0683594,14.230957,201.2226563,13.8735352,201.2226563,13.4677734z"/>
	<path d="M208.9926758,16.1977539h9.6601563l-0.7773438,10.0795898h3.4023438v1.3862305h-14.0703125v-1.3862305h8.9882813
		l0.6928711-8.6938477h-7.8959961V16.1977539z"/>
	<path d="M226.6958008,21.0483398v-1.5957031h17.09375v1.5957031H226.6958008z"/>
	<path d="M249.6694336,28.5874023l-0.230957-1.4697266c2.6323242-0.2519531,4.7949219-0.7563477,6.4892578-1.512207
		c1.6938477-0.7558594,3.0097656-1.8408203,3.9477539-3.2548828c-2.3237305-1.2041016-4.6616211-2.3168945-7.0136719-3.3388672
		l0.7348633-1.4072266c2.2817383,0.9941406,4.6337891,2.1074219,7.0561523,3.3388672
		c0.7138672-1.6235352,1.1054688-3.6748047,1.1757813-6.152832h-8.5888672
		c-0.7978516,2.5200195-2.1704102,4.6904297-4.1162109,6.5102539l-1.0917969-1.0083008
		c1.2036133-1.1337891,2.184082-2.4780273,2.9399414-4.0317383c0.7558594-1.5541992,1.2319336-3.2133789,1.4282227-4.9770508
		l1.5327148,0.0839844c-0.0419922,0.4760742-0.1469727,1.1269531-0.3149414,1.9526367h9.9121094v0.6303711
		c0,4.7041016-1.1064453,8.2182617-3.3178711,10.5419922C257.9995117,26.8168945,254.4853516,28.1811523,249.6694336,28.5874023z"/>
	<path d="M279.2587891,26.8237305c1.6796875-0.1821289,2.9887695-0.847168,3.9267578-1.9951172
		s1.4072266-2.6738281,1.4072266-4.578125c0-1.777832-0.5878906-3.2475586-1.7641602-4.4101563
		c-1.1757813-1.1616211-2.6811523-1.7705078-4.5151367-1.8266602c-0.2939453,2.7163086-0.6650391,5.012207-1.112793,6.8876953
		c-0.4482422,1.8901367-0.9311523,3.3115234-1.4492188,4.2631836c-0.5322266,0.9521484-1.0639648,1.6240234-1.5957031,2.0161133
		c-0.5322266,0.3920898-1.1132813,0.5810547-1.7431641,0.5668945c-1.0078125,0-1.9321289-0.6088867-2.7719727-1.8271484
		c-0.8398438-1.2177734-1.2670898-2.7089844-1.2807617-4.4726563c0.0136719-2.6323242,0.9165039-4.7739258,2.7089844-6.4262695
		c1.7915039-1.6518555,4.1293945-2.4780273,7.0136719-2.4780273c2.3237305-0.0136719,4.2421875,0.7070313,5.7543945,2.1630859
		c1.5117188,1.4560547,2.2744141,3.3041992,2.2885742,5.5439453c0,2.3242188-0.5878906,4.2001953-1.7636719,5.6279297
		c-1.1762695,1.4282227-2.7719727,2.2329102-4.7880859,2.4150391L279.2587891,26.8237305z M276.7177734,14.0976563
		c-2.0864258,0.2519531-3.7451172,1.0429688-4.9770508,2.3730469s-1.8481445,2.9892578-1.8481445,4.9770508
		c0,1.315918,0.2797852,2.4360352,0.840332,3.3598633c0.5595703,0.9238281,1.1196289,1.3857422,1.6796875,1.3857422
		c0.2519531,0.0141602,0.5180664-0.0766602,0.7978516-0.2729492c0.2802734-0.1958008,0.5810547-0.5668945,0.9033203-1.112793
		c0.3359375-0.5458984,0.6508789-1.2460938,0.9448242-2.1000977c0.2797852-0.8535156,0.5737305-2.0229492,0.8823242-3.5068359
		C276.2485352,17.7167969,276.5078125,16.015625,276.7177734,14.0976563z"/>
	<path d="M296.8144531,14.8325195v-3.7587891h1.5751953v3.7587891h4.578125v-3.7587891h1.6166992v3.7587891h3.3183594v1.4282227
		h-3.3183594v7.034668h-7.7700195v-7.034668h-3.8847656v10.3950195h13.8598633v1.4277344h-13.8598633v1.5541992h-1.6591797
		V16.2607422h-2.6879883v-1.4282227h2.6879883v-3.7587891h1.6591797v3.7587891H296.8144531z M298.3896484,16.2607422v5.7119141
		h4.578125v-5.7119141H298.3896484z"/>
	<path d="M322.2246094,29.3857422v-6.8461914h1.1132813c-0.9663086-0.6157227-1.9394531-1.3579102-2.9194336-2.2260742h-2.3515625
		c-0.8964844,0.7841797-1.8203125,1.4912109-2.7724609,2.1210938h1.3232422v0.6508789
		c0,1.8061523-0.434082,3.2128906-1.3017578,4.2211914c-0.8686523,1.0078125-2.3242188,1.7709961-4.3681641,2.2890625
		l-0.5878906-1.3862305c1.8056641-0.4897461,3.0307617-1.0986328,3.6748047-1.8271484
		c0.6435547-0.7275391,0.9658203-1.8266602,0.9658203-3.296875v-0.4619141
		c-1.4560547,0.9379883-3.0869141,1.7709961-4.8925781,2.4990234l-0.609375-1.4492188
		c2.394043-0.909668,4.5429688-2.0297852,6.4472656-3.3598633h-2.7929688h-1.6381836v-8.9458008h15.4560547v8.9458008h-4.4311523
		c1.9038086,1.3300781,4.0532227,2.4501953,6.4472656,3.3598633l-0.609375,1.4492188
		c-1.6938477-0.6860352-3.1992188-1.4350586-4.5146484-2.2470703v6.5102539H322.2246094z M318.4448242,15.168457v-2.4780273
		h-5.2919922v2.4780273H318.4448242z M318.4448242,16.3867188h-5.2919922v2.6459961h5.2919922V16.3867188z M320.0405273,15.168457
		h5.2919922v-2.4780273h-5.2919922V15.168457z M320.0405273,16.3867188v2.6459961h5.2919922v-2.6459961H320.0405273z"/>
	<path d="M331.7797852,16.6176758v-1.4072266h4.0947266c0.3920898-1.7216797,0.6933594-3.1987305,0.9033203-4.4306641
		l1.5117188,0.1679688c-0.1962891,1.2319336-0.4760742,2.652832-0.8398438,4.2626953h1.8061523c0.6435547,0,1.1337891,0,1.4697266,0
		s0.7001953,0.0419922,1.0922852,0.1259766c0.3779297,0.0839844,0.6508789,0.1469727,0.8188477,0.1889648
		c0.1679688,0.0703125,0.3496094,0.2172852,0.5458984,0.440918c0.1958008,0.2241211,0.3217773,0.4345703,0.3779297,0.6303711
		c0.0561523,0.1962891,0.1118164,0.5180664,0.1679688,0.9658203c0.0561523,0.4760742,0.0839844,0.9101563,0.0839844,1.3022461
		s0,0.9731445,0,1.7426758c0,2.590332-0.3081055,4.5571289-0.9238281,5.9013672
		c-0.6162109,1.34375-1.4072266,2.0083008-2.3730469,1.9946289c-1.1899414,0-2.6113281-0.3779297-4.2631836-1.1337891
		l0.5253906-1.4072266c1.5673828,0.6723633,2.7226563,1.0083008,3.4648438,1.0083008
		c0.2236328,0,0.4477539-0.1259766,0.671875-0.3779297c0.2241211-0.2524414,0.434082-0.644043,0.6298828-1.1762695
		c0.1962891-0.5039063,0.3500977-1.1899414,0.4624023-2.0581055c0.1118164-0.8676758,0.1748047-1.8549805,0.1889648-2.9609375
		c0-0.4755859,0-0.8188477,0-1.0288086c0.0136719-0.1958008,0.0068359-0.4619141-0.0209961-0.7983398
		c-0.0283203-0.3359375-0.0419922-0.5595703-0.0419922-0.671875c0-0.1118164-0.0351563-0.265625-0.1049805-0.4619141
		c-0.0703125-0.1958008-0.1191406-0.3149414-0.1469727-0.3569336c-0.0283203-0.0419922-0.1123047-0.1118164-0.2519531-0.2099609
		c-0.1401367-0.0976563-0.2524414-0.1469727-0.3364258-0.1469727s-0.237793-0.0209961-0.4619141-0.0629883
		c-0.2241211-0.027832-0.40625-0.0419922-0.5458984-0.0419922c-0.1401367,0-0.3852539,0-0.7348633,0h-2.4360352
		c-1.0361328,4.199707-2.4223633,8.2109375-4.1582031,12.0327148l-1.4277344-0.5668945
		c1.6376953-3.6254883,2.9746094-7.4477539,4.0107422-11.4658203H331.7797852z M343.2456055,12.2495117l1.2602539-0.671875
		c0.6855469,1.1337891,1.3364258,2.2822266,1.9526367,3.4438477l-1.2597656,0.6088867
		C344.652832,14.5947266,344.0014648,13.4677734,343.2456055,12.2495117z M348.4326172,24.7446289
		c-0.8959961-2.421875-2.0581055-5.0258789-3.4858398-7.8120117l1.4067383-0.6088867
		c1.4282227,2.7578125,2.6040039,5.4038086,3.5283203,7.9379883L348.4326172,24.7446289z M346.1855469,11.4516602l1.28125-0.6928711
		c0.8256836,1.3579102,1.4975586,2.5336914,2.0161133,3.527832l-1.3022461,0.6298828
		C347.5366211,13.7265625,346.871582,12.5717773,346.1855469,11.4516602z"/>
	<path d="M362.5024414,12.8374023h7.6230469v1.4282227h-15.2246094v4.578125c0,4.3256836-0.7143555,7.8256836-2.1420898,10.5
		l-1.2392578-1.2392578c1.1899414-2.4638672,1.7851563-5.8725586,1.7851563-10.2270508v-5.0400391h7.5180664v-2.4990234h1.6796875
		V12.8374023z M364.4555664,21.5527344l1.3862305-0.7563477c1.7216797,2.590332,3.3105469,5.2431641,4.7670898,7.9589844
		l-1.4072266,0.7353516c-0.5180664-0.9526367-0.902832-1.6455078-1.1547852-2.0791016
		c-4.9003906,0.8256836-9.4433594,1.3227539-13.6293945,1.4907227l-0.0839844-1.4487305
		c0.4902344-0.0136719,1.2392578-0.0488281,2.2470703-0.1049805c1.5961914-3.7661133,3.059082-7.7768555,4.3891602-12.0332031
		l1.6381836,0.3569336c-1.2885742,4.0742188-2.6953125,7.9169922-4.2211914,11.5292969
		c2.9956055-0.237793,5.9707031-0.5952148,8.9248047-1.0712891
		C366.331543,24.4790039,365.3798828,22.9526367,364.4555664,21.5527344z"/>
	<path d="M373.7797852,16.6176758v-1.4072266h4.0947266c0.3920898-1.7216797,0.6933594-3.1987305,0.9033203-4.4306641
		l1.5117188,0.1679688c-0.1962891,1.2319336-0.4760742,2.652832-0.8398438,4.2626953h1.8061523c0.6435547,0,1.1337891,0,1.4697266,0
		s0.7001953,0.0419922,1.0922852,0.1259766c0.3779297,0.0839844,0.6508789,0.1469727,0.8188477,0.1889648
		c0.1679688,0.0703125,0.3496094,0.2172852,0.5458984,0.440918c0.1958008,0.2241211,0.3217773,0.4345703,0.3779297,0.6303711
		c0.0561523,0.1962891,0.1118164,0.5180664,0.1679688,0.9658203c0.0561523,0.4760742,0.0839844,0.9101563,0.0839844,1.3022461
		s0,0.9731445,0,1.7426758c0,2.590332-0.3081055,4.5571289-0.9238281,5.9013672
		c-0.6162109,1.34375-1.4072266,2.0083008-2.3730469,1.9946289c-1.1899414,0-2.6113281-0.3779297-4.2631836-1.1337891
		l0.5253906-1.4072266c1.5673828,0.6723633,2.7226563,1.0083008,3.4648438,1.0083008
		c0.2236328,0,0.4477539-0.1259766,0.671875-0.3779297c0.2241211-0.2524414,0.434082-0.644043,0.6298828-1.1762695
		c0.1962891-0.5039063,0.3500977-1.1899414,0.4624023-2.0581055c0.1118164-0.8676758,0.1748047-1.8549805,0.1889648-2.9609375
		c0-0.4755859,0-0.8188477,0-1.0288086c0.0136719-0.1958008,0.0068359-0.4619141-0.0209961-0.7983398
		c-0.0283203-0.3359375-0.0419922-0.5595703-0.0419922-0.671875c0-0.1118164-0.0351563-0.265625-0.1049805-0.4619141
		c-0.0703125-0.1958008-0.1191406-0.3149414-0.1469727-0.3569336c-0.0283203-0.0419922-0.1123047-0.1118164-0.2519531-0.2099609
		c-0.1401367-0.0976563-0.2524414-0.1469727-0.3364258-0.1469727s-0.237793-0.0209961-0.4619141-0.0629883
		c-0.2241211-0.027832-0.40625-0.0419922-0.5458984-0.0419922c-0.1401367,0-0.3852539,0-0.7348633,0h-2.4360352
		c-1.0361328,4.199707-2.4223633,8.2109375-4.1582031,12.0327148l-1.4277344-0.5668945
		c1.6376953-3.6254883,2.9746094-7.4477539,4.0107422-11.4658203H373.7797852z M385.2456055,12.2495117l1.2602539-0.671875
		c0.6855469,1.1337891,1.3364258,2.2822266,1.9526367,3.4438477l-1.2597656,0.6088867
		C386.652832,14.5947266,386.0014648,13.4677734,385.2456055,12.2495117z M390.4326172,24.7446289
		c-0.8959961-2.421875-2.0581055-5.0258789-3.4858398-7.8120117l1.4067383-0.6088867
		c1.4282227,2.7578125,2.6040039,5.4038086,3.5283203,7.9379883L390.4326172,24.7446289z M388.1855469,11.4516602l1.28125-0.6928711
		c0.8256836,1.3579102,1.4975586,2.5336914,2.0161133,3.527832l-1.3022461,0.6298828
		C389.5366211,13.7265625,388.871582,12.5717773,388.1855469,11.4516602z"/>
	<path d="M396.9008789,11.9135742h1.574707v5.7119141h0.0419922c0.7138672-1.6518555,1.6728516-2.9467773,2.8769531-3.8847656
		s2.4990234-1.4072266,3.8852539-1.4072266c1.6098633,0,2.862793,0.5810547,3.7587891,1.7431641
		s1.3442383,2.8212891,1.3442383,4.9770508c0,3.3178711-0.9311523,5.7612305-2.7929688,7.3286133
		c-1.8623047,1.5678711-4.78125,2.3452148-8.7573242,2.3310547l-0.0629883-1.4697266
		c3.5141602,0,6.0483398-0.644043,7.6020508-1.9321289c1.5541992-1.2880859,2.3310547-3.3735352,2.3310547-6.2578125
		c0-1.7080078-0.3081055-2.9960938-0.9238281-3.8642578c-0.6162109-0.8676758-1.4985352-1.3017578-2.6459961-1.3017578
		c-1.5541992,0-3.0170898,0.8398438-4.3891602,2.5200195c-1.3720703,1.6796875-2.1352539,3.7099609-2.2890625,6.0898438h-1.5537109
		V11.9135742z"/>
	<path d="M426.4902344,11.0107422v2.3730469h5.7324219v1.4067383h-5.7324219v2.7929688h5.0390625v1.4072266h-5.0390625v4.2626953
		c1.4980469,0.8120117,3.2539063,2.0864258,5.2705078,3.8222656l-0.9873047,1.112793
		c-1.609375-1.4140625-3.0449219-2.5126953-4.3046875-3.296875c-0.0839844,1.4140625-0.4765625,2.4291992-1.1757813,3.0449219
		c-0.7011719,0.6157227-1.8203125,0.9238281-3.3603516,0.9238281c-1.3720703,0-2.4643555-0.3222656-3.2758789-0.9658203
		c-0.8120117-0.6435547-1.2109375-1.5332031-1.1972656-2.6669922c0-0.9379883,0.3432617-1.7290039,1.0292969-2.3730469
		c0.6855469-0.6435547,1.8339844-0.9658203,3.4438477-0.9658203c0.9238281,0,1.9248047,0.2172852,3.0029297,0.6508789v-3.5488281
		h-7.9799805v-1.4072266h7.9799805v-2.7929688h-8.6728516v-1.4067383h8.6728516v-2.3730469H426.4902344z M424.9355469,24.0517578
		c-1.0498047-0.5043945-2.0019531-0.7563477-2.8554688-0.7563477c-2.0166016,0-3.0244141,0.644043-3.0244141,1.9321289
		c0.0136719,0.6860352,0.2729492,1.2250977,0.7768555,1.6171875c0.5043945,0.3920898,1.2041016,0.5952148,2.1000977,0.6088867
		c1.1337891,0,1.9179688-0.230957,2.3525391-0.6928711c0.4335938-0.4624023,0.6503906-1.3022461,0.6503906-2.5200195V24.0517578z"/>
	<path d="M436.2753906,13.4677734h10.6474609v-2.7304688h1.5322266v2.7304688h5.7539063v1.3227539h-5.7539063v4.7041016
		c0.2666016,0.8261719,0.3994141,1.6870117,0.3994141,2.5830078c0,2.0859375-0.5595703,3.6748047-1.6796875,4.7670898
		c-1.1201172,1.0917969-2.9267578,1.8125-5.4179688,2.1625977l-0.2314453-1.4697266
		c1.9746094-0.237793,3.4238281-0.7348633,4.3476563-1.4912109c0.9238281-0.7558594,1.4199219-1.784668,1.4902344-3.0869141
		v-0.2729492h-0.0410156c-0.6445313,0.9379883-1.7089844,1.4072266-3.1923828,1.4072266
		c-1.1630859-0.0141602-2.1357422-0.3994141-2.9189453-1.1552734c-0.7851563-0.7558594-1.1699219-1.7011719-1.1552734-2.8349609
		c-0.0146484-1.1337891,0.3701172-2.0791016,1.1552734-2.8349609c0.7832031-0.7558594,1.7558594-1.1411133,2.9189453-1.1547852
		c1.0634766,0,1.9804688,0.3149414,2.7509766,0.9448242h0.0419922v-2.2680664h-10.6474609V13.4677734z M441.6308594,20.1035156
		c0,0.7280273,0.265625,1.3442383,0.7978516,1.8481445s1.1757813,0.7558594,1.9326172,0.7558594
		c0.7832031,0,1.4335938-0.2519531,1.9521484-0.7558594s0.7773438-1.1201172,0.7773438-1.8481445
		c0-0.7138672-0.2587891-1.3227539-0.7773438-1.8271484c-0.5185547-0.5039063-1.1689453-0.7558594-1.9521484-0.7558594
		c-0.7568359,0-1.4003906,0.2519531-1.9326172,0.7558594C441.8964844,18.7807617,441.6308594,19.3896484,441.6308594,20.1035156z"/>
	<path d="M457.0234375,26.2353516c0-0.909668,0.3154297-1.6723633,0.9453125-2.2885742s1.3925781-0.9243164,2.2890625-0.9243164
		c0.9101563,0,1.6728516,0.3081055,2.2890625,0.9243164c0.6152344,0.6162109,0.9238281,1.3789063,0.9238281,2.2885742
		c0,0.8964844-0.3085938,1.6591797-0.9238281,2.2890625c-0.6162109,0.6303711-1.3789063,0.9453125-2.2890625,0.9453125
		c-0.8964844,0-1.6591797-0.3149414-2.2890625-0.9453125C457.3388672,27.8945313,457.0234375,27.1318359,457.0234375,26.2353516z
		 M458.2832031,26.2353516c-0.0136719,0.5463867,0.1757813,1.015625,0.5673828,1.4072266s0.8613281,0.5805664,1.4072266,0.5668945
		c0.5458984,0.0136719,1.0078125-0.175293,1.3857422-0.5668945s0.5673828-0.8608398,0.5673828-1.4072266
		c0-0.5458984-0.1894531-1.0078125-0.5673828-1.3857422s-0.8398438-0.5668945-1.3857422-0.5668945
		s-1.015625,0.1889648-1.4072266,0.5668945S458.2695313,25.6894531,458.2832031,26.2353516z"/>
	<path d="M76.7348633,55.8105469l5.6069336-15.3300781h1.8901367l5.6069336,15.3300781h-1.8056641L86.5,51.3374023h-6.4677734
		l-1.5541992,4.4731445H76.7348633z M80.4941406,49.9936523h5.5439453l-2.7509766-8.0009766h-0.0419922L80.4941406,49.9936523z"/>
	<path d="M102.2915039,51.4003906c0,3.0800781-2.0087891,4.6201172-6.0268555,4.6201172
		c-1.3017578,0-2.6040039-0.1123047-3.9057617-0.3359375v-15.078125c1.2314453-0.2236328,2.4638672-0.3359375,3.6958008-0.3359375
		c3.6958008,0,5.5439453,1.2392578,5.5439453,3.7167969c-0.0141602,0.8544922-0.3012695,1.5893555-0.8608398,2.2050781
		c-0.5600586,0.6162109-1.3300781,1.0366211-2.3100586,1.2602539v0.0419922
		c1.2319336,0.1821289,2.184082,0.6162109,2.855957,1.3017578
		C101.9555664,49.4824219,102.2915039,50.3505859,102.2915039,51.4003906z M96.0546875,41.6357422
		c-0.7138672,0-1.3857422,0.0629883-2.0161133,0.1889648v5.0610352h1.3862305c3.0517578,0,4.578125-0.8959961,4.578125-2.6879883
		c0-0.8681641-0.3154297-1.512207-0.9453125-1.9321289S97.4267578,41.6357422,96.0546875,41.6357422z M100.6328125,51.253418
		c-0.0141602-1.0356445-0.4272461-1.7988281-1.2392578-2.2890625c-0.8120117-0.4897461-2.1347656-0.7348633-3.96875-0.7348633
		h-1.3862305v6.2368164c0.6860352,0.1264648,1.4282227,0.1894531,2.2260742,0.1894531
		C99.1762695,54.6557617,100.6328125,53.5214844,100.6328125,51.253418z"/>
	<path d="M111.7412109,41.6777344c-1.8476563-0.0141602-3.3178711,0.5668945-4.409668,1.7426758
		c-1.0922852,1.1762695-1.6455078,2.7509766-1.6591797,4.7250977c0.0136719,1.9741211,0.5805664,3.5488281,1.7011719,4.7250977
		c1.1196289,1.1757813,2.5756836,1.7568359,4.3676758,1.7431641c1.4560547,0,2.8071289-0.3994141,4.0532227-1.1972656
		l0.5668945,1.2602539c-1.3720703,0.8959961-2.9609375,1.34375-4.7670898,1.34375
		c-2.3100586,0-4.1577148-0.7138672-5.5439453-2.1420898c-1.3857422-1.4277344-2.0791016-3.3388672-2.0791016-5.7329102
		c0-2.421875,0.6860352-4.3398438,2.0581055-5.7539063s3.2270508-2.1210938,5.5649414-2.1210938
		c1.8061523,0,3.3950195,0.4482422,4.7670898,1.3442383l-0.5668945,1.2597656
		C114.5483398,42.0766602,113.1972656,41.6777344,111.7412109,41.6777344z"/>
	<path d="M131.2084961,47.9355469c0,2.6459961-0.6860352,4.6552734-2.0581055,6.0268555
		c-1.3720703,1.3725586-3.3461914,2.0581055-5.921875,2.0581055c-1.2460938,0-2.4853516-0.1123047-3.7167969-0.3359375v-15.078125
		c1.2597656-0.2236328,2.4990234-0.3359375,3.7167969-0.3359375c2.5756836,0,4.5498047,0.6582031,5.921875,1.9741211
		S131.2084961,45.4575195,131.2084961,47.9355469z M123.2285156,41.6777344c-0.7280273,0-1.4067383,0.0629883-2.0371094,0.1889648
		v12.5576172c0.6303711,0.1264648,1.309082,0.1894531,2.0371094,0.1894531c4.2421875,0,6.3632813-2.2260742,6.3632813-6.6782227
		c0-2.0717773-0.5395508-3.6328125-1.6171875-4.6831055C126.8964844,42.2026367,125.3144531,41.6777344,123.2285156,41.6777344z"/>
	<path d="M135.5131836,41.8876953v4.9980469h6.8671875v1.34375h-6.8671875v6.1738281h7.2871094v1.4072266h-8.9667969V40.4804688
		h8.9667969v1.4072266H135.5131836z"/>
	<path d="M154.9169922,41.8876953h-7.0771484v5.2080078h6.6572266v1.34375h-6.6572266v7.3710938h-1.6796875V40.4804688h8.7568359
		V41.8876953z"/>
	<path d="M165.2695313,41.6357422c-1.9736328,0-3.5209961,0.5878906-4.640625,1.7636719
		c-1.1206055,1.1762695-1.6875,2.7583008-1.7011719,4.7460938c-0.0141602,2.0024414,0.5668945,3.5908203,1.7431641,4.7670898
		c1.1757813,1.1757813,2.7578125,1.7568359,4.7456055,1.7431641c1.2460938,0,2.387207-0.2314453,3.4233398-0.6933594v-5.7329102
		h-5.3129883v-1.34375h6.9296875v7.9799805c-1.5820313,0.7700195-3.3110352,1.1547852-5.1870117,1.1547852
		c-2.449707,0-4.402832-0.7138672-5.8588867-2.1420898c-1.4560547-1.4277344-2.184082-3.3388672-2.184082-5.7329102
		s0.7143555-4.3051758,2.1420898-5.7329102c1.4282227-1.4282227,3.3530273-2.1420898,5.7749023-2.1420898
		c1.777832,0,3.3603516,0.4199219,4.7460938,1.2602539l-0.5668945,1.2387695
		C168.0625,42.0136719,166.7114258,41.6357422,165.2695313,41.6357422z"/>
	<path d="M174.4467773,55.8105469V40.4804688h1.8061523v15.3300781H174.4467773z"/>
	<path d="M184.2324219,44.6806641c1.5258789,0,2.6176758,0.3149414,3.2758789,0.9448242s0.9873047,1.6665039,0.9873047,3.1079102
		v4.137207c0,0.9941406,0.1049805,1.9741211,0.3149414,2.9399414h-1.4702148
		c-0.1401367-0.6157227-0.2172852-1.2597656-0.230957-1.9321289h-0.0419922
		c-0.3779297,0.6723633-0.9204102,1.1972656-1.6274414,1.5751953s-1.5087891,0.5668945-2.4042969,0.5668945
		c-1.0083008,0-1.8134766-0.2836914-2.4150391-0.8505859c-0.6020508-0.5668945-0.9033203-1.3334961-0.9033203-2.2993164
		c0-1.2182617,0.5283203-2.1875,1.5859375-2.9086914c1.0566406-0.7207031,2.5649414-1.081543,4.5253906-1.081543h1.1337891
		v-0.1049805c0-1.0634766-0.1992188-1.8022461-0.5986328-2.215332c-0.3989258-0.4125977-1.109375-0.6196289-2.1313477-0.6196289
		c-1.315918,0-2.5410156,0.3222656-3.6748047,0.9663086l-0.2939453-1.2392578
		C181.4672852,45.0097656,182.7905273,44.6806641,184.2324219,44.6806641z M181.2294922,52.8076172
		c0,0.6298828,0.1958008,1.1235352,0.5878906,1.4804688s0.9169922,0.5356445,1.5751953,0.5356445
		c0.9658203,0,1.8022461-0.3466797,2.5092773-1.0395508c0.7070313-0.6933594,1.0605469-1.543457,1.0605469-2.5517578v-1.1757813
		h-1.1337891c-1.4702148,0-2.6040039,0.2485352-3.4023438,0.7456055
		C181.628418,51.2993164,181.2294922,51.9677734,181.2294922,52.8076172z"/>
	<path d="M196.9584961,56.0205078c-1.6103516,0-2.800293-0.6855469-3.5703125-2.0581055h-0.0419922l-0.0209961,1.8481445h-1.4697266
		v-15.75h1.5327148v6.6152344h0.0419922c0.7700195-1.3300781,1.9458008-1.9951172,3.5283203-1.9951172
		c1.371582,0,2.449707,0.4863281,3.2338867,1.4594727c0.7836914,0.9731445,1.1757813,2.3764648,1.1757813,4.2104492
		c0,1.8061523-0.3989258,3.2026367-1.1967773,4.1894531S198.3022461,56.0205078,196.9584961,56.0205078z M199.8564453,50.3505859
		c0-1.4282227-0.2836914-2.5200195-0.8505859-3.2758789c-0.5668945-0.7563477-1.3618164-1.1342773-2.3837891-1.1342773
		c-0.9521484,0-1.7290039,0.3779297-2.3305664,1.1342773c-0.6025391,0.7558594-0.9033203,1.7988281-0.9033203,3.1289063v0.2939453
		c0,1.3579102,0.3007813,2.4082031,0.9033203,3.1499023c0.6015625,0.7421875,1.378418,1.1132813,2.3305664,1.1132813
		c0.9941406,0,1.7817383-0.3813477,2.362793-1.1445313C199.5654297,52.8530273,199.8564453,51.7646484,199.8564453,50.3505859z"/>
	<path d="M208.6757813,45.9614258c-1.2177734,0.0141602-2.1767578,0.3989258-2.8769531,1.1552734
		c-0.7001953,0.7558594-1.0498047,1.8339844-1.0498047,3.2338867c0,1.34375,0.3637695,2.4150391,1.0917969,3.2128906
		s1.6728516,1.1972656,2.8349609,1.1972656c0.9799805,0,1.9179688-0.2382813,2.8139648-0.7143555l0.3994141,1.2392578
		c-1.050293,0.4902344-2.1420898,0.7348633-3.2763672,0.7348633c-1.6240234,0-2.9399414-0.5175781-3.9477539-1.5541992
		c-1.0078125-1.0356445-1.512207-2.4077148-1.512207-4.1157227c0-1.7641602,0.4833984-3.1499023,1.4492188-4.1582031
		c0.9658203-1.0078125,2.3027344-1.5117188,4.0107422-1.5117188c1.1342773,0,2.2260742,0.2451172,3.2763672,0.7348633
		l-0.3994141,1.28125C210.5517578,46.206543,209.6137695,45.9614258,208.6757813,45.9614258z"/>
	<path d="M214.1987305,50.3505859c0-1.8339844,0.3920898-3.2373047,1.1762695-4.2104492
		c0.7836914-0.9731445,1.8618164-1.4594727,3.2338867-1.4594727c1.5820313,0,2.7578125,0.6650391,3.527832,1.9951172h0.0419922
		v-6.6152344h1.5332031v15.75h-1.4702148l-0.0209961-1.8481445h-0.0419922
		c-0.7700195,1.3725586-1.9599609,2.0581055-3.5698242,2.0581055c-1.34375,0-2.4150391-0.4936523-3.2128906-1.4804688
		S214.1987305,52.1567383,214.1987305,50.3505859z M215.7109375,50.3505859c0,1.4140625,0.2905273,2.5024414,0.871582,3.265625
		c0.5805664,0.7631836,1.3681641,1.1445313,2.3623047,1.1445313c0.9521484,0,1.7290039-0.3710938,2.3310547-1.1132813
		c0.6020508-0.7416992,0.902832-1.7919922,0.902832-3.1499023v-0.2939453c0-1.3300781-0.3007813-2.3730469-0.902832-3.1289063
		c-0.6020508-0.7563477-1.3789063-1.1342773-2.3310547-1.1342773c-1.0219727,0-1.8164063,0.3779297-2.3833008,1.1342773
		C215.9946289,47.8305664,215.7109375,48.9223633,215.7109375,50.3505859z"/>
	<path d="M227.7856445,50.9384766c0.027832,1.1899414,0.3916016,2.128418,1.0917969,2.8139648
		c0.7001953,0.6860352,1.6098633,1.0292969,2.7299805,1.0292969c1.0922852,0,2.1699219-0.2802734,3.234375-0.840332
		l0.4199219,1.1972656c-1.1762695,0.5878906-2.4360352,0.8818359-3.7802734,0.8818359
		c-1.5678711,0-2.8349609-0.5107422-3.8007813-1.5332031c-0.9658203-1.0214844-1.4492188-2.4008789-1.4492188-4.1367188
		c0-1.7641602,0.4516602-3.1499023,1.3544922-4.1582031c0.9033203-1.0078125,2.1318359-1.5117188,3.6855469-1.5117188
		c1.512207,0,2.6806641,0.4760742,3.5073242,1.4277344c0.8256836,0.9521484,1.2387695,2.3310547,1.2387695,4.137207
		c0,0.3222656-0.0073242,0.5532227-0.0209961,0.6928711H227.7856445z M227.7856445,49.7207031h6.7407227
		c-0.0136719-1.2182617-0.3081055-2.1557617-0.8818359-2.8139648c-0.5742188-0.6582031-1.3647461-0.9873047-2.3730469-0.9873047
		c-1.0498047,0-1.8828125,0.3330078-2.4990234,0.9975586C228.15625,47.5820313,227.8276367,48.5166016,227.7856445,49.7207031z"/>
	<path d="M238.1171875,45.3105469h2.8564453v-1.4072266c0-2.421875,1.168457-3.6328125,3.5068359-3.6328125
		c0.6298828,0,1.2807617,0.1049805,1.953125,0.3149414l-0.3154297,1.2602539
		c-0.5180664-0.2099609-1.0151367-0.3149414-1.4907227-0.3149414c-0.7700195,0-1.309082,0.1821289-1.6171875,0.5458984
		c-0.3081055,0.3642578-0.4619141,0.9731445-0.4619141,1.8266602v1.4072266h3.7592773v1.2597656h-3.7592773v9.2402344h-1.574707
		v-9.2402344h-2.8564453V45.3105469z"/>
	<path d="M248.8481445,50.140625c0-1.7358398,0.3852539-3.0800781,1.1552734-4.0322266
		c0.7695313-0.9516602,1.8339844-1.4277344,3.1918945-1.4277344c1.6381836,0,2.8486328,0.6791992,3.6328125,2.0371094h0.0419922
		l0.0419922-1.8271484h1.4702148v10.0170898c0,3.8217773-1.7080078,5.7329102-5.1240234,5.7329102
		c-1.1757813,0-2.3032227-0.2241211-3.3808594-0.671875l0.3359375-1.2392578
		c0.9936523,0.4335938,2.0087891,0.6508789,3.0449219,0.6508789c1.2319336,0,2.1347656-0.3432617,2.7089844-1.0288086
		c0.5737305-0.6860352,0.8608398-1.8134766,0.8608398-3.3808594v-1.3442383h-0.0419922
		c-0.7558594,1.3164063-1.9526367,1.9741211-3.5908203,1.9741211c-1.2739258,0-2.3173828-0.4897461-3.1289063-1.4702148
		C249.2543945,53.1508789,248.8481445,51.8203125,248.8481445,50.140625z M250.3603516,50.140625
		c0,1.2880859,0.2939453,2.3100586,0.8818359,3.065918s1.3579102,1.1337891,2.3100586,1.1337891
		c0.9663086,0,1.7568359-0.3637695,2.3730469-1.0917969c0.6157227-0.7275391,0.9169922-1.7290039,0.902832-3.0029297v-0.2099609
		c0-1.2739258-0.3081055-2.2749023-0.9238281-3.0029297c-0.6162109-0.7280273-1.3999023-1.0922852-2.3520508-1.0922852
		c-0.9941406,0-1.7709961,0.3642578-2.3310547,1.0922852S250.3740234,48.7963867,250.3603516,50.140625z"/>
	<path d="M262.3725586,55.8105469v-15.75h1.6381836v15.75H262.3725586z"/>
	<path d="M272.9770508,55.8105469V42.496582h-0.0419922l-4.1367188,3.8217773l-0.6508789-1.3647461l4.8295898-4.4731445h1.6801758
		v15.3300781H272.9770508z"/>
	<path d="M285.6401367,41.6987305c-1.3857422,0-2.7719727,0.4829102-4.1577148,1.4487305l-0.5039063-1.34375
		c1.4277344-1.0219727,3.0517578-1.5332031,4.871582-1.5332031c1.4980469,0,2.6601563,0.3779297,3.4863281,1.1342773
		c0.8256836,0.7558594,1.2387695,1.8266602,1.2387695,3.2128906c0,1.3720703-0.4970703,2.7583008-1.4907227,4.1577148
		c-0.9941406,1.4003906-2.855957,3.262207-5.5859375,5.5859375v0.0419922h7.1396484v1.4072266h-9.449707v-1.4072266
		c2.9819336-2.4775391,5.0048828-4.4023438,6.0688477-5.7749023c1.0639648-1.371582,1.5961914-2.6669922,1.5961914-3.8847656
		c0-0.9941406-0.2734375-1.75-0.8193359-2.2680664C287.4882813,41.9580078,286.6904297,41.6987305,285.6401367,41.6987305z"/>
	<path d="M294.2504883,40.4804688h9.1977539v1.4072266l-5.019043,4.9350586v0.0419922h0.6303711
		c1.4833984,0,2.6176758,0.3569336,3.4018555,1.0708008c0.7836914,0.7138672,1.1826172,1.75,1.1967773,3.1079102
		c0.0136719,1.5825195-0.4550781,2.8071289-1.4067383,3.675293c-0.9521484,0.8681641-2.3032227,1.3017578-4.0532227,1.3017578
		c-1.5117188,0-2.8422852-0.3637695-3.9897461-1.0917969l0.5039063-1.3652344
		c1.1757813,0.7001953,2.3378906,1.050293,3.4858398,1.050293c1.2319336,0,2.1699219-0.3012695,2.8139648-0.9033203
		c0.644043-0.6015625,0.9663086-1.4907227,0.9663086-2.6669922c0.0136719-0.9936523-0.3149414-1.7290039-0.9873047-2.2050781
		c-0.671875-0.4755859-1.7358398-0.7207031-3.1918945-0.7348633h-1.5332031v-1.3017578l5.019043-4.8720703v-0.0419922h-7.034668
		V40.4804688z"/>
	<path d="M314.809082,50.8754883h2.6040039v1.3652344h-2.6040039v3.5698242h-1.6591797v-3.5698242h-7.3500977v-1.3652344
		l7.3500977-10.3950195h1.6591797V50.8754883z M313.1499023,50.8754883V42.9375h-0.0419922l-5.5859375,7.8959961v0.0419922
		H313.1499023z"/>
	<path d="M325.078125,56.0205078c-1.6943359,0-3.0175781-0.5107422-3.9692383-1.5332031
		c-0.9521484-1.0214844-1.4350586-2.4916992-1.4492188-4.409668c0.0141602-2.8417969,0.7070313-5.1308594,2.0791016-6.8671875
		c1.3720703-1.7358398,3.269043-2.7158203,5.690918-2.9399414l0.2944336,1.4072266
		c-3.2202148,0.3642578-5.2641602,2.1767578-6.1323242,5.4389648l0.0209961,0.0209961
		c0.9663086-1.078125,2.2397461-1.6171875,3.8222656-1.6171875c1.5395508,0,2.7719727,0.4482422,3.6958008,1.3442383
		s1.3862305,2.1279297,1.3862305,3.6958008c0,1.6801758-0.4975586,3.0102539-1.4912109,3.9902344
		C328.0317383,55.5307617,326.7158203,56.0205078,325.078125,56.0205078z M325.078125,46.8227539
		c-1.0786133,0-1.9672852,0.3500977-2.6674805,1.0498047c-0.7001953,0.7001953-1.0498047,1.5961914-1.0498047,2.6879883
		c0,1.3017578,0.3286133,2.3032227,0.9868164,3.0029297c0.6582031,0.7001953,1.5678711,1.050293,2.7304688,1.050293
		c1.1894531,0,2.1137695-0.3500977,2.7719727-1.050293c0.6577148-0.699707,0.9868164-1.7011719,0.9868164-3.0029297
		c0-1.1479492-0.3359375-2.0581055-1.0078125-2.7299805C327.1567383,47.1586914,326.2397461,46.8227539,325.078125,46.8227539z"/>
	<path d="M333.1630859,40.4804688h9.8696289v1.4072266c-2.421875,3.9760742-4.4448242,8.6171875-6.0688477,13.9228516h-1.7641602
		c1.6098633-5.0678711,3.6821289-9.6948242,6.2163086-13.8808594v-0.0419922h-8.2529297V40.4804688z"/>
	<path d="M350.9912109,40.2705078c1.7080078,0,3.0380859,0.5039063,3.9902344,1.512207
		c0.9516602,1.0078125,1.4282227,2.449707,1.4282227,4.3256836c-0.0141602,2.9262695-0.7216797,5.25-2.1210938,6.972168
		c-1.4003906,1.722168-3.3530273,2.7021484-5.859375,2.9399414l-0.2939453-1.4067383
		c1.7080078-0.1821289,3.0800781-0.7211914,4.1162109-1.6171875c1.0356445-0.8959961,1.777832-2.1767578,2.2260742-3.8432617
		l-0.0209961-0.0209961c-0.9799805,1.0922852-2.2543945,1.6381836-3.8222656,1.6381836
		c-1.5400391,0-2.7719727-0.4619141-3.6958008-1.3857422c-0.9238281-0.9243164-1.3862305-2.1767578-1.3862305-3.7592773
		c0-1.6098633,0.4970703-2.9047852,1.4912109-3.8847656C348.0371094,40.7607422,349.3535156,40.2705078,350.9912109,40.2705078z
		 M350.9912109,41.6777344c-1.1899414,0-2.1137695,0.3432617-2.7719727,1.0288086
		c-0.6582031,0.6860352-0.9868164,1.6591797-0.9868164,2.9189453c0,1.2182617,0.3359375,2.1630859,1.0078125,2.8349609
		c0.6723633,0.671875,1.5888672,1.0083008,2.7509766,1.0083008c1.078125,0,1.9667969-0.3574219,2.6669922-1.0712891
		s1.050293-1.6376953,1.050293-2.7719727c0-1.2456055-0.3291016-2.21875-0.9873047-2.9189453
		C353.0629883,42.0068359,352.1533203,41.6635742,350.9912109,41.6777344z"/>
	<path d="M368.3164063,41.8876953h-6.6357422l-0.2944336,4.9560547h0.0419922
		c0.8261719-0.4902344,1.7568359-0.7353516,2.793457-0.7353516c1.4975586,0,2.659668,0.40625,3.4858398,1.2182617
		c0.8256836,0.8120117,1.2387695,1.9599609,1.2387695,3.4438477c0,1.7084961-0.4760742,3.0102539-1.4277344,3.90625
		c-0.9521484,0.8959961-2.359375,1.34375-4.2211914,1.34375c-1.4277344,0-2.7441406-0.3359375-3.9477539-1.0078125
		l0.4199219-1.3862305c1.1757813,0.6582031,2.3520508,0.9873047,3.527832,0.9873047
		c2.6459961,0,3.9692383-1.28125,3.9692383-3.8432617c0-1.0917969-0.2871094-1.9179688-0.8613281-2.4780273
		c-0.5742188-0.5595703-1.3999023-0.8398438-2.4780273-0.8398438c-1.105957,0-2.0229492,0.3222656-2.7509766,0.9658203h-1.4697266
		l0.4619141-7.9379883h8.1479492V41.8876953z"/>
	<path d="M376.6113281,41.6357422c-0.9658203,0.0136719-1.7148438,0.230957-2.2470703,0.6508789
		s-0.7978516,1.0078125-0.7978516,1.7641602c0,1.3579102,0.9941406,2.3378906,2.9819336,2.9399414
		c1.7358398,0.5039063,2.9682617,1.1337891,3.6962891,1.8896484c0.7275391,0.7563477,1.0986328,1.7363281,1.112793,2.9399414
		c-0.0141602,1.3442383-0.440918,2.3803711-1.2807617,3.1083984c-0.840332,0.7280273-2.0444336,1.0917969-3.6123047,1.0917969
		c-1.7358398,0-3.2758789-0.440918-4.6201172-1.3227539l0.5043945-1.3862305
		c1.2177734,0.8681641,2.5898438,1.3022461,4.1157227,1.3022461c1.0361328,0,1.8339844-0.2382813,2.394043-0.7143555
		c0.5600586-0.4755859,0.8330078-1.168457,0.8188477-2.0791016c0.0141602-0.8398438-0.2167969-1.5117188-0.6928711-2.015625
		s-1.3017578-0.9311523-2.4780273-1.28125c-3.065918-0.909668-4.5986328-2.4008789-4.5986328-4.4726563
		c-0.0141602-1.1479492,0.3989258-2.0649414,1.2387695-2.7514648c0.8398438-0.6855469,1.9951172-1.0288086,3.4648438-1.0288086
		c1.5820313,0,3.0522461,0.3291016,4.4101563,0.9868164l-0.4199219,1.3022461
		C379.3833008,41.9438477,378.0532227,41.6357422,376.6113281,41.6357422z"/>
	<path d="M385.4736328,41.2783203c0.8959961-0.671875,2.1137695-1.0078125,3.6538086-1.0078125
		s2.7583008,0.3359375,3.6542969,1.0078125c0.8955078,0.6723633,1.3369141,1.5615234,1.3227539,2.6669922
		c0,1.6943359-0.9799805,2.8911133-2.9399414,3.5913086v0.0419922c2.3237305,0.6860352,3.4863281,2.0512695,3.4863281,4.0947266
		c0,1.3305664-0.4902344,2.387207-1.4702148,3.1713867s-2.3310547,1.1757813-4.0532227,1.1757813
		c-1.7216797,0-3.0727539-0.3916016-4.0527344-1.1757813s-1.4702148-1.8408203-1.4702148-3.1713867
		c0-0.8955078,0.3012695-1.6933594,0.9033203-2.3935547c0.6015625-0.7001953,1.4624023-1.2250977,2.5830078-1.5751953v-0.0419922
		c-0.9384766-0.3496094-1.6591797-0.847168-2.1630859-1.4912109c-0.5039063-0.6435547-0.7631836-1.3857422-0.7768555-2.2260742
		C384.1367188,42.8398438,384.5776367,41.9506836,385.4736328,41.2783203z M389.0644531,48.3134766
		c-1.2739258,0.2519531-2.2329102,0.6650391-2.8769531,1.2392578s-0.9731445,1.2597656-0.9868164,2.0576172
		c0,0.9526367,0.3496094,1.7011719,1.0498047,2.2470703s1.6591797,0.8193359,2.8769531,0.8193359
		c1.2182617,0,2.1699219-0.2802734,2.8564453-0.840332c0.6855469-0.5595703,1.0288086-1.3017578,1.0288086-2.2260742
		C393.0126953,49.9169922,391.6967773,48.8173828,389.0644531,48.3134766z M389.1274414,46.9907227
		c1.0922852-0.2241211,1.9321289-0.5883789,2.5200195-1.0922852c0.5883789-0.5039063,0.8823242-1.1054688,0.8823242-1.8056641
		c0-0.7563477-0.2939453-1.3579102-0.8823242-1.8061523c-0.5878906-0.4477539-1.4277344-0.671875-2.5200195-0.671875
		c-1.0639648,0-1.8896484,0.2241211-2.4775391,0.671875c-0.5883789,0.4482422-0.8823242,1.0498047-0.8823242,1.8061523
		c0,0.7001953,0.2939453,1.3017578,0.8823242,1.8056641C387.237793,46.4023438,388.0634766,46.7666016,389.1274414,46.9907227z"/>
	<path d="M398.0732422,42.0976563c0.9658203-1.2182617,2.3237305-1.8271484,4.0737305-1.8271484
		s3.1083984,0.6088867,4.0742188,1.8271484c0.9658203,1.2177734,1.4492188,3.2338867,1.4492188,6.0478516
		s-0.4833984,4.8300781-1.4492188,6.0478516c-0.9658203,1.2182617-2.3242188,1.8271484-4.0742188,1.8271484
		s-3.1079102-0.6088867-4.0737305-1.8271484c-0.9658203-1.2177734-1.4492188-3.2338867-1.4492188-6.0478516
		S397.1074219,43.3154297,398.0732422,42.0976563z M402.1469727,54.6557617
		c1.2880859,0.0136719,2.2539063-0.4970703,2.8984375-1.5332031c0.6435547-1.0361328,0.9584961-2.6948242,0.9448242-4.9770508
		c0.0136719-2.2817383-0.3012695-3.940918-0.9448242-4.9770508c-0.6445313-1.0356445-1.6103516-1.546875-2.8984375-1.5327148
		c-1.2880859-0.0141602-2.2539063,0.4970703-2.8979492,1.5327148c-0.644043,1.0361328-0.9589844,2.6953125-0.9448242,4.9770508
		c-0.0141602,2.2822266,0.3007813,3.940918,0.9448242,4.9770508S400.8588867,54.6694336,402.1469727,54.6557617z"/>
	<path d="M422.4335938,53.8681641c-1.3725586,1.4350586-3.1855469,2.1523438-5.4394531,2.1523438
		s-4.0668945-0.7172852-5.4389648-2.1523438s-2.0581055-3.3422852-2.0581055-5.7226563
		c0-2.3798828,0.6860352-4.2871094,2.0581055-5.7226563c1.3720703-1.4345703,3.1850586-2.1523438,5.4389648-2.1523438
		s4.0668945,0.7177734,5.4394531,2.1523438c1.3710938,1.4355469,2.0576172,3.3427734,2.0576172,5.7226563
		C424.4912109,50.5258789,423.8046875,52.4331055,422.4335938,53.8681641z M412.8046875,52.8598633
		c1.0571289,1.1694336,2.4536133,1.7539063,4.1894531,1.7539063s3.1323242-0.5844727,4.1894531-1.7539063
		c1.0566406-1.168457,1.5859375-2.7402344,1.5859375-4.7143555s-0.5292969-3.5454102-1.5859375-4.7143555
		c-1.0571289-1.1689453-2.4536133-1.753418-4.1894531-1.753418s-3.1323242,0.5844727-4.1894531,1.753418
		s-1.5854492,2.7402344-1.5854492,4.7143555S411.7475586,51.6914063,412.8046875,52.8598633z"/>
	<path d="M428.1660156,60.4306641V38.8007813h1.5546875v21.6298828H428.1660156z"/>
	<path d="M435.390625,40.4804688h1.9736328l-0.2099609,11.0668945h-1.5546875L435.390625,40.4804688z M435.4746094,55.8105469
		v-2.5830078h1.8056641v2.5830078H435.4746094z"/>
	<path d="M449.921875,43.840332c0-1.4277344-1.1904297-2.1416016-3.5703125-2.1416016
		c-1.4414063,0-2.9257813,0.2451172-4.4511719,0.7348633l-0.3359375-1.4282227
		c1.6503906-0.4897461,3.3173828-0.7348633,4.9970703-0.7348633c1.6376953,0,2.8984375,0.3081055,3.7802734,0.9238281
		c0.8818359,0.6162109,1.3222656,1.4492188,1.3222656,2.4990234c0,0.5043945-0.0693359,0.9526367-0.2089844,1.3442383
		c-0.140625,0.3920898-0.3505859,0.7490234-0.6308594,1.0708008c-0.3076172,0.3222656-0.5742188,0.5742188-0.796875,0.7563477
		c-0.2246094,0.1821289-0.546875,0.4130859-0.9667969,0.6928711c-0.4482422,0.3081055-0.7841797,0.5458984-1.0078125,0.7138672
		c-0.2246094,0.1542969-0.4902344,0.3989258-0.7978516,0.7348633c-0.3076172,0.3364258-0.5185547,0.7001953-0.6298828,1.0922852
		c-0.140625,0.3920898-0.2109375,0.847168-0.2109375,1.3647461h-1.6796875c0-0.6298828,0.0771484-1.1826172,0.2314453-1.6586914
		c0.1533203-0.4760742,0.4052734-0.9101563,0.7558594-1.3022461c0.3496094-0.3916016,0.6513672-0.6787109,0.9033203-0.8608398
		c0.2519531-0.1958008,0.609375-0.4550781,1.0703125-0.7768555c0.5175781-0.3642578,0.9033203-0.644043,1.1552734-0.840332
		c0.2519531-0.1958008,0.4902344-0.4897461,0.7138672-0.8818359C449.8027344,44.7509766,449.921875,44.3168945,449.921875,43.840332
		z M444.671875,55.8105469v-2.5830078h1.8261719v2.5830078H444.671875z"/>
	<path d="M455.8652344,47.6835938v-2.9399414h1.9736328v2.9399414H455.8652344z M455.8652344,55.8105469v-2.9399414h1.9736328
		v2.9399414H455.8652344z"/>
	<path d="M462.3535156,58.1206055l1.5332031-5.1870117h2.1210938l-2.0996094,5.1870117H462.3535156z M463.78125,47.6835938
		v-2.9399414h1.9746094v2.9399414H463.78125z"/>
	<path d="M470.7324219,55.8105469v-2.9399414h1.9746094v2.9399414H470.7324219z"/>
	<path d="M477.4941406,52.9335938h2.1210938l-2.0996094,5.1870117h-1.5546875L477.4941406,52.9335938z"/>
	<path d="M481.0429688,58.7504883v-1.2597656h12.3066406v1.2597656H481.0429688z"/>
	<path d="M494.9863281,50.3925781v-1.3442383h6.2167969v1.3442383H494.9863281z"/>
	<path d="M509.7285156,50.0146484c-1.3300781-0.6162109-2.296875-0.9243164-2.8984375-0.9243164
		c-0.4765625,0-0.8261719,0.1611328-1.0488281,0.4833984c-0.2246094,0.3222656-0.3378906,0.8608398-0.3378906,1.6166992h-1.40625
		c0-2.3378906,0.8613281-3.5068359,2.5839844-3.5068359c0.9238281,0,2.2246094,0.3920898,3.9042969,1.1757813
		c1.3300781,0.6162109,2.296875,0.9243164,2.8984375,0.9243164c0.4765625,0.0141602,0.8261719-0.1328125,1.0507813-0.440918
		c0.2226563-0.3081055,0.3359375-0.7910156,0.3359375-1.4492188h1.40625c0,2.1982422-0.8613281,3.296875-2.5820313,3.296875
		C512.7109375,51.1904297,511.4082031,50.7988281,509.7285156,50.0146484z"/>
	<path d="M522.9375,43.9243164c0.6992188,1.6381836,1.0507813,3.3955078,1.0507813,5.2709961
		c0,1.8764648-0.3515625,3.6333008-1.0507813,5.2709961c-0.6992188,1.6381836-1.7089844,3.0664063-3.0234375,4.2841797h-1.5957031
		c2.7011719-2.5483398,4.0527344-5.7329102,4.0527344-9.5551758c0-3.8217773-1.3515625-7.0063477-4.0527344-9.5546875h1.5957031
		C521.2285156,40.8583984,522.2382813,42.2866211,522.9375,43.9243164z"/>
	<path d="M527.3476563,40.9003906V39.640625h2.0996094c1.0078125,0,1.7363281,0.2451172,2.1835938,0.7348633
		c0.4492188,0.4902344,0.6796875,1.2954102,0.6933594,2.4150391v3.1499023c0,1.722168,0.5820313,2.5830078,1.7441406,2.5830078
		h0.9238281v1.3442383h-0.9238281c-1.1621094,0-1.7441406,0.8608398-1.7441406,2.5830078v3.1499023
		c-0.0136719,1.1196289-0.2441406,1.9248047-0.6933594,2.4150391c-0.4472656,0.4897461-1.1757813,0.7348633-2.1835938,0.7348633
		h-2.0996094v-1.2597656h1.40625c0.7421875,0,1.2675781-0.1469727,1.5761719-0.4414063
		c0.3066406-0.2939453,0.4609375-0.9169922,0.4609375-1.8686523v-2.7929688c0-1.5820313,0.5820313-2.6391602,1.7441406-3.1713867
		v-0.0419922c-1.1621094-0.5317383-1.7441406-1.5883789-1.7441406-3.1708984v-2.7929688
		c0-0.9516602-0.1542969-1.574707-0.4609375-1.8691406c-0.3085938-0.2939453-0.8339844-0.440918-1.5761719-0.440918H527.3476563z"/>
	<path d="M542.1523438,40.9003906h-4.1152344V39.640625h5.6699219v19.1098633h-5.6699219v-1.2597656h4.1152344V40.9003906z"/>
</g>
<g>
	<path d="M86.2270508,86.0463867h-0.0419922l-2.3310547,12.2431641h-3.4858398l-3.5493164-15.3300781h3.0029297
		l2.3100586,12.2431641h0.0419922l2.2470703-12.2431641h3.6542969l2.246582,12.2431641h0.0419922l2.3100586-12.2431641h2.9189453
		l-3.5488281,15.3300781h-3.4858398L86.2270508,86.0463867z"/>
	<path d="M99.8554688,93.8164063c0.0698242,0.8261719,0.3886719,1.4804688,0.9555664,1.9638672
		c0.5668945,0.4829102,1.2841797,0.7241211,2.1523438,0.7241211c1.0361328,0,2.0649414-0.2587891,3.0874023-0.7768555
		l0.6298828,1.9321289c-1.2602539,0.5600586-2.590332,0.8398438-3.9902344,0.8398438
		c-1.6518555,0-2.9921875-0.5107422-4.0214844-1.5332031c-1.0288086-1.0214844-1.543457-2.4008789-1.543457-4.1367188
		c0-1.7641602,0.4760742-3.1499023,1.4282227-4.1582031c0.9516602-1.0078125,2.2397461-1.5117188,3.8637695-1.5117188
		s2.8876953,0.4829102,3.7905273,1.4487305c0.9033203,0.9663086,1.3544922,2.3520508,1.3544922,4.1582031
		c0,0.3500977-0.0209961,0.7001953-0.0629883,1.0498047H99.8554688z M99.8554688,91.9477539h5.1240234
		c-0.0141602-0.9101563-0.2412109-1.6069336-0.6821289-2.0898438c-0.4414063-0.4829102-1.0605469-0.7241211-1.8588867-0.7241211
		c-0.7700195,0-1.3828125,0.2446289-1.8374023,0.7348633C100.1459961,90.3588867,99.8974609,91.0517578,99.8554688,91.9477539z"/>
	<path d="M109.9355469,82.5395508h2.7299805v6.2368164h0.0419922c0.8256836-1.0776367,1.8964844-1.6166992,3.2128906-1.6166992
		c1.3579102,0,2.425293,0.4829102,3.2026367,1.4487305c0.7768555,0.9663086,1.1655273,2.3730469,1.1655273,4.2211914
		c0,1.8061523-0.402832,3.2026367-1.2075195,4.1894531c-0.8056641,0.9868164-1.8588867,1.4804688-3.1606445,1.4804688
		c-1.4003906,0-2.5131836-0.5805664-3.3388672-1.7431641h-0.0419922l-0.0419922,1.5332031h-2.5620117V82.5395508z
		 M117.6635742,92.8295898c0-1.1762695-0.2207031-2.0581055-0.6616211-2.6459961s-1.0605469-0.8818359-1.8583984-0.8818359
		c-0.7421875,0-1.3408203,0.3041992-1.7958984,0.9130859c-0.4550781,0.609375-0.6821289,1.4458008-0.6821289,2.5097656v0.2099609
		c0,1.0917969,0.2270508,1.9355469,0.6821289,2.5302734c0.4550781,0.5952148,1.0537109,0.8925781,1.7958984,0.8925781
		c0.7416992,0,1.347168-0.3041992,1.8164063-0.9135742C117.4287109,94.8349609,117.6635742,93.9633789,117.6635742,92.8295898z"/>
	<path d="M122.5566406,83.3793945c5.6557617,0,11.409668-0.1396484,17.2617188-0.4199219l0.1049805,2.5200195
		c-3.3740234,0.2802734-5.9082031,1.0219727-7.6020508,2.2260742s-2.5410156,2.7163086-2.5410156,4.5361328
		c-0.0141602,1.4838867,0.4550781,2.6459961,1.4072266,3.4858398c0.9516602,0.8398438,2.2119141,1.2602539,3.7797852,1.2602539
		c0.8120117,0,1.6660156-0.0844727,2.5620117-0.2524414l0.3149414,2.5620117
		c-1.0498047,0.1962891-2.0576172,0.2939453-3.0239258,0.2939453c-2.4501953,0-4.402832-0.637207-5.8588867-1.9106445
		c-1.4560547-1.2739258-2.184082-2.9960938-2.184082-5.1660156c0-1.3720703,0.3989258-2.6459961,1.1972656-3.8222656
		c0.7978516-1.1757813,1.9316406-2.1557617,3.4018555-2.9399414v-0.0419922
		c-3.065918,0.1259766-6.0058594,0.1889648-8.8198242,0.1889648V83.3793945z M138.4956055,91.2963867l-2.1630859,1.0292969
		c-0.5458984-1.105957-1.1411133-2.21875-1.7851563-3.3393555l2.1630859-1.0917969
		C137.3540039,89.0844727,137.9492188,90.21875,138.4956055,91.2963867z M141.8974609,90.6245117l-2.2050781,1.0498047
		c-0.6298828-1.2177734-1.2387695-2.3515625-1.8271484-3.4018555l2.2050781-1.112793
		C140.5742188,88.0698242,141.1835938,89.2246094,141.8974609,90.6245117z"/>
	<path d="M144.9003906,83.3164063h15.1201172v14.8261719h-15.1201172v-2.5200195h12.3271484v-9.7861328h-12.3271484V83.3164063z"/>
	<path d="M165.7954102,85.0595703l1.3442383-2.5200195c2.1137695,1.0078125,4.2836914,2.1352539,6.5097656,3.3808594
		l-1.4072266,2.4780273C170.3662109,87.3486328,168.2172852,86.2353516,165.7954102,85.0595703z M179.9702148,84.5556641
		l2.6669922,0.5878906c-0.7421875,4.1582031-2.421875,7.3574219-5.0395508,9.597168
		c-2.6181641,2.2397461-6.2583008,3.5625-10.9204102,3.96875l-0.4199219-2.7299805
		c4.0600586-0.3916016,7.1821289-1.4980469,9.3662109-3.3178711S179.2563477,88.1396484,179.9702148,84.5556641z"/>
	<path d="M189.7983398,82.6865234v5.8588867c3.1499023-0.5317383,6.2509766-1.2524414,9.3032227-2.1630859
		c-0.8964844-0.6157227-1.3442383-1.4765625-1.3442383-2.5830078c0-0.8676758,0.3081055-1.609375,0.9243164-2.2255859
		c0.6157227-0.6162109,1.3574219-0.9243164,2.2255859-0.9243164s1.6098633,0.3081055,2.2260742,0.9243164
		s0.9243164,1.3579102,0.9243164,2.2255859c0,0.7006836-0.2099609,1.3305664-0.6303711,1.8901367
		c-0.4199219,0.5600586-0.9521484,0.9379883-1.5957031,1.1342773l0.3779297,1.3017578
		c-4.2001953,1.4003906-8.3369141,2.4291992-12.4111328,3.0869141v2.8139648c0,0.9946289,0.1606445,1.6455078,0.4829102,1.953125
		c0.3222656,0.3081055,0.9799805,0.4692383,1.9741211,0.4829102c3.3037109,0,6.4750977-0.1049805,9.5131836-0.3149414
		l0.0839844,2.6040039c-3.4023438,0.2099609-6.6713867,0.3149414-9.8071289,0.3149414
		c-1.9321289,0-3.262207-0.3642578-3.9897461-1.0917969c-0.7285156-0.7280273-1.0996094-2.0717773-1.1132813-4.0322266V82.6865234
		H189.7983398z M201.8735352,84.765625c0.265625-0.265625,0.3989258-0.5878906,0.3989258-0.9663086
		c0-0.3779297-0.1333008-0.699707-0.3989258-0.9658203c-0.2661133-0.265625-0.5878906-0.3989258-0.9663086-0.3989258
		c-0.3779297,0-0.7001953,0.1333008-0.9658203,0.3989258c-0.2661133,0.2661133-0.3989258,0.5878906-0.3989258,0.9658203
		c0,0.378418,0.1328125,0.7006836,0.3989258,0.9663086c0.265625,0.2661133,0.5878906,0.3989258,0.9658203,0.3989258
		C201.2856445,85.1645508,201.6074219,85.0317383,201.8735352,84.765625z"/>
	<path d="M210.1894531,86.4033203h9.9121094l-0.5673828,9.7231445h3.2133789v2.2890625h-14.2802734v-2.2890625h8.2739258
		l0.4624023-7.434082h-7.0141602V86.4033203z"/>
	<path d="M227.9345703,92.1367188v-2.8139648h17.3457031v2.8139648H227.9345703z"/>
	<path d="M251.1816406,99.4023438l-0.4414063-2.5200195c2.2539063-0.2236328,4.1230469-0.6157227,5.6074219-1.1757813
		c1.4833984-0.5595703,2.6669922-1.34375,3.5488281-2.3520508c-1.6665039-0.8535156-3.6049805-1.777832-5.8168945-2.7719727
		l1.3227539-2.4360352c2.2397461,1.0083008,4.2138672,1.9462891,5.921875,2.8139648
		c0.5043945-1.3017578,0.8120117-2.9189453,0.9243164-4.8510742h-7.3291016
		c-0.8540039,2.2822266-2.2260742,4.3261719-4.1162109,6.1323242l-1.9316406-1.7011719
		c1.1894531-1.1621094,2.1699219-2.5268555,2.9399414-4.0952148c0.7695313-1.5673828,1.2524414-3.1777344,1.4487305-4.8295898
		l2.6669922,0.1679688c-0.0698242,0.6860352-0.1611328,1.2880859-0.2729492,1.8056641h9.5761719v0.9033203
		c-0.0141602,4.8857422-1.1269531,8.4912109-3.3388672,10.8149414
		C259.6791992,97.6318359,256.109375,98.9960938,251.1816406,99.4023438z"/>
	<path d="M280.3505859,96.5463867c1.5253906-0.1958008,2.7016602-0.7905273,3.527832-1.784668
		c0.8256836-0.9941406,1.2387695-2.3378906,1.2387695-4.0322266c0-1.4560547-0.4477539-2.6879883-1.34375-3.6958008
		c-0.8959961-1.0083008-2.0512695-1.6030273-3.4648438-1.7851563c-0.3500977,2.6743164-0.7495117,4.9072266-1.1972656,6.6992188
		c-0.4482422,1.7919922-0.9521484,3.1572266-1.5117188,4.0947266c-0.5600586,0.9379883-1.1206055,1.5893555-1.6801758,1.953125
		c-0.5600586,0.3637695-1.2041016,0.5527344-1.9321289,0.5668945c-1.1337891,0-2.1767578-0.6508789-3.1289063-1.953125
		c-0.9521484-1.3017578-1.4277344-2.890625-1.4277344-4.7666016c0-2.7163086,0.9238281-4.9208984,2.7719727-6.6152344
		c1.8476563-1.6938477,4.2626953-2.5410156,7.2446289-2.5410156c2.4077148,0,4.3959961,0.7558594,5.9643555,2.2680664
		c1.5673828,1.5117188,2.3588867,3.4370117,2.3725586,5.7749023c-0.0136719,2.4360352-0.637207,4.3891602-1.8686523,5.8588867
		c-1.2324219,1.4702148-2.8979492,2.2958984-4.9980469,2.4780273L280.3505859,96.5463867z M277.5366211,85.3745117
		c-1.6943359,0.3222656-3.0244141,1.0571289-3.9902344,2.2050781s-1.4487305,2.5693359-1.4487305,4.2631836
		c0,1.0639648,0.2167969,2.0087891,0.6508789,2.8349609c0.4335938,0.8261719,0.8466797,1.2387695,1.2387695,1.2387695
		c0.1958008,0.0141602,0.3989258-0.0766602,0.6088867-0.2729492c0.2104492-0.1958008,0.4414063-0.5458984,0.6933594-1.0498047
		c0.2519531-0.5043945,0.5107422-1.1411133,0.7768555-1.9111328c0.265625-0.7700195,0.5249023-1.7851563,0.7768555-3.0449219
		C277.0952148,88.3774414,277.3266602,86.956543,277.5366211,85.3745117z"/>
	<path d="M297.8222656,84.8496094v-3.4228516h2.6669922v3.4228516h3.3603516v-3.4228516h2.7299805v3.4228516h2.8979492v2.3730469
		h-2.8979492v6.824707h-8.7573242v-6.824707h-2.7929688v9.2397461h13.4609375v2.394043h-13.4609375v1.3862305h-2.8139648V87.2226563
		h-2.4780273v-2.3730469h2.4780273v-3.4228516h2.8139648v3.4228516H297.8222656z M300.4892578,87.2226563v4.6621094h3.3603516
		v-4.6621094H300.4892578z"/>
	<path d="M322.9804688,100.074707v-6.8671875h1.4487305c-1.0219727-0.6577148-2.0019531-1.3999023-2.9399414-2.2260742h-1.7636719
		c-0.9384766,0.8261719-1.918457,1.5683594-2.9399414,2.2260742h1.6586914v0.3569336
		c-0.0141602,1.9462891-0.4692383,3.4233398-1.3647461,4.4311523c-0.8964844,1.0078125-2.4643555,1.7709961-4.7041016,2.2890625
		l-1.050293-2.3100586c1.2880859-0.3496094,2.2260742-0.6787109,2.8144531-0.9868164
		c0.5878906-0.3081055,0.9936523-0.7001953,1.2177734-1.1762695c0.2236328-0.4477539,0.3496094-1.0986328,0.3779297-1.953125
		c-1.2460938,0.7143555-2.6533203,1.3652344-4.2207031,1.953125l-0.9873047-2.4570313
		c2.1699219-0.7275391,4.0039063-1.519043,5.5019531-2.3730469h-0.8398438h-2.8139648v-9.4287109h16.4638672v9.4287109h-3.6538086
		c1.4975586,0.8540039,3.331543,1.6455078,5.5019531,2.3730469l-0.9873047,2.4570313
		c-1.2880859-0.4619141-2.5688477-1.0429688-3.8427734-1.7431641v6.0063477H322.9804688z M319.2421875,85.3115234v-1.5332031
		h-4.0527344v1.5332031H319.2421875z M319.2421875,87.2856445h-4.0527344v1.5957031h4.0527344V87.2856445z M321.9726563,85.3115234
		h4.0527344v-1.5332031h-4.0527344V85.3115234z M321.9726563,87.2856445v1.5957031h4.0527344v-1.5957031H321.9726563z"/>
	<path d="M345.387207,91.4223633c0,2.6879883-0.3217773,4.6694336-0.9658203,5.9433594
		c-0.644043,1.2734375-1.5332031,1.9106445-2.6669922,1.9106445c-0.5458984,0.0141602-1.2529297-0.0771484-2.1210938-0.2729492
		c-0.8681641-0.1962891-1.6450195-0.434082-2.3310547-0.7138672l0.7353516-2.4150391
		c1.4833984,0.5322266,2.5336914,0.7978516,3.1499023,0.7978516c0.1396484,0,0.2729492-0.0629883,0.3989258-0.1889648
		c0.1259766-0.1396484,0.2519531-0.3496094,0.3779297-0.6298828c0.1259766-0.2797852,0.230957-0.6298828,0.3149414-1.0498047
		s0.1611328-0.9663086,0.230957-1.6381836c0.0561523-0.6435547,0.0839844-1.3647461,0.0839844-2.1630859
		c0-0.6855469,0-1.168457,0-1.4487305s-0.027832-0.5810547-0.0839844-0.9033203
		c-0.0561523-0.3217773-0.1049805-0.5249023-0.1469727-0.6088867s-0.1542969-0.1679688-0.3359375-0.2519531
		c-0.1962891-0.0839844-0.3642578-0.1328125-0.5039063-0.1469727c-0.1401367,0-0.3920898,0-0.7558594,0h-2.2470703
		c-0.9243164,3.9477539-2.184082,7.8823242-3.7802734,11.8017578l-2.3730469-0.8398438
		c1.3720703-3.4018555,2.5341797-7.0561523,3.4863281-10.9619141h-3.1289063v-2.3730469h3.6748047
		c0.3217773-1.5258789,0.5878906-2.9326172,0.7978516-4.2211914l2.5200195,0.2314453
		c-0.1821289,1.315918-0.4130859,2.6459961-0.6928711,3.9897461h1.4702148c0.7138672,0,1.2456055,0,1.5957031,0
		s0.7421875,0.0419922,1.1762695,0.1259766c0.4335938,0.0839844,0.7348633,0.1542969,0.902832,0.2099609
		c0.1679688,0.0561523,0.3569336,0.2172852,0.5668945,0.4829102c0.2099609,0.2661133,0.3359375,0.5043945,0.3779297,0.7143555
		s0.0981445,0.5810547,0.1679688,1.112793c0.0703125,0.5322266,0.1049805,1.0288086,0.1049805,1.4912109
		C345.387207,89.8549805,345.387207,90.5268555,345.387207,91.4223633z M348.2856445,85.6264648l-2.1630859,1.0292969
		c-0.5458984-1.105957-1.1411133-2.21875-1.7851563-3.3393555l2.1630859-1.0917969
		C347.144043,83.4145508,347.7392578,84.5488281,348.2856445,85.6264648z M349.0205078,95.4125977
		c-0.7558594-2.4780273-1.6523438-5.0048828-2.6879883-7.5810547l2.4780273-0.8818359
		c1.1894531,2.9682617,2.1137695,5.5581055,2.7719727,7.7700195L349.0205078,95.4125977z M351.6875,84.9545898l-2.2050781,1.0498047
		c-0.6298828-1.2177734-1.2387695-2.3520508-1.8271484-3.4018555l2.2050781-1.112793
		C350.3642578,82.3999023,350.9736328,83.5546875,351.6875,84.9545898z"/>
	<path d="M364.4555664,83.0644531h7.3286133V85.4375h-14.8046875v4.2841797c0,4.4658203-0.8120117,7.9521484-2.4360352,10.4580078
		l-1.9321289-2.3100586c0.5878906-1.0922852,1.0083008-2.394043,1.2602539-3.90625
		c0.2519531-1.5117188,0.3847656-3.5834961,0.3989258-6.2158203v-4.6831055h7.3291016v-2.3100586h2.855957V83.0644531z
		 M365.6313477,92.1787109l2.4150391-1.1762695c1.6098633,2.828125,3.0375977,5.5371094,4.2841797,8.1269531l-2.4360352,1.1552734
		c-0.1962891-0.40625-0.5180664-1.0571289-0.9663086-1.953125c-4.3676758,0.6855469-8.5400391,1.112793-12.515625,1.28125
		l-0.1469727-2.3730469c0.8398438-0.0283203,1.4555664-0.0561523,1.8476563-0.0839844
		c1.5258789-3.4443359,2.8979492-7.1328125,4.1162109-11.0673828l2.7929688,0.609375
		c-1.1479492,3.6401367-2.4223633,7.0488281-3.8222656,10.2265625c2.0019531-0.1679688,4.2070313-0.4125977,6.6152344-0.7348633
		C367.0874023,94.7895508,366.359375,93.4526367,365.6313477,92.1787109z"/>
	<path d="M387.387207,91.4223633c0,2.6879883-0.3217773,4.6694336-0.9658203,5.9433594
		c-0.644043,1.2734375-1.5332031,1.9106445-2.6669922,1.9106445c-0.5458984,0.0141602-1.2529297-0.0771484-2.1210938-0.2729492
		c-0.8681641-0.1962891-1.6450195-0.434082-2.3310547-0.7138672l0.7353516-2.4150391
		c1.4833984,0.5322266,2.5336914,0.7978516,3.1499023,0.7978516c0.1396484,0,0.2729492-0.0629883,0.3989258-0.1889648
		c0.1259766-0.1396484,0.2519531-0.3496094,0.3779297-0.6298828c0.1259766-0.2797852,0.230957-0.6298828,0.3149414-1.0498047
		s0.1611328-0.9663086,0.230957-1.6381836c0.0561523-0.6435547,0.0839844-1.3647461,0.0839844-2.1630859
		c0-0.6855469,0-1.168457,0-1.4487305s-0.027832-0.5810547-0.0839844-0.9033203
		c-0.0561523-0.3217773-0.1049805-0.5249023-0.1469727-0.6088867s-0.1542969-0.1679688-0.3359375-0.2519531
		c-0.1962891-0.0839844-0.3642578-0.1328125-0.5039063-0.1469727c-0.1401367,0-0.3920898,0-0.7558594,0h-2.2470703
		c-0.9243164,3.9477539-2.184082,7.8823242-3.7802734,11.8017578l-2.3730469-0.8398438
		c1.3720703-3.4018555,2.5341797-7.0561523,3.4863281-10.9619141h-3.1289063v-2.3730469h3.6748047
		c0.3217773-1.5258789,0.5878906-2.9326172,0.7978516-4.2211914l2.5200195,0.2314453
		c-0.1821289,1.315918-0.4130859,2.6459961-0.6928711,3.9897461h1.4702148c0.7138672,0,1.2456055,0,1.5957031,0
		s0.7421875,0.0419922,1.1762695,0.1259766c0.4335938,0.0839844,0.7348633,0.1542969,0.902832,0.2099609
		c0.1679688,0.0561523,0.3569336,0.2172852,0.5668945,0.4829102c0.2099609,0.2661133,0.3359375,0.5043945,0.3779297,0.7143555
		s0.0981445,0.5810547,0.1679688,1.112793c0.0703125,0.5322266,0.1049805,1.0288086,0.1049805,1.4912109
		C387.387207,89.8549805,387.387207,90.5268555,387.387207,91.4223633z M390.2856445,85.6264648l-2.1630859,1.0292969
		c-0.5458984-1.105957-1.1411133-2.21875-1.7851563-3.3393555l2.1630859-1.0917969
		C389.144043,83.4145508,389.7392578,84.5488281,390.2856445,85.6264648z M391.0205078,95.4125977
		c-0.7558594-2.4780273-1.6523438-5.0048828-2.6879883-7.5810547l2.4780273-0.8818359
		c1.1894531,2.9682617,2.1137695,5.5581055,2.7719727,7.7700195L391.0205078,95.4125977z M393.6875,84.9545898l-2.2050781,1.0498047
		c-0.6298828-1.2177734-1.2387695-2.3520508-1.8271484-3.4018555l2.2050781-1.112793
		C392.3642578,82.3999023,392.9736328,83.5546875,393.6875,84.9545898z"/>
	<path d="M397.8242188,82.2666016h2.7299805v4.1157227h0.0209961c1.5258789-2.4638672,3.5209961-3.6958008,5.9853516-3.6958008
		c1.7216797,0.0141602,3.0869141,0.6230469,4.0947266,1.8271484c1.0083008,1.2041016,1.512207,2.9052734,1.512207,5.1030273
		c0,3.4160156-0.9731445,5.9150391-2.9189453,7.4970703c-1.9462891,1.581543-5.0332031,2.3725586-9.2612305,2.3725586
		l-0.1469727-2.5200195c3.4580078,0,5.887207-0.5595703,7.2871094-1.6796875s2.1000977-3.0097656,2.1000977-5.6699219
		c0-1.4140625-0.2519531-2.4848633-0.7563477-3.2133789c-0.5039063-0.7275391-1.2319336-1.0844727-2.1835938-1.0708008
		c-1.456543,0-2.7719727,0.7348633-3.9482422,2.2050781c-1.1757813,1.4697266-1.7988281,3.262207-1.8691406,5.3759766
		l-2.6459961-0.0209961V82.2666016z"/>
	<path d="M417.4174805,83.5263672h8.3364258v-2.0366211h2.6464844v2.0366211h5.3964844v2.3730469h-5.3964844v1.8271484h4.6201172
		v2.3310547h-4.6201172v3.4018555c1.5117188,0.8540039,3.1640625,2.0932617,4.9560547,3.7172852l-1.6591797,1.8476563
		c-1.1337891-1.0634766-2.2675781-1.9946289-3.4023438-2.7929688c-0.2236328,1.1762695-0.7275391,2.0234375-1.5117188,2.5410156
		c-0.7841797,0.5180664-1.9453125,0.7768555-3.4863281,0.7768555c-1.4833984,0-2.6455078-0.3500977-3.4853516-1.0498047
		c-0.840332-0.699707-1.2670898-1.6591797-1.28125-2.8769531c-0.0141602-1.105957,0.3710938-1.9951172,1.1552734-2.6669922
		c0.7836914-0.671875,1.987793-1.0151367,3.6113281-1.0288086c0.8398438,0,1.6601563,0.1191406,2.4570313,0.3569336v-2.2260742
		h-7.5595703v-2.3310547h7.5595703v-1.8271484h-8.3364258V83.5263672z M425.7539063,94.7617188
		c-0.8261719-0.3359375-1.5537109-0.5043945-2.1835938-0.5043945c-0.8261719,0-1.4208984,0.1123047-1.784668,0.3364258
		c-0.3642578,0.2241211-0.5395508,0.5668945-0.5253906,1.0288086c-0.0141602,0.4902344,0.1611328,0.875,0.5253906,1.1547852
		c0.3637695,0.2802734,0.8676758,0.4130859,1.5112305,0.3994141c0.953125,0,1.5966797-0.1679688,1.9326172-0.5043945
		C425.5654297,96.3364258,425.7402344,95.699707,425.7539063,94.7617188z"/>
	<path d="M437.5146484,83.4423828h9.9326172v-2.3100586h2.6669922v2.3100586h5.5859375v2.2470703h-5.5859375v4.1791992
		c0.3642578,0.7978516,0.5458984,1.7358398,0.5458984,2.8139648c0,2.1279297-0.609375,3.737793-1.8261719,4.8300781
		c-1.21875,1.0917969-3.2421875,1.7915039-6.0693359,2.1000977l-0.4208984-2.4360352
		c2.0019531-0.2382813,3.3955078-0.5810547,4.1796875-1.0292969c0.7832031-0.4477539,1.2675781-1.1264648,1.4492188-2.0371094
		c0.0136719-0.0136719,0.0214844-0.034668,0.0214844-0.0629883v-0.0419922l-0.0214844-0.0209961
		c-0.7285156,0.5883789-1.6523438,0.8823242-2.7724609,0.8823242c-1.2744141,0.0141602-2.3173828-0.3710938-3.1289063-1.1552734
		c-0.8115234-0.7836914-1.2109375-1.777832-1.1962891-2.9819336c0.0136719-1.2177734,0.4257813-2.2119141,1.2382813-2.9819336
		s1.8691406-1.1547852,3.1708984-1.1547852c0.7275391,0,1.4345703,0.1679688,2.1210938,0.5039063h0.0419922v-1.4072266h-9.9326172
		V83.4423828z M444.1083984,89.3857422c-0.3916016,0.3642578-0.5878906,0.8120117-0.5878906,1.34375
		c0,0.5322266,0.1962891,0.9799805,0.5878906,1.3442383s0.8955078,0.5458984,1.5126953,0.5458984
		c0.6152344,0,1.1191406-0.1816406,1.5117188-0.5458984c0.3916016-0.3642578,0.5878906-0.8120117,0.5878906-1.3442383
		c0-0.5317383-0.1962891-0.9794922-0.5878906-1.34375c-0.3925781-0.3642578-0.8964844-0.5463867-1.5117188-0.5463867
		C445.0039063,88.8393555,444.5,89.0214844,444.1083984,89.3857422z"/>
	<path d="M458.1777344,96.7143555c0-0.9375,0.3369141-1.7426758,1.0087891-2.4150391
		c0.671875-0.671875,1.4833984-1.0078125,2.4365234-1.0078125c0.9375,0,1.7421875,0.3359375,2.4140625,1.0078125
		c0.671875,0.6723633,1.0078125,1.4775391,1.0078125,2.4150391c0,0.9526367-0.3359375,1.7641602-1.0078125,2.4360352
		c-0.671875,0.6723633-1.4765625,1.0083008-2.4140625,1.0083008c-0.9394531-0.0141602-1.7441406-0.3569336-2.4160156-1.0292969
		C458.5351563,98.4575195,458.1923828,97.652832,458.1777344,96.7143555z M460.1103516,96.7143555
		c0,0.4204102,0.1474609,0.7773438,0.4404297,1.0712891c0.2949219,0.2939453,0.6523438,0.440918,1.0722656,0.440918
		c0.4335938,0,0.7900391-0.1469727,1.0703125-0.440918c0.2792969-0.2939453,0.4199219-0.6508789,0.4199219-1.0712891
		c0-0.4335938-0.140625-0.7905273-0.4199219-1.0708008c-0.2802734-0.2797852-0.6367188-0.4199219-1.0703125-0.4199219
		c-0.4199219,0-0.7773438,0.1401367-1.0722656,0.4199219C460.2578125,95.9238281,460.1103516,96.2807617,460.1103516,96.7143555z"/>
	<path d="M76.6088867,126.2895508l5.3129883-15.3300781h3.1499023l5.3129883,15.3300781h-3.1289063l-1.0917969-3.6958008h-5.4179688
		l-1.0922852,3.6958008H76.6088867z M81.4179688,120.3466797h4.0742188l-2.0161133-6.8041992H83.434082L81.4179688,120.3466797z"/>
	<path d="M103.2788086,121.8793945c0,1.5405273-0.5043945,2.6953125-1.512207,3.465332s-2.5761719,1.1547852-4.7041016,1.1547852
		c-1.5537109,0-3.0239258-0.1049805-4.409668-0.3149414v-15.1201172c1.3154297-0.2099609,2.7158203-0.3149414,4.199707-0.3149414
		c3.9199219,0,5.8798828,1.28125,5.8798828,3.8432617c0,0.8818359-0.2871094,1.6308594-0.8608398,2.246582
		c-0.5742188,0.6162109-1.3369141,1.015625-2.2890625,1.1972656v0.0419922
		c1.1342773,0.1542969,2.0371094,0.5810547,2.7089844,1.2807617
		C102.9638672,120.0595703,103.2924805,120.8999023,103.2788086,121.8793945z M95.5507813,117.1337891h0.7768555
		c1.2880859,0,2.2260742-0.1821289,2.8139648-0.5463867c0.5878906-0.3637695,0.8818359-0.8886719,0.8818359-1.574707
		c0-0.6723633-0.237793-1.1689453-0.7138672-1.4912109c-0.4760742-0.3217773-1.2529297-0.4829102-2.3310547-0.4829102
		c-0.5180664,0-0.9941406,0.0419922-1.4277344,0.1259766V117.1337891z M95.5507813,119.3173828v4.7670898
		c0.4897461,0.0839844,1.0146484,0.1259766,1.574707,0.1259766c1.1762695-0.0136719,2.0297852-0.230957,2.5620117-0.6508789
		s0.7983398-1.0708008,0.7983398-1.953125c0-0.7978516-0.3081055-1.3789063-0.9243164-1.7426758
		c-0.6162109-0.3642578-1.6518555-0.5463867-3.1079102-0.5463867H95.5507813z"/>
	<path d="M112.8964844,113.1225586c-1.5820313,0.0141602-2.8417969,0.5112305-3.7797852,1.4912109
		s-1.4072266,2.3168945-1.4072266,4.0107422c0,1.6801758,0.4833984,3.0170898,1.4492188,4.0112305
		s2.2119141,1.4907227,3.737793,1.4907227c1.2739258,0,2.5200195-0.3847656,3.7382813-1.1547852l0.8818359,2.1630859
		c-1.4140625,0.9101563-3.0522461,1.3647461-4.9140625,1.3647461c-2.4082031,0-4.3256836-0.7138672-5.7539063-2.1420898
		c-1.4277344-1.4277344-2.1420898-3.3388672-2.1420898-5.7329102c0-2.421875,0.7070313-4.3398438,2.1210938-5.7539063
		s3.3388672-2.1210938,5.7749023-2.1210938c1.8618164,0,3.5,0.4550781,4.9140625,1.3652344l-0.8818359,2.1625977
		C115.4165039,113.5078125,114.1704102,113.1225586,112.8964844,113.1225586z"/>
	<path d="M132.6572266,118.4145508c0,2.6181641-0.7001953,4.6201172-2.1000977,6.0058594
		c-1.3999023,1.3862305-3.3808594,2.0791016-5.9428711,2.0791016c-1.4980469,0-2.8979492-0.1049805-4.199707-0.3149414v-15.1201172
		c1.3017578-0.2099609,2.7016602-0.3149414,4.199707-0.3149414c2.5620117,0,4.5429688,0.671875,5.9428711,2.0161133
		C131.9570313,114.109375,132.6572266,115.9926758,132.6572266,118.4145508z M129.8642578,118.4145508
		c0-3.5419922-1.7006836-5.3129883-5.1030273-5.3129883c-0.5322266,0-1.0151367,0.0419922-1.4487305,0.1259766v10.7939453
		c0.4335938,0.0839844,0.9165039,0.1259766,1.4487305,0.1259766c1.7080078,0,2.9819336-0.46875,3.8222656-1.4067383
		C129.4233398,121.8027344,129.8500977,120.3608398,129.8642578,118.4145508z"/>
	<path d="M137.9702148,113.3325195v3.7587891h6.1738281v2.2470703h-6.1738281v4.578125h6.59375v2.3730469h-9.5336914v-15.3300781
		h9.5336914v2.3730469H137.9702148z"/>
	<path d="M147.6723633,110.9594727h9.3027344v2.3730469h-6.362793v4.0322266h5.9428711v2.2675781h-5.9428711v6.6572266h-2.9399414
		V110.9594727z"/>
	<path d="M167.4956055,113.0805664c-1.7216797,0-3.065918,0.4970703-4.0317383,1.4912109s-1.4492188,2.3447266-1.4492188,4.0527344
		c0,1.7084961,0.5043945,3.059082,1.512207,4.0532227s2.3798828,1.4907227,4.1162109,1.4907227
		c0.8676758,0,1.6376953-0.1396484,2.3095703-0.4199219v-4.4101563h-4.2836914v-2.2470703h7.0766602v8.2954102
		c-1.6518555,0.7421875-3.4511719,1.112793-5.3969727,1.112793c-2.5200195,0-4.5356445-0.7138672-6.0478516-2.1420898
		c-1.5117188-1.4277344-2.2680664-3.3388672-2.2680664-5.7329102c0-2.421875,0.7280273-4.3398438,2.184082-5.7539063
		s3.4580078-2.1210938,6.0058594-2.1210938c1.8618164,0,3.5,0.4482422,4.9140625,1.3442383l-0.8608398,2.1206055
		C170.015625,113.4584961,168.7558594,113.0805664,167.4956055,113.0805664z"/>
	<path d="M176.2739258,126.2895508v-15.3300781h3.2338867v15.3300781H176.2739258z"/>
	<path d="M187.4458008,115.159668c1.6660156,0,2.862793,0.3251953,3.5913086,0.9765625
		c0.7275391,0.6508789,1.0917969,1.7045898,1.0917969,3.1601563v4.0532227c0,0.9941406,0.1049805,1.9741211,0.3149414,2.9399414
		h-2.5830078c-0.0839844-0.4619141-0.1469727-1.0009766-0.1889648-1.6171875h-0.0419922
		c-0.3920898,0.5742188-0.9208984,1.0224609-1.5854492,1.3442383c-0.6650391,0.3217773-1.3896484,0.4829102-2.1733398,0.4829102
		c-1.0224609,0-1.8378906-0.2836914-2.4467773-0.8505859s-0.9135742-1.3544922-0.9135742-2.3623047
		c0-1.2182617,0.5146484-2.1943359,1.543457-2.9296875c1.0292969-0.7348633,2.5097656-1.1025391,4.4418945-1.1025391h0.902832
		v-0.0629883c0-0.7416992-0.1469727-1.2597656-0.440918-1.5537109s-0.8193359-0.440918-1.5751953-0.440918
		c-1.3720703,0-2.6669922,0.3149414-3.8847656,0.9448242l-0.3989258-2.0371094
		C184.4287109,115.4746094,185.8779297,115.159668,187.4458008,115.159668z M185.0727539,123.0766602
		c0,0.4482422,0.1328125,0.7978516,0.3989258,1.0498047s0.6303711,0.3779297,1.0922852,0.3779297
		c0.7978516,0,1.4697266-0.2587891,2.0161133-0.7768555c0.5458984-0.5175781,0.8188477-1.1689453,0.8188477-1.953125v-0.7138672
		h-0.902832c-1.1064453,0-1.953125,0.1855469-2.5410156,0.5566406
		C185.3666992,121.9882813,185.0727539,122.4746094,185.0727539,123.0766602z"/>
	<path d="M195.2368164,110.5395508h2.7299805v6.2368164h0.0419922c0.8256836-1.0776367,1.8964844-1.6166992,3.2128906-1.6166992
		c1.3579102,0,2.425293,0.4829102,3.2026367,1.4487305c0.7768555,0.9663086,1.1655273,2.3730469,1.1655273,4.2211914
		c0,1.8061523-0.402832,3.2026367-1.2075195,4.1894531c-0.8056641,0.9868164-1.8588867,1.4804688-3.1606445,1.4804688
		c-1.4003906,0-2.5131836-0.5805664-3.3388672-1.7431641h-0.0419922l-0.0419922,1.5332031h-2.5620117V110.5395508z
		 M202.9648438,120.8295898c0-1.1762695-0.2207031-2.0581055-0.6616211-2.6459961s-1.0605469-0.8818359-1.8583984-0.8818359
		c-0.7421875,0-1.3408203,0.3041992-1.7958984,0.9130859c-0.4550781,0.609375-0.6821289,1.4458008-0.6821289,2.5097656v0.2099609
		c0,1.0917969,0.2270508,1.9355469,0.6821289,2.5302734c0.4550781,0.5952148,1.0537109,0.8925781,1.7958984,0.8925781
		c0.7416992,0,1.347168-0.3041992,1.8164063-0.9135742C202.7299805,122.8349609,202.9648438,121.9633789,202.9648438,120.8295898z"
		/>
	<path d="M215.8583984,123.6855469l0.6298828,2.0371094c-1.1479492,0.5180664-2.3383789,0.7768555-3.5703125,0.7768555
		c-1.7358398,0-3.1357422-0.5107422-4.199707-1.5332031c-1.0639648-1.0214844-1.5961914-2.4008789-1.5961914-4.1367188
		c0-1.7641602,0.5112305-3.1499023,1.5332031-4.1582031c1.0214844-1.0078125,2.4428711-1.5117188,4.2626953-1.5117188
		c1.2319336,0,2.4223633,0.2592773,3.5703125,0.7768555l-0.6298828,2.0791016
		c-0.8823242-0.5039063-1.8134766-0.7558594-2.7929688-0.7558594c-0.9946289,0-1.7714844,0.3081055-2.3310547,0.9238281
		c-0.5600586,0.6162109-0.8334961,1.4980469-0.8193359,2.6459961c-0.0141602,1.1201172,0.2729492,2.0019531,0.8613281,2.6459961
		c0.5878906,0.644043,1.3505859,0.9658203,2.2890625,0.9658203
		C214.059082,124.4414063,214.9897461,124.1894531,215.8583984,123.6855469z"/>
	<path d="M228.8989258,110.5395508v15.75h-2.5620117l-0.0419922-1.5332031h-0.0419922
		c-0.8261719,1.1625977-1.9389648,1.7431641-3.3388672,1.7431641c-1.3022461,0-2.3554688-0.4936523-3.1606445-1.4804688
		s-1.2075195-2.3833008-1.2075195-4.1894531c0-1.8481445,0.3886719-3.2548828,1.1655273-4.2211914
		c0.7773438-0.9658203,1.8447266-1.4487305,3.2026367-1.4487305c1.315918,0,2.3867188,0.5390625,3.2128906,1.6166992h0.0419922
		v-6.2368164H228.8989258z M221.1708984,120.8295898c0,1.1337891,0.234375,2.0053711,0.7036133,2.6142578
		c0.46875,0.609375,1.0742188,0.9135742,1.8164063,0.9135742s1.340332-0.2973633,1.7954102-0.8925781
		c0.4550781-0.5947266,0.6826172-1.4384766,0.6826172-2.5302734v-0.2099609c0-1.0639648-0.2275391-1.9003906-0.6826172-2.5097656
		c-0.4550781-0.6088867-1.0532227-0.9130859-1.7954102-0.9130859c-0.7978516,0-1.4174805,0.2939453-1.8583984,0.8818359
		S221.1708984,119.6533203,221.1708984,120.8295898z"/>
	<path d="M233.8964844,121.8164063c0.0698242,0.8261719,0.3886719,1.4804688,0.9555664,1.9638672
		c0.5668945,0.4829102,1.2841797,0.7241211,2.1523438,0.7241211c1.0361328,0,2.0649414-0.2587891,3.0874023-0.7768555
		l0.6298828,1.9321289c-1.2602539,0.5600586-2.590332,0.8398438-3.9902344,0.8398438
		c-1.6518555,0-2.9921875-0.5107422-4.0214844-1.5332031c-1.0288086-1.0214844-1.543457-2.4008789-1.543457-4.1367188
		c0-1.7641602,0.4760742-3.1499023,1.4282227-4.1582031c0.9516602-1.0078125,2.2397461-1.5117188,3.8637695-1.5117188
		s2.8876953,0.4829102,3.7905273,1.4487305c0.9033203,0.9663086,1.3544922,2.3520508,1.3544922,4.1582031
		c0,0.3500977-0.0209961,0.7001953-0.0629883,1.0498047H233.8964844z M233.8964844,119.9477539h5.1240234
		c-0.0141602-0.9101563-0.2412109-1.6069336-0.6821289-2.0898438c-0.4414063-0.4829102-1.0605469-0.7241211-1.8588867-0.7241211
		c-0.7700195,0-1.3828125,0.2446289-1.8374023,0.7348633C234.1870117,118.3588867,233.9384766,119.0517578,233.8964844,119.9477539z
		"/>
	<path d="M243.4511719,117.8266602v-2.0371094h2.625v-0.902832c0-1.3579102,0.3432617-2.3867188,1.0292969-3.0874023
		c0.6855469-0.699707,1.6938477-1.0498047,3.0239258-1.0498047c0.8256836,0,1.6098633,0.1049805,2.3520508,0.3149414
		l-0.4619141,2.1000977c-0.4902344-0.2099609-0.9946289-0.3149414-1.512207-0.3149414
		c-0.6020508,0-1.0288086,0.1542969-1.2807617,0.4619141c-0.2524414,0.3081055-0.378418,0.8330078-0.378418,1.5751953v0.902832
		h3.4233398v2.0371094h-3.4233398v8.4628906h-2.7719727v-8.4628906H243.4511719z"/>
	<path d="M258.949707,115.159668c1.3999023,0,2.5336914,0.5810547,3.4018555,1.7426758h0.0419922l0.0629883-1.5327148h2.5620117
		v9.8071289c0,3.9614258-1.9179688,5.9428711-5.7539063,5.9428711c-1.2597656,0-2.4501953-0.2099609-3.5698242-0.6298828
		l0.5039063-2.0581055c1.0078125,0.4199219,2.0087891,0.6298828,3.0029297,0.6298828
		c1.0917969,0,1.8828125-0.2871094,2.3730469-0.8608398c0.4897461-0.5742188,0.7348633-1.5615234,0.7348633-2.9609375v-0.7773438
		h-0.0209961c-0.7978516,1.078125-1.9111328,1.6171875-3.3388672,1.6171875c-1.2319336,0-2.2543945-0.4897461-3.065918-1.4702148
		c-0.8120117-0.9794922-1.2250977-2.3100586-1.2392578-3.9897461c0.0141602-1.7641602,0.3989258-3.1147461,1.1552734-4.0532227
		C256.5556641,115.6289063,257.6054688,115.159668,258.949707,115.159668z M257.2905273,120.6196289
		c0,1.0639648,0.2241211,1.8901367,0.6723633,2.4780273c0.4477539,0.5878906,1.0356445,0.8818359,1.7636719,0.8818359
		c0.7700195,0,1.3930664-0.2866211,1.8691406-0.8608398c0.4755859-0.5742188,0.706543-1.3720703,0.6928711-2.394043v-0.2099609
		c0.0136719-1.0219727-0.2172852-1.8198242-0.6928711-2.394043c-0.4760742-0.5737305-1.0991211-0.8608398-1.8691406-0.8608398
		c-0.7558594,0-1.3510742,0.2797852-1.784668,0.8398438C257.5078125,118.659668,257.2905273,119.4995117,257.2905273,120.6196289z"
		/>
	<path d="M268.5463867,126.2895508v-15.75h2.8979492v15.75H268.5463867z"/>
	<path d="M279.6762695,126.2895508v-11.9072266h-0.0209961l-3.6748047,3.3603516l-0.9868164-2.4360352l4.6826172-4.347168h3.0239258
		v15.3300781H279.6762695z"/>
	<path d="M288.6855469,123.9165039c1.9038086-1.4980469,3.3735352-2.7509766,4.409668-3.7587891
		c1.0361328-1.0083008,1.7290039-1.8549805,2.0791016-2.5410156c0.3496094-0.6723633,0.5249023-1.3720703,0.5249023-2.1000977
		c0-1.5541992-0.8330078-2.3310547-2.4990234-2.3310547c-1.1899414,0-2.5336914,0.4829102-4.0317383,1.4492188l-0.7768555-2.3520508
		c0.671875-0.4624023,1.4833984-0.8330078,2.4355469-1.1132813c0.9521484-0.2797852,1.8828125-0.4199219,2.793457-0.4199219
		c1.6376953,0,2.8979492,0.3920898,3.7797852,1.1762695s1.3227539,1.8828125,1.3227539,3.296875
		c0,1.315918-0.4199219,2.5830078-1.2597656,3.8007813c-0.8398438,1.2182617-2.4643555,2.8349609-4.8720703,4.8510742v0.0419922
		h6.1738281v2.3730469h-10.0795898V123.9165039z"/>
	<path d="M302.0834961,110.9594727h9.8276367v2.3730469l-4.3046875,3.90625v0.0419922h0.3569336
		c1.2875977,0.0136719,2.3027344,0.3847656,3.0449219,1.112793c0.7416992,0.7280273,1.112793,1.75,1.112793,3.065918
		c0,1.6245117-0.4902344,2.8701172-1.4697266,3.7382813c-0.9799805,0.8681641-2.3803711,1.3017578-4.2001953,1.3017578
		c-1.6376953,0-3.1289063-0.3706055-4.4726563-1.112793l0.7558594-2.3100586
		c1.3017578,0.7001953,2.4990234,1.0498047,3.5908203,1.0498047c0.9243164,0,1.6381836-0.2236328,2.1420898-0.671875
		c0.5039063-0.4477539,0.7558594-1.0991211,0.7558594-1.953125c0-0.7836914-0.2802734-1.34375-0.8398438-1.6796875
		c-0.5600586-0.3364258-1.5610352-0.5112305-3.0029297-0.5253906h-1.2602539v-2.0996094l4.2001953-3.8222656v-0.0419922h-6.2368164
		V110.9594727z"/>
	<path d="M323.9023438,120.8295898h2.3310547v2.3100586h-2.3310547v3.1499023h-2.855957v-3.1499023h-6.9301758v-2.3100586
		l6.9301758-9.8701172h2.855957V120.8295898z M321.0463867,120.8295898v-6.0268555h-0.0419922l-4.1582031,5.9848633v0.0419922
		H321.0463867z"/>
	<path d="M336.7124023,110.7495117l0.5249023,2.3730469c-1.512207,0.0981445-2.7231445,0.4550781-3.6333008,1.0708008
		c-0.9101563,0.6162109-1.5957031,1.5195313-2.0576172,2.7089844l0.0209961,0.0209961
		c0.8955078-0.6577148,1.9667969-0.9868164,3.2128906-0.9868164c1.6098633,0,2.8486328,0.440918,3.7167969,1.3232422
		c0.8681641,0.8818359,1.309082,2.1416016,1.3232422,3.7797852c0.0136719,1.6523438-0.5112305,2.9750977-1.5751953,3.9692383
		s-2.4570313,1.4907227-4.1787109,1.4907227c-1.8061523,0-3.2133789-0.5175781-4.2211914-1.5541992
		c-1.0078125-1.0356445-1.512207-2.5688477-1.512207-4.5986328c0-2.8701172,0.7490234-5.1586914,2.2470703-6.8671875
		C332.078125,111.7714844,334.1220703,110.8618164,336.7124023,110.7495117z M334.0664063,124.2524414
		c0.909668,0,1.6166992-0.2729492,2.1206055-0.8188477c0.5043945-0.5458984,0.7563477-1.3442383,0.7563477-2.394043
		c0-0.9516602-0.2519531-1.6938477-0.7563477-2.2260742c-0.5039063-0.5317383-1.2109375-0.8046875-2.1206055-0.8188477
		c-0.8823242,0-1.5751953,0.2729492-2.0791016,0.8188477s-0.7558594,1.2880859-0.7558594,2.2260742
		c0,1.0498047,0.2519531,1.8481445,0.7558594,2.394043S333.184082,124.2524414,334.0664063,124.2524414z"/>
	<path d="M342.2983398,110.9594727h10.4370117v2.3730469c-2.3242188,3.8222656-4.2421875,8.1411133-5.7543945,12.9570313h-3.1079102
		c1.5961914-4.6899414,3.6123047-8.987793,6.0483398-12.894043v-0.0629883h-7.6230469V110.9594727z"/>
	<path d="M357.4389648,124.1264648c1.5961914-0.0976563,2.855957-0.4477539,3.7802734-1.0498047
		c0.9238281-0.6020508,1.6308594-1.512207,2.1206055-2.7299805l-0.0209961-0.0209961
		c-0.9238281,0.6582031-1.9946289,0.9868164-3.2128906,0.9868164c-1.6098633,0.0141602-2.8491211-0.4267578-3.7167969-1.3227539
		c-0.8681641-0.8959961-1.309082-2.190918-1.3232422-3.8852539c-0.0141602-1.6098633,0.5112305-2.9047852,1.5751953-3.8847656
		s2.4570313-1.4702148,4.1791992-1.4702148c1.8056641,0,3.2128906,0.5180664,4.2207031,1.5541992
		c1.0083008,1.0361328,1.512207,2.5341797,1.512207,4.4936523c0,2.9682617-0.7700195,5.2993164-2.3100586,6.9931641
		c-1.5405273,1.6943359-3.6333008,2.5966797-6.2792969,2.7089844L357.4389648,124.1264648z M360.8203125,112.996582
		c-0.9106445,0.0141602-1.6171875,0.2871094-2.1210938,0.8188477c-0.5039063,0.5322266-0.7563477,1.2954102-0.7563477,2.2890625
		c0,1.0083008,0.2524414,1.7851563,0.7563477,2.3310547s1.2104492,0.8188477,2.1210938,0.8188477
		c0.8818359,0.0141602,1.574707-0.2587891,2.0786133-0.8188477c0.5043945-0.5595703,0.7563477-1.3369141,0.7563477-2.3310547
		c0-0.9936523-0.2519531-1.7568359-0.7563477-2.2890625C362.3950195,113.2836914,361.7021484,113.0107422,360.8203125,112.996582z"
		/>
	<path d="M378.9008789,113.3325195h-6.2578125l-0.1679688,3.5488281h0.0419922
		c0.699707-0.3496094,1.4628906-0.5249023,2.2890625-0.5249023c1.4975586,0,2.6669922,0.4130859,3.5068359,1.2392578
		s1.2602539,1.9946289,1.2602539,3.5068359c0,3.5981445-2.0512695,5.3969727-6.1533203,5.3969727
		c-1.4980469,0-2.8979492-0.3007813-4.199707-0.902832l0.6298828-2.3730469
		c1.2597656,0.6020508,2.421875,0.902832,3.4858398,0.902832c2.2260742,0,3.3388672-1.0078125,3.3388672-3.0239258
		c0-1.6660156-0.8051758-2.4990234-2.4145508-2.4990234c-0.840332,0-1.5683594,0.2871094-2.184082,0.8608398h-2.5200195
		l0.4199219-8.5048828h8.9248047V113.3325195z"/>
	<path d="M391.6899414,114.0043945c-1.2739258-0.6298828-2.6391602-0.9448242-4.0952148-0.9448242
		c-0.7841797,0-1.3857422,0.1679688-1.8056641,0.5039063s-0.6298828,0.7841797-0.6298828,1.3442383
		c0,0.9941406,0.7207031,1.6938477,2.1625977,2.0996094c1.9458008,0.5463867,3.3251953,1.2114258,4.137207,1.9951172
		c0.8115234,0.7841797,1.2177734,1.7993164,1.2177734,3.0449219c0,1.456543-0.4760742,2.5620117-1.4277344,3.3183594
		c-0.9521484,0.7558594-2.3310547,1.1337891-4.137207,1.1337891c-1.8339844,0-3.4790039-0.4545898-4.9350586-1.3647461
		l0.7353516-2.3520508c1.34375,0.9101563,2.7646484,1.3647461,4.2626953,1.3647461
		c0.840332,0,1.4702148-0.1816406,1.8901367-0.5458984c0.4199219-0.3637695,0.6298828-0.8676758,0.6298828-1.512207
		c0-0.6015625-0.1679688-1.0776367-0.5039063-1.4277344c-0.3359375-0.3496094-0.9589844-0.6582031-1.8691406-0.9238281
		c-1.7919922-0.5180664-3.0942383-1.1689453-3.9057617-1.953125c-0.8120117-0.7841797-1.2182617-1.7431641-1.2182617-2.8769531
		c0-1.2602539,0.4692383-2.2680664,1.4072266-3.0239258c0.9379883-0.7563477,2.2470703-1.1342773,3.9267578-1.1342773
		c1.722168,0,3.3041992,0.3291016,4.7460938,0.9868164L391.6899414,114.0043945z"/>
	<path d="M396.5620117,111.7993164c0.9521484-0.699707,2.2749023-1.0498047,3.9692383-1.0498047
		c1.6933594,0,3.0166016,0.3500977,3.96875,1.0498047c0.9521484,0.7006836,1.4282227,1.6313477,1.4282227,2.793457
		c0,1.4697266-0.8754883,2.6040039-2.625,3.4018555v0.0419922c2.0717773,0.7841797,3.1079102,2.1352539,3.1079102,4.0527344
		c0,1.3442383-0.5180664,2.4150391-1.5541992,3.2133789c-1.0361328,0.7978516-2.4780273,1.1967773-4.3256836,1.1967773
		c-1.8481445,0-3.2905273-0.3989258-4.3261719-1.1967773c-1.0361328-0.7983398-1.5541992-1.8691406-1.5541992-3.2133789
		c0-0.7836914,0.2519531-1.4975586,0.7563477-2.1416016c0.5039063-0.644043,1.2666016-1.1831055,2.2885742-1.6171875v-0.0419922
		c-0.8120117-0.4057617-1.4418945-0.9311523-1.8896484-1.5751953c-0.4482422-0.6435547-0.671875-1.3505859-0.671875-2.1206055
		C395.1342773,113.4306641,395.6098633,112.5,396.5620117,111.7993164z M400.2998047,119.2753906
		c-1.8896484,0.5742188-2.8349609,1.4633789-2.8349609,2.6669922c0,0.7143555,0.2802734,1.2954102,0.840332,1.7431641
		c0.5595703,0.4482422,1.3017578,0.671875,2.2260742,0.671875c0.9238281,0,1.6513672-0.2236328,2.1835938-0.671875
		c0.5322266-0.4477539,0.8051758-1.0288086,0.8193359-1.7431641c0.0136719-0.6298828-0.2172852-1.1547852-0.6933594-1.574707
		S401.5180664,119.5834961,400.2998047,119.2753906z M400.5942383,117.1757813
		c1.7075195-0.5043945,2.5620117-1.2670898,2.5620117-2.2890625c0-0.6020508-0.2314453-1.0849609-0.6933594-1.4492188
		c-0.4619141-0.3637695-1.105957-0.5458984-1.9316406-0.5458984c-0.8125,0-1.4423828,0.1821289-1.8901367,0.5458984
		c-0.4482422,0.3642578-0.6791992,0.847168-0.6928711,1.4492188
		C397.9482422,115.9365234,398.8300781,116.699707,400.5942383,117.1757813z"/>
	<path d="M409.5610352,112.6186523c0.9794922-1.2460938,2.449707-1.8691406,4.4101563-1.8691406
		c1.9594727,0,3.4296875,0.6230469,4.409668,1.8691406s1.4702148,3.2480469,1.4702148,6.0058594
		c0,2.7583008-0.4902344,4.7602539-1.4702148,6.0058594c-0.9799805,1.246582-2.4501953,1.8691406-4.409668,1.8691406
		c-1.9604492,0-3.4306641-0.6225586-4.4101563-1.8691406c-0.9799805-1.2456055-1.4702148-3.2475586-1.4702148-6.0058594
		C408.0908203,115.8666992,408.5810547,113.8647461,409.5610352,112.6186523z M411.7871094,122.9506836
		c0.4755859,0.8398438,1.2036133,1.2597656,2.184082,1.2597656c0.9794922,0,1.7075195-0.4199219,2.1835938-1.2597656
		c0.4760742-0.840332,0.7143555-2.2817383,0.7143555-4.3261719c0-2.0439453-0.2382813-3.4858398-0.7143555-4.3261719
		c-0.4760742-0.8398438-1.2041016-1.2597656-2.1835938-1.2597656c-0.9804688,0-1.7084961,0.4199219-2.184082,1.2597656
		c-0.4760742,0.840332-0.7143555,2.2822266-0.7143555,4.3261719
		C411.0727539,120.6689453,411.3110352,122.1103516,411.7871094,122.9506836z"/>
	<path d="M423.4941406,112.8808594c1.3925781-1.4204102,3.2519531-2.1313477,5.5761719-2.1313477
		c2.3232422,0,4.1816406,0.7109375,5.5751953,2.1313477c1.3925781,1.4213867,2.0888672,3.3359375,2.0888672,5.7436523
		c0,2.4082031-0.6962891,4.3227539-2.0888672,5.7436523c-1.3935547,1.4208984-3.2519531,2.1313477-5.5751953,2.1313477
		c-2.3242188,0-4.1835938-0.7104492-5.5761719-2.1313477s-2.0893555-3.3354492-2.0893555-5.7436523
		C421.4047852,116.2167969,422.1015625,114.3022461,423.4941406,112.8808594z M425.6679688,122.6459961
		c0.8398438,0.9589844,1.9746094,1.4384766,3.4023438,1.4384766s2.5615234-0.4794922,3.4013672-1.4384766
		c0.8408203-0.9584961,1.2607422-2.2993164,1.2607422-4.0214844s-0.4199219-3.0625-1.2607422-4.0214844
		c-0.8398438-0.9589844-1.9736328-1.4384766-3.4013672-1.4384766s-2.5625,0.4794922-3.4023438,1.4384766
		s-1.2597656,2.2993164-1.2597656,4.0214844S424.828125,121.6875,425.6679688,122.6459961z"/>
	<path d="M440.1582031,130.909668v-21.6298828h2.6035156v21.6298828H440.1582031z"/>
	<path d="M448.1796875,110.9594727h3.4853516l-0.4199219,10.7099609h-2.6455078L448.1796875,110.9594727z M448.3886719,126.2895508
		v-2.9399414h3.0664063v2.9399414H448.3886719z"/>
	<path d="M458.6171875,121.6064453c0-0.4619141,0.0625-0.902832,0.1884766-1.3227539s0.2587891-0.7563477,0.3994141-1.0083008
		c0.1386719-0.2797852,0.3632813-0.5737305,0.671875-0.8818359c0.3066406-0.3076172,0.5527344-0.5249023,0.734375-0.6508789
		c0.1816406-0.1401367,0.4482422-0.3427734,0.7988281-0.6088867c0.4335938-0.3081055,0.7480469-0.5463867,0.9443359-0.7143555
		s0.3916016-0.4057617,0.5878906-0.7138672c0.1962891-0.3076172,0.2939453-0.6298828,0.2939453-0.9658203
		c0-1.078125-0.8886719-1.6171875-2.6669922-1.6171875c-1.34375,0-2.8212891,0.2592773-4.4306641,0.7768555l-0.5253906-2.3730469
		c1.8203125-0.5175781,3.6123047-0.7768555,5.3769531-0.7768555c1.6933594,0,3.0019531,0.3359375,3.9257813,1.0078125
		c0.9238281,0.6723633,1.3935547,1.5473633,1.4082031,2.625c0.0136719,0.5185547-0.0498047,0.9736328-0.1894531,1.3652344
		c-0.140625,0.3920898-0.3505859,0.7490234-0.6308594,1.0708008c-0.2792969,0.3222656-0.5449219,0.5742188-0.796875,0.7563477
		c-0.2246094,0.1821289-0.5390625,0.4130859-0.9453125,0.6928711c-0.5185547,0.3642578-0.9033203,0.6508789-1.1552734,0.8608398
		s-0.5185547,0.5390625-0.7978516,0.9873047c-0.2519531,0.4482422-0.3847656,0.9448242-0.3984375,1.4907227H458.6171875z
		 M458.4697266,126.2895508v-2.9399414h3.0869141v2.9399414H458.4697266z"/>
	<path d="M470.2714844,118.246582v-3.5698242h3.359375v3.5698242H470.2714844z M470.2714844,126.2895508v-3.5698242h3.359375
		v3.5698242H470.2714844z"/>
	<path d="M477.8945313,128.5996094l1.40625-5.8798828h3.5078125l-2.3945313,5.8798828H477.8945313z M479.3007813,118.246582
		v-3.5698242h3.359375v3.5698242H479.3007813z"/>
	<path d="M487.28125,126.2895508v-3.5698242h3.359375v3.5698242H487.28125z"/>
	<path d="M495.0507813,122.7197266h3.5078125l-2.3945313,5.8798828h-2.5195313L495.0507813,122.7197266z"/>
	<path d="M499.859375,129.859375v-2.0366211h12.8945313v2.0366211H499.859375z"/>
	<path d="M514.265625,121.3125v-2.2260742h6.8046875V121.3125H514.265625z"/>
	<path d="M529.2792969,120.8295898c-1.078125-0.4897461-1.8261719-0.7348633-2.2460938-0.7348633
		c-0.3652344-0.0141602-0.6230469,0.1191406-0.7773438,0.3989258c-0.1542969,0.2802734-0.2304688,0.7768555-0.2304688,1.4907227
		h-2.3730469c0-2.8417969,0.9863281-4.2626953,2.9609375-4.2626953c1.1054688,0,2.484375,0.3852539,4.1367188,1.1547852
		c1.078125,0.4902344,1.8261719,0.7348633,2.2460938,0.7348633c0.3359375,0,0.5878906-0.1259766,0.7558594-0.3779297
		s0.2519531-0.6855469,0.2519531-1.3017578h2.3730469c0,2.7021484-0.9863281,4.0527344-2.9609375,4.0527344
		C532.3105469,121.984375,530.9316406,121.5996094,529.2792969,120.8295898z"/>
	<path d="M542.2988281,119.9897461c0-3.8222656-1.3574219-7.1118164-4.0722656-9.8701172h2.5195313
		c1.3574219,1.2597656,2.4140625,2.7441406,3.1699219,4.4521484s1.1269531,3.5141602,1.1132813,5.4179688
		c0.0136719,1.9038086-0.3574219,3.7099609-1.1132813,5.4179688c-0.7558594,1.7075195-1.8125,3.1918945-3.1699219,4.4516602
		h-2.5195313C540.9414063,127.1015625,542.2988281,123.8115234,542.2988281,119.9897461z"/>
	<path d="M548.1367188,110.1196289h2.4375c1.1464844,0,1.9726563,0.2592773,2.4765625,0.7768555
		c0.5039063,0.5180664,0.7558594,1.3793945,0.7558594,2.5830078v2.9819336c0,0.8681641,0.140625,1.4912109,0.4199219,1.8691406
		c0.28125,0.3779297,0.7421875,0.5668945,1.3867188,0.5668945h0.8398438v2.184082h-0.8398438
		c-0.6445313,0-1.1054688,0.1889648-1.3867188,0.5668945c-0.2792969,0.3779297-0.4199219,1.0014648-0.4199219,1.8691406v2.9819336
		c0,1.2041016-0.2519531,2.0649414-0.7558594,2.5830078c-0.5039063,0.5175781-1.3300781,0.7768555-2.4765625,0.7768555h-2.4375
		v-2.0366211H549.25c0.8261719,0,1.3574219-0.1191406,1.5957031-0.3574219
		c0.2382813-0.237793,0.3574219-0.8188477,0.3574219-1.7426758v-2.3100586c0-0.9379883,0.1679688-1.6591797,0.5039063-2.1630859
		s0.8964844-0.9165039,1.6796875-1.2387695V119.96875c-0.7832031-0.3222656-1.34375-0.7353516-1.6796875-1.2392578
		s-0.5039063-1.2246094-0.5039063-2.1630859v-2.3100586c0-0.9238281-0.1191406-1.5043945-0.3574219-1.7426758
		c-0.2382813-0.237793-0.7695313-0.3569336-1.5957031-0.3569336h-1.1132813V110.1196289z"/>
	<path d="M563.2363281,127.8227539v-15.6660156h-3.9902344v-2.0371094h6.59375v19.7397461h-6.59375v-2.0366211H563.2363281z"/>
</g>
<g>
	<path fill="#70A0BB" d="M7.1899414,39.4599609V29.3100586c0.8120117-0.1401367,1.6845703-0.2099609,2.6181641-0.2099609
		c1.3066406,0,2.2958984,0.2426758,2.9677734,0.7280273c0.6723633,0.4853516,1.003418,1.1665039,0.9941406,2.0439453
		c0,0.7094727-0.1914063,1.3017578-0.5742188,1.777832s-0.9238281,0.8027344-1.6240234,0.9799805v0.0283203
		c0.4204102,0.2236328,0.8354492,0.8305664,1.2460938,1.8198242l1.2319336,2.9819336h-1.1616211l-1.2041016-2.9541016
		c-0.2802734-0.6625977-0.5415039-1.078125-0.7841797-1.2460938s-0.7329102-0.2519531-1.4697266-0.2519531H8.3100586v4.4521484
		H7.1899414z M8.3100586,34.1118164h1.1201172c1.1103516,0,1.9272461-0.1772461,2.449707-0.5317383
		c0.5229492-0.3544922,0.7841797-0.8911133,0.7841797-1.6103516c0-1.3061523-0.9848633-1.9599609-2.9541016-1.9599609
		c-0.4946289,0-0.9614258,0.0419922-1.3999023,0.1259766V34.1118164z"/>
	<path fill="#70A0BB" d="M16.2758789,36.2119141c0.0185547,0.793457,0.2612305,1.4189453,0.7280273,1.8759766
		c0.4663086,0.4575195,1.0727539,0.6860352,1.8198242,0.6860352c0.7280273,0,1.4467773-0.1865234,2.1557617-0.5600586
		l0.2802734,0.7978516c-0.7841797,0.3920898-1.6240234,0.5883789-2.5200195,0.5883789
		c-1.0454102,0-1.8901367-0.3408203-2.5341797-1.0219727s-0.9658203-1.6005859-0.9658203-2.7583008
		c0-1.1757813,0.3007813-2.1000977,0.902832-2.7719727s1.4208984-1.0078125,2.4570313-1.0078125
		c1.0083008,0,1.7871094,0.3173828,2.3378906,0.9521484S21.7636719,34.5458984,21.7636719,35.75
		c0,0.2148438-0.0048828,0.3686523-0.0141602,0.4619141H16.2758789z M16.2758789,35.3999023h4.4936523
		c-0.0092773-0.8120117-0.2050781-1.4370117-0.5878906-1.8759766c-0.3828125-0.4384766-0.9101563-0.6582031-1.5820313-0.6582031
		c-0.699707,0-1.2553711,0.222168-1.6660156,0.6650391C16.5229492,33.9746094,16.3037109,34.597168,16.2758789,35.3999023z"/>
	<path fill="#70A0BB" d="M23.0234375,35.6801758c0-1.1572266,0.2568359-2.0532227,0.7700195-2.6879883
		s1.2226563-0.9521484,2.1279297-0.9521484c1.0922852,0,1.8994141,0.4526367,2.4223633,1.3579102h0.027832l0.027832-1.2177734
		h0.9799805v6.6777344c0,2.5478516-1.1386719,3.8222656-3.4160156,3.8222656c-0.7836914,0-1.5351563-0.1494141-2.2539063-0.4482422
		l0.2241211-0.8261719c0.6625977,0.2895508,1.3393555,0.434082,2.0297852,0.434082
		c0.8212891,0,1.4233398-0.2285156,1.8061523-0.6860352c0.3828125-0.4570313,0.5742188-1.2084961,0.5742188-2.2539063v-0.8959961
		h-0.0283203c-0.5039063,0.8774414-1.3017578,1.315918-2.394043,1.315918c-0.8491211,0-1.5444336-0.3266602-2.0859375-0.9799805
		C23.2939453,37.6870117,23.0234375,36.7998047,23.0234375,35.6801758z M24.0317383,35.6801758
		c0,0.8583984,0.1958008,1.5395508,0.5878906,2.0439453c0.3920898,0.5039063,0.9052734,0.7558594,1.5400391,0.7558594
		c0.644043,0,1.1708984-0.2426758,1.5820313-0.7280273C28.1523438,37.2666016,28.3525391,36.5996094,28.34375,35.75v-0.1401367
		c0-0.8491211-0.2055664-1.5166016-0.6162109-2.0019531s-0.9335938-0.7280273-1.5678711-0.7280273
		c-0.6630859,0-1.1811523,0.2426758-1.5541992,0.7280273C24.2319336,34.0932617,24.0405273,34.7841797,24.0317383,35.6801758z"/>
	<path fill="#70A0BB" d="M32.4169922,32.1801758v4.5219727c0,0.746582,0.1240234,1.269043,0.3710938,1.5678711
		s0.6601563,0.4477539,1.2392578,0.4477539c0.5410156,0,1.0336914-0.2612305,1.4770508-0.7836914
		c0.4428711-0.5229492,0.6650391-1.1430664,0.6650391-1.8623047v-3.8916016h1.0356445v7.2797852h-0.9799805l-0.027832-1.3017578
		h-0.027832c-0.2802734,0.4477539-0.637207,0.800293-1.0712891,1.0566406
		c-0.434082,0.2568359-0.8984375,0.3852539-1.3930664,0.3852539c-0.7836914,0-1.362793-0.2216797-1.7358398-0.6650391
		c-0.3735352-0.4433594-0.5600586-1.1552734-0.5600586-2.1352539v-4.6196289H32.4169922z"/>
	<path fill="#70A0BB" d="M39.8647461,39.4599609v-10.5h1.0922852v10.5H39.8647461z"/>
	<path fill="#70A0BB" d="M46.2768555,32.0400391c1.0170898,0,1.7451172,0.2099609,2.184082,0.6298828
		c0.4384766,0.4199219,0.6577148,1.1108398,0.6577148,2.0722656V37.5c0,0.6625977,0.0703125,1.315918,0.2104492,1.9599609
		h-0.9799805c-0.09375-0.4106445-0.1450195-0.8398438-0.1542969-1.2880859h-0.027832
		c-0.2519531,0.4482422-0.6137695,0.7978516-1.0849609,1.050293c-0.4716797,0.2519531-1.0058594,0.3779297-1.6030273,0.3779297
		c-0.671875,0-1.2089844-0.1889648-1.6103516-0.5668945C43.4672852,38.6547852,43.2670898,38.144043,43.2670898,37.5
		c0-0.8120117,0.3520508-1.4580078,1.0566406-1.9389648c0.7045898-0.4804688,1.7104492-0.7211914,3.0170898-0.7211914h0.7558594
		v-0.0698242c0-0.7094727-0.1328125-1.2016602-0.3989258-1.4770508c-0.265625-0.2753906-0.7397461-0.4130859-1.4208984-0.4130859
		c-0.8774414,0-1.6938477,0.2148438-2.4501953,0.644043l-0.1958008-0.8261719
		C44.4335938,32.2592773,45.3154297,32.0400391,46.2768555,32.0400391z M44.2749023,37.4580078
		c0,0.4199219,0.1303711,0.7490234,0.3920898,0.9868164c0.2612305,0.2382813,0.6113281,0.3569336,1.0498047,0.3569336
		c0.644043,0,1.2016602-0.230957,1.6733398-0.6928711c0.4707031-0.4619141,0.706543-1.0288086,0.706543-1.7006836v-0.7841797
		h-0.7558594c-0.9799805,0-1.7358398,0.1655273-2.2680664,0.4970703
		C44.5410156,36.4521484,44.2749023,36.8979492,44.2749023,37.4580078z"/>
	<path fill="#70A0BB" d="M51.2885742,32.1801758h1.0083008l0.0136719,1.5537109h0.0283203
		c0.8212891-1.1289063,1.9829102-1.6938477,3.4858398-1.6938477v0.8818359c-1.0361328,0-1.8759766,0.284668-2.5200195,0.8540039
		s-0.9658203,1.3071289-0.9658203,2.2119141v3.472168h-1.050293V32.1801758z"/>
</g>
<g>
	<path fill="#70A0BB" d="M13.8120117,107.0410156c0,2.0532227-1.3393555,3.0800781-4.0180664,3.0800781
		c-0.8681641,0-1.7358398-0.074707-2.6040039-0.2241211V99.8447266c0.8212891-0.1489258,1.6425781-0.2236328,2.4638672-0.2236328
		c2.4643555,0,3.6962891,0.8256836,3.6962891,2.4780273c-0.0092773,0.5693359-0.2006836,1.059082-0.5742188,1.4697266
		c-0.3730469,0.4111328-0.8867188,0.690918-1.5400391,0.840332v0.027832
		c0.8212891,0.121582,1.4560547,0.4106445,1.9042969,0.8681641
		C13.5878906,105.762207,13.8120117,106.3408203,13.8120117,107.0410156z M9.6538086,100.5307617
		c-0.4755859,0-0.9238281,0.0419922-1.34375,0.1259766v3.3740234h0.9238281c2.034668,0,3.0522461-0.597168,3.0522461-1.7919922
		c0-0.5786133-0.2099609-1.0078125-0.6303711-1.2875977C11.2358398,100.6708984,10.5683594,100.5307617,9.6538086,100.5307617z
		 M12.7060547,106.9428711c-0.0092773-0.6904297-0.284668-1.1992188-0.8261719-1.5258789s-1.4233398-0.4902344-2.6459961-0.4902344
		H8.3100586v4.1582031c0.4570313,0.0839844,0.9521484,0.1259766,1.4838867,0.1259766
		C11.7353516,109.2109375,12.7060547,108.4550781,12.7060547,106.9428711z"/>
	<path fill="#70A0BB" d="M20.8540039,109.0991211c-0.6254883,0.6811523-1.4560547,1.0219727-2.4916992,1.0219727
		c-1.0361328,0-1.8671875-0.3408203-2.4921875-1.0219727c-0.6254883-0.6811523-0.9379883-1.6005859-0.9379883-2.7583008
		c0-1.1572266,0.3125-2.0766602,0.9379883-2.7578125c0.625-0.6811523,1.4560547-1.0219727,2.4921875-1.0219727
		c1.0356445,0,1.8662109,0.3408203,2.4916992,1.0219727s0.9379883,1.6005859,0.9379883,2.7578125
		C21.7919922,107.4985352,21.4794922,108.4179688,20.8540039,109.0991211z M20.1049805,104.1777344
		c-0.4248047-0.5175781-1.0058594-0.7768555-1.7426758-0.7768555c-0.737793,0-1.3188477,0.2592773-1.7431641,0.7768555
		c-0.4248047,0.5180664-0.637207,1.2392578-0.637207,2.1630859c0,0.9243164,0.2124023,1.6450195,0.637207,2.1630859
		c0.4243164,0.5180664,1.0053711,0.7768555,1.7431641,0.7768555c0.7368164,0,1.3178711-0.2587891,1.7426758-0.7768555
		s0.637207-1.2387695,0.637207-2.1630859C20.7421875,105.4169922,20.5297852,104.6958008,20.1049805,104.1777344z"/>
	<path fill="#70A0BB" d="M23.9619141,109.980957v-10.5h1.0922852v10.5H23.9619141z"/>
	<path fill="#70A0BB" d="M27.2939453,106.3408203c0-1.2226563,0.2612305-2.1582031,0.7841797-2.8066406
		c0.5224609-0.6489258,1.2412109-0.9731445,2.1557617-0.9731445c1.0546875,0,1.8388672,0.4433594,2.3520508,1.3300781h0.0283203
		V99.480957h1.0219727v10.5H32.65625l-0.0141602-1.2319336h-0.027832c-0.5136719,0.9145508-1.3071289,1.3720703-2.3803711,1.3720703
		c-0.8959961,0-1.6098633-0.3291016-2.1416016-0.9873047C27.5600586,108.4760742,27.2939453,107.5449219,27.2939453,106.3408203z
		 M28.3022461,106.3408203c0,0.9428711,0.1933594,1.668457,0.5810547,2.1772461
		c0.3867188,0.5087891,0.9121094,0.7626953,1.574707,0.7626953c0.6347656,0,1.152832-0.2470703,1.5541992-0.7416992
		c0.4008789-0.4946289,0.6020508-1.1948242,0.6020508-2.1000977v-0.1958008c0-0.8867188-0.2011719-1.5820313-0.6020508-2.0864258
		c-0.4013672-0.5039063-0.9194336-0.7558594-1.5541992-0.7558594c-0.6811523,0-1.2109375,0.2519531-1.5888672,0.7558594
		C28.4912109,104.6611328,28.3022461,105.3891602,28.3022461,106.3408203z"/>
</g>
</svg>
