<?xml version="1.0" encoding="utf-8"?>
<!-- Generator: Adobe Illustrator 16.0.3, SVG Export Plug-In . SVG Version: 6.00 Build 0)  -->
<!DOCTYPE svg PUBLIC "-//W3C//DTD SVG 1.1//EN" "http://www.w3.org/Graphics/SVG/1.1/DTD/svg11.dtd">
<svg version="1.1" id="レイヤー_1" xmlns="http://www.w3.org/2000/svg" xmlns:xlink="http://www.w3.org/1999/xlink" x="0px"
	 y="0px" width="650px" height="125px" viewBox="0 0 650 125" enable-background="new 0 0 650 125" xml:space="preserve">
<g>
	<path fill="#70A0BB" d="M112.8500977,13.0195313V5.7197266h0.8100586l2.5996094,4.3999023h0.0200195l2.590332-4.3999023h0.8398438
		v7.2998047h-0.7998047V7.0595703h-0.0200195l-2.25,3.7900391h-0.75l-2.25-3.7900391h-0.0200195v5.9599609H112.8500977z"/>
	<path fill="#70A0BB" d="M121.7099609,6.6196289V5.5195313h0.7802734v1.1000977H121.7099609z M121.7099609,13.0195313V7.8193359
		h0.7802734v5.2001953H121.7099609z"/>
	<path fill="#70A0BB" d="M124.090332,10.3193359c0-0.8261719,0.1831055-1.4663086,0.5498047-1.9199219
		c0.3666992-0.453125,0.8730469-0.6796875,1.5200195-0.6796875c0.7797852,0,1.3564453,0.3232422,1.7299805,0.9697266h0.0200195
		l0.0200195-0.8701172h0.7001953v4.7700195c0,1.8203125-0.8134766,2.7299805-2.4404297,2.7299805
		c-0.5595703,0-1.0966797-0.1064453-1.6098633-0.3198242l0.1601563-0.5898438
		c0.4731445,0.206543,0.956543,0.3100586,1.449707,0.3100586c0.5869141,0,1.0166016-0.1635742,1.2900391-0.4902344
		s0.4101563-0.8632813,0.4101563-1.6098633v-0.6401367h-0.0200195c-0.3598633,0.6269531-0.9301758,0.9399414-1.7099609,0.9399414
		c-0.6069336,0-1.1035156-0.2333984-1.4902344-0.699707C124.2832031,11.7529297,124.090332,11.1196289,124.090332,10.3193359z
		 M124.8100586,10.3193359c0,0.6137695,0.1401367,1.1000977,0.4199219,1.4599609
		c0.2802734,0.3603516,0.6464844,0.5400391,1.1000977,0.5400391c0.4599609,0,0.8364258-0.1728516,1.1298828-0.5200195
		c0.293457-0.3461914,0.4365234-0.8232422,0.4301758-1.4296875v-0.1000977c0-0.6064453-0.1464844-1.0834961-0.4399414-1.4301758
		c-0.293457-0.3461914-0.6669922-0.5200195-1.1201172-0.5200195c-0.4731445,0-0.8432617,0.1738281-1.1098633,0.5200195
		C124.9536133,9.1860352,124.8168945,9.6796875,124.8100586,10.3193359z"/>
	<path fill="#70A0BB" d="M130.7998047,7.8193359v3.2299805c0,0.5336914,0.0883789,0.9067383,0.2651367,1.1201172
		c0.1762695,0.2133789,0.4716797,0.3203125,0.8847656,0.3203125c0.3867188,0,0.7382813-0.1870117,1.0551758-0.5600586
		c0.3164063-0.3735352,0.4750977-0.8168945,0.4750977-1.3300781V7.8193359h0.7397461v5.2001953h-0.699707L133.5,12.0893555
		h-0.0200195c-0.2001953,0.3203125-0.4550781,0.5717773-0.7651367,0.7553711
		c-0.3100586,0.1831055-0.6416016,0.2749023-0.9951172,0.2749023c-0.5600586,0-0.9731445-0.1582031-1.2397461-0.4750977
		c-0.2666016-0.3164063-0.3999023-0.8251953-0.3999023-1.5249023v-3.300293H130.7998047z"/>
	<path fill="#70A0BB" d="M140.9897461,13.0195313V6.6796875h-0.0200195l-1.9702148,1.8198242l-0.3100586-0.6499023
		l2.300293-2.1298828h0.7998047v7.2998047H140.9897461z"/>
	<path fill="#70A0BB" d="M144.9194336,5.7792969c0.6933594-0.1064453,1.3701172-0.159668,2.0297852-0.159668
		c0.9067383,0,1.5932617,0.1933594,2.0600586,0.5800781s0.703125,0.9331055,0.7099609,1.6396484
		c0,0.7734375-0.2368164,1.3603516-0.7099609,1.7602539s-1.1601563,0.6000977-2.0600586,0.6000977
		c-0.4399414,0-0.8500977-0.0200195-1.2299805-0.0600586v2.8798828h-0.7998047V5.7792969z M145.7192383,9.4794922
		c0.3867188,0.0537109,0.7768555,0.0800781,1.1699219,0.0800781c0.6665039,0,1.1733398-0.1435547,1.5200195-0.4301758
		s0.5200195-0.6962891,0.5200195-1.2299805c0-0.5332031-0.1733398-0.9399414-0.5200195-1.2197266
		c-0.3466797-0.2802734-0.8535156-0.4165039-1.5200195-0.4101563c-0.3666992,0-0.7563477,0.0332031-1.1699219,0.1000977V9.4794922z"
		/>
	<path fill="#70A0BB" d="M155.9194336,6.2993164c-0.6601563,0-1.3203125,0.2299805-1.9799805,0.6904297l-0.2402344-0.6401367
		c0.6801758-0.4868164,1.453125-0.7299805,2.3198242-0.7299805c0.7133789,0,1.2666016,0.1796875,1.6601563,0.5400391
		c0.3935547,0.3598633,0.5898438,0.8696289,0.5898438,1.5297852c0,0.6533203-0.2363281,1.3134766-0.7099609,1.9799805
		c-0.4731445,0.6669922-1.3598633,1.5537109-2.659668,2.6601563v0.0200195h3.3999023v0.6699219h-4.5v-0.6699219
		c1.4199219-1.1801758,2.3833008-2.0966797,2.8901367-2.75c0.5063477-0.6533203,0.7597656-1.2700195,0.7597656-1.8500977
		c0-0.4731445-0.1298828-0.8334961-0.3901367-1.0800781C156.7993164,6.4228516,156.4194336,6.2993164,155.9194336,6.2993164z"/>
	<path fill="#70A0BB" d="M160.3291016,6.4897461c0.4599609-0.5800781,1.1064453-0.8701172,1.9399414-0.8701172
		c0.8330078,0,1.4799805,0.2900391,1.9399414,0.8701172c0.4599609,0.5795898,0.6899414,1.5395508,0.6899414,2.8798828
		c0,1.3398438-0.2299805,2.2998047-0.6899414,2.8798828s-1.1069336,0.8701172-1.9399414,0.8701172
		c-0.8334961,0-1.4799805-0.2900391-1.9399414-0.8701172s-0.6899414-1.5400391-0.6899414-2.8798828
		C159.6391602,8.0292969,159.8691406,7.0693359,160.3291016,6.4897461z M162.269043,12.4697266
		c0.6132813,0.0063477,1.0732422-0.2368164,1.3798828-0.7299805c0.3066406-0.4936523,0.456543-1.2836914,0.4501953-2.3701172
		c0.0063477-1.0864258-0.1435547-1.8764648-0.4501953-2.3701172c-0.3066406-0.4931641-0.7666016-0.7363281-1.3798828-0.7299805
		c-0.6137695-0.0063477-1.0737305,0.2368164-1.3798828,0.7299805c-0.3071289,0.4936523-0.4570313,1.2836914-0.4501953,2.3701172
		c-0.0068359,1.0864258,0.1430664,1.8764648,0.4501953,2.3701172
		C161.1953125,12.2329102,161.6552734,12.4760742,162.269043,12.4697266z"/>
	<path fill="#70A0BB" d="M168.4892578,13.0195313V6.6796875h-0.0200195l-1.9702148,1.8198242l-0.3100586-0.6499023
		l2.300293-2.1298828h0.7998047v7.2998047H168.4892578z"/>
	<path fill="#70A0BB" d="M176.6894531,6.3896484h-3.1601563l-0.1401367,2.3598633h0.0200195
		c0.3935547-0.2333984,0.8369141-0.3500977,1.3300781-0.3500977c0.7133789,0,1.2666016,0.1933594,1.6601563,0.5800781
		c0.3930664,0.3867188,0.5898438,0.9335938,0.5898438,1.6401367c0,0.8134766-0.2265625,1.4331055-0.6796875,1.8598633
		c-0.4536133,0.4267578-1.1235352,0.6401367-2.0102539,0.6401367c-0.6801758,0-1.3066406-0.1601563-1.8798828-0.4799805
		l0.199707-0.6601563c0.5600586,0.3134766,1.1201172,0.4702148,1.6801758,0.4702148
		c1.2602539,0,1.8901367-0.6103516,1.8901367-1.8300781c0-0.5200195-0.1367188-0.9135742-0.4101563-1.1801758
		s-0.6665039-0.3999023-1.1801758-0.3999023c-0.5263672,0-0.9633789,0.1533203-1.3095703,0.4599609h-0.7001953l0.2202148-3.7797852
		h3.8798828V6.3896484z"/>
	<path fill="#70A0BB" d="M178.9296875,6.4897461c0.4599609-0.5800781,1.1064453-0.8701172,1.9399414-0.8701172
		c0.8330078,0,1.4799805,0.2900391,1.9399414,0.8701172c0.4599609,0.5795898,0.6899414,1.5395508,0.6899414,2.8798828
		c0,1.3398438-0.2299805,2.2998047-0.6899414,2.8798828s-1.1069336,0.8701172-1.9399414,0.8701172
		c-0.8334961,0-1.4799805-0.2900391-1.9399414-0.8701172s-0.6899414-1.5400391-0.6899414-2.8798828
		C178.2397461,8.0292969,178.4697266,7.0693359,178.9296875,6.4897461z M180.8696289,12.4697266
		c0.6132813,0.0063477,1.0732422-0.2368164,1.3798828-0.7299805c0.3066406-0.4936523,0.456543-1.2836914,0.4501953-2.3701172
		c0.0063477-1.0864258-0.1435547-1.8764648-0.4501953-2.3701172c-0.3066406-0.4931641-0.7666016-0.7363281-1.3798828-0.7299805
		c-0.6137695-0.0063477-1.0737305,0.2368164-1.3798828,0.7299805c-0.3071289,0.4936523-0.4570313,1.2836914-0.4501953,2.3701172
		c-0.0068359,1.0864258,0.1430664,1.8764648,0.4501953,2.3701172
		C179.7958984,12.2329102,180.2558594,12.4760742,180.8696289,12.4697266z"/>
	<path fill="#70A0BB" d="M184.7495117,5.7197266h4.7001953v0.6699219c-1.1533203,1.8935547-2.1166992,4.1035156-2.8901367,6.6298828
		h-0.8398438c0.7666016-2.4130859,1.753418-4.6166992,2.9599609-6.6098633V6.3896484h-3.9301758V5.7197266z"/>
	<path fill="#70A0BB" d="M193.2900391,13.0195313V6.6796875h-0.0200195l-1.9702148,1.8198242l-0.3100586-0.6499023
		l2.300293-2.1298828h0.7998047v7.2998047H193.2900391z"/>
	<path fill="#70A0BB" d="M199.3203125,6.2993164c-0.6601563,0-1.3203125,0.2299805-1.9799805,0.6904297l-0.2402344-0.6401367
		c0.6801758-0.4868164,1.453125-0.7299805,2.3198242-0.7299805c0.7133789,0,1.2666016,0.1796875,1.6601563,0.5400391
		c0.3935547,0.3598633,0.5898438,0.8696289,0.5898438,1.5297852c0,0.6533203-0.2363281,1.3134766-0.7099609,1.9799805
		c-0.4731445,0.6669922-1.3598633,1.5537109-2.659668,2.6601563v0.0200195h3.3999023v0.6699219h-4.5v-0.6699219
		c1.4199219-1.1801758,2.3833008-2.0966797,2.8901367-2.75c0.5063477-0.6533203,0.7597656-1.2700195,0.7597656-1.8500977
		c0-0.4731445-0.1298828-0.8334961-0.3901367-1.0800781C200.2001953,6.4228516,199.8203125,6.2993164,199.3203125,6.2993164z"/>
</g>
<g>
	<path fill="#70A0BB" d="M281.5170898,13.0195313V5.7197266h0.8100586l2.5996094,4.3999023h0.0200195l2.590332-4.3999023h0.8398438
		v7.2998047h-0.7998047V7.0595703h-0.0200195l-2.25,3.7900391h-0.75l-2.25-3.7900391h-0.0200195v5.9599609H281.5170898z"/>
	<path fill="#70A0BB" d="M290.3769531,6.6196289V5.5195313h0.7802734v1.1000977H290.3769531z M290.3769531,13.0195313V7.8193359
		h0.7802734v5.2001953H290.3769531z"/>
	<path fill="#70A0BB" d="M292.7573242,10.3193359c0-0.8261719,0.1831055-1.4663086,0.5498047-1.9199219
		c0.3666992-0.453125,0.8730469-0.6796875,1.5200195-0.6796875c0.7797852,0,1.3564453,0.3232422,1.7299805,0.9697266h0.0200195
		l0.0200195-0.8701172h0.7001953v4.7700195c0,1.8203125-0.8134766,2.7299805-2.4404297,2.7299805
		c-0.5595703,0-1.0966797-0.1064453-1.6098633-0.3198242l0.1601563-0.5898438
		c0.4731445,0.206543,0.956543,0.3100586,1.449707,0.3100586c0.5869141,0,1.0166016-0.1635742,1.2900391-0.4902344
		s0.4101563-0.8632813,0.4101563-1.6098633v-0.6401367h-0.0200195c-0.3598633,0.6269531-0.9301758,0.9399414-1.7099609,0.9399414
		c-0.6069336,0-1.1035156-0.2333984-1.4902344-0.699707C292.9501953,11.7529297,292.7573242,11.1196289,292.7573242,10.3193359z
		 M293.4770508,10.3193359c0,0.6137695,0.1401367,1.1000977,0.4199219,1.4599609
		c0.2802734,0.3603516,0.6464844,0.5400391,1.1000977,0.5400391c0.4599609,0,0.8364258-0.1728516,1.1298828-0.5200195
		c0.293457-0.3461914,0.4365234-0.8232422,0.4301758-1.4296875v-0.1000977c0-0.6064453-0.1464844-1.0834961-0.4399414-1.4301758
		c-0.293457-0.3461914-0.6669922-0.5200195-1.1201172-0.5200195c-0.4731445,0-0.8432617,0.1738281-1.1098633,0.5200195
		C293.6206055,9.1860352,293.4838867,9.6796875,293.4770508,10.3193359z"/>
	<path fill="#70A0BB" d="M299.4667969,7.8193359v3.2299805c0,0.5336914,0.0883789,0.9067383,0.2651367,1.1201172
		c0.1762695,0.2133789,0.4716797,0.3203125,0.8847656,0.3203125c0.3867188,0,0.7382813-0.1870117,1.0551758-0.5600586
		c0.3164063-0.3735352,0.4750977-0.8168945,0.4750977-1.3300781V7.8193359h0.7397461v5.2001953h-0.699707l-0.0200195-0.9301758
		h-0.0200195c-0.2001953,0.3203125-0.4550781,0.5717773-0.7651367,0.7553711
		c-0.3100586,0.1831055-0.6416016,0.2749023-0.9951172,0.2749023c-0.5600586,0-0.9731445-0.1582031-1.2397461-0.4750977
		c-0.2666016-0.3164063-0.3999023-0.8251953-0.3999023-1.5249023v-3.300293H299.4667969z"/>
	<path fill="#70A0BB" d="M309.6567383,13.0195313V6.6796875h-0.0200195l-1.9702148,1.8198242l-0.3100586-0.6499023
		l2.300293-2.1298828h0.7998047v7.2998047H309.6567383z"/>
	<path fill="#70A0BB" d="M313.5864258,5.7792969c0.6933594-0.1064453,1.3701172-0.159668,2.0297852-0.159668
		c0.9067383,0,1.5932617,0.1933594,2.0600586,0.5800781s0.703125,0.9331055,0.7099609,1.6396484
		c0,0.7734375-0.2368164,1.3603516-0.7099609,1.7602539s-1.1601563,0.6000977-2.0600586,0.6000977
		c-0.4399414,0-0.8500977-0.0200195-1.2299805-0.0600586v2.8798828h-0.7998047V5.7792969z M314.3862305,9.4794922
		c0.3867188,0.0537109,0.7768555,0.0800781,1.1699219,0.0800781c0.6665039,0,1.1733398-0.1435547,1.5200195-0.4301758
		s0.5200195-0.6962891,0.5200195-1.2299805c0-0.5332031-0.1733398-0.9399414-0.5200195-1.2197266
		c-0.3466797-0.2802734-0.8535156-0.4165039-1.5200195-0.4101563c-0.3666992,0-0.7563477,0.0332031-1.1699219,0.1000977V9.4794922z"
		/>
	<path fill="#70A0BB" d="M324.5864258,6.2993164c-0.6601563,0-1.3203125,0.2299805-1.9799805,0.6904297l-0.2402344-0.6401367
		c0.6801758-0.4868164,1.453125-0.7299805,2.3198242-0.7299805c0.7133789,0,1.2666016,0.1796875,1.6601563,0.5400391
		c0.3935547,0.3598633,0.5898438,0.8696289,0.5898438,1.5297852c0,0.6533203-0.2363281,1.3134766-0.7099609,1.9799805
		c-0.4731445,0.6669922-1.3598633,1.5537109-2.659668,2.6601563v0.0200195h3.3999023v0.6699219h-4.5v-0.6699219
		c1.4199219-1.1801758,2.3833008-2.0966797,2.8901367-2.75c0.5063477-0.6533203,0.7597656-1.2700195,0.7597656-1.8500977
		c0-0.4731445-0.1298828-0.8334961-0.3901367-1.0800781C325.4663086,6.4228516,325.0864258,6.2993164,324.5864258,6.2993164z"/>
	<path fill="#70A0BB" d="M328.9960938,6.4897461c0.4599609-0.5800781,1.1064453-0.8701172,1.9399414-0.8701172
		c0.8330078,0,1.4799805,0.2900391,1.9399414,0.8701172c0.4599609,0.5795898,0.6899414,1.5395508,0.6899414,2.8798828
		c0,1.3398438-0.2299805,2.2998047-0.6899414,2.8798828s-1.1069336,0.8701172-1.9399414,0.8701172
		c-0.8334961,0-1.4799805-0.2900391-1.9399414-0.8701172s-0.6899414-1.5400391-0.6899414-2.8798828
		C328.3061523,8.0292969,328.5361328,7.0693359,328.9960938,6.4897461z M330.9360352,12.4697266
		c0.6132813,0.0063477,1.0732422-0.2368164,1.3798828-0.7299805c0.3066406-0.4936523,0.456543-1.2836914,0.4501953-2.3701172
		c0.0063477-1.0864258-0.1435547-1.8764648-0.4501953-2.3701172c-0.3066406-0.4931641-0.7666016-0.7363281-1.3798828-0.7299805
		c-0.6137695-0.0063477-1.0737305,0.2368164-1.3798828,0.7299805c-0.3071289,0.4936523-0.4570313,1.2836914-0.4501953,2.3701172
		c-0.0068359,1.0864258,0.1430664,1.8764648,0.4501953,2.3701172
		C329.8623047,12.2329102,330.3222656,12.4760742,330.9360352,12.4697266z"/>
	<path fill="#70A0BB" d="M337.15625,13.0195313V6.6796875h-0.0200195l-1.9702148,1.8198242l-0.3100586-0.6499023l2.300293-2.1298828
		h0.7998047v7.2998047H337.15625z"/>
	<path fill="#70A0BB" d="M341.0864258,5.7197266h4.3798828v0.6699219l-2.3901367,2.3500977v0.0200195h0.300293
		c0.706543,0,1.246582,0.1699219,1.6196289,0.5097656c0.3735352,0.3398438,0.5634766,0.8334961,0.5703125,1.4799805
		c0.0063477,0.753418-0.2167969,1.3369141-0.6699219,1.75c-0.4536133,0.4135742-1.0966797,0.6201172-1.9301758,0.6201172
		c-0.7202148,0-1.3535156-0.1733398-1.8999023-0.5200195l0.2397461-0.6499023c0.5600586,0.3334961,1.1132813,0.5,1.6601563,0.5
		c0.5864258,0,1.0332031-0.1435547,1.3398438-0.4301758s0.4599609-0.7099609,0.4599609-1.2700195
		c0.0068359-0.4731445-0.1499023-0.8232422-0.4697266-1.0498047s-0.8266602-0.3432617-1.5200195-0.3500977h-0.7299805V8.7294922
		l2.3901367-2.3198242V6.3896484h-3.3500977V5.7197266z"/>
	<path fill="#70A0BB" d="M347.5966797,6.4897461c0.4599609-0.5800781,1.1064453-0.8701172,1.9399414-0.8701172
		c0.8330078,0,1.4799805,0.2900391,1.9399414,0.8701172c0.4599609,0.5795898,0.6899414,1.5395508,0.6899414,2.8798828
		c0,1.3398438-0.2299805,2.2998047-0.6899414,2.8798828s-1.1069336,0.8701172-1.9399414,0.8701172
		c-0.8334961,0-1.4799805-0.2900391-1.9399414-0.8701172s-0.6899414-1.5400391-0.6899414-2.8798828
		C346.9067383,8.0292969,347.1367188,7.0693359,347.5966797,6.4897461z M349.5366211,12.4697266
		c0.6132813,0.0063477,1.0732422-0.2368164,1.3798828-0.7299805c0.3066406-0.4936523,0.456543-1.2836914,0.4501953-2.3701172
		c0.0063477-1.0864258-0.1435547-1.8764648-0.4501953-2.3701172c-0.3066406-0.4931641-0.7666016-0.7363281-1.3798828-0.7299805
		c-0.6137695-0.0063477-1.0737305,0.2368164-1.3798828,0.7299805c-0.3071289,0.4936523-0.4570313,1.2836914-0.4501953,2.3701172
		c-0.0068359,1.0864258,0.1430664,1.8764648,0.4501953,2.3701172
		C348.4628906,12.2329102,348.9228516,12.4760742,349.5366211,12.4697266z"/>
	<path fill="#70A0BB" d="M355.7666016,13.1196289c-0.8066406,0-1.4365234-0.2431641-1.8896484-0.7299805
		c-0.4536133-0.4868164-0.6835938-1.1865234-0.6904297-2.1000977c0.0068359-1.3535156,0.3369141-2.4433594,0.9902344-3.2700195
		s1.5566406-1.293457,2.7099609-1.3999023l0.1401367,0.6699219c-1.5336914,0.1733398-2.5068359,1.0366211-2.9199219,2.5898438
		l0.0097656,0.0102539c0.4599609-0.5131836,1.0664063-0.7700195,1.8198242-0.7700195
		c0.7333984,0,1.3203125,0.2133789,1.7602539,0.6401367c0.4399414,0.4262695,0.6601563,1.0131836,0.6601563,1.7597656
		c0,0.7998047-0.2368164,1.4335938-0.7104492,1.8999023C357.1733398,12.8862305,356.546875,13.1196289,355.7666016,13.1196289z
		 M355.7666016,8.7397461c-0.5131836,0-0.9365234,0.1665039-1.2700195,0.5c-0.3334961,0.3330078-0.5,0.7597656-0.5,1.2797852
		c0,0.6201172,0.1567383,1.0966797,0.4702148,1.4301758c0.3129883,0.3334961,0.746582,0.5,1.2998047,0.5
		c0.5668945,0,1.0068359-0.1665039,1.3203125-0.5c0.3129883-0.3334961,0.4697266-0.8100586,0.4697266-1.4301758
		c0-0.5463867-0.1601563-0.9799805-0.4799805-1.2998047C356.7568359,8.8994141,356.3198242,8.7397461,355.7666016,8.7397461z"/>
	<path fill="#70A0BB" d="M361.9570313,13.0195313V6.6796875h-0.0200195l-1.9702148,1.8198242l-0.3100586-0.6499023
		l2.300293-2.1298828h0.7998047v7.2998047H361.9570313z"/>
	<path fill="#70A0BB" d="M365.8168945,5.7197266h4.7001953v0.6699219c-1.1533203,1.8935547-2.1166992,4.1035156-2.8901367,6.6298828
		h-0.8398438c0.7666016-2.4130859,1.753418-4.6166992,2.9599609-6.6098633V6.3896484h-3.9301758V5.7197266z"/>
</g>
<g>
	<path fill="#7D7D7E" d="M120.2797852,35.1914063c-1.6918945,1.5839844-4.0136719,3.012207-6.9658203,4.2841797
		l-0.5761719-1.1879883c3.0483398-1.2602539,5.3579102-2.6103516,6.9301758-4.050293h-3.7978516h-1.3500977v-6.7319336h5.7597656
		V26.28125h-7.3256836v-1.1337891h7.3256836v-1.6020508h1.4404297v1.6020508h7.3256836V26.28125h-7.3256836v1.2241211h5.7597656
		v6.7319336h-5.1479492c1.5839844,1.4521484,3.894043,2.8022461,6.9301758,4.050293l-0.5761719,1.1879883
		c-2.9643555-1.2719727-5.2861328-2.7001953-6.9658203-4.2841797v4.6259766h-1.4404297V35.1914063z M115.8701172,30.2954102
		h4.409668v-1.7099609h-4.409668V30.2954102z M120.2797852,33.1572266v-1.8359375h-4.409668v1.8359375H120.2797852z
		 M126.1298828,30.2954102v-1.7099609h-4.409668v1.7099609H126.1298828z M121.7202148,33.1572266h4.409668v-1.8359375h-4.409668
		V33.1572266z"/>
	<path fill="#7D7D7E" d="M131.0800781,32.1494141c1.1879883-1.644043,2.7177734-2.4716797,4.5898438-2.4838867
		c1.3798828,0.012207,2.6396484,0.5341797,3.7802734,1.565918c0.9594727,0.8642578,1.9194336,1.2958984,2.8798828,1.2958984
		c1.1279297,0,2.1118164-0.4438477,2.9521484-1.3320313c0.1914063-0.2158203,0.3837891-0.4438477,0.5756836-0.684082
		l1.0620117,0.8823242c-1.1879883,1.644043-2.7177734,2.472168-4.5898438,2.4838867
		c-1.3803711-0.0117188-2.6401367-0.5336914-3.7802734-1.565918c-0.9599609-0.8642578-1.9199219-1.2958984-2.8798828-1.2958984
		c-1.0917969,0-2.0458984,0.4140625-2.8618164,1.2416992c-0.2280273,0.2402344-0.4560547,0.5039063-0.684082,0.7919922
		L131.0800781,32.1494141z"/>
	<path fill="#7D7D7E" d="M153.6699219,23.7255859h1.4042969v16.0917969h-1.4042969v-4.1040039
		c-1.5961914,0.6479492-3.0839844,1.1518555-4.4638672,1.512207l-0.3422852-1.2421875
		c1.5961914-0.4199219,3.1982422-0.9541016,4.8061523-1.6020508v-5.4897461h-4.5537109v-1.2241211h4.5537109V23.7255859z
		 M161.355957,38.2514648c0.4799805,0,0.894043-0.0239258,1.2421875-0.0717773
		c0.515625-0.0600586,0.8217773-0.2880859,0.9179688-0.684082c0.0957031-0.3959961,0.1918945-1.7460938,0.2880859-4.050293
		l1.2958984,0.1259766c-0.0961914,2.5683594-0.2338867,4.1464844-0.4140625,4.734375
		c-0.168457,0.5039063-0.4682617,0.8276367-0.8999023,0.9716797c-0.1923828,0.0478516-0.4682617,0.0961914-0.828125,0.144043
		c-0.5878906,0.0600586-1.1337891,0.0898438-1.6381836,0.0898438c-0.4316406,0-0.9780273-0.0239258-1.6376953-0.0717773
		c-0.7202148-0.0600586-1.1699219-0.1860352-1.3500977-0.3779297c-0.1918945-0.2041016-0.2944336-0.75-0.3061523-1.6381836
		c0-0.1318359,0-0.2939453,0-0.4858398V23.7255859h1.4399414v6.0839844c1.5-0.9121094,3.065918-2.2080078,4.6982422-3.8881836
		l0.8999023,0.9541016c-1.8959961,1.9438477-3.762207,3.4140625-5.5981445,4.4101563v5.4716797
		c0,0.7441406,0.0419922,1.1640625,0.1259766,1.2602539c0.0722656,0.0839844,0.2402344,0.1381836,0.5043945,0.1621094
		C160.4438477,38.2275391,160.8637695,38.2514648,161.355957,38.2514648z"/>
	<path fill="#7D7D7E" d="M185.7099609,35.0292969l-1.0258789-0.9360352c1.355957-1.5595703,2.4536133-2.8554688,3.2939453-3.8876953
		c1.0317383-1.2602539,1.7158203-2.0219727,2.0517578-2.2861328c0.3720703-0.2758789,0.8222656-0.4140625,1.3500977-0.4140625
		s0.9960938,0.144043,1.4042969,0.4321289c0.371582,0.2641602,1.1699219,0.9780273,2.394043,2.1420898
		c2.1474609,2.0517578,4.1875,3.9238281,6.1196289,5.6157227l-0.9360352,1.0800781
		c-2.0878906-1.8359375-4.265625-3.8398438-6.5336914-6.0117188c-1.0322266-0.9960938-1.6743164-1.5600586-1.9262695-1.6923828
		c-0.1796875-0.0834961-0.3662109-0.1259766-0.5576172-0.1259766c-0.3125,0-0.6245117,0.1621094-0.9360352,0.4863281
		c-0.2285156,0.2402344-0.6484375,0.7319336-1.2602539,1.4755859
		C187.7919922,32.5878906,186.6459961,33.9614258,185.7099609,35.0292969z"/>
	<path fill="#7D7D7E" d="M205.0058594,28.2973633h11.1782227v1.3320313l-4.4638672,3.671875l0.0175781,0.0180664
		c0.1201172-0.0239258,0.2163086-0.0356445,0.2880859-0.0356445c0.4799805,0,0.8579102,0.2397461,1.1342773,0.7197266
		c0.1918945,0.3720703,0.3896484,0.9360352,0.59375,1.6918945c0.2280273,0.9003906,0.5039063,1.4521484,0.828125,1.65625
		c0.2397461,0.144043,0.6479492,0.2158203,1.2241211,0.2158203c0.7797852,0,1.5478516-0.1079102,2.3037109-0.3237305
		l0.234375,1.1879883c-0.8764648,0.2397461-1.7641602,0.3598633-2.6640625,0.3598633
		c-1.1401367,0-1.9321289-0.2519531-2.3759766-0.7558594c-0.300293-0.3481445-0.5463867-0.8881836-0.7382813-1.6201172
		c-0.2998047-1.1879883-0.6601563-1.8657227-1.0800781-2.0341797c-0.1079102-0.0478516-0.2280273-0.0717773-0.3598633-0.0717773
		c-0.300293,0-0.6240234,0.1079102-0.972168,0.3237305c-0.5878906,0.3842773-2.4296875,1.8183594-5.5258789,4.3022461
		l-0.7919922-1.0083008l10.421875-8.4057617l-0.0175781-0.0361328h-9.234375V28.2973633z M206.8959961,25.5253906
		l0.1621094-1.1879883c2.7119141,0.4321289,5.3637695,0.6479492,7.9560547,0.6479492v1.2421875
		C212.6381836,26.2275391,209.9316406,25.9936523,206.8959961,25.5253906z"/>
	<path fill="#7D7D7E" d="M221.0800781,32.1494141c1.1879883-1.644043,2.7177734-2.4716797,4.5898438-2.4838867
		c1.3798828,0.012207,2.6396484,0.5341797,3.7802734,1.565918c0.9594727,0.8642578,1.9194336,1.2958984,2.8798828,1.2958984
		c1.1279297,0,2.1118164-0.4438477,2.9521484-1.3320313c0.1914063-0.2158203,0.3837891-0.4438477,0.5756836-0.684082
		l1.0620117,0.8823242c-1.1879883,1.644043-2.7177734,2.472168-4.5898438,2.4838867
		c-1.3803711-0.0117188-2.6401367-0.5336914-3.7802734-1.565918c-0.9599609-0.8642578-1.9199219-1.2958984-2.8798828-1.2958984
		c-1.0917969,0-2.0458984,0.4140625-2.8618164,1.2416992c-0.2280273,0.2402344-0.4560547,0.5039063-0.684082,0.7919922
		L221.0800781,32.1494141z"/>
	<path fill="#7D7D7E" d="M120.2797852,59.1914063c-1.6918945,1.5839844-4.0136719,3.012207-6.9658203,4.2841797
		l-0.5761719-1.1879883c3.0483398-1.2602539,5.3579102-2.6103516,6.9301758-4.050293h-3.7978516h-1.3500977v-6.7319336h5.7597656
		V50.28125h-7.3256836v-1.1337891h7.3256836v-1.6020508h1.4404297v1.6020508h7.3256836V50.28125h-7.3256836v1.2241211h5.7597656
		v6.7319336h-5.1479492c1.5839844,1.4521484,3.894043,2.8022461,6.9301758,4.050293l-0.5761719,1.1879883
		c-2.9643555-1.2719727-5.2861328-2.7001953-6.9658203-4.2841797v4.6259766h-1.4404297V59.1914063z M115.8701172,54.2954102
		h4.409668v-1.7099609h-4.409668V54.2954102z M120.2797852,57.1572266v-1.8359375h-4.409668v1.8359375H120.2797852z
		 M126.1298828,54.2954102v-1.7099609h-4.409668v1.7099609H126.1298828z M121.7202148,57.1572266h4.409668v-1.8359375h-4.409668
		V57.1572266z"/>
	<path fill="#7D7D7E" d="M130.972168,56.2216797c0.9116211-1.5722656,1.9980469-2.5859375,3.2578125-3.0419922
		c0.4199219-0.15625,0.8398438-0.234375,1.2602539-0.234375c1.1157227,0,2.1357422,0.5942383,3.0595703,1.7822266
		c0.1201172,0.15625,0.5581055,0.7919922,1.3139648,1.9077148c0.6723633,1.0083008,1.2783203,1.6323242,1.8183594,1.8720703
		c0.2636719,0.1201172,0.5336914,0.1801758,0.8100586,0.1801758c0.9477539,0,1.8837891-0.6958008,2.8076172-2.0878906
		c0.0478516-0.0600586,0.1083984-0.144043,0.1801758-0.2519531c0.0717773-0.1201172,0.1259766-0.2041016,0.1621094-0.2519531
		l1.0439453,0.7016602c-1.2719727,2.0878906-2.6704102,3.1381836-4.1938477,3.1499023
		c-1.0683594,0-2.0644531-0.5874023-2.9882813-1.7636719c-0.1079102-0.1318359-0.5517578-0.7739258-1.3320313-1.9262695
		c-0.684082-1.0078125-1.3022461-1.6435547-1.8540039-1.9077148c-0.2758789-0.1201172-0.5581055-0.1801758-0.8457031-0.1801758
		c-0.9360352,0-1.8603516,0.5761719-2.7719727,1.7280273c-0.2641602,0.3242188-0.4921875,0.6601563-0.684082,1.0078125
		L130.972168,56.2216797z"/>
	<path fill="#7D7D7E" d="M153.6699219,47.7255859h1.4042969v16.0917969h-1.4042969v-4.1040039
		c-1.5961914,0.6479492-3.0839844,1.1518555-4.4638672,1.512207l-0.3422852-1.2421875
		c1.5961914-0.4199219,3.1982422-0.9541016,4.8061523-1.6020508v-5.4897461h-4.5537109v-1.2241211h4.5537109V47.7255859z
		 M161.355957,62.2514648c0.4799805,0,0.894043-0.0239258,1.2421875-0.0717773
		c0.515625-0.0600586,0.8217773-0.2880859,0.9179688-0.684082c0.0957031-0.3959961,0.1918945-1.7460938,0.2880859-4.050293
		l1.2958984,0.1259766c-0.0961914,2.5683594-0.2338867,4.1464844-0.4140625,4.734375
		c-0.168457,0.5039063-0.4682617,0.8276367-0.8999023,0.9716797c-0.1923828,0.0478516-0.4682617,0.0961914-0.828125,0.144043
		c-0.5878906,0.0600586-1.1337891,0.0898438-1.6381836,0.0898438c-0.4316406,0-0.9780273-0.0239258-1.6376953-0.0717773
		c-0.7202148-0.0600586-1.1699219-0.1860352-1.3500977-0.3779297c-0.1918945-0.2041016-0.2944336-0.75-0.3061523-1.6381836
		c0-0.1318359,0-0.2939453,0-0.4858398V47.7255859h1.4399414v6.0839844c1.5-0.9121094,3.065918-2.2080078,4.6982422-3.8881836
		l0.8999023,0.9541016c-1.8959961,1.9438477-3.762207,3.4140625-5.5981445,4.4101563v5.4716797
		c0,0.7441406,0.0419922,1.1640625,0.1259766,1.2602539c0.0722656,0.0839844,0.2402344,0.1381836,0.5043945,0.1621094
		C160.4438477,62.2275391,160.8637695,62.2514648,161.355957,62.2514648z"/>
	<path fill="#7D7D7E" d="M185.7099609,59.0292969l-1.0258789-0.9360352c1.355957-1.5595703,2.4536133-2.8554688,3.2939453-3.8876953
		c1.0317383-1.2602539,1.7158203-2.0219727,2.0517578-2.2861328c0.3720703-0.2758789,0.8222656-0.4140625,1.3500977-0.4140625
		s0.9960938,0.144043,1.4042969,0.4321289c0.371582,0.2641602,1.1699219,0.9780273,2.394043,2.1420898
		c2.1474609,2.0517578,4.1875,3.9238281,6.1196289,5.6157227l-0.9360352,1.0800781
		c-2.0878906-1.8359375-4.265625-3.8398438-6.5336914-6.0117188c-1.0322266-0.9960938-1.6743164-1.5600586-1.9262695-1.6923828
		c-0.1796875-0.0834961-0.3662109-0.1259766-0.5576172-0.1259766c-0.3125,0-0.6245117,0.1621094-0.9360352,0.4863281
		c-0.2285156,0.2402344-0.6484375,0.7319336-1.2602539,1.4755859
		C187.7919922,56.5878906,186.6459961,57.9614258,185.7099609,59.0292969z"/>
	<path fill="#7D7D7E" d="M205.0058594,52.2973633h11.1782227v1.3320313l-4.4638672,3.671875l0.0175781,0.0180664
		c0.1201172-0.0239258,0.2163086-0.0356445,0.2880859-0.0356445c0.4799805,0,0.8579102,0.2397461,1.1342773,0.7197266
		c0.1918945,0.3720703,0.3896484,0.9360352,0.59375,1.6918945c0.2280273,0.9003906,0.5039063,1.4521484,0.828125,1.65625
		c0.2397461,0.144043,0.6479492,0.2158203,1.2241211,0.2158203c0.7797852,0,1.5478516-0.1079102,2.3037109-0.3237305
		l0.234375,1.1879883c-0.8764648,0.2397461-1.7641602,0.3598633-2.6640625,0.3598633
		c-1.1401367,0-1.9321289-0.2519531-2.3759766-0.7558594c-0.300293-0.3481445-0.5463867-0.8881836-0.7382813-1.6201172
		c-0.2998047-1.1879883-0.6601563-1.8657227-1.0800781-2.0341797c-0.1079102-0.0478516-0.2280273-0.0717773-0.3598633-0.0717773
		c-0.300293,0-0.6240234,0.1079102-0.972168,0.3237305c-0.5878906,0.3842773-2.4296875,1.8183594-5.5258789,4.3022461
		l-0.7919922-1.0083008l10.421875-8.4057617l-0.0175781-0.0361328h-9.234375V52.2973633z M206.8959961,49.5253906
		l0.1621094-1.1879883c2.7119141,0.4321289,5.3637695,0.6479492,7.9560547,0.6479492v1.2421875
		C212.6381836,50.2275391,209.9316406,49.9936523,206.8959961,49.5253906z"/>
	<path fill="#7D7D7E" d="M220.972168,56.2216797c0.9116211-1.5722656,1.9980469-2.5859375,3.2578125-3.0419922
		c0.4199219-0.15625,0.8398438-0.234375,1.2602539-0.234375c1.1157227,0,2.1357422,0.5942383,3.0595703,1.7822266
		c0.1201172,0.15625,0.5581055,0.7919922,1.3139648,1.9077148c0.6723633,1.0083008,1.2783203,1.6323242,1.8183594,1.8720703
		c0.2636719,0.1201172,0.5336914,0.1801758,0.8100586,0.1801758c0.9477539,0,1.8837891-0.6958008,2.8076172-2.0878906
		c0.0478516-0.0600586,0.1083984-0.144043,0.1801758-0.2519531c0.0717773-0.1201172,0.1259766-0.2041016,0.1621094-0.2519531
		l1.0439453,0.7016602c-1.2719727,2.0878906-2.6704102,3.1381836-4.1938477,3.1499023
		c-1.0683594,0-2.0644531-0.5874023-2.9882813-1.7636719c-0.1079102-0.1318359-0.5517578-0.7739258-1.3320313-1.9262695
		c-0.684082-1.0078125-1.3022461-1.6435547-1.8540039-1.9077148c-0.2758789-0.1201172-0.5581055-0.1801758-0.8457031-0.1801758
		c-0.9360352,0-1.8603516,0.5761719-2.7719727,1.7280273c-0.2641602,0.3242188-0.4921875,0.6601563-0.684082,1.0078125
		L220.972168,56.2216797z"/>
</g>
<g>
	<path fill="#7D7D7E" d="M119.7758789,89.1455078c-1.6557617,1.3203125-3.7797852,2.5078125-6.3720703,3.5639648
		l-0.9536133-1.9980469c2.6035156-0.9360352,4.7275391-1.9980469,6.371582-3.1860352h-2.4116211h-2.25v-6.9477539h5.6157227
		v-0.9003906h-6.9296875v-1.871582h6.9296875V76.4375h2.4482422v1.3681641h6.9296875v1.871582h-6.9296875v0.9003906h5.6157227
		v6.9477539h-4.6616211c1.6557617,1.2001953,3.7797852,2.262207,6.371582,3.1860352l-0.9536133,1.9980469
		c-2.6044922-1.0683594-4.7285156-2.2558594-6.3720703-3.5639648v3.7797852h-2.4482422V89.1455078z M116.4101563,83.2954102
		h3.3657227v-1.0439453h-3.3657227V83.2954102z M119.7758789,85.9052734v-1.0976563h-3.3657227v1.0976563H119.7758789z
		 M125.5898438,83.2954102v-1.0439453h-3.3657227v1.0439453H125.5898438z M122.2241211,85.9052734h3.3657227v-1.0976563h-3.3657227
		V85.9052734z"/>
	<path fill="#7D7D7E" d="M130.7558594,85.0053711c1.2719727-1.7998047,2.9399414-2.7060547,5.0039063-2.7177734
		c1.4282227,0.0117188,2.7602539,0.527832,3.9960938,1.5478516c0.8642578,0.7202148,1.6923828,1.0800781,2.484375,1.0800781
		c0.8515625,0,1.6313477-0.3359375,2.3398438-1.0083008c0.2758789-0.2636719,0.5639648-0.581543,0.8637695-0.9536133
		l1.800293,1.5839844c-1.2724609,1.7998047-2.9404297,2.7060547-5.0039063,2.7177734
		c-1.4282227-0.0117188-2.7602539-0.527832-3.9960938-1.5478516c-0.8642578-0.7202148-1.6923828-1.0800781-2.484375-1.0800781
		c-0.8637695,0-1.6557617,0.3417969-2.3759766,1.0258789c-0.2758789,0.2641602-0.5639648,0.5825195-0.8637695,0.9541016
		L130.7558594,85.0053711z"/>
	<path fill="#7D7D7E" d="M153.1118164,76.6176758h2.394043V92.925293h-2.394043v-3.6357422
		c-1.4160156,0.5639648-2.6938477,1.0078125-3.8339844,1.3320313l-0.5576172-2.105957
		c1.4038086-0.3842773,2.8676758-0.8701172,4.3916016-1.4580078v-4.6621094h-4.1396484v-2.0341797h4.1396484V76.6176758z
		 M161.3920898,90.5854492c0.2880859,0,0.5820313-0.0180664,0.8818359-0.0541992
		c0.2397461-0.0239258,0.3959961-0.1137695,0.4682617-0.2700195c0.1318359-0.2758789,0.2216797-1.4995117,0.2700195-3.671875
		c0.0117188-0.1796875,0.0175781-0.3837891,0.0175781-0.6118164l2.1601563,0.2338867
		c-0.0839844,2.8081055-0.2402344,4.5483398-0.4677734,5.2202148c-0.1801758,0.5400391-0.4980469,0.8818359-0.9541016,1.0258789
		c-0.1923828,0.0600586-0.4624023,0.1079102-0.8100586,0.144043c-0.6118164,0.0595703-1.1582031,0.0898438-1.6381836,0.0898438
		c-0.6000977,0-1.1401367-0.0180664-1.6196289-0.0537109c-0.8881836-0.0605469-1.4462891-0.1923828-1.6743164-0.3959961
		c-0.2758789-0.2285156-0.4257813-0.7919922-0.449707-1.6923828c0-0.1918945,0-0.4199219,0-0.684082V76.6176758h2.4658203v5.2197266
		c1.1640625-0.7675781,2.4360352-1.8417969,3.815918-3.222168l1.512207,1.6020508
		c-1.8120117,1.7885742-3.5883789,3.1801758-5.328125,4.1762695v5.184082c0,0.5161133,0.0419922,0.8037109,0.1259766,0.8637695
		c0.0600586,0.0361328,0.1679688,0.065918,0.3242188,0.0898438
		C160.7680664,90.5673828,161.0678711,90.5854492,161.3920898,90.5854492z"/>
	<path fill="#7D7D7E" d="M186.1958008,88.4794922l-1.7636719-1.65625c1.1757813-1.3676758,2.1420898-2.5317383,2.8979492-3.4916992
		c1.1396484-1.4399414,1.9199219-2.3222656,2.3398438-2.6459961c0.4921875-0.2998047,1.0620117-0.4560547,1.7099609-0.4682617
		c0.6123047,0,1.1162109,0.1201172,1.512207,0.3603516c0.4794922,0.2758789,1.5117188,1.1699219,3.0957031,2.6816406
		l0.0180664,0.0180664l0.0180664,0.0180664l0.0180664,0.0180664l0.0180664,0.0180664l0.0180664,0.0180664l0.0180664,0.0180664
		l0.0356445,0.0356445c1.9799805,1.8964844,3.7919922,3.5761719,5.4360352,5.0400391l-1.6557617,1.8901367
		c-2.0878906-1.8720703-4.1640625-3.8100586-6.2280273-5.8139648c-1.0683594-1.0317383-1.734375-1.6020508-1.9980469-1.7099609
		c-0.1079102-0.0478516-0.2280273-0.0722656-0.3598633-0.0722656c-0.2880859,0-0.5825195,0.15625-0.8823242,0.4682617
		c-0.2158203,0.2519531-0.5698242,0.6899414-1.0620117,1.3139648
		C188.3139648,85.9116211,187.2519531,87.2314453,186.1958008,88.4794922z"/>
	<path fill="#7D7D7E" d="M204.934082,81.2255859h11.6279297v2.3579102l-3.7978516,2.8261719l0.0180664,0.0356445h0.0537109
		c0.4560547,0,0.8217773,0.3603516,1.0981445,1.0800781c0.0834961,0.2402344,0.1679688,0.5161133,0.2519531,0.828125
		c0.1801758,0.7319336,0.4018555,1.1762695,0.6660156,1.3320313c0.2036133,0.1201172,0.5581055,0.1796875,1.0620117,0.1796875
		c0.7558594,0,1.4697266-0.0957031,2.1420898-0.2875977l0.3959961,2.0336914
		c-0.9360352,0.2402344-1.8603516,0.3603516-2.7719727,0.3603516c-1.4643555,0-2.4604492-0.3364258-2.9882813-1.0083008
		c-0.2402344-0.3237305-0.4257813-0.7436523-0.5581055-1.2597656c-0.2636719-1.0200195-0.5639648-1.578125-0.8999023-1.6743164
		c-0.0600586-0.0117188-0.1201172-0.0180664-0.1796875-0.0180664c-0.2163086,0-0.5283203,0.1323242-0.9360352,0.3959961
		c-0.5283203,0.3486328-2.25,1.590332-5.1660156,3.7260742l-1.3139648-1.7636719l9.6660156-7.0742188l-0.0180664-0.0180664
		h-8.3520508V81.2255859z M206.6079102,79.1376953l0.2700195-2.0522461
		c2.9638672,0.4082031,5.7602539,0.6118164,8.3881836,0.6118164v2.0883789
		C212.6259766,79.7856445,209.7402344,79.5693359,206.6079102,79.1376953z"/>
	<path fill="#7D7D7E" d="M220.7558594,85.0053711c1.2719727-1.7998047,2.9399414-2.7060547,5.0039063-2.7177734
		c1.4282227,0.0117188,2.7602539,0.527832,3.9960938,1.5478516c0.8642578,0.7202148,1.6923828,1.0800781,2.484375,1.0800781
		c0.8515625,0,1.6313477-0.3359375,2.3398438-1.0083008c0.2758789-0.2636719,0.5639648-0.581543,0.8637695-0.9536133
		l1.800293,1.5839844c-1.2724609,1.7998047-2.9404297,2.7060547-5.0039063,2.7177734
		c-1.4282227-0.0117188-2.7602539-0.527832-3.9960938-1.5478516c-0.8642578-0.7202148-1.6923828-1.0800781-2.484375-1.0800781
		c-0.8637695,0-1.6557617,0.3417969-2.3759766,1.0258789c-0.2758789,0.2641602-0.5639648,0.5825195-0.8637695,0.9541016
		L220.7558594,85.0053711z"/>
	<path fill="#7D7D7E" d="M119.7758789,113.1455078c-1.6557617,1.3203125-3.7797852,2.5078125-6.3720703,3.5639648
		l-0.9536133-1.9980469c2.6035156-0.9360352,4.7275391-1.9980469,6.371582-3.1860352h-2.4116211h-2.25v-6.9477539h5.6157227
		v-0.9003906h-6.9296875v-1.871582h6.9296875V100.4375h2.4482422v1.3681641h6.9296875v1.871582h-6.9296875v0.9003906h5.6157227
		v6.9477539h-4.6616211c1.6557617,1.2001953,3.7797852,2.262207,6.371582,3.1860352l-0.9536133,1.9980469
		c-2.6044922-1.0683594-4.7285156-2.2558594-6.3720703-3.5639648v3.7797852h-2.4482422V113.1455078z M116.4101563,107.2954102
		h3.3657227v-1.0439453h-3.3657227V107.2954102z M119.7758789,109.9052734v-1.0976563h-3.3657227v1.0976563H119.7758789z
		 M125.5898438,107.2954102v-1.0439453h-3.3657227v1.0439453H125.5898438z M122.2241211,109.9052734h3.3657227v-1.0976563
		h-3.3657227V109.9052734z"/>
	<path fill="#7D7D7E" d="M130.684082,109.0053711c1.2480469-1.9916992,2.6879883-3.0839844,4.3198242-3.2758789
		c0.1679688-0.0239258,0.3300781-0.0361328,0.4863281-0.0361328c1.2958984,0,2.4355469,0.6420898,3.4199219,1.9262695
		c0.144043,0.1796875,0.581543,0.8398438,1.3139648,1.9799805c0.5996094,0.9360352,1.1455078,1.5117188,1.6376953,1.7280273
		c0.2041016,0.0839844,0.4140625,0.1259766,0.6303711,0.1259766c0.7797852,0,1.5415039-0.5517578,2.2856445-1.65625
		c0.0600586-0.0957031,0.144043-0.2275391,0.2519531-0.3959961c0.0961914-0.144043,0.1621094-0.2456055,0.1982422-0.3056641
		l1.8178711,1.2958984c-1.3081055,2.0639648-2.7299805,3.1499023-4.2661133,3.2578125
		c-0.0961914,0.012207-0.1918945,0.0180664-0.2875977,0.0180664c-1.2241211,0-2.3344727-0.6357422-3.3300781-1.9082031
		c-0.144043-0.1796875-0.5942383-0.8398438-1.3500977-1.9799805c-0.6362305-0.9599609-1.2001953-1.5415039-1.6918945-1.7456055
		c-0.2163086-0.0961914-0.4321289-0.144043-0.6479492-0.144043c-0.7919922,0-1.6020508,0.527832-2.4301758,1.5839844
		c-0.2402344,0.2875977-0.4438477,0.5878906-0.6118164,0.8999023L130.684082,109.0053711z"/>
	<path fill="#7D7D7E" d="M153.1118164,100.6176758h2.394043v16.3076172h-2.394043v-3.6357422
		c-1.4160156,0.5639648-2.6938477,1.0078125-3.8339844,1.3320313l-0.5576172-2.105957
		c1.4038086-0.3842773,2.8676758-0.8701172,4.3916016-1.4580078v-4.6621094h-4.1396484v-2.0341797h4.1396484V100.6176758z
		 M161.3920898,114.5854492c0.2880859,0,0.5820313-0.0180664,0.8818359-0.0541992
		c0.2397461-0.0239258,0.3959961-0.1137695,0.4682617-0.2700195c0.1318359-0.2758789,0.2216797-1.4995117,0.2700195-3.671875
		c0.0117188-0.1796875,0.0175781-0.3837891,0.0175781-0.6118164l2.1601563,0.2338867
		c-0.0839844,2.8081055-0.2402344,4.5483398-0.4677734,5.2202148c-0.1801758,0.5400391-0.4980469,0.8818359-0.9541016,1.0258789
		c-0.1923828,0.0600586-0.4624023,0.1079102-0.8100586,0.144043c-0.6118164,0.0595703-1.1582031,0.0898438-1.6381836,0.0898438
		c-0.6000977,0-1.1401367-0.0180664-1.6196289-0.0537109c-0.8881836-0.0605469-1.4462891-0.1923828-1.6743164-0.3959961
		c-0.2758789-0.2285156-0.4257813-0.7919922-0.449707-1.6923828c0-0.1918945,0-0.4199219,0-0.684082v-13.2475586h2.4658203
		v5.2197266c1.1640625-0.7675781,2.4360352-1.8417969,3.815918-3.222168l1.512207,1.6020508
		c-1.8120117,1.7885742-3.5883789,3.1801758-5.328125,4.1762695v5.184082c0,0.5161133,0.0419922,0.8037109,0.1259766,0.8637695
		c0.0600586,0.0361328,0.1679688,0.065918,0.3242188,0.0898438
		C160.7680664,114.5673828,161.0678711,114.5854492,161.3920898,114.5854492z"/>
	<path fill="#7D7D7E" d="M186.1958008,112.4794922l-1.7636719-1.65625c1.1757813-1.3676758,2.1420898-2.5317383,2.8979492-3.4916992
		c1.1396484-1.4399414,1.9199219-2.3222656,2.3398438-2.6459961c0.4921875-0.2998047,1.0620117-0.4560547,1.7099609-0.4682617
		c0.6123047,0,1.1162109,0.1201172,1.512207,0.3603516c0.4794922,0.2758789,1.5117188,1.1699219,3.0957031,2.6816406
		l0.0180664,0.0180664l0.0180664,0.0180664l0.0180664,0.0180664l0.0180664,0.0180664l0.0180664,0.0180664l0.0180664,0.0180664
		l0.0356445,0.0356445c1.9799805,1.8964844,3.7919922,3.5761719,5.4360352,5.0400391l-1.6557617,1.8901367
		c-2.0878906-1.8720703-4.1640625-3.8100586-6.2280273-5.8139648c-1.0683594-1.0317383-1.734375-1.6020508-1.9980469-1.7099609
		c-0.1079102-0.0478516-0.2280273-0.0722656-0.3598633-0.0722656c-0.2880859,0-0.5825195,0.15625-0.8823242,0.4682617
		c-0.2158203,0.2519531-0.5698242,0.6899414-1.0620117,1.3139648
		C188.3139648,109.9116211,187.2519531,111.2314453,186.1958008,112.4794922z"/>
	<path fill="#7D7D7E" d="M204.934082,105.2255859h11.6279297v2.3579102l-3.7978516,2.8261719l0.0180664,0.0356445h0.0537109
		c0.4560547,0,0.8217773,0.3603516,1.0981445,1.0800781c0.0834961,0.2402344,0.1679688,0.5161133,0.2519531,0.828125
		c0.1801758,0.7319336,0.4018555,1.1762695,0.6660156,1.3320313c0.2036133,0.1201172,0.5581055,0.1796875,1.0620117,0.1796875
		c0.7558594,0,1.4697266-0.0957031,2.1420898-0.2875977l0.3959961,2.0336914
		c-0.9360352,0.2402344-1.8603516,0.3603516-2.7719727,0.3603516c-1.4643555,0-2.4604492-0.3364258-2.9882813-1.0083008
		c-0.2402344-0.3237305-0.4257813-0.7436523-0.5581055-1.2597656c-0.2636719-1.0200195-0.5639648-1.578125-0.8999023-1.6743164
		c-0.0600586-0.0117188-0.1201172-0.0180664-0.1796875-0.0180664c-0.2163086,0-0.5283203,0.1323242-0.9360352,0.3959961
		c-0.5283203,0.3486328-2.25,1.590332-5.1660156,3.7260742l-1.3139648-1.7636719l9.6660156-7.0742188l-0.0180664-0.0180664
		h-8.3520508V105.2255859z M206.6079102,103.1376953l0.2700195-2.0522461
		c2.9638672,0.4082031,5.7602539,0.6118164,8.3881836,0.6118164v2.0883789
		C212.6259766,103.7856445,209.7402344,103.5693359,206.6079102,103.1376953z"/>
	<path fill="#7D7D7E" d="M220.684082,109.0053711c1.2480469-1.9916992,2.6879883-3.0839844,4.3198242-3.2758789
		c0.1679688-0.0239258,0.3300781-0.0361328,0.4863281-0.0361328c1.2958984,0,2.4355469,0.6420898,3.4199219,1.9262695
		c0.144043,0.1796875,0.581543,0.8398438,1.3139648,1.9799805c0.5996094,0.9360352,1.1455078,1.5117188,1.6376953,1.7280273
		c0.2041016,0.0839844,0.4140625,0.1259766,0.6303711,0.1259766c0.7797852,0,1.5415039-0.5517578,2.2856445-1.65625
		c0.0600586-0.0957031,0.144043-0.2275391,0.2519531-0.3959961c0.0961914-0.144043,0.1621094-0.2456055,0.1982422-0.3056641
		l1.8178711,1.2958984c-1.3081055,2.0639648-2.7299805,3.1499023-4.2661133,3.2578125
		c-0.0961914,0.012207-0.1918945,0.0180664-0.2875977,0.0180664c-1.2241211,0-2.3344727-0.6357422-3.3300781-1.9082031
		c-0.144043-0.1796875-0.5942383-0.8398438-1.3500977-1.9799805c-0.6362305-0.9599609-1.2001953-1.5415039-1.6918945-1.7456055
		c-0.2163086-0.0961914-0.4321289-0.144043-0.6479492-0.144043c-0.7919922,0-1.6020508,0.527832-2.4301758,1.5839844
		c-0.2402344,0.2875977-0.4438477,0.5878906-0.6118164,0.8999023L220.684082,109.0053711z"/>
</g>
<g>
	<path fill="#7D7D7E" d="M288.9467773,35.1914063c-1.6801758,1.5839844-4.0019531,3.012207-6.9658203,4.2841797
		l-0.5761719-1.1879883c3.0483398-1.2480469,5.3579102-2.5981445,6.9301758-4.050293h-3.7978516h-1.3500977v-6.7319336h5.7597656
		V26.28125h-7.3256836v-1.1337891h7.3256836v-1.6020508h1.4404297v1.6020508h7.3256836V26.28125h-7.3256836v1.2241211h5.7597656
		v6.7319336h-5.1479492c1.5717773,1.4521484,3.8818359,2.8022461,6.9301758,4.050293l-0.5761719,1.1879883
		c-2.9643555-1.2719727-5.2861328-2.7001953-6.9658203-4.2841797v4.6259766h-1.4404297V35.1914063z M284.5371094,30.2954102
		h4.409668v-1.7099609h-4.409668V30.2954102z M288.9467773,33.1572266v-1.8359375h-4.409668v1.8359375H288.9467773z
		 M294.796875,30.2954102v-1.7099609h-4.409668v1.7099609H294.796875z M290.387207,33.1572266h4.409668v-1.8359375h-4.409668
		V33.1572266z"/>
	<path fill="#7D7D7E" d="M314.5429688,33.0493164c-0.5522461-0.7314453-1.1040039-1.2539063-1.6557617-1.565918
		c-0.5522461-0.3120117-1.1821289-0.4677734-1.8901367-0.4677734c-0.9482422,0-1.9082031,0.4316406-2.8798828,1.2958984
		c-1.1762695,1.0439453-2.4365234,1.565918-3.7802734,1.565918c-1.8837891,0-3.4140625-0.828125-4.5898438-2.4838867
		l1.0620117-0.8823242c0.5517578,0.7202148,1.1040039,1.2363281,1.6557617,1.5483398s1.1762695,0.4677734,1.8720703,0.4677734
		c0.9477539,0,1.9082031-0.4316406,2.8798828-1.2958984c1.1762695-1.0439453,2.4360352-1.565918,3.7802734-1.565918
		c1.8837891,0,3.4135742,0.828125,4.5898438,2.4838867L314.5429688,33.0493164z"/>
	<path fill="#7D7D7E" d="M322.3369141,23.7255859h1.4042969v16.0917969h-1.4042969v-4.1040039
		c-1.5961914,0.6479492-3.0839844,1.1518555-4.4638672,1.512207l-0.3422852-1.2421875
		c1.5961914-0.4199219,3.1982422-0.9541016,4.8061523-1.6020508v-5.4897461h-4.5537109v-1.2241211h4.5537109V23.7255859z
		 M330.0229492,38.2514648c0.4799805,0,0.894043-0.0239258,1.2421875-0.0717773
		c0.515625-0.0600586,0.8217773-0.2880859,0.9179688-0.684082c0.0957031-0.3959961,0.1918945-1.7460938,0.2880859-4.050293
		l1.2958984,0.1259766c-0.0483398,1.0083008-0.0839844,1.7763672-0.1079102,2.3041992
		c-0.0244141,0.5283203-0.0722656,1.0439453-0.144043,1.5478516c-0.0722656,0.5039063-0.144043,0.8461914-0.2163086,1.0263672
		c-0.0717773,0.1914063-0.1918945,0.371582-0.3598633,0.5395508c-0.1918945,0.15625-0.3720703,0.2583008-0.5400391,0.3061523
		c-0.1679688,0.0361328-0.4262695,0.078125-0.7739258,0.1259766c-0.5761719,0.0600586-1.1220703,0.0898438-1.6381836,0.0898438
		c-0.4199219,0-0.9658203-0.0239258-1.6376953-0.0717773c-0.7919922-0.0717773-1.2661133-0.2280273-1.4223633-0.4677734
		c-0.1557617-0.2402344-0.2338867-0.918457-0.2338867-2.0341797V23.7255859h1.4399414v6.0839844
		c1.487793-0.8999023,3.0541992-2.1962891,4.6982422-3.8881836l0.8999023,0.9541016
		c-1.8842773,1.9438477-3.75,3.4140625-5.5981445,4.4101563v5.4716797c0.012207,0.6723633,0.0419922,1.0683594,0.090332,1.1879883
		c0.0478516,0.1201172,0.2275391,0.1982422,0.5400391,0.234375
		C329.0986328,38.2275391,329.519043,38.2514648,330.0229492,38.2514648z"/>
	<path fill="#7D7D7E" d="M354.3769531,35.0292969l-1.0258789-0.9360352l3.2939453-3.8876953
		c0.972168-1.199707,1.6381836-1.9501953,1.9980469-2.25s0.828125-0.4501953,1.4038086-0.4501953
		c0.527832,0,0.9838867,0.1323242,1.3681641,0.3959961c0.3837891,0.2641602,1.1938477,0.9902344,2.4301758,2.1782227
		l6.1196289,5.6157227l-0.9360352,1.0800781l-6.5336914-6.0117188c-0.8642578-0.828125-1.4282227-1.3378906-1.6918945-1.5302734
		c-0.2641602-0.1918945-0.5283203-0.2880859-0.7919922-0.2880859c-0.2763672,0-0.5341797,0.1079102-0.7744141,0.3242188
		c-0.2402344,0.2158203-0.7138672,0.762207-1.421875,1.6376953L354.3769531,35.0292969z"/>
	<path fill="#7D7D7E" d="M373.6728516,28.2973633h11.1782227v1.3320313l-4.4638672,3.671875l0.0175781,0.0180664
		c0.1201172-0.0239258,0.2163086-0.0356445,0.2880859-0.0356445c0.4199219,0,0.75,0.1616211,0.9902344,0.4858398
		c0.2397461,0.3237305,0.4858398,0.9658203,0.737793,1.9257813c0.2280273,0.8164063,0.4619141,1.3320313,0.7021484,1.5483398
		c0.2397461,0.2158203,0.6899414,0.3237305,1.3500977,0.3237305c0.7797852,0,1.5478516-0.1079102,2.3037109-0.3237305
		l0.234375,1.1879883c-0.8764648,0.2397461-1.7641602,0.3598633-2.6640625,0.3598633
		c-0.9604492,0-1.65625-0.168457-2.0883789-0.5039063c-0.4316406-0.3359375-0.7739258-0.9599609-1.0258789-1.8720703
		c-0.2041016-0.815918-0.4140625-1.3681641-0.6298828-1.65625c-0.2158203-0.2875977-0.4858398-0.4375-0.8100586-0.449707
		c-0.1918945,0-0.3481445,0.0180664-0.4677734,0.0537109c-0.1083984,0.0244141-0.4023438,0.2045898-0.8823242,0.5400391
		c-0.4799805,0.3364258-1.0737305,0.7802734-1.7817383,1.3320313l-3.3662109,2.7001953l-0.7919922-1.0083008l10.421875-8.4057617
		l-0.0175781-0.0361328h-9.234375V28.2973633z M375.5629883,25.5253906l0.1621094-1.1879883
		c2.699707,0.4321289,5.3515625,0.6479492,7.9560547,0.6479492v1.2421875
		C381.3168945,26.2275391,378.6108398,25.9936523,375.5629883,25.5253906z"/>
	<path fill="#7D7D7E" d="M404.5429688,33.0493164c-0.5522461-0.7314453-1.1040039-1.2539063-1.6557617-1.565918
		c-0.5522461-0.3120117-1.1821289-0.4677734-1.8901367-0.4677734c-0.9482422,0-1.9082031,0.4316406-2.8798828,1.2958984
		c-1.1762695,1.0439453-2.4365234,1.565918-3.7802734,1.565918c-1.8837891,0-3.4140625-0.828125-4.5898438-2.4838867
		l1.0620117-0.8823242c0.5517578,0.7202148,1.1040039,1.2363281,1.6557617,1.5483398s1.1762695,0.4677734,1.8720703,0.4677734
		c0.9477539,0,1.9082031-0.4316406,2.8798828-1.2958984c1.1762695-1.0439453,2.4360352-1.565918,3.7802734-1.565918
		c1.8837891,0,3.4135742,0.828125,4.5898438,2.4838867L404.5429688,33.0493164z"/>
	<path fill="#7D7D7E" d="M288.9467773,59.1914063c-1.6801758,1.5839844-4.0019531,3.012207-6.9658203,4.2841797
		l-0.5761719-1.1879883c3.0483398-1.2480469,5.3579102-2.5981445,6.9301758-4.050293h-3.7978516h-1.3500977v-6.7319336h5.7597656
		V50.28125h-7.3256836v-1.1337891h7.3256836v-1.6020508h1.4404297v1.6020508h7.3256836V50.28125h-7.3256836v1.2241211h5.7597656
		v6.7319336h-5.1479492c1.5717773,1.4521484,3.8818359,2.8022461,6.9301758,4.050293l-0.5761719,1.1879883
		c-2.9643555-1.2719727-5.2861328-2.7001953-6.9658203-4.2841797v4.6259766h-1.4404297V59.1914063z M284.5371094,54.2954102
		h4.409668v-1.7099609h-4.409668V54.2954102z M288.9467773,57.1572266v-1.8359375h-4.409668v1.8359375H288.9467773z
		 M294.796875,54.2954102v-1.7099609h-4.409668v1.7099609H294.796875z M290.387207,57.1572266h4.409668v-1.8359375h-4.409668
		V57.1572266z"/>
	<path fill="#7D7D7E" d="M299.7470703,56.1494141c1.1757813-1.6557617,2.7060547-2.4838867,4.5898438-2.4838867
		c1.34375,0,2.6040039,0.5219727,3.7802734,1.565918c0.9716797,0.8642578,1.9316406,1.2958984,2.8798828,1.2958984
		c0.6958008,0,1.3198242-0.1557617,1.8720703-0.4677734c0.5517578-0.3120117,1.1035156-0.828125,1.6557617-1.5483398
		l1.0620117,0.8823242c-1.1762695,1.6557617-2.7060547,2.4838867-4.5898438,2.4838867
		c-1.3442383,0-2.6040039-0.5219727-3.7802734-1.565918c-0.9716797-0.8642578-1.9321289-1.2958984-2.8798828-1.2958984
		c-0.7080078,0-1.3378906,0.1557617-1.8901367,0.4677734c-0.5517578,0.3120117-1.1040039,0.8344727-1.6557617,1.565918
		L299.7470703,56.1494141z"/>
	<path fill="#7D7D7E" d="M322.3369141,47.7255859h1.4042969v16.0917969h-1.4042969v-4.1040039
		c-1.5961914,0.6479492-3.0839844,1.1518555-4.4638672,1.512207l-0.3422852-1.2421875
		c1.5961914-0.4199219,3.1982422-0.9541016,4.8061523-1.6020508v-5.4897461h-4.5537109v-1.2241211h4.5537109V47.7255859z
		 M330.0229492,62.2514648c0.4799805,0,0.894043-0.0239258,1.2421875-0.0717773
		c0.515625-0.0600586,0.8217773-0.2880859,0.9179688-0.684082c0.0957031-0.3959961,0.1918945-1.7460938,0.2880859-4.050293
		l1.2958984,0.1259766c-0.0483398,1.0083008-0.0839844,1.7763672-0.1079102,2.3041992
		c-0.0244141,0.5283203-0.0722656,1.0439453-0.144043,1.5478516c-0.0722656,0.5039063-0.144043,0.8461914-0.2163086,1.0263672
		c-0.0717773,0.1914063-0.1918945,0.371582-0.3598633,0.5395508c-0.1918945,0.15625-0.3720703,0.2583008-0.5400391,0.3061523
		c-0.1679688,0.0361328-0.4262695,0.078125-0.7739258,0.1259766c-0.5761719,0.0600586-1.1220703,0.0898438-1.6381836,0.0898438
		c-0.4199219,0-0.9658203-0.0239258-1.6376953-0.0717773c-0.7919922-0.0717773-1.2661133-0.2280273-1.4223633-0.4677734
		c-0.1557617-0.2402344-0.2338867-0.918457-0.2338867-2.0341797V47.7255859h1.4399414v6.0839844
		c1.487793-0.8999023,3.0541992-2.1962891,4.6982422-3.8881836l0.8999023,0.9541016
		c-1.8842773,1.9438477-3.75,3.4140625-5.5981445,4.4101563v5.4716797c0.012207,0.6723633,0.0419922,1.0683594,0.090332,1.1879883
		c0.0478516,0.1201172,0.2275391,0.1982422,0.5400391,0.234375
		C329.0986328,62.2275391,329.519043,62.2514648,330.0229492,62.2514648z"/>
	<path fill="#7D7D7E" d="M354.3769531,59.0292969l-1.0258789-0.9360352l3.2939453-3.8876953
		c0.972168-1.199707,1.6381836-1.9501953,1.9980469-2.25s0.828125-0.4501953,1.4038086-0.4501953
		c0.527832,0,0.9838867,0.1323242,1.3681641,0.3959961c0.3837891,0.2641602,1.1938477,0.9902344,2.4301758,2.1782227
		l6.1196289,5.6157227l-0.9360352,1.0800781l-6.5336914-6.0117188c-0.8642578-0.828125-1.4282227-1.3378906-1.6918945-1.5302734
		c-0.2641602-0.1918945-0.5283203-0.2880859-0.7919922-0.2880859c-0.2763672,0-0.5341797,0.1079102-0.7744141,0.3242188
		c-0.2402344,0.2158203-0.7138672,0.762207-1.421875,1.6376953L354.3769531,59.0292969z"/>
	<path fill="#7D7D7E" d="M373.6728516,52.2973633h11.1782227v1.3320313l-4.4638672,3.671875l0.0175781,0.0180664
		c0.1201172-0.0239258,0.2163086-0.0356445,0.2880859-0.0356445c0.4199219,0,0.75,0.1616211,0.9902344,0.4858398
		c0.2397461,0.3237305,0.4858398,0.9658203,0.737793,1.9257813c0.2280273,0.8164063,0.4619141,1.3320313,0.7021484,1.5483398
		c0.2397461,0.2158203,0.6899414,0.3237305,1.3500977,0.3237305c0.7797852,0,1.5478516-0.1079102,2.3037109-0.3237305
		l0.234375,1.1879883c-0.8764648,0.2397461-1.7641602,0.3598633-2.6640625,0.3598633
		c-0.9604492,0-1.65625-0.168457-2.0883789-0.5039063c-0.4316406-0.3359375-0.7739258-0.9599609-1.0258789-1.8720703
		c-0.2041016-0.815918-0.4140625-1.3681641-0.6298828-1.65625c-0.2158203-0.2875977-0.4858398-0.4375-0.8100586-0.449707
		c-0.1918945,0-0.3481445,0.0180664-0.4677734,0.0537109c-0.1083984,0.0244141-0.4023438,0.2045898-0.8823242,0.5400391
		c-0.4799805,0.3364258-1.0737305,0.7802734-1.7817383,1.3320313l-3.3662109,2.7001953l-0.7919922-1.0083008l10.421875-8.4057617
		l-0.0175781-0.0361328h-9.234375V52.2973633z M375.5629883,49.5253906l0.1621094-1.1879883
		c2.699707,0.4321289,5.3515625,0.6479492,7.9560547,0.6479492v1.2421875
		C381.3168945,50.2275391,378.6108398,49.9936523,375.5629883,49.5253906z"/>
	<path fill="#7D7D7E" d="M389.7470703,56.1494141c1.1757813-1.6557617,2.7060547-2.4838867,4.5898438-2.4838867
		c1.34375,0,2.6040039,0.5219727,3.7802734,1.565918c0.9716797,0.8642578,1.9316406,1.2958984,2.8798828,1.2958984
		c0.6958008,0,1.3198242-0.1557617,1.8720703-0.4677734c0.5517578-0.3120117,1.1035156-0.828125,1.6557617-1.5483398
		l1.0620117,0.8823242c-1.1762695,1.6557617-2.7060547,2.4838867-4.5898438,2.4838867
		c-1.3442383,0-2.6040039-0.5219727-3.7802734-1.565918c-0.9716797-0.8642578-1.9321289-1.2958984-2.8798828-1.2958984
		c-0.7080078,0-1.3378906,0.1557617-1.8901367,0.4677734c-0.5517578,0.3120117-1.1040039,0.8344727-1.6557617,1.565918
		L389.7470703,56.1494141z"/>
</g>
<g>
	<path fill="#7D7D7E" d="M288.4428711,89.1455078c-1.644043,1.3203125-3.7680664,2.5078125-6.3720703,3.5639648
		l-0.9536133-1.9980469c2.6035156-0.9360352,4.7275391-1.9980469,6.371582-3.1860352h-2.4116211h-2.25v-6.9477539h5.6157227
		v-0.9003906h-6.9296875v-1.871582h6.9296875V76.4375h2.4482422v1.3681641h6.9296875v1.871582h-6.9296875v0.9003906h5.6157227
		v6.9477539h-4.6616211c1.6435547,1.1879883,3.7675781,2.25,6.371582,3.1860352l-0.9536133,1.9980469
		c-2.6044922-1.0561523-4.7285156-2.2436523-6.3720703-3.5639648v3.7797852h-2.4482422V89.1455078z M285.0771484,83.2954102
		h3.3657227v-1.0439453h-3.3657227V83.2954102z M288.4428711,85.9052734v-1.0976563h-3.3657227v1.0976563H288.4428711z
		 M294.2568359,83.2954102v-1.0439453h-3.3657227v1.0439453H294.2568359z M290.8911133,85.9052734h3.3657227v-1.0976563h-3.3657227
		V85.9052734z"/>
	<path fill="#7D7D7E" d="M314.1469727,86.6074219c-0.6000977-0.7436523-1.1401367-1.2597656-1.6201172-1.5478516
		s-1.0200195-0.4321289-1.6196289-0.4321289c-0.8041992,0-1.6323242,0.3598633-2.484375,1.0800781
		c-1.2480469,1.0322266-2.5800781,1.5478516-3.9960938,1.5478516c-2.0639648,0-3.7319336-0.9057617-5.0039063-2.7177734
		l1.800293-1.5839844c0.5878906,0.7319336,1.121582,1.2416992,1.6020508,1.5297852
		c0.4794922,0.2880859,1.0136719,0.4321289,1.6015625,0.4321289c0.8041992,0,1.6318359-0.3598633,2.484375-1.0800781
		c1.2475586-1.0317383,2.5795898-1.5478516,3.9960938-1.5478516c2.0634766,0,3.7314453,0.90625,5.0039063,2.7177734
		L314.1469727,86.6074219z"/>
	<path fill="#7D7D7E" d="M321.7788086,76.6176758h2.394043V92.925293h-2.394043v-3.6357422
		c-1.4160156,0.5639648-2.6938477,1.0078125-3.8339844,1.3320313l-0.5576172-2.105957
		c1.3916016-0.3842773,2.8554688-0.8701172,4.3916016-1.4580078v-4.6621094h-4.1396484v-2.0341797h4.1396484V76.6176758z
		 M330.059082,90.5854492c0.2880859,0,0.5820313-0.0180664,0.8818359-0.0541992
		c0.3120117-0.0239258,0.5039063-0.2397461,0.5761719-0.6479492c0.0717773-0.4077148,0.1318359-1.7099609,0.1796875-3.9057617
		l2.1601563,0.2338867c-0.0361328,1.0561523-0.065918,1.8901367-0.0898438,2.5019531
		c-0.0244141,0.6123047-0.0839844,1.1762695-0.1801758,1.6918945c-0.0717773,0.5161133-0.144043,0.894043-0.2158203,1.1342773
		c-0.0722656,0.2397461-0.2041016,0.4438477-0.3959961,0.6118164c-0.1923828,0.1679688-0.3779297,0.2758789-0.5581055,0.3242188
		c-0.1801758,0.0478516-0.4443359,0.0898438-0.7919922,0.1259766c-0.6000977,0.0595703-1.1459961,0.0898438-1.6381836,0.0898438
		c-0.6000977,0-1.1401367-0.0180664-1.6196289-0.0537109c-0.984375-0.0605469-1.5839844-0.234375-1.800293-0.5224609
		c-0.2158203-0.2875977-0.3237305-1.0375977-0.3237305-2.25V76.6176758h2.4658203v5.2197266
		c1.1518555-0.7558594,2.4238281-1.8295898,3.815918-3.222168l1.512207,1.6020508
		c-1.8120117,1.7885742-3.5883789,3.1801758-5.328125,4.1762695v5.184082c0,0.4438477,0.0180664,0.7080078,0.0541992,0.7919922
		c0.0356445,0.0839844,0.1674805,0.1376953,0.3959961,0.1616211
		C329.4228516,90.5673828,329.7226563,90.5854492,330.059082,90.5854492z"/>
	<path fill="#7D7D7E" d="M354.862793,88.4794922l-1.7636719-1.65625l2.8979492-3.4916992
		c1.1396484-1.4282227,1.9140625-2.3041992,2.3217773-2.6279297c0.4077148-0.3242188,0.9838867-0.4863281,1.7280273-0.4863281
		c0.6601563,0,1.2241211,0.15625,1.6918945,0.4682617c0.4682617,0.3120117,1.487793,1.2177734,3.0600586,2.7177734
		l5.4360352,5.0400391l-1.6557617,1.8901367l-6.2280273-5.8139648c-0.8164063-0.8037109-1.3564453-1.3017578-1.6201172-1.4941406
		c-0.2641602-0.1918945-0.5102539-0.2880859-0.737793-0.2880859c-0.2402344,0-0.4741211,0.1020508-0.7021484,0.3061523
		s-0.6420898,0.6962891-1.2421875,1.4760742L354.862793,88.4794922z"/>
	<path fill="#7D7D7E" d="M373.6010742,81.2255859h11.6279297v2.3579102l-3.7978516,2.8261719l0.0180664,0.0356445h0.0537109
		c0.2880859-0.0117188,0.5400391,0.1259766,0.7558594,0.4140625c0.2163086,0.2880859,0.4140625,0.7861328,0.5942383,1.4941406
		c0.1801758,0.6723633,0.3657227,1.0922852,0.5581055,1.2597656c0.1918945,0.168457,0.581543,0.2519531,1.1699219,0.2519531
		c0.7558594,0,1.4697266-0.0957031,2.1420898-0.2875977l0.3959961,2.0336914
		c-0.9360352,0.2402344-1.8603516,0.3603516-2.7719727,0.3603516c-1.1044922,0-1.9204102-0.168457-2.4482422-0.5043945
		c-0.5283203-0.3354492-0.894043-0.9238281-1.0981445-1.7636719c-0.1557617-0.6479492-0.3178711-1.0917969-0.4858398-1.3320313
		s-0.3662109-0.3603516-0.59375-0.3603516c-0.2285156,0-0.6064453,0.1801758-1.1342773,0.5400391
		c-0.5283203,0.3603516-2.184082,1.5541992-4.9677734,3.5820313l-1.3139648-1.7636719l9.6660156-7.0742188l-0.0180664-0.0180664
		h-8.3520508V81.2255859z M375.2749023,79.1376953l0.2700195-2.0522461
		c2.9638672,0.4082031,5.7602539,0.6118164,8.3881836,0.6118164v2.0883789
		C381.2929688,79.7856445,378.4072266,79.5693359,375.2749023,79.1376953z"/>
	<path fill="#7D7D7E" d="M404.1469727,86.6074219c-0.6000977-0.7436523-1.1401367-1.2597656-1.6201172-1.5478516
		s-1.0200195-0.4321289-1.6196289-0.4321289c-0.8041992,0-1.6323242,0.3598633-2.484375,1.0800781
		c-1.2480469,1.0322266-2.5800781,1.5478516-3.9960938,1.5478516c-2.0639648,0-3.7319336-0.9057617-5.0039063-2.7177734
		l1.800293-1.5839844c0.5878906,0.7319336,1.121582,1.2416992,1.6020508,1.5297852
		c0.4794922,0.2880859,1.0136719,0.4321289,1.6015625,0.4321289c0.8041992,0,1.6318359-0.3598633,2.484375-1.0800781
		c1.2475586-1.0317383,2.5795898-1.5478516,3.9960938-1.5478516c2.0634766,0,3.7314453,0.90625,5.0039063,2.7177734
		L404.1469727,86.6074219z"/>
	<path fill="#7D7D7E" d="M288.4428711,113.1455078c-1.644043,1.3203125-3.7680664,2.5078125-6.3720703,3.5639648
		l-0.9536133-1.9980469c2.6035156-0.9360352,4.7275391-1.9980469,6.371582-3.1860352h-2.4116211h-2.25v-6.9477539h5.6157227
		v-0.9003906h-6.9296875v-1.871582h6.9296875V100.4375h2.4482422v1.3681641h6.9296875v1.871582h-6.9296875v0.9003906h5.6157227
		v6.9477539h-4.6616211c1.6435547,1.1879883,3.7675781,2.25,6.371582,3.1860352l-0.9536133,1.9980469
		c-2.6044922-1.0561523-4.7285156-2.2436523-6.3720703-3.5639648v3.7797852h-2.4482422V113.1455078z M285.0771484,107.2954102
		h3.3657227v-1.0439453h-3.3657227V107.2954102z M288.4428711,109.9052734v-1.0976563h-3.3657227v1.0976563H288.4428711z
		 M294.2568359,107.2954102v-1.0439453h-3.3657227v1.0439453H294.2568359z M290.8911133,109.9052734h3.3657227v-1.0976563
		h-3.3657227V109.9052734z"/>
	<path fill="#7D7D7E" d="M310.9072266,108.9155273c0.5874023,0,1.121582-0.144043,1.6015625-0.4321289
		s1.0141602-0.7978516,1.6020508-1.5297852l1.800293,1.5839844c-1.2724609,1.8120117-2.9404297,2.7177734-5.0039063,2.7177734
		c-1.4165039,0-2.7485352-0.515625-3.9960938-1.5478516c-0.8525391-0.7202148-1.6801758-1.0800781-2.484375-1.0800781
		c-0.6000977,0-1.1401367,0.144043-1.6196289,0.4321289c-0.4804688,0.2880859-1.0200195,0.8041992-1.6201172,1.5478516
		l-1.7641602-1.6020508c1.2719727-1.8115234,2.9399414-2.7177734,5.0039063-2.7177734
		c1.4160156,0,2.7480469,0.5161133,3.9960938,1.5478516C309.2749023,108.5556641,310.1030273,108.9155273,310.9072266,108.9155273z"
		/>
	<path fill="#7D7D7E" d="M321.7788086,100.6176758h2.394043v16.3076172h-2.394043v-3.6357422
		c-1.4160156,0.5639648-2.6938477,1.0078125-3.8339844,1.3320313l-0.5576172-2.105957
		c1.3916016-0.3842773,2.8554688-0.8701172,4.3916016-1.4580078v-4.6621094h-4.1396484v-2.0341797h4.1396484V100.6176758z
		 M330.059082,114.5854492c0.2880859,0,0.5820313-0.0180664,0.8818359-0.0541992
		c0.3120117-0.0239258,0.5039063-0.2397461,0.5761719-0.6479492c0.0717773-0.4077148,0.1318359-1.7099609,0.1796875-3.9057617
		l2.1601563,0.2338867c-0.0361328,1.0561523-0.065918,1.8901367-0.0898438,2.5019531
		c-0.0244141,0.6123047-0.0839844,1.1762695-0.1801758,1.6918945c-0.0717773,0.5161133-0.144043,0.894043-0.2158203,1.1342773
		c-0.0722656,0.2397461-0.2041016,0.4438477-0.3959961,0.6118164c-0.1923828,0.1679688-0.3779297,0.2758789-0.5581055,0.3242188
		c-0.1801758,0.0478516-0.4443359,0.0898438-0.7919922,0.1259766c-0.6000977,0.0595703-1.1459961,0.0898438-1.6381836,0.0898438
		c-0.6000977,0-1.1401367-0.0180664-1.6196289-0.0537109c-0.984375-0.0605469-1.5839844-0.234375-1.800293-0.5224609
		c-0.2158203-0.2875977-0.3237305-1.0375977-0.3237305-2.25v-13.2475586h2.4658203v5.2197266
		c1.1518555-0.7558594,2.4238281-1.8295898,3.815918-3.222168l1.512207,1.6020508
		c-1.8120117,1.7885742-3.5883789,3.1801758-5.328125,4.1762695v5.184082c0,0.4438477,0.0180664,0.7080078,0.0541992,0.7919922
		c0.0356445,0.0839844,0.1674805,0.1376953,0.3959961,0.1616211
		C329.4228516,114.5673828,329.7226563,114.5854492,330.059082,114.5854492z"/>
	<path fill="#7D7D7E" d="M354.862793,112.4794922l-1.7636719-1.65625l2.8979492-3.4916992
		c1.1396484-1.4282227,1.9140625-2.3041992,2.3217773-2.6279297c0.4077148-0.3242188,0.9838867-0.4863281,1.7280273-0.4863281
		c0.6601563,0,1.2241211,0.15625,1.6918945,0.4682617c0.4682617,0.3120117,1.487793,1.2177734,3.0600586,2.7177734
		l5.4360352,5.0400391l-1.6557617,1.8901367l-6.2280273-5.8139648c-0.8164063-0.8037109-1.3564453-1.3017578-1.6201172-1.4941406
		c-0.2641602-0.1918945-0.5102539-0.2880859-0.737793-0.2880859c-0.2402344,0-0.4741211,0.1020508-0.7021484,0.3061523
		s-0.6420898,0.6962891-1.2421875,1.4760742L354.862793,112.4794922z"/>
	<path fill="#7D7D7E" d="M373.6010742,105.2255859h11.6279297v2.3579102l-3.7978516,2.8261719l0.0180664,0.0356445h0.0537109
		c0.2880859-0.0117188,0.5400391,0.1259766,0.7558594,0.4140625c0.2163086,0.2880859,0.4140625,0.7861328,0.5942383,1.4941406
		c0.1801758,0.6723633,0.3657227,1.0922852,0.5581055,1.2597656c0.1918945,0.168457,0.581543,0.2519531,1.1699219,0.2519531
		c0.7558594,0,1.4697266-0.0957031,2.1420898-0.2875977l0.3959961,2.0336914
		c-0.9360352,0.2402344-1.8603516,0.3603516-2.7719727,0.3603516c-1.1044922,0-1.9204102-0.168457-2.4482422-0.5043945
		c-0.5283203-0.3354492-0.894043-0.9238281-1.0981445-1.7636719c-0.1557617-0.6479492-0.3178711-1.0917969-0.4858398-1.3320313
		s-0.3662109-0.3603516-0.59375-0.3603516c-0.2285156,0-0.6064453,0.1801758-1.1342773,0.5400391
		c-0.5283203,0.3603516-2.184082,1.5541992-4.9677734,3.5820313l-1.3139648-1.7636719l9.6660156-7.0742188l-0.0180664-0.0180664
		h-8.3520508V105.2255859z M375.2749023,103.1376953l0.2700195-2.0522461
		c2.9638672,0.4082031,5.7602539,0.6118164,8.3881836,0.6118164v2.0883789
		C381.2929688,103.7856445,378.4072266,103.5693359,375.2749023,103.1376953z"/>
	<path fill="#7D7D7E" d="M400.9072266,108.9155273c0.5874023,0,1.121582-0.144043,1.6015625-0.4321289
		s1.0141602-0.7978516,1.6020508-1.5297852l1.800293,1.5839844c-1.2724609,1.8120117-2.9404297,2.7177734-5.0039063,2.7177734
		c-1.4165039,0-2.7485352-0.515625-3.9960938-1.5478516c-0.8525391-0.7202148-1.6801758-1.0800781-2.484375-1.0800781
		c-0.6000977,0-1.1401367,0.144043-1.6196289,0.4321289c-0.4804688,0.2880859-1.0200195,0.8041992-1.6201172,1.5478516
		l-1.7641602-1.6020508c1.2719727-1.8115234,2.9399414-2.7177734,5.0039063-2.7177734
		c1.4160156,0,2.7480469,0.5161133,3.9960938,1.5478516C399.2749023,108.5556641,400.1030273,108.9155273,400.9072266,108.9155273z"
		/>
</g>
<g>
	<g>
		<path fill="#7D7D7E" d="M7.5,33.331543c-1.1401367,0-1.7666016-0.5366211-1.8798828-1.6098633
			c-0.0136719-0.1269531-0.0200195-0.2568359-0.0200195-0.3901367v-5.3999023h0.8398438v5.199707
			c0,0.800293,0.2202148,1.2734375,0.6601563,1.4199219c0.1201172,0.0400391,0.2597656,0.0600586,0.4199219,0.0600586
			c0.5263672,0,0.8564453-0.2363281,0.9897461-0.7099609c0.0600586-0.206543,0.090332-0.4633789,0.090332-0.7700195v-5.199707
			h0.7998047v5.3999023c0,1.2197266-0.5268555,1.8833008-1.5800781,1.9897461
			C7.7133789,33.328125,7.6064453,33.331543,7.5,33.331543z"/>
		<path fill="#7D7D7E" d="M12.9101563,27.6816406v2.1396484h1.4897461v0.7202148h-1.4897461v2.1401367h-0.8203125v-2.1401367
			h-1.4897461v-0.7202148h1.4897461v-2.1396484H12.9101563z"/>
		<path fill="#7D7D7E" d="M18.2998047,26.6713867v-0.0200195h-2.5v-0.7197266H19.25v0.7197266l-1.7998047,2.2900391v0.0200195
			h0.0996094c0.8203125,0,1.3466797,0.3232422,1.5800781,0.9702148c0.1132813,0.3198242,0.1699219,0.7197266,0.1699219,1.199707
			c-0.0131836,1.4599609-0.6630859,2.1933594-1.949707,2.2001953c-0.4799805,0-0.9433594-0.09375-1.3901367-0.2802734
			c-0.0268555-0.0063477-0.046875-0.0131836-0.0600586-0.0200195v-0.8696289
			c0.5131836,0.2866211,0.9467773,0.4296875,1.300293,0.4296875c0.6865234,0,1.0898438-0.3066406,1.2099609-0.9199219
			c0.0332031-0.1665039,0.0498047-0.3466797,0.0498047-0.5400391c0-0.6333008-0.1035156-1.0429688-0.3100586-1.2299805
			c-0.1733398-0.1464844-0.4897461-0.2197266-0.949707-0.2197266H16.5v-0.7202148L18.2998047,26.6713867z"/>
		<path fill="#7D7D7E" d="M22.5,25.831543c0.706543,0,1.203125,0.3134766,1.4902344,0.9399414
			c0.2729492,0.5932617,0.409668,1.5297852,0.409668,2.8100586c0,1.8066406-0.2832031,2.9467773-0.8500977,3.4199219
			C23.2763672,33.2216797,22.9267578,33.331543,22.5,33.331543c-0.706543,0-1.2036133-0.3134766-1.4902344-0.9399414
			c-0.2734375-0.5932617-0.409668-1.5302734-0.409668-2.8100586c0-1.8066406,0.2832031-2.9467773,0.8500977-3.4199219
			C21.7231445,25.9414063,22.0732422,25.831543,22.5,25.831543z M21.4501953,30.9814453l2-3.4101563
			C23.2563477,26.8979492,22.9399414,26.5512695,22.5,26.53125c-0.4467773,0-0.753418,0.3168945-0.9199219,0.9501953
			c-0.1333008,0.4936523-0.2001953,1.1933594-0.2001953,2.1000977
			C21.3798828,30.074707,21.4033203,30.5415039,21.4501953,30.9814453z M21.5200195,31.4414063
			C21.6865234,32.2280273,22.0131836,32.625,22.5,32.6313477c0.4467773,0,0.753418-0.3164063,0.9199219-0.949707
			c0.1333008-0.4936523,0.2001953-1.1933594,0.2001953-2.1000977c0-0.6333008-0.0302734-1.1533203-0.090332-1.5600586
			L21.5200195,31.4414063z"/>
		<path fill="#7D7D7E" d="M27.5800781,33.2314453V26.78125l-0.0200195-0.0097656L25.8300781,27.78125v-0.7998047l1.75-1.0498047
			h0.8198242v7.2998047H27.5800781z"/>
		<path fill="#7D7D7E" d="M30.5498047,29.581543c0-2.0800781,0.5366211-3.293457,1.6103516-3.6401367
			c0.2397461-0.0732422,0.5029297-0.1098633,0.7900391-0.1098633c0.4462891,0.0068359,0.8632813,0.1064453,1.25,0.2998047v0.75
			C33.793457,26.6616211,33.3930664,26.5512695,33,26.5512695c-1.0932617,0.0136719-1.6435547,1.0234375-1.6499023,3.0302734
			c0,1.699707,0.3764648,2.6831055,1.1298828,2.949707C32.6401367,32.5849609,32.8134766,32.6113281,33,32.6113281
			c0.4199219-0.0063477,0.8364258-0.1333008,1.25-0.3798828V33.03125c-0.3935547,0.2001953-0.8266602,0.300293-1.2998047,0.300293
			c-0.9799805,0-1.6503906-0.4101563-2.0102539-1.2299805C30.6801758,31.5014648,30.5498047,30.6616211,30.5498047,29.581543z"/>
		<path fill="#7D7D7E" d="M47.0097656,29.53125c-0.5195313-0.5-1.1196289-1.0029297-1.7998047-1.5097656l0.4501953-0.5400391
			c0.706543,0.5268555,1.3100586,1.0268555,1.8100586,1.5L47.0097656,29.53125z M47.7001953,30.8012695
			c-0.3867188,1.1801758-0.9135742,2.2368164-1.5800781,3.1704102L45.5,33.5615234
			c0.6401367-0.9267578,1.1533203-1.9335938,1.5400391-3.0200195L47.7001953,30.8012695z M45.6801758,25.8212891l0.449707-0.5400391
			c0.6132813,0.4599609,1.1601563,0.9169922,1.6401367,1.3701172l-0.4599609,0.5400391
			C46.8364258,26.7514648,46.293457,26.2949219,45.6801758,25.8212891z M49.5400391,29.6015625l0.6601563-0.2802734
			c0.3598633,0.8603516,0.8232422,1.590332,1.3896484,2.1899414c0.6069336-0.6728516,1.0966797-1.4829102,1.4702148-2.4296875
			h-4.0102539v0.0498047c0,2-0.3632813,3.6201172-1.0898438,4.8598633l-0.5498047-0.5898438
			c0.5400391-1.0400391,0.8398438-2.3632813,0.8999023-3.9697266c0.0063477-0.246582,0.0097656-0.503418,0.0097656-0.7700195
			V26.03125h2.7099609v-0.9697266h0.7700195V26.03125h2.7700195v0.6704102c-0.1733398,0.5131836-0.4033203,1-0.6899414,1.4599609
			l-0.6201172-0.3203125c0.2333984-0.3798828,0.4267578-0.7597656,0.5800781-1.1396484h-2.0400391v1.7299805h2.0703125v0.6499023
			c-0.4399414,1.1733398-1.0200195,2.1499023-1.7402344,2.9296875c0.706543,0.5737305,1.5532227,1.003418,2.5400391,1.2900391
			l-0.1899414,0.6601563c-1.1264648-0.3066406-2.0834961-0.7866211-2.8701172-1.4399414
			c-0.7597656,0.6533203-1.6630859,1.1333008-2.7099609,1.4399414l-0.25-0.6601563
			c0.9199219-0.2597656,1.7265625-0.6899414,2.4199219-1.2900391C50.456543,31.3647461,49.9467773,30.5615234,49.5400391,29.6015625
			z M51.0297852,26.7016602h-1.9799805v1.7299805h1.9799805V26.7016602z"/>
		<path fill="#7D7D7E" d="M62.0898438,25.2714844l0.550293-0.2900391c0.2797852,0.4536133,0.5600586,0.9501953,0.8398438,1.4902344
			l-0.2797852,0.1396484v0.1499023c0,2.4404297-0.6337891,4.2104492-1.9003906,5.3100586
			c-1.0532227,0.9067383-2.6166992,1.4501953-4.6899414,1.6303711l-0.1196289-0.7001953
			c2.1264648-0.2001953,3.6430664-0.7763672,4.5498047-1.7299805c0.1665039-0.1733398,0.3134766-0.3564453,0.4399414-0.5498047
			c-1.1201172-0.5737305-2.2167969-1.09375-3.2900391-1.5600586l0.3500977-0.6704102
			c1.2001953,0.5200195,2.2998047,1.0400391,3.2998047,1.5600586c0.3334961-0.7797852,0.5166016-1.7431641,0.550293-2.8896484h-4
			c-0.3867188,1.1865234-1.0366211,2.2099609-1.9501953,3.0698242l-0.5200195-0.4799805
			c1.0068359-0.9467773,1.6635742-2.1430664,1.9702148-3.5898438C57.9365234,25.9282227,57.9731445,25.6948242,58,25.4614258
			l0.7299805,0.0400391c-0.0332031,0.3266602-0.0834961,0.6464844-0.1499023,0.9599609h4.199707
			C62.5263672,25.9951172,62.2963867,25.5981445,62.0898438,25.2714844z M63.4399414,25.1015625L64,24.8115234
			c0.2998047,0.4931641,0.5864258,1,0.8598633,1.5200195l-0.5600586,0.2797852
			C64.0063477,26.0581055,63.7202148,25.5546875,63.4399414,25.1015625z"/>
		<path fill="#7D7D7E" d="M66.8198242,27.9316406l0.7001953-0.1601563c0.206543,0.7001953,0.4467773,1.5869141,0.7202148,2.6601563
			l-0.7104492,0.159668C67.3032227,29.6582031,67.0664063,28.7714844,66.8198242,27.9316406z M73.1801758,27.5512695
			c-0.0600586,1.9335938-0.4501953,3.3466797-1.1704102,4.2402344c-0.6796875,0.8535156-1.7998047,1.4199219-3.3598633,1.699707
			c-0.1665039,0.0268555-0.3364258,0.0537109-0.5097656,0.0800781l-0.1499023-0.6699219
			c1.4799805-0.2197266,2.5429688-0.6464844,3.1899414-1.2797852c0.6665039-0.6533203,1.0698242-1.7001953,1.2099609-3.1401367
			c0.0263672-0.2998047,0.0463867-0.6230469,0.0600586-0.9702148L73.1801758,27.5512695z M69.0097656,27.6416016
			l0.7202148-0.1601563c0.2666016,0.9267578,0.5063477,1.8500977,0.7202148,2.7700195l-0.7202148,0.1601563
			C69.503418,29.4516602,69.2631836,28.5283203,69.0097656,27.6416016z"/>
		<path fill="#7D7D7E" d="M76.2900391,28.9116211l0.1401367-0.7099609c1.1733398,0.206543,2.2563477,0.409668,3.25,0.6098633
			L79.5400391,29.53125C77.953125,29.2182617,76.8701172,29.0112305,76.2900391,28.9116211z M76.6899414,32.8012695
			c2.1201172-0.1865234,3.6933594-0.7099609,4.7202148-1.5698242c1-0.8466797,1.6733398-2.1665039,2.0200195-3.9599609
			c0.0131836-0.0732422,0.0263672-0.1464844,0.0400391-0.2202148l0.7299805,0.1201172
			c-0.3735352,2.1269531-1.1669922,3.6835938-2.3803711,4.6699219c-1.1533203,0.9335938-2.8232422,1.496582-5.0097656,1.6899414
			L76.6899414,32.8012695z M76.7202148,26.4516602l0.1396484-0.7202148c1.1665039,0.1865234,2.300293,0.3935547,3.3999023,0.6201172
			l-0.1396484,0.7099609C79.1733398,26.8681641,78.0400391,26.6650391,76.7202148,26.4516602z"/>
		<path fill="#7D7D7E" d="M87.5,27.7016602h4.6000977l-0.3701172,4.7998047h1.6201172v0.6601563h-6.7001953v-0.6601563h4.2802734
			l0.3295898-4.1401367H87.5V27.7016602z"/>
	</g>
</g>
<g>
	<g>
		<path fill="#7D7D7E" d="M7.5,58.331543c-1.1401367,0-1.7666016-0.5366211-1.8798828-1.6098633
			c-0.0136719-0.1269531-0.0200195-0.2568359-0.0200195-0.3901367v-5.3999023h0.8398438v5.199707
			c0,0.800293,0.2202148,1.2734375,0.6601563,1.4199219c0.1201172,0.0400391,0.2597656,0.0600586,0.4199219,0.0600586
			c0.5263672,0,0.8564453-0.2363281,0.9897461-0.7099609c0.0600586-0.206543,0.090332-0.4633789,0.090332-0.7700195v-5.199707
			h0.7998047v5.3999023c0,1.2197266-0.5268555,1.8833008-1.5800781,1.9897461
			C7.7133789,58.328125,7.6064453,58.331543,7.5,58.331543z"/>
		<path fill="#7D7D7E" d="M12.9101563,52.6816406v2.1396484h1.4897461v0.7202148h-1.4897461v2.1401367h-0.8203125v-2.1401367
			h-1.4897461v-0.7202148h1.4897461v-2.1396484H12.9101563z"/>
		<path fill="#7D7D7E" d="M16.7202148,54.6313477v3.6000977h-0.8203125v-7.2998047h3.300293v0.7197266h-2.4799805v2.2802734
			h2.3798828v0.699707H16.7202148z"/>
		<path fill="#7D7D7E" d="M21.7202148,54.6313477v3.6000977h-0.8203125v-7.2998047h3.300293v0.7197266h-2.4799805v2.2802734
			h2.3798828v0.699707H21.7202148z"/>
		<path fill="#7D7D7E" d="M26.7998047,53.9316406h0.0200195c0.2265625-0.2001953,0.5200195-0.300293,0.8803711-0.300293
			c0.953125,0,1.4799805,0.6069336,1.5795898,1.8203125c0.0136719,0.1533203,0.0200195,0.3129883,0.0200195,0.4799805
			c0,1.4399414-0.5200195,2.2333984-1.5595703,2.3798828c-0.1269531,0.0131836-0.2568359,0.0200195-0.3901367,0.0200195
			c-0.4936523,0-0.9770508-0.1000977-1.4501953-0.300293v-0.8696289c0.5,0.2866211,0.9667969,0.4296875,1.3999023,0.4296875
			c0.7666016-0.0131836,1.1533203-0.5664063,1.1601563-1.659668C28.453125,54.8979492,28.1333008,54.3779297,27.5,54.371582
			c-0.2866211,0-0.543457,0.1235352-0.7700195,0.3696289c-0.0131836,0.0200195-0.0234375,0.0336914-0.0297852,0.0400391h-0.75
			l0.0996094-3.8496094h3.050293v0.7197266h-2.2299805L26.7998047,53.9316406z"/>
		<path fill="#7D7D7E" d="M31.6201172,51.6513672v2.2802734h2.4799805v0.699707h-2.4799805v2.8798828h2.5800781v0.7202148
			h-3.4003906v-7.2998047h3.4003906v0.7197266H31.6201172z"/>
		<path fill="#7D7D7E" d="M50.4902344,50.1113281c1.2397461,1.1000977,2.6264648,2.0703125,4.159668,2.9101563l-0.3398438,0.6499023
			C52.7167969,52.8115234,51.2797852,51.7983398,50,50.6313477c-1.2866211,1.1733398-2.7236328,2.1870117-4.3100586,3.0400391
			l-0.3398438-0.6499023c1.5400391-0.8466797,2.9262695-1.8164063,4.159668-2.9101563H50.4902344z M54.25,58.78125h-8.5v-0.6699219
			h3.8500977v-2.0498047h-2.9501953v-0.6499023h2.9501953v-1.6601563h-2.5703125v-0.6499023h5.9501953v0.6499023h-2.5800781
			v1.6601563h2.9501953v0.6499023h-2.9501953v2.0498047H54.25V58.78125z"/>
		<path fill="#7D7D7E" d="M55.8798828,53.7612305l-0.3398438-0.6796875
			c1.1801758-0.9335938,2.0463867-2.0268555,2.6000977-3.2802734l0.7397461,0.1401367
			c-0.0600586,0.1601563-0.1464844,0.3569336-0.2597656,0.5898438h3.3300781v0.6303711
			c-0.2802734,0.3466797-0.5869141,0.6767578-0.9204102,0.9897461h2.9003906v5.5800781
			c0,0.5532227-0.0600586,0.9033203-0.1801758,1.0498047c-0.1201172,0.1401367-0.4135742,0.2133789-0.8798828,0.2202148
			c-0.0537109,0-0.1103516,0-0.1699219,0c-0.1469727,0-0.6137695-0.0166016-1.4003906-0.0498047l-0.0297852-0.6503906
			c0.7666016,0.0336914,1.203125,0.050293,1.3100586,0.050293c0.2998047,0,0.4731445-0.0366211,0.5200195-0.1103516
			c0.0463867-0.0664063,0.0698242-0.2265625,0.0698242-0.4799805v-1.0795898h-5.9799805
			c-0.1733398,0.9199219-0.5131836,1.7231445-1.0200195,2.409668l-0.6401367-0.5
			c0.5136719-0.7197266,0.840332-1.5600586,0.9799805-2.5200195c0.0737305-0.5400391,0.1103516-1.1962891,0.1103516-1.9697266
			v-0.9501953C56.453125,53.3115234,56.206543,53.5146484,55.8798828,53.7612305z M59.75,54.7016602h-2.3701172
			c-0.0131836,0.4863281-0.043457,0.9365234-0.0898438,1.3496094H59.75V54.7016602z M59.75,52.8012695h-2.3701172v1.2802734H59.75
			V52.8012695z M60.0297852,52.1513672c0.3735352-0.3266602,0.7104492-0.65625,1.0102539-0.9897461h-2.7700195
			c-0.2333984,0.3598633-0.4702148,0.6899414-0.7099609,0.9897461H60.0297852z M60.5,54.081543h2.6699219v-1.2802734H60.5V54.081543
			z M60.5,54.7016602v1.3496094h2.6699219v-1.3496094H60.5z"/>
		<path fill="#7D7D7E" d="M65.7998047,54.8613281v-0.699707h4.1801758v-0.1601563v-1.9501953
			c-0.9135742,0.1000977-1.9633789,0.1503906-3.1499023,0.1503906v-0.7001953c2.0131836,0,3.7265625-0.1831055,5.1401367-0.5498047
			c0.3598633-0.0932617,0.7299805-0.2001953,1.1098633-0.3203125l0.2197266,0.6801758
			c-0.9130859,0.293457-1.7563477,0.503418-2.5297852,0.6298828v2.0600586v0.1601563h3.4301758v0.699707h-3.4702148
			c-0.1201172,1.4199219-0.5766602,2.4301758-1.3701172,3.0302734c-0.4799805,0.3598633-1.1166992,0.6162109-1.909668,0.7700195
			l-0.2099609-0.6801758c1.0463867-0.2133789,1.7729492-0.6401367,2.1796875-1.2797852
			c0.2802734-0.4536133,0.456543-1.0668945,0.5302734-1.840332H65.7998047z"/>
		<path fill="#7D7D7E" d="M77.5698242,50.8613281h0.800293v1.9702148c0,1.9199219-0.1699219,3.2700195-0.5102539,4.0498047
			c-0.2597656,0.6000977-0.699707,1.0800781-1.3198242,1.4399414c-0.1401367,0.0800781-0.293457,0.1601563-0.4599609,0.2402344
			l-0.4101563-0.6601563c0.6132813-0.2998047,1.043457-0.6401367,1.2900391-1.0200195
			c0.3334961-0.5131836,0.5263672-1.3964844,0.5800781-2.6499023c0.0200195-0.3999023,0.0297852-0.8666992,0.0297852-1.3999023
			V50.8613281z M80.9702148,57.7314453c1.1865234-0.1865234,2.0229492-0.8632813,2.5097656-2.0297852
			c0.2001953-0.5,0.3300781-1.0634766,0.3901367-1.6904297l0.7299805,0.090332
			c-0.1401367,1.5864258-0.7001953,2.7734375-1.6801758,3.5600586c-0.7133789,0.5664063-1.5766602,0.8496094-2.5898438,0.8496094
			h-0.1601563v-7.6499023h0.800293V57.7314453z"/>
		<path fill="#7D7D7E" d="M92.0898438,50.2714844l0.550293-0.2900391c0.2797852,0.4536133,0.5600586,0.9501953,0.8398438,1.4902344
			l-0.2797852,0.1396484v0.1499023c0,2.4404297-0.6337891,4.2104492-1.9003906,5.3100586
			c-1.0532227,0.9067383-2.6166992,1.4501953-4.6899414,1.6303711l-0.1196289-0.7001953
			c2.1264648-0.2001953,3.6430664-0.7763672,4.5498047-1.7299805c0.1665039-0.1733398,0.3134766-0.3564453,0.4399414-0.5498047
			c-1.1201172-0.5737305-2.2167969-1.09375-3.2900391-1.5600586l0.3500977-0.6704102
			c1.2001953,0.5200195,2.2998047,1.0400391,3.2998047,1.5600586c0.3334961-0.7797852,0.5166016-1.7431641,0.550293-2.8896484h-4
			c-0.3867188,1.1865234-1.0366211,2.2099609-1.9501953,3.0698242l-0.5200195-0.4799805
			c1.0068359-0.9467773,1.6635742-2.1430664,1.9702148-3.5898438C87.9365234,50.9282227,87.9731445,50.6948242,88,50.4614258
			l0.7299805,0.0400391c-0.0332031,0.3266602-0.0834961,0.6464844-0.1499023,0.9599609h4.199707
			C92.5263672,50.9951172,92.2963867,50.5981445,92.0898438,50.2714844z M93.4399414,50.1015625L94,49.8115234
			c0.2998047,0.4931641,0.5864258,1,0.8598633,1.5200195l-0.5600586,0.2797852
			C94.0063477,51.0581055,93.7202148,50.5546875,93.4399414,50.1015625z"/>
	</g>
</g>
<line fill="none" stroke="#6D99B4" stroke-width="0.25" stroke-miterlimit="10" x1="4" y1="1" x2="432.3330078" y2="1"/>
<line fill="none" stroke="#6D99B4" stroke-width="0.25" stroke-miterlimit="10" x1="4" y1="124" x2="432.3330078" y2="124"/>
</svg>
