<?xml version="1.0" encoding="utf-8"?>
<!-- Generator: Adobe Illustrator 16.0.3, SVG Export Plug-In . SVG Version: 6.00 Build 0)  -->
<!DOCTYPE svg PUBLIC "-//W3C//DTD SVG 1.1//EN" "http://www.w3.org/Graphics/SVG/1.1/DTD/svg11.dtd">
<svg version="1.1" id="レイヤー_1" xmlns="http://www.w3.org/2000/svg" xmlns:xlink="http://www.w3.org/1999/xlink" x="0px"
	 y="0px" width="650px" height="125px" viewBox="0 0 650 125" enable-background="new 0 0 650 125" xml:space="preserve">
<g>
	<path fill="#70A0BB" d="M46.8500977,13.0195313V5.7197266h0.8100586l2.5996094,4.3999023h0.0200195l2.590332-4.3999023h0.8398438
		v7.2998047h-0.7998047V7.0595703h-0.0200195l-2.25,3.7900391h-0.75l-2.25-3.7900391h-0.0200195v5.9599609H46.8500977z"/>
	<path fill="#70A0BB" d="M55.7099609,6.6196289V5.5195313h0.7802734v1.1000977H55.7099609z M55.7099609,13.0195313V7.8193359
		h0.7802734v5.2001953H55.7099609z"/>
	<path fill="#70A0BB" d="M58.090332,10.3193359c0-0.8261719,0.1831055-1.4663086,0.5498047-1.9199219
		c0.3666992-0.453125,0.8730469-0.6796875,1.5200195-0.6796875c0.7797852,0,1.3564453,0.3232422,1.7299805,0.9697266h0.0200195
		l0.0200195-0.8701172h0.7001953v4.7700195c0,1.8203125-0.8134766,2.7299805-2.4404297,2.7299805
		c-0.5595703,0-1.0966797-0.1064453-1.6098633-0.3198242l0.1601563-0.5898438
		c0.4731445,0.206543,0.956543,0.3100586,1.449707,0.3100586c0.5869141,0,1.0166016-0.1635742,1.2900391-0.4902344
		s0.4101563-0.8632813,0.4101563-1.6098633v-0.6401367h-0.0200195c-0.3598633,0.6269531-0.9301758,0.9399414-1.7099609,0.9399414
		c-0.6069336,0-1.1035156-0.2333984-1.4902344-0.699707C58.2832031,11.7529297,58.090332,11.1196289,58.090332,10.3193359z
		 M58.8100586,10.3193359c0,0.6137695,0.1401367,1.1000977,0.4199219,1.4599609
		c0.2802734,0.3603516,0.6464844,0.5400391,1.1000977,0.5400391c0.4599609,0,0.8364258-0.1728516,1.1298828-0.5200195
		c0.293457-0.3461914,0.4365234-0.8232422,0.4301758-1.4296875v-0.1000977c0-0.6064453-0.1464844-1.0834961-0.4399414-1.4301758
		c-0.293457-0.3461914-0.6669922-0.5200195-1.1201172-0.5200195c-0.4731445,0-0.8432617,0.1738281-1.1098633,0.5200195
		C58.9536133,9.1860352,58.8168945,9.6796875,58.8100586,10.3193359z"/>
	<path fill="#70A0BB" d="M64.7998047,7.8193359v3.2299805c0,0.5336914,0.0883789,0.9067383,0.2651367,1.1201172
		c0.1762695,0.2133789,0.4716797,0.3203125,0.8847656,0.3203125c0.3867188,0,0.7382813-0.1870117,1.0551758-0.5600586
		c0.3164063-0.3735352,0.4750977-0.8168945,0.4750977-1.3300781V7.8193359h0.7397461v5.2001953h-0.699707L67.5,12.0893555
		h-0.0200195c-0.2001953,0.3203125-0.4550781,0.5717773-0.7651367,0.7553711
		c-0.3100586,0.1831055-0.6416016,0.2749023-0.9951172,0.2749023c-0.5600586,0-0.9731445-0.1582031-1.2397461-0.4750977
		c-0.2666016-0.3164063-0.3999023-0.8251953-0.3999023-1.5249023v-3.300293H64.7998047z"/>
	<path fill="#70A0BB" d="M74.9897461,13.0195313V6.6796875h-0.0200195l-1.9702148,1.8198242l-0.3100586-0.6499023
		l2.300293-2.1298828h0.7998047v7.2998047H74.9897461z"/>
	<path fill="#70A0BB" d="M78.9194336,5.7792969c0.6933594-0.1064453,1.3701172-0.159668,2.0297852-0.159668
		c0.9067383,0,1.5932617,0.1933594,2.0600586,0.5800781s0.703125,0.9331055,0.7099609,1.6396484
		c0,0.7734375-0.2368164,1.3603516-0.7099609,1.7602539s-1.1601563,0.6000977-2.0600586,0.6000977
		c-0.4399414,0-0.8500977-0.0200195-1.2299805-0.0600586v2.8798828h-0.7998047V5.7792969z M79.7192383,9.4794922
		c0.3867188,0.0537109,0.7768555,0.0800781,1.1699219,0.0800781c0.6665039,0,1.1733398-0.1435547,1.5200195-0.4301758
		s0.5200195-0.6962891,0.5200195-1.2299805c0-0.5332031-0.1733398-0.9399414-0.5200195-1.2197266
		C82.0625,6.3994141,81.5556641,6.2631836,80.8891602,6.2695313c-0.3666992,0-0.7563477,0.0332031-1.1699219,0.1000977V9.4794922z"
		/>
	<path fill="#70A0BB" d="M89.9194336,6.2993164c-0.6601563,0-1.3203125,0.2299805-1.9799805,0.6904297l-0.2402344-0.6401367
		c0.6801758-0.4868164,1.453125-0.7299805,2.3198242-0.7299805c0.7133789,0,1.2666016,0.1796875,1.6601563,0.5400391
		c0.3935547,0.3598633,0.5898438,0.8696289,0.5898438,1.5297852c0,0.6533203-0.2363281,1.3134766-0.7099609,1.9799805
		c-0.4731445,0.6669922-1.3598633,1.5537109-2.659668,2.6601563v0.0200195h3.3999023v0.6699219h-4.5v-0.6699219
		c1.4199219-1.1801758,2.3833008-2.0966797,2.8901367-2.75c0.5063477-0.6533203,0.7597656-1.2700195,0.7597656-1.8500977
		c0-0.4731445-0.1298828-0.8334961-0.3901367-1.0800781C90.7993164,6.4228516,90.4194336,6.2993164,89.9194336,6.2993164z"/>
	<path fill="#70A0BB" d="M94.3291016,6.4897461c0.4599609-0.5800781,1.1064453-0.8701172,1.9399414-0.8701172
		c0.8330078,0,1.4799805,0.2900391,1.9399414,0.8701172c0.4599609,0.5795898,0.6899414,1.5395508,0.6899414,2.8798828
		c0,1.3398438-0.2299805,2.2998047-0.6899414,2.8798828s-1.1069336,0.8701172-1.9399414,0.8701172
		c-0.8334961,0-1.4799805-0.2900391-1.9399414-0.8701172s-0.6899414-1.5400391-0.6899414-2.8798828
		C93.6391602,8.0292969,93.8691406,7.0693359,94.3291016,6.4897461z M96.269043,12.4697266
		c0.6132813,0.0063477,1.0732422-0.2368164,1.3798828-0.7299805c0.3066406-0.4936523,0.456543-1.2836914,0.4501953-2.3701172
		c0.0063477-1.0864258-0.1435547-1.8764648-0.4501953-2.3701172c-0.3066406-0.4931641-0.7666016-0.7363281-1.3798828-0.7299805
		c-0.6137695-0.0063477-1.0737305,0.2368164-1.3798828,0.7299805c-0.3071289,0.4936523-0.4570313,1.2836914-0.4501953,2.3701172
		c-0.0068359,1.0864258,0.1430664,1.8764648,0.4501953,2.3701172C95.1953125,12.2329102,95.6552734,12.4760742,96.269043,12.4697266
		z"/>
	<path fill="#70A0BB" d="M102.4892578,13.0195313V6.6796875h-0.0200195l-1.9702148,1.8198242l-0.3100586-0.6499023
		l2.300293-2.1298828h0.7998047v7.2998047H102.4892578z"/>
	<path fill="#70A0BB" d="M110.6894531,6.3896484h-3.1601563l-0.1401367,2.3598633h0.0200195
		c0.3935547-0.2333984,0.8369141-0.3500977,1.3300781-0.3500977c0.7133789,0,1.2666016,0.1933594,1.6601563,0.5800781
		c0.3930664,0.3867188,0.5898438,0.9335938,0.5898438,1.6401367c0,0.8134766-0.2265625,1.4331055-0.6796875,1.8598633
		c-0.4536133,0.4267578-1.1235352,0.6401367-2.0102539,0.6401367c-0.6801758,0-1.3066406-0.1601563-1.8798828-0.4799805
		l0.199707-0.6601563c0.5600586,0.3134766,1.1201172,0.4702148,1.6801758,0.4702148
		c1.2602539,0,1.8901367-0.6103516,1.8901367-1.8300781c0-0.5200195-0.1367188-0.9135742-0.4101563-1.1801758
		s-0.6665039-0.3999023-1.1801758-0.3999023c-0.5263672,0-0.9633789,0.1533203-1.3095703,0.4599609h-0.7001953l0.2202148-3.7797852
		h3.8798828V6.3896484z"/>
	<path fill="#70A0BB" d="M112.9296875,6.4897461c0.4599609-0.5800781,1.1064453-0.8701172,1.9399414-0.8701172
		c0.8330078,0,1.4799805,0.2900391,1.9399414,0.8701172c0.4599609,0.5795898,0.6899414,1.5395508,0.6899414,2.8798828
		c0,1.3398438-0.2299805,2.2998047-0.6899414,2.8798828s-1.1069336,0.8701172-1.9399414,0.8701172
		c-0.8334961,0-1.4799805-0.2900391-1.9399414-0.8701172s-0.6899414-1.5400391-0.6899414-2.8798828
		C112.2397461,8.0292969,112.4697266,7.0693359,112.9296875,6.4897461z M114.8696289,12.4697266
		c0.6132813,0.0063477,1.0732422-0.2368164,1.3798828-0.7299805c0.3066406-0.4936523,0.456543-1.2836914,0.4501953-2.3701172
		c0.0063477-1.0864258-0.1435547-1.8764648-0.4501953-2.3701172c-0.3066406-0.4931641-0.7666016-0.7363281-1.3798828-0.7299805
		c-0.6137695-0.0063477-1.0737305,0.2368164-1.3798828,0.7299805c-0.3071289,0.4936523-0.4570313,1.2836914-0.4501953,2.3701172
		c-0.0068359,1.0864258,0.1430664,1.8764648,0.4501953,2.3701172
		C113.7958984,12.2329102,114.2558594,12.4760742,114.8696289,12.4697266z"/>
	<path fill="#70A0BB" d="M118.7495117,5.7197266h4.7001953v0.6699219c-1.1533203,1.8935547-2.1166992,4.1035156-2.8901367,6.6298828
		h-0.8398438c0.7666016-2.4130859,1.753418-4.6166992,2.9599609-6.6098633V6.3896484h-3.9301758V5.7197266z"/>
	<path fill="#70A0BB" d="M127.2900391,13.0195313V6.6796875h-0.0200195l-1.9702148,1.8198242l-0.3100586-0.6499023
		l2.300293-2.1298828h0.7998047v7.2998047H127.2900391z"/>
	<path fill="#70A0BB" d="M133.3203125,6.2993164c-0.6601563,0-1.3203125,0.2299805-1.9799805,0.6904297l-0.2402344-0.6401367
		c0.6801758-0.4868164,1.453125-0.7299805,2.3198242-0.7299805c0.7133789,0,1.2666016,0.1796875,1.6601563,0.5400391
		c0.3935547,0.3598633,0.5898438,0.8696289,0.5898438,1.5297852c0,0.6533203-0.2363281,1.3134766-0.7099609,1.9799805
		c-0.4731445,0.6669922-1.3598633,1.5537109-2.659668,2.6601563v0.0200195h3.3999023v0.6699219h-4.5v-0.6699219
		c1.4199219-1.1801758,2.3833008-2.0966797,2.8901367-2.75c0.5063477-0.6533203,0.7597656-1.2700195,0.7597656-1.8500977
		c0-0.4731445-0.1298828-0.8334961-0.3901367-1.0800781C134.2001953,6.4228516,133.8203125,6.2993164,133.3203125,6.2993164z"/>
</g>
<g>
	<path fill="#7D7D7E" d="M49.7099609,35.0292969l-1.0258789-0.9360352c1.355957-1.5595703,2.4536133-2.8554688,3.2939453-3.8876953
		c1.0317383-1.2602539,1.7158203-2.0219727,2.0517578-2.2861328c0.3720703-0.2758789,0.8222656-0.4140625,1.3500977-0.4140625
		s0.9960938,0.144043,1.4042969,0.4321289c0.371582,0.2641602,1.1699219,0.9780273,2.394043,2.1420898
		c2.1474609,2.0517578,4.1875,3.9238281,6.1196289,5.6157227l-0.9360352,1.0800781
		c-2.0878906-1.8359375-4.265625-3.8398438-6.5336914-6.0117188c-1.0322266-0.9960938-1.6743164-1.5600586-1.9262695-1.6923828
		c-0.1796875-0.0834961-0.3662109-0.1259766-0.5576172-0.1259766c-0.3125,0-0.6245117,0.1621094-0.9360352,0.4863281
		c-0.2285156,0.2402344-0.6484375,0.7319336-1.2602539,1.4755859
		C51.7919922,32.5878906,50.6459961,33.9614258,49.7099609,35.0292969z"/>
	<path fill="#7D7D7E" d="M67.8540039,27.5776367V26.371582h4.2299805c0.1079102-0.4438477,0.2578125-1.2719727,0.4501953-2.4838867
		l1.3320313,0.1079102c-0.1083984,0.7319336-0.2641602,1.5239258-0.4682617,2.3759766h8.7480469v1.2060547h-9.0361328
		c-0.3842773,1.4038086-0.90625,2.8076172-1.565918,4.2119141l0.0180664,0.0361328
		c1.2958984-0.6362305,2.6396484-1.0083008,4.0322266-1.1162109c0.1914063-0.0117188,0.371582-0.0180664,0.5395508-0.0180664
		c2.6879883,0,4.2900391,0.8759766,4.8061523,2.6279297c0.1196289,0.3959961,0.1801758,0.8222656,0.1801758,1.2783203
		c0,1.4755859-0.7084961,2.6098633-2.1240234,3.4018555c-1.1518555,0.6479492-2.6040039,0.972168-4.355957,0.972168
		c-1.4643555,0-2.9101563-0.1381836-4.3383789-0.4140625l0.2163086-1.2060547
		c1.4399414,0.2758789,2.8139648,0.4140625,4.1220703,0.4140625c2.0756836,0,3.5517578-0.4921875,4.4277344-1.4760742
		c0.4438477-0.5039063,0.6660156-1.0917969,0.6660156-1.7641602c-0.0239258-1.7397461-1.2416992-2.6157227-3.6538086-2.6279297
		c-1.4643555,0-2.9282227,0.3598633-4.3920898,1.0800781c-0.3359375,0.1796875-0.6420898,0.3598633-0.9179688,0.5400391
		l-1.1518555-0.5400391c0.9599609-1.8959961,1.6796875-3.6958008,2.159668-5.3999023H67.8540039z"/>
	<path fill="#7D7D7E" d="M94.9257813,23.8515625v2.0336914h4.9140625v1.2060547h-4.9140625v2.394043h4.3203125v1.2060547h-4.3203125
		v3.6542969c1.2841797,0.6958008,2.7900391,1.7880859,4.5180664,3.2758789l-0.8457031,0.9541016
		c-1.3803711-1.2119141-2.6103516-2.1538086-3.6899414-2.8261719c-0.0961914,1.5600586-0.6601563,2.5737305-1.6923828,3.0419922
		c-0.5639648,0.2397461-1.2958984,0.3598633-2.1958008,0.3598633c-1.6083984,0-2.7358398-0.4921875-3.3837891-1.4760742
		c-0.300293-0.4677734-0.4501953-1.0136719-0.4501953-1.6376953c0-1.2841797,0.6176758-2.1420898,1.8540039-2.5742188
		c0.5639648-0.1918945,1.2241211-0.2880859,1.9799805-0.2880859c0.8037109,0,1.6621094,0.1865234,2.5742188,0.5581055v-3.0419922
		h-6.840332v-1.2060547h6.840332v-2.394043h-7.434082v-1.2060547h7.434082v-2.0336914H94.9257813z M93.5942383,35.0292969
		c-0.9003906-0.4316406-1.7163086-0.6479492-2.4482422-0.6479492c-1.7163086,0.012207-2.5800781,0.5644531-2.5917969,1.65625
		c0,0.8759766,0.4438477,1.4580078,1.3320313,1.7460938c0.3476563,0.1079102,0.7255859,0.1616211,1.1337891,0.1616211
		c1.1279297,0,1.8657227-0.2817383,2.2138672-0.8457031c0.2402344-0.4199219,0.3603516-1.0561523,0.3603516-1.9082031V35.0292969z"
		/>
	<path fill="#7D7D7E" d="M121.9799805,27.2714844v-1.2060547h2.987793c0.1679688-0.8398438,0.3120117-1.6259766,0.4321289-2.3579102
		l1.3139648,0.1259766c-0.1796875,1.0800781-0.3120117,1.8242188-0.3959961,2.2319336h6.5161133v1.2060547h-6.7680664
		c-0.8881836,4.2480469-1.9921875,8.2143555-3.3120117,11.8979492l-1.3139648-0.3237305
		c1.3320313-3.6479492,2.4238281-7.5063477,3.2758789-11.5742188H121.9799805z M136.0561523,37.2255859l0.1616211,1.2060547
		c-1.3676758,0.2397461-2.6337891,0.3598633-3.7978516,0.3598633c-1.9799805,0-3.4379883-0.4321289-4.3740234-1.2958984
		c-0.5283203-0.4921875-0.7919922-1.0498047-0.7919922-1.6743164c0.0117188-0.8999023,0.684082-1.8237305,2.0161133-2.7719727
		l0.8461914,0.8100586c-0.9360352,0.6723633-1.4404297,1.2241211-1.512207,1.65625
		c-0.012207,0.0600586-0.0180664,0.1201172-0.0180664,0.1796875c0,0.6723633,0.4858398,1.1821289,1.4580078,1.5302734
		c0.659668,0.2402344,1.4516602,0.3598633,2.3759766,0.3598633C133.5,37.5854492,134.7119141,37.4658203,136.0561523,37.2255859z
		 M135.8398438,30.6376953c-2.4838867,0-4.8662109,0.1557617-7.1459961,0.4677734l-0.1079102-1.1879883
		c2.4238281-0.3242188,4.8422852-0.4858398,7.2539063-0.4858398V30.6376953z"/>
	<path fill="#7D7D7E" d="M138.684082,34.2734375c1.355957-1.5595703,2.4536133-2.855957,3.2939453-3.8881836
		c1.0317383-1.2597656,1.7158203-2.0214844,2.0517578-2.2856445c0.3720703-0.2758789,0.8222656-0.4140625,1.3500977-0.4140625
		s0.9960938,0.144043,1.4042969,0.4321289c0.371582,0.2636719,1.1699219,0.9780273,2.394043,2.1416016
		c2.1474609,2.0522461,4.1875,3.9243164,6.1196289,5.6162109l-0.9360352,1.0800781
		c-2.0878906-1.8359375-4.265625-3.8398438-6.5336914-6.012207c-1.0322266-0.9956055-1.6743164-1.5595703-1.9262695-1.6918945
		c-0.1796875-0.0839844-0.3662109-0.1259766-0.5576172-0.1259766c-0.3125,0-0.6245117,0.1621094-0.9360352,0.4858398
		c-0.2285156,0.2402344-0.6484375,0.7324219-1.2602539,1.4760742c-1.355957,1.6801758-2.5019531,3.0541992-3.4379883,4.1220703
		L138.684082,34.2734375z M148.421875,25.7954102l1.1523438-0.6118164c0.7075195,1.1401367,1.3256836,2.2202148,1.8540039,3.2397461
		l-1.1879883,0.5761719C149.6879883,27.9438477,149.0820313,26.8754883,148.421875,25.7954102z M151.0678711,25.0395508
		l1.1879883-0.6298828c0.6000977,0.9599609,1.2241211,2.0517578,1.8720703,3.2758789l-1.1879883,0.59375
		C152.4238281,27.3432617,151.7998047,26.2636719,151.0678711,25.0395508z"/>
	<path fill="#7D7D7E" d="M167.2319336,37.621582c2.0400391-0.5039063,3.065918-1.7158203,3.078125-3.6362305
		c0-1.6435547-0.9541016-2.6035156-2.8618164-2.8798828c-0.4204102-0.0600586-0.8764648-0.0898438-1.3681641-0.0898438
		c-2.4482422,0.0117188-4.9858398,0.7558594-7.6142578,2.2319336l-0.5219727-0.972168l9.7202148-6.1376953v-0.0361328h-8.4238281
		v-1.1699219h10.8540039l0.0717773,1.1879883l-7.0561523,4.265625l0.0180664,0.0180664
		c1.199707-0.3237305,2.3222656-0.4858398,3.3662109-0.4858398c3.515625,0.012207,5.2797852,1.3203125,5.2919922,3.9238281
		c0,2.2680664-1.0561523,3.8041992-3.1679688,4.6083984c-1.0322266,0.3837891-2.2680664,0.5756836-3.7080078,0.5756836
		c-3.3725586-0.0239258-5.0703125-0.9838867-5.0942383-2.8798828c0-0.828125,0.4321289-1.4760742,1.2958984-1.9438477
		c0.7080078-0.3842773,1.5961914-0.5761719,2.6640625-0.5761719c2.5078125,0.012207,3.7680664,0.8759766,3.7802734,2.5917969
		C167.5561523,36.6376953,167.4482422,37.1054688,167.2319336,37.621582z M165.8637695,37.8193359
		c0.2998047-0.5756836,0.4501953-1.0737305,0.4501953-1.4936523c-0.0239258-1.0200195-0.894043-1.5361328-2.6098633-1.5483398
		c-1.2124023,0-2.0043945,0.2944336-2.3759766,0.8823242c-0.0961914,0.1557617-0.144043,0.3178711-0.144043,0.4858398
		c0,0.9482422,0.8876953,1.5058594,2.6640625,1.6738281c0.3354492,0.0244141,0.6899414,0.0361328,1.0620117,0.0361328
		C165.1499023,37.8554688,165.4677734,37.84375,165.8637695,37.8193359z"/>
	<path fill="#7D7D7E" d="M193.7099609,35.2094727l-1.0258789-0.9360352c1.355957-1.5595703,2.4536133-2.855957,3.2939453-3.8881836
		c1.0317383-1.2597656,1.7158203-2.0214844,2.0517578-2.2856445c0.3720703-0.2758789,0.8222656-0.4140625,1.3500977-0.4140625
		s0.9960938,0.144043,1.4042969,0.4321289c0.371582,0.2636719,1.1699219,0.9780273,2.394043,2.1416016
		c2.1474609,2.0522461,4.1875,3.9243164,6.1196289,5.6162109l-0.9360352,1.0800781
		c-2.0878906-1.8359375-4.265625-3.8398438-6.5336914-6.012207c-1.0322266-0.9956055-1.6743164-1.5595703-1.9262695-1.6918945
		c-0.1796875-0.0839844-0.3662109-0.1259766-0.5576172-0.1259766c-0.3125,0-0.6245117,0.1621094-0.9360352,0.4858398
		c-0.2285156,0.2402344-0.6484375,0.7324219-1.2602539,1.4760742
		C195.7919922,32.7675781,194.6459961,34.1416016,193.7099609,35.2094727z M205.8598633,23.4013672
		c1.0561523,0,1.9199219,0.4082031,2.5922852,1.2241211c0.515625,0.6240234,0.7739258,1.3383789,0.7739258,2.1420898
		c0,1.0561523-0.4082031,1.9140625-1.2241211,2.5737305c-0.6240234,0.5161133-1.3383789,0.7739258-2.1420898,0.7739258
		c-1.0561523,0-1.9199219-0.4018555-2.5917969-1.2055664c-0.5161133-0.6362305-0.7739258-1.3500977-0.7739258-2.1420898
		c0-1.0561523,0.4077148-1.9199219,1.2236328-2.5922852C204.3417969,23.659668,205.0556641,23.4013672,205.8598633,23.4013672z
		 M205.8598633,29.0356445c0.7919922,0,1.4160156-0.3242188,1.8720703-0.972168
		c0.2758789-0.3959961,0.4140625-0.828125,0.4140625-1.2958984c0-0.7797852-0.3178711-1.3979492-0.9541016-1.8540039
		c-0.4082031-0.2880859-0.8520508-0.4321289-1.3320313-0.4321289c-0.7802734,0-1.3979492,0.3178711-1.8540039,0.9541016
		c-0.2880859,0.4082031-0.4316406,0.8520508-0.4316406,1.3320313c0,0.7919922,0.3237305,1.4101563,0.9716797,1.8540039
		C204.9536133,28.8974609,205.3920898,29.0356445,205.8598633,29.0356445z"/>
	<path fill="#7D7D7E" d="M215.0942383,27.9194336c-0.2402344,1.7641602-0.456543,3.1923828-0.6484375,4.2841797l0.0361328,0.0180664
		c1.199707-0.9360352,2.6396484-1.578125,4.3198242-1.9262695c0.6123047-0.1318359,1.1884766-0.1977539,1.7280273-0.1977539
		c3.3481445,0.0239258,5.0283203,1.3618164,5.0400391,4.0136719c0,2.4482422-1.5180664,3.972168-4.5537109,4.5722656
		c-0.9482422,0.1918945-2.0283203,0.2880859-3.2402344,0.2880859c-1.1879883,0-2.4238281-0.0722656-3.7080078-0.2163086
		l0.0722656-1.2241211c1.487793,0.15625,2.699707,0.234375,3.6357422,0.234375c3.8881836,0,5.9638672-1.0678711,6.2280273-3.2041016
		c0.0239258-0.144043,0.0361328-0.2939453,0.0361328-0.4501953c0-1.6674805-0.972168-2.5976563-2.9160156-2.7900391
		c-0.2519531-0.0239258-0.5102539-0.0356445-0.7739258-0.0356445c-1.3564453,0-2.855957,0.4438477-4.5,1.3320313
		c-0.6601563,0.3598633-1.2543945,0.7558594-1.7822266,1.1879883l-1.2236328-0.3242188
		c0.3115234-1.7397461,0.6118164-3.6357422,0.8999023-5.6879883L215.0942383,27.9194336z M215.1118164,24.7514648
		c2.7841797,0.3598633,5.472168,0.5400391,8.0639648,0.5400391v1.2060547c-2.7241211,0-5.4599609-0.1801758-8.2080078-0.5400391
		L215.1118164,24.7514648z"/>
	<path fill="#7D7D7E" d="M229.7099609,35.2094727l-1.0258789-0.9360352c1.355957-1.5595703,2.4536133-2.855957,3.2939453-3.8881836
		c1.0317383-1.2597656,1.7158203-2.0214844,2.0517578-2.2856445c0.3720703-0.2758789,0.8222656-0.4140625,1.3500977-0.4140625
		s0.9960938,0.144043,1.4042969,0.4321289c0.371582,0.2636719,1.1699219,0.9780273,2.394043,2.1416016
		c2.1474609,2.0522461,4.1875,3.9243164,6.1196289,5.6162109l-0.9360352,1.0800781
		c-2.0878906-1.8359375-4.265625-3.8398438-6.5336914-6.012207c-1.0322266-0.9956055-1.6743164-1.5595703-1.9262695-1.6918945
		c-0.1796875-0.0839844-0.3662109-0.1259766-0.5576172-0.1259766c-0.3125,0-0.6245117,0.1621094-0.9360352,0.4858398
		c-0.2285156,0.2402344-0.6484375,0.7324219-1.2602539,1.4760742
		C231.7919922,32.7675781,230.6459961,34.1416016,229.7099609,35.2094727z M241.8598633,23.4013672
		c1.0561523,0,1.9199219,0.4082031,2.5922852,1.2241211c0.515625,0.6240234,0.7739258,1.3383789,0.7739258,2.1420898
		c0,1.0561523-0.4082031,1.9140625-1.2241211,2.5737305c-0.6240234,0.5161133-1.3383789,0.7739258-2.1420898,0.7739258
		c-1.0561523,0-1.9199219-0.4018555-2.5917969-1.2055664c-0.5161133-0.6362305-0.7739258-1.3500977-0.7739258-2.1420898
		c0-1.0561523,0.4077148-1.9199219,1.2236328-2.5922852C240.3417969,23.659668,241.0556641,23.4013672,241.8598633,23.4013672z
		 M241.8598633,29.0356445c0.7919922,0,1.4160156-0.3242188,1.8720703-0.972168
		c0.2758789-0.3959961,0.4140625-0.828125,0.4140625-1.2958984c0-0.7797852-0.3178711-1.3979492-0.9541016-1.8540039
		c-0.4082031-0.2880859-0.8520508-0.4321289-1.3320313-0.4321289c-0.7802734,0-1.3979492,0.3178711-1.8540039,0.9541016
		c-0.2880859,0.4082031-0.4316406,0.8520508-0.4316406,1.3320313c0,0.7919922,0.3237305,1.4101563,0.9716797,1.8540039
		C240.9536133,28.8974609,241.3920898,29.0356445,241.8598633,29.0356445z"/>
	<path fill="#7D7D7E" d="M251.0942383,27.9194336c-0.2402344,1.7641602-0.456543,3.1923828-0.6484375,4.2841797l0.0361328,0.0180664
		c1.199707-0.9360352,2.6396484-1.578125,4.3198242-1.9262695c0.6123047-0.1318359,1.1884766-0.1977539,1.7280273-0.1977539
		c3.3481445,0.0239258,5.0283203,1.3618164,5.0400391,4.0136719c0,2.4482422-1.5180664,3.972168-4.5537109,4.5722656
		c-0.9482422,0.1918945-2.0283203,0.2880859-3.2402344,0.2880859c-1.1879883,0-2.4238281-0.0722656-3.7080078-0.2163086
		l0.0722656-1.2241211c1.487793,0.15625,2.699707,0.234375,3.6357422,0.234375c3.8881836,0,5.9638672-1.0678711,6.2280273-3.2041016
		c0.0239258-0.144043,0.0361328-0.2939453,0.0361328-0.4501953c0-1.6674805-0.972168-2.5976563-2.9160156-2.7900391
		c-0.2519531-0.0239258-0.5102539-0.0356445-0.7739258-0.0356445c-1.3564453,0-2.855957,0.4438477-4.5,1.3320313
		c-0.6601563,0.3598633-1.2543945,0.7558594-1.7822266,1.1879883l-1.2236328-0.3242188
		c0.3115234-1.7397461,0.6118164-3.6357422,0.8999023-5.6879883L251.0942383,27.9194336z M251.1118164,24.7514648
		c2.7841797,0.3598633,5.472168,0.5400391,8.0639648,0.5400391v1.2060547c-2.7241211,0-5.4599609-0.1801758-8.2080078-0.5400391
		L251.1118164,24.7514648z"/>
	<path fill="#7D7D7E" d="M56.9819336,54.1513672c-0.4560547-0.4321289-0.75-0.7080078-0.8818359-0.828125
		c-0.3364258-0.2998047-0.6123047-0.449707-0.828125-0.449707c-0.15625,0-0.3359375,0.0898438-0.5400391,0.2700195
		c-0.1918945,0.1796875-1.1518555,1.2841797-2.8798828,3.3120117c-0.3242188,0.3720703-0.8100586,0.6118164-1.4580078,0.7197266
		c-0.15625,0.0244141-0.5883789,0.0361328-1.2958984,0.0361328v-1.4399414c0.0957031,0,0.2036133-0.0058594,0.3237305-0.0180664
		c0.7919922-0.0478516,1.2358398-0.1259766,1.3320313-0.2338867c0.2758789-0.3242188,0.5761719-0.6777344,0.8999023-1.0620117
		c1.0444336-1.2958984,1.6801758-2.0522461,1.9082031-2.2680664c0.527832-0.5039063,1.0981445-0.7558594,1.7099609-0.7558594
		c0.4077148,0,0.7739258,0.078125,1.0981445,0.2338867c0.3837891,0.1918945,1.0678711,0.762207,2.0517578,1.7099609
		c2.4838867,2.4121094,4.7700195,4.5244141,6.8579102,6.3359375l-0.9355469,1.0800781
		C61.5957031,58.4057617,59.1420898,56.1918945,56.9819336,54.1513672z"/>
	<path fill="#7D7D7E" d="M70.6259766,48.9853516h1.4399414V52.53125c0,3.4560547-0.3061523,5.8862305-0.9179688,7.2900391
		c-0.4677734,1.0800781-1.2597656,1.9443359-2.3759766,2.5922852c-0.2519531,0.144043-0.5283203,0.2880859-0.828125,0.4321289
		l-0.737793-1.1884766c1.1040039-0.5395508,1.8779297-1.1518555,2.3217773-1.8359375
		c0.6000977-0.9238281,0.9477539-2.5136719,1.0439453-4.7700195c0.0361328-0.7197266,0.0541992-1.5595703,0.0541992-2.5200195
		V48.9853516z M76.7460938,61.3515625c2.1357422-0.3359375,3.6416016-1.5541992,4.5180664-3.6542969
		c0.3598633-0.8999023,0.59375-1.9135742,0.7016602-3.0419922l1.3139648,0.1621094
		c-0.2519531,2.855957-1.2597656,4.9921875-3.0239258,6.4082031c-1.2841797,1.0200195-2.8378906,1.5297852-4.6616211,1.5297852
		h-0.2880859V48.9853516h1.4399414V61.3515625z"/>
	<path fill="#7D7D7E" d="M98.6518555,46.9516602c1.0083008,0,1.8300781,0.3901367,2.4663086,1.1699219
		c0.4677734,0.5878906,0.7016602,1.2539063,0.7016602,1.9980469c0,1.0078125-0.3901367,1.8242188-1.1699219,2.4477539
		c-0.5039063,0.3959961-1.0742188,0.6240234-1.7099609,0.684082c-0.6362305,4.1040039-2.7060547,6.894043-6.2099609,8.3701172
		c-1.4399414,0.6118164-3.1259766,1.0195313-5.0581055,1.2241211l-0.2338867-1.2783203
		c4.0561523-0.4438477,6.8759766-1.8115234,8.4599609-4.1040039c0.815918-1.1879883,1.3618164-2.6577148,1.6381836-4.4101563
		c-0.8525391-0.3237305-1.4462891-0.8935547-1.7822266-1.7099609c-0.0361328-0.0957031-0.065918-0.1796875-0.0898438-0.2519531
		h-9.8642578v-1.3139648h9.7202148c0.0957031-0.9716797,0.5517578-1.7338867,1.3681641-2.2856445
		C97.4282227,47.1313477,98.015625,46.9516602,98.6518555,46.9516602z M98.6518555,52.2436523
		c0.7563477,0,1.34375-0.3061523,1.7641602-0.9179688c0.2519531-0.3720703,0.3779297-0.7744141,0.3779297-1.2060547
		c0-0.7563477-0.3120117-1.34375-0.9360352-1.7641602c-0.3720703-0.2519531-0.7739258-0.3779297-1.2060547-0.3779297
		c-0.7558594,0-1.34375,0.3120117-1.7636719,0.9360352c-0.2402344,0.3720703-0.3603516,0.7739258-0.3603516,1.2060547
		c0,0.7680664,0.3120117,1.355957,0.9360352,1.7636719C97.8242188,52.1235352,98.2202148,52.2436523,98.6518555,52.2436523z"/>
	<path fill="#7D7D7E" d="M125.0039063,61.4414063c4.4038086-0.2636719,7.5-2.1240234,9.2880859-5.5800781
		c0.2758789-0.527832,0.5219727-1.0917969,0.737793-1.6918945l1.2783203,0.5039063
		c-1.8964844,5.2202148-5.8203125,7.9199219-11.7719727,8.1000977c-0.2402344,0.0117188-0.4741211,0.0180664-0.7021484,0.0180664
		h-0.2880859V48.8774414h1.4580078V61.4414063z"/>
	<path fill="#7D7D7E" d="M146.9819336,54.1513672c-0.4560547-0.4321289-0.75-0.7080078-0.8818359-0.828125
		c-0.3364258-0.2998047-0.6123047-0.449707-0.828125-0.449707c-0.15625,0-0.3359375,0.0898438-0.5400391,0.2700195
		c-0.1918945,0.1796875-1.1518555,1.2841797-2.8798828,3.3120117c-0.3242188,0.3720703-0.8100586,0.6118164-1.4580078,0.7197266
		c-0.15625,0.0244141-0.5883789,0.0361328-1.2958984,0.0361328v-1.4399414c0.0957031,0,0.2036133-0.0058594,0.3237305-0.0180664
		c0.7919922-0.0478516,1.2358398-0.1259766,1.3320313-0.2338867c0.2758789-0.3242188,0.5761719-0.6777344,0.8999023-1.0620117
		c1.0444336-1.2958984,1.6801758-2.0522461,1.9082031-2.2680664c0.527832-0.5039063,1.0981445-0.7558594,1.7099609-0.7558594
		c0.4077148,0,0.7739258,0.078125,1.0981445,0.2338867c0.3837891,0.1918945,1.0678711,0.762207,2.0517578,1.7099609
		c2.4838867,2.4121094,4.7700195,4.5244141,6.8579102,6.3359375l-0.9355469,1.0800781
		C151.5957031,58.4057617,149.1420898,56.1918945,146.9819336,54.1513672z M150.7080078,52.6933594l1.1699219-0.5756836
		c-0.5639648-1.0683594-1.1762695-2.1420898-1.8359375-3.222168l-1.1699219,0.6118164
		C149.6640625,50.8154297,150.2758789,51.8774414,150.7080078,52.6933594z M153.4082031,51.9736328l1.1879883-0.5761719
		c-0.5761719-1.0917969-1.2060547-2.184082-1.8901367-3.2758789l-1.1699219,0.6118164
		C152.2675781,49.9575195,152.8920898,51.0375977,153.4082031,51.9736328z"/>
	<path fill="#7D7D7E" d="M160.6259766,48.9853516h1.4399414V52.53125c0,3.4560547-0.3061523,5.8862305-0.9179688,7.2900391
		c-0.4677734,1.0800781-1.2597656,1.9443359-2.3759766,2.5922852c-0.2519531,0.144043-0.5283203,0.2880859-0.828125,0.4321289
		l-0.737793-1.1884766c1.1040039-0.5395508,1.8779297-1.1518555,2.3217773-1.8359375
		c0.6000977-0.9238281,0.9477539-2.5136719,1.0439453-4.7700195c0.0361328-0.7197266,0.0541992-1.5595703,0.0541992-2.5200195
		V48.9853516z M166.7460938,61.3515625c2.1357422-0.3359375,3.6416016-1.5541992,4.5180664-3.6542969
		c0.3598633-0.8999023,0.59375-1.9135742,0.7016602-3.0419922l1.3139648,0.1621094
		c-0.2519531,2.855957-1.2597656,4.9921875-3.0239258,6.4082031c-1.2841797,1.0200195-2.8378906,1.5297852-4.6616211,1.5297852
		h-0.2880859V48.9853516h1.4399414V61.3515625z"/>
	<path fill="#7D7D7E" d="M200.9819336,54.1513672c-0.4560547-0.4321289-0.75-0.7080078-0.8818359-0.828125
		c-0.3364258-0.2998047-0.6123047-0.449707-0.828125-0.449707c-0.15625,0-0.3359375,0.0898438-0.5400391,0.2700195
		c-0.1918945,0.1796875-1.1518555,1.2841797-2.8798828,3.3120117c-0.3242188,0.3720703-0.8100586,0.6118164-1.4580078,0.7197266
		c-0.15625,0.0244141-0.5883789,0.0361328-1.2958984,0.0361328v-1.4399414c0.0957031,0,0.2036133-0.0058594,0.3237305-0.0180664
		c0.7919922-0.0478516,1.2358398-0.1259766,1.3320313-0.2338867c0.2758789-0.3242188,0.5761719-0.6777344,0.8999023-1.0620117
		c1.0444336-1.2958984,1.6801758-2.0522461,1.9082031-2.2680664c0.527832-0.5039063,1.0981445-0.7558594,1.7099609-0.7558594
		c0.4077148,0,0.7739258,0.078125,1.0981445,0.2338867c0.3837891,0.1918945,1.0678711,0.762207,2.0517578,1.7099609
		c2.4838867,2.4121094,4.7700195,4.5244141,6.8579102,6.3359375l-0.9355469,1.0800781
		C205.5957031,58.4057617,203.1420898,56.1918945,200.9819336,54.1513672z M203.7177734,48.175293
		c-0.815918,0.6723633-1.2236328,1.5361328-1.2236328,2.5922852c0,0.7919922,0.2578125,1.5058594,0.7739258,2.1420898
		c0.671875,0.8037109,1.5356445,1.2055664,2.5917969,1.2055664c0.8037109,0,1.5180664-0.2578125,2.1420898-0.7739258
		c0.815918-0.659668,1.2241211-1.5175781,1.2241211-2.5737305c0-0.8037109-0.2583008-1.5180664-0.7739258-2.1420898
		c-0.6723633-0.815918-1.5361328-1.2241211-2.5922852-1.2241211
		C205.0556641,47.4013672,204.3417969,47.659668,203.7177734,48.175293z M204.5458984,52.621582
		c-0.6479492-0.4438477-0.9716797-1.0620117-0.9716797-1.8540039c0-0.4799805,0.1435547-0.9238281,0.4316406-1.3320313
		c0.4560547-0.6362305,1.0737305-0.9541016,1.8540039-0.9541016c0.4799805,0,0.9238281,0.144043,1.3320313,0.4321289
		c0.6362305,0.4560547,0.9541016,1.0742188,0.9541016,1.8540039c0,0.4677734-0.1381836,0.8999023-0.4140625,1.2958984
		c-0.4560547,0.6479492-1.0800781,0.972168-1.8720703,0.972168
		C205.3920898,53.0356445,204.9536133,52.8974609,204.5458984,52.621582z"/>
	<path fill="#7D7D7E" d="M214.6259766,48.9853516h1.4399414V52.53125c0,3.4560547-0.3061523,5.8862305-0.9179688,7.2900391
		c-0.4677734,1.0800781-1.2597656,1.9443359-2.3759766,2.5922852c-0.2519531,0.144043-0.5283203,0.2880859-0.828125,0.4321289
		l-0.737793-1.1884766c1.1040039-0.5395508,1.8779297-1.1518555,2.3217773-1.8359375
		c0.6000977-0.9238281,0.9477539-2.5136719,1.0439453-4.7700195c0.0361328-0.7197266,0.0541992-1.5595703,0.0541992-2.5200195
		V48.9853516z M220.7460938,61.3515625c2.1357422-0.3359375,3.6416016-1.5541992,4.5180664-3.6542969
		c0.3598633-0.8999023,0.59375-1.9135742,0.7016602-3.0419922l1.3139648,0.1621094
		c-0.2519531,2.855957-1.2597656,4.9921875-3.0239258,6.4082031c-1.2841797,1.0200195-2.8378906,1.5297852-4.6616211,1.5297852
		h-0.2880859V48.9853516h1.4399414V61.3515625z"/>
	<path fill="#7D7D7E" d="M230.1420898,49.7416992l1.3320313-0.5581055c1.0317383,2.159668,1.9619141,4.2001953,2.7900391,6.1196289
		l-1.3681641,0.5224609C231.8881836,53.4975586,230.9702148,51.4692383,230.1420898,49.7416992z M243.894043,49.0395508
		c-0.2158203,4.0317383-1.0258789,7.0380859-2.4301758,9.0180664c-1.3081055,1.8598633-3.3837891,3.1860352-6.2280273,3.9780273
		c-0.815918,0.2158203-1.7099609,0.4077148-2.6816406,0.5756836l-0.2524414-1.2958984
		c3.144043-0.5639648,5.4541016-1.5239258,6.9301758-2.8798828c1.512207-1.3920898,2.5019531-3.5283203,2.9702148-6.4082031
		c0.1557617-0.9238281,0.2636719-1.949707,0.3237305-3.0776367L243.894043,49.0395508z"/>
	<path fill="#7D7D7E" d="M247.4941406,51.8115234h7.4516602v-3.6542969h1.4404297v3.6542969h6.1196289v1.3139648h-6.1196289
		v0.4858398c0,2.9882813-0.5644531,5.1782227-1.6923828,6.5703125c-1.0200195,1.2597656-2.699707,2.1479492-5.0400391,2.6640625
		l-0.449707-1.2783203c2.0878906-0.4677734,3.5517578-1.2358398,4.3920898-2.3037109
		c0.8754883-1.1162109,1.3256836-2.9160156,1.3496094-5.4003906c0-0.0957031,0-0.1796875,0-0.2519531v-0.4858398h-7.4516602
		V51.8115234z"/>
</g>
<g>
	<path fill="#7D7D7E" d="M50.1958008,85.7080078l-1.7636719-1.65625c1.1757813-1.3676758,2.1420898-2.5317383,2.8979492-3.4916992
		c1.1396484-1.4399414,1.9199219-2.3222656,2.3398438-2.6459961c0.4921875-0.2998047,1.0620117-0.4560547,1.7099609-0.4682617
		c0.6123047,0,1.1162109,0.1201172,1.512207,0.3603516c0.4794922,0.2758789,1.5117188,1.1699219,3.0957031,2.6816406
		l0.0180664,0.0180664l0.0180664,0.0180664l0.0180664,0.0180664l0.0180664,0.0180664l0.0180664,0.0180664l0.0180664,0.0180664
		l0.0356445,0.0356445c1.9799805,1.8964844,3.7919922,3.5761719,5.4360352,5.0400391l-1.6557617,1.8901367
		c-2.0878906-1.8720703-4.1640625-3.8100586-6.2280273-5.8139648c-1.0683594-1.0317383-1.734375-1.6020508-1.9980469-1.7099609
		c-0.1079102-0.0478516-0.2280273-0.0722656-0.3598633-0.0722656c-0.2880859,0-0.5825195,0.15625-0.8823242,0.4682617
		c-0.2158203,0.2519531-0.5698242,0.6899414-1.0620117,1.3139648
		C52.3139648,83.1401367,51.2519531,84.4599609,50.1958008,85.7080078z"/>
	<path fill="#7D7D7E" d="M67.7460938,78.2739258v-2.0341797h3.9599609c0.1079102-0.5517578,0.2275391-1.2958984,0.3598633-2.2319336
		l2.2680664,0.144043c-0.0839844,0.7084961-0.1918945,1.4042969-0.3242188,2.0878906h8.2441406v2.0341797h-8.7299805
		c-0.3237305,1.1162109-0.6660156,2.1181641-1.0258789,3.0058594l0.0180664,0.0361328
		c1.2958984-0.5039063,2.5258789-0.7558594,3.6899414-0.7558594c2.5439453,0,4.1401367,0.828125,4.7880859,2.4838867
		c0.2036133,0.5039063,0.3056641,1.0742188,0.3056641,1.7099609c0,1.512207-0.7016602,2.6943359-2.105957,3.5458984
		c-1.199707,0.7202148-2.7177734,1.0800781-4.5537109,1.0800781c-1.5361328,0-3.0419922-0.1621094-4.5180664-0.4858398
		l0.3959961-2.0341797c1.487793,0.3242188,2.8618164,0.4863281,4.1220703,0.4863281
		c1.8115234,0,3.0717773-0.4438477,3.7797852-1.3320313c0.3242188-0.4082031,0.4858398-0.8642578,0.4858398-1.3681641
		c-0.0239258-1.355957-0.9658203-2.0400391-2.8256836-2.0522461c-1.65625,0.012207-3.2460938,0.5102539-4.7700195,1.4941406
		l-2.0698242-0.8637695c0.9116211-1.8837891,1.5717773-3.5341797,1.9799805-4.9501953H67.7460938z"/>
	<path fill="#7D7D7E" d="M85.9799805,75.8261719h7.1459961v-1.7460938h2.2680664v1.7460938h4.6259766v2.0336914H95.394043v1.565918
		h3.9599609v1.9980469H95.394043v2.9160156c1.3076172,0.7441406,2.7236328,1.8061523,4.2480469,3.1860352l-1.421875,1.5839844
		c-0.984375-0.9116211-1.956543-1.7099609-2.9160156-2.394043c-0.2402344,1.3564453-0.9604492,2.2143555-2.1601563,2.5742188
		c-0.5761719,0.1801758-1.2841797,0.2700195-2.1240234,0.2700195c-1.7641602,0-2.9760742-0.5463867-3.6362305-1.6381836
		c-0.2998047-0.4916992-0.449707-1.0678711-0.449707-1.7280273c0-1.4155273,0.6660156-2.3637695,1.9980469-2.84375
		c0.5878906-0.2163086,1.2836914-0.3242188,2.0878906-0.3242188c0.7319336,0,1.4335938,0.1020508,2.105957,0.3061523v-1.9082031
		h-6.4799805v-1.9980469h6.4799805v-1.565918h-7.1459961V75.8261719z M93.1259766,85.4560547
		c-0.7080078-0.2880859-1.3320313-0.4321289-1.8720703-0.4321289c-1.2480469,0.1079102-1.9077148,0.4980469-1.9799805,1.1699219
		c0,0.6962891,0.3837891,1.1225586,1.1518555,1.2783203c0.1918945,0.0356445,0.3901367,0.0537109,0.5942383,0.0537109
		c0.9477539,0,1.5537109-0.2036133,1.8178711-0.6118164C93.0297852,86.6020508,93.1259766,86.1162109,93.1259766,85.4560547z"/>
	<path fill="#7D7D7E" d="M121.7998047,78.0400391v-2.0341797h2.8623047
		c0.1679688-0.9599609,0.2939453-1.6855469,0.3779297-2.1777344l2.2861328,0.1977539
		c-0.144043,0.8881836-0.2583008,1.5483398-0.3422852,1.9799805h6.2822266v2.0341797h-6.6782227
		c-0.8041992,4.0078125-1.8242188,7.8359375-3.0600586,11.4838867l-2.2680664-0.5219727
		c1.2241211-3.5878906,2.2202148-7.2416992,2.9882813-10.9619141H121.7998047z M136.1279297,86.8061523l0.2700195,2.0336914
		c-1.2958984,0.2402344-2.5620117,0.3603516-3.7978516,0.3603516c-2.1123047,0-3.6601563-0.4746094-4.644043-1.4223633
		c-0.5400391-0.527832-0.8100586-1.1337891-0.8100586-1.8178711c0.0117188-0.9360352,0.6118164-1.8657227,1.7998047-2.7900391
		l1.6381836,1.0439453c-0.7319336,0.6240234-1.1162109,1.0864258-1.1518555,1.3862305
		c-0.012207,0.0478516-0.0180664,0.0898438-0.0180664,0.1259766c0,0.5161133,0.4077148,0.9121094,1.2241211,1.1879883
		c0.5517578,0.1679688,1.2060547,0.2519531,1.9619141,0.2519531
		C133.6801758,87.1660156,134.855957,87.0463867,136.1279297,86.8061523z M135.9838867,81.4960938
		c-2.5556641,0-4.9799805,0.1381836-7.2719727,0.4140625l-0.144043-2.0161133
		c2.3520508-0.2758789,4.8242188-0.4140625,7.4160156-0.4140625V81.4960938z"/>
	<path fill="#7D7D7E" d="M140.1958008,85.8881836l-1.7636719-1.65625c1.1757813-1.3681641,2.1420898-2.5317383,2.8979492-3.4921875
		c1.1396484-1.4399414,1.9199219-2.3217773,2.3398438-2.6459961c0.4921875-0.2998047,1.0620117-0.4555664,1.7099609-0.4677734
		c0.6123047,0,1.1162109,0.1201172,1.512207,0.3598633c0.4794922,0.2763672,1.5117188,1.1699219,3.0957031,2.6821289
		l0.0180664,0.0180664l0.0180664,0.0180664l0.0180664,0.0180664l0.0180664,0.0175781l0.0180664,0.0180664l0.0180664,0.0180664
		l0.0356445,0.0361328c1.9799805,1.8959961,3.7919922,3.5761719,5.4360352,5.0400391l-1.6557617,1.8901367
		c-2.0878906-1.8720703-4.1640625-3.8100586-6.2280273-5.8139648c-1.0683594-1.0322266-1.734375-1.6020508-1.9980469-1.7104492
		c-0.1079102-0.0473633-0.2280273-0.0717773-0.3598633-0.0717773c-0.2880859,0-0.5825195,0.15625-0.8823242,0.4677734
		c-0.2158203,0.2524414-0.5698242,0.6904297-1.0620117,1.3144531
		C142.3139648,83.3203125,141.2519531,84.6401367,140.1958008,85.8881836z M151.9140625,77.7880859l-2.0341797,0.9716797
		c-0.4799805-0.9355469-1.0380859-1.9736328-1.6738281-3.1137695l2.0341797-1.0258789
		C150.7797852,75.6040039,151.3378906,76.6601563,151.9140625,77.7880859z M155.1000977,77.1401367l-2.0703125,0.9897461
		c-0.5161133-0.9956055-1.0859375-2.0576172-1.7099609-3.1860352l2.0703125-1.0439453
		C154.1577148,75.315918,154.7280273,76.3959961,155.1000977,77.1401367z"/>
	<path fill="#7D7D7E" d="M167.5380859,87.1660156c1.2714844-0.515625,1.9140625-1.4458008,1.9257813-2.7900391
		c0-1.3681641-0.8041992-2.171875-2.4121094-2.4121094c-0.3720703-0.0595703-0.7856445-0.0898438-1.2416992-0.0898438
		c-2.0161133,0-4.0024414,0.4199219-5.9580078,1.2597656c-0.4204102,0.1801758-0.8461914,0.378418-1.277832,0.5942383
		l-0.828125-1.65625l8.4057617-5.09375v-0.0180664h-7.1816406v-1.9799805h11.4658203l0.0180664,2.0341797l-5.9042969,3.2758789
		l0.0180664,0.0180664c0.8037109-0.1557617,1.5361328-0.2338867,2.1962891-0.2338867
		c2.7358398,0,4.4038086,0.8759766,5.0039063,2.6279297c0.144043,0.4316406,0.2158203,0.9179688,0.2158203,1.4580078
		c0,2.171875-0.9780273,3.7021484-2.934082,4.5898438c-1.1401367,0.5039063-2.5375977,0.7558594-4.1938477,0.7558594
		c-3.2880859,0-5.0581055-0.9121094-5.3100586-2.7358398c-0.0239258-0.1557617-0.0361328-0.3061523-0.0361328-0.4501953
		c0-0.8999023,0.4560547-1.6196289,1.3681641-2.159668c0.7797852-0.4438477,1.7460938-0.6660156,2.8979492-0.6660156
		c2.3520508,0,3.6362305,0.7260742,3.8520508,2.1777344c0.0239258,0.168457,0.0361328,0.3422852,0.0361328,0.5219727
		C167.6640625,86.5302734,167.621582,86.8540039,167.5380859,87.1660156z M165.3242188,87.5620117
		c0.2036133-0.4438477,0.3056641-0.815918,0.3056641-1.1162109c0-0.5874023-0.3540039-0.9477539-1.0620117-1.0795898
		c-0.2641602-0.0478516-0.5698242-0.0722656-0.9179688-0.0722656c-0.9838867,0-1.5839844,0.2460938-1.7998047,0.737793
		c-0.0361328,0.0961914-0.0541992,0.1923828-0.0541992,0.2880859c0.0239258,0.840332,1.0439453,1.2602539,3.0600586,1.2602539
		c0.0478516,0,0.1259766,0,0.2338867,0C165.1982422,87.5683594,165.2758789,87.5620117,165.3242188,87.5620117z"/>
	<path fill="#7D7D7E" d="M194.1958008,85.8881836l-1.7636719-1.65625c1.1757813-1.3681641,2.1420898-2.5317383,2.8979492-3.4921875
		c1.1396484-1.4399414,1.9199219-2.3217773,2.3398438-2.6459961c0.4921875-0.2998047,1.0620117-0.4555664,1.7099609-0.4677734
		c0.6123047,0,1.1162109,0.1201172,1.512207,0.3598633c0.4794922,0.2763672,1.5117188,1.1699219,3.0957031,2.6821289
		l0.0180664,0.0180664l0.0180664,0.0180664l0.0180664,0.0180664l0.0180664,0.0175781l0.0180664,0.0180664l0.0180664,0.0180664
		l0.0356445,0.0361328c1.9799805,1.8959961,3.7919922,3.5761719,5.4360352,5.0400391l-1.6557617,1.8901367
		c-2.0878906-1.8720703-4.1640625-3.8100586-6.2280273-5.8139648c-1.0683594-1.0322266-1.734375-1.6020508-1.9980469-1.7104492
		c-0.1079102-0.0473633-0.2280273-0.0717773-0.3598633-0.0717773c-0.2880859,0-0.5825195,0.15625-0.8823242,0.4677734
		c-0.2158203,0.2524414-0.5698242,0.6904297-1.0620117,1.3144531
		C196.3139648,83.3203125,195.2519531,84.6401367,194.1958008,85.8881836z M206.0761719,73.1801758
		c1.1396484,0,2.0878906,0.4316406,2.84375,1.2958984c0.6000977,0.7080078,0.8999023,1.5239258,0.8999023,2.4477539
		c0,1.1401367-0.4316406,2.0883789-1.2958984,2.8442383C207.815918,80.3681641,207,80.6679688,206.0761719,80.6679688
		c-1.1401367,0-2.0883789-0.4321289-2.8442383-1.2958984c-0.6000977-0.7080078-0.8999023-1.5239258-0.8999023-2.4482422
		c0-1.1396484,0.4321289-2.0878906,1.2958984-2.84375C204.3359375,73.4799805,205.1518555,73.1801758,206.0761719,73.1801758z
		 M206.0761719,79.0478516c0.7436523,0,1.3256836-0.3056641,1.7456055-0.9179688
		c0.2524414-0.371582,0.378418-0.7739258,0.378418-1.2060547c0-0.7436523-0.3061523-1.3256836-0.9179688-1.7456055
		c-0.3725586-0.2524414-0.7744141-0.378418-1.2060547-0.378418c-0.7441406,0-1.3261719,0.3061523-1.7460938,0.9179688
		c-0.2519531,0.3720703-0.3779297,0.7744141-0.3779297,1.2060547c0,0.7441406,0.3056641,1.3261719,0.9179688,1.7460938
		C205.2416992,78.921875,205.644043,79.0478516,206.0761719,79.0478516z"/>
	<path fill="#7D7D7E" d="M213.3662109,78.2202148l2.3398438,0.1796875
		c-0.1079102,0.9121094-0.2763672,2.0581055-0.5039063,3.4379883l0.0356445,0.0180664
		c1.3798828-0.9599609,2.8862305-1.5356445,4.5180664-1.7280273c0.2998047-0.0361328,0.5878906-0.0537109,0.8642578-0.0537109
		c2.8798828,0,4.565918,0.9477539,5.0581055,2.84375c0.1079102,0.4321289,0.1616211,0.90625,0.1616211,1.421875
		c0,2.0283203-1.0498047,3.4560547-3.1499023,4.2841797c-1.2597656,0.5039063-2.8320313,0.7558594-4.7158203,0.7558594
		c-1.4160156,0-2.7963867-0.078125-4.1401367-0.2338867l0.1621094-2.0698242
		c1.7519531,0.1796875,3.078125,0.2700195,3.9780273,0.2700195c2.4956055,0,4.0976563-0.5761719,4.8056641-1.7280273
		c0.2402344-0.3842773,0.3603516-0.8100586,0.3603516-1.2783203c-0.0244141-1.4638672-0.984375-2.2016602-2.8803711-2.2138672
		c-1.4399414,0-3.1557617,0.6240234-5.1479492,1.8720703c-0.1679688,0.1079102-0.3359375,0.2158203-0.5039063,0.3237305
		l-2.1420898-0.4677734C212.8261719,81.8017578,213.1259766,79.9243164,213.3662109,78.2202148z M214.9858398,74.7998047
		c2.8320313,0.3603516,5.6879883,0.5400391,8.5683594,0.5400391v2.0341797c-2.9765625,0-5.9165039-0.1801758-8.8203125-0.5400391
		L214.9858398,74.7998047z"/>
	<path fill="#7D7D7E" d="M230.1958008,85.8881836l-1.7636719-1.65625c1.1757813-1.3681641,2.1420898-2.5317383,2.8979492-3.4921875
		c1.1396484-1.4399414,1.9199219-2.3217773,2.3398438-2.6459961c0.4921875-0.2998047,1.0620117-0.4555664,1.7099609-0.4677734
		c0.6123047,0,1.1162109,0.1201172,1.512207,0.3598633c0.4794922,0.2763672,1.5117188,1.1699219,3.0957031,2.6821289
		l0.0180664,0.0180664l0.0180664,0.0180664l0.0180664,0.0180664l0.0180664,0.0175781l0.0180664,0.0180664l0.0180664,0.0180664
		l0.0356445,0.0361328c1.9799805,1.8959961,3.7919922,3.5761719,5.4360352,5.0400391l-1.6557617,1.8901367
		c-2.0878906-1.8720703-4.1640625-3.8100586-6.2280273-5.8139648c-1.0683594-1.0322266-1.734375-1.6020508-1.9980469-1.7104492
		c-0.1079102-0.0473633-0.2280273-0.0717773-0.3598633-0.0717773c-0.2880859,0-0.5825195,0.15625-0.8823242,0.4677734
		c-0.2158203,0.2524414-0.5698242,0.6904297-1.0620117,1.3144531
		C232.3139648,83.3203125,231.2519531,84.6401367,230.1958008,85.8881836z M242.0761719,73.1801758
		c1.1396484,0,2.0878906,0.4316406,2.84375,1.2958984c0.6000977,0.7080078,0.8999023,1.5239258,0.8999023,2.4477539
		c0,1.1401367-0.4316406,2.0883789-1.2958984,2.8442383C243.815918,80.3681641,243,80.6679688,242.0761719,80.6679688
		c-1.1401367,0-2.0883789-0.4321289-2.8442383-1.2958984c-0.6000977-0.7080078-0.8999023-1.5239258-0.8999023-2.4482422
		c0-1.1396484,0.4321289-2.0878906,1.2958984-2.84375C240.3359375,73.4799805,241.1518555,73.1801758,242.0761719,73.1801758z
		 M242.0761719,79.0478516c0.7436523,0,1.3256836-0.3056641,1.7456055-0.9179688
		c0.2524414-0.371582,0.378418-0.7739258,0.378418-1.2060547c0-0.7436523-0.3061523-1.3256836-0.9179688-1.7456055
		c-0.3725586-0.2524414-0.7744141-0.378418-1.2060547-0.378418c-0.7441406,0-1.3261719,0.3061523-1.7460938,0.9179688
		c-0.2519531,0.3720703-0.3779297,0.7744141-0.3779297,1.2060547c0,0.7441406,0.3056641,1.3261719,0.9179688,1.7460938
		C241.2416992,78.921875,241.644043,79.0478516,242.0761719,79.0478516z"/>
	<path fill="#7D7D7E" d="M249.3662109,78.2202148l2.3398438,0.1796875
		c-0.1079102,0.9121094-0.2763672,2.0581055-0.5039063,3.4379883l0.0356445,0.0180664
		c1.3798828-0.9599609,2.8862305-1.5356445,4.5180664-1.7280273c0.2998047-0.0361328,0.5878906-0.0537109,0.8642578-0.0537109
		c2.8798828,0,4.565918,0.9477539,5.0581055,2.84375c0.1079102,0.4321289,0.1616211,0.90625,0.1616211,1.421875
		c0,2.0283203-1.0498047,3.4560547-3.1499023,4.2841797c-1.2597656,0.5039063-2.8320313,0.7558594-4.7158203,0.7558594
		c-1.4160156,0-2.7963867-0.078125-4.1401367-0.2338867l0.1621094-2.0698242
		c1.7519531,0.1796875,3.078125,0.2700195,3.9780273,0.2700195c2.4956055,0,4.0976563-0.5761719,4.8056641-1.7280273
		c0.2402344-0.3842773,0.3603516-0.8100586,0.3603516-1.2783203c-0.0244141-1.4638672-0.984375-2.2016602-2.8803711-2.2138672
		c-1.4399414,0-3.1557617,0.6240234-5.1479492,1.8720703c-0.1679688,0.1079102-0.3359375,0.2158203-0.5039063,0.3237305
		l-2.1420898-0.4677734C248.8261719,81.8017578,249.1259766,79.9243164,249.3662109,78.2202148z M250.9858398,74.7998047
		c2.8320313,0.3603516,5.6879883,0.5400391,8.5683594,0.5400391v2.0341797c-2.9765625,0-5.9165039-0.1801758-8.8203125-0.5400391
		L250.9858398,74.7998047z"/>
	<path fill="#7D7D7E" d="M55.7758789,104.2358398C55.4277344,103.9121094,55.2241211,103.75,55.1640625,103.75
		c-0.012207,0.012207-0.0302734,0.0180664-0.0541992,0.0180664c-0.1318359,0.0839844-1.1220703,1.2119141-2.9697266,3.3837891
		c-0.6240234,0.7084961-1.6083984,1.0263672-2.9521484,0.9541016c-0.1079102-0.0117188-0.1743164-0.0180664-0.1977539-0.0180664
		v-2.5200195c0.6235352,0,1.0556641-0.0361328,1.2958984-0.1079102c0.2636719-0.3120117,0.5581055-0.6660156,0.8818359-1.0620117
		c0.9960938-1.2358398,1.6137695-1.9736328,1.8540039-2.2138672c0.6479492-0.6362305,1.3618164-0.9541016,2.1420898-0.9541016
		c0.5639648,0,1.0678711,0.1142578,1.5117188,0.3417969c0.4321289,0.2402344,1.1762695,0.8823242,2.2324219,1.9262695
		c2.4116211,2.3642578,4.6196289,4.4160156,6.6240234,6.1557617l-1.65625,1.8901367
		C60.3120117,108.4477539,57.6118164,106.012207,55.7758789,104.2358398z"/>
	<path fill="#7D7D7E" d="M70.0859375,98.9257813h2.4482422v3.6542969c0,3.4916992-0.300293,5.9580078-0.9003906,7.3979492
		c-0.4677734,1.1518555-1.277832,2.0761719-2.4296875,2.7719727c-0.3125,0.1918945-0.6542969,0.3779297-1.0258789,0.5581055
		l-1.2963867-2.0161133c1.0678711-0.5400391,1.800293-1.1040039,2.1962891-1.6918945
		c0.527832-0.7680664,0.8398438-2.0942383,0.9360352-3.9780273c0.0478516-0.7797852,0.0717773-1.7939453,0.0717773-3.0419922
		V98.9257813z M77.3759766,110.6259766c1.5361328-0.3959961,2.5981445-1.3920898,3.1860352-2.987793
		c0.2998047-0.8041992,0.5039063-1.7939453,0.6118164-2.9702148l2.2861328,0.3242188
		c-0.5039063,5.4238281-3.222168,8.1416016-8.1538086,8.1538086h-0.4321289V98.9257813h2.5019531V110.6259766z"/>
	<path fill="#7D7D7E" d="M98.3100586,97.1801758c1.1040039,0,2.0039063,0.4199219,2.699707,1.2597656
		c0.5400391,0.6601563,0.8100586,1.4101563,0.8100586,2.25c0,1.0800781-0.4140625,1.9741211-1.2416992,2.6821289
		c-0.4799805,0.3959961-1.0200195,0.6542969-1.6201172,0.7739258c-0.7319336,3.840332-2.7539063,6.4741211-6.065918,7.9018555
		c-1.5244141,0.6479492-3.3481445,1.0737305-5.472168,1.2783203L86.987793,111.09375
		c3.5522461-0.3354492,6.078125-1.3618164,7.578125-3.0776367c0.9599609-1.1040039,1.6020508-2.5439453,1.9262695-4.3203125
		c-0.6479492-0.3959961-1.1225586-0.9477539-1.4223633-1.6557617h-9.449707v-2.2861328h9.3056641
		c0.2763672-0.9838867,0.8642578-1.7099609,1.7641602-2.1777344C97.2060547,97.3120117,97.7456055,97.1801758,98.3100586,97.1801758
		z M98.3100586,102.6699219c0.7080078,0,1.2539063-0.2939453,1.6381836-0.8818359
		c0.2275391-0.3359375,0.3417969-0.7021484,0.3417969-1.0981445c0-0.7080078-0.2944336-1.2539063-0.8818359-1.6381836
		c-0.3364258-0.2275391-0.7021484-0.3417969-1.0981445-0.3417969c-0.7080078,0-1.2543945,0.2944336-1.6381836,0.8818359
		c-0.2280273,0.3364258-0.3417969,0.7021484-0.3417969,1.0981445c0,0.7080078,0.2939453,1.2539063,0.8818359,1.6381836
		C97.5478516,102.5561523,97.9140625,102.6699219,98.3100586,102.6699219z"/>
	<path fill="#7D7D7E" d="M125.7060547,110.8242188c2.7597656-0.2763672,4.871582-1.2241211,6.3359375-2.8442383
		c0.9477539-1.0556641,1.7338867-2.4599609,2.3579102-4.2119141l2.2138672,0.8637695
		c-1.2119141,3.3120117-3.0180664,5.628418-5.4179688,6.9482422c-1.9677734,1.0800781-4.5175781,1.6201172-7.6499023,1.6201172
		h-0.4321289V98.8540039h2.5922852V110.8242188z"/>
	<path fill="#7D7D7E" d="M145.7758789,104.2358398c-0.3481445-0.3237305-0.5517578-0.4858398-0.6118164-0.4858398
		c-0.012207,0.012207-0.0302734,0.0180664-0.0541992,0.0180664c-0.1318359,0.0839844-1.1220703,1.2119141-2.9697266,3.3837891
		c-0.6240234,0.7084961-1.6083984,1.0263672-2.9521484,0.9541016c-0.1079102-0.0117188-0.1743164-0.0180664-0.1977539-0.0180664
		v-2.5200195c0.6235352,0,1.0556641-0.0361328,1.2958984-0.1079102c0.2636719-0.3120117,0.5581055-0.6660156,0.8818359-1.0620117
		c0.9960938-1.2358398,1.6137695-1.9736328,1.8540039-2.2138672c0.6479492-0.6362305,1.3618164-0.9541016,2.1420898-0.9541016
		c0.5639648,0,1.0678711,0.1142578,1.5117188,0.3417969c0.4321289,0.2402344,1.1762695,0.8823242,2.2324219,1.9262695
		c2.4116211,2.3642578,4.6196289,4.4160156,6.6240234,6.1557617l-1.65625,1.8901367
		C150.3120117,108.4477539,147.6118164,106.012207,145.7758789,104.2358398z M150.7260742,98.6201172l-2.0161133,1.0258789
		c0.6357422,1.1401367,1.1938477,2.1782227,1.6738281,3.1137695l2.0161133-0.9716797
		C151.8242188,100.6601563,151.2661133,99.6040039,150.7260742,98.6201172z M153.8759766,97.8999023l-2.0698242,1.0439453
		c0.6235352,1.128418,1.1938477,2.1904297,1.7099609,3.1860352l2.0698242-0.9897461
		C155.2138672,100.3959961,154.644043,99.315918,153.8759766,97.8999023z"/>
	<path fill="#7D7D7E" d="M160.0859375,98.9257813h2.4482422v3.6542969c0,3.4916992-0.300293,5.9580078-0.9003906,7.3979492
		c-0.4677734,1.1518555-1.277832,2.0761719-2.4296875,2.7719727c-0.3125,0.1918945-0.6542969,0.3779297-1.0258789,0.5581055
		l-1.2963867-2.0161133c1.0678711-0.5400391,1.800293-1.1040039,2.1962891-1.6918945
		c0.527832-0.7680664,0.8398438-2.0942383,0.9360352-3.9780273c0.0478516-0.7797852,0.0717773-1.7939453,0.0717773-3.0419922
		V98.9257813z M167.3759766,110.6259766c1.5361328-0.3959961,2.5981445-1.3920898,3.1860352-2.987793
		c0.2998047-0.8041992,0.5039063-1.7939453,0.6118164-2.9702148l2.2861328,0.3242188
		c-0.5039063,5.4238281-3.222168,8.1416016-8.1538086,8.1538086h-0.4321289V98.9257813h2.5019531V110.6259766z"/>
	<path fill="#7D7D7E" d="M199.7758789,104.2358398c-0.3481445-0.3237305-0.5517578-0.4858398-0.6118164-0.4858398
		c-0.012207,0.012207-0.0302734,0.0180664-0.0541992,0.0180664c-0.1318359,0.0839844-1.1220703,1.2119141-2.9697266,3.3837891
		c-0.6240234,0.7084961-1.6083984,1.0263672-2.9521484,0.9541016c-0.1079102-0.0117188-0.1743164-0.0180664-0.1977539-0.0180664
		v-2.5200195c0.6235352,0,1.0556641-0.0361328,1.2958984-0.1079102c0.2636719-0.3120117,0.5581055-0.6660156,0.8818359-1.0620117
		c0.9960938-1.2358398,1.6137695-1.9736328,1.8540039-2.2138672c0.6479492-0.6362305,1.3618164-0.9541016,2.1420898-0.9541016
		c0.5639648,0,1.0678711,0.1142578,1.5117188,0.3417969c0.4321289,0.2402344,1.1762695,0.8823242,2.2324219,1.9262695
		c2.4116211,2.3642578,4.6196289,4.4160156,6.6240234,6.1557617l-1.65625,1.8901367
		C204.3120117,108.4477539,201.6118164,106.012207,199.7758789,104.2358398z M203.6279297,98.0800781
		c-0.8637695,0.7558594-1.2958984,1.7041016-1.2958984,2.84375c0,0.9243164,0.2998047,1.7402344,0.8999023,2.4482422
		c0.7558594,0.8637695,1.7041016,1.2958984,2.8442383,1.2958984c0.9238281,0,1.7397461-0.2998047,2.4477539-0.8999023
		c0.8642578-0.7558594,1.2958984-1.7041016,1.2958984-2.8442383c0-0.9238281-0.2998047-1.7397461-0.8999023-2.4477539
		c-0.7558594-0.8642578-1.7041016-1.2958984-2.84375-1.2958984
		C205.1518555,97.1801758,204.3359375,97.4799805,203.6279297,98.0800781z M204.8701172,102.6699219
		c-0.6123047-0.4199219-0.9179688-1.0019531-0.9179688-1.7460938c0-0.4316406,0.1259766-0.8339844,0.3779297-1.2060547
		c0.4199219-0.6118164,1.0019531-0.9179688,1.7460938-0.9179688c0.4316406,0,0.8334961,0.1259766,1.2060547,0.378418
		c0.6118164,0.4199219,0.9179688,1.0019531,0.9179688,1.7456055c0,0.4321289-0.1259766,0.8344727-0.378418,1.2060547
		c-0.4199219,0.6123047-1.0019531,0.9179688-1.7456055,0.9179688
		C205.644043,103.0478516,205.2416992,102.921875,204.8701172,102.6699219z"/>
	<path fill="#7D7D7E" d="M214.0859375,98.9257813h2.4482422v3.6542969c0,3.4916992-0.300293,5.9580078-0.9003906,7.3979492
		c-0.4677734,1.1518555-1.277832,2.0761719-2.4296875,2.7719727c-0.3125,0.1918945-0.6542969,0.3779297-1.0258789,0.5581055
		l-1.2963867-2.0161133c1.0678711-0.5400391,1.800293-1.1040039,2.1962891-1.6918945
		c0.527832-0.7680664,0.8398438-2.0942383,0.9360352-3.9780273c0.0478516-0.7797852,0.0717773-1.7939453,0.0717773-3.0419922
		V98.9257813z M221.3759766,110.6259766c1.5361328-0.3959961,2.5981445-1.3920898,3.1860352-2.987793
		c0.2998047-0.8041992,0.5039063-1.7939453,0.6118164-2.9702148l2.2861328,0.3242188
		c-0.5039063,5.4238281-3.222168,8.1416016-8.1538086,8.1538086h-0.4321289V98.9257813h2.5019531V110.6259766z"/>
	<path fill="#7D7D7E" d="M229.7460938,100.1499023l2.2680664-0.9541016c1.0195313,2.1123047,1.9799805,4.2124023,2.8798828,6.300293
		l-2.3222656,0.8818359C231.7919922,104.578125,230.8500977,102.5019531,229.7460938,100.1499023z M244.1459961,99.1601563
		c-0.1201172,4.2480469-0.8999023,7.3979492-2.3398438,9.449707c-1.3442383,1.8964844-3.4985352,3.2041016-6.4619141,3.9243164
		c-0.840332,0.1914063-1.7641602,0.3535156-2.7724609,0.4858398l-0.449707-2.2138672
		c2.9995117-0.4321289,5.184082-1.2358398,6.5517578-2.4121094c1.4282227-1.2241211,2.3461914-3.1499023,2.7543945-5.777832
		c0.1674805-1.0444336,0.2700195-2.2382813,0.3056641-3.5820313L244.1459961,99.1601563z"/>
	<path fill="#7D7D7E" d="M247.3862305,101.6801758h6.9477539v-3.3662109h2.5200195v3.3662109h5.7597656v2.2856445h-5.7597656
		v0.4140625c0,3.144043-0.8041992,5.4301758-2.4121094,6.8579102c-1.1157227,0.996582-2.7060547,1.6923828-4.7700195,2.0883789
		l-0.7558594-2.2324219c2.0756836-0.4077148,3.5097656-1.1274414,4.3017578-2.159668
		c0.7441406-0.9960938,1.1162109-2.5136719,1.1162109-4.5541992v-0.4140625h-6.9477539V101.6801758z"/>
</g>
<line fill="none" stroke="#6D99B4" stroke-width="0.25" stroke-miterlimit="10" x1="0" y1="1" x2="307.6665039" y2="1"/>
<line fill="none" stroke="#6D99B4" stroke-width="0.25" stroke-miterlimit="10" x1="0" y1="124" x2="307.6665039" y2="124"/>
</svg>
