<?xml version="1.0" encoding="utf-8"?>
<!-- Generator: Adobe Illustrator 16.0.3, SVG Export Plug-In . SVG Version: 6.00 Build 0)  -->
<!DOCTYPE svg PUBLIC "-//W3C//DTD SVG 1.1//EN" "http://www.w3.org/Graphics/SVG/1.1/DTD/svg11.dtd">
<svg version="1.1" id="レイヤー_1" xmlns="http://www.w3.org/2000/svg" xmlns:xlink="http://www.w3.org/1999/xlink" x="0px"
	 y="0px" width="650px" height="125px" viewBox="0 0 650 125" enable-background="new 0 0 650 125" xml:space="preserve">
<g>
	<path fill="#7E7E7F" d="M108.2802734,20.6040039l3.5991211,15.7685547h0.0488281l3.6728516-15.7685547h2.546875
		l3.6972656,15.7685547h0.0488281l3.5996094-15.7685547h1.934082l-4.4072266,17.8745117h-2.4731445l-3.6728516-15.7685547
		h-0.0488281l-3.6728516,15.7685547h-2.4731445l-4.4072266-17.8745117H108.2802734z"/>
	<path fill="#7E7E7F" d="M131.3457031,22.8076172v-2.6933594h1.909668v2.6933594H131.3457031z M131.3457031,38.4785156V25.7460938
		h1.909668v12.7324219H131.3457031z"/>
	<path fill="#7E7E7F" d="M137.9077148,25.7460938h1.7138672l0.0244141,2.2768555h0.0493164
		c0.4897461-0.7832031,1.1137695-1.3994141,1.8730469-1.8486328c0.7587891-0.4487305,1.5791016-0.6733398,2.4609375-0.6733398
		c1.4360352,0,2.5009766,0.4453125,3.1953125,1.3344727c0.6933594,0.8901367,1.0405273,2.2978516,1.0405273,4.2241211v7.4189453
		h-1.7631836v-7.2724609c0-1.5830078-0.2285156-2.6811523-0.6855469-3.2929688
		c-0.4570313-0.6123047-1.2407227-0.918457-2.3505859-0.918457c-0.9467773,0-1.8120117,0.4697266-2.5952148,1.4082031
		c-0.7836914,0.9384766-1.175293,2.0283203-1.175293,3.2685547v6.8071289h-1.7875977V25.7460938z"/>
	<path fill="#7E7E7F" d="M151.0810547,32.1123047c0-2.1381836,0.456543-3.7749023,1.3710938-4.909668
		c0.9140625-1.1342773,2.1708984-1.7016602,3.7705078-1.7016602c1.8447266,0,3.2158203,0.7758789,4.1137695,2.3261719h0.0488281
		v-7.7128906h1.7875977v18.3642578h-1.7138672l-0.0244141-2.1547852h-0.0493164
		c-0.8979492,1.6000977-2.2856445,2.3994141-4.1625977,2.3994141c-1.5668945,0-2.8154297-0.5751953-3.7460938-1.7260742
		S151.0810547,34.2177734,151.0810547,32.1123047z M152.84375,32.1123047c0,1.6489258,0.3388672,2.9179688,1.0161133,3.8076172
		s1.5957031,1.3344727,2.7548828,1.3344727c1.1098633,0,2.015625-0.4326172,2.7177734-1.2978516
		c0.7016602-0.8652344,1.0527344-2.0893555,1.0527344-3.6728516V31.940918c0-1.5507813-0.3510742-2.7670898-1.0527344-3.6484375
		c-0.7021484-0.8813477-1.6079102-1.3222656-2.7177734-1.3222656c-1.1918945,0-2.1181641,0.440918-2.7792969,1.3222656
		S152.84375,30.4472656,152.84375,32.1123047z"/>
	<path fill="#7E7E7F" d="M175.4682617,36.9360352c-1.09375,1.1914063-2.5463867,1.7871094-4.3583984,1.7871094
		s-3.2651367-0.5957031-4.3583984-1.7871094c-1.09375-1.1914063-1.640625-2.7993164-1.640625-4.8237305
		c0-2.0239258,0.546875-3.6318359,1.640625-4.8237305c1.0932617-1.1914063,2.5463867-1.7875977,4.3583984-1.7875977
		s3.2646484,0.5961914,4.3583984,1.7875977c1.0932617,1.1918945,1.640625,2.7998047,1.640625,4.8237305
		C177.1088867,34.1367188,176.5615234,35.7446289,175.4682617,36.9360352z M174.1582031,28.3291016
		c-0.7431641-0.9057617-1.7592773-1.3588867-3.0483398-1.3588867c-1.2900391,0-2.3061523,0.453125-3.0483398,1.3588867
		c-0.7431641,0.90625-1.1142578,2.1669922-1.1142578,3.7832031s0.3710938,2.8769531,1.1142578,3.7832031
		c0.7421875,0.9057617,1.7583008,1.3588867,3.0483398,1.3588867c1.2890625,0,2.3051758-0.453125,3.0483398-1.3588867
		c0.7426758-0.90625,1.1142578-2.1669922,1.1142578-3.7832031S174.9008789,29.2353516,174.1582031,28.3291016z"/>
	<path fill="#7E7E7F" d="M181.1977539,25.7460938l2.8154297,11.1162109H184.0625l2.7177734-11.1162109h2.5219727
		l2.7177734,11.1162109h0.0493164l2.815918-11.1162109h1.934082l-3.6240234,12.7324219h-2.4482422l-2.7177734-10.9453125h-0.0493164
		l-2.7177734,10.9453125h-2.4487305l-3.6235352-12.7324219H181.1977539z"/>
	<path fill="#7E7E7F" d="M203.96875,25.5009766c1.5673828,0,3.0117188,0.3266602,4.3339844,0.9794922l-0.4160156,1.4448242
		c-1.2573242-0.6367188-2.5629883-0.9550781-3.9179688-0.9550781c-0.9467773,0-1.6650391,0.1713867-2.1547852,0.5141602
		s-0.734375,0.824707-0.734375,1.4448242c0,0.5874023,0.2119141,1.0527344,0.6367188,1.3955078
		c0.4243164,0.3427734,1.2075195,0.6123047,2.3505859,0.8081055c1.6811523,0.277832,2.8808594,0.734375,3.5991211,1.3710938
		s1.0776367,1.5102539,1.0776367,2.6201172c0,1.09375-0.4248047,1.9672852-1.2734375,2.6201172
		c-0.8491211,0.652832-2.0161133,0.9790039-3.5014648,0.9790039c-1.746582,0-3.3139648-0.4077148-4.7011719-1.2241211
		l0.4165039-1.4448242c1.3378906,0.800293,2.7666016,1.2001953,4.284668,1.2001953
		c0.9467773,0,1.6733398-0.1796875,2.1791992-0.5390625c0.5058594-0.3588867,0.7592773-0.8891602,0.7592773-1.5913086
		c0.0161133-0.652832-0.2045898-1.1586914-0.6611328-1.5180664c-0.4570313-0.3588867-1.2490234-0.6367188-2.375-0.8325195
		c-1.6162109-0.2773438-2.7836914-0.7260742-3.5014648-1.3466797c-0.71875-0.6201172-1.0859375-1.4526367-1.1020508-2.4975586
		c0.0161133-1.0444336,0.4321289-1.8769531,1.2490234-2.4975586
		C201.3325195,25.8115234,202.4833984,25.5009766,203.96875,25.5009766z"/>
	<path fill="#7E7E7F" d="M213.3466797,35.1240234h2.4731445l-2.4482422,6.0478516h-1.8120117L213.3466797,35.1240234z"/>
	<path fill="#7E7E7F" d="M226.715332,38.4785156V20.6040039h1.9833984l6.3662109,10.7734375h0.0493164l6.3417969-10.7734375
		h2.0566406v17.8745117h-1.9589844V23.8852539h-0.0488281l-5.5092773,9.2797852h-1.8364258l-5.5092773-9.2797852h-0.0488281
		v14.5932617H226.715332z"/>
	<path fill="#7E7E7F" d="M252.0825195,25.5009766c1.7788086,0,3.0522461,0.3676758,3.8198242,1.1020508
		c0.7670898,0.734375,1.1508789,1.9428711,1.1508789,3.6240234v4.8232422c0,1.159668,0.1220703,2.3017578,0.3671875,3.4282227
		h-1.7138672c-0.1635742-0.7182617-0.253418-1.4692383-0.2695313-2.2524414h-0.0488281
		c-0.440918,0.7832031-1.0737305,1.3955078-1.8979492,1.8364258c-0.8242188,0.4404297-1.7587891,0.6606445-2.8037109,0.6606445
		c-1.175293,0-2.1137695-0.3305664-2.8154297-0.9912109c-0.7021484-0.6611328-1.0532227-1.5551758-1.0532227-2.6816406
		c0-1.4199219,0.6162109-2.550293,1.8486328-3.3911133c1.2324219-0.840332,2.9912109-1.2607422,5.2768555-1.2607422h1.3222656
		v-0.1225586c0-1.2402344-0.2324219-2.1015625-0.6977539-2.5834961c-0.465332-0.480957-1.2939453-0.722168-2.4853516-0.722168
		c-1.534668,0-2.9628906,0.3759766-4.2851563,1.1264648l-0.3427734-1.4448242
		C248.8583984,25.8847656,250.4008789,25.5009766,252.0825195,25.5009766z M248.5810547,34.9770508
		c0,0.734375,0.2285156,1.3100586,0.6855469,1.7260742c0.4570313,0.4165039,1.0688477,0.6245117,1.8364258,0.6245117
		c1.1264648,0,2.1015625-0.4038086,2.9257813-1.2119141s1.2368164-1.7998047,1.2368164-2.9750977v-1.3710938h-1.3222656
		c-1.7138672,0-3.0361328,0.2900391-3.9667969,0.8691406C249.0463867,33.2182617,248.5810547,33.9975586,248.5810547,34.9770508z"/>
	<path fill="#7E7E7F" d="M266.4301758,26.9946289c-1.4199219,0.0166016-2.5380859,0.465332-3.3544922,1.3466797
		c-0.8164063,0.8818359-1.2241211,2.1386719-1.2241211,3.7709961c0,1.5668945,0.4243164,2.815918,1.2734375,3.7460938
		c0.8486328,0.9306641,1.9501953,1.3959961,3.3051758,1.3959961c1.1425781,0,2.2363281-0.2773438,3.28125-0.8325195
		l0.465332,1.4443359c-1.2241211,0.5717773-2.4975586,0.8569336-3.8198242,0.8569336
		c-1.894043,0-3.4282227-0.6035156-4.6035156-1.8115234s-1.7626953-2.8076172-1.7626953-4.7993164
		c0-2.0566406,0.5629883-3.6728516,1.6894531-4.8481445s2.6850586-1.7631836,4.6767578-1.7631836
		c1.3222656,0,2.5957031,0.2861328,3.8198242,0.8569336l-0.465332,1.4936523
		C268.6176758,27.2807617,267.5239258,26.9946289,266.4301758,26.9946289z"/>
	<path fill="#7E7E7F" d="M275.0249023,35.1240234h2.4731445l-2.4482422,6.0478516h-1.8120117L275.0249023,35.1240234z"/>
	<path fill="#7E7E7F" d="M290.4262695,20.6040039v16.2094727h8.7412109v1.6650391h-10.7739258V20.6040039H290.4262695z"/>
	<path fill="#7E7E7F" d="M303.4521484,22.8076172v-2.6933594h1.909668v2.6933594H303.4521484z M303.4521484,38.4785156V25.7460938
		h1.909668v12.7324219H303.4521484z"/>
	<path fill="#7E7E7F" d="M310.0141602,25.7460938h1.7138672l0.0244141,2.2768555h0.0493164
		c0.4897461-0.7832031,1.1137695-1.3994141,1.8730469-1.8486328c0.7587891-0.4487305,1.5791016-0.6733398,2.4609375-0.6733398
		c1.4360352,0,2.5009766,0.4453125,3.1953125,1.3344727c0.6933594,0.8901367,1.0405273,2.2978516,1.0405273,4.2241211v7.4189453
		h-1.7631836v-7.2724609c0-1.5830078-0.2285156-2.6811523-0.6855469-3.2929688
		c-0.4570313-0.6123047-1.2407227-0.918457-2.3505859-0.918457c-0.9467773,0-1.8120117,0.4697266-2.5952148,1.4082031
		c-0.7836914,0.9384766-1.175293,2.0283203-1.175293,3.2685547v6.8071289h-1.7875977V25.7460938z"/>
	<path fill="#7E7E7F" d="M325.5625,25.7460938v7.9086914c0,1.3061523,0.2163086,2.2202148,0.6489258,2.7426758
		c0.4321289,0.5224609,1.1542969,0.7832031,2.1669922,0.7832031c0.9462891,0,1.8076172-0.456543,2.5830078-1.3710938
		c0.7753906-0.9140625,1.1630859-1.9995117,1.1630859-3.2563477v-6.8071289h1.8120117v12.7324219h-1.7138672l-0.0493164-2.2773438
		h-0.0488281c-0.4897461,0.7836914-1.1142578,1.3999023-1.8730469,1.8486328
		c-0.7592773,0.4492188-1.5712891,0.6733398-2.4365234,0.6733398c-1.3710938,0-2.3833008-0.387207-3.0361328-1.1625977
		s-0.9794922-2.0205078-0.9794922-3.734375v-8.0800781H325.5625z"/>
	<path fill="#7E7E7F" d="M339.2495117,25.7460938l3.3056641,5.0683594h0.0488281l3.3300781-5.0683594h2.0566406
		l-4.3583984,6.2680664l4.480957,6.4643555h-2.1303711l-3.4277344-5.2890625h-0.0493164l-3.4521484,5.2890625h-2.0571289
		l4.480957-6.4643555l-4.3583984-6.2680664H339.2495117z"/>
	<path fill="#7E7E7F" d="M350.9291992,26.75l1.2973633-1.2246094c1.5996094,1.6816406,2.9873047,3.2734375,4.1625977,4.7749023
		c0.5385742-1.8120117,0.8730469-4.0073242,1.0039063-6.5864258h-7.0273438v-1.6899414h4.4077148v-3.5009766h1.909668v3.5009766
		h4.456543v0.7348633h7.565918V18.71875h1.9345703v4.0400391h2.1054688v1.6894531h-2.1054688v12.6347656
		c0,1.46875-0.1635742,2.3828125-0.4897461,2.7421875c-0.3271484,0.3588867-1.184082,0.5385742-2.5712891,0.5385742
		c-0.8486328,0-2.1303711-0.0410156-3.8442383-0.1220703l-0.0732422-1.6899414
		c1.5996094,0.081543,2.8071289,0.1225586,3.6235352,0.1225586c0.6860352,0,1.09375-0.0654297,1.2246094-0.1958008
		c0.1303711-0.1303711,0.1958008-0.5957031,0.1958008-1.3955078V24.4482422h-7.6640625v-0.734375h-1.7626953
		c-0.1469727,3.2973633-0.6611328,6.0805664-1.5429688,8.3496094c1.387207,1.909668,2.5791016,3.6567383,3.5751953,5.2397461
		l-1.4204102,1.0771484c-0.9140625-1.4526367-1.9179688-2.9379883-3.0117188-4.4560547
		c-1.2241211,2.269043-3.1259766,4.3178711-5.7050781,6.1459961l-1.0771484-1.5185547
		c2.6279297-1.8930664,4.4804688-3.9907227,5.5581055-6.2924805C354.2182617,30.3823242,352.6430664,28.5458984,350.9291992,26.75z
		 M361.1396484,27.1660156l1.6650391-0.7587891c1.3056641,2.3344727,2.4399414,4.7744141,3.4033203,7.3212891l-1.6894531,0.6362305
		C363.6040039,31.9003906,362.4775391,29.5004883,361.1396484,27.1660156z"/>
	<path fill="#7E7E7F" d="M396.4228516,22.3671875h-18.2416992v6.390625c0,4.8969727-0.7265625,8.7578125-2.1791992,11.581543
		l-1.4199219-1.4692383c1.1586914-2.5625,1.7382813-6.3251953,1.7382813-11.2875977v-6.855957h9.2553711v-2.6445313h1.9589844
		v2.6445313h8.8881836V22.3671875z M378.0341797,37.9155273c0.9956055-2.4814453,1.7299805-5.4521484,2.2036133-8.9130859
		l1.7387695,0.3183594c-0.4575195,3.6567383-1.2084961,6.7666016-2.2529297,9.3291016L378.0341797,37.9155273z
		 M383.2495117,24.5952148l0.465332-1.5424805c2.921875,0.4404297,5.9824219,1.2729492,9.1821289,2.4975586l-0.6367188,1.5668945
		C389.2729492,25.9584961,386.2695313,25.1176758,383.2495117,24.5952148z M385.5756836,26.7744141v10.6757813
		c0,0.359375,0.0327148,0.6040039,0.0981445,0.734375c0.0649414,0.1308594,0.2695313,0.2290039,0.6123047,0.2939453
		c0.3261719,0.0649414,0.921875,0.0893555,1.7871094,0.0732422c0.4243164,0.0161133,0.7182617,0.0249023,0.8818359,0.0249023
		c0.1625977,0,0.3916016-0.0166016,0.6855469-0.0493164c0.293457-0.0327148,0.4731445-0.0649414,0.5385742-0.0976563
		c0.0981445,0,0.2363281-0.0649414,0.4160156-0.1958008s0.2856445-0.2124023,0.3183594-0.2451172
		c0.0327148-0.0649414,0.0981445-0.2119141,0.1958008-0.440918c0.0981445-0.2280273,0.1469727-0.4077148,0.1469727-0.5385742
		c0-0.1303711,0.0327148-0.4077148,0.0981445-0.8325195c0.0327148-0.3916016,0.0488281-0.7177734,0.0488281-0.9794922
		c0-0.2607422,0.0161133-0.6772461,0.0493164-1.2485352l1.8364258,0.1713867
		c-0.0166016,0.8491211-0.0410156,1.5019531-0.0737305,1.9589844s-0.0976563,0.9467773-0.1958008,1.46875
		c-0.0981445,0.5229492-0.1713867,0.8979492-0.2202148,1.1264648c-0.0654297,0.2285156-0.2124023,0.4731445-0.440918,0.7348633
		c-0.2124023,0.2607422-0.4165039,0.4243164-0.6123047,0.4897461c-0.1958008,0.0649414-0.5058594,0.1303711-0.9301758,0.1958008
		c-0.4248047,0.0649414-0.8325195,0.1137695-1.2246094,0.1469727c-0.3916016,0-0.9301758,0-1.6157227,0
		c-1.894043,0-3.0854492-0.1308594-3.5751953-0.3920898s-0.734375-0.9389648-0.734375-2.0322266V26.7744141H385.5756836z
		 M392.9707031,29.0517578l1.7382813-0.5390625c1.1264648,2.9550781,2.0405273,6.0888672,2.7421875,9.402832l-1.8115234,0.4648438
		C394.9536133,35.050293,394.0639648,31.940918,392.9707031,29.0517578z"/>
</g>
<g>
	<path fill="#7E7E7F" d="M108.9165039,93.0986328h0.0493164l1.3222656-12.4873047h2.2036133l1.3222656,12.4873047h0.0488281
		l1.1020508-14.9360352h1.8364258l-1.4692383,17.8745117h-2.6689453l-1.3466797-12.7324219h-0.0493164l-1.3466797,12.7324219
		h-2.6689453l-1.46875-17.8745117h2.0322266L108.9165039,93.0986328z"/>
	<path fill="#7E7E7F" d="M125.1503906,83.3046875v11.0673828h2.6689453v1.6650391h-8.0800781v-1.6650391h3.4033203v-9.4023438
		h-2.6689453v-1.6650391H125.1503906z M122.652832,80.3662109v-2.9379883h2.4975586v2.9379883H122.652832z"/>
	<path fill="#7E7E7F" d="M140.4296875,87.9570313v8.0800781h-1.8852539v-7.6396484
		c0-1.4360352-0.1630859-2.3994141-0.4897461-2.8891602s-0.9223633-0.7260742-1.7871094-0.7099609
		c-0.8164063,0-1.5185547,0.4570313-2.105957,1.3710938c-0.5878906,0.9145508-0.8735352,2.1464844-0.8569336,3.6972656v6.1704102
		h-1.9345703V83.3046875h1.8120117l0.0488281,1.8364258h0.0493164c0.3095703-0.6040039,0.7832031-1.1020508,1.4199219-1.4936523
		c0.6367188-0.3920898,1.3222656-0.5878906,2.0571289-0.5878906c1.2729492,0,2.2036133,0.3759766,2.7910156,1.1264648
		C140.1362305,84.9370117,140.4296875,86.1938477,140.4296875,87.9570313z"/>
	<path fill="#7E7E7F" d="M150.6157227,77.6728516h1.9345703v18.3642578h-1.8120117l-0.0488281-1.8364258h-0.0493164
		c-0.8652344,1.3876953-1.9833984,2.0810547-3.3544922,2.0810547c-1.2895508,0-2.3261719-0.5546875-3.109375-1.6650391
		c-0.7836914-1.1098633-1.175293-2.7583008-1.175293-4.9458008c0-4.4072266,1.4282227-6.6113281,4.284668-6.6113281
		c1.4853516,0,2.5791016,0.6943359,3.28125,2.081543h0.0488281V77.6728516z M144.9350586,89.6708984
		c0,1.6000977,0.2612305,2.7915039,0.7836914,3.574707c0.5219727,0.7836914,1.2080078,1.184082,2.0566406,1.199707
		c0.8486328,0.0166016,1.5341797-0.3833008,2.0566406-1.199707c0.5224609-0.815918,0.7836914-1.9667969,0.7836914-3.4521484
		v-0.2451172c0-1.4853516-0.2612305-2.6357422-0.7836914-3.4526367c-0.5224609-0.815918-1.2080078-1.2158203-2.0566406-1.199707
		C145.8818359,84.8959961,144.9350586,86.487793,144.9350586,89.6708984z"/>
	<path fill="#7E7E7F" d="M155.3657227,89.6708984c0-4.4072266,1.6323242-6.6113281,4.8974609-6.6113281
		c3.2646484,0,4.8969727,2.2041016,4.8969727,6.6113281s-1.6323242,6.6108398-4.8969727,6.6108398
		C156.9980469,96.2817383,155.3657227,94.078125,155.3657227,89.6708984z M160.2631836,94.5922852
		c1.0117188,0.0166016,1.746582-0.3505859,2.2036133-1.1015625c0.456543-0.7509766,0.6855469-2.0239258,0.6855469-3.8198242
		c0-1.7954102-0.2290039-3.0688477-0.6855469-3.8198242c-0.4570313-0.7504883-1.1918945-1.1176758-2.2036133-1.1020508
		c-1.0126953-0.015625-1.7470703,0.3515625-2.2041016,1.1020508c-0.4570313,0.7509766-0.6855469,2.0244141-0.6855469,3.8198242
		c0,1.7958984,0.2285156,3.0688477,0.6855469,3.8198242S159.2504883,94.6088867,160.2631836,94.5922852z"/>
	<path fill="#7E7E7F" d="M174.9785156,94.078125h0.0493164l1.199707-10.7734375h1.909668l-1.9584961,12.7324219h-2.4243164
		l-1.3222656-10.7734375h-0.0488281l-1.199707,10.7734375h-2.3505859l-1.9589844-12.7324219h2.0078125l1.199707,10.7734375
		h0.0488281l1.2001953-10.7734375h2.4482422L174.9785156,94.078125z"/>
	<path fill="#7E7E7F" d="M184.8710938,84.7001953c-1.5668945,0-2.3505859,0.5961914-2.3505859,1.7875977
		c0,0.5551758,0.1713867,0.9956055,0.5141602,1.3222656s0.9550781,0.6206055,1.8364258,0.8813477
		c1.7143555,0.4570313,2.8564453,0.9633789,3.4282227,1.5180664c0.5712891,0.5551758,0.8569336,1.3955078,0.8569336,2.5219727
		s-0.3837891,2-1.1508789,2.6201172c-0.7675781,0.6206055-1.8530273,0.9301758-3.2563477,0.9301758
		c-1.4042969,0-2.7509766-0.3261719-4.0405273-0.9790039V93.34375c1.2734375,0.8652344,2.5380859,1.2978516,3.7954102,1.2978516
		c1.8120117,0,2.7177734-0.6367188,2.7177734-1.9101563c0.0161133-0.6035156-0.1552734-1.0688477-0.5141602-1.3955078
		s-1.0527344-0.6367188-2.0810547-0.9306641c-1.5180664-0.4243164-2.5708008-0.9301758-3.1586914-1.5180664
		c-0.5878906-0.5874023-0.8813477-1.387207-0.8813477-2.3994141c0-1.0776367,0.3588867-1.9179688,1.0771484-2.5219727
		s1.746582-0.90625,3.0854492-0.90625c1.3710938,0,2.6767578,0.2861328,3.9174805,0.8569336v1.8364258
		C187.3769531,85.0512695,186.1118164,84.7001953,184.8710938,84.7001953z"/>
	<path fill="#7E7E7F" d="M196.012207,92.3642578h2.9379883l-2.6933594,6.855957h-1.7138672L196.012207,92.3642578z"/>
	<path fill="#7E7E7F" d="M224.6113281,82.8149414H224.5625l-2.1547852,8.3251953h-1.9589844l-2.1542969-8.3251953h-0.0493164
		v13.222168h-1.909668V78.1625977h2.2524414l2.9140625,11.0185547h0.0488281l2.9140625-11.0185547h2.1542969v17.8745117h-2.0078125
		V82.8149414z"/>
	<path fill="#7E7E7F" d="M233.8422852,83.0595703c1.6162109,0,2.734375,0.3266602,3.3544922,0.9794922
		c0.6206055,0.6533203,0.9306641,1.8774414,0.9306641,3.6728516v8.3251953h-1.7631836l-0.0488281-1.8364258h-0.0488281
		c-0.7675781,1.3876953-1.9833984,2.0810547-3.6484375,2.0810547c-1.0610352,0-1.918457-0.3427734-2.5708008-1.0283203
		c-0.6533203-0.6855469-0.9794922-1.6074219-0.9794922-2.7666016c0-1.4853516,0.5058594-2.6362305,1.5180664-3.4526367
		c1.0117188-0.815918,2.5053711-1.2158203,4.480957-1.199707h1.175293V87.222168
		c0-0.9301758-0.1801758-1.5830078-0.5385742-1.9584961c-0.359375-0.3754883-0.9794922-0.5634766-1.8613281-0.5634766
		c-0.5385742,0-1.2241211,0.0981445-2.0566406,0.2939453s-1.534668,0.4248047-2.105957,0.6855469v-1.7631836
		c0.5712891-0.2446289,1.2651367-0.4487305,2.081543-0.6118164
		C232.5771484,83.1416016,233.2709961,83.0595703,233.8422852,83.0595703z M236.2421875,89.3037109h-1.175293
		c-2.7753906,0-4.1625977,1.0200195-4.1625977,3.0605469c0,0.734375,0.1875,1.2978516,0.5629883,1.6894531
		s0.8813477,0.5878906,1.5180664,0.5878906c0.9628906,0,1.746582-0.3920898,2.3505859-1.175293
		c0.6040039-0.7836914,0.90625-1.8857422,0.90625-3.3056641V89.3037109z"/>
	<path fill="#7E7E7F" d="M243.1713867,94.6166992c-0.9145508-1.1098633-1.3710938-2.7583008-1.3710938-4.9458008
		s0.4487305-3.8359375,1.3466797-4.9462891c0.8974609-1.1098633,2.1625977-1.6650391,3.7954102-1.6650391
		c0.9951172,0,2.015625,0.2045898,3.0605469,0.6123047v1.9589844c-0.9794922-0.5390625-1.9589844-0.8081055-2.9384766-0.8081055
		c-1.0283203,0-1.828125,0.4082031-2.3994141,1.2241211c-0.5717773,0.8164063-0.8569336,2.0244141-0.8569336,3.6240234
		c0,1.6489258,0.3017578,2.8813477,0.9057617,3.6972656c0.6040039,0.8164063,1.4282227,1.2241211,2.4731445,1.2241211
		c0.9628906,0,1.9423828-0.293457,2.9384766-0.8813477v1.9589844c-1.0449219,0.4077148-2.0654297,0.6118164-3.0610352,0.6118164
		C245.3833008,96.2817383,244.0854492,95.7270508,243.1713867,94.6166992z"/>
	<path fill="#7E7E7F" d="M257.2260742,92.3642578h2.9379883l-2.6933594,6.855957h-1.7138672L257.2260742,92.3642578z"/>
	<path fill="#7E7E7F" d="M281.0263672,78.1625977v16.1113281h5.8276367v1.7631836h-7.8354492V78.1625977H281.0263672z"/>
	<path fill="#7E7E7F" d="M296.5498047,83.3046875v11.0673828h2.6689453v1.6650391h-8.0800781v-1.6650391h3.4033203v-9.4023438
		h-2.6689453v-1.6650391H296.5498047z M294.0522461,80.3662109v-2.9379883h2.4975586v2.9379883H294.0522461z"/>
	<path fill="#7E7E7F" d="M311.8291016,87.9570313v8.0800781h-1.8852539v-7.6396484
		c0-1.4360352-0.1630859-2.3994141-0.4897461-2.8891602s-0.9223633-0.7260742-1.7871094-0.7099609
		c-0.8164063,0-1.5185547,0.4570313-2.105957,1.3710938c-0.5878906,0.9145508-0.8735352,2.1464844-0.8569336,3.6972656v6.1704102
		h-1.9345703V83.3046875h1.8120117l0.0488281,1.8364258h0.0493164c0.3095703-0.6040039,0.7832031-1.1020508,1.4199219-1.4936523
		c0.6367188-0.3920898,1.3222656-0.5878906,2.0571289-0.5878906c1.2729492,0,2.2036133,0.3759766,2.7910156,1.1264648
		C311.5356445,84.9370117,311.8291016,86.1938477,311.8291016,87.9570313z"/>
	<path fill="#7E7E7F" d="M314.8901367,91.6298828v-8.3251953h1.8852539v7.8842773
		c0,1.3549805,0.1469727,2.2524414,0.4404297,2.6933594c0.2939453,0.440918,0.8652344,0.6611328,1.7143555,0.6611328
		c0.7832031,0,1.4526367-0.4487305,2.0078125-1.3466797c0.5546875-0.8974609,0.8325195-2.1381836,0.8325195-3.7216797v-6.1704102
		h1.934082v12.7324219h-1.8120117l-0.0488281-1.8364258h-0.0488281c-0.3105469,0.6694336-0.7675781,1.1835938-1.3710938,1.5424805
		c-0.6044922,0.3588867-1.265625,0.5385742-1.9833984,0.5385742c-1.2573242,0-2.1630859-0.3505859-2.7177734-1.0527344
		C315.1674805,94.5273438,314.8901367,93.3276367,314.8901367,91.6298828z"/>
	<path fill="#7E7E7F" d="M331.6870117,88.5688477h0.0488281l2.5463867-5.2641602h2.1547852l-3.550293,6.3662109l3.550293,6.3662109
		h-2.3017578l-2.4975586-5.2646484h-0.0488281l-2.4975586,5.2646484h-2.2036133l3.550293-6.3662109l-3.550293-6.3662109h2.2529297
		L331.6870117,88.5688477z"/>
	<path fill="#7E7E7F" d="M339.3754883,84.3085938l1.2973633-1.2246094c1.5996094,1.6816406,2.9873047,3.2734375,4.1625977,4.7749023
		c0.5385742-1.8120117,0.8730469-4.0073242,1.0039063-6.5864258h-7.0273438v-1.6899414h4.4077148V76.081543h1.909668v3.5009766
		h4.456543v0.7348633h7.565918v-4.0400391h1.9345703v4.0400391h2.1054688v1.6894531h-2.1054688v12.6347656
		c0,1.46875-0.1635742,2.3828125-0.4897461,2.7421875c-0.3271484,0.3588867-1.184082,0.5385742-2.5712891,0.5385742
		c-0.8486328,0-2.1303711-0.0410156-3.8442383-0.1220703l-0.0732422-1.6899414
		c1.5996094,0.081543,2.8071289,0.1225586,3.6235352,0.1225586c0.6860352,0,1.09375-0.0654297,1.2246094-0.1958008
		c0.1303711-0.1303711,0.1958008-0.5957031,0.1958008-1.3955078V82.0068359h-7.6640625v-0.734375h-1.7626953
		c-0.1469727,3.2973633-0.6611328,6.0805664-1.5429688,8.3496094c1.387207,1.909668,2.5791016,3.6567383,3.5751953,5.2397461
		l-1.4204102,1.0771484c-0.9140625-1.4526367-1.9179688-2.9379883-3.0117188-4.4560547
		c-1.2241211,2.269043-3.1259766,4.3178711-5.7050781,6.1459961l-1.0771484-1.5185547
		c2.6279297-1.8930664,4.4804688-3.9907227,5.5581055-6.2924805
		C342.6645508,87.940918,341.0893555,86.1044922,339.3754883,84.3085938z M349.5859375,84.7246094l1.6650391-0.7587891
		c1.3056641,2.3344727,2.4399414,4.7744141,3.4033203,7.3212891l-1.6894531,0.6362305
		C352.050293,89.4589844,350.9238281,87.059082,349.5859375,84.7246094z"/>
	<path fill="#7E7E7F" d="M384.8696289,79.9257813h-18.2416992v6.390625c0,4.8969727-0.7265625,8.7578125-2.1791992,11.581543
		l-1.4199219-1.4692383c1.1586914-2.5625,1.7382813-6.3251953,1.7382813-11.2875977v-6.855957h9.2553711V75.640625h1.9589844
		v2.6445313h8.8881836V79.9257813z M366.480957,95.4741211c0.9956055-2.4814453,1.7299805-5.4521484,2.2036133-8.9130859
		l1.7387695,0.3183594c-0.4575195,3.6567383-1.2084961,6.7666016-2.2529297,9.3291016L366.480957,95.4741211z
		 M371.6962891,82.1538086l0.465332-1.5424805c2.921875,0.4404297,5.9824219,1.2729492,9.1821289,2.4975586l-0.6367188,1.5668945
		C377.7197266,83.5170898,374.7163086,82.6762695,371.6962891,82.1538086z M374.0224609,84.3330078v10.6757813
		c0,0.359375,0.0327148,0.6040039,0.0981445,0.734375c0.0649414,0.1308594,0.2695313,0.2290039,0.6123047,0.2939453
		c0.3261719,0.0649414,0.921875,0.0893555,1.7871094,0.0732422c0.4243164,0.0161133,0.7182617,0.0249023,0.8818359,0.0249023
		c0.1625977,0,0.3916016-0.0166016,0.6855469-0.0493164c0.293457-0.0327148,0.4731445-0.0649414,0.5385742-0.0976563
		c0.0981445,0,0.2363281-0.0649414,0.4160156-0.1958008s0.2856445-0.2124023,0.3183594-0.2451172
		c0.0327148-0.0649414,0.0981445-0.2119141,0.1958008-0.440918c0.0981445-0.2280273,0.1469727-0.4077148,0.1469727-0.5385742
		c0-0.1303711,0.0327148-0.4077148,0.0981445-0.8325195c0.0327148-0.3916016,0.0488281-0.7177734,0.0488281-0.9794922
		c0-0.2607422,0.0161133-0.6772461,0.0493164-1.2485352l1.8364258,0.1713867
		c-0.0166016,0.8491211-0.0410156,1.5019531-0.0737305,1.9589844s-0.0976563,0.9467773-0.1958008,1.46875
		c-0.0981445,0.5229492-0.1713867,0.8979492-0.2202148,1.1264648c-0.0654297,0.2285156-0.2124023,0.4731445-0.440918,0.7348633
		c-0.2124023,0.2607422-0.4165039,0.4243164-0.6123047,0.4897461c-0.1958008,0.0649414-0.5058594,0.1303711-0.9301758,0.1958008
		c-0.4248047,0.0649414-0.8325195,0.1137695-1.2246094,0.1469727c-0.3916016,0-0.9301758,0-1.6157227,0
		c-1.894043,0-3.0854492-0.1308594-3.5751953-0.3920898s-0.734375-0.9389648-0.734375-2.0322266V84.3330078H374.0224609z
		 M381.4174805,86.6103516l1.7382813-0.5390625c1.1264648,2.9550781,2.0405273,6.0888672,2.7421875,9.402832l-1.8115234,0.4648438
		C383.4003906,92.6088867,382.5107422,89.4995117,381.4174805,86.6103516z"/>
</g>
<g>
	<path fill="#70A0BB" d="M26.9711914,27.2480469v-8.3413086h0.9257813l2.9707031,5.0273438h0.0229492l2.9594727-5.0273438h0.9599609
		v8.3413086h-0.9140625v-6.8100586h-0.0229492l-2.5712891,4.3305664h-0.8569336l-2.5708008-4.3305664h-0.0229492v6.8100586
		H26.9711914z"/>
	<path fill="#70A0BB" d="M37.0952148,19.9350586v-1.2568359h0.8916016v1.2568359H37.0952148z M37.0952148,27.2480469v-5.9418945
		h0.8916016v5.9418945H37.0952148z"/>
	<path fill="#70A0BB" d="M39.8149414,24.1630859c0-0.9448242,0.2094727-1.6757813,0.628418-2.1943359
		c0.4189453-0.5175781,0.9980469-0.7768555,1.7368164-0.7768555c0.8916016,0,1.550293,0.3696289,1.9770508,1.1083984h0.0229492
		l0.0224609-0.9941406h0.7998047v5.4506836c0,2.0795898-0.9291992,3.1191406-2.7880859,3.1191406
		c-0.6396484,0-1.2529297-0.121582-1.8393555-0.3652344l0.1826172-0.6743164
		c0.5410156,0.2358398,1.0932617,0.3540039,1.6567383,0.3540039c0.6704102,0,1.1616211-0.1865234,1.4741211-0.5595703
		c0.3125-0.3735352,0.46875-0.9868164,0.46875-1.8398438v-0.7314453h-0.0229492
		c-0.4116211,0.7163086-1.0625,1.0742188-1.9541016,1.0742188c-0.6933594,0-1.2607422-0.2666016-1.7026367-0.7998047
		S39.8149414,25.0771484,39.8149414,24.1630859z M40.6376953,24.1630859c0,0.7006836,0.1601563,1.2568359,0.4799805,1.6679688
		c0.3198242,0.4116211,0.7387695,0.6171875,1.2568359,0.6171875c0.5258789,0,0.9560547-0.1982422,1.2910156-0.5942383
		c0.3354492-0.3959961,0.4990234-0.940918,0.4916992-1.6337891V24.105957c0-0.6933594-0.1679688-1.2382813-0.5029297-1.6342773
		c-0.3354492-0.3959961-0.7617188-0.5942383-1.2797852-0.5942383c-0.5410156,0-0.9638672,0.1982422-1.2685547,0.5942383
		S40.6450195,23.4316406,40.6376953,24.1630859z"/>
	<path fill="#70A0BB" d="M46.8305664,27.2480469v-8.3413086h0.9257813l2.9707031,5.0273438H50.75l2.9594727-5.0273438h0.9599609
		v8.3413086h-0.9140625v-6.8100586h-0.0229492l-2.5712891,4.3305664h-0.8569336l-2.5708008-4.3305664h-0.0229492v6.8100586
		H46.8305664z"/>
	<path fill="#70A0BB" d="M56.9545898,19.9350586v-1.2568359h0.8916016v1.2568359H56.9545898z M56.9545898,27.2480469v-5.9418945
		h0.8916016v5.9418945H56.9545898z"/>
	<path fill="#70A0BB" d="M60.7827148,21.3061523l1.5424805,2.3652344h0.0229492l1.5541992-2.3652344h0.9594727l-2.0336914,2.925293
		l2.0908203,3.0166016H63.925293l-1.6000977-2.4682617h-0.0229492l-1.6108398,2.4682617h-0.9599609l2.0913086-3.0166016
		l-2.0341797-2.925293H60.7827148z"/>
	<path fill="#70A0BB" d="M72.3686523,27.2480469V20.003418h-0.0224609l-2.2514648,2.0795898l-0.3540039-0.7426758
		l2.6279297-2.4335938h0.9140625v8.3413086H72.3686523z"/>
	<path fill="#70A0BB" d="M76.859375,18.9750977c0.7924805-0.121582,1.5654297-0.1826172,2.3198242-0.1826172
		c1.0356445,0,1.8203125,0.2207031,2.3535156,0.6625977s0.8037109,1.0664063,0.8115234,1.8740234
		c0,0.8837891-0.2705078,1.5541992-0.8115234,2.0112305c-0.5405273,0.4570313-1.3251953,0.6855469-2.3535156,0.6855469
		c-0.5029297,0-0.9711914-0.0229492-1.4057617-0.0688477v3.2910156H76.859375V18.9750977z M77.7734375,23.203125
		c0.4418945,0.0610352,0.8876953,0.0913086,1.3369141,0.0913086c0.7617188,0,1.3408203-0.1635742,1.7368164-0.4912109
		s0.5942383-0.7958984,0.5942383-1.4057617c0-0.609375-0.1982422-1.0737305-0.5942383-1.394043
		c-0.3959961-0.3198242-0.9750977-0.4760742-1.7368164-0.4682617c-0.4189453,0-0.8647461,0.0380859-1.3369141,0.1142578V23.203125z"
		/>
</g>
<g>
	<path fill="#70A0BB" d="M26.9711914,84.8056641v-8.3413086h0.9257813l2.9707031,5.0273438h0.0229492l2.9594727-5.0273438h0.9599609
		v8.3413086h-0.9140625v-6.8100586h-0.0229492l-2.5712891,4.3305664h-0.8569336l-2.5708008-4.3305664h-0.0229492v6.8100586
		H26.9711914z"/>
	<path fill="#70A0BB" d="M37.0952148,77.4926758v-1.2568359h0.8916016v1.2568359H37.0952148z M37.0952148,84.8056641v-5.9418945
		h0.8916016v5.9418945H37.0952148z"/>
	<path fill="#70A0BB" d="M39.8149414,81.7207031c0-0.9448242,0.2094727-1.6757813,0.628418-2.1943359
		c0.4189453-0.5175781,0.9980469-0.7768555,1.7368164-0.7768555c0.8916016,0,1.550293,0.3696289,1.9770508,1.1083984h0.0229492
		l0.0224609-0.9941406h0.7998047v5.4506836c0,2.0795898-0.9291992,3.1191406-2.7880859,3.1191406
		c-0.6396484,0-1.2529297-0.121582-1.8393555-0.3652344l0.1826172-0.6743164
		c0.5410156,0.2358398,1.0932617,0.3540039,1.6567383,0.3540039c0.6704102,0,1.1616211-0.1865234,1.4741211-0.5595703
		c0.3125-0.3735352,0.46875-0.9868164,0.46875-1.8398438v-0.7314453h-0.0229492
		c-0.4116211,0.7163086-1.0625,1.0742188-1.9541016,1.0742188c-0.6933594,0-1.2607422-0.2666016-1.7026367-0.7998047
		S39.8149414,82.6347656,39.8149414,81.7207031z M40.6376953,81.7207031c0,0.7006836,0.1601563,1.2568359,0.4799805,1.6679688
		c0.3198242,0.4116211,0.7387695,0.6171875,1.2568359,0.6171875c0.5258789,0,0.9560547-0.1982422,1.2910156-0.5942383
		c0.3354492-0.3959961,0.4990234-0.940918,0.4916992-1.6337891v-0.1142578c0-0.6933594-0.1679688-1.2382813-0.5029297-1.6342773
		c-0.3354492-0.3959961-0.7617188-0.5942383-1.2797852-0.5942383c-0.5410156,0-0.9638672,0.1982422-1.2685547,0.5942383
		S40.6450195,80.9892578,40.6376953,81.7207031z"/>
	<path fill="#70A0BB" d="M46.8305664,84.8056641v-8.3413086h0.9257813l2.9707031,5.0273438H50.75l2.9594727-5.0273438h0.9599609
		v8.3413086h-0.9140625v-6.8100586h-0.0229492l-2.5712891,4.3305664h-0.8569336l-2.5708008-4.3305664h-0.0229492v6.8100586
		H46.8305664z"/>
	<path fill="#70A0BB" d="M56.9545898,77.4926758v-1.2568359h0.8916016v1.2568359H56.9545898z M56.9545898,84.8056641v-5.9418945
		h0.8916016v5.9418945H56.9545898z"/>
	<path fill="#70A0BB" d="M60.7827148,78.8637695l1.5424805,2.3652344h0.0229492l1.5541992-2.3652344h0.9594727l-2.0336914,2.925293
		l2.0908203,3.0166016H63.925293l-1.6000977-2.4682617h-0.0229492l-1.6108398,2.4682617h-0.9599609l2.0913086-3.0166016
		l-2.0341797-2.925293H60.7827148z"/>
	<path fill="#70A0BB" d="M72.3686523,84.8056641v-7.2446289h-0.0224609l-2.2514648,2.0795898l-0.3540039-0.7426758
		l2.6279297-2.4335938h0.9140625v8.3413086H72.3686523z"/>
	<path fill="#70A0BB" d="M76.859375,84.8056641v-8.3413086h0.9257813l2.9707031,5.0273438h0.0229492l2.9594727-5.0273438h0.9599609
		v8.3413086h-0.9140625v-6.8100586h-0.0229492l-2.5712891,4.3305664h-0.8569336l-2.5708008-4.3305664h-0.0229492v6.8100586
		H76.859375z"/>
</g>
<line fill="none" stroke="#70A0BB" stroke-miterlimit="10" x1="106.5986328" y1="44.8276367" x2="130.8803711" y2="44.8276367"/>
<line fill="none" stroke="#70A0BB" stroke-miterlimit="10" x1="137.409668" y1="44.8276367" x2="151.0810547" y2="44.8276367"/>
<line fill="none" stroke="#70A0BB" stroke-miterlimit="10" x1="130.5742188" y1="51.2211914" x2="137.409668" y2="51.2211914"/>
<line fill="none" stroke="#70A0BB" stroke-miterlimit="10" x1="105.1699219" y1="104.137207" x2="117.4130859" y2="104.137207"/>
<line fill="none" stroke="#70A0BB" stroke-miterlimit="10" x1="117.4130859" y1="109.8505859" x2="129.6557617" y2="109.8505859"/>
<line fill="none" stroke="#70A0BB" stroke-miterlimit="10" x1="129.6557617" y1="104.137207" x2="141.8984375" y2="104.137207"/>
<line fill="none" stroke="#70A0BB" stroke-miterlimit="10" x1="141.8984375" y1="110.6669922" x2="154.1416016" y2="110.6669922"/>
<line fill="none" stroke="#70A0BB" stroke-miterlimit="10" x1="154.1416016" y1="104.137207" x2="166.3842773" y2="104.137207"/>
<line fill="none" stroke="#70A0BB" stroke-miterlimit="10" x1="166.3842773" y1="110.6669922" x2="178.6274414" y2="110.6669922"/>
<line fill="none" stroke="#70A0BB" stroke-miterlimit="10" x1="179.7148438" y1="104.137207" x2="191.9580078" y2="104.137207"/>
<line fill="none" stroke="#70A0BB" stroke-miterlimit="10" x1="151.0810547" y1="51.2211914" x2="164.8881836" y2="51.2211914"/>
<line fill="none" stroke="#70A0BB" stroke-miterlimit="10" x1="179.4433594" y1="51.2211914" x2="199.03125" y2="51.2211914"/>
<line fill="none" stroke="#70A0BB" stroke-miterlimit="10" x1="164.8881836" y1="44.8276367" x2="179.4433594" y2="44.8276367"/>
<line fill="none" stroke="#70A0BB" stroke-miterlimit="10" x1="199.03125" y1="44.8276367" x2="210.4584961" y2="44.8276367"/>
</svg>
