<?xml version="1.0" encoding="utf-8"?>
<!-- Generator: Adobe Illustrator 16.0.3, SVG Export Plug-In . SVG Version: 6.00 Build 0)  -->
<!DOCTYPE svg PUBLIC "-//W3C//DTD SVG 1.1//EN" "http://www.w3.org/Graphics/SVG/1.1/DTD/svg11.dtd">
<svg version="1.1" id="レイヤー_1" xmlns="http://www.w3.org/2000/svg" xmlns:xlink="http://www.w3.org/1999/xlink" x="0px"
	 y="0px" width="650px" height="125px" viewBox="0 0 650 125" enable-background="new 0 0 650 125" xml:space="preserve">
<g>
	<path fill="#70A0BB" d="M26.9711914,27.2480469v-8.3413086h0.9257813l2.9707031,5.0273438h0.0229492l2.9594727-5.0273438h0.9599609
		v8.3413086h-0.9140625v-6.8100586h-0.0229492l-2.5712891,4.3305664h-0.8569336l-2.5708008-4.3305664h-0.0229492v6.8100586
		H26.9711914z"/>
	<path fill="#70A0BB" d="M37.0952148,19.9350586v-1.2568359h0.8916016v1.2568359H37.0952148z M37.0952148,27.2480469v-5.9418945
		h0.8916016v5.9418945H37.0952148z"/>
	<path fill="#70A0BB" d="M39.8149414,24.1630859c0-0.9448242,0.2094727-1.6757813,0.628418-2.1943359
		c0.4189453-0.5175781,0.9980469-0.7768555,1.7368164-0.7768555c0.8916016,0,1.550293,0.3696289,1.9770508,1.1083984h0.0229492
		l0.0224609-0.9941406h0.7998047v5.4506836c0,2.0795898-0.9291992,3.1191406-2.7880859,3.1191406
		c-0.6396484,0-1.2529297-0.121582-1.8393555-0.3652344l0.1826172-0.6743164
		c0.5410156,0.2358398,1.0932617,0.3540039,1.6567383,0.3540039c0.6704102,0,1.1616211-0.1865234,1.4741211-0.5595703
		c0.3125-0.3735352,0.46875-0.9868164,0.46875-1.8398438v-0.7314453h-0.0229492
		c-0.4116211,0.7163086-1.0625,1.0742188-1.9541016,1.0742188c-0.6933594,0-1.2607422-0.2666016-1.7026367-0.7998047
		S39.8149414,25.0771484,39.8149414,24.1630859z M40.6376953,24.1630859c0,0.7006836,0.1601563,1.2568359,0.4799805,1.6679688
		c0.3198242,0.4116211,0.7387695,0.6171875,1.2568359,0.6171875c0.5258789,0,0.9560547-0.1982422,1.2910156-0.5942383
		c0.3354492-0.3959961,0.4990234-0.940918,0.4916992-1.6337891V24.105957c0-0.6933594-0.1679688-1.2382813-0.5029297-1.6342773
		c-0.3354492-0.3959961-0.7617188-0.5942383-1.2797852-0.5942383c-0.5410156,0-0.9638672,0.1982422-1.2685547,0.5942383
		S40.6450195,23.4316406,40.6376953,24.1630859z"/>
	<path fill="#70A0BB" d="M47.4819336,21.3061523v3.690918c0,0.609375,0.1010742,1.0361328,0.3027344,1.2797852
		s0.5390625,0.3657227,1.0112305,0.3657227c0.4418945,0,0.84375-0.2133789,1.2055664-0.6401367
		c0.3618164-0.4262695,0.5429688-0.9331055,0.5429688-1.5195313v-3.1767578h0.8452148v5.9418945h-0.7998047l-0.0224609-1.0625
		h-0.0229492c-0.2285156,0.3652344-0.5200195,0.6533203-0.8745117,0.8623047
		c-0.3540039,0.2094727-0.7329102,0.3144531-1.1367188,0.3144531c-0.6396484,0-1.1123047-0.1806641-1.4169922-0.5429688
		c-0.3046875-0.3613281-0.4570313-0.9423828-0.4570313-1.7421875v-3.7709961H47.4819336z"/>
	<path fill="#70A0BB" d="M59.125,27.2480469V20.003418h-0.0224609l-2.2514648,2.0795898l-0.3540039-0.7426758L59.125,18.9067383
		h0.9140625v8.3413086H59.125z"/>
	<path fill="#70A0BB" d="M63.6157227,18.9750977c0.7924805-0.121582,1.5654297-0.1826172,2.3198242-0.1826172
		c1.0356445,0,1.8203125,0.2207031,2.3535156,0.6625977s0.8037109,1.0664063,0.8115234,1.8740234
		c0,0.8837891-0.2705078,1.5541992-0.8115234,2.0112305c-0.5405273,0.4570313-1.3251953,0.6855469-2.3535156,0.6855469
		c-0.5029297,0-0.9711914-0.0229492-1.4057617-0.0688477v3.2910156h-0.9140625V18.9750977z M64.5297852,23.203125
		c0.4418945,0.0610352,0.8876953,0.0913086,1.3369141,0.0913086c0.7617188,0,1.3408203-0.1635742,1.7368164-0.4912109
		s0.5942383-0.7958984,0.5942383-1.4057617c0-0.609375-0.1982422-1.0737305-0.5942383-1.394043
		c-0.3959961-0.3198242-0.9750977-0.4760742-1.7368164-0.4682617c-0.4189453,0-0.8647461,0.0380859-1.3369141,0.1142578V23.203125z"
		/>
</g>
<g>
	<path fill="#70A0BB" d="M325.9711914,27.2480469v-8.3413086h0.9257813l2.9707031,5.0273438h0.0229492l2.9594727-5.0273438
		h0.9599609v8.3413086h-0.9140625v-6.8100586h-0.0229492l-2.5712891,4.3305664h-0.8569336l-2.5708008-4.3305664h-0.0229492
		v6.8100586H325.9711914z"/>
	<path fill="#70A0BB" d="M336.0952148,19.9350586v-1.2568359h0.8916016v1.2568359H336.0952148z M336.0952148,27.2480469v-5.9418945
		h0.8916016v5.9418945H336.0952148z"/>
	<path fill="#70A0BB" d="M338.8149414,24.1630859c0-0.9448242,0.2094727-1.6757813,0.628418-2.1943359
		c0.4189453-0.5175781,0.9980469-0.7768555,1.7368164-0.7768555c0.8916016,0,1.550293,0.3696289,1.9770508,1.1083984h0.0229492
		l0.0224609-0.9941406h0.7998047v5.4506836c0,2.0795898-0.9291992,3.1191406-2.7880859,3.1191406
		c-0.6396484,0-1.2529297-0.121582-1.8393555-0.3652344l0.1826172-0.6743164
		c0.5410156,0.2358398,1.0932617,0.3540039,1.6567383,0.3540039c0.6704102,0,1.1616211-0.1865234,1.4741211-0.5595703
		c0.3125-0.3735352,0.46875-0.9868164,0.46875-1.8398438v-0.7314453h-0.0229492
		c-0.4116211,0.7163086-1.0625,1.0742188-1.9541016,1.0742188c-0.6933594,0-1.2607422-0.2666016-1.7026367-0.7998047
		S338.8149414,25.0771484,338.8149414,24.1630859z M339.6376953,24.1630859c0,0.7006836,0.1601563,1.2568359,0.4799805,1.6679688
		c0.3198242,0.4116211,0.7387695,0.6171875,1.2568359,0.6171875c0.5258789,0,0.9560547-0.1982422,1.2910156-0.5942383
		c0.3354492-0.3959961,0.4990234-0.940918,0.4916992-1.6337891V24.105957c0-0.6933594-0.1679688-1.2382813-0.5029297-1.6342773
		c-0.3354492-0.3959961-0.7617188-0.5942383-1.2797852-0.5942383c-0.5410156,0-0.9638672,0.1982422-1.2685547,0.5942383
		S339.6450195,23.4316406,339.6376953,24.1630859z"/>
	<path fill="#70A0BB" d="M345.8305664,27.2480469v-8.3413086h0.9257813l2.9707031,5.0273438H349.75l2.9594727-5.0273438h0.9599609
		v8.3413086h-0.9140625v-6.8100586h-0.0229492l-2.5712891,4.3305664h-0.8569336l-2.5708008-4.3305664h-0.0229492v6.8100586
		H345.8305664z"/>
	<path fill="#70A0BB" d="M355.9545898,19.9350586v-1.2568359h0.8916016v1.2568359H355.9545898z M355.9545898,27.2480469v-5.9418945
		h0.8916016v5.9418945H355.9545898z"/>
	<path fill="#70A0BB" d="M359.7827148,21.3061523l1.5424805,2.3652344h0.0229492l1.5541992-2.3652344h0.9594727l-2.0336914,2.925293
		l2.0908203,3.0166016h-0.9936523l-1.6000977-2.4682617h-0.0229492l-1.6108398,2.4682617h-0.9599609l2.0913086-3.0166016
		l-2.0341797-2.925293H359.7827148z"/>
	<path fill="#70A0BB" d="M371.3686523,27.2480469V20.003418h-0.0224609l-2.2514648,2.0795898l-0.3540039-0.7426758
		l2.6279297-2.4335938h0.9140625v8.3413086H371.3686523z"/>
	<path fill="#70A0BB" d="M375.859375,18.9750977c0.7924805-0.121582,1.5654297-0.1826172,2.3198242-0.1826172
		c1.0356445,0,1.8203125,0.2207031,2.3535156,0.6625977s0.8037109,1.0664063,0.8115234,1.8740234
		c0,0.8837891-0.2705078,1.5541992-0.8115234,2.0112305c-0.5405273,0.4570313-1.3251953,0.6855469-2.3535156,0.6855469
		c-0.5029297,0-0.9711914-0.0229492-1.4057617-0.0688477v3.2910156h-0.9140625V18.9750977z M376.7734375,23.203125
		c0.4418945,0.0610352,0.8876953,0.0913086,1.3369141,0.0913086c0.7617188,0,1.3408203-0.1635742,1.7368164-0.4912109
		s0.5942383-0.7958984,0.5942383-1.4057617c0-0.609375-0.1982422-1.0737305-0.5942383-1.394043
		c-0.3959961-0.3198242-0.9750977-0.4760742-1.7368164-0.4682617c-0.4189453,0-0.8647461,0.0380859-1.3369141,0.1142578V23.203125z"
		/>
</g>
<g>
	<path fill="#7D7D7E" d="M31.6181641,50.8198242c-0.9360352-0.8999023-2.0161133-1.8056641-3.2402344-2.7177734l0.8100586-0.972168
		c1.2719727,0.9482422,2.3579102,1.8481445,3.2578125,2.7001953L31.6181641,50.8198242z M32.8598633,53.105957
		c-0.6958008,2.1240234-1.644043,4.0258789-2.84375,5.7060547l-1.1162109-0.737793
		c1.1518555-1.6679688,2.0761719-3.4799805,2.7719727-5.4360352L32.8598633,53.105957z M29.2241211,44.1420898l0.8100586-0.972168
		c1.1035156,0.828125,2.0878906,1.6503906,2.9516602,2.4658203l-0.8276367,0.972168
		C31.3056641,45.815918,30.328125,44.9941406,29.2241211,44.1420898z M36.171875,50.9458008l1.1879883-0.5039063
		c0.6479492,1.5478516,1.4819336,2.8623047,2.5019531,3.9418945c1.0917969-1.2119141,1.9741211-2.6699219,2.6459961-4.3740234
		h-7.2177734v0.090332c0,3.6000977-0.6542969,6.5161133-1.9619141,8.7480469l-0.9902344-1.0620117
		c0.972168-1.8720703,1.512207-4.2539063,1.6201172-7.1459961c0.0117188-0.4438477,0.0180664-0.90625,0.0180664-1.3862305
		v-4.7338867h4.8779297v-1.7460938h1.3862305v1.7460938h4.9858398v1.2060547
		c-0.3125,0.9243164-0.7260742,1.7998047-1.2421875,2.6279297l-1.1157227-0.5761719
		c0.4199219-0.684082,0.7675781-1.3676758,1.0439453-2.0517578h-3.671875v3.1137695h3.7255859v1.1699219
		c-0.7919922,2.1123047-1.8359375,3.8701172-3.1318359,5.2744141c1.2719727,1.0322266,2.7958984,1.8061523,4.5717773,2.3217773
		l-0.3417969,1.1879883c-2.027832-0.5522461-3.75-1.4160156-5.1660156-2.5917969
		c-1.3681641,1.1757813-2.9941406,2.0395508-4.8779297,2.5917969l-0.4501953-1.1879883
		c1.65625-0.4677734,3.1079102-1.2421875,4.355957-2.3217773C37.8217773,54.1201172,36.9038086,52.6738281,36.171875,50.9458008z
		 M38.8540039,45.7260742h-3.5639648v3.1137695h3.5639648V45.7260742z"/>
	<path fill="#7D7D7E" d="M58.762207,43.1518555l0.9897461-0.5219727c0.5039063,0.8164063,1.0078125,1.7099609,1.512207,2.6821289
		l-0.5043945,0.2519531v0.2700195c0,4.3920898-1.1401367,7.578125-3.4199219,9.5581055
		c-1.8959961,1.6318359-4.7099609,2.6098633-8.4418945,2.934082l-0.2158203-1.2602539
		c3.8276367-0.3598633,6.5576172-1.3979492,8.1899414-3.1137695c0.2998047-0.3120117,0.5639648-0.6420898,0.7919922-0.9902344
		c-2.0161133-1.0317383-3.9902344-1.9677734-5.921875-2.8081055l0.6298828-1.2060547
		c2.1601563,0.9360352,4.1401367,1.8720703,5.9399414,2.8081055c0.6000977-1.4038086,0.9296875-3.1376953,0.9897461-5.2016602
		h-7.199707c-0.6962891,2.1357422-1.8662109,3.9775391-3.5102539,5.5258789l-0.9360352-0.8642578
		c1.8120117-1.7036133,2.9941406-3.8579102,3.5463867-6.4619141c0.0834961-0.4199219,0.1499023-0.8398438,0.1977539-1.2597656
		l1.3139648,0.0717773c-0.0600586,0.5883789-0.1499023,1.1640625-0.2700195,1.7280273h7.5600586
		C59.5478516,44.4541016,59.1337891,43.7402344,58.762207,43.1518555z M61.1918945,42.8461914l1.0083008-0.5219727
		c0.5400391,0.8881836,1.0556641,1.7998047,1.5478516,2.7358398l-1.0078125,0.5039063
		C62.2119141,44.5678711,61.6958008,43.6621094,61.1918945,42.8461914z"/>
	<path fill="#7D7D7E" d="M67.2758789,47.9399414l1.2602539-0.2880859c0.371582,1.2602539,0.8037109,2.8564453,1.2958984,4.7880859
		l-1.277832,0.2880859C68.1459961,51.0478516,67.7197266,49.4521484,67.2758789,47.9399414z M78.7241211,47.2558594
		c-0.1079102,3.4804688-0.8100586,6.0244141-2.105957,7.6323242c-1.2241211,1.5361328-3.2402344,2.5556641-6.0483398,3.0595703
		c-0.2998047,0.0478516-0.605957,0.0961914-0.9179688,0.144043l-0.2700195-1.2060547
		c2.6640625-0.3959961,4.578125-1.1635742,5.7421875-2.3037109c1.199707-1.1757813,1.9257813-3.0600586,2.1777344-5.6518555
		c0.0478516-0.5400391,0.0839844-1.1220703,0.1083984-1.7460938L78.7241211,47.2558594z M71.2177734,47.4179688l1.2963867-0.2880859
		c0.4794922,1.6679688,0.9116211,3.3300781,1.2958984,4.9863281l-1.2958984,0.2875977
		C72.105957,50.6757813,71.6738281,49.0141602,71.2177734,47.4179688z"/>
	<path fill="#7D7D7E" d="M84.3217773,49.7041016l0.2524414-1.2783203c2.1118164,0.3720703,4.0615234,0.7382813,5.8496094,1.0981445
		l-0.2519531,1.2958984C87.315918,50.2558594,85.3662109,49.8837891,84.3217773,49.7041016z M85.0419922,56.7060547
		c3.815918-0.3359375,6.6479492-1.277832,8.4960938-2.8261719c1.7998047-1.5239258,3.0117188-3.8999023,3.6357422-7.1279297
		c0.0239258-0.1318359,0.0478516-0.2636719,0.0722656-0.3959961l1.3139648,0.2158203
		c-0.6723633,3.828125-2.1000977,6.6303711-4.2841797,8.40625c-2.0761719,1.6801758-5.0820313,2.6938477-9.0180664,3.0419922
		L85.0419922,56.7060547z M85.0961914,45.2758789l0.2519531-1.2958984c2.0996094,0.3359375,4.1396484,0.7080078,6.1196289,1.1162109
		l-0.2519531,1.277832C89.5117188,46.0258789,87.472168,45.6601563,85.0961914,45.2758789z"/>
	<path fill="#7D7D7E" d="M104.5,47.5258789h8.2797852l-0.6660156,8.6401367h2.9160156v1.1879883h-12.0595703v-1.1879883h7.7036133
		l0.5942383-7.4521484H104.5V47.5258789z"/>
	<path fill="#7D7D7E" d="M137.0800781,51.3779297c1.1879883-1.644043,2.7177734-2.4716797,4.5898438-2.4838867
		c1.3798828,0.012207,2.6396484,0.5341797,3.7802734,1.565918c0.9594727,0.8642578,1.9194336,1.2958984,2.8798828,1.2958984
		c1.1279297,0,2.1118164-0.4438477,2.9521484-1.3320313c0.1914063-0.2158203,0.3837891-0.4438477,0.5756836-0.684082
		l1.0620117,0.8823242c-1.1879883,1.644043-2.7177734,2.472168-4.5898438,2.4838867
		c-1.3803711-0.0117188-2.6401367-0.5336914-3.7802734-1.565918c-0.9599609-0.8642578-1.9199219-1.2958984-2.8798828-1.2958984
		c-1.0917969,0-2.0458984,0.4140625-2.8618164,1.2416992c-0.2280273,0.2402344-0.4560547,0.5039063-0.684082,0.7919922
		L137.0800781,51.3779297z"/>
	<path fill="#7D7D7E" d="M173.7099609,54.2578125l-1.0258789-0.9360352c1.355957-1.5595703,2.4536133-2.8554688,3.2939453-3.8876953
		c1.0317383-1.2602539,1.7158203-2.0219727,2.0517578-2.2861328c0.3720703-0.2758789,0.8222656-0.4140625,1.3500977-0.4140625
		s0.9960938,0.144043,1.4042969,0.4321289c0.371582,0.2641602,1.1699219,0.9780273,2.394043,2.1420898
		c2.1474609,2.0517578,4.1875,3.9238281,6.1196289,5.6157227l-0.9360352,1.0800781
		c-2.0878906-1.8359375-4.265625-3.8398438-6.5336914-6.0117188c-1.0322266-0.9960938-1.6743164-1.5600586-1.9262695-1.6923828
		c-0.1796875-0.0834961-0.3662109-0.1259766-0.5576172-0.1259766c-0.3125,0-0.6245117,0.1621094-0.9360352,0.4863281
		c-0.2285156,0.2402344-0.6484375,0.7319336-1.2602539,1.4755859
		C175.7919922,51.8164063,174.6459961,53.1899414,173.7099609,54.2578125z"/>
	<path fill="#7D7D7E" d="M193.0058594,47.5258789h11.1782227v1.3320313l-4.4638672,3.671875l0.0175781,0.0180664
		c0.1201172-0.0239258,0.2163086-0.0356445,0.2880859-0.0356445c0.4799805,0,0.8579102,0.2397461,1.1342773,0.7197266
		c0.1918945,0.3720703,0.3896484,0.9360352,0.59375,1.6918945c0.2280273,0.9003906,0.5039063,1.4521484,0.828125,1.65625
		c0.2397461,0.144043,0.6479492,0.2158203,1.2241211,0.2158203c0.7797852,0,1.5478516-0.1079102,2.3037109-0.3237305
		l0.234375,1.1879883c-0.8764648,0.2397461-1.7641602,0.3598633-2.6640625,0.3598633
		c-1.1401367,0-1.9321289-0.2519531-2.3759766-0.7558594c-0.300293-0.3481445-0.5463867-0.8881836-0.7382813-1.6201172
		c-0.2998047-1.1879883-0.6601563-1.8657227-1.0800781-2.0341797c-0.1079102-0.0478516-0.2280273-0.0717773-0.3598633-0.0717773
		c-0.300293,0-0.6240234,0.1079102-0.972168,0.3237305c-0.5878906,0.3842773-2.4296875,1.8183594-5.5258789,4.3022461
		l-0.7919922-1.0083008L202.2578125,48.75l-0.0175781-0.0361328h-9.234375V47.5258789z M194.8959961,44.7539063l0.1621094-1.1879883
		c2.7119141,0.4321289,5.3637695,0.6479492,7.9560547,0.6479492v1.2421875
		C200.6381836,45.4560547,197.9316406,45.222168,194.8959961,44.7539063z"/>
	<path fill="#7D7D7E" d="M209.0800781,51.3779297c1.1879883-1.644043,2.7177734-2.4716797,4.5898438-2.4838867
		c1.3798828,0.012207,2.6396484,0.5341797,3.7802734,1.565918c0.9594727,0.8642578,1.9194336,1.2958984,2.8798828,1.2958984
		c1.1279297,0,2.1118164-0.4438477,2.9521484-1.3320313c0.1914063-0.2158203,0.3837891-0.4438477,0.5756836-0.684082
		l1.0620117,0.8823242c-1.1879883,1.644043-2.7177734,2.472168-4.5898438,2.4838867
		c-1.3803711-0.0117188-2.6401367-0.5336914-3.7802734-1.565918c-0.9599609-0.8642578-1.9199219-1.2958984-2.8798828-1.2958984
		c-1.0917969,0-2.0458984,0.4140625-2.8618164,1.2416992c-0.2280273,0.2402344-0.4560547,0.5039063-0.684082,0.7919922
		L209.0800781,51.3779297z"/>
	<path fill="#7D7D7E" d="M37.8818359,66.8637695c2.2319336,1.9799805,4.7280273,3.7260742,7.4882813,5.2382813l-0.6123047,1.1699219
		C41.8896484,71.7241211,39.3041992,69.8999023,37,67.7998047c-2.315918,2.1123047-4.9023438,3.9360352-7.7578125,5.472168
		l-0.6123047-1.1699219c2.7719727-1.5239258,5.2680664-3.2700195,7.4882813-5.2382813H37.8818359z M44.6499023,82.4702148
		H29.3500977v-1.2060547h6.9296875v-3.6899414h-5.3095703v-1.1704102h5.3095703v-2.987793h-4.6259766v-1.1699219h10.7099609
		v1.1699219h-4.6435547v2.987793h5.3095703v1.1704102h-5.3095703v3.6899414h6.9296875V82.4702148z"/>
	<path fill="#7D7D7E" d="M47.5839844,73.434082l-0.6118164-1.2241211c2.1240234-1.6796875,3.6835938-3.6479492,4.6796875-5.9038086
		l1.3320313,0.2519531c-0.1079102,0.2880859-0.2641602,0.6420898-0.4677734,1.0620117h5.9936523v1.1337891
		c-0.5039063,0.6240234-1.0556641,1.2182617-1.6557617,1.7822266h5.2202148v10.0439453
		c0,0.9956055-0.1083984,1.6259766-0.3242188,1.8901367c-0.2158203,0.2519531-0.7441406,0.3837891-1.5839844,0.3959961
		c-0.0961914,0-0.1982422,0-0.3061523,0c-0.2641602,0-1.1040039-0.0302734-2.5200195-0.090332l-0.0537109-1.1699219
		c1.3798828,0.0600586,2.1660156,0.0898438,2.3579102,0.0898438c0.5400391,0,0.8520508-0.065918,0.9360352-0.1977539
		c0.0834961-0.1201172,0.1259766-0.4077148,0.1259766-0.8642578v-1.9438477H49.9418945
		c-0.3120117,1.65625-0.9243164,3.1020508-1.8359375,4.3378906l-1.1518555-0.8999023
		c0.9238281-1.2958984,1.5117188-2.8081055,1.7636719-4.5361328c0.1323242-0.9716797,0.1982422-2.1538086,0.1982422-3.5458984
		v-1.7099609C48.6157227,72.6240234,48.171875,72.9902344,47.5839844,73.434082z M54.5498047,75.1259766h-4.265625
		c-0.0244141,0.8759766-0.078125,1.6860352-0.1621094,2.4301758h4.4277344V75.1259766z M54.5498047,71.7060547h-4.265625v2.3037109
		h4.265625V71.7060547z M55.0541992,70.5361328c0.671875-0.5878906,1.277832-1.1821289,1.8178711-1.7822266h-4.9858398
		c-0.4204102,0.6479492-0.8461914,1.2421875-1.2783203,1.7822266H55.0541992z M55.8999023,74.0097656h4.8061523v-2.3037109
		h-4.8061523V74.0097656z M55.8999023,75.1259766v2.4301758h4.8061523v-2.4301758H55.8999023z"/>
	<path fill="#7D7D7E" d="M65.4399414,75.4140625v-1.2602539h7.5239258v-0.2875977V70.355957
		c-1.644043,0.1801758-3.5341797,0.2700195-5.6699219,0.2700195v-1.2597656c3.6240234,0,6.7080078-0.3300781,9.2519531-0.9902344
		c0.6479492-0.1679688,1.3139648-0.3598633,1.9980469-0.5761719l0.3959961,1.2241211
		c-1.644043,0.5283203-3.1621094,0.90625-4.5537109,1.1342773v3.7080078v0.2875977h6.1738281v1.2602539h-6.2460938
		c-0.2158203,2.5561523-1.0380859,4.3740234-2.4658203,5.4541016c-0.8642578,0.6479492-2.0102539,1.1098633-3.4379883,1.3857422
		l-0.3779297-1.2241211c1.8837891-0.3837891,3.1918945-1.1518555,3.9238281-2.3037109
		c0.5039063-0.815918,0.8217773-1.9199219,0.9541016-3.3120117H65.4399414z"/>
	<path fill="#7D7D7E" d="M86.6259766,68.2138672h1.4399414v3.5458984c0,3.4560547-0.3061523,5.8862305-0.9179688,7.2900391
		c-0.4677734,1.0800781-1.2597656,1.9443359-2.3759766,2.5922852c-0.2519531,0.144043-0.5283203,0.2880859-0.828125,0.4321289
		l-0.737793-1.1884766c1.1040039-0.5395508,1.8779297-1.1518555,2.3217773-1.8359375
		c0.6000977-0.9238281,0.9477539-2.5136719,1.0439453-4.7700195c0.0361328-0.7197266,0.0541992-1.5595703,0.0541992-2.5200195
		V68.2138672z M92.7460938,80.5800781c2.1357422-0.3359375,3.6416016-1.5541992,4.5180664-3.6542969
		c0.3598633-0.8999023,0.59375-1.9135742,0.7016602-3.0419922l1.3139648,0.1621094
		c-0.2519531,2.855957-1.2597656,4.9921875-3.0239258,6.4082031c-1.2841797,1.0200195-2.8378906,1.5297852-4.6616211,1.5297852
		h-0.2880859V68.2138672h1.4399414V80.5800781z"/>
	<path fill="#7D7D7E" d="M112.762207,67.1518555l0.9897461-0.5219727c0.5039063,0.8164063,1.0078125,1.7099609,1.512207,2.6821289
		l-0.5043945,0.2519531v0.2700195c0,4.3920898-1.1401367,7.578125-3.4199219,9.5581055
		c-1.8959961,1.6318359-4.7099609,2.6098633-8.4418945,2.934082l-0.2158203-1.2602539
		c3.8276367-0.3598633,6.5576172-1.3979492,8.1899414-3.1137695c0.2998047-0.3120117,0.5639648-0.6420898,0.7919922-0.9902344
		c-2.0161133-1.0317383-3.9902344-1.9677734-5.921875-2.8081055l0.6298828-1.2060547
		c2.1601563,0.9360352,4.1401367,1.8720703,5.9399414,2.8081055c0.6000977-1.4038086,0.9296875-3.1376953,0.9897461-5.2016602
		h-7.199707c-0.6962891,2.1357422-1.8662109,3.9775391-3.5102539,5.5258789l-0.9360352-0.8642578
		c1.8120117-1.7036133,2.9941406-3.8579102,3.5463867-6.4619141c0.0834961-0.4199219,0.1499023-0.8398438,0.1977539-1.2597656
		l1.3139648,0.0717773c-0.0600586,0.5883789-0.1499023,1.1640625-0.2700195,1.7280273h7.5600586
		C113.5478516,68.4541016,113.1337891,67.7402344,112.762207,67.1518555z M115.1918945,66.8461914l1.0083008-0.5219727
		c0.5400391,0.8881836,1.0556641,1.7998047,1.5478516,2.7358398l-1.0078125,0.5039063
		C116.2119141,68.5678711,115.6958008,67.6621094,115.1918945,66.8461914z"/>
	<path fill="#7D7D7E" d="M136.972168,75.4501953c0.9116211-1.5722656,1.9980469-2.5859375,3.2578125-3.0419922
		c0.4199219-0.15625,0.8398438-0.234375,1.2602539-0.234375c1.1157227,0,2.1357422,0.5942383,3.0595703,1.7822266
		c0.1201172,0.15625,0.5581055,0.7919922,1.3139648,1.9077148c0.6723633,1.0083008,1.2783203,1.6323242,1.8183594,1.8720703
		c0.2636719,0.1201172,0.5336914,0.1801758,0.8100586,0.1801758c0.9477539,0,1.8837891-0.6958008,2.8076172-2.0878906
		c0.0478516-0.0600586,0.1083984-0.144043,0.1801758-0.2519531c0.0717773-0.1201172,0.1259766-0.2041016,0.1621094-0.2519531
		l1.0439453,0.7016602c-1.2719727,2.0878906-2.6704102,3.1381836-4.1938477,3.1499023
		c-1.0683594,0-2.0644531-0.5874023-2.9882813-1.7636719c-0.1079102-0.1318359-0.5517578-0.7739258-1.3320313-1.9262695
		c-0.684082-1.0078125-1.3022461-1.6435547-1.8540039-1.9077148c-0.2758789-0.1201172-0.5581055-0.1801758-0.8457031-0.1801758
		c-0.9360352,0-1.8603516,0.5761719-2.7719727,1.7280273c-0.2641602,0.3242188-0.4921875,0.6601563-0.684082,1.0078125
		L136.972168,75.4501953z"/>
	<path fill="#7D7D7E" d="M173.7099609,78.2578125l-1.0258789-0.9360352c1.355957-1.5595703,2.4536133-2.8554688,3.2939453-3.8876953
		c1.0317383-1.2602539,1.7158203-2.0219727,2.0517578-2.2861328c0.3720703-0.2758789,0.8222656-0.4140625,1.3500977-0.4140625
		s0.9960938,0.144043,1.4042969,0.4321289c0.371582,0.2641602,1.1699219,0.9780273,2.394043,2.1420898
		c2.1474609,2.0517578,4.1875,3.9238281,6.1196289,5.6157227l-0.9360352,1.0800781
		c-2.0878906-1.8359375-4.265625-3.8398438-6.5336914-6.0117188c-1.0322266-0.9960938-1.6743164-1.5600586-1.9262695-1.6923828
		c-0.1796875-0.0834961-0.3662109-0.1259766-0.5576172-0.1259766c-0.3125,0-0.6245117,0.1621094-0.9360352,0.4863281
		c-0.2285156,0.2402344-0.6484375,0.7319336-1.2602539,1.4755859
		C175.7919922,75.8164063,174.6459961,77.1899414,173.7099609,78.2578125z"/>
	<path fill="#7D7D7E" d="M193.0058594,71.5258789h11.1782227v1.3320313l-4.4638672,3.671875l0.0175781,0.0180664
		c0.1201172-0.0239258,0.2163086-0.0356445,0.2880859-0.0356445c0.4799805,0,0.8579102,0.2397461,1.1342773,0.7197266
		c0.1918945,0.3720703,0.3896484,0.9360352,0.59375,1.6918945c0.2280273,0.9003906,0.5039063,1.4521484,0.828125,1.65625
		c0.2397461,0.144043,0.6479492,0.2158203,1.2241211,0.2158203c0.7797852,0,1.5478516-0.1079102,2.3037109-0.3237305
		l0.234375,1.1879883c-0.8764648,0.2397461-1.7641602,0.3598633-2.6640625,0.3598633
		c-1.1401367,0-1.9321289-0.2519531-2.3759766-0.7558594c-0.300293-0.3481445-0.5463867-0.8881836-0.7382813-1.6201172
		c-0.2998047-1.1879883-0.6601563-1.8657227-1.0800781-2.0341797c-0.1079102-0.0478516-0.2280273-0.0717773-0.3598633-0.0717773
		c-0.300293,0-0.6240234,0.1079102-0.972168,0.3237305c-0.5878906,0.3842773-2.4296875,1.8183594-5.5258789,4.3022461
		l-0.7919922-1.0083008L202.2578125,72.75l-0.0175781-0.0361328h-9.234375V71.5258789z M194.8959961,68.7539063l0.1621094-1.1879883
		c2.7119141,0.4321289,5.3637695,0.6479492,7.9560547,0.6479492v1.2421875
		C200.6381836,69.4560547,197.9316406,69.222168,194.8959961,68.7539063z"/>
	<path fill="#7D7D7E" d="M208.972168,75.4501953c0.9116211-1.5722656,1.9980469-2.5859375,3.2578125-3.0419922
		c0.4199219-0.15625,0.8398438-0.234375,1.2602539-0.234375c1.1157227,0,2.1357422,0.5942383,3.0595703,1.7822266
		c0.1201172,0.15625,0.5581055,0.7919922,1.3139648,1.9077148c0.6723633,1.0083008,1.2783203,1.6323242,1.8183594,1.8720703
		c0.2636719,0.1201172,0.5336914,0.1801758,0.8100586,0.1801758c0.9477539,0,1.8837891-0.6958008,2.8076172-2.0878906
		c0.0478516-0.0600586,0.1083984-0.144043,0.1801758-0.2519531c0.0717773-0.1201172,0.1259766-0.2041016,0.1621094-0.2519531
		l1.0439453,0.7016602c-1.2719727,2.0878906-2.6704102,3.1381836-4.1938477,3.1499023
		c-1.0683594,0-2.0644531-0.5874023-2.9882813-1.7636719c-0.1079102-0.1318359-0.5517578-0.7739258-1.3320313-1.9262695
		c-0.684082-1.0078125-1.3022461-1.6435547-1.8540039-1.9077148c-0.2758789-0.1201172-0.5581055-0.1801758-0.8457031-0.1801758
		c-0.9360352,0-1.8603516,0.5761719-2.7719727,1.7280273c-0.2641602,0.3242188-0.4921875,0.6601563-0.684082,1.0078125
		L208.972168,75.4501953z"/>
</g>
<g>
	<path fill="#7D7D7E" d="M328.6181641,50.8198242c-0.9243164-0.8876953-2.0043945-1.793457-3.2402344-2.7177734l0.8100586-0.972168
		c1.2719727,0.9482422,2.3579102,1.8481445,3.2578125,2.7001953L328.6181641,50.8198242z M329.8598633,53.105957
		c-0.6958008,2.1240234-1.644043,4.0258789-2.84375,5.7060547l-1.1162109-0.737793
		c1.1518555-1.65625,2.0761719-3.4682617,2.7719727-5.4360352L329.8598633,53.105957z M326.2241211,44.1420898l0.8100586-0.972168
		c1.0917969,0.828125,2.0756836,1.6503906,2.9516602,2.4658203l-0.8276367,0.972168
		C328.3178711,45.815918,327.3398438,44.9941406,326.2241211,44.1420898z M333.171875,50.9458008l1.1879883-0.5039063
		c0.6362305,1.5478516,1.4697266,2.8623047,2.5019531,3.9418945c1.0917969-1.199707,1.9741211-2.6577148,2.6459961-4.3740234
		h-7.2177734v0.090332c0,3.6000977-0.6542969,6.5161133-1.9619141,8.7480469l-0.9902344-1.0620117
		c0.5639648-1.1040039,0.9780273-2.3222656,1.2421875-3.6542969c0.2636719-1.3320313,0.3959961-2.9575195,0.3959961-4.8779297
		v-4.7338867h4.8779297v-1.7460938h1.3862305v1.7460938h4.9858398v1.2060547
		c-0.3125,0.9121094-0.7260742,1.7880859-1.2421875,2.6279297l-1.1157227-0.5761719
		c0.4199219-0.671875,0.7675781-1.355957,1.0439453-2.0517578h-3.671875v3.1137695h3.7255859v1.1699219
		c-0.7919922,2.1123047-1.8359375,3.8701172-3.1318359,5.2744141c1.2719727,1.0322266,2.7958984,1.8061523,4.5717773,2.3217773
		l-0.3417969,1.1879883c-2.027832-0.5400391-3.75-1.4038086-5.1660156-2.5917969
		c-1.355957,1.1757813-2.9819336,2.0395508-4.8779297,2.5917969l-0.4501953-1.1879883
		c1.65625-0.4677734,3.1079102-1.2421875,4.355957-2.3217773C334.8217773,54.1201172,333.9038086,52.6738281,333.171875,50.9458008z
		 M335.8540039,45.7260742h-3.5639648v3.1137695h3.5639648V45.7260742z"/>
	<path fill="#7D7D7E" d="M355.762207,43.1518555l0.9897461-0.5219727c0.4921875,0.8041992,0.9960938,1.6982422,1.512207,2.6821289
		l-0.5043945,0.2519531v0.2700195c0,4.0200195-0.9477539,7.0200195-2.84375,9s-4.9023438,3.144043-9.0180664,3.4921875
		l-0.2158203-1.2602539c2.2558594-0.2036133,4.1157227-0.6357422,5.5800781-1.2958984
		c1.4638672-0.659668,2.5976563-1.5957031,3.4018555-2.8081055c-2.0161133-1.0317383-3.9902344-1.9677734-5.921875-2.8081055
		l0.6298828-1.2060547c2.1479492,0.9360352,4.1279297,1.8720703,5.9399414,2.8081055
		c0.6000977-1.3916016,0.9296875-3.1254883,0.9897461-5.2016602h-7.199707
		c-0.684082,2.1357422-1.8540039,3.9775391-3.5102539,5.5258789l-0.9360352-0.8642578
		c1.0322266-0.9716797,1.8720703-2.1240234,2.5200195-3.4560547c0.6484375-1.331543,1.0561523-2.7539063,1.2241211-4.265625
		l1.3139648,0.0717773c-0.0600586,0.5883789-0.1499023,1.1640625-0.2700195,1.7280273h7.5600586
		C356.5478516,44.4658203,356.1337891,43.7519531,355.762207,43.1518555z M358.1918945,42.8461914l1.0083008-0.5219727
		c0.5400391,0.8881836,1.0556641,1.7998047,1.5478516,2.7358398l-1.0078125,0.5039063
		C359.2119141,44.5678711,358.6958008,43.6621094,358.1918945,42.8461914z"/>
	<path fill="#7D7D7E" d="M364.2758789,47.9399414l1.2602539-0.2880859c0.371582,1.2602539,0.8037109,2.8564453,1.2958984,4.7880859
		l-1.277832,0.2880859C365.1459961,51.0600586,364.7197266,49.4638672,364.2758789,47.9399414z M375.7241211,47.2558594
		c-0.0722656,2.4243164-0.4204102,4.3681641-1.0439453,5.8320313c-0.6245117,1.4643555-1.5722656,2.5922852-2.8442383,3.3842773
		s-3,1.3320313-5.184082,1.6196289l-0.2700195-1.2060547c2.9399414-0.4194336,4.9863281-1.3256836,6.1381836-2.7177734
		s1.7817383-3.7197266,1.8901367-6.9838867L375.7241211,47.2558594z M368.2177734,47.4179688l1.2963867-0.2880859
		c0.4794922,1.6679688,0.9116211,3.3300781,1.2958984,4.9863281l-1.2958984,0.2875977
		C369.105957,50.6757813,368.6738281,49.0141602,368.2177734,47.4179688z"/>
	<path fill="#7D7D7E" d="M381.3217773,49.7041016l0.2524414-1.2783203c2.0996094,0.3603516,4.0498047,0.7265625,5.8496094,1.0981445
		l-0.2519531,1.2958984C384.315918,50.2558594,382.3662109,49.8837891,381.3217773,49.7041016z M382.0419922,56.7060547
		c3.8276367-0.3481445,6.6660156-1.3017578,8.5141602-2.8623047c1.8476563-1.5595703,3.0776367-4.0556641,3.6899414-7.487793
		l1.3139648,0.2158203c-0.6723633,3.7202148-2.0400391,6.4682617-4.1040039,8.2441406
		c-2.0639648,1.7763672-5.1298828,2.8442383-9.1982422,3.2041016L382.0419922,56.7060547z M382.0961914,45.2758789
		l0.2519531-1.2958984c2.0878906,0.3359375,4.1279297,0.7080078,6.1196289,1.1162109l-0.2519531,1.277832
		C386.5239258,46.0258789,384.4838867,45.6601563,382.0961914,45.2758789z"/>
	<path fill="#7D7D7E" d="M401.5,47.5258789h8.2797852l-0.6660156,8.6401367h2.9160156v1.1879883h-12.0595703v-1.1879883h7.7036133
		l0.5942383-7.4521484H401.5V47.5258789z"/>
	<path fill="#7D7D7E" d="M434.0800781,51.3779297c1.1757813-1.6557617,2.7060547-2.4838867,4.5898438-2.4838867
		c1.3681641,0,2.6279297,0.5219727,3.7802734,1.565918c0.9482422,0.8642578,1.9072266,1.2958984,2.8798828,1.2958984
		c0.6953125,0,1.3203125-0.1557617,1.8720703-0.4677734s1.1035156-0.828125,1.6552734-1.5483398l1.0625,0.8823242
		c-1.1757813,1.6557617-2.7060547,2.4838867-4.5898438,2.4838867c-1.3681641,0-2.6279297-0.5219727-3.7802734-1.565918
		c-0.9482422-0.8642578-1.9072266-1.2958984-2.8798828-1.2958984c-0.7080078,0-1.3378906,0.1557617-1.890625,0.4677734
		c-0.5507813,0.3120117-1.1035156,0.8344727-1.6552734,1.565918L434.0800781,51.3779297z"/>
	<path fill="#7D7D7E" d="M470.7099609,54.2578125l-1.0263672-0.9360352c1.3564453-1.5478516,2.4541016-2.84375,3.2949219-3.8876953
		c0.9716797-1.199707,1.6376953-1.9501953,1.9980469-2.25c0.359375-0.2998047,0.828125-0.4501953,1.4033203-0.4501953
		c0.5283203,0,0.9833984,0.1323242,1.3681641,0.3959961c0.3837891,0.2641602,1.1933594,0.9902344,2.4296875,2.1782227
		c2.1367188,2.0400391,4.1757813,3.9121094,6.1201172,5.6157227l-0.9365234,1.0800781
		c-2.0761719-1.8359375-4.2539063-3.8398438-6.5332031-6.0117188c-0.8642578-0.828125-1.4277344-1.3378906-1.6914063-1.5302734
		c-0.2646484-0.1918945-0.5292969-0.2880859-0.7929688-0.2880859c-0.2753906,0-0.5332031,0.1079102-0.7734375,0.3242188
		c-0.2402344,0.2158203-0.7148438,0.762207-1.421875,1.6376953
		C472.8037109,51.8041992,471.6582031,53.1782227,470.7099609,54.2578125z"/>
	<path fill="#7D7D7E" d="M490.0058594,47.5258789h11.1777344v1.3320313l-4.4628906,3.671875l0.0175781,0.0180664
		c0.1191406-0.0239258,0.2158203-0.0356445,0.2871094-0.0356445c0.4199219,0,0.75,0.1616211,0.9902344,0.4858398
		c0.2402344,0.3237305,0.4863281,0.9658203,0.7382813,1.9257813c0.2285156,0.8164063,0.4619141,1.3320313,0.7021484,1.5483398
		c0.2392578,0.2158203,0.6904297,0.3237305,1.3505859,0.3237305c0.7792969,0,1.546875-0.1079102,2.3027344-0.3237305
		l0.234375,1.1879883c-0.8759766,0.2397461-1.7636719,0.3598633-2.6640625,0.3598633
		c-0.9599609,0-1.6621094-0.168457-2.1054688-0.5039063c-0.4443359-0.3359375-0.7802734-0.9599609-1.0078125-1.8720703
		c-0.2050781-0.815918-0.4140625-1.3681641-0.6308594-1.65625c-0.2148438-0.2875977-0.4853516-0.4375-0.8095703-0.449707
		c-0.1923828,0-0.3486328,0.0180664-0.4677734,0.0537109c-0.1083984,0.0244141-0.4023438,0.2045898-0.8828125,0.5400391
		c-0.4794922,0.3364258-1.0732422,0.7802734-1.78125,1.3320313c-0.7089844,0.5522461-1.8300781,1.4521484-3.3662109,2.7001953
		l-0.7919922-1.0083008L499.2578125,48.75l-0.0175781-0.0361328h-9.234375V47.5258789z M491.8964844,44.7539063l0.1621094-1.1879883
		c2.6992188,0.4321289,5.3515625,0.6479492,7.9550781,0.6479492v1.2421875
		C497.6386719,45.4560547,494.9316406,45.222168,491.8964844,44.7539063z"/>
	<path fill="#7D7D7E" d="M506.0800781,51.3779297c1.1757813-1.6557617,2.7060547-2.4838867,4.5898438-2.4838867
		c1.3681641,0,2.6279297,0.5219727,3.7802734,1.565918c0.9482422,0.8642578,1.9072266,1.2958984,2.8798828,1.2958984
		c0.6953125,0,1.3203125-0.1557617,1.8720703-0.4677734s1.1035156-0.828125,1.6552734-1.5483398l1.0625,0.8823242
		c-1.1757813,1.6557617-2.7060547,2.4838867-4.5898438,2.4838867c-1.3681641,0-2.6279297-0.5219727-3.7802734-1.565918
		c-0.9482422-0.8642578-1.9072266-1.2958984-2.8798828-1.2958984c-0.7080078,0-1.3378906,0.1557617-1.890625,0.4677734
		c-0.5507813,0.3120117-1.1035156,0.8344727-1.6552734,1.565918L506.0800781,51.3779297z"/>
	<path fill="#7D7D7E" d="M334.8818359,66.8637695c2.2202148,1.9799805,4.7163086,3.7260742,7.4882813,5.2382813
		l-0.6123047,1.1699219c-2.8681641-1.5361328-5.4536133-3.3598633-7.7578125-5.472168
		c-2.3041992,2.1123047-4.8901367,3.9360352-7.7578125,5.472168l-0.6123047-1.1699219
		c2.7719727-1.512207,5.2680664-3.2583008,7.4882813-5.2382813H334.8818359z M341.6499023,82.4702148h-15.2998047v-1.2060547
		h6.9296875v-3.6899414h-5.3095703v-1.1704102h5.3095703v-2.987793h-4.6259766v-1.1699219h10.7099609v1.1699219h-4.6435547v2.987793
		h5.3095703v1.1704102h-5.3095703v3.6899414h6.9296875V82.4702148z"/>
	<path fill="#7D7D7E" d="M344.5839844,73.434082l-0.6118164-1.2241211c2.1240234-1.6679688,3.6835938-3.6357422,4.6796875-5.9038086
		l1.3320313,0.2519531c-0.0961914,0.2758789-0.2519531,0.6298828-0.4677734,1.0620117h5.9936523v1.1337891
		c-0.4921875,0.6123047-1.0439453,1.2060547-1.6557617,1.7822266h5.2202148v10.0439453
		c0,1.0317383-0.1201172,1.6708984-0.3603516,1.9169922c-0.2402344,0.2456055-0.8579102,0.3691406-1.8540039,0.3691406
		c-0.2402344,0-1.0800781-0.0302734-2.5200195-0.090332l-0.0537109-1.1699219
		c1.3798828,0.0600586,2.1660156,0.0898438,2.3579102,0.0898438c0.5039063,0,0.8066406-0.0507813,0.9091797-0.152832
		c0.1015625-0.1015625,0.152832-0.4047852,0.152832-0.9091797v-1.9438477h-10.7641602
		c-0.3120117,1.65625-0.9243164,3.1020508-1.8359375,4.3378906l-1.1518555-0.8999023
		c0.7197266-1.0078125,1.2265625-2.105957,1.5209961-3.2939453c0.2939453-1.1879883,0.440918-2.7836914,0.440918-4.7880859
		v-1.7099609C345.6279297,72.6123047,345.184082,72.9780273,344.5839844,73.434082z M351.5498047,75.1259766h-4.265625
		c-0.0244141,0.8759766-0.078125,1.6860352-0.1621094,2.4301758h4.4277344V75.1259766z M351.5498047,71.7060547h-4.265625v2.3037109
		h4.265625V71.7060547z M352.0541992,70.5361328c0.671875-0.5878906,1.277832-1.1821289,1.8178711-1.7822266h-4.9858398
		c-0.4082031,0.6479492-0.8344727,1.2421875-1.2783203,1.7822266H352.0541992z M352.8999023,74.0097656h4.8061523v-2.3037109
		h-4.8061523V74.0097656z M352.8999023,75.1259766v2.4301758h4.8061523v-2.4301758H352.8999023z"/>
	<path fill="#7D7D7E" d="M362.4399414,75.4140625v-1.2602539h7.5239258v-0.2875977V70.355957
		c-1.6318359,0.1801758-3.5219727,0.2700195-5.6699219,0.2700195v-1.2597656c2.3759766,0,4.4101563-0.1201172,6.1020508-0.3603516
		c1.6918945-0.2397461,3.4077148-0.6416016,5.1479492-1.2060547l0.3959961,1.2241211
		c-1.644043,0.5283203-3.1621094,0.90625-4.5537109,1.1342773v3.7080078v0.2875977h6.1738281v1.2602539h-6.2460938
		c-0.15625,2.0761719-0.7021484,3.6420898-1.6381836,4.6977539c-0.9355469,1.0561523-2.3579102,1.7700195-4.265625,2.1420898
		l-0.3779297-1.2241211c1.6079102-0.3237305,2.7836914-0.9179688,3.527832-1.7817383
		c0.7436523-0.8642578,1.1938477-2.1420898,1.3500977-3.8339844H362.4399414z"/>
	<path fill="#7D7D7E" d="M383.6259766,68.2138672h1.4399414v3.5458984c-0.012207,2.3525391-0.1499023,4.1884766-0.4140625,5.5083008
		c-0.2641602,1.3203125-0.671875,2.3217773-1.2236328,3.0058594c-0.5522461,0.684082-1.3803711,1.2841797-2.484375,1.800293
		l-0.737793-1.1884766c0.9599609-0.4677734,1.6679688-0.9897461,2.1240234-1.565918
		c0.4560547-0.5756836,0.7856445-1.4277344,0.9897461-2.5556641c0.2041016-1.1401367,0.3061523-2.8081055,0.3061523-5.0043945
		V68.2138672z M389.7460938,80.5800781c1.5-0.2402344,2.699707-0.9360352,3.6000977-2.0878906
		c0.8999023-1.1523438,1.4399414-2.6879883,1.6196289-4.6083984l1.3139648,0.1621094
		c-0.2158203,2.4599609-1.0078125,4.3984375-2.3759766,5.8139648c-1.3676758,1.4160156-3.1381836,2.1240234-5.3095703,2.1240234
		h-0.2880859V68.2138672h1.4399414V80.5800781z"/>
	<path fill="#7D7D7E" d="M409.762207,67.1518555l0.9897461-0.5219727c0.4921875,0.8041992,0.9960938,1.6982422,1.512207,2.6821289
		l-0.5043945,0.2519531v0.2700195c0,4.0200195-0.9477539,7.0200195-2.84375,9s-4.9023438,3.144043-9.0180664,3.4921875
		l-0.2158203-1.2602539c2.2558594-0.2036133,4.1157227-0.6357422,5.5800781-1.2958984
		c1.4638672-0.659668,2.5976563-1.5957031,3.4018555-2.8081055c-2.0161133-1.0317383-3.9902344-1.9677734-5.921875-2.8081055
		l0.6298828-1.2060547c2.1479492,0.9360352,4.1279297,1.8720703,5.9399414,2.8081055
		c0.6000977-1.3916016,0.9296875-3.1254883,0.9897461-5.2016602h-7.199707
		c-0.684082,2.1357422-1.8540039,3.9775391-3.5102539,5.5258789l-0.9360352-0.8642578
		c1.0322266-0.9716797,1.8720703-2.1240234,2.5200195-3.4560547c0.6484375-1.331543,1.0561523-2.7539063,1.2241211-4.265625
		l1.3139648,0.0717773c-0.0600586,0.5883789-0.1499023,1.1640625-0.2700195,1.7280273h7.5600586
		C410.5478516,68.4658203,410.1337891,67.7519531,409.762207,67.1518555z M412.1918945,66.8461914l1.0083008-0.5219727
		c0.5400391,0.8881836,1.0556641,1.7998047,1.5478516,2.7358398l-1.0078125,0.5039063
		C413.2119141,68.5678711,412.6958008,67.6621094,412.1918945,66.8461914z"/>
	<path fill="#7D7D7E" d="M434.0800781,75.3779297c1.1757813-1.6557617,2.7060547-2.4838867,4.5898438-2.4838867
		c1.3681641,0,2.6279297,0.5219727,3.7802734,1.565918c0.9482422,0.8642578,1.9072266,1.2958984,2.8798828,1.2958984
		c0.6953125,0,1.3203125-0.1557617,1.8720703-0.4677734s1.1035156-0.828125,1.6552734-1.5483398l1.0625,0.8823242
		c-1.1757813,1.6557617-2.7060547,2.4838867-4.5898438,2.4838867c-1.3681641,0-2.6279297-0.5219727-3.7802734-1.565918
		c-0.9482422-0.8642578-1.9072266-1.2958984-2.8798828-1.2958984c-0.7080078,0-1.3378906,0.1557617-1.890625,0.4677734
		c-0.5507813,0.3120117-1.1035156,0.8344727-1.6552734,1.565918L434.0800781,75.3779297z"/>
	<path fill="#7D7D7E" d="M470.7099609,78.2578125l-1.0263672-0.9360352c1.3564453-1.5478516,2.4541016-2.84375,3.2949219-3.8876953
		c0.9716797-1.199707,1.6376953-1.9501953,1.9980469-2.25c0.359375-0.2998047,0.828125-0.4501953,1.4033203-0.4501953
		c0.5283203,0,0.9833984,0.1323242,1.3681641,0.3959961c0.3837891,0.2641602,1.1933594,0.9902344,2.4296875,2.1782227
		c2.1367188,2.0400391,4.1757813,3.9121094,6.1201172,5.6157227l-0.9365234,1.0800781
		c-2.0761719-1.8359375-4.2539063-3.8398438-6.5332031-6.0117188c-0.8642578-0.828125-1.4277344-1.3378906-1.6914063-1.5302734
		c-0.2646484-0.1918945-0.5292969-0.2880859-0.7929688-0.2880859c-0.2753906,0-0.5332031,0.1079102-0.7734375,0.3242188
		c-0.2402344,0.2158203-0.7148438,0.762207-1.421875,1.6376953
		C472.8037109,75.8041992,471.6582031,77.1782227,470.7099609,78.2578125z"/>
	<path fill="#7D7D7E" d="M490.0058594,71.5258789h11.1777344v1.3320313l-4.4628906,3.671875l0.0175781,0.0180664
		c0.1191406-0.0239258,0.2158203-0.0356445,0.2871094-0.0356445c0.4199219,0,0.75,0.1616211,0.9902344,0.4858398
		c0.2402344,0.3237305,0.4863281,0.9658203,0.7382813,1.9257813c0.2285156,0.8164063,0.4619141,1.3320313,0.7021484,1.5483398
		c0.2392578,0.2158203,0.6904297,0.3237305,1.3505859,0.3237305c0.7792969,0,1.546875-0.1079102,2.3027344-0.3237305
		l0.234375,1.1879883c-0.8759766,0.2397461-1.7636719,0.3598633-2.6640625,0.3598633
		c-0.9599609,0-1.6621094-0.168457-2.1054688-0.5039063c-0.4443359-0.3359375-0.7802734-0.9599609-1.0078125-1.8720703
		c-0.2050781-0.815918-0.4140625-1.3681641-0.6308594-1.65625c-0.2148438-0.2875977-0.4853516-0.4375-0.8095703-0.449707
		c-0.1923828,0-0.3486328,0.0180664-0.4677734,0.0537109c-0.1083984,0.0244141-0.4023438,0.2045898-0.8828125,0.5400391
		c-0.4794922,0.3364258-1.0732422,0.7802734-1.78125,1.3320313c-0.7089844,0.5522461-1.8300781,1.4521484-3.3662109,2.7001953
		l-0.7919922-1.0083008L499.2578125,72.75l-0.0175781-0.0361328h-9.234375V71.5258789z M491.8964844,68.7539063l0.1621094-1.1879883
		c2.6992188,0.4321289,5.3515625,0.6479492,7.9550781,0.6479492v1.2421875
		C497.6386719,69.4560547,494.9316406,69.222168,491.8964844,68.7539063z"/>
	<path fill="#7D7D7E" d="M506.0800781,75.3779297c1.1757813-1.6557617,2.7060547-2.4838867,4.5898438-2.4838867
		c1.3681641,0,2.6279297,0.5219727,3.7802734,1.565918c0.9482422,0.8642578,1.9072266,1.2958984,2.8798828,1.2958984
		c0.6953125,0,1.3203125-0.1557617,1.8720703-0.4677734s1.1035156-0.828125,1.6552734-1.5483398l1.0625,0.8823242
		c-1.1757813,1.6557617-2.7060547,2.4838867-4.5898438,2.4838867c-1.3681641,0-2.6279297-0.5219727-3.7802734-1.565918
		c-0.9482422-0.8642578-1.9072266-1.2958984-2.8798828-1.2958984c-0.7080078,0-1.3378906,0.1557617-1.890625,0.4677734
		c-0.5507813,0.3120117-1.1035156,0.8344727-1.6552734,1.565918L506.0800781,75.3779297z"/>
</g>
</svg>
