<?xml version="1.0" encoding="utf-8"?>
<!-- Generator: Adobe Illustrator 16.0.3, SVG Export Plug-In . SVG Version: 6.00 Build 0)  -->
<!DOCTYPE svg PUBLIC "-//W3C//DTD SVG 1.1//EN" "http://www.w3.org/Graphics/SVG/1.1/DTD/svg11.dtd">
<svg version="1.1" id="レイヤー_1" xmlns="http://www.w3.org/2000/svg" xmlns:xlink="http://www.w3.org/1999/xlink" x="0px"
	 y="0px" width="650px" height="125px" viewBox="0 0 650 125" enable-background="new 0 0 650 125" xml:space="preserve">
<g>
	<path fill="#70A0BB" d="M26.9711914,27.2480469v-8.3413086h0.9257813l2.9707031,5.0273438h0.0229492l2.9594727-5.0273438h0.9599609
		v8.3413086h-0.9140625v-6.8100586h-0.0229492l-2.5712891,4.3305664h-0.8569336l-2.5708008-4.3305664h-0.0229492v6.8100586
		H26.9711914z"/>
	<path fill="#70A0BB" d="M37.0952148,19.9350586v-1.2568359h0.8916016v1.2568359H37.0952148z M37.0952148,27.2480469v-5.9418945
		h0.8916016v5.9418945H37.0952148z"/>
	<path fill="#70A0BB" d="M39.8149414,24.1630859c0-0.9448242,0.2094727-1.6757813,0.628418-2.1943359
		c0.4189453-0.5175781,0.9980469-0.7768555,1.7368164-0.7768555c0.8916016,0,1.550293,0.3696289,1.9770508,1.1083984h0.0229492
		l0.0224609-0.9941406h0.7998047v5.4506836c0,2.0795898-0.9291992,3.1191406-2.7880859,3.1191406
		c-0.6396484,0-1.2529297-0.121582-1.8393555-0.3652344l0.1826172-0.6743164
		c0.5410156,0.2358398,1.0932617,0.3540039,1.6567383,0.3540039c0.6704102,0,1.1616211-0.1865234,1.4741211-0.5595703
		c0.3125-0.3735352,0.46875-0.9868164,0.46875-1.8398438v-0.7314453h-0.0229492
		c-0.4116211,0.7163086-1.0625,1.0742188-1.9541016,1.0742188c-0.6933594,0-1.2607422-0.2666016-1.7026367-0.7998047
		S39.8149414,25.0771484,39.8149414,24.1630859z M40.6376953,24.1630859c0,0.7006836,0.1601563,1.2568359,0.4799805,1.6679688
		c0.3198242,0.4116211,0.7387695,0.6171875,1.2568359,0.6171875c0.5258789,0,0.9560547-0.1982422,1.2910156-0.5942383
		c0.3354492-0.3959961,0.4990234-0.940918,0.4916992-1.6337891V24.105957c0-0.6933594-0.1679688-1.2382813-0.5029297-1.6342773
		c-0.3354492-0.3959961-0.7617188-0.5942383-1.2797852-0.5942383c-0.5410156,0-0.9638672,0.1982422-1.2685547,0.5942383
		S40.6450195,23.4316406,40.6376953,24.1630859z"/>
	<path fill="#70A0BB" d="M47.4819336,21.3061523v3.690918c0,0.609375,0.1010742,1.0361328,0.3027344,1.2797852
		s0.5390625,0.3657227,1.0112305,0.3657227c0.4418945,0,0.84375-0.2133789,1.2055664-0.6401367
		c0.3618164-0.4262695,0.5429688-0.9331055,0.5429688-1.5195313v-3.1767578h0.8452148v5.9418945h-0.7998047l-0.0224609-1.0625
		h-0.0229492c-0.2285156,0.3652344-0.5200195,0.6533203-0.8745117,0.8623047
		c-0.3540039,0.2094727-0.7329102,0.3144531-1.1367188,0.3144531c-0.6396484,0-1.1123047-0.1806641-1.4169922-0.5429688
		c-0.3046875-0.3613281-0.4570313-0.9423828-0.4570313-1.7421875v-3.7709961H47.4819336z"/>
	<path fill="#70A0BB" d="M59.125,27.2480469V20.003418h-0.0224609l-2.2514648,2.0795898l-0.3540039-0.7426758L59.125,18.9067383
		h0.9140625v8.3413086H59.125z"/>
	<path fill="#70A0BB" d="M67.3295898,19.5581055c-1.0058594-0.0078125-1.8056641,0.3081055-2.3999023,0.9482422
		c-0.5942383,0.6396484-0.8950195,1.4970703-0.9023438,2.5708008c0.0073242,1.0742188,0.315918,1.9311523,0.925293,2.5712891
		c0.609375,0.6396484,1.4018555,0.9560547,2.3769531,0.9482422c0.7919922,0,1.5273438-0.2172852,2.2050781-0.6513672
		l0.3085938,0.6855469c-0.746582,0.487793-1.6113281,0.7314453-2.59375,0.7314453
		c-1.2568359,0-2.2626953-0.3886719-3.0166016-1.1655273c-0.7543945-0.7768555-1.1313477-1.8168945-1.1313477-3.1196289
		c0-1.3178711,0.3730469-2.3613281,1.1196289-3.1308594c0.746582-0.769043,1.7558594-1.1538086,3.0283203-1.1538086
		c0.9824219,0,1.847168,0.2436523,2.59375,0.730957l-0.3085938,0.6860352
		C68.8569336,19.7749023,68.121582,19.5581055,67.3295898,19.5581055z"/>
</g>
<g>
	<path fill="#70A0BB" d="M325.9711914,27.2480469v-8.3413086h0.9257813l2.9707031,5.0273438h0.0229492l2.9594727-5.0273438
		h0.9599609v8.3413086h-0.9140625v-6.8100586h-0.0229492l-2.5712891,4.3305664h-0.8569336l-2.5708008-4.3305664h-0.0229492
		v6.8100586H325.9711914z"/>
	<path fill="#70A0BB" d="M336.0952148,19.9350586v-1.2568359h0.8916016v1.2568359H336.0952148z M336.0952148,27.2480469v-5.9418945
		h0.8916016v5.9418945H336.0952148z"/>
	<path fill="#70A0BB" d="M338.8149414,24.1630859c0-0.9448242,0.2094727-1.6757813,0.628418-2.1943359
		c0.4189453-0.5175781,0.9980469-0.7768555,1.7368164-0.7768555c0.8916016,0,1.550293,0.3696289,1.9770508,1.1083984h0.0229492
		l0.0224609-0.9941406h0.7998047v5.4506836c0,2.0795898-0.9291992,3.1191406-2.7880859,3.1191406
		c-0.6396484,0-1.2529297-0.121582-1.8393555-0.3652344l0.1826172-0.6743164
		c0.5410156,0.2358398,1.0932617,0.3540039,1.6567383,0.3540039c0.6704102,0,1.1616211-0.1865234,1.4741211-0.5595703
		c0.3125-0.3735352,0.46875-0.9868164,0.46875-1.8398438v-0.7314453h-0.0229492
		c-0.4116211,0.7163086-1.0625,1.0742188-1.9541016,1.0742188c-0.6933594,0-1.2607422-0.2666016-1.7026367-0.7998047
		S338.8149414,25.0771484,338.8149414,24.1630859z M339.6376953,24.1630859c0,0.7006836,0.1601563,1.2568359,0.4799805,1.6679688
		c0.3198242,0.4116211,0.7387695,0.6171875,1.2568359,0.6171875c0.5258789,0,0.9560547-0.1982422,1.2910156-0.5942383
		c0.3354492-0.3959961,0.4990234-0.940918,0.4916992-1.6337891V24.105957c0-0.6933594-0.1679688-1.2382813-0.5029297-1.6342773
		c-0.3354492-0.3959961-0.7617188-0.5942383-1.2797852-0.5942383c-0.5410156,0-0.9638672,0.1982422-1.2685547,0.5942383
		S339.6450195,23.4316406,339.6376953,24.1630859z"/>
	<path fill="#70A0BB" d="M346.4819336,21.3061523v3.690918c0,0.609375,0.1010742,1.0361328,0.3027344,1.2797852
		s0.5390625,0.3657227,1.0112305,0.3657227c0.4418945,0,0.84375-0.2133789,1.2055664-0.6401367
		c0.3618164-0.4262695,0.5429688-0.9331055,0.5429688-1.5195313v-3.1767578h0.8452148v5.9418945h-0.7998047l-0.0224609-1.0625
		h-0.0229492c-0.2285156,0.3652344-0.5200195,0.6533203-0.8745117,0.8623047
		c-0.3540039,0.2094727-0.7329102,0.3144531-1.1367188,0.3144531c-0.6396484,0-1.1123047-0.1806641-1.4169922-0.5429688
		c-0.3046875-0.3613281-0.4570313-0.9423828-0.4570313-1.7421875v-3.7709961H346.4819336z"/>
	<path fill="#70A0BB" d="M358.125,27.2480469V20.003418h-0.0224609l-2.2514648,2.0795898l-0.3540039-0.7426758L358.125,18.9067383
		h0.9140625v8.3413086H358.125z"/>
	<path fill="#70A0BB" d="M362.6157227,18.9750977c0.7924805-0.121582,1.5654297-0.1826172,2.3198242-0.1826172
		c1.0356445,0,1.8203125,0.2207031,2.3535156,0.6625977s0.8037109,1.0664063,0.8115234,1.8740234
		c0,0.8837891-0.2705078,1.5541992-0.8115234,2.0112305c-0.5405273,0.4570313-1.3251953,0.6855469-2.3535156,0.6855469
		c-0.5029297,0-0.9711914-0.0229492-1.4057617-0.0688477v3.2910156h-0.9140625V18.9750977z M363.5297852,23.203125
		c0.4418945,0.0610352,0.8876953,0.0913086,1.3369141,0.0913086c0.7617188,0,1.3408203-0.1635742,1.7368164-0.4912109
		s0.5942383-0.7958984,0.5942383-1.4057617c0-0.609375-0.1982422-1.0737305-0.5942383-1.394043
		c-0.3959961-0.3198242-0.9750977-0.4760742-1.7368164-0.4682617c-0.4189453,0-0.8647461,0.0380859-1.3369141,0.1142578V23.203125z"
		/>
</g>
<g>
	<path fill="#7D7D7E" d="M30.7539063,44.3398438l3.0961914,5.472168h0.0361328L37,44.3398438h1.6201172l-3.8520508,6.4799805
		l3.9418945,6.6601563h-1.6918945l-3.1679688-5.6518555h-0.0361328l-3.1860352,5.6518555h-1.6376953l3.9418945-6.6601563
		l-3.8520508-6.4799805H30.7539063z"/>
	<path fill="#7D7D7E" d="M41.0498047,48.1201172h1.2958984l0.0361328,1.3500977h0.0356445
		c0.8041992-1.0200195,1.8120117-1.5302734,3.0244141-1.5302734c1.5117188,0,2.5854492,0.6723633,3.2216797,2.0161133
		c0.3720703,0.7802734,0.5581055,1.7280273,0.5581055,2.84375c0,1.8964844-0.5400391,3.2763672-1.6201172,4.1401367
		c-0.6240234,0.4799805-1.34375,0.7202148-2.159668,0.7202148c-1.2485352-0.012207-2.2382813-0.4799805-2.9702148-1.4042969
		h-0.0361328v5.184082h-1.3857422V48.1201172z M47.8359375,52.7998047c-0.012207-2.5078125-0.9121094-3.7675781-2.7001953-3.7797852
		c-0.8642578,0-1.578125,0.3359375-2.1420898,1.0078125c-0.3720703,0.456543-0.5581055,0.9541016-0.5581055,1.4941406v2.5561523
		c0,0.8037109,0.3540039,1.4580078,1.0620117,1.9619141c0.5039063,0.3598633,1.050293,0.5400391,1.6381836,0.5400391
		c1.3076172,0,2.1479492-0.7138672,2.5200195-2.1420898C47.7753906,53.9580078,47.8359375,53.4121094,47.8359375,52.7998047z"/>
	<path fill="#7D7D7E" d="M52.1376953,53.1601563c0.0961914,2.2919922,1.1816406,3.4438477,3.2578125,3.4560547
		c0.828125,0,1.7163086-0.1982422,2.6640625-0.5942383v1.1879883c-0.9960938,0.2998047-1.9257813,0.4501953-2.7900391,0.4501953
		c-2.6162109,0-4.0976563-1.2358398-4.4458008-3.7080078c-0.0478516-0.3720703-0.0717773-0.7563477-0.0717773-1.1523438
		c0-2.6875,0.9716797-4.265625,2.9160156-4.7338867c0.3837891-0.0839844,0.7919922-0.1259766,1.2236328-0.1259766
		c2.5078125,0.0244141,3.7680664,1.6020508,3.7802734,4.7338867c0,0.1201172-0.012207,0.2822266-0.0361328,0.4863281H52.1376953z
		 M52.1376953,52.0981445h5.184082c-0.0483398-2.0639648-0.8579102-3.1020508-2.4301758-3.1142578
		c-1.7041016,0-2.6220703,1.0258789-2.7539063,3.078125C52.1376953,52.0742188,52.1376953,52.0859375,52.1376953,52.0981445z"/>
	<path fill="#7D7D7E" d="M60.831543,48.1201172h1.3676758v2.0878906h0.0361328
		c0.5878906-0.9960938,1.5-1.644043,2.7363281-1.9438477c0.4194336-0.0961914,0.8393555-0.144043,1.2597656-0.144043h0.3598633
		v1.2060547h-0.3598633c-1.7998047,0-3,0.6420898-3.6000977,1.9257813
		c-0.2402344,0.5161133-0.3598633,1.1162109-0.3598633,1.7998047v4.4282227H60.831543V48.1201172z"/>
	<path fill="#7D7D7E" d="M69.6513672,45.9057617v-1.9257813h1.4399414v1.9257813H69.6513672z M69.6513672,57.4799805v-9.3598633
		h1.4399414v9.3598633H69.6513672z"/>
	<path fill="#7D7D7E" d="M80.1274414,51.5400391v-0.4858398c0-0.9121094-0.2817383-1.4941406-0.8457031-1.7460938
		c-0.3481445-0.1557617-0.828125-0.2338867-1.4399414-0.2338867c-1.0205078,0-2.105957,0.2280273-3.2583008,0.6835938v-1.2416992
		c1.0800781-0.3842773,2.1660156-0.5761719,3.2583008-0.5761719c1.5478516,0,2.5737305,0.3359375,3.0776367,1.0078125
		c0.3959961,0.5283203,0.5942383,1.3500977,0.5942383,2.4663086v6.065918h-1.2958984l-0.0361328-1.6020508h-0.0361328
		c-0.7919922,1.1401367-1.8959961,1.7338867-3.3120117,1.7822266c-1.0678711,0-1.8540039-0.4082031-2.3579102-1.2241211
		c-0.2763672-0.4682617-0.4140625-1.0019531-0.4140625-1.6020508c0-1.6318359,0.9541016-2.6577148,2.8623047-3.078125
		c0.6235352-0.144043,1.3320313-0.2158203,2.1240234-0.2158203H80.1274414z M80.1274414,52.5297852h-1.0795898
		c-2.0766602,0-3.2583008,0.5644531-3.5463867,1.6923828c-0.0356445,0.1679688-0.0537109,0.3359375-0.0537109,0.5039063
		c0,0.8041992,0.3056641,1.3500977,0.9179688,1.6376953c0.2397461,0.1083984,0.4916992,0.1621094,0.7558594,0.1621094
		c1.0678711,0,1.8837891-0.4077148,2.4482422-1.2241211c0.371582-0.5517578,0.5576172-1.1938477,0.5576172-1.9257813V52.5297852z"/>
	<path fill="#7D7D7E" d="M92.4033203,44.1601563c1.3198242,0,2.5380859,0.2519531,3.6538086,0.7558594v1.3681641
		c-1.1757813-0.6362305-2.3579102-0.9541016-3.5458984-0.9541016c-1.2480469,0-2.0102539,0.4379883-2.2861328,1.3139648
		c-0.0717773,0.2280273-0.1079102,0.4677734-0.1079102,0.7197266c0,1.0922852,0.6899414,1.9082031,2.0703125,2.4482422
		c0.0957031,0.0361328,0.1914063,0.0717773,0.2875977,0.1079102c1.9199219,0.6362305,3.1323242,1.434082,3.6362305,2.394043
		c0.2636719,0.4921875,0.3959961,1.0742188,0.3959961,1.7460938c0,1.9438477-0.9423828,3.1020508-2.8261719,3.4741211
		c-0.4077148,0.0834961-0.8579102,0.1259766-1.3496094,0.1259766c-1.1884766,0-2.2563477-0.2519531-3.2041016-0.7563477
		c-0.0844727-0.0356445-0.15625-0.0717773-0.2163086-0.1079102v-1.421875
		c1.0322266,0.7080078,2.1357422,1.0683594,3.3120117,1.0800781c1.8242188-0.1201172,2.7719727-0.9179688,2.8442383-2.394043
		c0-0.9599609-0.4741211-1.7041016-1.421875-2.2319336c-0.3364258-0.1918945-0.7382813-0.3662109-1.2060547-0.5219727
		c-2.2802734-0.7680664-3.5102539-1.9262695-3.6899414-3.4741211c-0.0244141-0.1557617-0.0361328-0.3120117-0.0361328-0.4682617
		c0-1.4038086,0.5996094-2.3579102,1.7998047-2.8618164C91.0532227,44.2739258,91.6831055,44.1601563,92.4033203,44.1601563z"/>
	<path fill="#7D7D7E" d="M100.3413086,44.3398438l3.0961914,5.472168h0.0361328l3.1137695-5.472168h1.6201172l-3.8520508,6.4799805
		l3.9418945,6.6601563h-1.6918945L103.4375,51.828125h-0.0361328l-3.1860352,5.6518555h-1.6376953l3.9418945-6.6601563
		l-3.8520508-6.4799805H100.3413086z"/>
	<path fill="#7D7D7E" d="M118.9169922,44.1601563c1.3198242,0,2.5380859,0.2519531,3.6538086,0.7558594v1.3681641
		c-1.1757813-0.6362305-2.3579102-0.9541016-3.5458984-0.9541016c-1.2480469,0-2.0102539,0.4379883-2.2861328,1.3139648
		c-0.0717773,0.2280273-0.1079102,0.4677734-0.1079102,0.7197266c0,1.0922852,0.6899414,1.9082031,2.0703125,2.4482422
		c0.0957031,0.0361328,0.1914063,0.0717773,0.2875977,0.1079102c1.9199219,0.6362305,3.1323242,1.434082,3.6362305,2.394043
		c0.2636719,0.4921875,0.3959961,1.0742188,0.3959961,1.7460938c0,1.9438477-0.9423828,3.1020508-2.8261719,3.4741211
		c-0.4077148,0.0834961-0.8579102,0.1259766-1.3496094,0.1259766c-1.1884766,0-2.2563477-0.2519531-3.2041016-0.7563477
		c-0.0844727-0.0356445-0.15625-0.0717773-0.2163086-0.1079102v-1.421875
		c1.0322266,0.7080078,2.1357422,1.0683594,3.3120117,1.0800781c1.8242188-0.1201172,2.7719727-0.9179688,2.8442383-2.394043
		c0-0.9599609-0.4741211-1.7041016-1.421875-2.2319336c-0.3364258-0.1918945-0.7382813-0.3662109-1.2060547-0.5219727
		c-2.2802734-0.7680664-3.5102539-1.9262695-3.6899414-3.4741211c-0.0244141-0.1557617-0.0361328-0.3120117-0.0361328-0.4682617
		c0-1.4038086,0.5996094-2.3579102,1.7998047-2.8618164C117.5668945,44.2739258,118.1967773,44.1601563,118.9169922,44.1601563z"/>
	<path fill="#7D7D7E" d="M130.5268555,57.6601563c-2.1118164,0-3.6660156-0.815918-4.6616211-2.4482422
		c-0.6962891-1.1396484-1.0439453-2.5737305-1.0439453-4.3017578c0-2.6518555,0.7675781-4.5600586,2.3037109-5.7241211
		c0.9360352-0.684082,2.0703125-1.0258789,3.4018555-1.0258789c2.1123047,0,3.6660156,0.815918,4.6621094,2.4477539
		c0.6958008,1.1401367,1.0439453,2.5742188,1.0439453,4.3022461c0,2.6518555-0.7680664,4.5600586-2.3037109,5.7236328
		C132.9931641,57.3178711,131.8588867,57.6601563,130.5268555,57.6601563z M130.5268555,45.3662109
		c-2.1240234,0-3.449707,1.0859375-3.9775391,3.2578125c-0.168457,0.6723633-0.2524414,1.434082-0.2524414,2.2861328
		c0,2.9760742,0.9418945,4.7578125,2.8261719,5.3457031c0.4321289,0.1323242,0.8999023,0.1982422,1.4038086,0.1982422
		c2.1240234,0,3.4501953-1.0859375,3.9780273-3.2583008c0.1679688-0.671875,0.2519531-1.4335938,0.2519531-2.2856445
		c0-2.9760742-0.9418945-4.7583008-2.8256836-5.3461914C131.4990234,45.4321289,131.03125,45.3662109,130.5268555,45.3662109z"/>
	<path fill="#7D7D7E" d="M138.3930664,52.8901367v-1.1342773h5.5083008v1.1342773H138.3930664z"/>
	<path fill="#7D7D7E" d="M150.9208984,44.1601563c2.6157227,0,4.1459961,1.5239258,4.5898438,4.5717773
		c0.0961914,0.6601563,0.144043,1.3862305,0.144043,2.1782227c0,4.2001953-1.3681641,6.4379883-4.1040039,6.7138672
		c-0.2041016,0.0239258-0.4140625,0.0361328-0.6298828,0.0361328c-2.6162109,0-4.1464844-1.5239258-4.5898438-4.5722656
		c-0.0961914-0.659668-0.144043-1.3857422-0.144043-2.1777344c0-4.2001953,1.3676758-6.4379883,4.1040039-6.7143555
		C150.4946289,44.171875,150.7045898,44.1601563,150.9208984,44.1601563z M147.9506836,53.9521484l5.8139648-6.4980469
		c-0.5161133-1.4042969-1.4638672-2.1118164-2.84375-2.1240234c-1.5722656,0-2.5800781,0.90625-3.0239258,2.7177734
		c-0.1801758,0.7680664-0.2700195,1.722168-0.2700195,2.8623047
		C147.6269531,52.1459961,147.7348633,53.1601563,147.9506836,53.9521484z M148.1489258,54.5458984
		c0.527832,1.2841797,1.4516602,1.9321289,2.7719727,1.9438477c1.5717773,0,2.5795898-0.9057617,3.0239258-2.7177734
		c0.1801758-0.7797852,0.2700195-1.7338867,0.2700195-2.8618164s-0.0898438-2.0761719-0.2700195-2.8442383L148.1489258,54.5458984z"
		/>
	<path fill="#7D7D7E" d="M165.7167969,45.5458984h-5.6879883l-0.2519531,4.2480469h0.0361328
		c0.7202148-0.4199219,1.5180664-0.6298828,2.394043-0.6298828c1.7998047,0,3.0117188,0.6601563,3.6357422,1.9799805
		c0.2758789,0.5761719,0.4140625,1.2480469,0.4140625,2.0161133c0,2.3876953-1.0498047,3.828125-3.1499023,4.3198242
		c-0.5161133,0.1196289-1.0800781,0.1801758-1.6918945,0.1801758c-1.1518555,0-2.2202148-0.2280273-3.2041016-0.684082v-1.3681641
		c1.0917969,0.5644531,2.1601563,0.8461914,3.2041016,0.8461914c2.0400391,0,3.1616211-0.8999023,3.3657227-2.7001953
		c0.0239258-0.1918945,0.0361328-0.3896484,0.0361328-0.59375c0-1.5961914-0.6958008-2.5200195-2.0878906-2.7719727
		c-0.2402344-0.0478516-0.4980469-0.0722656-0.7739258-0.0722656c-0.9482422,0.012207-1.734375,0.2880859-2.3579102,0.828125
		h-1.2602539l0.3959961-6.8041992h6.9838867V45.5458984z"/>
	<path fill="#7D7D7E" d="M178.7851563,50.7299805c-0.0244141,4.6079102-2.1601563,6.9179688-6.4082031,6.9301758
		c-1.0678711,0-2.1298828-0.0961914-3.1860352-0.2880859V44.4477539c1.0800781-0.1914063,2.1420898-0.2875977,3.1860352-0.2875977
		C176.6367188,44.184082,178.7729492,46.3740234,178.7851563,50.7299805z M177.4169922,50.7299805
		c0-2.7597656-0.9599609-4.4458008-2.8798828-5.0581055c-0.6240234-0.2036133-1.3442383-0.3056641-2.1601563-0.3056641
		c-0.6240234,0-1.2060547,0.0537109-1.7456055,0.1616211v10.7641602c0.5517578,0.1079102,1.1337891,0.1621094,1.7456055,0.1621094
		c2.2324219,0,3.7080078-0.7563477,4.4282227-2.2680664C177.2128906,53.3100586,177.4169922,52.1582031,177.4169922,50.7299805z"/>
	<path fill="#7D7D7E" d="M186.7949219,61.4399414V42.8999023h1.3320313v18.5400391H186.7949219z"/>
	<path fill="#7D7D7E" d="M202.9946289,43.9799805h1.3857422v13.5h-1.2958984l-0.0180664-1.3320313h-0.0361328
		c-0.8037109,1.0078125-1.8120117,1.512207-3.0239258,1.512207c-1.3198242,0-2.328125-0.5761719-3.0239258-1.7280273
		c-0.5039063-0.8398438-0.7558594-1.8837891-0.7558594-3.1323242c0-2.1240234,0.6176758-3.5698242,1.8540039-4.3378906
		c0.5517578-0.3476563,1.1938477-0.5219727,1.9257813-0.5219727c1.2001953,0.012207,2.184082,0.4799805,2.9521484,1.4038086
		h0.0361328V43.9799805z M197.5947266,52.7998047c0,2.1240234,0.659668,3.3544922,1.9799805,3.6899414
		c0.2275391,0.0605469,0.4677734,0.090332,0.7197266,0.090332c0.828125,0,1.5302734-0.3178711,2.105957-0.9541016
		c0.3959961-0.4560547,0.5942383-0.9360352,0.5942383-1.4399414v-2.7719727c0-0.6958008-0.3300781-1.2958984-0.9902344-1.800293
		c-0.5283203-0.3959961-1.0976563-0.59375-1.7099609-0.59375C198.5063477,49.0439453,197.6064453,50.3041992,197.5947266,52.7998047
		z"/>
	<path fill="#7D7D7E" d="M210.8242188,47.9399414c1.7880859,0,3.0361328,0.7202148,3.7441406,2.1601563
		c0.3598633,0.7558594,0.5400391,1.6557617,0.5400391,2.699707c0,2.1123047-0.684082,3.5522461-2.0522461,4.3203125
		c-0.6362305,0.3598633-1.3798828,0.5400391-2.2319336,0.5400391c-1.7880859,0-3.0361328-0.7202148-3.7441406-2.1601563
		c-0.3598633-0.7558594-0.5395508-1.65625-0.5395508-2.7001953c0-2.1118164,0.6835938-3.5517578,2.0517578-4.3198242
		C209.2280273,48.1201172,209.972168,47.9399414,210.8242188,47.9399414z M210.8242188,56.5800781
		c1.7519531,0,2.7060547-1.0498047,2.8623047-3.1499023c0.0117188-0.2041016,0.0175781-0.4140625,0.0175781-0.6303711
		c0-2.4116211-0.8818359-3.671875-2.6459961-3.7797852c-0.0839844,0-0.1616211,0-0.2338867,0
		c-1.7519531,0-2.7060547,1.050293-2.8618164,3.1499023c-0.012207,0.2041016-0.0180664,0.4140625-0.0180664,0.6298828
		c0,2.4121094,0.8818359,3.6723633,2.6459961,3.7802734C210.6743164,56.5800781,210.7524414,56.5800781,210.8242188,56.5800781z"/>
	<path fill="#7D7D7E" d="M220.8681641,49.0561523C218.9599609,49.0800781,218,50.328125,217.9882813,52.7998047
		c0,2.1362305,0.7255859,3.3544922,2.1777344,3.6542969c0.2758789,0.0600586,0.5698242,0.0898438,0.8823242,0.0898438
		c0.815918,0,1.6137695-0.1621094,2.3935547-0.4858398v1.2060547c-0.8520508,0.2636719-1.6801758,0.3959961-2.4838867,0.3959961
		c-2.1479492,0-3.5161133-0.9121094-4.1040039-2.7363281c-0.2041016-0.6235352-0.3056641-1.3320313-0.3056641-2.1240234
		c0-2.3398438,0.7856445-3.8398438,2.3579102-4.5c0.5517578-0.2397461,1.1757813-0.3598633,1.8720703-0.3598633
		c0.9116211,0,1.7695313,0.1079102,2.5737305,0.3242188v1.2060547
		C222.5600586,49.1938477,221.7319336,49.0561523,220.8681641,49.0561523z"/>
	<path fill="#7D7D7E" d="M229.7060547,47.9399414c1.7880859,0,3.0361328,0.7202148,3.7441406,2.1601563
		c0.3598633,0.7558594,0.5400391,1.6557617,0.5400391,2.699707c0,2.1123047-0.684082,3.5522461-2.0522461,4.3203125
		c-0.6362305,0.3598633-1.3798828,0.5400391-2.2319336,0.5400391c-1.7880859,0-3.0361328-0.7202148-3.7441406-2.1601563
		c-0.3598633-0.7558594-0.5395508-1.65625-0.5395508-2.7001953c0-2.1118164,0.6835938-3.5517578,2.0517578-4.3198242
		C228.1098633,48.1201172,228.8540039,47.9399414,229.7060547,47.9399414z M229.7060547,56.5800781
		c1.7519531,0,2.7060547-1.0498047,2.8623047-3.1499023c0.0117188-0.2041016,0.0175781-0.4140625,0.0175781-0.6303711
		c0-2.4116211-0.8818359-3.671875-2.6459961-3.7797852c-0.0839844,0-0.1616211,0-0.2338867,0
		c-1.7519531,0-2.7060547,1.050293-2.8618164,3.1499023c-0.012207,0.2041016-0.0180664,0.4140625-0.0180664,0.6298828
		c0,2.4121094,0.8818359,3.6723633,2.6459961,3.7802734C229.5561523,56.5800781,229.6342773,56.5800781,229.7060547,56.5800781z"/>
	<path fill="#7D7D7E" d="M237.3920898,48.1201172l0.0180664,1.277832h0.0356445
		c0.6958008-0.9599609,1.5180664-1.4458008,2.4663086-1.4580078c0.9238281,0,1.5898438,0.3598633,1.9980469,1.0800781
		c0.0957031,0.1801758,0.1855469,0.3779297,0.2700195,0.59375h0.0356445
		c0.6958008-1.1035156,1.578125-1.6616211,2.6459961-1.6738281c1.2241211,0,2.0219727,0.4682617,2.394043,1.4038086
		c0.2163086,0.5400391,0.3242188,1.2724609,0.3242188,2.1962891v5.9399414h-1.3500977v-5.5800781
		c0-1.4038086-0.2280273-2.2739258-0.684082-2.6098633c-0.2519531-0.1801758-0.605957-0.2700195-1.0620117-0.2700195
		c-0.5039063,0-0.9780273,0.2822266-1.421875,0.8461914c-0.3598633,0.4438477-0.5400391,0.8881836-0.5400391,1.331543v6.2822266
		h-1.3681641v-5.5800781c0-1.4155273-0.2338867-2.2919922-0.7016602-2.6279297
		c-0.2519531-0.1679688-0.5942383-0.2519531-1.0263672-0.2519531c-0.5039063,0-0.9838867,0.2822266-1.4399414,0.8461914
		c-0.3598633,0.4438477-0.5400391,0.8881836-0.5400391,1.331543v6.2822266h-1.3857422v-9.3598633H237.3920898z"/>
	<path fill="#7D7D7E" d="M253.84375,47.9399414c1.7880859,0,3.0361328,0.7202148,3.7441406,2.1601563
		c0.3598633,0.7558594,0.5400391,1.6557617,0.5400391,2.699707c0,2.1123047-0.684082,3.5522461-2.0522461,4.3203125
		c-0.6362305,0.3598633-1.3798828,0.5400391-2.2319336,0.5400391c-1.7880859,0-3.0361328-0.7202148-3.7441406-2.1601563
		c-0.3598633-0.7558594-0.5395508-1.65625-0.5395508-2.7001953c0-2.1118164,0.6835938-3.5517578,2.0517578-4.3198242
		C252.2475586,48.1201172,252.9916992,47.9399414,253.84375,47.9399414z M253.84375,56.5800781
		c1.7519531,0,2.7060547-1.0498047,2.8623047-3.1499023c0.0117188-0.2041016,0.0175781-0.4140625,0.0175781-0.6303711
		c0-2.4116211-0.8818359-3.671875-2.6459961-3.7797852c-0.0839844,0-0.1616211,0-0.2338867,0
		c-1.7519531,0-2.7060547,1.050293-2.8618164,3.1499023c-0.012207,0.2041016-0.0180664,0.4140625-0.0180664,0.6298828
		c0,2.4121094,0.8818359,3.6723633,2.6459961,3.7802734C253.6938477,56.5800781,253.7719727,56.5800781,253.84375,56.5800781z"/>
	<path fill="#7D7D7E" d="M30.7539063,68.3398438l3.0961914,5.472168h0.0361328L37,68.3398438h1.6201172l-3.8520508,6.4799805
		l3.9418945,6.6601563h-1.6918945l-3.1679688-5.6518555h-0.0361328l-3.1860352,5.6518555h-1.6376953l3.9418945-6.6601563
		l-3.8520508-6.4799805H30.7539063z"/>
	<path fill="#7D7D7E" d="M41.0498047,72.1201172h1.2958984l0.0361328,1.3500977h0.0356445
		c0.8041992-1.0200195,1.8120117-1.5302734,3.0244141-1.5302734c1.5117188,0,2.5854492,0.6723633,3.2216797,2.0161133
		c0.3720703,0.7802734,0.5581055,1.7280273,0.5581055,2.84375c0,1.8964844-0.5400391,3.2763672-1.6201172,4.1401367
		c-0.6240234,0.4799805-1.34375,0.7202148-2.159668,0.7202148c-1.2485352-0.012207-2.2382813-0.4799805-2.9702148-1.4042969
		h-0.0361328v5.184082h-1.3857422V72.1201172z M47.8359375,76.7998047c-0.012207-2.5078125-0.9121094-3.7675781-2.7001953-3.7797852
		c-0.8642578,0-1.578125,0.3359375-2.1420898,1.0078125c-0.3720703,0.456543-0.5581055,0.9541016-0.5581055,1.4941406v2.5561523
		c0,0.8037109,0.3540039,1.4580078,1.0620117,1.9619141c0.5039063,0.3598633,1.050293,0.5400391,1.6381836,0.5400391
		c1.3076172,0,2.1479492-0.7138672,2.5200195-2.1420898C47.7753906,77.9580078,47.8359375,77.4121094,47.8359375,76.7998047z"/>
	<path fill="#7D7D7E" d="M52.1376953,77.1601563c0.0961914,2.2919922,1.1816406,3.4438477,3.2578125,3.4560547
		c0.828125,0,1.7163086-0.1982422,2.6640625-0.5942383v1.1879883c-0.9960938,0.2998047-1.9257813,0.4501953-2.7900391,0.4501953
		c-2.6162109,0-4.0976563-1.2358398-4.4458008-3.7080078c-0.0478516-0.3720703-0.0717773-0.7563477-0.0717773-1.1523438
		c0-2.6875,0.9716797-4.265625,2.9160156-4.7338867c0.3837891-0.0839844,0.7919922-0.1259766,1.2236328-0.1259766
		c2.5078125,0.0244141,3.7680664,1.6020508,3.7802734,4.7338867c0,0.1201172-0.012207,0.2822266-0.0361328,0.4863281H52.1376953z
		 M52.1376953,76.0981445h5.184082c-0.0483398-2.0639648-0.8579102-3.1020508-2.4301758-3.1142578
		c-1.7041016,0-2.6220703,1.0258789-2.7539063,3.078125C52.1376953,76.0742188,52.1376953,76.0859375,52.1376953,76.0981445z"/>
	<path fill="#7D7D7E" d="M60.831543,72.1201172h1.3676758v2.0878906h0.0361328
		c0.5878906-0.9960938,1.5-1.644043,2.7363281-1.9438477c0.4194336-0.0961914,0.8393555-0.144043,1.2597656-0.144043h0.3598633
		v1.2060547h-0.3598633c-1.7998047,0-3,0.6420898-3.6000977,1.9257813
		c-0.2402344,0.5161133-0.3598633,1.1162109-0.3598633,1.7998047v4.4282227H60.831543V72.1201172z"/>
	<path fill="#7D7D7E" d="M69.6513672,69.9057617v-1.9257813h1.4399414v1.9257813H69.6513672z M69.6513672,81.4799805v-9.3598633
		h1.4399414v9.3598633H69.6513672z"/>
	<path fill="#7D7D7E" d="M80.1274414,75.5400391v-0.4858398c0-0.9121094-0.2817383-1.4941406-0.8457031-1.7460938
		c-0.3481445-0.1557617-0.828125-0.2338867-1.4399414-0.2338867c-1.0205078,0-2.105957,0.2280273-3.2583008,0.6835938v-1.2416992
		c1.0800781-0.3842773,2.1660156-0.5761719,3.2583008-0.5761719c1.5478516,0,2.5737305,0.3359375,3.0776367,1.0078125
		c0.3959961,0.5283203,0.5942383,1.3500977,0.5942383,2.4663086v6.065918h-1.2958984l-0.0361328-1.6020508h-0.0361328
		c-0.7919922,1.1401367-1.8959961,1.7338867-3.3120117,1.7822266c-1.0678711,0-1.8540039-0.4082031-2.3579102-1.2241211
		c-0.2763672-0.4682617-0.4140625-1.0019531-0.4140625-1.6020508c0-1.6318359,0.9541016-2.6577148,2.8623047-3.078125
		c0.6235352-0.144043,1.3320313-0.2158203,2.1240234-0.2158203H80.1274414z M80.1274414,76.5297852h-1.0795898
		c-2.0766602,0-3.2583008,0.5644531-3.5463867,1.6923828c-0.0356445,0.1679688-0.0537109,0.3359375-0.0537109,0.5039063
		c0,0.8041992,0.3056641,1.3500977,0.9179688,1.6376953c0.2397461,0.1083984,0.4916992,0.1621094,0.7558594,0.1621094
		c1.0678711,0,1.8837891-0.4077148,2.4482422-1.2241211c0.371582-0.5517578,0.5576172-1.1938477,0.5576172-1.9257813V76.5297852z"/>
	<path fill="#7D7D7E" d="M88.1733398,81.4799805l4.6259766-13.1401367h1.6201172l4.6259766,13.1401367h-1.5483398
		l-1.2597656-3.8339844h-5.3100586l-1.2597656,3.8339844H88.1733398z M91.3051758,76.4941406h4.5541992l-2.25-6.8583984h-0.0361328
		L91.3051758,76.4941406z"/>
	<path fill="#7D7D7E" d="M102.3388672,68.3398438l3.0961914,5.472168h0.0361328l3.1137695-5.472168h1.6201172l-3.8520508,6.4799805
		l3.9418945,6.6601563h-1.6918945l-3.1679688-5.6518555h-0.0361328l-3.1860352,5.6518555h-1.6376953l3.9418945-6.6601563
		l-3.8520508-6.4799805H102.3388672z"/>
	<path fill="#7D7D7E" d="M120.9145508,68.1601563c1.3198242,0,2.5380859,0.2519531,3.6538086,0.7558594v1.3681641
		c-1.1757813-0.6362305-2.3579102-0.9541016-3.5458984-0.9541016c-1.2480469,0-2.0102539,0.4379883-2.2861328,1.3139648
		c-0.0717773,0.2280273-0.1079102,0.4677734-0.1079102,0.7197266c0,1.0922852,0.6899414,1.9082031,2.0703125,2.4482422
		c0.0957031,0.0361328,0.1914063,0.0717773,0.2875977,0.1079102c1.9199219,0.6362305,3.1323242,1.434082,3.6362305,2.394043
		c0.2636719,0.4921875,0.3959961,1.0742188,0.3959961,1.7460938c0,1.9438477-0.9423828,3.1020508-2.8261719,3.4741211
		c-0.4077148,0.0834961-0.8579102,0.1259766-1.3496094,0.1259766c-1.1884766,0-2.2563477-0.2519531-3.2041016-0.7563477
		c-0.0844727-0.0356445-0.15625-0.0717773-0.2163086-0.1079102v-1.421875
		c1.0322266,0.7080078,2.1357422,1.0683594,3.3120117,1.0800781c1.8242188-0.1201172,2.7719727-0.9179688,2.8442383-2.394043
		c0-0.9599609-0.4741211-1.7041016-1.421875-2.2319336c-0.3364258-0.1918945-0.7382813-0.3662109-1.2060547-0.5219727
		c-2.2802734-0.7680664-3.5102539-1.9262695-3.6899414-3.4741211c-0.0244141-0.1557617-0.0361328-0.3120117-0.0361328-0.4682617
		c0-1.4038086,0.5996094-2.3579102,1.7998047-2.8618164C119.5644531,68.2739258,120.1943359,68.1601563,120.9145508,68.1601563z"/>
	<path fill="#7D7D7E" d="M132.5244141,81.6601563c-2.1118164,0-3.6660156-0.815918-4.6616211-2.4482422
		c-0.6962891-1.1396484-1.0439453-2.5737305-1.0439453-4.3017578c0-2.6518555,0.7675781-4.5600586,2.3037109-5.7241211
		c0.9360352-0.684082,2.0703125-1.0258789,3.4018555-1.0258789c2.1123047,0,3.6660156,0.815918,4.6621094,2.4477539
		c0.6958008,1.1401367,1.0439453,2.5742188,1.0439453,4.3022461c0,2.6518555-0.7680664,4.5600586-2.3037109,5.7236328
		C134.9907227,81.3178711,133.8564453,81.6601563,132.5244141,81.6601563z M132.5244141,69.3662109
		c-2.1240234,0-3.449707,1.0859375-3.9775391,3.2578125c-0.168457,0.6723633-0.2524414,1.434082-0.2524414,2.2861328
		c0,2.9760742,0.9418945,4.7578125,2.8261719,5.3457031c0.4321289,0.1323242,0.8999023,0.1982422,1.4038086,0.1982422
		c2.1240234,0,3.4501953-1.0859375,3.9780273-3.2583008c0.1679688-0.671875,0.2519531-1.4335938,0.2519531-2.2856445
		c0-2.9760742-0.9418945-4.7583008-2.8256836-5.3461914C133.496582,69.4321289,133.0288086,69.3662109,132.5244141,69.3662109z"/>
	<path fill="#7D7D7E" d="M140.3901367,76.8901367v-1.1342773h5.5083008v1.1342773H140.3901367z"/>
	<path fill="#7D7D7E" d="M152.9179688,68.1601563c2.6157227,0,4.1459961,1.5239258,4.5898438,4.5717773
		c0.0961914,0.6601563,0.144043,1.3862305,0.144043,2.1782227c0,4.2001953-1.3681641,6.4379883-4.1040039,6.7138672
		c-0.2041016,0.0239258-0.4140625,0.0361328-0.6298828,0.0361328c-2.6162109,0-4.1464844-1.5239258-4.5898438-4.5722656
		c-0.0961914-0.659668-0.144043-1.3857422-0.144043-2.1777344c0-4.2001953,1.3676758-6.4379883,4.1040039-6.7143555
		C152.4916992,68.171875,152.7016602,68.1601563,152.9179688,68.1601563z M149.9477539,77.9521484l5.8139648-6.4980469
		c-0.5161133-1.4042969-1.4638672-2.1118164-2.84375-2.1240234c-1.5722656,0-2.5800781,0.90625-3.0239258,2.7177734
		c-0.1801758,0.7680664-0.2700195,1.722168-0.2700195,2.8623047
		C149.6240234,76.1459961,149.7319336,77.1601563,149.9477539,77.9521484z M150.1459961,78.5458984
		c0.527832,1.2841797,1.4516602,1.9321289,2.7719727,1.9438477c1.5717773,0,2.5795898-0.9057617,3.0239258-2.7177734
		c0.1801758-0.7797852,0.2700195-1.7338867,0.2700195-2.8618164s-0.0898438-2.0761719-0.2700195-2.8442383L150.1459961,78.5458984z"
		/>
	<path fill="#7D7D7E" d="M164.2041016,81.4799805V69.9418945h-0.0361328l-3.6899414,2.9882813v-1.5839844l3.7260742-3.0063477
		h1.4399414v13.1401367H164.2041016z"/>
	<path fill="#7D7D7E" d="M178.8740234,69.5458984h-6.2456055v4.2841797h5.8857422v1.1518555h-5.8857422v5.2919922h6.2456055
		v1.2060547h-7.6860352V68.3398438h7.6860352V69.5458984z"/>
</g>
<g>
	<path fill="#7D7D7E" d="M327.5742188,44.3398438l3.2758789,5.472168h0.0361328l3.2939453-5.472168h1.6196289l-4.0317383,6.4799805
		l4.1220703,6.6601563h-1.6918945l-3.3481445-5.6518555h-0.0361328l-3.3657227,5.6518555h-1.6381836l4.1220703-6.6601563
		l-4.0322266-6.4799805H327.5742188z"/>
	<path fill="#7D7D7E" d="M342.4238281,57.6601563c-1.3564453-0.012207-2.3642578-0.5581055-3.0239258-1.6381836h-0.0361328
		v5.4179688h-1.3139648V48.1201172h1.2597656l0.0180664,1.5839844h0.0361328
		c0.671875-1.1640625,1.6918945-1.7519531,3.0600586-1.7641602c1.5957031,0,2.699707,0.7260742,3.3120117,2.1782227
		c0.3120117,0.7558594,0.4677734,1.6499023,0.4677734,2.6816406c0,2.0522461-0.5878906,3.4804688-1.7636719,4.2841797
		C343.8515625,57.4682617,343.1796875,57.6601563,342.4238281,57.6601563z M344.9077148,52.7998047
		c0-1.9077148-0.5639648-3.1015625-1.6918945-3.5820313c-0.3364258-0.1318359-0.6962891-0.1977539-1.0800781-0.1977539
		c-1.0561523,0-1.8300781,0.4921875-2.3222656,1.4760742c-0.2998047,0.6118164-0.449707,1.3378906-0.449707,2.1777344v0.2519531
		c0,1.5961914,0.4736328,2.6884766,1.421875,3.2763672c0.4077148,0.2519531,0.8579102,0.3779297,1.3500977,0.3779297
		c1.1518555,0,1.9619141-0.5698242,2.4301758-1.7099609C344.793457,54.2822266,344.9077148,53.5917969,344.9077148,52.7998047z"/>
	<path fill="#7D7D7E" d="M349.0654297,53.3041992c0.0361328,1.355957,0.5522461,2.3100586,1.5483398,2.8618164
		c0.5039063,0.2880859,1.0800781,0.4321289,1.7280273,0.4321289c0.9477539-0.012207,1.8720703-0.2519531,2.7719727-0.7202148
		l0.3598633,1.0258789c-1.0200195,0.5043945-2.1000977,0.7563477-3.2397461,0.7563477
		c-1.5839844,0-2.7900391-0.5820313-3.6181641-1.7460938c-0.5883789-0.8398438-0.8818359-1.8779297-0.8818359-3.1142578
		c0-1.9316406,0.6118164-3.3178711,1.8359375-4.1577148c0.6958008-0.4682617,1.5234375-0.7021484,2.4838867-0.7021484
		c1.8359375,0,3.0600586,0.7919922,3.671875,2.3759766c0.2636719,0.684082,0.3959961,1.4824219,0.3959961,2.394043
		c0,0.2763672-0.0058594,0.4741211-0.0180664,0.5942383H349.0654297z M349.0654297,52.2597656h5.7783203
		c-0.0244141-1.6196289-0.5942383-2.6459961-1.7099609-3.0776367c-0.3242188-0.1201172-0.684082-0.1801758-1.0800781-0.1801758
		c-1.2841797,0-2.1660156,0.5522461-2.6459961,1.65625C349.2036133,51.1259766,349.0893555,51.6601563,349.0654297,52.2597656z"/>
	<path fill="#7D7D7E" d="M358.2817383,48.1201172h1.2958984l0.0180664,1.9980469h0.0361328
		c1.0795898-1.4399414,2.5737305-2.1660156,4.4819336-2.1782227v1.1342773c-1.5961914,0-2.8081055,0.5039063-3.6362305,1.5117188
		c-0.5639648,0.684082-0.8457031,1.4941406-0.8457031,2.4301758v4.4638672h-1.3500977V48.1201172z"/>
	<path fill="#7D7D7E" d="M367.1733398,45.9599609v-1.9799805h1.4042969v1.9799805H367.1733398z M367.1733398,57.4799805v-9.3598633
		h1.4042969v9.3598633H367.1733398z"/>
	<path fill="#7D7D7E" d="M375.4174805,47.9399414c1.6679688,0,2.7475586,0.4619141,3.2397461,1.3862305
		c0.2763672,0.527832,0.4140625,1.2236328,0.4140625,2.0878906v3.5458984c0,0.8520508,0.090332,1.6918945,0.2700195,2.5200195
		h-1.2597656c-0.1079102-0.5400391-0.1743164-1.0917969-0.1982422-1.6557617h-0.0356445
		c-0.5644531,0.9960938-1.4643555,1.5898438-2.7001953,1.7817383c-0.2519531,0.0361328-0.5039063,0.0541992-0.7558594,0.0541992
		c-1.2001953,0-2.0341797-0.4321289-2.5019531-1.2963867c-0.2285156-0.4077148-0.3422852-0.8754883-0.3422852-1.4038086
		c0-1.34375,0.6958008-2.3100586,2.0878906-2.8979492c0.8642578-0.3481445,1.9140625-0.5219727,3.1503906-0.5219727h0.9716797
		v-0.0898438c0-1.1162109-0.2758789-1.8300781-0.8276367-2.1420898c-0.3486328-0.1918945-0.8525391-0.2880859-1.512207-0.2880859
		c-1.1279297,0-2.1782227,0.2763672-3.1499023,0.828125l-0.2519531-1.0620117
		C373.0473633,48.222168,374.1811523,47.9399414,375.4174805,47.9399414z M372.8432617,54.9057617
		c0,0.840332,0.3662109,1.3803711,1.0981445,1.6201172c0.2397461,0.0722656,0.4921875,0.1079102,0.7558594,0.1079102
		c0.9482422,0,1.7338867-0.371582,2.3583984-1.1157227c0.4677734-0.5761719,0.7016602-1.2299805,0.7016602-1.9619141v-1.0083008
		h-0.9716797c-1.8964844,0-3.1206055,0.4624023-3.6723633,1.3862305
		C372.9335938,54.2338867,372.8432617,54.5581055,372.8432617,54.9057617z"/>
	<path fill="#7D7D7E" d="M390.8969727,45.3300781c-1.3203125,0-2.1484375,0.4321289-2.4838867,1.2958984
		c-0.0839844,0.2402344-0.1259766,0.4980469-0.1259766,0.7739258c0,1.1518555,0.8398438,1.9863281,2.5200195,2.5019531
		c0.0117188,0.012207,0.0239258,0.0180664,0.0356445,0.0180664c1.9921875,0.5761719,3.2460938,1.3862305,3.762207,2.4301758
		c0.2397461,0.4921875,0.3598633,1.0620117,0.3598633,1.7099609c0,1.7163086-0.7680664,2.8256836-2.3037109,3.3300781
		c-0.5522461,0.1796875-1.1821289,0.2700195-1.8901367,0.2700195c-1.4882813-0.012207-2.8081055-0.3901367-3.9599609-1.1342773
		l0.4321289-1.1879883c1.0439453,0.7441406,2.2197266,1.1162109,3.527832,1.1162109
		c1.5478516,0,2.4477539-0.5878906,2.7001953-1.7641602c0.0356445-0.2041016,0.0537109-0.4140625,0.0537109-0.6298828
		c0-0.9360352-0.3662109-1.644043-1.0981445-2.1240234c-0.3959961-0.2519531-0.9360352-0.4858398-1.6196289-0.7021484
		c-2.484375-0.7436523-3.7924805-1.9199219-3.9243164-3.527832c-0.0117188-0.1079102-0.0180664-0.2099609-0.0180664-0.3061523
		c0-1.2480469,0.5458984-2.1538086,1.6381836-2.7177734c0.659668-0.3481445,1.4580078-0.5219727,2.394043-0.5219727
		c1.355957,0,2.6157227,0.2817383,3.7797852,0.8457031l-0.3598633,1.1162109
		C393.2729492,45.5942383,392.1328125,45.3300781,390.8969727,45.3300781z"/>
	<path fill="#7D7D7E" d="M398.6191406,44.3398438l3.2758789,5.472168h0.0361328l3.2939453-5.472168h1.6196289l-4.0317383,6.4799805
		l4.1220703,6.6601563h-1.6918945l-3.3481445-5.6518555h-0.0361328l-3.3657227,5.6518555h-1.6381836l4.1220703-6.6601563
		l-4.0322266-6.4799805H398.6191406z"/>
	<path fill="#7D7D7E" d="M418.1303711,45.3300781c-1.3203125,0-2.1484375,0.4321289-2.4838867,1.2958984
		c-0.0839844,0.2402344-0.1259766,0.4980469-0.1259766,0.7739258c0,1.1518555,0.8398438,1.9863281,2.5200195,2.5019531
		c0.0117188,0.012207,0.0239258,0.0180664,0.0356445,0.0180664c1.9921875,0.5761719,3.2460938,1.3862305,3.762207,2.4301758
		c0.2397461,0.4921875,0.3598633,1.0620117,0.3598633,1.7099609c0,1.7163086-0.7680664,2.8256836-2.3037109,3.3300781
		c-0.5522461,0.1796875-1.1821289,0.2700195-1.8901367,0.2700195c-1.4882813-0.012207-2.8081055-0.3901367-3.9599609-1.1342773
		l0.4321289-1.1879883c1.0439453,0.7441406,2.2197266,1.1162109,3.527832,1.1162109
		c1.5478516,0,2.4477539-0.5878906,2.7001953-1.7641602c0.0356445-0.2041016,0.0537109-0.4140625,0.0537109-0.6298828
		c0-0.9360352-0.3662109-1.644043-1.0981445-2.1240234c-0.3959961-0.2519531-0.9360352-0.4858398-1.6196289-0.7021484
		c-2.484375-0.7436523-3.7924805-1.9199219-3.9243164-3.527832c-0.0117188-0.1079102-0.0180664-0.2099609-0.0180664-0.3061523
		c0-1.2480469,0.5458984-2.1538086,1.6381836-2.7177734c0.659668-0.3481445,1.4580078-0.5219727,2.394043-0.5219727
		c1.355957,0,2.6157227,0.2817383,3.7797852,0.8457031l-0.3598633,1.1162109
		C420.5063477,45.5942383,419.3662109,45.3300781,418.1303711,45.3300781z"/>
	<path fill="#7D7D7E" d="M430.4238281,57.6601563c-2.1113281,0-3.7558594-0.7138672-4.9316406-2.1420898
		c-0.9960938-1.2119141-1.4941406-2.7480469-1.4941406-4.6079102c0-2.2558594,0.7021484-4.0019531,2.1064453-5.2382813
		c1.1513672-1.0078125,2.5917969-1.5117188,4.3193359-1.5117188c2.1123047,0,3.7558594,0.7138672,4.9326172,2.1416016
		c0.9951172,1.2124023,1.4931641,2.7485352,1.4931641,4.6083984c0,2.2558594-0.7011719,4.0019531-2.1054688,5.237793
		C433.5917969,57.1557617,432.1523438,57.6601563,430.4238281,57.6601563z M430.4238281,56.4541016
		c1.7167969,0,3.0302734-0.6420898,3.9423828-1.9262695c0.671875-0.9716797,1.0087891-2.1777344,1.0087891-3.6176758
		c0-2.0039063-0.6191406-3.5102539-1.8544922-4.5180664c-0.8525391-0.684082-1.8837891-1.0258789-3.0966797-1.0258789
		c-1.7158203,0-3.0292969,0.6420898-3.9414063,1.9257813c-0.671875,0.972168-1.0078125,2.1782227-1.0078125,3.6181641
		c0,2.0039063,0.6171875,3.5097656,1.8535156,4.5180664C428.1796875,56.1118164,429.2119141,56.4541016,430.4238281,56.4541016z"/>
	<path fill="#7D7D7E" d="M439.0097656,52.8359375V51.684082h5.328125v1.1518555H439.0097656z"/>
	<path fill="#7D7D7E" d="M451.3583984,44.1601563c2.6162109,0,4.1455078,1.5239258,4.5898438,4.5717773
		c0.0966797,0.6601563,0.1435547,1.3862305,0.1435547,2.1782227c0,4.2001953-1.3671875,6.4379883-4.1035156,6.7138672
		c-0.2041016,0.0239258-0.4140625,0.0361328-0.6298828,0.0361328c-2.6162109,0-4.1464844-1.5239258-4.5898438-4.5722656
		c-0.0966797-0.659668-0.1435547-1.3857422-0.1435547-2.1777344c0-4.2001953,1.3671875-6.4379883,4.1035156-6.7143555
		C450.9316406,44.171875,451.1425781,44.1601563,451.3583984,44.1601563z M451.3583984,56.4897461
		c1.5712891,0,2.5791016-0.9057617,3.0244141-2.7177734c0.1796875-0.7797852,0.2695313-1.7338867,0.2695313-2.8618164
		c0-3.0600586-0.7148438-4.8540039-2.1425781-5.3823242c-0.3476563-0.1318359-0.7314453-0.1977539-1.1513672-0.1977539
		c-1.5722656,0-2.5800781,0.90625-3.0244141,2.7177734c-0.1796875,0.7680664-0.2695313,1.722168-0.2695313,2.8623047
		c0,3.0600586,0.7138672,4.8540039,2.1425781,5.3818359C450.5546875,56.4243164,450.9375,56.4897461,451.3583984,56.4897461z"/>
	<path fill="#7D7D7E" d="M466.1542969,45.5458984h-5.6875l-0.2519531,4.2480469H460.25
		c0.7207031-0.4199219,1.5185547-0.6298828,2.3945313-0.6298828c1.7998047,0,3.0117188,0.6601563,3.6357422,1.9799805
		c0.2763672,0.5761719,0.4140625,1.2480469,0.4140625,2.0161133c0,2.3876953-1.0498047,3.828125-3.1494141,4.3198242
		c-0.5166016,0.1196289-1.0800781,0.1801758-1.6923828,0.1801758c-1.2363281-0.012207-2.3642578-0.2998047-3.3837891-0.8642578
		l0.359375-1.1879883c1.0078125,0.5644531,2.015625,0.8461914,3.0244141,0.8461914
		c2.171875,0,3.3056641-1.0083008,3.4013672-3.0239258c0-0.0961914,0-0.1860352,0-0.2700195
		c0-1.5961914-0.6953125-2.5200195-2.0878906-2.7719727c-0.2402344-0.0478516-0.4980469-0.0722656-0.7734375-0.0722656
		c-0.9482422,0.012207-1.734375,0.2880859-2.3574219,0.828125h-1.2607422l0.3955078-6.8041992h6.984375V45.5458984z"/>
	<path fill="#7D7D7E" d="M479.6542969,50.7299805c0,3.2402344-1.1816406,5.3520508-3.5458984,6.3359375
		c-0.9355469,0.3959961-2.0341797,0.5942383-3.2939453,0.5942383c-1.0683594,0-2.1298828-0.0961914-3.1855469-0.2880859V44.4477539
		c1.0800781-0.1914063,2.1416016-0.2875977,3.1855469-0.2875977c2.9638672,0,4.9804688,1.0019531,6.0488281,3.0058594
		C479.390625,48.1621094,479.6542969,49.3500977,479.6542969,50.7299805z M472.8144531,45.3662109
		c-0.6240234,0-1.2060547,0.0537109-1.7460938,0.1616211v10.7641602c0.5527344,0.1079102,1.1347656,0.1621094,1.7460938,0.1621094
		c3.6240234-0.0239258,5.4414063-1.9321289,5.4541016-5.7241211c0-3.1201172-1.3974609-4.8779297-4.1943359-5.2739258
		C473.6787109,45.3959961,473.2578125,45.3662109,472.8144531,45.3662109z"/>
	<path fill="#7D7D7E" d="M488.0244141,61.4399414V42.8999023h1.3320313v18.5400391H488.0244141z"/>
	<path fill="#7D7D7E" d="M497.8164063,52.7998047c0-2.2436523,0.6660156-3.7255859,1.9980469-4.4458008
		c0.5273438-0.2758789,1.1210938-0.4140625,1.78125-0.4140625c1.3554688,0.012207,2.3642578,0.5820313,3.0234375,1.7099609
		h0.0371094v-5.6699219h1.3134766v13.5h-1.2597656l-0.0185547-1.5839844H504.65625
		c-0.671875,1.1640625-1.6923828,1.7519531-3.0605469,1.7641602c-1.4638672,0-2.5253906-0.6479492-3.1855469-1.9443359
		C498.0136719,54.9360352,497.8164063,53.9638672,497.8164063,52.7998047z M499.1113281,52.7998047
		c0,1.7524414,0.5039063,2.9101563,1.5126953,3.4741211c0.3837891,0.2041016,0.8037109,0.3061523,1.2597656,0.3061523
		c1.0439453,0,1.8115234-0.4799805,2.3037109-1.4399414c0.3125-0.6123047,0.46875-1.3500977,0.46875-2.2143555v-0.2519531
		c0-1.5356445-0.4501953-2.6157227-1.3505859-3.2397461c-0.4199219-0.2758789-0.8935547-0.4140625-1.421875-0.4140625
		c-1.2841797,0-2.1298828,0.6601563-2.5380859,1.9799805C499.1894531,51.5283203,499.1113281,52.1279297,499.1113281,52.7998047z"/>
	<path fill="#7D7D7E" d="M512.5390625,57.6601563c-1.5957031,0-2.7949219-0.605957-3.5996094-1.8183594
		c-0.5390625-0.8276367-0.8095703-1.8417969-0.8095703-3.0419922c0-1.8237305,0.5810547-3.1679688,1.7451172-4.0317383
		c0.7441406-0.5517578,1.6328125-0.828125,2.6640625-0.828125c1.5957031,0,2.796875,0.605957,3.6005859,1.8178711
		c0.5400391,0.828125,0.8095703,1.8422852,0.8095703,3.0419922c0,1.8242188-0.5820313,3.1679688-1.7460938,4.0322266
		C514.4589844,57.3842773,513.5722656,57.6601563,512.5390625,57.6601563z M512.5390625,49.0200195
		c-1.2714844,0-2.1591797,0.5698242-2.6640625,1.7099609c-0.2636719,0.5878906-0.3955078,1.277832-0.3955078,2.0698242
		c0,1.6801758,0.5166016,2.8144531,1.5478516,3.4023438c0.4443359,0.2519531,0.9482422,0.3779297,1.5117188,0.3779297
		c1.2724609,0,2.1601563-0.5698242,2.6640625-1.7099609c0.2636719-0.5878906,0.3964844-1.2783203,0.3964844-2.0703125
		c0-1.6796875-0.515625-2.8139648-1.5478516-3.4018555C513.6074219,49.1459961,513.1035156,49.0200195,512.5390625,49.0200195z"/>
	<path fill="#7D7D7E" d="M523.1230469,49.0380859c-1.4755859,0-2.4775391,0.6118164-3.0058594,1.8359375
		c-0.2402344,0.5522461-0.359375,1.1943359-0.359375,1.9257813c0,1.4643555,0.4863281,2.5322266,1.4570313,3.2041016
		c0.5527344,0.3842773,1.1884766,0.5761719,1.9082031,0.5761719c0.8515625-0.0117188,1.65625-0.2163086,2.4121094-0.6123047
		l0.3417969,1.0620117c-0.8994141,0.4204102-1.8359375,0.6303711-2.8076172,0.6303711
		c-1.6318359,0-2.8798828-0.5761719-3.7441406-1.7280273c-0.6240234-0.8520508-0.9355469-1.8959961-0.9355469-3.1323242
		c0-1.9555664,0.6660156-3.3476563,1.9970703-4.1757813c0.7441406-0.4560547,1.6386719-0.684082,2.6826172-0.684082
		c0.9833984,0,1.9199219,0.2099609,2.8076172,0.6298828l-0.3417969,1.0981445
		C524.71875,49.2480469,523.9160156,49.0380859,523.1230469,49.0380859z"/>
	<path fill="#7D7D7E" d="M532.1777344,57.6601563c-1.5966797,0-2.796875-0.605957-3.6005859-1.8183594
		c-0.5400391-0.8276367-0.8095703-1.8417969-0.8095703-3.0419922c0-1.8237305,0.5820313-3.1679688,1.7460938-4.0317383
		c0.7441406-0.5517578,1.6308594-0.828125,2.6640625-0.828125c1.5957031,0,2.7949219,0.605957,3.5996094,1.8178711
		c0.5400391,0.828125,0.8105469,1.8422852,0.8105469,3.0419922c0,1.8242188-0.5820313,3.1679688-1.7460938,4.0322266
		C534.0976563,57.3842773,533.2089844,57.6601563,532.1777344,57.6601563z M532.1777344,49.0200195
		c-1.2724609,0-2.1601563,0.5698242-2.6640625,1.7099609c-0.2636719,0.5878906-0.3964844,1.277832-0.3964844,2.0698242
		c0,1.6801758,0.515625,2.8144531,1.5488281,3.4023438c0.4433594,0.2519531,0.9472656,0.3779297,1.5117188,0.3779297
		c1.2714844,0,2.1601563-0.5698242,2.6640625-1.7099609c0.2636719-0.5878906,0.3955078-1.2783203,0.3955078-2.0703125
		c0-1.6796875-0.5166016-2.8139648-1.5478516-3.4018555C533.2451172,49.1459961,532.7412109,49.0200195,532.1777344,49.0200195z"/>
	<path fill="#7D7D7E" d="M538.6572266,48.1201172h1.2597656l0.0185547,1.5478516h0.0351563
		c0.671875-1.1401367,1.4941406-1.7158203,2.4667969-1.7280273c1.1992188,0.012207,2.0390625,0.6118164,2.5195313,1.7998047
		h0.0361328c0.6474609-1.1879883,1.5537109-1.7875977,2.7177734-1.7998047c1.4042969,0,2.2792969,0.6240234,2.6289063,1.8720703
		c0.1308594,0.4799805,0.1972656,1.0561523,0.1972656,1.7280273v5.9399414h-1.2958984v-5.5800781
		c0-1.4277344-0.2705078-2.3100586-0.8095703-2.6459961c-0.2519531-0.1557617-0.5878906-0.2338867-1.0078125-0.2338867
		c-0.6601563,0-1.2070313,0.3540039-1.6386719,1.0620117c-0.3476563,0.5639648-0.5214844,1.2001953-0.5214844,1.9077148v5.4902344
		h-1.296875v-5.5800781c0-1.4399414-0.2753906-2.3276367-0.828125-2.6640625
		c-0.2636719-0.144043-0.5996094-0.2158203-1.0078125-0.2158203c-0.5878906,0-1.1035156,0.3481445-1.5478516,1.0439453
		c-0.4082031,0.6362305-0.6123047,1.3564453-0.6123047,2.1601563v5.2558594h-1.3134766V48.1201172z"/>
	<path fill="#7D7D7E" d="M556.9267578,57.6601563c-1.5966797,0-2.7958984-0.605957-3.6005859-1.8183594
		c-0.5390625-0.8276367-0.8085938-1.8417969-0.8085938-3.0419922c0-1.8237305,0.5810547-3.1679688,1.7451172-4.0317383
		c0.7441406-0.5517578,1.6318359-0.828125,2.6640625-0.828125c1.5957031,0,2.7958984,0.605957,3.6005859,1.8178711
		c0.5390625,0.828125,0.8095703,1.8422852,0.8095703,3.0419922c0,1.8242188-0.5820313,3.1679688-1.7460938,4.0322266
		C558.8466797,57.3842773,557.9589844,57.6601563,556.9267578,57.6601563z M556.9267578,49.0200195
		c-1.2724609,0-2.1591797,0.5698242-2.6640625,1.7099609c-0.2636719,0.5878906-0.3955078,1.277832-0.3955078,2.0698242
		c0,1.6801758,0.515625,2.8144531,1.5478516,3.4023438c0.4443359,0.2519531,0.9482422,0.3779297,1.5117188,0.3779297
		c1.2724609,0,2.1601563-0.5698242,2.6640625-1.7099609c0.2636719-0.5878906,0.3955078-1.2783203,0.3955078-2.0703125
		c0-1.6796875-0.515625-2.8139648-1.546875-3.4018555C557.9941406,49.1459961,557.4902344,49.0200195,556.9267578,49.0200195z"/>
	<path fill="#7D7D7E" d="M327.5742188,68.3398438l3.2758789,5.472168h0.0361328l3.2939453-5.472168h1.6196289l-4.0317383,6.4799805
		l4.1220703,6.6601563h-1.6918945l-3.3481445-5.6518555h-0.0361328l-3.3657227,5.6518555h-1.6381836l4.1220703-6.6601563
		l-4.0322266-6.4799805H327.5742188z"/>
	<path fill="#7D7D7E" d="M342.4238281,81.6601563c-1.3564453-0.012207-2.3642578-0.5581055-3.0239258-1.6381836h-0.0361328
		v5.4179688h-1.3139648V72.1201172h1.2597656l0.0180664,1.5839844h0.0361328
		c0.671875-1.1640625,1.6918945-1.7519531,3.0600586-1.7641602c1.5957031,0,2.699707,0.7260742,3.3120117,2.1782227
		c0.3120117,0.7558594,0.4677734,1.6499023,0.4677734,2.6816406c0,2.0522461-0.5878906,3.4804688-1.7636719,4.2841797
		C343.8515625,81.4682617,343.1796875,81.6601563,342.4238281,81.6601563z M344.9077148,76.7998047
		c0-1.9077148-0.5639648-3.1015625-1.6918945-3.5820313c-0.3364258-0.1318359-0.6962891-0.1977539-1.0800781-0.1977539
		c-1.0561523,0-1.8300781,0.4921875-2.3222656,1.4760742c-0.2998047,0.6118164-0.449707,1.3378906-0.449707,2.1777344v0.2519531
		c0,1.5961914,0.4736328,2.6884766,1.421875,3.2763672c0.4077148,0.2519531,0.8579102,0.3779297,1.3500977,0.3779297
		c1.1518555,0,1.9619141-0.5698242,2.4301758-1.7099609C344.793457,78.2822266,344.9077148,77.5917969,344.9077148,76.7998047z"/>
	<path fill="#7D7D7E" d="M349.0654297,77.3041992c0.0361328,1.355957,0.5522461,2.3100586,1.5483398,2.8618164
		c0.5039063,0.2880859,1.0800781,0.4321289,1.7280273,0.4321289c0.9477539-0.012207,1.8720703-0.2519531,2.7719727-0.7202148
		l0.3598633,1.0258789c-1.0200195,0.5043945-2.1000977,0.7563477-3.2397461,0.7563477
		c-1.5839844,0-2.7900391-0.5820313-3.6181641-1.7460938c-0.5883789-0.8398438-0.8818359-1.8779297-0.8818359-3.1142578
		c0-1.9316406,0.6118164-3.3178711,1.8359375-4.1577148c0.6958008-0.4682617,1.5234375-0.7021484,2.4838867-0.7021484
		c1.8359375,0,3.0600586,0.7919922,3.671875,2.3759766c0.2636719,0.684082,0.3959961,1.4824219,0.3959961,2.394043
		c0,0.2763672-0.0058594,0.4741211-0.0180664,0.5942383H349.0654297z M349.0654297,76.2597656h5.7783203
		c-0.0244141-1.6196289-0.5942383-2.6459961-1.7099609-3.0776367c-0.3242188-0.1201172-0.684082-0.1801758-1.0800781-0.1801758
		c-1.2841797,0-2.1660156,0.5522461-2.6459961,1.65625C349.2036133,75.1259766,349.0893555,75.6601563,349.0654297,76.2597656z"/>
	<path fill="#7D7D7E" d="M358.2817383,72.1201172h1.2958984l0.0180664,1.9980469h0.0361328
		c1.0795898-1.4399414,2.5737305-2.1660156,4.4819336-2.1782227v1.1342773c-1.5961914,0-2.8081055,0.5039063-3.6362305,1.5117188
		c-0.5639648,0.684082-0.8457031,1.4941406-0.8457031,2.4301758v4.4638672h-1.3500977V72.1201172z"/>
	<path fill="#7D7D7E" d="M367.1733398,69.9599609v-1.9799805h1.4042969v1.9799805H367.1733398z M367.1733398,81.4799805v-9.3598633
		h1.4042969v9.3598633H367.1733398z"/>
	<path fill="#7D7D7E" d="M375.4174805,71.9399414c1.6679688,0,2.7475586,0.4619141,3.2397461,1.3862305
		c0.2763672,0.527832,0.4140625,1.2236328,0.4140625,2.0878906v3.5458984c0,0.8520508,0.090332,1.6918945,0.2700195,2.5200195
		h-1.2597656c-0.1079102-0.5400391-0.1743164-1.0917969-0.1982422-1.6557617h-0.0356445
		c-0.5644531,0.9960938-1.4643555,1.5898438-2.7001953,1.7817383c-0.2519531,0.0361328-0.5039063,0.0541992-0.7558594,0.0541992
		c-1.2001953,0-2.0341797-0.4321289-2.5019531-1.2963867c-0.2285156-0.4077148-0.3422852-0.8754883-0.3422852-1.4038086
		c0-1.34375,0.6958008-2.3100586,2.0878906-2.8979492c0.8642578-0.3481445,1.9140625-0.5219727,3.1503906-0.5219727h0.9716797
		v-0.0898438c0-1.1162109-0.2758789-1.8300781-0.8276367-2.1420898c-0.3486328-0.1918945-0.8525391-0.2880859-1.512207-0.2880859
		c-1.1279297,0-2.1782227,0.2763672-3.1499023,0.828125l-0.2519531-1.0620117
		C373.0473633,72.222168,374.1811523,71.9399414,375.4174805,71.9399414z M372.8432617,78.9057617
		c0,0.840332,0.3662109,1.3803711,1.0981445,1.6201172c0.2397461,0.0722656,0.4921875,0.1079102,0.7558594,0.1079102
		c0.9482422,0,1.7338867-0.371582,2.3583984-1.1157227c0.4677734-0.5761719,0.7016602-1.2299805,0.7016602-1.9619141v-1.0083008
		h-0.9716797c-1.8964844,0-3.1206055,0.4624023-3.6723633,1.3862305
		C372.9335938,78.2338867,372.8432617,78.5581055,372.8432617,78.9057617z"/>
	<path fill="#7D7D7E" d="M386.3608398,81.4799805l4.8061523-13.1401367h1.6201172l4.8056641,13.1401367h-1.5478516
		l-1.3139648-3.8339844h-5.5439453l-1.3320313,3.8339844H386.3608398z M389.5830078,76.4941406h4.7519531l-2.3579102-6.8583984
		h-0.0361328L389.5830078,76.4941406z"/>
	<path fill="#7D7D7E" d="M400.796875,68.3398438l3.2758789,5.472168h0.0361328l3.2939453-5.472168h1.6196289l-4.0317383,6.4799805
		l4.1220703,6.6601563h-1.6918945l-3.3481445-5.6518555h-0.0361328l-3.3657227,5.6518555h-1.6381836l4.1220703-6.6601563
		l-4.0322266-6.4799805H400.796875z"/>
	<path fill="#7D7D7E" d="M420.3081055,69.3300781c-1.3203125,0-2.1484375,0.4321289-2.4838867,1.2958984
		c-0.0839844,0.2402344-0.1259766,0.4980469-0.1259766,0.7739258c0,1.1518555,0.8398438,1.9863281,2.5200195,2.5019531
		c0.0117188,0.012207,0.0239258,0.0180664,0.0356445,0.0180664c1.9921875,0.5761719,3.2460938,1.3862305,3.7617188,2.4301758
		c0.2402344,0.4921875,0.3603516,1.0620117,0.3603516,1.7099609c0,1.7163086-0.7685547,2.8256836-2.3037109,3.3300781
		c-0.5522461,0.1796875-1.1821289,0.2700195-1.8901367,0.2700195c-1.4882813-0.012207-2.8081055-0.3901367-3.9599609-1.1342773
		l0.4321289-1.1879883c1.0439453,0.7441406,2.2197266,1.1162109,3.527832,1.1162109
		c1.5478516,0,2.4477539-0.5878906,2.7006836-1.7641602c0.0351563-0.2041016,0.0527344-0.4140625,0.0527344-0.6298828
		c0-0.9360352-0.3652344-1.644043-1.0976563-2.1240234c-0.3959961-0.2519531-0.9360352-0.4858398-1.6196289-0.7021484
		c-2.484375-0.7436523-3.7924805-1.9199219-3.9243164-3.527832c-0.0117188-0.1079102-0.0180664-0.2099609-0.0180664-0.3061523
		c0-1.2480469,0.5458984-2.1538086,1.6381836-2.7177734c0.659668-0.3481445,1.4580078-0.5219727,2.394043-0.5219727
		c1.355957,0,2.6157227,0.2817383,3.7797852,0.8457031l-0.359375,1.1162109
		C422.6835938,69.5942383,421.5439453,69.3300781,420.3081055,69.3300781z"/>
	<path fill="#7D7D7E" d="M432.6015625,81.6601563c-2.1113281,0-3.7558594-0.7138672-4.9316406-2.1420898
		c-0.9960938-1.2119141-1.4941406-2.7480469-1.4941406-4.6079102c0-2.2558594,0.7021484-4.0019531,2.1064453-5.2382813
		c1.1513672-1.0078125,2.5917969-1.5117188,4.3193359-1.5117188c2.1123047,0,3.7558594,0.7138672,4.9326172,2.1416016
		c0.9951172,1.2124023,1.4931641,2.7485352,1.4931641,4.6083984c0,2.2558594-0.7011719,4.0019531-2.1054688,5.237793
		C435.7695313,81.1557617,434.3300781,81.6601563,432.6015625,81.6601563z M432.6015625,80.4541016
		c1.7167969,0,3.0302734-0.6420898,3.9423828-1.9262695c0.671875-0.9716797,1.0087891-2.1777344,1.0087891-3.6176758
		c0-2.0039063-0.6191406-3.5102539-1.8544922-4.5180664c-0.8525391-0.684082-1.8837891-1.0258789-3.0966797-1.0258789
		c-1.7158203,0-3.0292969,0.6420898-3.9414063,1.9257813c-0.671875,0.972168-1.0078125,2.1782227-1.0078125,3.6181641
		c0,2.0039063,0.6171875,3.5097656,1.8535156,4.5180664C430.3574219,80.1118164,431.3896484,80.4541016,432.6015625,80.4541016z"/>
	<path fill="#7D7D7E" d="M441.1875,76.8359375V75.684082h5.328125v1.1518555H441.1875z"/>
	<path fill="#7D7D7E" d="M453.5361328,68.1601563c2.6162109,0,4.1455078,1.5239258,4.5898438,4.5717773
		c0.0966797,0.6601563,0.1435547,1.3862305,0.1435547,2.1782227c0,4.2001953-1.3671875,6.4379883-4.1035156,6.7138672
		c-0.2041016,0.0239258-0.4140625,0.0361328-0.6298828,0.0361328c-2.6162109,0-4.1464844-1.5239258-4.5898438-4.5722656
		c-0.0966797-0.659668-0.1435547-1.3857422-0.1435547-2.1777344c0-4.2001953,1.3671875-6.4379883,4.1035156-6.7143555
		C453.109375,68.171875,453.3203125,68.1601563,453.5361328,68.1601563z M453.5361328,80.4897461
		c1.5712891,0,2.5791016-0.9057617,3.0244141-2.7177734c0.1796875-0.7797852,0.2695313-1.7338867,0.2695313-2.8618164
		c0-3.0600586-0.7148438-4.8540039-2.1425781-5.3823242c-0.3476563-0.1318359-0.7314453-0.1977539-1.1513672-0.1977539
		c-1.5722656,0-2.5800781,0.90625-3.0244141,2.7177734c-0.1796875,0.7680664-0.2695313,1.722168-0.2695313,2.8623047
		c0,3.0600586,0.7138672,4.8540039,2.1425781,5.3818359C452.7324219,80.4243164,453.1152344,80.4897461,453.5361328,80.4897461z"/>
	<path fill="#7D7D7E" d="M464.7324219,81.4799805V70.0678711h-0.0361328l-3.5458984,3.2758789l-0.5585938-1.1699219
		l4.140625-3.8339844h1.4394531v13.1401367H464.7324219z"/>
	<path fill="#7D7D7E" d="M473.2460938,69.5458984v4.2841797h5.8867188v1.1518555h-5.8867188v5.2919922h6.2460938v1.2060547
		h-7.6855469V68.3398438h7.6855469v1.2060547H473.2460938z"/>
</g>
</svg>
