<?xml version="1.0" encoding="utf-8"?>
<!-- Generator: Adobe Illustrator 16.0.3, SVG Export Plug-In . SVG Version: 6.00 Build 0)  -->
<!DOCTYPE svg PUBLIC "-//W3C//DTD SVG 1.1//EN" "http://www.w3.org/Graphics/SVG/1.1/DTD/svg11.dtd">
<svg version="1.1" id="レイヤー_1" xmlns="http://www.w3.org/2000/svg" xmlns:xlink="http://www.w3.org/1999/xlink" x="0px"
	 y="0px" width="650px" height="170px" viewBox="0 0 650 170" enable-background="new 0 0 650 170" xml:space="preserve">
<g>
	<path fill="#70A0BB" d="M26.9711914,27.2480469v-8.3413086h0.9257813l2.9707031,5.0273438h0.0229492l2.9594727-5.0273438h0.9599609
		v8.3413086h-0.9140625v-6.8100586h-0.0229492l-2.5712891,4.3305664h-0.8569336l-2.5708008-4.3305664h-0.0229492v6.8100586
		H26.9711914z"/>
	<path fill="#70A0BB" d="M37.0952148,19.9350586v-1.2568359h0.8916016v1.2568359H37.0952148z M37.0952148,27.2480469v-5.9418945
		h0.8916016v5.9418945H37.0952148z"/>
	<path fill="#70A0BB" d="M39.8149414,24.1630859c0-0.9448242,0.2094727-1.6757813,0.628418-2.1943359
		c0.4189453-0.5175781,0.9980469-0.7768555,1.7368164-0.7768555c0.8916016,0,1.550293,0.3696289,1.9770508,1.1083984h0.0229492
		l0.0224609-0.9941406h0.7998047v5.4506836c0,2.0795898-0.9291992,3.1191406-2.7880859,3.1191406
		c-0.6396484,0-1.2529297-0.121582-1.8393555-0.3652344l0.1826172-0.6743164
		c0.5410156,0.2358398,1.0932617,0.3540039,1.6567383,0.3540039c0.6704102,0,1.1616211-0.1865234,1.4741211-0.5595703
		c0.3125-0.3735352,0.46875-0.9868164,0.46875-1.8398438v-0.7314453h-0.0229492
		c-0.4116211,0.7163086-1.0625,1.0742188-1.9541016,1.0742188c-0.6933594,0-1.2607422-0.2666016-1.7026367-0.7998047
		S39.8149414,25.0771484,39.8149414,24.1630859z M40.6376953,24.1630859c0,0.7006836,0.1601563,1.2568359,0.4799805,1.6679688
		c0.3198242,0.4116211,0.7387695,0.6171875,1.2568359,0.6171875c0.5258789,0,0.9560547-0.1982422,1.2910156-0.5942383
		c0.3354492-0.3959961,0.4990234-0.940918,0.4916992-1.6337891V24.105957c0-0.6933594-0.1679688-1.2382813-0.5029297-1.6342773
		c-0.3354492-0.3959961-0.7617188-0.5942383-1.2797852-0.5942383c-0.5410156,0-0.9638672,0.1982422-1.2685547,0.5942383
		S40.6450195,23.4316406,40.6376953,24.1630859z"/>
	<path fill="#70A0BB" d="M47.4819336,21.3061523v3.690918c0,0.609375,0.1010742,1.0361328,0.3027344,1.2797852
		s0.5390625,0.3657227,1.0112305,0.3657227c0.4418945,0,0.84375-0.2133789,1.2055664-0.6401367
		c0.3618164-0.4262695,0.5429688-0.9331055,0.5429688-1.5195313v-3.1767578h0.8452148v5.9418945h-0.7998047l-0.0224609-1.0625
		h-0.0229492c-0.2285156,0.3652344-0.5200195,0.6533203-0.8745117,0.8623047
		c-0.3540039,0.2094727-0.7329102,0.3144531-1.1367188,0.3144531c-0.6396484,0-1.1123047-0.1806641-1.4169922-0.5429688
		c-0.3046875-0.3613281-0.4570313-0.9423828-0.4570313-1.7421875v-3.7709961H47.4819336z"/>
	<path fill="#70A0BB" d="M59.125,27.2480469V20.003418h-0.0224609l-2.2514648,2.0795898l-0.3540039-0.7426758L59.125,18.9067383
		h0.9140625v8.3413086H59.125z"/>
	<path fill="#70A0BB" d="M63.6157227,18.9750977c0.7924805-0.121582,1.5654297-0.1826172,2.3198242-0.1826172
		c1.0356445,0,1.8203125,0.2207031,2.3535156,0.6625977s0.8037109,1.0664063,0.8115234,1.8740234
		c0,0.8837891-0.2705078,1.5541992-0.8115234,2.0112305c-0.5405273,0.4570313-1.3251953,0.6855469-2.3535156,0.6855469
		c-0.5029297,0-0.9711914-0.0229492-1.4057617-0.0688477v3.2910156h-0.9140625V18.9750977z M64.5297852,23.203125
		c0.4418945,0.0610352,0.8876953,0.0913086,1.3369141,0.0913086c0.7617188,0,1.3408203-0.1635742,1.7368164-0.4912109
		s0.5942383-0.7958984,0.5942383-1.4057617c0-0.609375-0.1982422-1.0737305-0.5942383-1.394043
		c-0.3959961-0.3198242-0.9750977-0.4760742-1.7368164-0.4682617c-0.4189453,0-0.8647461,0.0380859-1.3369141,0.1142578V23.203125z"
		/>
</g>
<g>
	<path fill="#70A0BB" d="M325.9711914,27.2480469v-8.3413086h0.9257813l2.9707031,5.0273438h0.0229492l2.9594727-5.0273438
		h0.9599609v8.3413086h-0.9140625v-6.8100586h-0.0229492l-2.5712891,4.3305664h-0.8569336l-2.5708008-4.3305664h-0.0229492
		v6.8100586H325.9711914z"/>
	<path fill="#70A0BB" d="M336.0952148,19.9350586v-1.2568359h0.8916016v1.2568359H336.0952148z M336.0952148,27.2480469v-5.9418945
		h0.8916016v5.9418945H336.0952148z"/>
	<path fill="#70A0BB" d="M338.8149414,24.1630859c0-0.9448242,0.2094727-1.6757813,0.628418-2.1943359
		c0.4189453-0.5175781,0.9980469-0.7768555,1.7368164-0.7768555c0.8916016,0,1.550293,0.3696289,1.9770508,1.1083984h0.0229492
		l0.0224609-0.9941406h0.7998047v5.4506836c0,2.0795898-0.9291992,3.1191406-2.7880859,3.1191406
		c-0.6396484,0-1.2529297-0.121582-1.8393555-0.3652344l0.1826172-0.6743164
		c0.5410156,0.2358398,1.0932617,0.3540039,1.6567383,0.3540039c0.6704102,0,1.1616211-0.1865234,1.4741211-0.5595703
		c0.3125-0.3735352,0.46875-0.9868164,0.46875-1.8398438v-0.7314453h-0.0229492
		c-0.4116211,0.7163086-1.0625,1.0742188-1.9541016,1.0742188c-0.6933594,0-1.2607422-0.2666016-1.7026367-0.7998047
		S338.8149414,25.0771484,338.8149414,24.1630859z M339.6376953,24.1630859c0,0.7006836,0.1601563,1.2568359,0.4799805,1.6679688
		c0.3198242,0.4116211,0.7387695,0.6171875,1.2568359,0.6171875c0.5258789,0,0.9560547-0.1982422,1.2910156-0.5942383
		c0.3354492-0.3959961,0.4990234-0.940918,0.4916992-1.6337891V24.105957c0-0.6933594-0.1679688-1.2382813-0.5029297-1.6342773
		c-0.3354492-0.3959961-0.7617188-0.5942383-1.2797852-0.5942383c-0.5410156,0-0.9638672,0.1982422-1.2685547,0.5942383
		S339.6450195,23.4316406,339.6376953,24.1630859z"/>
	<path fill="#70A0BB" d="M345.8305664,27.2480469v-8.3413086h0.9257813l2.9707031,5.0273438H349.75l2.9594727-5.0273438h0.9599609
		v8.3413086h-0.9140625v-6.8100586h-0.0229492l-2.5712891,4.3305664h-0.8569336l-2.5708008-4.3305664h-0.0229492v6.8100586
		H345.8305664z"/>
	<path fill="#70A0BB" d="M355.9545898,19.9350586v-1.2568359h0.8916016v1.2568359H355.9545898z M355.9545898,27.2480469v-5.9418945
		h0.8916016v5.9418945H355.9545898z"/>
	<path fill="#70A0BB" d="M359.7827148,21.3061523l1.5424805,2.3652344h0.0229492l1.5541992-2.3652344h0.9594727l-2.0336914,2.925293
		l2.0908203,3.0166016h-0.9936523l-1.6000977-2.4682617h-0.0229492l-1.6108398,2.4682617h-0.9599609l2.0913086-3.0166016
		l-2.0341797-2.925293H359.7827148z"/>
	<path fill="#70A0BB" d="M371.3686523,27.2480469V20.003418h-0.0224609l-2.2514648,2.0795898l-0.3540039-0.7426758
		l2.6279297-2.4335938h0.9140625v8.3413086H371.3686523z"/>
	<path fill="#70A0BB" d="M375.859375,18.9750977c0.7924805-0.121582,1.5654297-0.1826172,2.3198242-0.1826172
		c1.0356445,0,1.8203125,0.2207031,2.3535156,0.6625977s0.8037109,1.0664063,0.8115234,1.8740234
		c0,0.8837891-0.2705078,1.5541992-0.8115234,2.0112305c-0.5405273,0.4570313-1.3251953,0.6855469-2.3535156,0.6855469
		c-0.5029297,0-0.9711914-0.0229492-1.4057617-0.0688477v3.2910156h-0.9140625V18.9750977z M376.7734375,23.203125
		c0.4418945,0.0610352,0.8876953,0.0913086,1.3369141,0.0913086c0.7617188,0,1.3408203-0.1635742,1.7368164-0.4912109
		s0.5942383-0.7958984,0.5942383-1.4057617c0-0.609375-0.1982422-1.0737305-0.5942383-1.394043
		c-0.3959961-0.3198242-0.9750977-0.4760742-1.7368164-0.4682617c-0.4189453,0-0.8647461,0.0380859-1.3369141,0.1142578V23.203125z"
		/>
</g>
<g>
	<path fill="#7D7D7E" d="M30.7158203,55.5800781c5.1333008-0.7089844,9.9682617-2.4360352,14.5043945-5.1801758
		c2.612793-1.5864258,4.7875977-3.3222656,6.5239258-5.2080078l1.3720703,1.512207
		c-2.184082,2.3706055-4.9750977,4.4707031-8.3720703,6.2998047v14.3359375h-2.2680664V54.1518555
		c-3.7338867,1.7363281-7.5415039,2.8842773-11.4243164,3.4443359L30.7158203,55.5800781z"/>
	<path fill="#7D7D7E" d="M66.9199219,43.6801758h2.1000977c0,1.6240234-0.027832,3.1176758-0.0839844,4.4799805h10.9477539
		v1.5957031c0,7.2988281-0.3637695,12.0029297-1.0917969,14.1123047c-0.4667969,1.3813477-1.2319336,2.1933594-2.2958984,2.4360352
		c-0.3549805,0.0932617-0.765625,0.1396484-1.2319336,0.1396484c-1.5683594,0-3.3417969-0.1025391-5.3203125-0.3076172
		l0.1679688-2.0161133c1.6801758,0.1870117,3.2104492,0.2797852,4.5922852,0.2797852
		c0.8583984,0,1.4648438-0.3359375,1.8198242-1.0078125c0.671875-1.2133789,1.0361328-4.5454102,1.0922852-9.9960938
		c0.0180664-0.8212891,0.027832-1.6982422,0.027832-2.6318359v-0.644043h-8.8481445
		c-0.3920898,4.9467773-1.4277344,8.7919922-3.1079102,11.5361328c-1.1757813,1.8852539-2.8466797,3.6586914-5.012207,5.3198242
		l-1.34375-1.512207c2.2958984-1.7543945,3.9663086-3.6210938,5.012207-5.5996094
		c1.25-2.3706055,2.0341797-5.6186523,2.3515625-9.7441406h-7.1396484v-1.9599609h7.2797852
		C66.8920898,46.7788086,66.9199219,45.2856445,66.9199219,43.6801758z"/>
	<path fill="#7D7D7E" d="M97.9438477,50.8759766v17.6401367H95.84375V54.9921875
		c-0.7841797,1.4560547-1.5776367,2.6787109-2.3798828,3.6679688l-0.9243164-2.3520508
		c2.5761719-3.6025391,4.3774414-7.9052734,5.4042969-12.9082031l2.0439453,0.3920898
		C99.5209961,46.3310547,98.8398438,48.6918945,97.9438477,50.8759766z M119.1396484,48.300293v1.8759766h-7.5039063
		c1.6796875,4.2558594,4.3676758,8.4277344,8.0639648,12.515625l-1.2602539,1.9882813
		c-3.6025391-4.1811523-6.253418-8.390625-7.9516602-12.6279297V61.65625h5.2080078v1.8198242h-5.2080078v5.0400391h-2.15625
		v-5.0400391h-5.6000977V61.65625h5.6000977v-9.5483398c-1.9038086,4.3496094-4.7695313,8.5498047-8.5957031,12.6000977
		l-1.4560547-1.6518555c4.1811523-4.2558594,7.1860352-8.5493164,9.015625-12.8798828h-7.5595703V48.300293h8.5957031v-4.8164063
		h2.15625v4.8164063H119.1396484z"/>
	<path fill="#7D7D7E" d="M130.84375,43.0922852h2.2397461c0,1.5678711-0.027832,3.0517578-0.0839844,4.4516602h9.5200195v-1.6796875
		h2.2402344v1.6796875c0,8.605957-0.3549805,14.1591797-1.0639648,16.6601563
		c-0.4482422,1.6616211-1.1948242,2.6601563-2.2402344,2.9960938c-0.4477539,0.1489258-0.9985352,0.2241211-1.6518555,0.2241211
		c-1.6054688,0-3.4628906-0.1030273-5.5722656-0.3081055v-2.0722656c2.109375,0.2241211,3.7983398,0.3359375,5.0683594,0.3359375
		c0.8769531,0,1.5117188-0.3916016,1.9038086-1.1757813c0.7841797-1.512207,1.2133789-5.65625,1.2880859-12.4321289
		c0.0180664-0.7280273,0.027832-1.4838867,0.027832-2.2680664h-9.6318359
		c-0.3549805,5.3579102-1.3999023,9.5297852-3.1362305,12.5161133c-1.2504883,2.1098633-3.0708008,4.0878906-5.4599609,5.9360352
		l-1.4838867-1.6518555c2.4824219-1.8852539,4.2841797-3.9199219,5.4038086-6.1040039
		c1.3066406-2.5947266,2.1186523-6.1601563,2.4360352-10.6962891h-7.7280273v-1.9599609h7.8120117
		C130.8061523,45.7148438,130.84375,44.230957,130.84375,43.0922852z"/>
	<path fill="#7D7D7E" d="M158.9550781,55.5800781c5.1333008-0.7089844,9.9682617-2.4360352,14.5043945-5.1801758
		c2.612793-1.5864258,4.7875977-3.3222656,6.5239258-5.2080078l1.3720703,1.512207
		c-2.184082,2.3706055-4.9750977,4.4707031-8.3720703,6.2998047v14.3359375h-2.2680664V54.1518555
		c-3.7338867,1.7363281-7.5415039,2.8842773-11.4243164,3.4443359L158.9550781,55.5800781z"/>
	<path fill="#7D7D7E" d="M188.2431641,46.5639648h19.9921875v1.9599609h-8.8759766v14.9521484h9.7158203v1.9599609h-21.671875
		v-1.9599609h9.7158203V48.5239258h-8.8759766V46.5639648z"/>
	<path fill="#7D7D7E" d="M221.5908203,66.1918945c4.2001953-2.0532227,7.3173828-5.1328125,9.3520508-9.2397461
		c1.5302734-3.0986328,2.2958984-6.4960938,2.2958984-10.1918945v-3.2763672h2.2402344v3.2763672
		c0,5.4506836,1.5771484,10.1079102,4.7319336,13.9716797c1.8852539,2.2963867,4.1904297,4.1162109,6.9160156,5.4599609
		l-1.1762695,1.7363281c-3.527832-1.6430664-6.4399414-4.3027344-8.7358398-7.9799805
		c-1.1948242-1.9414063-2.1186523-4.0043945-2.7719727-6.1879883c-1.2880859,4.3120117-3.5097656,7.9145508-6.6640625,10.8076172
		c-1.5678711,1.4189453-3.2387695,2.5385742-5.0117188,3.3603516L221.5908203,66.1918945z"/>
	<path fill="#7D7D7E" d="M251.2426758,45.4160156h22.2324219v1.9882813h-9.9682617v17.1918945h8.5678711v-1.6801758h2.2402344
		v1.7080078v1.9599609H250.402832v-1.987793h10.8081055V47.4042969h-9.9682617V45.4160156z"/>
	<path fill="#7D7D7E" d="M37.3242188,80.6040039v8.1762695c5.1518555,1.2319336,10.3691406,2.8374023,15.6518555,4.815918
		l-0.671875,2.0439453c-5.3017578-1.9785156-10.2949219-3.5371094-14.9799805-4.6762695v12.4321289h-2.2402344V80.6040039
		H37.3242188z"/>
	<path fill="#7D7D7E" d="M61.684082,101.8842773h-2.2402344V82.1162109h21.1123047v19.7680664H61.684082z M61.684082,99.8959961
		H78.315918V84.1040039H61.684082V99.8959961z"/>
	<path fill="#7D7D7E" d="M93.3515625,102.1918945c4.2001953-2.0532227,7.3173828-5.1328125,9.3520508-9.2397461
		c1.5302734-3.0986328,2.2958984-6.4960938,2.2958984-10.1918945v-3.2763672h2.2402344v3.2763672
		c0,5.4506836,1.5771484,10.1079102,4.7319336,13.9716797c1.8852539,2.2963867,4.1904297,4.1162109,6.9160156,5.4599609
		l-1.1762695,1.7363281c-3.527832-1.6430664-6.4399414-4.3027344-8.7358398-7.9799805
		c-1.1948242-1.9414063-2.1186523-4.0043945-2.7719727-6.1879883c-1.2880859,4.3120117-3.5097656,7.9145508-6.6640625,10.8076172
		c-1.5678711,1.4189453-3.2387695,2.5385742-5.0117188,3.3603516L93.3515625,102.1918945z"/>
	<path fill="#7D7D7E" d="M125.2998047,102.2202148v1.7636719h-2.2402344V81.3041992h19.8798828v-1.6801758h2.2402344v1.6801758
		v1.0356445v21.644043h-2.2402344v-1.7636719H125.2998047z M125.2998047,100.3442383h17.6396484V83.2358398h-17.6396484V100.3442383
		z"/>
	<path fill="#7D7D7E" d="M168.1953125,80.2119141l2.2397461-0.1679688l0.3642578,4.7880859l9.6601563-0.3359375l0.0839844,1.9599609
		l-9.5761719,0.3359375l0.5600586,7.2519531l10.0517578-0.3081055l0.0839844,1.9604492l-9.9956055,0.3076172l0.6157227,7.7841797
		l-2.2397461,0.1679688l-0.6162109-7.8681641l-10.527832,0.3364258l-0.0839844-1.9604492l10.4716797-0.3359375l-0.5878906-7.2519531
		l-8.6801758,0.3081055l-0.0839844-1.9599609l8.6240234-0.3081055L168.1953125,80.2119141z"/>
	<path fill="#7D7D7E" d="M189.6152344,92.8120117l-2.9960938-1.5957031l0.8120117-1.7363281l2.1279297,1.1201172
		c0.0185547,0,0.3081055,0.1030273,0.8681641,0.3081055l0.7558594,0.027832h18.4521484v2.1279297h-18.815918
		c-0.1870117,0-0.3920898-0.0180664-0.6162109-0.0556641L189.6152344,92.8120117z"/>
	<path fill="#7D7D7E" d="M235.4790039,81.4160156h11.199707v1.8481445h-24.6396484v-1.8481445h11.199707v-2.4916992h2.2402344
		V81.4160156z M222.7949219,92.0839844h23.1279297v8.3720703c0,1.5678711-0.1586914,2.5478516-0.4760742,2.9399414
		c-0.3173828,0.3730469-1.0917969,0.5693359-2.3237305,0.5878906c-0.1123047,0-0.2148438,0-0.3081055,0
		c-0.5039063,0-1.6894531-0.0463867-3.5561523-0.1396484l-0.0839844-1.9042969
		c1.6801758,0.09375,2.734375,0.1401367,3.1640625,0.1401367c0.7280273,0,1.1572266-0.0742188,1.2880859-0.2241211
		c0.1118164-0.1679688,0.1679688-0.6064453,0.1679688-1.315918v-6.6357422h-18.8720703v10.1918945h-2.1279297V92.0839844z
		 M228.2548828,90.5439453h-2.2119141v-5.7397461h16.6318359v5.7397461H228.2548828z M227.9750977,95.4438477h12.7675781v5.8803711
		H230.019043v1.2319336h-2.0439453V95.4438477z M228.2548828,88.9199219h12.2080078v-2.4360352h-12.2080078V88.9199219z
		 M230.019043,99.671875h8.6796875v-2.4916992h-8.6796875V99.671875z"/>
	<path fill="#7D7D7E" d="M249.8427734,92.4760742v-2.1557617h22.7919922v-1.4282227H274.875v1.7080078v1.8759766H249.8427734z"/>
	<path fill="#7D7D7E" d="M31.5561523,120.0761719h9.1279297v-4.4799805h2.1557617v4.4799805h9.6040039v4.5639648
		c0,5.6000977-2.184082,9.6225586-6.5517578,12.0678711c-2.5019531,1.3813477-5.6000977,2.184082-9.2958984,2.4082031
		l-0.2519531-1.9599609c7.2607422-0.4663086,11.7036133-3.1640625,13.3276367-8.0922852
		c0.4291992-1.34375,0.644043-2.8183594,0.644043-4.4238281v-2.6601563H33.6557617v6.8598633h-2.0996094V120.0761719z"/>
	<path fill="#7D7D7E" d="M58.8837891,137.4360352v-2.1000977h22.2324219v2.1000977H58.8837891z M60.8442383,120.6640625v-2.1000977
		h18.3115234v2.1000977H60.8442383z"/>
	<path fill="#7D7D7E" d="M107.2397461,117.4160156h11.199707v1.8481445H93.7998047v-1.8481445h11.199707v-2.4916992h2.2402344
		V117.4160156z M94.5556641,128.0839844h23.1279297v8.3720703c0,1.5678711-0.1586914,2.5478516-0.4760742,2.9399414
		c-0.3173828,0.3730469-1.0917969,0.5693359-2.3237305,0.5878906c-0.1123047,0-0.2148438,0-0.3081055,0
		c-0.5039063,0-1.6894531-0.0463867-3.5561523-0.1396484l-0.0839844-1.9042969
		c1.6801758,0.09375,2.734375,0.1401367,3.1640625,0.1401367c0.7280273,0,1.1572266-0.0742188,1.2880859-0.2241211
		c0.1118164-0.1679688,0.1679688-0.6064453,0.1679688-1.315918v-6.6357422H96.6835938v10.1918945h-2.1279297V128.0839844z
		 M100.015625,126.5439453h-2.2119141v-5.7397461h16.6318359v5.7397461H100.015625z M99.7358398,131.4438477h12.7675781v5.8803711
		h-10.7236328v1.2319336h-2.0439453V131.4438477z M100.015625,124.9199219h12.2080078v-2.4360352H100.015625V124.9199219z
		 M101.7797852,135.671875h8.6796875v-2.4916992h-8.6796875V135.671875z"/>
	<path fill="#7D7D7E" d="M122.0234375,137.5761719v-2.0161133h21.9521484v-1.4282227h2.2402344v1.7080078v1.7363281H122.0234375z
		 M124.7397461,120.4399414v-2.015625h18.7597656v2.015625H124.7397461z"/>
	<path fill="#7D7D7E" d="M158.8994141,133.0678711l-1.5961914-1.4555664
		c2.109375-2.4267578,3.8173828-4.4423828,5.1240234-6.0483398c1.6049805-1.9599609,2.6694336-3.1450195,3.1918945-3.5556641
		c0.5786133-0.4291992,1.2783203-0.644043,2.1000977-0.644043c0.8212891,0,1.5493164,0.2236328,2.184082,0.671875
		c0.578125,0.4106445,1.8198242,1.5214844,3.7241211,3.3320313c3.3408203,3.1918945,6.5141602,6.1040039,9.5200195,8.7358398
		l-1.4560547,1.6801758c-3.2480469-2.855957-6.6362305-5.9731445-10.1640625-9.3520508
		c-1.6054688-1.5493164-2.6040039-2.4262695-2.9960938-2.6318359c-0.2797852-0.1303711-0.5698242-0.1962891-0.8681641-0.1962891
		c-0.4853516,0-0.9707031,0.2519531-1.4560547,0.7558594c-0.3544922,0.3740234-1.0078125,1.1391602-1.9599609,2.2963867
		C162.1376953,129.2695313,160.3554688,131.4067383,158.8994141,133.0678711z"/>
	<path fill="#7D7D7E" d="M189.7832031,116.8842773h2.1000977V124.5h0.0561523
		c1.2128906-2.8745117,2.9677734-4.9091797,5.2636719-6.1040039c1.2133789-0.6342773,2.4643555-0.9521484,3.7519531-0.9521484
		c2.8374023,0,4.8164063,1.3071289,5.9360352,3.9204102c0.5786133,1.3813477,0.8681641,3.0615234,0.8681641,5.0400391
		c0,5.4692383-1.9228516,9.1655273-5.7680664,11.0878906c-2.3896484,1.1943359-5.6000977,1.7919922-9.6318359,1.7919922
		l-0.0839844-1.9599609c5.4501953,0,9.1650391-1.1943359,11.144043-3.5839844
		c1.3999023-1.7172852,2.0996094-4.1625977,2.0996094-7.3359375c0-4.1064453-1.2875977-6.3745117-3.8637695-6.8041992
		c-0.2988281-0.0561523-0.5976563-0.0839844-0.8959961-0.0839844c-1.8295898,0-3.574707,0.8774414-5.2358398,2.6318359
		c-1.9418945,2.0537109-3.1269531,4.6201172-3.5561523,7.7001953c-0.0561523,0.3920898-0.09375,0.7749023-0.1118164,1.1479492
		h-2.0722656V116.8842773z"/>
	<path fill="#7D7D7E" d="M234.3310547,125.4799805c-0.7099609-0.671875-1.1669922-1.1010742-1.3720703-1.2880859
		c-0.5229492-0.4663086-0.9521484-0.699707-1.2880859-0.699707c-0.2426758,0-0.5229492,0.1396484-0.8398438,0.4199219
		c-0.2988281,0.2797852-1.7919922,1.9975586-4.4799805,5.1518555c-0.5043945,0.5791016-1.2602539,0.9521484-2.2680664,1.1201172
		c-0.2431641,0.0375977-0.9150391,0.0561523-2.0161133,0.0561523V128c0.1494141,0,0.3173828-0.0092773,0.5039063-0.027832
		c1.2319336-0.074707,1.9223633-0.1962891,2.0722656-0.3642578c0.4291992-0.5039063,0.8959961-1.0541992,1.3999023-1.6518555
		c1.6240234-2.0161133,2.6132813-3.1918945,2.9677734-3.527832c0.8212891-0.7841797,1.7080078-1.1762695,2.6601563-1.1762695
		c0.6342773,0,1.2041016,0.121582,1.7080078,0.3642578c0.597168,0.2988281,1.6611328,1.1855469,3.1918945,2.659668
		c3.8642578,3.7524414,7.4199219,7.0375977,10.6679688,9.855957l-1.4560547,1.6801758
		C241.5083008,132.0976563,237.690918,128.6538086,234.3310547,125.4799805z"/>
	<path fill="#7D7D7E" d="M253.902832,129.5961914v-12.3203125h2.2402344v12.3203125H253.902832z M268.519043,117.2758789h2.2958984
		v7.1679688c0,5.1523438-1.2978516,8.9042969-3.8920898,11.2563477c-2.1469727,1.9414063-5.3857422,3.2011719-9.7158203,3.7797852
		l-0.4760742-2.0439453c4.3491211-0.6533203,7.3920898-1.9223633,9.1279297-3.8081055
		c1.7358398-2.0532227,2.6225586-5.0957031,2.6601563-9.1279297V117.2758789z"/>
</g>
<g>
	<path fill="#7D7D7E" d="M327.7158203,55.5800781c4.0131836-0.5600586,7.9243164-1.7822266,11.7324219-3.6679688
		c3.8076172-1.8852539,6.90625-4.125,9.2958984-6.7202148l1.3720703,1.512207
		c-2.1660156,2.3706055-4.9560547,4.4707031-8.3720703,6.2998047v14.3359375h-2.2680664V54.1518555
		c-3.7148438,1.7363281-7.5229492,2.8842773-11.4243164,3.4443359L327.7158203,55.5800781z"/>
	<path fill="#7D7D7E" d="M363.9199219,43.6801758h2.1000977c0,1.6054688-0.027832,3.0986328-0.0839844,4.4799805h10.9477539
		v1.5957031c0.0185547,2.9682617-0.027832,5.4228516-0.1396484,7.3642578
		c-0.1123047,1.9414063-0.2617188,3.546875-0.4482422,4.815918c-0.1865234,1.2695313-0.4853516,2.2216797-0.8959961,2.855957
		c-0.3735352,0.6347656-0.8027344,1.0639648-1.2880859,1.2880859s-1.1015625,0.3452148-1.8476563,0.3637695
		c-1.5498047,0-3.3227539-0.1025391-5.3203125-0.3076172l0.1679688-2.0161133
		c1.6801758,0.1870117,3.2104492,0.2797852,4.5922852,0.2797852c0.7836914,0,1.3623047-0.2797852,1.7358398-0.8398438
		c0.3730469-0.5600586,0.671875-1.8105469,0.8959961-3.7519531c0.2241211-1.9785156,0.3266602-4.9931641,0.3081055-9.0439453
		v-0.644043h-8.8481445c-0.3173828,4.293457-1.0917969,7.671875-2.3237305,10.1357422
		c-1.2319336,2.4643555-3.1640625,4.7041016-5.7963867,6.7202148l-1.34375-1.512207
		c1.5678711-1.1943359,2.8183594-2.3891602,3.7519531-3.5839844c0.9145508-1.1943359,1.6889648-2.762207,2.3242188-4.7036133
		c0.6342773-1.9042969,1.0639648-4.2563477,1.2875977-7.0561523h-7.1396484v-1.9599609h7.2797852
		C363.8920898,46.7978516,363.9199219,45.3041992,363.9199219,43.6801758z"/>
	<path fill="#7D7D7E" d="M394.9438477,50.8759766v17.6401367H392.84375V54.9921875
		c-0.7841797,1.4560547-1.5776367,2.6787109-2.3798828,3.6679688l-0.9243164-2.3520508
		c2.5761719-3.5839844,4.3774414-7.8862305,5.4042969-12.9082031l2.0439453,0.3920898
		C396.5209961,46.3120117,395.8398438,48.6738281,394.9438477,50.8759766z M416.1396484,48.300293v1.8759766h-7.5039063
		c1.6611328,4.2373047,4.3491211,8.409668,8.0639648,12.515625l-1.2602539,1.9882813
		c-3.6025391-4.1625977-6.253418-8.3720703-7.9516602-12.6279297V61.65625h5.2080078v1.8198242h-5.2080078v5.0400391h-2.15625
		v-5.0400391h-5.6000977V61.65625h5.6000977v-9.5483398c-1.8857422,4.3310547-4.7504883,8.5307617-8.5957031,12.6000977
		l-1.4560547-1.6518555c4.199707-4.2558594,7.2050781-8.5493164,9.015625-12.8798828h-7.5595703V48.300293h8.5957031v-4.8164063
		h2.15625v4.8164063H416.1396484z"/>
	<path fill="#7D7D7E" d="M427.84375,43.0922852h2.2402344c0,1.5678711-0.0283203,3.0517578-0.0839844,4.4516602h11.7597656
		c0,3.0429688-0.0332031,5.6098633-0.0976563,7.7001953c-0.0664063,2.0908203-0.1826172,3.8920898-0.3505859,5.4038086
		c-0.1679688,1.512207-0.3642578,2.7021484-0.5878906,3.5703125c-0.2236328,0.8676758-0.5419922,1.5444336-0.9521484,2.0297852
		s-0.8359375,0.8022461-1.2734375,0.9521484c-0.4394531,0.1489258-1.0039063,0.2241211-1.6943359,0.2241211
		c-1.5869141,0-3.4443359-0.1030273-5.5722656-0.3081055v-2.0722656c2.0908203,0.2241211,3.7802734,0.3359375,5.0683594,0.3359375
		c0.5966797,0,1.0683594-0.1630859,1.4140625-0.4897461c0.3447266-0.3266602,0.6669922-1.0263672,0.9658203-2.1000977
		c0.2988281-1.0732422,0.5078125-2.6738281,0.6298828-4.8017578c0.1210938-2.128418,0.1914063-4.9560547,0.2099609-8.484375
		h-9.6318359c-0.3173828,4.7041016-1.125,8.4140625-2.421875,11.1303711
		c-1.2978516,2.7158203-3.3564453,5.1567383-6.1743164,7.3217773l-1.4838867-1.6518555
		c1.6982422-1.3066406,3.0556641-2.6323242,4.0742188-3.9760742c1.0166016-1.3442383,1.8476563-3.0566406,2.4912109-5.1381836
		c0.6445313-2.0810547,1.0683594-4.6430664,1.2744141-7.6860352h-7.7280273v-1.9599609h7.8120117
		C427.8066406,45.7148438,427.84375,44.230957,427.84375,43.0922852z"/>
	<path fill="#7D7D7E" d="M455.9550781,55.5800781c4.0136719-0.5600586,7.9238281-1.7822266,11.7324219-3.6679688
		c3.8076172-1.8852539,6.90625-4.125,9.2958984-6.7202148l1.3720703,1.512207
		c-2.1660156,2.3706055-4.9560547,4.4707031-8.3720703,6.2998047v14.3359375h-2.2685547V54.1518555
		C464,55.8881836,460.1923828,57.0361328,456.2910156,57.5961914L455.9550781,55.5800781z"/>
	<path fill="#7D7D7E" d="M485.2431641,46.5639648h19.9921875v1.9599609h-8.8759766v14.9521484h9.7158203v1.9599609h-21.671875
		v-1.9599609h9.7158203V48.5239258h-8.8759766V46.5639648z"/>
	<path fill="#7D7D7E" d="M518.5908203,66.1918945c3.6582031-1.7919922,6.5146484-4.3911133,8.5673828-7.7978516
		c2.0537109-3.40625,3.0800781-7.2841797,3.0800781-11.6337891v-3.2763672h2.2402344v3.2763672
		c0,4.3496094,1.0273438,8.2275391,3.0800781,11.6337891c2.0537109,3.4067383,4.9101563,6.0058594,8.5683594,7.7978516
		l-1.1757813,1.7363281c-2.6884766-1.2509766-5.0449219-3.1313477-7.0703125-5.6420898
		c-2.0253906-2.5102539-3.5048828-5.3525391-4.4375-8.5258789c-0.953125,3.1733398-2.4550781,6.015625-4.5078125,8.5258789
		c-2.0546875,2.5107422-4.4433594,4.3911133-7.1679688,5.6420898L518.5908203,66.1918945z"/>
	<path fill="#7D7D7E" d="M548.2421875,45.4160156h22.2324219v1.9882813h-9.9677734v17.1918945h10.8076172v1.987793h-23.9121094
		v-1.987793h10.8085938V47.4042969h-9.96875V45.4160156z"/>
	<path fill="#7D7D7E" d="M334.3242188,80.6040039v8.1762695c5.1518555,1.2319336,10.3691406,2.8374023,15.6518555,4.815918
		l-0.671875,2.0439453c-5.3017578-1.9785156-10.2949219-3.5371094-14.9799805-4.6762695v12.4321289h-2.2402344V80.6040039
		H334.3242188z"/>
	<path fill="#7D7D7E" d="M358.684082,101.8842773h-2.2402344V82.1162109h21.1123047v19.7680664H358.684082z M358.684082,99.8959961
		h16.6318359V84.1040039H358.684082V99.8959961z"/>
	<path fill="#7D7D7E" d="M390.3515625,102.1918945c3.6582031-1.7919922,6.5146484-4.3911133,8.5678711-7.7978516
		c2.0532227-3.40625,3.0800781-7.2841797,3.0800781-11.6337891v-3.2763672h2.2402344v3.2763672
		c0,4.3496094,1.0263672,8.2275391,3.0800781,11.6337891c2.0532227,3.4067383,4.9091797,6.0058594,8.5678711,7.7978516
		l-1.1762695,1.7363281c-2.6879883-1.2509766-5.0444336-3.1313477-7.0698242-5.6420898
		c-2.0253906-2.5102539-3.5048828-5.3525391-4.4379883-8.5258789c-0.9521484,3.1733398-2.4545898,6.015625-4.5078125,8.5258789
		c-2.0537109,2.5107422-4.4428711,4.3911133-7.1679688,5.6420898L390.3515625,102.1918945z"/>
	<path fill="#7D7D7E" d="M420.0595703,81.3041992h22.1201172v22.6796875h-2.2402344v-1.7636719h-17.6396484v1.7636719h-2.2402344
		V81.3041992z M422.2998047,100.3442383h17.6396484V83.2358398h-17.6396484V100.3442383z"/>
	<path fill="#7D7D7E" d="M465.1953125,80.2119141l2.2402344-0.1679688l0.3632813,4.7880859l9.6601563-0.3359375l0.0839844,1.9599609
		l-9.5761719,0.3359375l0.5605469,7.2519531l10.0517578-0.3081055l0.0839844,1.9604492l-9.9951172,0.3076172l0.6152344,7.7841797
		l-2.2402344,0.1679688l-0.6152344-7.8681641l-10.5283203,0.3364258l-0.0839844-1.9604492l10.4716797-0.3359375
		l-0.5878906-7.2519531l-8.6796875,0.3081055l-0.0839844-1.9599609l8.6230469-0.3081055L465.1953125,80.2119141z"/>
	<path fill="#7D7D7E" d="M483.84375,93.0639648v-2.1279297h22.7910156v2.1279297H483.84375z"/>
	<path fill="#7D7D7E" d="M532.4785156,81.4160156h11.2001953v1.8481445h-24.6396484v-1.8481445h11.1992188v-2.4916992h2.2402344
		V81.4160156z M519.7949219,92.0839844h23.1279297v8.3720703c0,1.5869141-0.1679688,2.5712891-0.5039063,2.9541016
		c-0.3359375,0.3823242-1.2041016,0.5737305-2.6044922,0.5737305c-0.4667969,0-1.6513672-0.0463867-3.5556641-0.1396484
		l-0.0839844-1.9042969c1.6806641,0.09375,2.734375,0.1401367,3.1640625,0.1401367
		c0.7089844,0,1.1298828-0.0654297,1.2607422-0.1958008c0.1298828-0.1303711,0.1953125-0.5786133,0.1953125-1.3442383v-6.6357422
		h-18.8720703v10.1918945h-2.1279297V92.0839844z M525.2548828,90.5439453h-2.2119141v-5.7397461h16.6318359v5.7397461H525.2548828z
		 M524.9746094,95.4438477h12.7675781v5.8803711h-10.7226563v1.2319336h-2.0449219V95.4438477z M525.2548828,88.9199219h12.2080078
		v-2.4360352h-12.2080078V88.9199219z M527.0195313,99.671875h8.6796875v-2.4916992h-8.6796875V99.671875z"/>
	<path fill="#7D7D7E" d="M546.8427734,92.4760742v-2.1557617H571.875v2.1557617H546.8427734z"/>
	<path fill="#7D7D7E" d="M328.5561523,120.0761719h9.1279297v-4.4799805h2.1557617v4.4799805h9.6040039v4.5639648
		c0.0185547,4.3681641-1.3344727,7.8027344-4.0600586,10.3037109c-2.7255859,2.5019531-6.6547852,3.8920898-11.7875977,4.1723633
		l-0.2519531-1.9599609c4.6103516-0.2802734,8.0917969-1.484375,10.4438477-3.6123047s3.527832-5.0957031,3.527832-8.9038086
		v-2.6601563h-16.6601563v6.8598633h-2.0996094V120.0761719z"/>
	<path fill="#7D7D7E" d="M355.8837891,137.4360352v-2.1000977h22.2324219v2.1000977H355.8837891z M357.8442383,120.6640625
		v-2.1000977h18.3115234v2.1000977H357.8442383z"/>
	<path fill="#7D7D7E" d="M404.2397461,117.4160156h11.199707v1.8481445h-24.6396484v-1.8481445h11.199707v-2.4916992h2.2402344
		V117.4160156z M391.5556641,128.0839844h23.1279297v8.3720703c0,1.5869141-0.1679688,2.5712891-0.5039063,2.9541016
		c-0.3359375,0.3823242-1.2041016,0.5737305-2.6040039,0.5737305c-0.4667969,0-1.6518555-0.0463867-3.5561523-0.1396484
		l-0.0839844-1.9042969c1.6801758,0.09375,2.734375,0.1401367,3.1640625,0.1401367
		c0.7089844,0,1.1293945-0.0654297,1.2602539-0.1958008c0.1303711-0.1303711,0.1958008-0.5786133,0.1958008-1.3442383v-6.6357422
		h-18.8720703v10.1918945h-2.1279297V128.0839844z M397.015625,126.5439453h-2.2119141v-5.7397461h16.6318359v5.7397461H397.015625z
		 M396.7358398,131.4438477h12.7675781v5.8803711h-10.7236328v1.2319336h-2.0439453V131.4438477z M397.015625,124.9199219
		h12.2080078v-2.4360352H397.015625V124.9199219z M398.7797852,135.671875h8.6796875v-2.4916992h-8.6796875V135.671875z"/>
	<path fill="#7D7D7E" d="M419.0234375,137.5761719v-2.0161133h24.1923828v2.0161133H419.0234375z M421.7397461,120.4399414
		v-2.015625H440.5v2.015625H421.7397461z"/>
	<path fill="#7D7D7E" d="M455.8994141,133.0678711l-1.5966797-1.4555664c2.109375-2.4082031,3.8183594-4.4243164,5.125-6.0483398
		c1.5117188-1.8662109,2.546875-3.0332031,3.1074219-3.5c0.5605469-0.4663086,1.2880859-0.699707,2.1835938-0.699707
		c0.8222656,0,1.53125,0.2055664,2.1289063,0.6157227c0.5966797,0.4111328,1.8574219,1.5400391,3.7792969,3.3881836
		c3.3222656,3.1733398,6.4960938,6.0854492,9.5205078,8.7358398l-1.4560547,1.6801758
		c-3.2304688-2.855957-6.6171875-5.9731445-10.1640625-9.3520508c-1.34375-1.2880859-2.2216797-2.0810547-2.6328125-2.3798828
		c-0.4101563-0.2983398-0.8203125-0.4482422-1.2314453-0.4482422c-0.4296875,0-0.8310547,0.1679688-1.2041016,0.5039063
		s-1.1103516,1.1860352-2.2119141,2.5483398C459.15625,129.2509766,457.3730469,131.3881836,455.8994141,133.0678711z"/>
	<path fill="#7D7D7E" d="M486.7832031,116.8842773h2.0996094V124.5h0.0566406
		c0.9511719-2.2021484,2.2304688-3.9291992,3.8359375-5.1796875s3.3320313-1.8764648,5.1796875-1.8764648
		c2.1464844,0,3.8173828,0.7749023,5.0117188,2.3242188c1.1953125,1.5498047,1.7929688,3.7617188,1.7929688,6.6362305
		c0,4.4238281-1.2421875,7.6816406-3.7246094,9.7719727s-6.375,3.1259766-11.6757813,3.1079102l-0.0839844-1.9599609
		c4.6855469,0,8.0644531-0.8583984,10.1357422-2.5761719c2.0722656-1.7172852,3.1083984-4.4985352,3.1083984-8.34375
		c0-2.2773438-0.4111328-3.9946289-1.2324219-5.1523438c-0.8212891-1.1572266-1.9980469-1.7358398-3.5273438-1.7358398
		c-2.0722656,0-4.0234375,1.1201172-5.8525391,3.3598633c-1.8291016,2.2402344-2.8466797,4.9467773-3.0517578,8.1201172h-2.0722656
		V116.8842773z"/>
	<path fill="#7D7D7E" d="M518.4228516,132.5361328c0.6337891-0.746582,1.3447266-1.6240234,2.1279297-2.6318359
		c0.7841797-1.0083008,1.5488281-2.0068359,2.2958984-2.9960938c0.7470703-0.9707031,1.1943359-1.5493164,1.3447266-1.7363281
		c1.5292969-2.090332,2.5566406-3.3876953,3.0800781-3.8916016c0.5214844-0.5043945,1.1191406-0.7563477,1.7910156-0.7563477
		c0.7460938,0,1.4003906,0.2241211,1.9609375,0.6723633c0.5595703,0.4477539,1.7255859,1.6147461,3.5,3.5
		c3.1171875,3.378418,6.3652344,6.7666016,9.7441406,10.1635742l-1.5683594,1.6240234
		c-3.2480469-3.2661133-6.5058594-6.6728516-9.7724609-10.2197266c-1.3066406-1.418457-2.2021484-2.3520508-2.6884766-2.800293
		c-0.484375-0.4477539-0.8769531-0.6621094-1.1757813-0.6435547c-0.2236328,0-0.5224609,0.2236328-0.8955078,0.671875
		c-0.3740234,0.4477539-0.9619141,1.1948242-1.7646484,2.2397461c-0.1484375,0.2055664-0.2617188,0.3642578-0.3359375,0.4760742
		c-2.3330078,3.0991211-4.3115234,5.6469727-5.9355469,7.644043L518.4228516,132.5361328z"/>
	<path fill="#7D7D7E" d="M550.9023438,129.5961914v-12.3203125h2.2402344v12.3203125H550.9023438z M565.5195313,117.2758789
		h2.2949219v7.1679688c0,4.7041016-1.0634766,8.2231445-3.1914063,10.5561523
		c-2.1279297,2.3334961-5.5996094,3.8266602-10.4160156,4.4799805l-0.4765625-2.0439453
		c4.3496094-0.6533203,7.4013672-1.9321289,9.15625-3.8359375c1.7539063-1.9038086,2.6328125-4.9370117,2.6328125-9.1000977
		V117.2758789z"/>
</g>
</svg>
