<?xml version="1.0" encoding="utf-8"?>
<!-- Generator: Adobe Illustrator 16.0.3, SVG Export Plug-In . SVG Version: 6.00 Build 0)  -->
<!DOCTYPE svg PUBLIC "-//W3C//DTD SVG 1.1//EN" "http://www.w3.org/Graphics/SVG/1.1/DTD/svg11.dtd">
<svg version="1.1" id="レイヤー_1" xmlns="http://www.w3.org/2000/svg" xmlns:xlink="http://www.w3.org/1999/xlink" x="0px"
	 y="0px" width="650px" height="125px" viewBox="0 0 650 125" enable-background="new 0 0 650 125" xml:space="preserve">
<g>
	<path fill="#7E7E7F" d="M99.4765625,20.9072266h16.5019531v0.3554688c0,6.0708008-1.8066406,10.3642578-5.4194336,12.8813477
		c-2.1914063,1.5253906-5.1157227,2.4873047-8.7724609,2.887207l-0.2885742-1.5766602
		c4.9448242-0.5478516,8.4023438-2.1987305,10.371582-4.9526367c1.3916016-1.984375,2.1616211-4.6420898,2.3095703-7.9736328
		H99.4765625V20.9072266z"/>
	<path fill="#7E7E7F" d="M118.7543945,25.3491211h9.0170898v-2.7983398h1.5771484v2.7983398h3.9306641v1.4213867h-3.9306641
		v7.8623047c0,1.065918-0.1557617,1.7397461-0.4667969,2.0209961c-0.2963867,0.2514648-0.9477539,0.3774414-1.9541016,0.3774414
		c-0.9331055,0-1.9321289-0.059082-2.9985352-0.1777344l0.1113281-1.4433594
		c1.1694336,0.1186523,2.0874023,0.1777344,2.7539063,0.1777344c0.5029297,0,0.7993164-0.0888672,0.8881836-0.2666016
		c0.059082-0.1479492,0.0888672-0.3847656,0.0888672-0.7109375v-6.1518555
		c-2.5615234,2.6206055-5.3154297,4.7749023-8.2617188,6.4628906l-0.7329102-1.2880859
		c3.0649414-1.7324219,5.8925781-3.9755859,8.4838867-6.7294922c0.0444336-0.059082,0.0810547-0.1035156,0.1108398-0.1333008
		h-8.6171875V25.3491211z"/>
	<path fill="#7E7E7F" d="M136.0556641,21.8398438l0.7998047-1.5102539c2.3686523,1.1850586,4.6342773,2.4433594,6.7958984,3.7758789
		l-0.8662109,1.5102539C140.7270508,24.3422852,138.4838867,23.0839844,136.0556641,21.8398438z M153.2236328,22.7060547
		c-1.5249023,8.5288086-6.9956055,13.2075195-16.4125977,14.0366211l-0.2666016-1.6660156
		c7.1069336-0.6513672,11.7563477-3.6274414,13.9477539-8.9277344c0.4736328-1.1699219,0.84375-2.4355469,1.1103516-3.7978516
		L153.2236328,22.7060547z"/>
	<path fill="#7E7E7F" d="M159.2202148,19.4858398v6.4853516c4.0869141,0.9770508,8.2250977,2.2504883,12.4155273,3.8198242
		l-0.5332031,1.6210938c-4.2050781-1.5688477-8.1660156-2.8056641-11.8823242-3.7089844v9.8613281h-1.7763672V19.4858398
		H159.2202148z"/>
	<path fill="#7E7E7F" d="M177.3427734,19.375l1.7324219-0.2666016c0.4145508,2.4726563,0.9179688,4.8637695,1.5102539,7.1733398
		c2.3540039-1.0805664,5.4262695-2.0576172,9.2167969-2.9316406l0.3334961,1.5327148
		c-8.1586914,1.8657227-12.5927734,4.1015625-13.3037109,6.7070313c-0.059082,0.2373047-0.0888672,0.4741211-0.0888672,0.7109375
		c0.0297852,2.3540039,2.2285156,3.5390625,6.5961914,3.5532227c2.043457,0,4.3085938-0.1699219,6.7963867-0.5107422
		l0.1777344,1.5546875c-2.5322266,0.340332-4.8569336,0.5107422-6.9741211,0.5107422
		c-4.4716797,0-7.1591797-1.1103516-8.0620117-3.3310547c-0.2075195-0.5332031-0.3110352-1.1030273-0.3110352-1.7104492
		c0.0297852-1.96875,1.3623047-3.7236328,3.9980469-5.2636719C178.2832031,24.3793945,177.7426758,21.8032227,177.3427734,19.375z"
		/>
	<path fill="#7E7E7F" d="M196.8422852,19.6855469c-0.7255859,2.769043-1.0883789,5.7158203-1.0883789,8.8393555
		c0,3.1538086,0.362793,6.1005859,1.0883789,8.8393555l-1.5991211,0.222168
		c-0.7402344-2.8276367-1.1103516-5.8481445-1.1103516-9.0615234c0-3.2421875,0.3701172-6.2626953,1.1103516-9.0610352
		L196.8422852,19.6855469z M212.5888672,24.3051758h-3.9311523v7.2626953
		c1.0957031,0.7548828,2.4130859,1.902832,3.9536133,3.4423828l-1.1328125,1.1103516
		c-1.065918-1.0805664-2.0063477-1.9541016-2.8208008-2.6206055c-0.1333008,2.6948242-1.5917969,4.0493164-4.375,4.0644531
		c-2.2954102,0-3.7832031-0.7407227-4.4643555-2.2211914c-0.222168-0.5029297-0.3330078-1.0732422-0.3330078-1.7099609
		c0-1.7026367,0.8583984-2.8129883,2.5761719-3.331543c0.6513672-0.1923828,1.3916016-0.2885742,2.2211914-0.2885742
		c0.9326172,0,1.8505859,0.199707,2.7539063,0.5996094v-6.3076172h-6.9736328v-1.487793h6.9736328v-3.6870117h1.6210938v3.6870117
		h3.9311523V24.3051758z M207.0366211,32.3452148c-0.9628906-0.5478516-1.902832-0.8217773-2.8208008-0.8217773
		c-2.0581055,0.0146484-3.0947266,0.7182617-3.109375,2.1098633c0,1.4511719,0.8291016,2.2578125,2.487793,2.4208984
		c0.2070313,0.0146484,0.4140625,0.0219727,0.621582,0.0219727c1.4511719,0,2.3320313-0.5253906,2.6430664-1.5766602
		c0.1181641-0.3847656,0.1777344-0.8442383,0.1777344-1.3769531V32.3452148z"/>
	<path fill="#7E7E7F" d="M221.2729492,36.6982422l-1.4438477,1.1328125
		c-1.5102539-1.8066406-2.9614258-3.3833008-4.3530273-4.730957l1.3549805-1.2211914
		C218.3413086,33.3745117,219.8217773,34.980957,221.2729492,36.6982422z"/>
	<path fill="#7E7E7F" d="M241.3500977,24.3496094l1.6435547-0.4663086c1.1547852,3.2280273,2.5986328,5.6933594,4.3310547,7.3959961
		c0.0444336,0.0444336,0.0888672,0.0883789,0.1333008,0.1328125c1.8208008-1.7763672,3.3237305-4.3603516,4.5083008-7.7509766
		c0.0888672-0.2514648,0.1699219-0.4956055,0.2441406-0.7329102H237.796875v-1.5546875h8.8168945v-3.2871094h1.7768555v3.2871094
		h8.8168945v1.5546875h-3.1313477c-1.2734375,3.9536133-2.8725586,6.9667969-4.7973633,9.0395508
		c-0.1777344,0.1923828-0.3549805,0.3774414-0.5327148,0.5551758c1.96875,1.4804688,4.7749023,2.7758789,8.4169922,3.8867188
		l-0.4882813,1.5102539c-3.9833984-1.1850586-7.0483398-2.6132813-9.1948242-4.2866211
		c-2.1323242,1.6733398-5.1826172,3.1015625-9.1503906,4.2866211l-0.4882813-1.5102539
		c3.6420898-1.1254883,6.4257813-2.4208984,8.3505859-3.8867188c-1.9545898-1.8950195-3.5537109-4.5751953-4.7973633-8.0400391
		C241.3798828,24.4384766,241.3647461,24.394043,241.3500977,24.3496094z"/>
	<path fill="#7E7E7F" d="M263.6708984,25.4160156v-1.4882813h12.1484375v1.4882813
		c-1.4067383,1.4511719-3.050293,2.7685547-4.9306641,3.953125v0.7773438h8.8837891v1.5322266h-8.8837891v4.1533203
		c0,1.0512695-0.1186523,1.7026367-0.3554688,1.9545898c-0.2661133,0.2807617-0.9404297,0.4291992-2.0209961,0.4438477
		c-0.1035156,0-0.199707,0-0.2885742,0c-0.5478516,0-1.7099609-0.0371094-3.4868164-0.1108398l-0.0444336-1.5327148
		c1.7026367,0.0742188,2.8203125,0.1113281,3.3535156,0.1113281c0.5625,0,0.8808594-0.0595703,0.9550781-0.1777344
		c0.0737305-0.1181641,0.1108398-0.4145508,0.1108398-0.8881836v-3.9536133h-9.4609375v-1.5322266h9.4609375v-2.0654297h0.8662109
		c1.2436523-0.8144531,2.4135742-1.7026367,3.5092773-2.6650391H263.6708984z M277.2182617,21.9287109h-15.0131836v3.6645508
		h-1.6660156v-5.1079102h8.2841797v-2.3989258h1.7768555v2.3989258h8.2841797v5.1079102h-1.6660156V21.9287109z"/>
	<path fill="#7E7E7F" d="M298.9838867,36.9648438c-1.762207,0.2958984-3.6201172,0.4438477-5.574707,0.4438477
		c-3.8945313,0-6.2929688-0.6958008-7.1958008-2.0874023c-0.3256836-0.5180664-0.4887695-1.1328125-0.4887695-1.8432617
		c0-2.3393555,2.2133789-4.1386719,6.640625-5.3969727l0.0224609-0.0224609h0.0219727
		c-0.3110352-1.0512695-0.8588867-1.6435547-1.6435547-1.7768555c-0.1630859-0.0292969-0.3408203-0.0444336-0.5327148-0.0444336
		c-1.4365234,0-3.0576172,1.0219727-4.8642578,3.0649414c-0.5180664,0.5776367-1.0292969,1.2216797-1.5322266,1.9326172
		l-1.3549805-0.8662109c1.8212891-2.5322266,3.3095703-5.0932617,4.4643555-7.6845703h-4.3310547v-1.4213867h4.9306641
		c0.340332-0.8442383,0.6733398-1.7470703,0.9995117-2.7094727l1.5991211,0.3774414
		c-0.2963867,0.7993164-0.5922852,1.5766602-0.8886719,2.3320313h9.6391602v1.4213867H288.65625
		c-0.4882813,1.1254883-1.0292969,2.2729492-1.6210938,3.4423828l0.0219727,0.0224609
		c1.3027344-0.8886719,2.4575195-1.3330078,3.4648438-1.3330078c1.5839844,0,2.6796875,0.7631836,3.2871094,2.2875977
		c0.0737305,0.1928711,0.140625,0.3779297,0.199707,0.5551758c1.5102539-0.340332,3.2055664-0.6289063,5.0859375-0.8657227
		l0.1557617,1.4433594c-2.0141602,0.2666016-3.6577148,0.5478516-4.9306641,0.8442383
		c0.1923828,1.125,0.2885742,2.5688477,0.2885742,4.3305664h-1.7099609c0-1.6137695-0.0668945-2.9165039-0.2001953-3.9086914
		c-3.4643555,1.0512695-5.2265625,2.3320313-5.2856445,3.8422852c0,0.9477539,0.4589844,1.6137695,1.3769531,1.9985352
		c0.9770508,0.4150391,2.5170898,0.6220703,4.6196289,0.6220703c1.6435547,0,3.449707-0.1625977,5.4189453-0.4887695
		L298.9838867,36.9648438z"/>
	<path fill="#7E7E7F" d="M302.581543,21.0405273h15.546875v14.9692383h-15.546875v-1.5546875h13.8369141V22.5952148H302.581543
		V21.0405273z"/>
	<path fill="#7E7E7F" d="M322.5698242,21.8398438l0.7998047-1.5102539c2.3686523,1.1850586,4.6342773,2.4433594,6.7958984,3.7758789
		l-0.8662109,1.5102539C327.2412109,24.3422852,324.9980469,23.0839844,322.5698242,21.8398438z M339.737793,22.7060547
		c-1.5249023,8.5288086-6.9956055,13.2075195-16.4125977,14.0366211l-0.2666016-1.6660156
		c7.1069336-0.6513672,11.7563477-3.6274414,13.9477539-8.9277344c0.4736328-1.1699219,0.84375-2.4355469,1.1103516-3.7978516
		L339.737793,22.7060547z"/>
	<path fill="#7E7E7F" d="M358.5717773,17.6425781c1.2436523,0,2.2578125,0.480957,3.0424805,1.4433594
		c0.5625,0.7255859,0.8442383,1.5400391,0.8442383,2.4433594c0,1.2436523-0.4814453,2.2578125-1.4438477,3.0424805
		c-0.7104492,0.5776367-1.5249023,0.8662109-2.4428711,0.8662109h-0.1113281
		c-4.1162109,1.3920898-8.3730469,2.4506836-12.7705078,3.1757813v3.1982422c0,1.5102539,0.2446289,2.4951172,0.7329102,2.9541016
		c0.4887695,0.4589844,1.4584961,0.6884766,2.909668,0.6884766c3.4648438,0,6.7661133-0.1113281,9.9052734-0.3334961
		l0.0668945,1.5771484c-3.5239258,0.222168-6.8852539,0.3330078-10.0830078,0.3330078
		c-2.043457,0-3.4355469-0.362793-4.1757813-1.0883789c-0.7255859-0.7548828-1.0878906-2.1391602-1.0878906-4.152832V20.1523438
		h1.7319336v6.8178711c3.612793-0.5917969,7.0703125-1.40625,10.3720703-2.4428711
		c-0.918457-0.7993164-1.3847656-1.7988281-1.3994141-2.9980469c0-1.2441406,0.480957-2.2504883,1.4438477-3.0205078
		C356.831543,17.9311523,357.6533203,17.6425781,358.5717773,17.6425781z M358.5717773,24.171875
		c0.9326172,0,1.6577148-0.3847656,2.1762695-1.1547852c0.2963867-0.4584961,0.4443359-0.9550781,0.4443359-1.487793
		c0-0.9477539-0.3852539-1.6733398-1.1547852-2.1767578c-0.4443359-0.2958984-0.9331055-0.4443359-1.4658203-0.4443359
		c-0.9331055,0-1.6586914,0.3779297-2.1767578,1.1328125c-0.3110352,0.4589844-0.4663086,0.9550781-0.4663086,1.4882813
		c0,0.9326172,0.3847656,1.6582031,1.1547852,2.1762695C357.5424805,24.0166016,358.0385742,24.171875,358.5717773,24.171875z"/>
	<path fill="#7E7E7F" d="M365.855957,24.2387695h10.2167969l-0.8217773,10.6606445h3.5976563v1.4658203h-14.8803711v-1.4658203
		h9.5058594l0.7329102-9.1948242h-8.3510742V24.2387695z"/>
	<path fill="#7E7E7F" d="M383.4458008,29.1689453l-2.3764648-1.265625l0.644043-1.3769531l1.6879883,0.8881836
		c0.0146484,0,0.2446289,0.081543,0.6884766,0.2441406l0.5996094,0.0224609h14.6362305v1.6879883h-14.9248047
		c-0.1479492,0-0.3110352-0.0146484-0.4887695-0.0444336L383.4458008,29.1689453z"/>
	<path fill="#7E7E7F" d="M403.8339844,37.3422852l-0.2441406-1.5546875
		c4.6196289-0.4291992,7.9287109-1.6582031,9.9277344-3.6870117c0.4140625-0.4140625,0.784668-0.8657227,1.1103516-1.3544922
		c-2.4731445-1.2734375-4.9453125-2.4501953-7.4179688-3.53125l0.7773438-1.4882813
		c2.4282227,1.0517578,4.9155273,2.2285156,7.4624023,3.53125c0.7548828-1.7319336,1.1694336-3.9008789,1.2436523-6.5073242
		h-9.0834961c-0.8588867,2.6655273-2.3100586,4.9604492-4.3530273,6.8852539l-1.1552734-1.0664063
		c2.2358398-2.1020508,3.6943359-4.7597656,4.3754883-7.9731445c0.1035156-0.5180664,0.1850586-1.0361328,0.2441406-1.5546875
		l1.621582,0.0888672c-0.0444336,0.5185547-0.1557617,1.2070313-0.3334961,2.0654297h10.4829102v0.6665039
		c0,5.4785156-1.4287109,9.4467773-4.2861328,11.9042969C411.8662109,35.7509766,408.4091797,36.9423828,403.8339844,37.3422852z"/>
	<path fill="#7E7E7F" d="M438.3242188,36.9648438c-1.7617188,0.2958984-3.6191406,0.4438477-5.5742188,0.4438477
		c-3.8945313,0-6.2929688-0.6958008-7.1953125-2.0874023c-0.3261719-0.5180664-0.4882813-1.1328125-0.4882813-1.8432617
		c0-2.3393555,2.2128906-4.1386719,6.640625-5.3969727l0.0214844-0.0224609h0.0234375
		c-0.3125-1.0512695-0.859375-1.6435547-1.6445313-1.7768555c-0.1621094-0.0292969-0.3398438-0.0444336-0.5332031-0.0444336
		c-1.4355469,0-3.0566406,1.0219727-4.8632813,3.0649414c-0.5195313,0.5776367-1.0292969,1.2216797-1.5332031,1.9326172
		l-1.3544922-0.8662109c1.8212891-2.5322266,3.3095703-5.0932617,4.4638672-7.6845703h-4.3305664v-1.4213867h4.9301758
		c0.3417969-0.8442383,0.6738281-1.7470703,1-2.7094727l1.5996094,0.3774414
		c-0.296875,0.7993164-0.59375,1.5766602-0.8886719,2.3320313h9.6386719v1.4213867h-10.2382813
		c-0.4882813,1.1254883-1.0292969,2.2729492-1.6210938,3.4423828l0.0214844,0.0224609
		c1.3027344-0.8886719,2.4570313-1.3330078,3.4648438-1.3330078c1.5839844,0,2.6796875,0.7631836,3.2871094,2.2875977
		c0.0742188,0.1928711,0.140625,0.3779297,0.1992188,0.5551758c1.5117188-0.340332,3.2050781-0.6289063,5.0859375-0.8657227
		l0.15625,1.4433594c-2.0136719,0.2666016-3.6582031,0.5478516-4.9316406,0.8442383
		c0.1933594,1.125,0.2890625,2.5688477,0.2890625,4.3305664h-1.7089844c0-1.6137695-0.0664063-2.9165039-0.2011719-3.9086914
		c-3.4648438,1.0512695-5.2265625,2.3320313-5.2851563,3.8422852c0,0.9477539,0.4589844,1.6137695,1.3769531,1.9985352
		c0.9765625,0.4150391,2.5175781,0.6220703,4.6191406,0.6220703c1.6445313,0,3.4511719-0.1625977,5.4199219-0.4887695
		L438.3242188,36.9648438z"/>
	<path fill="#7E7E7F" d="M444.9873047,24.2832031v14.1694336h-1.6660156V27.5922852
		c-0.6064453,1.1547852-1.2578125,2.1694336-1.9541016,3.0424805l-0.7548828-1.8652344
		c2.0722656-2.8725586,3.5087891-6.2856445,4.3085938-10.2387695l1.6210938,0.3110352
		C446.1865234,20.7666016,445.6679688,22.5805664,444.9873047,24.2832031z M461.4667969,20.2631836v1.487793h-6.5957031v1.5546875
		h5.9296875v8.3286133h-1.6660156v-1.3989258h-4.5087891c-0.2519531,1.6435547-0.6953125,2.96875-1.3320313,3.9755859
		c2.1767578,1.4067383,4.9306641,2.1914063,8.2617188,2.3540039l-0.2001953,1.5102539
		c-3.4941406-0.1484375-6.5068359-1.0366211-9.0390625-2.6650391c-1.2285156,1.2138672-3.1533203,2.1020508-5.7744141,2.6650391
		l-0.5107422-1.4882813c2.2949219-0.5625,3.9306641-1.2954102,4.9082031-2.1987305
		c-0.9628906-0.8139648-1.8066406-1.7763672-2.5322266-2.887207l1.3779297-0.84375
		c0.6210938,0.9477539,1.3320313,1.7768555,2.1318359,2.4873047c0.4287109-0.7250977,0.7470703-1.6953125,0.9550781-2.9091797
		h-4.0205078h-1.6435547v-6.9296875h5.9306641v-1.5546875h-6.2851563v-1.487793h6.2851563v-1.8876953h1.7324219v1.8876953
		H461.4667969z M448.8515625,28.8583984h4.1982422c0.0585938-0.6958008,0.0888672-1.5693359,0.0888672-2.6210938v-1.5546875
		h-4.2871094V28.8583984z M459.1347656,28.8583984v-4.1757813h-4.2636719v1.5546875
		c0,1.0366211-0.0302734,1.9101563-0.0888672,2.6210938H459.1347656z"/>
	<path fill="#7E7E7F" d="M463.5771484,25.8154297c3.5234375-0.902832,6.1748047-1.3544922,7.9511719-1.3544922
		c4.4716797,0.0297852,6.7148438,1.9023438,6.7294922,5.6186523c0,3.8203125-2.7021484,6.0410156-8.1064453,6.6630859
		c-1.0214844,0.1181641-2.1171875,0.1777344-3.2871094,0.1777344l-0.0888672-1.5327148
		c6.0263672,0,9.2617188-1.4580078,9.7060547-4.375c0.0439453-0.2519531,0.0664063-0.5107422,0.0664063-0.7773438
		c0-2.2949219-1.1181641-3.6425781-3.3535156-4.0424805c-0.5332031-0.1030273-1.1328125-0.1552734-1.7998047-0.1552734
		c-1.5839844,0-4.0712891,0.4370117-7.4619141,1.3105469L463.5771484,25.8154297z"/>
	<path fill="#7E7E7F" d="M481.0341797,21.1069336c5.8779297,0,11.8671875-0.1474609,17.9667969-0.4438477l0.0888672,1.5546875
		c-4.6933594,0.4145508-8.0097656,1.6953125-9.9492188,3.8422852c-1.0810547,1.1992188-1.6220703,2.5615234-1.6220703,4.0864258
		c0,2.0288086,0.7919922,3.5390625,2.3769531,4.5307617c1.0810547,0.6660156,2.3837891,0.9995117,3.9091797,0.9995117
		c0.8876953,0,1.8134766-0.081543,2.7753906-0.2446289l0.2001953,1.5771484
		c-0.9326172,0.1625977-1.9472656,0.2441406-3.0429688,0.2441406c-2.8720703,0-5.0341797-0.8291016-6.484375-2.4873047
		c-1.0371094-1.2138672-1.5546875-2.7021484-1.5546875-4.4643555c0-2.4282227,1.1103516-4.4711914,3.3310547-6.1298828
		c0.9326172-0.6806641,2.0214844-1.2583008,3.2646484-1.7319336v-0.0444336
		c-4.4267578,0.1772461-8.1806641,0.2661133-11.2597656,0.2661133V21.1069336z"/>
</g>
<g>
	<path fill="#7E7E7F" d="M100.6982422,73.1147461h16.5014648v0.3554688c0,6.0708008-1.8066406,10.3642578-5.4189453,12.8813477
		c-2.1914063,1.5253906-5.1157227,2.4873047-8.7729492,2.887207l-0.2885742-1.5766602
		c4.9453125-0.5478516,8.4023438-2.1987305,10.3720703-4.9526367c1.3916016-1.984375,2.1616211-4.6420898,2.3095703-7.9736328
		h-14.7026367V73.1147461z"/>
	<path fill="#7E7E7F" d="M124.0405273,77.5566406h9.0170898v-2.7983398h1.5766602v2.7983398h3.9311523v1.4213867h-3.9311523
		v7.8623047c0,1.065918-0.1552734,1.7397461-0.4663086,2.0209961c-0.2963867,0.2514648-0.9477539,0.3774414-1.9545898,0.3774414
		c-0.9326172,0-1.9321289-0.059082-2.9980469-0.1777344l0.1108398-1.4433594
		c1.1694336,0.1186523,2.0878906,0.1777344,2.7539063,0.1777344c0.503418,0,0.7998047-0.0888672,0.8886719-0.2666016
		c0.059082-0.1479492,0.0888672-0.3847656,0.0888672-0.7109375v-6.1518555
		c-2.5620117,2.6206055-5.315918,4.7749023-8.262207,6.4628906L124.0625,85.8408203
		c3.0649414-1.7324219,5.8930664-3.9755859,8.484375-6.7294922c0.0444336-0.059082,0.0810547-0.1035156,0.1108398-0.1333008
		h-8.6171875V77.5566406z"/>
	<path fill="#7E7E7F" d="M145.4946289,74.0473633l0.7998047-1.5102539c2.3686523,1.1850586,4.6337891,2.4433594,6.7958984,3.7758789
		l-0.8662109,1.5102539C150.1660156,76.5498047,147.9228516,75.2915039,145.4946289,74.0473633z M162.6625977,74.9135742
		c-1.5249023,8.5288086-6.9960938,13.2075195-16.4125977,14.0366211l-0.2666016-1.6660156
		c7.1069336-0.6513672,11.7558594-3.6274414,13.9477539-8.9277344c0.4736328-1.1699219,0.84375-2.4355469,1.1103516-3.7978516
		L162.6625977,74.9135742z"/>
	<path fill="#7E7E7F" d="M171.8354492,71.6933594v6.4853516c4.0864258,0.9770508,8.2246094,2.2504883,12.4150391,3.8198242
		l-0.5332031,1.6210938c-4.2050781-1.5688477-8.1660156-2.8056641-11.8818359-3.7089844v9.8613281h-1.7768555V71.6933594
		H171.8354492z"/>
	<path fill="#7E7E7F" d="M192.3569336,71.5825195l1.7319336-0.2666016c0.4145508,2.4726563,0.9179688,4.8637695,1.5102539,7.1733398
		c2.3544922-1.0805664,5.4267578-2.0576172,9.2172852-2.9316406l0.3330078,1.5327148
		c-8.1586914,1.8657227-12.5927734,4.1015625-13.3037109,6.7070313c-0.059082,0.2373047-0.0883789,0.4741211-0.0883789,0.7109375
		c0.0292969,2.3540039,2.2280273,3.5390625,6.5961914,3.5532227c2.0429688,0,4.3085938-0.1699219,6.7958984-0.5107422
		l0.1777344,1.5546875c-2.5317383,0.340332-4.8564453,0.5107422-6.9736328,0.5107422
		c-4.472168,0-7.1591797-1.1103516-8.0620117-3.3310547c-0.2075195-0.5332031-0.3110352-1.1030273-0.3110352-1.7104492
		c0.0292969-1.96875,1.3618164-3.7236328,3.9975586-5.2636719C193.296875,76.5869141,192.7563477,74.0107422,192.3569336,71.5825195
		z"/>
	<path fill="#7E7E7F" d="M213.722168,71.8930664c-0.7255859,2.769043-1.0883789,5.7158203-1.0883789,8.8393555
		c0,3.1538086,0.362793,6.1005859,1.0883789,8.8393555l-1.5991211,0.222168
		c-0.7402344-2.8276367-1.1103516-5.8481445-1.1103516-9.0615234c0-3.2421875,0.3701172-6.2626953,1.1103516-9.0610352
		L213.722168,71.8930664z M229.46875,76.5126953h-3.9311523v7.2626953c1.0957031,0.7548828,2.4130859,1.902832,3.9536133,3.4423828
		l-1.1328125,1.1103516c-1.065918-1.0805664-2.0063477-1.9541016-2.8208008-2.6206055
		c-0.1333008,2.6948242-1.5917969,4.0493164-4.375,4.0644531c-2.2954102,0-3.7832031-0.7407227-4.4643555-2.2211914
		c-0.222168-0.5029297-0.3330078-1.0732422-0.3330078-1.7099609c0-1.7026367,0.8583984-2.8129883,2.5761719-3.331543
		c0.6513672-0.1923828,1.3916016-0.2885742,2.2211914-0.2885742c0.9326172,0,1.8505859,0.199707,2.7539063,0.5996094v-6.3076172
		h-6.9736328v-1.487793h6.9736328v-3.6870117h1.6210938v3.6870117h3.9311523V76.5126953z M223.9165039,84.5527344
		c-0.9628906-0.5478516-1.902832-0.8217773-2.8208008-0.8217773c-2.0581055,0.0146484-3.0947266,0.7182617-3.109375,2.1098633
		c0,1.4511719,0.8291016,2.2578125,2.487793,2.4208984c0.2070313,0.0146484,0.4140625,0.0219727,0.621582,0.0219727
		c1.4511719,0,2.3320313-0.5253906,2.6430664-1.5766602c0.1181641-0.3847656,0.1777344-0.8442383,0.1777344-1.3769531V84.5527344z"
		/>
	<path fill="#7E7E7F" d="M238.152832,88.9057617l-1.4438477,1.1328125c-1.5102539-1.8066406-2.9614258-3.3833008-4.3530273-4.730957
		l1.3549805-1.2211914C235.2211914,85.5820313,236.7016602,87.1884766,238.152832,88.9057617z"/>
	<path fill="#7E7E7F" d="M258.2299805,76.5571289l1.6435547-0.4663086c1.1547852,3.2280273,2.5986328,5.6933594,4.3310547,7.3959961
		c0.0444336,0.0444336,0.0888672,0.0883789,0.1333008,0.1328125c1.8208008-1.7763672,3.3237305-4.3603516,4.5083008-7.7509766
		c0.0888672-0.2514648,0.1699219-0.4956055,0.2441406-0.7329102h-14.4135742v-1.5546875h8.8168945v-3.2871094h1.7768555v3.2871094
		h8.8168945v1.5546875h-3.1313477c-1.2734375,3.9536133-2.8725586,6.9667969-4.7973633,9.0395508
		c-0.1777344,0.1923828-0.3549805,0.3774414-0.5327148,0.5551758c1.96875,1.4804688,4.7749023,2.7758789,8.4169922,3.8867188
		l-0.4882813,1.5102539c-3.9833984-1.1850586-7.0483398-2.6132813-9.1948242-4.2866211
		c-2.1323242,1.6733398-5.1826172,3.1015625-9.1503906,4.2866211l-0.4882813-1.5102539
		c3.6420898-1.1254883,6.4257813-2.4208984,8.3505859-3.8867188c-1.9545898-1.8950195-3.5537109-4.5751953-4.7973633-8.0400391
		C258.2597656,76.6459961,258.2446289,76.6015625,258.2299805,76.5571289z"/>
	<path fill="#7E7E7F" d="M280.5507813,77.6235352v-1.4882813h12.1484375v1.4882813
		c-1.4067383,1.4511719-3.050293,2.7685547-4.9306641,3.953125v0.7773438h8.8837891v1.5322266h-8.8837891v4.1533203
		c0,1.0512695-0.1186523,1.7026367-0.3554688,1.9545898c-0.2661133,0.2807617-0.9404297,0.4291992-2.0209961,0.4438477
		c-0.1035156,0-0.199707,0-0.2885742,0c-0.5478516,0-1.7099609-0.0371094-3.4868164-0.1108398l-0.0444336-1.5327148
		c1.7026367,0.0742188,2.8203125,0.1113281,3.3535156,0.1113281c0.5625,0,0.8808594-0.0595703,0.9550781-0.1777344
		c0.0737305-0.1181641,0.1108398-0.4145508,0.1108398-0.8881836v-3.9536133h-9.4609375v-1.5322266h9.4609375v-2.0654297h0.8662109
		c1.2436523-0.8144531,2.4135742-1.7026367,3.5092773-2.6650391H280.5507813z M294.0981445,74.1362305h-15.0131836v3.6645508
		h-1.6660156v-5.1079102h8.2841797v-2.3989258h1.7768555v2.3989258h8.2841797v5.1079102h-1.6660156V74.1362305z"/>
	<path fill="#7E7E7F" d="M316.21875,89.1723633c-1.7617188,0.2958984-3.6201172,0.4438477-5.5742188,0.4438477
		c-3.8945313,0-6.2929688-0.6958008-7.1958008-2.0874023c-0.3261719-0.5180664-0.4887695-1.1328125-0.4887695-1.8432617
		c0-2.3393555,2.2133789-4.1386719,6.640625-5.3969727l0.0219727-0.0224609h0.0224609
		c-0.3110352-1.0512695-0.8588867-1.6435547-1.6435547-1.7768555c-0.1630859-0.0292969-0.3408203-0.0444336-0.5332031-0.0444336
		c-1.4360352,0-3.0576172,1.0219727-4.8637695,3.0649414c-0.5185547,0.5776367-1.0292969,1.2216797-1.5322266,1.9326172
		l-1.3549805-0.8662109c1.8212891-2.5322266,3.309082-5.0932617,4.4643555-7.6845703h-4.3310547v-1.4213867h4.9306641
		c0.340332-0.8442383,0.6733398-1.7470703,0.9995117-2.7094727l1.5986328,0.3774414
		c-0.2958984,0.7993164-0.5922852,1.5766602-0.8881836,2.3320313h9.6391602v1.4213867h-10.2387695
		c-0.4887695,1.1254883-1.0292969,2.2729492-1.6210938,3.4423828l0.0219727,0.0224609
		c1.3027344-0.8886719,2.4575195-1.3330078,3.4648438-1.3330078c1.5839844,0,2.6796875,0.7631836,3.2866211,2.2875977
		c0.0742188,0.1928711,0.140625,0.3779297,0.2001953,0.5551758c1.5102539-0.340332,3.2055664-0.6289063,5.0859375-0.8657227
		l0.1552734,1.4433594c-2.0136719,0.2666016-3.6572266,0.5478516-4.9301758,0.8442383
		c0.1918945,1.125,0.2885742,2.5688477,0.2885742,4.3305664h-1.7099609c0-1.6137695-0.0668945-2.9165039-0.2001953-3.9086914
		c-3.4643555,1.0512695-5.2265625,2.3320313-5.2856445,3.8422852c0,0.9477539,0.4584961,1.6137695,1.3769531,1.9985352
		c0.9770508,0.4150391,2.5170898,0.6220703,4.6196289,0.6220703c1.6435547,0,3.449707-0.1625977,5.4189453-0.4887695
		L316.21875,89.1723633z"/>
	<path fill="#7E7E7F" d="M323.1704102,73.2480469h15.546875v14.9692383h-15.546875v-1.5546875h13.8364258V74.8027344h-13.8364258
		V73.2480469z"/>
	<path fill="#7E7E7F" d="M345.3798828,74.0473633l0.7998047-1.5102539c2.3686523,1.1850586,4.6337891,2.4433594,6.7958984,3.7758789
		l-0.8662109,1.5102539C350.0512695,76.5498047,347.8081055,75.2915039,345.3798828,74.0473633z M362.5478516,74.9135742
		c-1.5249023,8.5288086-6.9960938,13.2075195-16.4125977,14.0366211l-0.2666016-1.6660156
		c7.1069336-0.6513672,11.7558594-3.6274414,13.9477539-8.9277344c0.4736328-1.1699219,0.84375-2.4355469,1.1103516-3.7978516
		L362.5478516,74.9135742z"/>
	<path fill="#7E7E7F" d="M382.2475586,69.8500977c1.2441406,0,2.2578125,0.480957,3.0429688,1.4433594
		c0.5625,0.7255859,0.84375,1.5400391,0.84375,2.4433594c0,1.2436523-0.480957,2.2578125-1.4433594,3.0424805
		c-0.7109375,0.5776367-1.5253906,0.8662109-2.4433594,0.8662109h-0.1108398
		c-4.1162109,1.3920898-8.3730469,2.4506836-12.7705078,3.1757813v3.1982422c0,1.5102539,0.2441406,2.4951172,0.7329102,2.9541016
		s1.4580078,0.6884766,2.909668,0.6884766c3.4643555,0,6.7661133-0.1113281,9.9052734-0.3334961l0.0664063,1.5771484
		c-3.5239258,0.222168-6.8847656,0.3330078-10.0830078,0.3330078c-2.0429688,0-3.4350586-0.362793-4.175293-1.0883789
		c-0.7255859-0.7548828-1.0883789-2.1391602-1.0883789-4.152832V72.3598633h1.7324219v6.8178711
		c3.612793-0.5917969,7.0698242-1.40625,10.3720703-2.4428711c-0.918457-0.7993164-1.3847656-1.7988281-1.3994141-2.9980469
		c0-1.2441406,0.480957-2.2504883,1.4438477-3.0205078C380.5078125,70.1386719,381.3295898,69.8500977,382.2475586,69.8500977z
		 M382.2475586,76.3793945c0.9331055,0,1.6582031-0.3847656,2.1767578-1.1547852
		c0.2958984-0.4584961,0.4443359-0.9550781,0.4443359-1.487793c0-0.9477539-0.3852539-1.6733398-1.1552734-2.1767578
		c-0.4438477-0.2958984-0.9326172-0.4443359-1.4658203-0.4443359c-0.9326172,0-1.6582031,0.3779297-2.1762695,1.1328125
		c-0.3110352,0.4589844-0.4663086,0.9550781-0.4663086,1.4882813c0,0.9326172,0.3847656,1.6582031,1.1547852,2.1762695
		C381.2182617,76.2241211,381.7148438,76.3793945,382.2475586,76.3793945z"/>
	<path fill="#7E7E7F" d="M392.0864258,76.4462891h10.2163086l-0.8217773,10.6606445h3.5981445v1.4658203h-14.8803711v-1.4658203
		h9.5058594l0.7329102-9.1948242h-8.3510742V76.4462891z"/>
	<path fill="#7E7E7F" d="M413.0078125,81.3764648l-2.3764648-1.265625l0.644043-1.3769531l1.6879883,0.8881836
		c0.0146484,0,0.2441406,0.081543,0.6884766,0.2441406l0.5996094,0.0224609h14.6352539v1.6879883h-14.9238281
		c-0.1479492,0-0.3110352-0.0146484-0.4887695-0.0444336L413.0078125,81.3764648z"/>
	<path fill="#7E7E7F" d="M435.1064453,89.5498047l-0.2441406-1.5546875
		c4.6191406-0.4291992,7.9287109-1.6582031,9.9277344-3.6870117c0.4140625-0.4140625,0.7841797-0.8657227,1.1103516-1.3544922
		c-2.4736328-1.2734375-4.9453125-2.4501953-7.4179688-3.53125l0.7773438-1.4882813
		c2.4277344,1.0517578,4.9150391,2.2285156,7.4619141,3.53125c0.7548828-1.7319336,1.1699219-3.9008789,1.2441406-6.5073242
		h-9.0839844c-0.8583984,2.6655273-2.3095703,4.9604492-4.3525391,6.8852539l-1.1552734-1.0664063
		c2.2353516-2.1020508,3.6943359-4.7597656,4.375-7.9731445c0.1035156-0.5180664,0.1855469-1.0361328,0.2441406-1.5546875
		l1.6220703,0.0888672c-0.0449219,0.5185547-0.15625,1.2070313-0.3339844,2.0654297h10.4833984v0.6665039
		c0,5.4785156-1.4287109,9.4467773-4.2861328,11.9042969C443.1386719,87.9584961,439.6816406,89.1499023,435.1064453,89.5498047z"/>
	<path fill="#7E7E7F" d="M471.6845703,89.1723633c-1.7617188,0.2958984-3.6201172,0.4438477-5.5742188,0.4438477
		c-3.8945313,0-6.2929688-0.6958008-7.1962891-2.0874023c-0.3251953-0.5180664-0.4882813-1.1328125-0.4882813-1.8432617
		c0-2.3393555,2.2128906-4.1386719,6.640625-5.3969727l0.0224609-0.0224609h0.0214844
		c-0.3105469-1.0512695-0.8583984-1.6435547-1.6425781-1.7768555c-0.1630859-0.0292969-0.3408203-0.0444336-0.5332031-0.0444336
		c-1.4365234,0-3.0576172,1.0219727-4.8642578,3.0649414c-0.5185547,0.5776367-1.0292969,1.2216797-1.5322266,1.9326172
		l-1.3544922-0.8662109c1.8203125-2.5322266,3.3085938-5.0932617,4.4638672-7.6845703h-4.3310547v-1.4213867h4.9306641
		c0.3398438-0.8442383,0.6738281-1.7470703,0.9990234-2.7094727l1.5996094,0.3774414
		c-0.296875,0.7993164-0.5927734,1.5766602-0.8886719,2.3320313h9.6386719v1.4213867h-10.2382813
		c-0.4882813,1.1254883-1.0292969,2.2729492-1.6210938,3.4423828l0.0224609,0.0224609
		c1.3027344-0.8886719,2.4570313-1.3330078,3.4638672-1.3330078c1.5849609,0,2.6796875,0.7631836,3.2871094,2.2875977
		c0.0742188,0.1928711,0.140625,0.3779297,0.2001953,0.5551758c1.5097656-0.340332,3.2050781-0.6289063,5.0859375-0.8657227
		l0.1552734,1.4433594c-2.0136719,0.2666016-3.6572266,0.5478516-4.9306641,0.8442383
		c0.1923828,1.125,0.2890625,2.5688477,0.2890625,4.3305664h-1.7099609c0-1.6137695-0.0664063-2.9165039-0.2001953-3.9086914
		c-3.4648438,1.0512695-5.2265625,2.3320313-5.2861328,3.8422852c0,0.9477539,0.4589844,1.6137695,1.3769531,1.9985352
		c0.9775391,0.4150391,2.5175781,0.6220703,4.6201172,0.6220703c1.6435547,0,3.4492188-0.1625977,5.4189453-0.4887695
		L471.6845703,89.1723633z"/>
	<path fill="#7E7E7F" d="M480.1015625,76.4907227v14.1694336h-1.6660156V79.7998047
		c-0.6064453,1.1547852-1.2578125,2.1694336-1.9541016,3.0424805l-0.7548828-1.8652344
		c2.0722656-2.8725586,3.5087891-6.2856445,4.3085938-10.2387695l1.6210938,0.3110352
		C481.3007813,72.9741211,480.7822266,74.7880859,480.1015625,76.4907227z M496.5810547,72.4707031v1.487793h-6.5957031v1.5546875
		h5.9296875v8.3286133h-1.6660156v-1.3989258h-4.5087891c-0.2519531,1.6435547-0.6953125,2.96875-1.3320313,3.9755859
		c2.1767578,1.4067383,4.9306641,2.1914063,8.2617188,2.3540039l-0.2001953,1.5102539
		c-3.4941406-0.1484375-6.5068359-1.0366211-9.0390625-2.6650391c-1.2285156,1.2138672-3.1533203,2.1020508-5.7744141,2.6650391
		l-0.5107422-1.4882813c2.2949219-0.5625,3.9306641-1.2954102,4.9082031-2.1987305
		c-0.9628906-0.8139648-1.8066406-1.7763672-2.5322266-2.887207l1.3779297-0.84375
		c0.6210938,0.9477539,1.3320313,1.7768555,2.1318359,2.4873047c0.4287109-0.7250977,0.7470703-1.6953125,0.9550781-2.9091797
		h-4.0205078h-1.6435547v-6.9296875h5.9306641v-1.5546875h-6.2851563v-1.487793h6.2851563v-1.8876953h1.7324219v1.8876953
		H496.5810547z M483.9658203,81.065918h4.1982422c0.0585938-0.6958008,0.0888672-1.5693359,0.0888672-2.6210938v-1.5546875
		h-4.2871094V81.065918z M494.2490234,81.065918v-4.1757813h-4.2636719v1.5546875
		c0,1.0366211-0.0302734,1.9101563-0.0888672,2.6210938H494.2490234z"/>
	<path fill="#7E7E7F" d="M501.3330078,78.0229492c3.5244141-0.902832,6.1748047-1.3544922,7.9511719-1.3544922
		c4.4716797,0.0297852,6.7148438,1.9023438,6.7294922,5.6186523c0,3.8203125-2.7021484,6.0410156-8.1064453,6.6630859
		c-1.0214844,0.1181641-2.1171875,0.1777344-3.2871094,0.1777344l-0.0888672-1.5327148
		c6.0263672,0,9.2617188-1.4580078,9.7060547-4.375c0.0439453-0.2519531,0.0664063-0.5107422,0.0664063-0.7773438
		c0-2.2949219-1.1181641-3.6425781-3.3535156-4.0424805c-0.5332031-0.1030273-1.1328125-0.1552734-1.7988281-0.1552734
		c-1.5849609,0-4.0722656,0.4370117-7.4628906,1.3105469L501.3330078,78.0229492z"/>
	<path fill="#7E7E7F" d="M521.8994141,73.3144531c5.8769531,0,11.8662109-0.1474609,17.9667969-0.4438477l0.0888672,1.5546875
		c-4.6933594,0.4145508-8.0097656,1.6953125-9.9492188,3.8422852c-1.0810547,1.1992188-1.6220703,2.5615234-1.6220703,4.0864258
		c0,2.0288086,0.7919922,3.5390625,2.3769531,4.5307617c1.0800781,0.6660156,2.3837891,0.9995117,3.9082031,0.9995117
		c0.8886719,0,1.8144531-0.081543,2.7763672-0.2446289l0.2001953,1.5771484
		c-0.9326172,0.1625977-1.9472656,0.2441406-3.0429688,0.2441406c-2.8720703,0-5.0341797-0.8291016-6.4853516-2.4873047
		c-1.0361328-1.2138672-1.5546875-2.7021484-1.5546875-4.4643555c0-2.4282227,1.1113281-4.4711914,3.3320313-6.1298828
		c0.9326172-0.6806641,2.0205078-1.2583008,3.2646484-1.7319336v-0.0444336
		c-4.4277344,0.1772461-8.1806641,0.2661133-11.2597656,0.2661133V73.3144531z"/>
</g>
<g>
	<path fill="#70A0BB" d="M26.8808594,26.3334961v-7.565918h0.8398438l2.6943359,4.5600586h0.0209961l2.684082-4.5600586h0.8710938
		v7.565918h-0.8295898V20.15625h-0.0205078l-2.3320313,3.9282227h-0.7773438L27.699707,20.15625h-0.0205078v6.1772461H26.8808594z"
		/>
	<path fill="#70A0BB" d="M36.0634766,19.7001953v-1.1401367h0.8085938v1.1401367H36.0634766z M36.0634766,26.3334961v-5.3896484
		h0.8085938v5.3896484H36.0634766z"/>
	<path fill="#70A0BB" d="M38.5302734,23.5351563c0-0.8569336,0.1899414-1.5200195,0.5703125-1.9902344
		c0.3798828-0.4697266,0.9047852-0.7045898,1.5751953-0.7045898c0.8085938,0,1.40625,0.3354492,1.7929688,1.0053711h0.0209961
		l0.0205078-0.9018555h0.7255859v4.9438477c0,1.8862305-0.8432617,2.8295898-2.5288086,2.8295898
		c-0.5805664,0-1.1367188-0.1103516-1.6689453-0.331543l0.1660156-0.6118164
		c0.4902344,0.2143555,0.9912109,0.3212891,1.5029297,0.3212891c0.6079102,0,1.0537109-0.1689453,1.3369141-0.5078125
		c0.2832031-0.3383789,0.4248047-0.8945313,0.4248047-1.668457v-0.6635742h-0.0205078
		c-0.3730469,0.6499023-0.9638672,0.9746094-1.7724609,0.9746094c-0.6289063,0-1.1435547-0.2416992-1.5444336-0.7255859
		C38.7304688,25.0209961,38.5302734,24.3642578,38.5302734,23.5351563z M39.2763672,23.5351563
		c0,0.6357422,0.1455078,1.1401367,0.4355469,1.5131836s0.6699219,0.5595703,1.1401367,0.5595703
		c0.4765625,0,0.8671875-0.1796875,1.1708984-0.5390625c0.3041992-0.3588867,0.4526367-0.8530273,0.4458008-1.4819336v-0.1035156
		c0-0.6289063-0.1518555-1.1230469-0.4560547-1.4824219c-0.3041992-0.3588867-0.690918-0.5385742-1.1606445-0.5385742
		c-0.4907227,0-0.8740234,0.1796875-1.1503906,0.5385742C39.425293,22.3603516,39.2832031,22.871582,39.2763672,23.5351563z"/>
	<path fill="#70A0BB" d="M45.4848633,20.9438477v3.3476563c0,0.5532227,0.0917969,0.9399414,0.2749023,1.1611328
		c0.1826172,0.2211914,0.4887695,0.331543,0.9169922,0.331543c0.4008789,0,0.7651367-0.1933594,1.09375-0.5805664
		c0.3276367-0.3867188,0.4921875-0.8461914,0.4921875-1.378418v-2.8813477h0.7670898v5.3896484h-0.7255859l-0.0209961-0.9638672
		h-0.0205078c-0.2075195,0.331543-0.4716797,0.5927734-0.7929688,0.7827148s-0.6650391,0.284668-1.03125,0.284668
		c-0.5805664,0-1.0087891-0.1640625-1.2851563-0.4921875s-0.4145508-0.8549805-0.4145508-1.5805664v-3.4204102H45.4848633z"/>
	<path fill="#70A0BB" d="M56.0458984,26.3334961v-6.5708008h-0.0209961l-2.0415039,1.8862305l-0.3212891-0.6738281
		l2.3837891-2.2075195H56.875v7.565918H56.0458984z"/>
	<path fill="#70A0BB" d="M63.4873047,19.3583984c-0.9121094-0.0068359-1.6376953,0.2797852-2.1767578,0.8598633
		c-0.5390625,0.5805664-0.8120117,1.3579102-0.8188477,2.3320313c0.0068359,0.9746094,0.2866211,1.7519531,0.8398438,2.3320313
		c0.5527344,0.5805664,1.2709961,0.8671875,2.1557617,0.8603516c0.7182617,0,1.3852539-0.1967773,2-0.5908203l0.2802734,0.6220703
		c-0.6772461,0.4423828-1.4614258,0.6630859-2.3530273,0.6630859c-1.1401367,0-2.0522461-0.3520508-2.7363281-1.0571289
		c-0.6835938-0.7045898-1.0258789-1.6479492-1.0258789-2.8295898c0-1.1953125,0.3383789-2.1416016,1.015625-2.8398438
		c0.6772461-0.6977539,1.5927734-1.0463867,2.746582-1.0463867c0.8916016,0,1.6757813,0.2211914,2.3530273,0.6630859
		l-0.2802734,0.6220703C64.8725586,19.5551758,64.2055664,19.3583984,63.4873047,19.3583984z"/>
</g>
<g>
	<path fill="#70A0BB" d="M26.8808594,78.5410156v-7.565918h0.8398438l2.6943359,4.5600586h0.0209961l2.684082-4.5600586h0.8710938
		v7.565918h-0.8295898v-6.1772461h-0.0205078l-2.3320313,3.9282227h-0.7773438l-2.3320313-3.9282227h-0.0205078v6.1772461
		H26.8808594z"/>
	<path fill="#70A0BB" d="M36.0634766,71.9077148v-1.1401367h0.8085938v1.1401367H36.0634766z M36.0634766,78.5410156v-5.3896484
		h0.8085938v5.3896484H36.0634766z"/>
	<path fill="#70A0BB" d="M38.5302734,75.7426758c0-0.8569336,0.1899414-1.5200195,0.5703125-1.9902344
		c0.3798828-0.4697266,0.9047852-0.7045898,1.5751953-0.7045898c0.8085938,0,1.40625,0.3354492,1.7929688,1.0053711h0.0209961
		l0.0205078-0.9018555h0.7255859v4.9438477c0,1.8862305-0.8432617,2.8295898-2.5288086,2.8295898
		c-0.5805664,0-1.1367188-0.1103516-1.6689453-0.331543l0.1660156-0.6118164
		c0.4902344,0.2143555,0.9912109,0.3212891,1.5029297,0.3212891c0.6079102,0,1.0537109-0.1689453,1.3369141-0.5078125
		c0.2832031-0.3383789,0.4248047-0.8945313,0.4248047-1.668457v-0.6635742h-0.0205078
		C42.0751953,78.112793,41.484375,78.4375,40.6757813,78.4375c-0.6289063,0-1.1435547-0.2416992-1.5444336-0.7255859
		C38.7304688,77.2285156,38.5302734,76.5717773,38.5302734,75.7426758z M39.2763672,75.7426758
		c0,0.6357422,0.1455078,1.1401367,0.4355469,1.5131836s0.6699219,0.5595703,1.1401367,0.5595703
		c0.4765625,0,0.8671875-0.1796875,1.1708984-0.5390625c0.3041992-0.3588867,0.4526367-0.8530273,0.4458008-1.4819336V75.690918
		c0-0.6289063-0.1518555-1.1230469-0.4560547-1.4824219c-0.3041992-0.3588867-0.690918-0.5385742-1.1606445-0.5385742
		c-0.4907227,0-0.8740234,0.1796875-1.1503906,0.5385742C39.425293,74.5678711,39.2832031,75.0791016,39.2763672,75.7426758z"/>
	<path fill="#70A0BB" d="M45.4848633,73.1513672v3.3476563c0,0.5532227,0.0917969,0.9399414,0.2749023,1.1611328
		c0.1826172,0.2211914,0.4887695,0.331543,0.9169922,0.331543c0.4008789,0,0.7651367-0.1933594,1.09375-0.5805664
		c0.3276367-0.3867188,0.4921875-0.8461914,0.4921875-1.378418v-2.8813477h0.7670898v5.3896484h-0.7255859l-0.0209961-0.9638672
		h-0.0205078c-0.2075195,0.331543-0.4716797,0.5927734-0.7929688,0.7827148s-0.6650391,0.284668-1.03125,0.284668
		c-0.5805664,0-1.0087891-0.1640625-1.2851563-0.4921875s-0.4145508-0.8549805-0.4145508-1.5805664v-3.4204102H45.4848633z"/>
	<path fill="#70A0BB" d="M56.0458984,78.5410156v-6.5708008h-0.0209961l-2.0415039,1.8862305l-0.3212891-0.6738281
		l2.3837891-2.2075195H56.875v7.565918H56.0458984z"/>
	<path fill="#70A0BB" d="M60.1186523,71.0371094c0.71875-0.1103516,1.4199219-0.1655273,2.1040039-0.1655273
		c0.9394531,0,1.6513672,0.2001953,2.1352539,0.6010742c0.4833984,0.4008789,0.7290039,0.9672852,0.7358398,1.699707
		c0,0.8012695-0.2456055,1.409668-0.7358398,1.8242188c-0.4907227,0.4145508-1.2021484,0.621582-2.1352539,0.621582
		c-0.4560547,0-0.8808594-0.0205078-1.2749023-0.0620117v2.9848633h-0.8291016V71.0371094z M60.9477539,74.8720703
		c0.4008789,0.0551758,0.8051758,0.0830078,1.2128906,0.0830078c0.690918,0,1.2158203-0.1484375,1.5751953-0.4458008
		c0.359375-0.296875,0.5390625-0.722168,0.5390625-1.2749023s-0.1796875-0.9741211-0.5390625-1.2641602
		c-0.359375-0.2905273-0.8842773-0.4321289-1.5751953-0.425293c-0.3803711,0-0.7841797,0.034668-1.2128906,0.1035156V74.8720703z"/>
</g>
<line fill="none" stroke="#70A0BB" stroke-miterlimit="10" x1="100.2783203" y1="96.0761719" x2="122.2412109" y2="96.0761719"/>
<line fill="none" stroke="#70A0BB" stroke-miterlimit="10" x1="121.53125" y1="101.2587891" x2="143.4941406" y2="101.2587891"/>
<line fill="none" stroke="#70A0BB" stroke-miterlimit="10" x1="99.9238281" y1="44.5004883" x2="118.5639648" y2="44.5004883"/>
<line fill="none" stroke="#70A0BB" stroke-miterlimit="10" x1="133.0678711" y1="44.5004883" x2="155.5551758" y2="44.5004883"/>
<line fill="none" stroke="#70A0BB" stroke-miterlimit="10" x1="174.8032227" y1="44.5004883" x2="191.8305664" y2="44.5004883"/>
<line fill="none" stroke="#70A0BB" stroke-miterlimit="10" x1="214.0400391" y1="44.5004883" x2="236.7431641" y2="44.5004883"/>
<line fill="none" stroke="#70A0BB" stroke-miterlimit="10" x1="118.5639648" y1="49.6826172" x2="133.0678711" y2="49.6826172"/>
<line fill="none" stroke="#70A0BB" stroke-miterlimit="10" x1="155.5551758" y1="50.6704102" x2="174.8032227" y2="50.6704102"/>
<line fill="none" stroke="#70A0BB" stroke-miterlimit="10" x1="191.8305664" y1="50.6704102" x2="214.0400391" y2="50.6704102"/>
<line fill="none" stroke="#70A0BB" stroke-miterlimit="10" x1="143.4941406" y1="96.0761719" x2="165.456543" y2="96.0761719"/>
<line fill="none" stroke="#70A0BB" stroke-miterlimit="10" x1="165.456543" y1="101.2587891" x2="187.4189453" y2="101.2587891"/>
<line fill="none" stroke="#70A0BB" stroke-miterlimit="10" x1="187.4189453" y1="96.0761719" x2="209.3818359" y2="96.0761719"/>
<line fill="none" stroke="#70A0BB" stroke-miterlimit="10" x1="209.3818359" y1="101.2587891" x2="231.3442383" y2="101.2587891"/>
<line fill="none" stroke="#70A0BB" stroke-miterlimit="10" x1="231.3442383" y1="96.0761719" x2="253.3066406" y2="96.0761719"/>
</svg>
