<?xml version="1.0" encoding="utf-8"?>
<!-- Generator: Adobe Illustrator 16.0.3, SVG Export Plug-In . SVG Version: 6.00 Build 0)  -->
<!DOCTYPE svg PUBLIC "-//W3C//DTD SVG 1.1//EN" "http://www.w3.org/Graphics/SVG/1.1/DTD/svg11.dtd">
<svg version="1.1" id="レイヤー_1" xmlns="http://www.w3.org/2000/svg" xmlns:xlink="http://www.w3.org/1999/xlink" x="0px"
	 y="0px" width="650px" height="125px" viewBox="0 0 650 125" enable-background="new 0 0 650 125" xml:space="preserve">
<g>
	<path fill="#70A0BB" d="M26.9711914,21.2480469v-8.3413086h0.9257813l2.9707031,5.0273438h0.0229492l2.9594727-5.0273438h0.9599609
		v8.3413086h-0.9140625v-6.8100586h-0.0229492l-2.5712891,4.3305664h-0.8569336l-2.5708008-4.3305664h-0.0229492v6.8100586
		H26.9711914z"/>
	<path fill="#70A0BB" d="M37.0952148,13.9350586v-1.2568359h0.8916016v1.2568359H37.0952148z M37.0952148,21.2480469v-5.9418945
		h0.8916016v5.9418945H37.0952148z"/>
	<path fill="#70A0BB" d="M39.8149414,18.1630859c0-0.9448242,0.2094727-1.6757813,0.628418-2.1943359
		c0.4189453-0.5175781,0.9980469-0.7768555,1.7368164-0.7768555c0.8916016,0,1.550293,0.3696289,1.9770508,1.1083984h0.0229492
		l0.0224609-0.9941406h0.7998047v5.4506836c0,2.0795898-0.9291992,3.1191406-2.7880859,3.1191406
		c-0.6396484,0-1.2529297-0.121582-1.8393555-0.3652344l0.1826172-0.6743164
		c0.5410156,0.2358398,1.0932617,0.3540039,1.6567383,0.3540039c0.6704102,0,1.1616211-0.1865234,1.4741211-0.5595703
		c0.3125-0.3735352,0.46875-0.9868164,0.46875-1.8398438v-0.7314453h-0.0229492
		c-0.4116211,0.7163086-1.0625,1.0742188-1.9541016,1.0742188c-0.6933594,0-1.2607422-0.2666016-1.7026367-0.7998047
		S39.8149414,19.0771484,39.8149414,18.1630859z M40.6376953,18.1630859c0,0.7006836,0.1601563,1.2568359,0.4799805,1.6679688
		c0.3198242,0.4116211,0.7387695,0.6171875,1.2568359,0.6171875c0.5258789,0,0.9560547-0.1982422,1.2910156-0.5942383
		c0.3354492-0.3959961,0.4990234-0.940918,0.4916992-1.6337891V18.105957c0-0.6933594-0.1679688-1.2382813-0.5029297-1.6342773
		c-0.3354492-0.3959961-0.7617188-0.5942383-1.2797852-0.5942383c-0.5410156,0-0.9638672,0.1982422-1.2685547,0.5942383
		S40.6450195,17.4316406,40.6376953,18.1630859z"/>
	<path fill="#70A0BB" d="M47.4819336,15.3061523v3.690918c0,0.609375,0.1010742,1.0361328,0.3027344,1.2797852
		s0.5390625,0.3657227,1.0112305,0.3657227c0.4418945,0,0.84375-0.2133789,1.2055664-0.6401367
		c0.3618164-0.4262695,0.5429688-0.9331055,0.5429688-1.5195313v-3.1767578h0.8452148v5.9418945h-0.7998047l-0.0224609-1.0625
		h-0.0229492c-0.2285156,0.3652344-0.5200195,0.6533203-0.8745117,0.8623047
		c-0.3540039,0.2094727-0.7329102,0.3144531-1.1367188,0.3144531c-0.6396484,0-1.1123047-0.1806641-1.4169922-0.5429688
		c-0.3046875-0.3613281-0.4570313-0.9423828-0.4570313-1.7421875v-3.7709961H47.4819336z"/>
	<path fill="#70A0BB" d="M59.125,21.2480469V14.003418h-0.0224609l-2.2514648,2.0795898l-0.3540039-0.7426758L59.125,12.9067383
		h0.9140625v8.3413086H59.125z"/>
	<path fill="#70A0BB" d="M63.6157227,12.9750977c0.7924805-0.121582,1.5654297-0.1826172,2.3198242-0.1826172
		c1.0356445,0,1.8203125,0.2207031,2.3535156,0.6625977s0.8037109,1.0664063,0.8115234,1.8740234
		c0,0.8837891-0.2705078,1.5541992-0.8115234,2.0112305c-0.5405273,0.4570313-1.3251953,0.6855469-2.3535156,0.6855469
		c-0.5029297,0-0.9711914-0.0229492-1.4057617-0.0688477v3.2910156h-0.9140625V12.9750977z M64.5297852,17.203125
		c0.4418945,0.0610352,0.8876953,0.0913086,1.3369141,0.0913086c0.7617188,0,1.3408203-0.1635742,1.7368164-0.4912109
		s0.5942383-0.7958984,0.5942383-1.4057617c0-0.609375-0.1982422-1.0737305-0.5942383-1.394043
		c-0.3959961-0.3198242-0.9750977-0.4760742-1.7368164-0.4682617c-0.4189453,0-0.8647461,0.0380859-1.3369141,0.1142578V17.203125z"
		/>
</g>
<g>
	<path fill="#70A0BB" d="M325.9711914,21.2480469v-8.3413086h0.9257813l2.9707031,5.0273438h0.0229492l2.9594727-5.0273438
		h0.9599609v8.3413086h-0.9140625v-6.8100586h-0.0229492l-2.5712891,4.3305664h-0.8569336l-2.5708008-4.3305664h-0.0229492
		v6.8100586H325.9711914z"/>
	<path fill="#70A0BB" d="M336.0952148,13.9350586v-1.2568359h0.8916016v1.2568359H336.0952148z M336.0952148,21.2480469v-5.9418945
		h0.8916016v5.9418945H336.0952148z"/>
	<path fill="#70A0BB" d="M338.8149414,18.1630859c0-0.9448242,0.2094727-1.6757813,0.628418-2.1943359
		c0.4189453-0.5175781,0.9980469-0.7768555,1.7368164-0.7768555c0.8916016,0,1.550293,0.3696289,1.9770508,1.1083984h0.0229492
		l0.0224609-0.9941406h0.7998047v5.4506836c0,2.0795898-0.9291992,3.1191406-2.7880859,3.1191406
		c-0.6396484,0-1.2529297-0.121582-1.8393555-0.3652344l0.1826172-0.6743164
		c0.5410156,0.2358398,1.0932617,0.3540039,1.6567383,0.3540039c0.6704102,0,1.1616211-0.1865234,1.4741211-0.5595703
		c0.3125-0.3735352,0.46875-0.9868164,0.46875-1.8398438v-0.7314453h-0.0229492
		c-0.4116211,0.7163086-1.0625,1.0742188-1.9541016,1.0742188c-0.6933594,0-1.2607422-0.2666016-1.7026367-0.7998047
		S338.8149414,19.0771484,338.8149414,18.1630859z M339.6376953,18.1630859c0,0.7006836,0.1601563,1.2568359,0.4799805,1.6679688
		c0.3198242,0.4116211,0.7387695,0.6171875,1.2568359,0.6171875c0.5258789,0,0.9560547-0.1982422,1.2910156-0.5942383
		c0.3354492-0.3959961,0.4990234-0.940918,0.4916992-1.6337891V18.105957c0-0.6933594-0.1679688-1.2382813-0.5029297-1.6342773
		c-0.3354492-0.3959961-0.7617188-0.5942383-1.2797852-0.5942383c-0.5410156,0-0.9638672,0.1982422-1.2685547,0.5942383
		S339.6450195,17.4316406,339.6376953,18.1630859z"/>
	<path fill="#70A0BB" d="M345.8305664,21.2480469v-8.3413086h0.9257813l2.9707031,5.0273438H349.75l2.9594727-5.0273438h0.9599609
		v8.3413086h-0.9140625v-6.8100586h-0.0229492l-2.5712891,4.3305664h-0.8569336l-2.5708008-4.3305664h-0.0229492v6.8100586
		H345.8305664z"/>
	<path fill="#70A0BB" d="M355.9545898,13.9350586v-1.2568359h0.8916016v1.2568359H355.9545898z M355.9545898,21.2480469v-5.9418945
		h0.8916016v5.9418945H355.9545898z"/>
	<path fill="#70A0BB" d="M359.7827148,15.3061523l1.5424805,2.3652344h0.0229492l1.5541992-2.3652344h0.9594727l-2.0336914,2.925293
		l2.0908203,3.0166016h-0.9936523l-1.6000977-2.4682617h-0.0229492l-1.6108398,2.4682617h-0.9599609l2.0913086-3.0166016
		l-2.0341797-2.925293H359.7827148z"/>
	<path fill="#70A0BB" d="M371.3686523,21.2480469V14.003418h-0.0224609l-2.2514648,2.0795898l-0.3540039-0.7426758
		l2.6279297-2.4335938h0.9140625v8.3413086H371.3686523z"/>
	<path fill="#70A0BB" d="M375.859375,12.9750977c0.7924805-0.121582,1.5654297-0.1826172,2.3198242-0.1826172
		c1.0356445,0,1.8203125,0.2207031,2.3535156,0.6625977s0.8037109,1.0664063,0.8115234,1.8740234
		c0,0.8837891-0.2705078,1.5541992-0.8115234,2.0112305c-0.5405273,0.4570313-1.3251953,0.6855469-2.3535156,0.6855469
		c-0.5029297,0-0.9711914-0.0229492-1.4057617-0.0688477v3.2910156h-0.9140625V12.9750977z M376.7734375,17.203125
		c0.4418945,0.0610352,0.8876953,0.0913086,1.3369141,0.0913086c0.7617188,0,1.3408203-0.1635742,1.7368164-0.4912109
		s0.5942383-0.7958984,0.5942383-1.4057617c0-0.609375-0.1982422-1.0737305-0.5942383-1.394043
		c-0.3959961-0.3198242-0.9750977-0.4760742-1.7368164-0.4682617c-0.4189453,0-0.8647461,0.0380859-1.3369141,0.1142578V17.203125z"
		/>
</g>
<g>
	<path fill="#7D7D7E" d="M34.5517578,47.0600586V33.7460938h-0.0419922l-4.1367188,3.8217773L29.722168,36.203125
		l4.8295898-4.4731445h1.6801758v15.3300781H34.5517578z"/>
	<path fill="#7D7D7E" d="M47.5297852,31.5200195c3.0522461,0,4.8369141,1.7783203,5.3554688,5.3339844
		c0.1118164,0.7700195,0.1679688,1.6171875,0.1679688,2.5410156c0,4.9003906-1.5961914,7.5112305-4.7880859,7.8330078
		c-0.2382813,0.027832-0.4829102,0.0419922-0.7353516,0.0419922c-3.0517578,0-4.8369141-1.777832-5.3549805-5.3339844
		c-0.1118164-0.7695313-0.1679688-1.6171875-0.1679688-2.5410156c0-4.8999023,1.5961914-7.5107422,4.7880859-7.8330078
		C47.0327148,31.5341797,47.277832,31.5200195,47.5297852,31.5200195z M47.5297852,45.9052734
		c1.8339844,0,3.0102539-1.0571289,3.5283203-3.1713867c0.2099609-0.909668,0.3149414-2.0229492,0.3149414-3.3388672
		c0-3.5698242-0.8330078-5.6625977-2.4990234-6.2788086c-0.40625-0.1538086-0.8540039-0.230957-1.3442383-0.230957
		c-1.8339844,0-3.0097656,1.0571289-3.527832,3.1708984c-0.2099609,0.8959961-0.3149414,2.0087891-0.3149414,3.3388672
		c0,3.5698242,0.8330078,5.6630859,2.4990234,6.2788086C46.5917969,45.828125,47.0400391,45.9052734,47.5297852,45.9052734z"/>
	<path fill="#7D7D7E" d="M56.0351563,47.0600586v-2.9399414h1.9741211v2.9399414H56.0351563z"/>
	<path fill="#7D7D7E" d="M67.2485352,47.0600586v-1.3652344h2.184082V33.0952148h-2.184082v-1.3652344h2.184082h1.6381836h2.184082
		v1.3652344h-2.184082v12.5996094h2.184082v1.3652344H67.2485352z"/>
	<path fill="#7D7D7E" d="M76.824707,47.0600586v-15.75h1.6381836v15.75H76.824707z"/>
	<path fill="#7D7D7E" d="M83.2924805,47.0600586v-15.75h1.6381836v15.75H83.2924805z"/>
	<path fill="#7D7D7E" d="M90.3271484,36.1401367v6.7827148c0,1.512207,0.3779297,2.4433594,1.1342773,2.7929688
		c0.3359375,0.1542969,0.7626953,0.2314453,1.2807617,0.2314453c0.8540039,0,1.6098633-0.4204102,2.2680664-1.2602539
		C95.6401367,43.9033203,95.9550781,43,95.9550781,41.9780273v-5.8378906h1.5541992v10.9199219h-1.4702148l-0.0419922-1.953125
		h-0.0419922c-0.7280273,1.1621094-1.7148438,1.8623047-2.9609375,2.1000977
		c-0.2519531,0.0419922-0.4970703,0.0629883-0.7348633,0.0629883c-1.7504883,0-2.828125-0.7626953-3.2338867-2.2890625
		c-0.1401367-0.5458984-0.2099609-1.1826172-0.2099609-1.9111328v-6.9296875H90.3271484z"/>
	<path fill="#7D7D7E" d="M104.2709961,35.9301758c1.34375,0,2.5830078,0.2802734,3.7167969,0.8398438l-0.3569336,1.2392578
		c-1.078125-0.5463867-2.1977539-0.8193359-3.3598633-0.8193359c-1.4702148,0-2.2890625,0.4619141-2.4570313,1.3862305
		c-0.0141602,0.0981445-0.0209961,0.1962891-0.0209961,0.2939453c0,0.6860352,0.3637695,1.1831055,1.0917969,1.4907227
		c0.3920898,0.1542969,0.8823242,0.2871094,1.4702148,0.3994141c2.0859375,0.3500977,3.3457031,1.0708008,3.7797852,2.1625977
		c0.1542969,0.3642578,0.2314453,0.784668,0.2314453,1.2602539c0,1.2880859-0.6303711,2.1914063-1.8901367,2.7089844
		c-0.6298828,0.2519531-1.3652344,0.3779297-2.2050781,0.3779297c-1.4980469-0.0141602-2.8422852-0.3637695-4.0322266-1.0498047
		l0.3574219-1.2392578c1.1474609,0.6860352,2.3725586,1.0292969,3.6748047,1.0292969
		c1.4702148,0,2.2958984-0.4833984,2.4780273-1.4492188c0.027832-0.1259766,0.0419922-0.2519531,0.0419922-0.3779297
		c0-0.7700195-0.3852539-1.315918-1.1552734-1.6381836c-0.3779297-0.1538086-0.8608398-0.2797852-1.4487305-0.3779297
		c-2.128418-0.3637695-3.3881836-1.1196289-3.7797852-2.2680664c-0.1123047-0.3076172-0.168457-0.6508789-0.168457-1.0288086
		c0-1.2182617,0.6020508-2.0717773,1.8061523-2.5620117C102.6748047,36.0561523,103.4169922,35.9301758,104.2709961,35.9301758z"/>
	<path fill="#7D7D7E" d="M114.5610352,32.5698242v3.9902344h4.1367188v1.2597656h-4.1367188v5.7333984
		c0,1.2041016,0.230957,1.9458008,0.6928711,2.2260742c0.2661133,0.1538086,0.6650391,0.230957,1.1972656,0.230957
		c0.6577148,0,1.2734375-0.1191406,1.8476563-0.3574219l0.2519531,1.2392578
		c-0.7138672,0.2519531-1.4838867,0.3779297-2.3095703,0.3779297c-1.456543,0-2.4013672-0.3989258-2.8354492-1.1967773
		c-0.2797852-0.5322266-0.4199219-1.2739258-0.4199219-2.2260742v-6.0273438h-2.4150391v-1.2597656h2.4150391v-3.9902344
		H114.5610352z"/>
	<path fill="#7D7D7E" d="M121.8481445,36.1401367h1.5117188l0.0209961,2.3310547h0.0419922
		c1.2602539-1.6801758,3.0029297-2.5268555,5.2290039-2.5410156v1.3227539c-1.8618164,0-3.2758789,0.5878906-4.2416992,1.7641602
		c-0.6582031,0.7978516-0.9873047,1.7431641-0.9873047,2.8349609v5.2080078h-1.574707V36.1401367z"/>
	<path fill="#7D7D7E" d="M135.371582,35.9301758c1.9458008,0,3.2060547,0.5390625,3.7802734,1.6166992
		c0.3217773,0.6162109,0.4829102,1.4282227,0.4829102,2.4360352v4.137207c0,0.9941406,0.1049805,1.9741211,0.3149414,2.9399414
		h-1.4702148c-0.1259766-0.6298828-0.203125-1.2739258-0.230957-1.9321289h-0.0419922
		c-0.6582031,1.1621094-1.7080078,1.8554688-3.1499023,2.0791016c-0.2939453,0.0419922-0.5878906,0.0629883-0.8818359,0.0629883
		c-1.4003906,0-2.3730469-0.5039063-2.9189453-1.5117188c-0.2661133-0.4760742-0.3994141-1.0219727-0.3994141-1.6381836
		c0-1.5678711,0.8120117-2.6948242,2.4360352-3.3808594c1.0083008-0.40625,2.2329102-0.609375,3.675293-0.609375h1.1337891
		v-0.1049805c0-1.3017578-0.3222656-2.1347656-0.9658203-2.4990234c-0.40625-0.2236328-0.9941406-0.3359375-1.7641602-0.3359375
		c-1.315918,0-2.5410156,0.3222656-3.6748047,0.9663086l-0.2939453-1.2392578
		C132.6064453,36.2592773,133.9296875,35.9301758,135.371582,35.9301758z M132.3686523,44.0571289
		c0,0.9799805,0.4267578,1.6098633,1.2807617,1.8901367c0.2802734,0.0839844,0.5742188,0.1259766,0.8823242,0.1259766
		c1.1054688,0,2.0229492-0.434082,2.7509766-1.3022461c0.5458984-0.671875,0.8188477-1.4350586,0.8188477-2.2890625v-1.1757813
		h-1.1337891c-2.2124023,0-3.6401367,0.5390625-4.2841797,1.6166992
		C132.4736328,43.2729492,132.3686523,43.6513672,132.3686523,44.0571289z"/>
	<path fill="#7D7D7E" d="M146.3544922,32.5698242v3.9902344h4.1367188v1.2597656h-4.1367188v5.7333984
		c0,1.2041016,0.230957,1.9458008,0.6928711,2.2260742c0.2661133,0.1538086,0.6650391,0.230957,1.1972656,0.230957
		c0.6577148,0,1.2734375-0.1191406,1.8476563-0.3574219l0.2519531,1.2392578
		c-0.7138672,0.2519531-1.4838867,0.3779297-2.3095703,0.3779297c-1.456543,0-2.4013672-0.3989258-2.8354492-1.1967773
		c-0.2797852-0.5322266-0.4199219-1.2739258-0.4199219-2.2260742v-6.0273438h-2.4150391v-1.2597656h2.4150391v-3.9902344
		H146.3544922z"/>
	<path fill="#7D7D7E" d="M154.4814453,33.6201172v-2.3100586h1.6381836v2.3100586H154.4814453z M154.4814453,47.0600586V36.1401367
		h1.6381836v10.9199219H154.4814453z"/>
	<path fill="#7D7D7E" d="M164.519043,47.2700195c-1.8618164,0-3.262207-0.706543-4.199707-2.1210938
		c-0.6303711-0.9658203-0.9453125-2.1489258-0.9453125-3.5488281c0-2.1279297,0.6791992-3.6958008,2.0371094-4.7041016
		c0.8681641-0.6435547,1.9038086-0.9658203,3.1079102-0.9658203c1.8618164,0,3.262207,0.7070313,4.2001953,2.1210938
		c0.6298828,0.9658203,0.9448242,2.1489258,0.9448242,3.5488281c0,2.128418-0.6791992,3.6958008-2.0371094,4.7041016
		C166.7587891,46.9482422,165.7231445,47.2700195,164.519043,47.2700195z M164.519043,37.1899414
		c-1.4838867,0-2.5200195,0.6650391-3.1079102,1.9951172c-0.3081055,0.6860352-0.4619141,1.4912109-0.4619141,2.4150391
		c0,1.9599609,0.6015625,3.2832031,1.8061523,3.96875c0.5175781,0.2944336,1.1054688,0.4414063,1.7636719,0.4414063
		c1.4838867,0,2.5200195-0.6650391,3.1079102-1.9951172c0.3081055-0.6860352,0.4624023-1.4912109,0.4624023-2.4150391
		c0-1.9599609-0.6020508-3.2827148-1.8061523-3.9692383C165.7651367,37.3369141,165.1772461,37.1899414,164.519043,37.1899414z"/>
	<path fill="#7D7D7E" d="M172.0791016,36.1401367h1.4697266l0.0209961,1.953125h0.0419922
		c0.7001953-1.1342773,1.6728516-1.8271484,2.9189453-2.0791016c0.2661133-0.0556641,0.5322266-0.0839844,0.7983398-0.0839844
		c1.8896484,0,3.0375977,0.9238281,3.4438477,2.7719727c0.1259766,0.5600586,0.1889648,1.2250977,0.1889648,1.9951172v6.362793
		h-1.512207v-6.2368164c0-1.7080078-0.3359375-2.7861328-1.0078125-3.234375
		c-0.3920898-0.2519531-0.9238281-0.3779297-1.5961914-0.3779297c-0.8540039,0-1.6240234,0.434082-2.3095703,1.3022461
		c-0.6162109,0.8120117-0.9243164,1.7148438-0.9243164,2.7089844v5.8378906h-1.5327148V36.1401367z"/>
	<path fill="#7D7D7E" d="M187.6186523,35.9301758c1.34375,0,2.5830078,0.2802734,3.7167969,0.8398438l-0.3569336,1.2392578
		c-1.078125-0.5463867-2.1977539-0.8193359-3.3598633-0.8193359c-1.4702148,0-2.2890625,0.4619141-2.4570313,1.3862305
		c-0.0141602,0.0981445-0.0209961,0.1962891-0.0209961,0.2939453c0,0.6860352,0.3637695,1.1831055,1.0917969,1.4907227
		c0.3920898,0.1542969,0.8823242,0.2871094,1.4702148,0.3994141c2.0859375,0.3500977,3.3457031,1.0708008,3.7797852,2.1625977
		c0.1542969,0.3642578,0.2314453,0.784668,0.2314453,1.2602539c0,1.2880859-0.6303711,2.1914063-1.8901367,2.7089844
		c-0.6298828,0.2519531-1.3652344,0.3779297-2.2050781,0.3779297c-1.4980469-0.0141602-2.8422852-0.3637695-4.0322266-1.0498047
		l0.3574219-1.2392578c1.1474609,0.6860352,2.3725586,1.0292969,3.6748047,1.0292969
		c1.4702148,0,2.2958984-0.4833984,2.4780273-1.4492188c0.027832-0.1259766,0.0419922-0.2519531,0.0419922-0.3779297
		c0-0.7700195-0.3852539-1.315918-1.1552734-1.6381836c-0.3779297-0.1538086-0.8608398-0.2797852-1.4487305-0.3779297
		c-2.128418-0.3637695-3.3881836-1.1196289-3.7797852-2.2680664c-0.1123047-0.3076172-0.168457-0.6508789-0.168457-1.0288086
		c0-1.2182617,0.6020508-2.0717773,1.8061523-2.5620117C186.0224609,36.0561523,186.7646484,35.9301758,187.6186523,35.9301758z"/>
</g>
<g>
	<path fill="#7D7D7E" d="M331.5517578,47.0600586V33.7460938h-0.0419922l-4.1367188,3.8217773l-0.6508789-1.3647461
		l4.8295898-4.4731445h1.6801758v15.3300781H331.5517578z"/>
	<path fill="#7D7D7E" d="M340.4560547,33.347168c0.9658203-1.2182617,2.3237305-1.8271484,4.0737305-1.8271484
		s3.1083984,0.6088867,4.0742188,1.8271484c0.9658203,1.2177734,1.4492188,3.2338867,1.4492188,6.0478516
		s-0.4833984,4.8300781-1.4492188,6.0478516c-0.9658203,1.2182617-2.3242188,1.8271484-4.0742188,1.8271484
		s-3.1079102-0.6088867-4.0737305-1.8271484c-0.9658203-1.2177734-1.4492188-3.2338867-1.4492188-6.0478516
		S339.4902344,34.5649414,340.4560547,33.347168z M344.5297852,45.9052734
		c1.2880859,0.0136719,2.2539063-0.4970703,2.8984375-1.5332031c0.6435547-1.0361328,0.9584961-2.6948242,0.9448242-4.9770508
		c0.0136719-2.2817383-0.3012695-3.940918-0.9448242-4.9770508c-0.6445313-1.0356445-1.6103516-1.546875-2.8984375-1.5327148
		c-1.2880859-0.0141602-2.2539063,0.4970703-2.8979492,1.5327148c-0.644043,1.0361328-0.9589844,2.6953125-0.9448242,4.9770508
		c-0.0141602,2.2822266,0.3007813,3.940918,0.9448242,4.9770508S343.2416992,45.9189453,344.5297852,45.9052734z"/>
	<path fill="#7D7D7E" d="M353.0351563,47.0600586v-2.9399414h1.9741211v2.9399414H353.0351563z"/>
	<path fill="#7D7D7E" d="M365.5087891,47.0600586V31.7299805h1.8061523v15.3300781H365.5087891z"/>
	<path fill="#7D7D7E" d="M372.1445313,47.0600586v-15.75h1.6381836v15.75H372.1445313z"/>
	<path fill="#7D7D7E" d="M378.6123047,47.0600586v-15.75h1.6381836v15.75H378.6123047z"/>
	<path fill="#7D7D7E" d="M385.6469727,36.1401367v6.7827148c0,1.1206055,0.1855469,1.9042969,0.5566406,2.3520508
		c0.3706055,0.4482422,0.9902344,0.6723633,1.8583984,0.6723633c0.8120117,0,1.550293-0.3920898,2.215332-1.1762695
		c0.6650391-0.7836914,0.9975586-1.7148438,0.9975586-2.7929688v-5.8378906h1.5541992v10.9199219h-1.4702148l-0.0419922-1.953125
		h-0.0419922c-0.4199219,0.6723633-0.9555664,1.2006836-1.6064453,1.5854492
		c-0.6508789,0.3852539-1.3476563,0.5776367-2.0893555,0.5776367c-1.1762695,0-2.0444336-0.3325195-2.6040039-0.9975586
		c-0.5600586-0.6645508-0.8398438-1.7324219-0.8398438-3.2026367v-6.9296875H385.6469727z"/>
	<path fill="#7D7D7E" d="M399.5908203,35.9301758c1.34375,0,2.5830078,0.2802734,3.7167969,0.8398438l-0.3569336,1.2392578
		c-1.078125-0.5463867-2.1977539-0.8193359-3.3598633-0.8193359c-0.8120117,0-1.4282227,0.1469727-1.8481445,0.440918
		c-0.4199219,0.2944336-0.6298828,0.7075195-0.6298828,1.2392578c0,0.5039063,0.1816406,0.902832,0.5458984,1.1967773
		c0.3637695,0.2939453,1.0361328,0.5253906,2.0161133,0.6933594c1.4418945,0.237793,2.4707031,0.6298828,3.0869141,1.1757813
		s0.9243164,1.2949219,0.9243164,2.2470703c0,0.9379883-0.3642578,1.6870117-1.0922852,2.2470703
		s-1.7290039,0.8398438-3.0029297,0.8398438c-1.4980469,0-2.8422852-0.3496094-4.0322266-1.0498047l0.3574219-1.2392578
		c1.1474609,0.6860352,2.3725586,1.0292969,3.6748047,1.0292969c0.8120117,0,1.4350586-0.1542969,1.8691406-0.4624023
		c0.4335938-0.3076172,0.6508789-0.7626953,0.6508789-1.3647461c0.0136719-0.5600586-0.175293-0.9941406-0.5668945-1.3022461
		c-0.3920898-0.3076172-1.0712891-0.5458984-2.0371094-0.7138672c-1.3862305-0.237793-2.387207-0.6225586-3.0029297-1.1547852
		c-0.6162109-0.5322266-0.9311523-1.2460938-0.9453125-2.1420898c0.0141602-0.8959961,0.3710938-1.6098633,1.0712891-2.1420898
		C397.3295898,36.1962891,398.3168945,35.9301758,399.5908203,35.9301758z"/>
	<path fill="#7D7D7E" d="M409.8808594,32.5698242v3.9902344h4.1367188v1.2597656h-4.1367188v5.7333984
		c0,0.9799805,0.1328125,1.6347656,0.3989258,1.9633789c0.265625,0.3291016,0.7626953,0.4936523,1.4912109,0.4936523
		c0.6435547,0,1.2597656-0.1191406,1.8476563-0.3574219l0.2519531,1.2392578
		c-0.7138672,0.2519531-1.4838867,0.3779297-2.3095703,0.3779297c-1.1904297,0-2.0302734-0.2553711-2.5200195-0.7666016
		c-0.4902344-0.5107422-0.7353516-1.3964844-0.7353516-2.65625v-6.0273438h-2.4150391v-1.2597656h2.4150391v-3.9902344H409.8808594z
		"/>
	<path fill="#7D7D7E" d="M417.1679688,36.1401367h1.5117188l0.0209961,2.3310547h0.0419922
		c1.2319336-1.6938477,2.9750977-2.5410156,5.2290039-2.5410156v1.3227539c-1.5537109,0-2.8139648,0.4272461-3.7797852,1.28125
		c-0.9663086,0.8540039-1.4492188,1.9599609-1.4492188,3.3178711v5.2080078h-1.574707V36.1401367z"/>
	<path fill="#7D7D7E" d="M430.6914063,35.9301758c1.5253906,0,2.6171875,0.3149414,3.2753906,0.9448242
		s0.9882813,1.6665039,0.9882813,3.1079102v4.137207c0,0.9941406,0.1044922,1.9741211,0.3144531,2.9399414h-1.4707031
		c-0.1396484-0.6157227-0.2167969-1.2597656-0.2304688-1.9321289h-0.0419922
		c-0.3779297,0.6723633-0.9208984,1.1972656-1.6279297,1.5751953s-1.5078125,0.5668945-2.4042969,0.5668945
		c-1.0078125,0-1.8125-0.2836914-2.4140625-0.8505859c-0.6025391-0.5668945-0.9042969-1.3334961-0.9042969-2.2993164
		c0-1.2182617,0.5292969-2.1875,1.5859375-2.9086914c1.0566406-0.7207031,2.5654297-1.081543,4.5253906-1.081543h1.1347656
		v-0.1049805c0-1.0634766-0.1992188-1.8022461-0.5996094-2.215332c-0.3984375-0.4125977-1.109375-0.6196289-2.1308594-0.6196289
		c-1.3164063,0-2.5410156,0.3222656-3.6748047,0.9663086l-0.2939453-1.2392578
		C427.9257813,36.2592773,429.25,35.9301758,430.6914063,35.9301758z M427.6884766,44.0571289
		c0,0.6298828,0.1962891,1.1235352,0.5878906,1.4804688s0.9169922,0.5356445,1.5751953,0.5356445
		c0.9658203,0,1.8027344-0.3466797,2.5097656-1.0395508c0.7070313-0.6933594,1.0605469-1.543457,1.0605469-2.5517578v-1.1757813
		h-1.1347656c-1.4697266,0-2.6035156,0.2485352-3.4023438,0.7456055
		C428.0878906,42.5488281,427.6884766,43.2172852,427.6884766,44.0571289z"/>
	<path fill="#7D7D7E" d="M441.6738281,32.5698242v3.9902344h4.1367188v1.2597656h-4.1367188v5.7333984
		c0,0.9799805,0.1328125,1.6347656,0.3994141,1.9633789c0.265625,0.3291016,0.7626953,0.4936523,1.4912109,0.4936523
		c0.6435547,0,1.2597656-0.1191406,1.8476563-0.3574219l0.2519531,1.2392578
		c-0.7138672,0.2519531-1.484375,0.3779297-2.3095703,0.3779297c-1.1904297,0-2.0302734-0.2553711-2.5205078-0.7666016
		c-0.4902344-0.5107422-0.734375-1.3964844-0.734375-2.65625v-6.0273438h-2.4160156v-1.2597656h2.4160156v-3.9902344H441.6738281z"
		/>
	<path fill="#7D7D7E" d="M449.8007813,33.6201172v-2.3100586h1.6386719v2.3100586H449.8007813z M449.8007813,47.0600586V36.1401367
		h1.6386719v10.9199219H449.8007813z"/>
	<path fill="#7D7D7E" d="M463.5771484,45.7368164c-0.9384766,1.0224609-2.1845703,1.5332031-3.7382813,1.5332031
		s-2.7998047-0.5107422-3.7373047-1.5332031c-0.9384766-1.0214844-1.4082031-2.4008789-1.4082031-4.1367188
		s0.4697266-3.1147461,1.4082031-4.137207c0.9375-1.0214844,2.1835938-1.5327148,3.7373047-1.5327148
		s2.7998047,0.5112305,3.7382813,1.5327148c0.9375,1.0224609,1.4072266,2.4013672,1.4072266,4.137207
		S464.5146484,44.715332,463.5771484,45.7368164z M462.453125,38.3554688
		c-0.6367188-0.7768555-1.5078125-1.1655273-2.6142578-1.1655273s-1.9775391,0.3886719-2.6142578,1.1655273
		s-0.9550781,1.8583984-0.9550781,3.2446289c0,1.3857422,0.3183594,2.4672852,0.9550781,3.2446289
		c0.6367188,0.7768555,1.5078125,1.1655273,2.6142578,1.1655273s1.9775391-0.3886719,2.6142578-1.1655273
		c0.6367188-0.7773438,0.9560547-1.8588867,0.9560547-3.2446289
		C463.4091797,40.2138672,463.0898438,39.1323242,462.453125,38.3554688z"/>
	<path fill="#7D7D7E" d="M467.3984375,36.1401367h1.4707031l0.0205078,1.953125h0.0419922
		c0.4199219-0.6723633,0.9550781-1.2006836,1.6064453-1.5859375c0.6513672-0.3847656,1.3544922-0.5771484,2.1103516-0.5771484
		c1.2324219,0,2.1455078,0.3813477,2.7402344,1.1445313c0.5957031,0.7631836,0.8925781,1.9707031,0.8925781,3.6225586v6.362793
		h-1.5117188v-6.2368164c0-1.3579102-0.1953125-2.2998047-0.5878906-2.824707s-1.0644531-0.7875977-2.015625-0.7875977
		c-0.8125,0-1.5546875,0.402832-2.2265625,1.2075195c-0.671875,0.8051758-1.0078125,1.7397461-1.0078125,2.8037109v5.8378906
		h-1.5332031V36.1401367z"/>
	<path fill="#7D7D7E" d="M482.9384766,35.9301758c1.34375,0,2.5830078,0.2802734,3.7167969,0.8398438l-0.3564453,1.2392578
		c-1.078125-0.5463867-2.1982422-0.8193359-3.3603516-0.8193359c-0.8115234,0-1.4287109,0.1469727-1.8486328,0.440918
		c-0.4199219,0.2944336-0.6289063,0.7075195-0.6289063,1.2392578c0,0.5039063,0.1816406,0.902832,0.5449219,1.1967773
		c0.3642578,0.2939453,1.0371094,0.5253906,2.0166016,0.6933594c1.4423828,0.237793,2.4707031,0.6298828,3.0869141,1.1757813
		s0.9238281,1.2949219,0.9238281,2.2470703c0,0.9379883-0.3632813,1.6870117-1.0917969,2.2470703
		s-1.7285156,0.8398438-3.0029297,0.8398438c-1.4980469,0-2.8427734-0.3496094-4.0322266-1.0498047l0.3574219-1.2392578
		c1.1474609,0.6860352,2.3730469,1.0292969,3.6748047,1.0292969c0.8115234,0,1.4345703-0.1542969,1.8691406-0.4624023
		c0.4335938-0.3076172,0.6513672-0.7626953,0.6513672-1.3647461c0.0136719-0.5600586-0.1757813-0.9941406-0.5673828-1.3022461
		c-0.3916016-0.3076172-1.0712891-0.5458984-2.0371094-0.7138672c-1.3857422-0.237793-2.3876953-0.6225586-3.0029297-1.1547852
		c-0.6162109-0.5322266-0.9316406-1.2460938-0.9453125-2.1420898c0.0136719-0.8959961,0.3710938-1.6098633,1.0712891-2.1420898
		C480.6777344,36.1962891,481.6640625,35.9301758,482.9384766,35.9301758z"/>
</g>
<g>
	<path fill="#70A0BB" d="M26.9711914,82.7480469v-8.3413086h0.9257813l2.9707031,5.0273438h0.0229492l2.9594727-5.0273438h0.9599609
		v8.3413086h-0.9140625v-6.8100586h-0.0229492l-2.5712891,4.3305664h-0.8569336l-2.5708008-4.3305664h-0.0229492v6.8100586
		H26.9711914z"/>
	<path fill="#70A0BB" d="M37.0952148,75.4350586v-1.2568359h0.8916016v1.2568359H37.0952148z M37.0952148,82.7480469v-5.9418945
		h0.8916016v5.9418945H37.0952148z"/>
	<path fill="#70A0BB" d="M39.8149414,79.6630859c0-0.9448242,0.2094727-1.6757813,0.628418-2.1943359
		c0.4189453-0.5175781,0.9980469-0.7768555,1.7368164-0.7768555c0.8916016,0,1.550293,0.3696289,1.9770508,1.1083984h0.0229492
		l0.0224609-0.9941406h0.7998047v5.4506836c0,2.0795898-0.9291992,3.1191406-2.7880859,3.1191406
		c-0.6396484,0-1.2529297-0.121582-1.8393555-0.3652344l0.1826172-0.6743164
		c0.5410156,0.2358398,1.0932617,0.3540039,1.6567383,0.3540039c0.6704102,0,1.1616211-0.1865234,1.4741211-0.5595703
		c0.3125-0.3735352,0.46875-0.9868164,0.46875-1.8398438v-0.7314453h-0.0229492
		c-0.4116211,0.7163086-1.0625,1.0742188-1.9541016,1.0742188c-0.6933594,0-1.2607422-0.2666016-1.7026367-0.7998047
		S39.8149414,80.5771484,39.8149414,79.6630859z M40.6376953,79.6630859c0,0.7006836,0.1601563,1.2568359,0.4799805,1.6679688
		c0.3198242,0.4116211,0.7387695,0.6171875,1.2568359,0.6171875c0.5258789,0,0.9560547-0.1982422,1.2910156-0.5942383
		c0.3354492-0.3959961,0.4990234-0.940918,0.4916992-1.6337891V79.605957c0-0.6933594-0.1679688-1.2382813-0.5029297-1.6342773
		c-0.3354492-0.3959961-0.7617188-0.5942383-1.2797852-0.5942383c-0.5410156,0-0.9638672,0.1982422-1.2685547,0.5942383
		S40.6450195,78.9316406,40.6376953,79.6630859z"/>
	<path fill="#70A0BB" d="M47.4819336,76.8061523v3.690918c0,0.609375,0.1010742,1.0361328,0.3027344,1.2797852
		s0.5390625,0.3657227,1.0112305,0.3657227c0.4418945,0,0.84375-0.2133789,1.2055664-0.6401367
		c0.3618164-0.4262695,0.5429688-0.9331055,0.5429688-1.5195313v-3.1767578h0.8452148v5.9418945h-0.7998047l-0.0224609-1.0625
		h-0.0229492c-0.2285156,0.3652344-0.5200195,0.6533203-0.8745117,0.8623047
		c-0.3540039,0.2094727-0.7329102,0.3144531-1.1367188,0.3144531c-0.6396484,0-1.1123047-0.1806641-1.4169922-0.5429688
		c-0.3046875-0.3613281-0.4570313-0.9423828-0.4570313-1.7421875v-3.7709961H47.4819336z"/>
	<path fill="#70A0BB" d="M59.125,82.7480469V75.503418h-0.0224609l-2.2514648,2.0795898l-0.3540039-0.7426758L59.125,74.4067383
		h0.9140625v8.3413086H59.125z"/>
	<path fill="#70A0BB" d="M67.3295898,75.0581055c-1.0058594-0.0078125-1.8056641,0.3081055-2.3999023,0.9482422
		c-0.5942383,0.6396484-0.8950195,1.4970703-0.9023438,2.5708008c0.0073242,1.0742188,0.315918,1.9311523,0.925293,2.5712891
		c0.609375,0.6396484,1.4018555,0.9560547,2.3769531,0.9482422c0.7919922,0,1.5273438-0.2172852,2.2050781-0.6513672
		l0.3085938,0.6855469c-0.746582,0.487793-1.6113281,0.7314453-2.59375,0.7314453
		c-1.2568359,0-2.2626953-0.3886719-3.0166016-1.1655273c-0.7543945-0.7768555-1.1313477-1.8168945-1.1313477-3.1196289
		c0-1.3178711,0.3730469-2.3613281,1.1196289-3.1308594c0.746582-0.769043,1.7558594-1.1538086,3.0283203-1.1538086
		c0.9824219,0,1.847168,0.2436523,2.59375,0.730957l-0.3085938,0.6860352
		C68.8569336,75.2749023,68.121582,75.0581055,67.3295898,75.0581055z"/>
</g>
<g>
	<path fill="#70A0BB" d="M325.9711914,82.7480469v-8.3413086h0.9257813l2.9707031,5.0273438h0.0229492l2.9594727-5.0273438
		h0.9599609v8.3413086h-0.9140625v-6.8100586h-0.0229492l-2.5712891,4.3305664h-0.8569336l-2.5708008-4.3305664h-0.0229492
		v6.8100586H325.9711914z"/>
	<path fill="#70A0BB" d="M336.0952148,75.4350586v-1.2568359h0.8916016v1.2568359H336.0952148z M336.0952148,82.7480469v-5.9418945
		h0.8916016v5.9418945H336.0952148z"/>
	<path fill="#70A0BB" d="M338.8149414,79.6630859c0-0.9448242,0.2094727-1.6757813,0.628418-2.1943359
		c0.4189453-0.5175781,0.9980469-0.7768555,1.7368164-0.7768555c0.8916016,0,1.550293,0.3696289,1.9770508,1.1083984h0.0229492
		l0.0224609-0.9941406h0.7998047v5.4506836c0,2.0795898-0.9291992,3.1191406-2.7880859,3.1191406
		c-0.6396484,0-1.2529297-0.121582-1.8393555-0.3652344l0.1826172-0.6743164
		c0.5410156,0.2358398,1.0932617,0.3540039,1.6567383,0.3540039c0.6704102,0,1.1616211-0.1865234,1.4741211-0.5595703
		c0.3125-0.3735352,0.46875-0.9868164,0.46875-1.8398438v-0.7314453h-0.0229492
		c-0.4116211,0.7163086-1.0625,1.0742188-1.9541016,1.0742188c-0.6933594,0-1.2607422-0.2666016-1.7026367-0.7998047
		S338.8149414,80.5771484,338.8149414,79.6630859z M339.6376953,79.6630859c0,0.7006836,0.1601563,1.2568359,0.4799805,1.6679688
		c0.3198242,0.4116211,0.7387695,0.6171875,1.2568359,0.6171875c0.5258789,0,0.9560547-0.1982422,1.2910156-0.5942383
		c0.3354492-0.3959961,0.4990234-0.940918,0.4916992-1.6337891V79.605957c0-0.6933594-0.1679688-1.2382813-0.5029297-1.6342773
		c-0.3354492-0.3959961-0.7617188-0.5942383-1.2797852-0.5942383c-0.5410156,0-0.9638672,0.1982422-1.2685547,0.5942383
		S339.6450195,78.9316406,339.6376953,79.6630859z"/>
	<path fill="#70A0BB" d="M345.8305664,82.7480469v-8.3413086h0.9257813l2.9707031,5.0273438H349.75l2.9594727-5.0273438h0.9599609
		v8.3413086h-0.9140625v-6.8100586h-0.0229492l-2.5712891,4.3305664h-0.8569336l-2.5708008-4.3305664h-0.0229492v6.8100586
		H345.8305664z"/>
	<path fill="#70A0BB" d="M355.9545898,75.4350586v-1.2568359h0.8916016v1.2568359H355.9545898z M355.9545898,82.7480469v-5.9418945
		h0.8916016v5.9418945H355.9545898z"/>
	<path fill="#70A0BB" d="M359.7827148,76.8061523l1.5424805,2.3652344h0.0229492l1.5541992-2.3652344h0.9594727l-2.0336914,2.925293
		l2.0908203,3.0166016h-0.9936523l-1.6000977-2.4682617h-0.0229492l-1.6108398,2.4682617h-0.9599609l2.0913086-3.0166016
		l-2.0341797-2.925293H359.7827148z"/>
	<path fill="#70A0BB" d="M371.3686523,82.7480469V75.503418h-0.0224609l-2.2514648,2.0795898l-0.3540039-0.7426758
		l2.6279297-2.4335938h0.9140625v8.3413086H371.3686523z"/>
	<path fill="#70A0BB" d="M375.859375,82.7480469v-8.3413086h0.9257813l2.9707031,5.0273438h0.0229492l2.9594727-5.0273438h0.9599609
		v8.3413086h-0.9140625v-6.8100586h-0.0229492l-2.5712891,4.3305664h-0.8569336l-2.5708008-4.3305664h-0.0229492v6.8100586
		H375.859375z"/>
</g>
<g>
	<path fill="#7D7D7E" d="M34.6572266,108.5600586V95.0991211h-0.0419922l-4.3051758,3.4858398v-1.8481445l4.347168-3.5068359
		h1.6796875v15.3300781H34.6572266z"/>
	<path fill="#7D7D7E" d="M47.5297852,93.0200195c3.0522461,0,4.8369141,1.7783203,5.3554688,5.3339844
		c0.1118164,0.7700195,0.1679688,1.6171875,0.1679688,2.5410156c0,4.9003906-1.5961914,7.5112305-4.7880859,7.8330078
		c-0.2382813,0.027832-0.4829102,0.0419922-0.7353516,0.0419922c-3.0517578,0-4.8369141-1.777832-5.3549805-5.3339844
		c-0.1118164-0.7695313-0.1679688-1.6171875-0.1679688-2.5410156c0-4.8999023,1.5961914-7.5107422,4.7880859-7.8330078
		C47.0327148,93.0341797,47.277832,93.0200195,47.5297852,93.0200195z M44.0649414,104.4438477l6.7832031-7.5805664
		c-0.6020508-1.6381836-1.7084961-2.4643555-3.3183594-2.4780273c-1.8339844,0-3.0097656,1.0571289-3.527832,3.1708984
		c-0.2099609,0.8959961-0.3149414,2.0087891-0.3149414,3.3388672
		C43.6870117,102.3374023,43.8129883,103.5200195,44.0649414,104.4438477z M44.2958984,105.137207
		c0.6162109,1.4980469,1.6938477,2.2539063,3.2338867,2.2680664c1.8339844,0,3.0102539-1.0571289,3.5283203-3.1713867
		c0.2099609-0.909668,0.3149414-2.0229492,0.3149414-3.3388672s-0.1049805-2.421875-0.3149414-3.3178711L44.2958984,105.137207z"/>
	<path fill="#7D7D7E" d="M56.0351563,108.5600586v-2.8769531h1.9741211v2.8769531H56.0351563z"/>
	<path fill="#7D7D7E" d="M67.6689453,108.5600586v-1.4282227h1.784668V94.6582031h-1.784668v-1.4282227h1.784668h1.6801758
		h1.7851563v1.4282227h-1.7851563v12.4736328h1.7851563v1.4282227H67.6689453z"/>
	<path fill="#7D7D7E" d="M81.1083984,108.6020508H78.987793c-0.6303711,0-1.1064453-0.2866211-1.4282227-0.8608398
		c-0.1542969-0.2802734-0.230957-0.5742188-0.230957-0.8823242V93.0200195h1.6801758v12.9570313
		c0,0.5180664,0.1679688,0.8261719,0.5039063,0.9238281c0.0556641,0.0141602,0.1606445,0.0351563,0.3149414,0.0629883
		l1.2807617,0.0839844V108.6020508z"/>
	<path fill="#7D7D7E" d="M88.878418,108.6020508h-2.1206055c-0.6303711,0-1.1064453-0.2866211-1.4282227-0.8608398
		c-0.1542969-0.2802734-0.230957-0.5742188-0.230957-0.8823242V93.0200195h1.6801758v12.9570313
		c0,0.5180664,0.1679688,0.8261719,0.5039063,0.9238281c0.0556641,0.0141602,0.1606445,0.0351563,0.3149414,0.0629883
		l1.2807617,0.0839844V108.6020508z"/>
	<path fill="#7D7D7E" d="M91.9238281,97.6401367h1.574707v6.5727539c0,1.6665039,0.3779297,2.6879883,1.1342773,3.0664063
		c0.3217773,0.1538086,0.7348633,0.230957,1.2387695,0.230957c0.8256836,0,1.5820313-0.3710938,2.2680664-1.1132813
		c0.5737305-0.6298828,0.8676758-1.2949219,0.8818359-1.9951172v-6.7617188h1.6171875v10.9199219h-1.512207l-0.0209961-1.6381836
		h-0.0419922c-0.9658203,1.2182617-2.1699219,1.8339844-3.6118164,1.8481445c-1.6523438,0-2.7163086-0.6435547-3.1918945-1.9321289
		c-0.2241211-0.6298828-0.3359375-1.4345703-0.3359375-2.4150391V97.6401367z"/>
	<path fill="#7D7D7E" d="M107.6103516,98.6899414c-1.6518555,0.0283203-2.4921875,0.5668945-2.5200195,1.6171875
		c0,0.7138672,0.3916016,1.2460938,1.1762695,1.5957031c0.3217773,0.1401367,0.706543,0.2592773,1.1547852,0.3574219
		c1.8618164,0.4199219,3.0449219,1.0151367,3.5488281,1.784668c0.2802734,0.4482422,0.4199219,1.0224609,0.4199219,1.722168
		c0,1.3300781-0.6791992,2.2260742-2.0366211,2.6879883c-0.6020508,0.2099609-1.3022461,0.3149414-2.1000977,0.3149414
		c-1.3022461,0-2.4921875-0.230957-3.5698242-0.6928711v-1.3442383c1.1196289,0.5180664,2.2675781,0.7773438,3.4438477,0.7773438
		c1.75-0.0141602,2.6318359-0.5952148,2.6459961-1.7431641c0-0.7416992-0.3920898-1.2949219-1.1762695-1.6591797
		c-0.3637695-0.1679688-0.8120117-0.3149414-1.34375-0.440918c-2.0302734-0.4755859-3.2338867-1.2246094-3.6118164-2.2470703
		c-0.1123047-0.2939453-0.168457-0.6225586-0.168457-0.9868164c0-1.3022461,0.644043-2.1977539,1.9321289-2.6879883
		c0.6020508-0.2099609,1.2949219-0.3149414,2.0791016-0.3149414c1.1757813,0,2.3520508,0.1889648,3.527832,0.5668945v1.34375
		C109.8500977,98.9072266,108.7163086,98.6899414,107.6103516,98.6899414z"/>
	<path fill="#7D7D7E" d="M117.6484375,94.0698242v3.9902344h3.96875v1.2597656h-3.96875v5.7333984
		c0,1.1757813,0.2099609,1.9106445,0.6298828,2.2050781c0.2797852,0.1679688,0.7138672,0.2519531,1.3022461,0.2519531
		c0.6435547,0,1.2246094-0.0981445,1.7426758-0.2944336v1.3022461c-0.6582031,0.1679688-1.3300781,0.2519531-2.015625,0.2519531
		c-1.3862305,0-2.2963867-0.3359375-2.7304688-1.0078125c-0.3500977-0.5463867-0.5249023-1.3999023-0.5249023-2.5620117v-5.8803711
		h-2.3520508v-1.2597656h2.3520508v-3.9902344H117.6484375z"/>
	<path fill="#7D7D7E" d="M124.7675781,97.6401367h1.5957031v2.4360352h0.0419922
		c0.6860352-1.1621094,1.75-1.9179688,3.1918945-2.2680664c0.4902344-0.1118164,0.9799805-0.1679688,1.4702148-0.1679688h0.4199219
		v1.4067383h-0.4199219c-2.1000977,0-3.5,0.7495117-4.2001953,2.2470703
		c-0.2797852,0.6020508-0.4199219,1.3022461-0.4199219,2.1000977v5.1660156h-1.6796875V97.6401367z"/>
	<path fill="#7D7D7E" d="M140.769043,101.6298828v-0.5668945c0-1.0634766-0.3291016-1.7431641-0.9868164-2.0371094
		c-0.40625-0.1816406-0.9663086-0.2729492-1.6801758-0.2729492c-1.1899414,0-2.4570313,0.2661133-3.8007813,0.7983398v-1.4492188
		c1.2597656-0.4477539,2.5268555-0.671875,3.8007813-0.671875c1.8061523,0,3.0029297,0.3920898,3.5908203,1.1757813
		c0.4624023,0.6162109,0.6933594,1.5751953,0.6933594,2.8769531v7.0771484h-1.512207l-0.0419922-1.8691406h-0.0419922
		c-0.9238281,1.3305664-2.2124023,2.0229492-3.8637695,2.0791016c-1.246582,0-2.1630859-0.4755859-2.7509766-1.4277344
		c-0.3222656-0.5463867-0.4833984-1.1689453-0.4833984-1.8691406c0-1.9038086,1.1132813-3.1010742,3.3393555-3.5913086
		c0.7275391-0.1679688,1.5537109-0.2519531,2.4780273-0.2519531H140.769043z M140.769043,102.7851563h-1.2597656
		c-2.4223633,0-3.8012695,0.6582031-4.137207,1.9741211c-0.0419922,0.1958008-0.0629883,0.3920898-0.0629883,0.5878906
		c0,0.9379883,0.3569336,1.574707,1.0708008,1.9111328c0.2802734,0.1259766,0.5742188,0.1889648,0.8823242,0.1889648
		c1.2456055,0,2.1977539-0.4760742,2.855957-1.4282227c0.4335938-0.6435547,0.6508789-1.3930664,0.6508789-2.2470703V102.7851563z"
		/>
	<path fill="#7D7D7E" d="M148.8540039,94.0698242v3.9902344h3.96875v1.2597656h-3.96875v5.7333984
		c0,1.1757813,0.2099609,1.9106445,0.6298828,2.2050781c0.2797852,0.1679688,0.7138672,0.2519531,1.3022461,0.2519531
		c0.6435547,0,1.2246094-0.0981445,1.7426758-0.2944336v1.3022461c-0.6582031,0.1679688-1.3300781,0.2519531-2.015625,0.2519531
		c-1.3862305,0-2.2963867-0.3359375-2.7304688-1.0078125c-0.3500977-0.5463867-0.5249023-1.3999023-0.5249023-2.5620117v-5.8803711
		h-2.3520508v-1.2597656h2.3520508v-3.9902344H148.8540039z"/>
	<path fill="#7D7D7E" d="M156.8129883,95.0571289v-2.2470703h1.6801758v2.2470703H156.8129883z M156.8129883,108.5600586V97.6401367
		h1.6801758v10.9199219H156.8129883z"/>
	<path fill="#7D7D7E" d="M166.7456055,97.4301758c2.0859375,0,3.5419922,0.8398438,4.3681641,2.5200195
		c0.4199219,0.8818359,0.6298828,1.9316406,0.6298828,3.1499023c0,2.4643555-0.7978516,4.144043-2.394043,5.0400391
		c-0.7421875,0.4199219-1.6098633,0.6298828-2.6040039,0.6298828c-2.0859375,0-3.5419922-0.8398438-4.3676758-2.5200195
		c-0.4204102-0.8818359-0.6303711-1.9321289-0.6303711-3.1499023c0-2.4638672,0.7983398-4.144043,2.394043-5.0400391
		C164.8837891,97.6401367,165.7514648,97.4301758,166.7456055,97.4301758z M166.7456055,107.5102539
		c2.0439453,0,3.1572266-1.2250977,3.3388672-3.675293c0.0141602-0.237793,0.0214844-0.4829102,0.0214844-0.7348633
		c0-2.8139648-1.0292969-4.2841797-3.0874023-4.4101563c-0.0981445,0-0.1889648,0-0.2729492,0
		c-2.0439453,0-3.1572266,1.2250977-3.3388672,3.675293c-0.0141602,0.2382813-0.0209961,0.4829102-0.0209961,0.7348633
		c0,2.8139648,1.0288086,4.2841797,3.0869141,4.4101563C166.5703125,107.5102539,166.6616211,107.5102539,166.7456055,107.5102539z"
		/>
	<path fill="#7D7D7E" d="M175.6704102,97.6401367l0.0209961,1.6376953h0.0419922
		c1.0083008-1.2177734,2.2119141-1.8334961,3.6123047-1.8476563c1.6376953,0,2.7089844,0.6088867,3.2128906,1.8266602
		c0.2797852,0.7006836,0.4199219,1.6313477,0.4199219,2.793457v6.5097656h-1.5751953v-6.2998047
		c0-1.722168-0.3291016-2.800293-0.9868164-3.234375c-0.3642578-0.2236328-0.8608398-0.3359375-1.4912109-0.3359375
		c-0.7841797,0-1.5327148,0.3779297-2.246582,1.1342773c-0.5883789,0.6582031-0.8896484,1.315918-0.9033203,1.9736328v6.762207
		h-1.6166992V97.6401367H175.6704102z"/>
	<path fill="#7D7D7E" d="M189.8452148,98.6899414c-1.6518555,0.0283203-2.4921875,0.5668945-2.5200195,1.6171875
		c0,0.7138672,0.3916016,1.2460938,1.1762695,1.5957031c0.3217773,0.1401367,0.706543,0.2592773,1.1547852,0.3574219
		c1.8618164,0.4199219,3.0449219,1.0151367,3.5488281,1.784668c0.2802734,0.4482422,0.4199219,1.0224609,0.4199219,1.722168
		c0,1.3300781-0.6791992,2.2260742-2.0366211,2.6879883c-0.6020508,0.2099609-1.3022461,0.3149414-2.1000977,0.3149414
		c-1.3022461,0-2.4921875-0.230957-3.5698242-0.6928711v-1.3442383c1.1196289,0.5180664,2.2675781,0.7773438,3.4438477,0.7773438
		c1.75-0.0141602,2.6318359-0.5952148,2.6459961-1.7431641c0-0.7416992-0.3920898-1.2949219-1.1762695-1.6591797
		c-0.3637695-0.1679688-0.8120117-0.3149414-1.34375-0.440918c-2.0302734-0.4755859-3.2338867-1.2246094-3.6118164-2.2470703
		c-0.1123047-0.2939453-0.168457-0.6225586-0.168457-0.9868164c0-1.3022461,0.644043-2.1977539,1.9321289-2.6879883
		c0.6020508-0.2099609,1.2949219-0.3149414,2.0791016-0.3149414c1.1757813,0,2.3520508,0.1889648,3.527832,0.5668945v1.34375
		C192.0849609,98.9072266,190.9511719,98.6899414,189.8452148,98.6899414z"/>
</g>
<g>
	<path fill="#7D7D7E" d="M330.4179688,108.5600586V95.0151367l-0.0419922-0.0209961l-3.6328125,2.1210938v-1.6801758
		l3.6748047-2.2050781h1.722168v15.3300781H330.4179688z"/>
	<path fill="#7D7D7E" d="M339.027832,93.3979492c0.4760742-0.2519531,1.050293-0.3779297,1.722168-0.3779297
		s1.2460938,0.1259766,1.722168,0.3779297c0.4755859,0.2519531,0.8886719,0.671875,1.2387695,1.2602539
		c0.3496094,0.5878906,0.6088867,1.3999023,0.7768555,2.4360352s0.2524414,2.3027344,0.2524414,3.8007813
		s-0.0844727,2.7651367-0.2524414,3.8012695s-0.4272461,1.8476563-0.7768555,2.4355469
		c-0.3500977,0.5883789-0.7631836,1.0083008-1.2387695,1.2602539c-0.4760742,0.2519531-1.050293,0.3779297-1.722168,0.3779297
		s-1.2460938-0.1259766-1.722168-0.3779297s-0.8891602-0.671875-1.2387695-1.2602539
		c-0.3500977-0.5878906-0.6088867-1.3994141-0.7768555-2.4355469s-0.2524414-2.3032227-0.2524414-3.8012695
		s0.0844727-2.7646484,0.2524414-3.8007813s0.4267578-1.8481445,0.7768555-2.4360352
		C338.1386719,94.0698242,338.5517578,93.6499023,339.027832,93.3979492z M338.4819336,103.3310547l4.1162109-7.1191406
		c-0.3642578-1.1474609-0.9804688-1.7216797-1.8481445-1.7216797c-0.5039063,0-0.9238281,0.1821289-1.2597656,0.5458984
		c-0.3364258,0.3642578-0.6025391,1.0288086-0.7983398,1.9951172c-0.1962891,0.9658203-0.2939453,2.2539063-0.2939453,3.8637695
		C338.3979492,101.902832,338.4257813,102.715332,338.4819336,103.3310547z M338.8178711,105.3051758
		c0.3500977,1.3300781,0.9941406,1.9951172,1.9321289,1.9951172c0.5039063,0,0.9238281-0.1821289,1.2597656-0.5463867
		c0.3364258-0.3637695,0.6020508-1.0288086,0.7983398-1.9946289c0.1958008-0.9663086,0.2939453-2.2539063,0.2939453-3.8642578
		c0-1.0776367-0.0419922-2.0087891-0.1259766-2.7929688L338.8178711,105.3051758z"/>
	<path fill="#7D7D7E" d="M349.8847656,108.5600586v-3.1499023h2.7304688v3.1499023H349.8847656z"/>
	<path fill="#7D7D7E" d="M375.6098633,108.5600586h-6.7197266v-1.4702148h2.4780273V94.7001953h-2.4780273v-1.4702148h6.7197266
		v1.4702148h-2.4780273v12.3896484h2.4780273V108.5600586z"/>
	<path fill="#7D7D7E" d="M383.4008789,105.4101563c0.0136719,0.9238281,0.0908203,1.4770508,0.230957,1.6586914
		c0.1401367,0.1821289,0.5810547,0.2734375,1.3232422,0.2734375c0.4619141,0,0.9868164-0.0419922,1.574707-0.1264648v1.4492188
		c-0.6582031,0.0698242-1.2529297,0.1049805-1.784668,0.1049805c-1.2602539,0-2.0864258-0.1962891-2.4780273-0.5878906
		c-0.3920898-0.3920898-0.5878906-1.2460938-0.5878906-2.5620117V94.6582031h-2.7089844v-1.4282227h4.4306641V105.4101563z"/>
	<path fill="#7D7D7E" d="M393.9008789,105.4101563c0.0136719,0.9238281,0.0908203,1.4770508,0.230957,1.6586914
		c0.1401367,0.1821289,0.5810547,0.2734375,1.3232422,0.2734375c0.4619141,0,0.9868164-0.0419922,1.574707-0.1264648v1.4492188
		c-0.6582031,0.0698242-1.2529297,0.1049805-1.784668,0.1049805c-1.2602539,0-2.0864258-0.1962891-2.4780273-0.5878906
		c-0.3920898-0.3920898-0.5878906-1.2460938-0.5878906-2.5620117V94.6582031h-2.7089844v-1.4282227h4.4306641V105.4101563z"/>
	<path fill="#7D7D7E" d="M399.8652344,104.7802734v-7.1401367h1.6166992v6.7617188
		c0,1.1625977,0.1259766,1.9321289,0.3779297,2.3100586s0.7421875,0.5673828,1.4702148,0.5673828
		c0.671875,0,1.2456055-0.3852539,1.7216797-1.1552734c0.4760742-0.7695313,0.7143555-1.8339844,0.7143555-3.1918945v-5.2919922
		h1.6586914v10.9199219h-1.5537109l-0.0419922-1.5751953h-0.0419922c-0.2661133,0.5742188-0.6582031,1.015625-1.1762695,1.3232422
		s-1.0849609,0.4619141-1.7006836,0.4619141c-1.0786133,0-1.8554688-0.3007813-2.3310547-0.902832
		C400.1030273,107.2651367,399.8652344,106.2363281,399.8652344,104.7802734z"/>
	<path fill="#7D7D7E" d="M414.3549805,98.8369141c-1.34375,0-2.0161133,0.5112305-2.0161133,1.5332031
		c0,0.4760742,0.1469727,0.8540039,0.440918,1.1337891c0.2944336,0.2802734,0.8193359,0.5322266,1.5751953,0.7563477
		c1.4702148,0.3920898,2.449707,0.8261719,2.9399414,1.3017578c0.4897461,0.4760742,0.7348633,1.1972656,0.7348633,2.1630859
		s-0.3291016,1.7148438-0.9868164,2.2470703c-0.6582031,0.5322266-1.5888672,0.7978516-2.7929688,0.7978516
		s-2.359375-0.2797852-3.4648438-0.8398438V106.25c1.0917969,0.7421875,2.1767578,1.1132813,3.2548828,1.1132813
		c1.5541992,0,2.3310547-0.5463867,2.3310547-1.6381836c0.0136719-0.5175781-0.1333008-0.9169922-0.440918-1.1972656
		c-0.3081055-0.2797852-0.9033203-0.5458984-1.7851563-0.7978516c-1.3022461-0.3637695-2.2050781-0.7978516-2.7089844-1.3017578
		c-0.5039063-0.5043945-0.7558594-1.1899414-0.7558594-2.0581055c0-0.9238281,0.3076172-1.6450195,0.9238281-2.1630859
		c0.6157227-0.5175781,1.4980469-0.7768555,2.6459961-0.7768555c1.1757813,0,2.2958984,0.2451172,3.3598633,0.7348633v1.5751953
		C416.5039063,99.1381836,415.4189453,98.8369141,414.3549805,98.8369141z"/>
	<path fill="#7D7D7E" d="M424.6240234,98.0600586h3.8007813v1.4492188h-3.8007813v5.9008789
		c0,0.7841797,0.1123047,1.3017578,0.3359375,1.5537109s0.6787109,0.3852539,1.3652344,0.3994141
		c0.7001953,0,1.3291016-0.1264648,1.8896484-0.378418v1.4702148c-0.671875,0.2099609-1.3720703,0.3149414-2.0996094,0.3149414
		c-1.1757813,0-1.9951172-0.2236328-2.4570313-0.671875c-0.4628906-0.4477539-0.6933594-1.2739258-0.6933594-2.4780273v-6.1108398
		h-2.0996094v-1.4492188h2.0996094v-3.9902344h1.6591797V98.0600586z"/>
	<path fill="#7D7D7E" d="M433.90625,97.6401367v2.1000977h0.0419922c0.8681641-1.5400391,2.0712891-2.3100586,3.6123047-2.3100586
		c0.5175781,0,1.0078125,0.0703125,1.46875,0.2099609v1.4697266c-0.4902344-0.1538086-0.9794922-0.230957-1.46875-0.230957
		c-1.0224609,0-1.8769531,0.4272461-2.5625,1.28125s-1.0292969,1.9741211-1.0292969,3.3598633v5.0400391h-1.6582031V97.6401367
		H433.90625z"/>
	<path fill="#7D7D7E" d="M445.8554688,97.4301758c1.3857422,0,2.34375,0.2802734,2.8769531,0.8398438
		c0.53125,0.5600586,0.796875,1.6103516,0.796875,3.1499023v7.1401367h-1.5117188l-0.0410156-1.5751953h-0.0429688
		c-0.6582031,1.1904297-1.7011719,1.7851563-3.1289063,1.7851563c-0.9101563,0-1.6445313-0.2939453-2.2050781-0.8818359
		c-0.5595703-0.5878906-0.8398438-1.3789063-0.8398438-2.3730469c0-1.2739258,0.4335938-2.2607422,1.3027344-2.9609375
		c0.8671875-0.7001953,2.1484375-1.0429688,3.8417969-1.0292969h1.0087891V101c0-0.7978516-0.1542969-1.3579102-0.4619141-1.6801758
		c-0.3085938-0.3217773-0.8398438-0.4829102-1.5957031-0.4829102c-0.4628906,0-1.0507813,0.0839844-1.7646484,0.2519531
		s-1.3154297,0.3642578-1.8056641,0.5883789v-1.512207c0.4902344-0.2099609,1.0839844-0.3847656,1.7851563-0.5249023
		C444.7695313,97.5004883,445.3652344,97.4301758,445.8554688,97.4301758z M447.9130859,102.7851563h-1.0087891
		c-2.3789063,0-3.5693359,0.875-3.5693359,2.625c0,0.6298828,0.1611328,1.112793,0.4833984,1.4487305
		c0.3212891,0.3359375,0.7558594,0.5043945,1.3017578,0.5043945c0.8251953,0,1.4970703-0.3364258,2.0166016-1.0083008
		c0.5175781-0.671875,0.7763672-1.6166992,0.7763672-2.8349609V102.7851563z"/>
	<path fill="#7D7D7E" d="M456.1240234,98.0600586h3.8007813v1.4492188h-3.8007813v5.9008789
		c0,0.7841797,0.1123047,1.3017578,0.3359375,1.5537109s0.6787109,0.3852539,1.3652344,0.3994141
		c0.7001953,0,1.3291016-0.1264648,1.8896484-0.378418v1.4702148c-0.671875,0.2099609-1.3720703,0.3149414-2.0996094,0.3149414
		c-1.1757813,0-1.9951172-0.2236328-2.4570313-0.671875c-0.4628906-0.4477539-0.6933594-1.2739258-0.6933594-2.4780273v-6.1108398
		h-2.0996094v-1.4492188h2.0996094v-3.9902344h1.6591797V98.0600586z"/>
	<path fill="#7D7D7E" d="M468.1367188,97.6401367v9.4916992h2.2880859v1.4282227h-6.9296875v-1.4282227h2.9189453v-8.0639648
		H464.125v-1.4277344H468.1367188z M465.9941406,95.1201172v-2.5200195h2.1425781v2.5200195H465.9941406z"/>
	<path fill="#7D7D7E" d="M473.0498047,103.1000977c0-3.7802734,1.3994141-5.6699219,4.2001953-5.6699219
		c2.7998047,0,4.2001953,1.8896484,4.2001953,5.6699219c0,3.7797852-1.4003906,5.6699219-4.2001953,5.6699219
		C474.4492188,108.7700195,473.0498047,106.8798828,473.0498047,103.1000977z M477.25,107.3212891
		c0.8671875,0.0136719,1.4980469-0.3012695,1.890625-0.9453125c0.390625-0.6435547,0.5878906-1.7358398,0.5878906-3.2758789
		s-0.1972656-2.6318359-0.5878906-3.2758789c-0.3925781-0.644043-1.0234375-0.9589844-1.890625-0.9453125
		c-0.8681641-0.0136719-1.4980469,0.3012695-1.890625,0.9453125c-0.3916016,0.644043-0.5878906,1.7358398-0.5878906,3.2758789
		s0.1962891,2.6323242,0.5878906,3.2758789C475.7519531,107.0200195,476.3818359,107.3349609,477.25,107.3212891z"/>
	<path fill="#7D7D7E" d="M491.7402344,101.6298828v6.9301758h-1.6171875v-6.5517578
		c0-1.2319336-0.140625-2.0581055-0.4199219-2.4780273c-0.2802734-0.4204102-0.7910156-0.6230469-1.5332031-0.609375
		c-0.7001953,0-1.3017578,0.3920898-1.8066406,1.1762695c-0.5039063,0.7841797-0.7480469,1.8408203-0.734375,3.1708984v5.2919922
		h-1.6582031V97.6401367h1.5527344l0.0429688,1.574707h0.0410156c0.2666016-0.5175781,0.671875-0.9448242,1.21875-1.2807617
		c0.5458984-0.3359375,1.1337891-0.5039063,1.7636719-0.5039063c1.0917969,0,1.890625,0.3222656,2.3945313,0.9658203
		C491.4882813,99.0400391,491.7402344,100.1181641,491.7402344,101.6298828z"/>
	<path fill="#7D7D7E" d="M498.3554688,98.8369141c-1.34375,0-2.0166016,0.5112305-2.0166016,1.5332031
		c0,0.4760742,0.1474609,0.8540039,0.4404297,1.1337891c0.2949219,0.2802734,0.8203125,0.5322266,1.5761719,0.7563477
		c1.4697266,0.3920898,2.4492188,0.8261719,2.9394531,1.3017578c0.4902344,0.4760742,0.734375,1.1972656,0.734375,2.1630859
		s-0.328125,1.7148438-0.9863281,2.2470703s-1.5888672,0.7978516-2.7929688,0.7978516s-2.359375-0.2797852-3.4648438-0.8398438
		V106.25c1.0917969,0.7421875,2.1767578,1.1132813,3.2548828,1.1132813c1.5537109,0,2.3310547-0.5463867,2.3310547-1.6381836
		c0.0136719-0.5175781-0.1328125-0.9169922-0.4414063-1.1972656c-0.3076172-0.2797852-0.9023438-0.5458984-1.7851563-0.7978516
		c-1.3017578-0.3637695-2.2050781-0.7978516-2.7089844-1.3017578c-0.5039063-0.5043945-0.7558594-1.1899414-0.7558594-2.0581055
		c0-0.9238281,0.3085938-1.6450195,0.9238281-2.1630859c0.6162109-0.5175781,1.4980469-0.7768555,2.6464844-0.7768555
		c1.1757813,0,2.2958984,0.2451172,3.359375,0.7348633v1.5751953
		C500.5039063,99.1381836,499.4189453,98.8369141,498.3554688,98.8369141z"/>
</g>
</svg>
