<?xml version="1.0" encoding="utf-8"?>
<!-- Generator: Adobe Illustrator 16.0.3, SVG Export Plug-In . SVG Version: 6.00 Build 0)  -->
<!DOCTYPE svg PUBLIC "-//W3C//DTD SVG 1.1//EN" "http://www.w3.org/Graphics/SVG/1.1/DTD/svg11.dtd">
<svg version="1.1" id="レイヤー_1" xmlns="http://www.w3.org/2000/svg" xmlns:xlink="http://www.w3.org/1999/xlink" x="0px"
	 y="0px" width="575px" height="150px" viewBox="0 0 575 150" enable-background="new 0 0 575 150" xml:space="preserve">
  <style>path {fill:#222;} @media (prefers-color-scheme: dark) {path {fill:#ddd;}}</style>
<g>
	<path d="M78.6669922,12.4804688l3.0869141,13.5239258h0.0419922l3.1499023-13.5239258h2.184082l3.1708984,13.5239258h0.0419922
		l3.0874023-13.5239258h1.6586914L91.309082,27.8105469h-2.1210938l-3.1499023-13.5239258h-0.0419922l-3.1499023,13.5239258
		h-2.1210938l-3.7802734-15.3300781H78.6669922z"/>
	<path d="M98.4277344,22.9384766c0.0419922,1.5825195,0.6435547,2.6953125,1.8061523,3.3388672
		c0.5878906,0.3364258,1.2597656,0.5043945,2.015625,0.5043945c1.105957-0.0141602,2.184082-0.2944336,3.234375-0.840332
		l0.4199219,1.1972656c-1.1904297,0.5878906-2.4501953,0.8818359-3.7802734,0.8818359
		c-1.8476563,0-3.2548828-0.6787109-4.2207031-2.0371094c-0.6860352-0.9794922-1.0292969-2.190918-1.0292969-3.6328125
		c0-2.2539063,0.7143555-3.8710938,2.1420898-4.8510742c0.8120117-0.5458984,1.777832-0.8188477,2.8979492-0.8188477
		c2.1420898,0,3.5703125,0.9238281,4.2841797,2.7719727c0.3076172,0.7978516,0.4619141,1.7290039,0.4619141,2.7929688
		c0,0.3222656-0.0073242,0.5532227-0.0209961,0.6928711H98.4277344z M98.4277344,21.7207031h6.7407227
		c-0.027832-1.8901367-0.6928711-3.0869141-1.9946289-3.5913086c-0.3779297-0.1396484-0.7983398-0.2099609-1.2602539-0.2099609
		c-1.4980469,0-2.5273438,0.644043-3.0869141,1.9321289C98.5883789,20.3974609,98.4555664,21.0205078,98.4277344,21.7207031z"/>
	<path d="M114.3881836,28.0205078c-1.6103516-0.0141602-2.800293-0.699707-3.5703125-2.0581055h-0.0419922l-0.0209961,1.8481445
		h-1.4697266v-15.75h1.5327148v6.6152344h0.0419922c0.7841797-1.315918,1.9599609-1.980957,3.5283203-1.9951172
		c1.8618164,0,3.1499023,0.847168,3.8637695,2.5410156c0.3637695,0.8818359,0.5458984,1.9248047,0.5458984,3.1289063
		c0,2.4360352-0.7070313,4.1157227-2.1210938,5.0400391C116.0185547,27.8105469,115.2558594,28.0205078,114.3881836,28.0205078z
		 M117.2861328,22.3505859c0-2.2260742-0.6582031-3.6191406-1.9741211-4.1791992
		c-0.3920898-0.1538086-0.8120117-0.230957-1.2602539-0.230957c-1.2177734,0-2.1137695,0.5668945-2.6879883,1.7011719
		c-0.3637695,0.7138672-0.5458984,1.5678711-0.5458984,2.5620117v0.2939453c0,1.8623047,0.5532227,3.1362305,1.6591797,3.8217773
		c0.4755859,0.2944336,1.0004883,0.4414063,1.574707,0.4414063c1.3442383,0,2.2890625-0.6650391,2.8354492-1.9951172
		C117.152832,24.0795898,117.2861328,23.2744141,117.2861328,22.3505859z"/>
	<path d="M121.3178711,14.706543v-1.4702148c5.5576172,0,11.2207031-0.1396484,16.9887695-0.4199219l0.0839844,1.4702148
		c-4.5083008,0.40625-7.6650391,1.6660156-9.4711914,3.7797852c-0.9799805,1.1625977-1.4697266,2.4780273-1.4697266,3.9482422
		c0,2.0581055,0.7836914,3.5698242,2.3520508,4.5361328c0.9936523,0.5878906,2.190918,0.8818359,3.5908203,0.8818359
		c0.840332,0,1.7148438-0.0766602,2.625-0.230957l0.1889648,1.4697266
		c-0.9521484,0.1679688-1.9106445,0.2519531-2.8769531,0.2519531c-2.7583008,0-4.815918-0.8188477-6.1738281-2.4570313
		c-0.9521484-1.1616211-1.4282227-2.5966797-1.4282227-4.3046875c0-2.5620117,1.1762695-4.6479492,3.5283203-6.2583008
		c0.7978516-0.5458984,1.7075195-1.0146484,2.7299805-1.4067383l-0.0209961-0.0419922
		C127.7646484,14.6225586,124.2158203,14.706543,121.3178711,14.706543z M133.7495117,17.7724609l1.2392578-0.671875
		c0.6855469,1.1337891,1.3369141,2.2822266,1.953125,3.4438477l-1.2602539,0.6298828
		C134.9956055,19.8867188,134.3515625,18.7524414,133.7495117,17.7724609z M136.6894531,16.9746094l1.2602539-0.6928711
		c0.8256836,1.3579102,1.4980469,2.5336914,2.0161133,3.527832l-1.28125,0.6298828
		C138.0405273,19.25,137.3754883,18.0947266,136.6894531,16.9746094z"/>
	<path d="M143.8295898,13.1733398h14.7001953v14.1542969h-14.7001953v-1.4702148h13.0830078V14.6435547h-13.0830078V13.1733398z"/>
	<path d="M164.8295898,13.9296875l0.7558594-1.4282227c2.2402344,1.1201172,4.3818359,2.3100586,6.4262695,3.5703125
		l-0.8188477,1.4277344C169.246582,16.2958984,167.1254883,15.1054688,164.8295898,13.9296875z M181.0625,14.7485352
		c-1.4418945,8.0639648-6.6147461,12.4882813-15.519043,13.2719727l-0.2519531-1.5751953
		c6.7202148-0.6157227,11.1162109-3.4296875,13.1879883-8.4418945c0.4482422-1.1054688,0.7983398-2.3027344,1.050293-3.5908203
		L181.0625,14.7485352z"/>
	<path d="M199.6894531,9.9604492c1.1762695,0,2.1347656,0.4550781,2.8774414,1.3652344
		c0.5317383,0.6860352,0.7978516,1.4560547,0.7978516,2.3100586c0,1.1757813-0.4550781,2.1347656-1.3652344,2.8769531
		c-0.671875,0.5458984-1.4418945,0.8188477-2.3100586,0.8188477h-0.1049805
		c-3.8920898,1.315918-7.9169922,2.3173828-12.074707,3.0029297v3.0239258c0,1.4282227,0.230957,2.359375,0.6928711,2.7929688
		c0.4619141,0.434082,1.3789063,0.6513672,2.7509766,0.6513672c3.2758789,0,6.3979492-0.1049805,9.3662109-0.3154297
		l0.0629883,1.4912109c-3.3320313,0.2099609-6.5102539,0.3149414-9.5341797,0.3149414
		c-1.9321289,0-3.2480469-0.3432617-3.9477539-1.0288086c-0.6865234-0.7138672-1.0292969-2.0229492-1.0292969-3.9272461V12.3334961
		h1.6381836v6.4472656c3.4155273-0.5600586,6.6845703-1.3300781,9.8071289-2.3100586
		c-0.8686523-0.7563477-1.3095703-1.7011719-1.3232422-2.8349609c0-1.1762695,0.4545898-2.1279297,1.3652344-2.855957
		C198.0444336,10.2333984,198.8212891,9.9604492,199.6894531,9.9604492z M199.6894531,16.1347656
		c0.8823242,0,1.5678711-0.3642578,2.0581055-1.0922852c0.2797852-0.4335938,0.4199219-0.902832,0.4199219-1.4067383
		c0-0.8959961-0.3642578-1.5820313-1.0917969-2.0581055c-0.4199219-0.2797852-0.8818359-0.4199219-1.3862305-0.4199219
		c-0.8818359,0-1.5678711,0.3569336-2.0576172,1.0708008c-0.2939453,0.434082-0.440918,0.902832-0.440918,1.4072266
		c0,0.8818359,0.3637695,1.5678711,1.0917969,2.0576172C198.7163086,15.9873047,199.1855469,16.1347656,199.6894531,16.1347656z"/>
	<path d="M208.9926758,16.1977539h9.6601563l-0.7773438,10.0795898h3.4023438v1.3862305h-14.0703125v-1.3862305h8.9882813
		l0.6928711-8.6938477h-7.8959961V16.1977539z"/>
	<path d="M228.7749023,20.859375l-2.2470703-1.1967773l0.6088867-1.3022461l1.5961914,0.840332
		c0.0136719,0,0.230957,0.0771484,0.6508789,0.230957l0.5668945,0.0209961h13.8388672v1.5957031h-14.1118164
		c-0.1401367,0-0.2939453-0.0136719-0.4619141-0.0419922L228.7749023,20.859375z"/>
	<path d="M249.6694336,28.5874023l-0.230957-1.4697266c4.3681641-0.40625,7.4970703-1.5678711,9.387207-3.4863281
		c0.3916016-0.3916016,0.7416992-0.8188477,1.0498047-1.2807617c-2.3378906-1.2041016-4.6757813-2.3168945-7.0136719-3.3388672
		l0.7348633-1.4072266c2.2958984,0.9941406,4.6479492,2.1074219,7.0561523,3.3388672
		c0.7138672-1.6376953,1.1054688-3.6884766,1.1757813-6.152832h-8.5888672
		c-0.8120117,2.5200195-2.184082,4.6904297-4.1162109,6.5102539l-1.0917969-1.0083008
		c2.1137695-1.987793,3.4926758-4.5009766,4.1367188-7.5390625c0.0981445-0.4897461,0.175293-0.9794922,0.2314453-1.4697266
		l1.5327148,0.0839844c-0.0419922,0.4902344-0.1469727,1.1411133-0.3149414,1.9526367h9.9121094v0.6303711
		c0,5.1801758-1.3515625,8.9321289-4.0532227,11.2558594C257.2646484,27.0830078,253.9956055,28.2094727,249.6694336,28.5874023z"/>
	<path d="M279.2587891,26.8237305c2.1977539-0.2382813,3.737793-1.2739258,4.6201172-3.1083984
		c0.4755859-0.9794922,0.7138672-2.1347656,0.7138672-3.4648438c0-1.9321289-0.6860352-3.4926758-2.0581055-4.6831055
		c-1.1621094-0.9794922-2.5693359-1.4975586-4.2211914-1.5537109c-0.8681641,7.9663086-2.4360352,12.4599609-4.7036133,13.4819336
		c-0.378418,0.1679688-0.7773438,0.2519531-1.1972656,0.2519531c-0.9521484,0-1.8271484-0.5317383-2.625-1.5961914
		c-0.9521484-1.2875977-1.4277344-2.855957-1.4277344-4.7036133c0-2.6181641,0.8955078-4.7529297,2.6879883-6.4052734
		c1.8056641-1.6660156,4.1503906-2.4990234,7.034668-2.4990234c2.3657227,0,4.3120117,0.7490234,5.8383789,2.2470703
		c1.4697266,1.4560547,2.2045898,3.2758789,2.2045898,5.4599609c0,2.828125-0.847168,4.9770508-2.5410156,6.4472656
		c-1.0917969,0.9238281-2.4287109,1.4555664-4.0107422,1.5957031L279.2587891,26.8237305z M276.7177734,14.0976563
		c-2.3803711,0.2939453-4.1933594,1.2739258-5.4389648,2.9399414c-0.9243164,1.2597656-1.3862305,2.7299805-1.3862305,4.4101563
		c0,1.6098633,0.4057617,2.9189453,1.2182617,3.9267578c0.4477539,0.5322266,0.8818359,0.8051758,1.3017578,0.8188477
		c0.7280273,0,1.4282227-0.706543,2.1000977-2.1206055C275.4785156,22.0009766,276.2138672,18.6757813,276.7177734,14.0976563z"/>
	<path d="M296.8144531,14.8325195v-3.7587891h1.5751953v3.7587891h4.578125v-3.7587891h1.6166992v3.7587891h3.3183594v1.4282227
		h-3.3183594v7.034668h-7.7700195v-7.034668h-3.8847656v10.3950195h13.8598633v1.4277344h-13.8598633v1.5541992h-1.6591797
		V16.2607422h-2.6879883v-1.4282227h2.6879883v-3.7587891h1.6591797v3.7587891H296.8144531z M298.3896484,16.2607422v5.7119141
		h4.578125v-5.7119141H298.3896484z"/>
	<path d="M322.2246094,29.3857422v-6.8461914h1.1132813c-0.9804688-0.6298828-1.953125-1.3720703-2.9194336-2.2260742h-2.3515625
		c-0.8964844,0.7841797-1.8203125,1.4912109-2.7724609,2.1210938h1.3232422v0.6508789
		c0,2.1982422-0.6650391,3.8291016-1.9951172,4.8930664c-0.8681641,0.6860352-2.0927734,1.2250977-3.6748047,1.6171875
		l-0.5878906-1.3862305c1.9594727-0.5317383,3.2475586-1.2246094,3.8637695-2.0791016
		c0.5180664-0.699707,0.7768555-1.7148438,0.7768555-3.0449219v-0.4619141
		c-1.4697266,0.9521484-3.1010742,1.7851563-4.8925781,2.4990234l-0.609375-1.4492188
		c2.394043-0.9238281,4.5429688-2.043457,6.4472656-3.3598633h-2.7929688h-1.6381836v-8.9458008h15.4560547v8.9458008h-4.4311523
		c1.9179688,1.3300781,4.0668945,2.4501953,6.4472656,3.3598633l-0.609375,1.4492188
		c-1.7080078-0.6860352-3.2128906-1.4350586-4.5146484-2.2470703v6.5102539H322.2246094z M318.4448242,15.168457v-2.4780273
		h-5.2919922v2.4780273H318.4448242z M318.4448242,16.3867188h-5.2919922v2.6459961h5.2919922V16.3867188z M320.0405273,15.168457
		h5.2919922v-2.4780273h-5.2919922V15.168457z M320.0405273,16.3867188v2.6459961h5.2919922v-2.6459961H320.0405273z"/>
	<path d="M331.7797852,16.6176758v-1.4072266h4.0947266c0.3920898-1.7358398,0.6933594-3.2128906,0.9033203-4.4306641
		l1.5117188,0.1679688c-0.1962891,1.2319336-0.4760742,2.652832-0.8398438,4.2626953h1.8061523
		c1.7358398,0,2.8417969,0.0981445,3.3178711,0.2939453c0.5737305,0.2382813,0.9375,0.7631836,1.0917969,1.5751953
		c0.0981445,0.5878906,0.1469727,1.7641602,0.1469727,3.527832c0,3.6123047-0.6020508,6.0200195-1.8056641,7.2241211
		c-0.4624023,0.4477539-0.9594727,0.671875-1.4912109,0.671875c-1.1201172,0-2.4643555-0.3432617-4.0317383-1.0288086
		c-0.0839844-0.0419922-0.1611328-0.0766602-0.2314453-0.1049805l0.5253906-1.4072266
		c1.5673828,0.6723633,2.7226563,1.0083008,3.4648438,1.0083008c0.4755859,0,0.8959961-0.4833984,1.2597656-1.4492188
		c0.4624023-1.2456055,0.6933594-2.9536133,0.6933594-5.1240234c0-1.6796875-0.0629883-2.6948242-0.1889648-3.0449219
		c-0.1542969-0.4057617-0.5112305-0.6367188-1.0712891-0.6928711c-0.2519531-0.027832-0.7138672-0.0419922-1.3857422-0.0419922
		h-2.4360352c-1.0361328,4.199707-2.4223633,8.2109375-4.1582031,12.0327148l-1.4277344-0.5668945
		c1.6376953-3.6396484,2.9746094-7.4619141,4.0107422-11.4658203H331.7797852z M343.2456055,12.2495117l1.2602539-0.671875
		c0.6855469,1.1337891,1.3364258,2.2822266,1.9526367,3.4438477l-1.2597656,0.6088867
		C344.6386719,14.5805664,343.987793,13.4536133,343.2456055,12.2495117z M348.4326172,24.7446289
		c-0.8959961-2.421875-2.0581055-5.0258789-3.4858398-7.8120117l1.4067383-0.6088867
		c1.4282227,2.7578125,2.6040039,5.4038086,3.5283203,7.9379883L348.4326172,24.7446289z M346.1855469,11.4516602l1.28125-0.6928711
		c0.8256836,1.3579102,1.4975586,2.5336914,2.0161133,3.527832l-1.3022461,0.6298828
		C347.5366211,13.7265625,346.871582,12.5717773,346.1855469,11.4516602z"/>
	<path d="M362.5024414,12.8374023h7.6230469v1.4282227h-15.2246094v4.578125c0,4.1020508-0.6303711,7.4335938-1.8901367,9.9956055
		c-0.0839844,0.1679688-0.1679688,0.3364258-0.2519531,0.5043945l-1.2392578-1.2392578
		c1.105957-2.2817383,1.6938477-5.3198242,1.7641602-9.1137695c0.0136719-0.3642578,0.0209961-0.7353516,0.0209961-1.1132813
		v-5.0400391h7.5180664v-2.4990234h1.6796875V12.8374023z M364.4555664,21.5527344l1.3862305-0.7563477
		c1.7216797,2.590332,3.3105469,5.2431641,4.7670898,7.9589844l-1.4072266,0.7353516
		c-0.5322266-0.9663086-0.9169922-1.6591797-1.1547852-2.0791016c-4.9003906,0.8256836-9.4433594,1.3227539-13.6293945,1.4907227
		l-0.0839844-1.4487305c0.5043945-0.0136719,1.2529297-0.0488281,2.2470703-0.1049805
		c1.5961914-3.7802734,3.059082-7.7910156,4.3891602-12.0332031l1.6381836,0.3569336
		c-1.2885742,4.0742188-2.6953125,7.9169922-4.2211914,11.5292969c2.9956055-0.237793,5.9707031-0.5952148,8.9248047-1.0712891
		C366.331543,24.4648438,365.3798828,22.9384766,364.4555664,21.5527344z"/>
	<path d="M373.7797852,16.6176758v-1.4072266h4.0947266c0.3920898-1.7358398,0.6933594-3.2128906,0.9033203-4.4306641
		l1.5117188,0.1679688c-0.1962891,1.2319336-0.4760742,2.652832-0.8398438,4.2626953h1.8061523
		c1.7358398,0,2.8417969,0.0981445,3.3178711,0.2939453c0.5737305,0.2382813,0.9375,0.7631836,1.0917969,1.5751953
		c0.0981445,0.5878906,0.1469727,1.7641602,0.1469727,3.527832c0,3.6123047-0.6020508,6.0200195-1.8056641,7.2241211
		c-0.4624023,0.4477539-0.9594727,0.671875-1.4912109,0.671875c-1.1201172,0-2.4643555-0.3432617-4.0317383-1.0288086
		c-0.0839844-0.0419922-0.1611328-0.0766602-0.2314453-0.1049805l0.5253906-1.4072266
		c1.5673828,0.6723633,2.7226563,1.0083008,3.4648438,1.0083008c0.4755859,0,0.8959961-0.4833984,1.2597656-1.4492188
		c0.4624023-1.2456055,0.6933594-2.9536133,0.6933594-5.1240234c0-1.6796875-0.0629883-2.6948242-0.1889648-3.0449219
		c-0.1542969-0.4057617-0.5112305-0.6367188-1.0712891-0.6928711c-0.2519531-0.027832-0.7138672-0.0419922-1.3857422-0.0419922
		h-2.4360352c-1.0361328,4.199707-2.4223633,8.2109375-4.1582031,12.0327148l-1.4277344-0.5668945
		c1.6376953-3.6396484,2.9746094-7.4619141,4.0107422-11.4658203H373.7797852z M385.2456055,12.2495117l1.2602539-0.671875
		c0.6855469,1.1337891,1.3364258,2.2822266,1.9526367,3.4438477l-1.2597656,0.6088867
		C386.6386719,14.5805664,385.987793,13.4536133,385.2456055,12.2495117z M390.4326172,24.7446289
		c-0.8959961-2.421875-2.0581055-5.0258789-3.4858398-7.8120117l1.4067383-0.6088867
		c1.4282227,2.7578125,2.6040039,5.4038086,3.5283203,7.9379883L390.4326172,24.7446289z M388.1855469,11.4516602l1.28125-0.6928711
		c0.8256836,1.3579102,1.4975586,2.5336914,2.0161133,3.527832l-1.3022461,0.6298828
		C389.5366211,13.7265625,388.871582,12.5717773,388.1855469,11.4516602z"/>
	<path d="M396.9008789,11.9135742h1.574707v5.7119141h0.0419922c0.9101563-2.1557617,2.2260742-3.6816406,3.9482422-4.578125
		c0.909668-0.4755859,1.8476563-0.7138672,2.8139648-0.7138672c2.1279297,0,3.6118164,0.9799805,4.4516602,2.9399414
		c0.434082,1.0361328,0.6513672,2.2963867,0.6513672,3.7802734c0,4.1020508-1.4423828,6.8740234-4.3261719,8.315918
		c-1.7919922,0.8955078-4.2001953,1.34375-7.2241211,1.34375l-0.0629883-1.4697266
		c4.0878906,0,6.8740234-0.8959961,8.3579102-2.6879883c1.050293-1.2880859,1.5751953-3.1220703,1.5751953-5.5019531
		c0-3.0800781-0.9658203-4.7807617-2.8979492-5.1030273c-0.2241211-0.0419922-0.4482422-0.0629883-0.671875-0.0629883
		c-1.3725586,0-2.6811523,0.6582031-3.9272461,1.9736328c-1.4560547,1.5405273-2.3452148,3.465332-2.6669922,5.7753906
		c-0.0419922,0.2939453-0.0703125,0.5810547-0.0839844,0.8608398h-1.5537109V11.9135742z"/>
	<path d="M426.4902344,11.0107422v2.3730469h5.7324219v1.4067383h-5.7324219v2.7929688h5.0390625v1.4072266h-5.0390625v4.2626953
		c1.4980469,0.8120117,3.2539063,2.0864258,5.2705078,3.8222656l-0.9873047,1.112793
		c-1.609375-1.4140625-3.0449219-2.5126953-4.3046875-3.296875c-0.1123047,1.8198242-0.7695313,3.0029297-1.9746094,3.5488281
		c-0.6582031,0.2797852-1.5117188,0.4199219-2.5615234,0.4199219c-1.8759766,0-3.1918945-0.5742188-3.9477539-1.7216797
		c-0.3500977-0.5458984-0.5253906-1.1831055-0.5253906-1.9111328c0-1.4980469,0.7211914-2.4990234,2.1630859-3.0029297
		c0.6582031-0.2236328,1.4282227-0.3359375,2.3100586-0.3359375c0.9384766,0,1.9384766,0.2172852,3.0029297,0.6508789v-3.5488281
		h-7.9799805v-1.4072266h7.9799805v-2.7929688h-8.6728516v-1.4067383h8.6728516v-2.3730469H426.4902344z M424.9355469,24.0517578
		c-1.0498047-0.5043945-2.0019531-0.7563477-2.8554688-0.7563477c-2.0024414,0.0141602-3.0107422,0.6582031-3.0244141,1.9321289
		c0,1.0219727,0.5175781,1.7011719,1.5541992,2.0371094c0.4057617,0.1259766,0.8466797,0.1889648,1.3227539,0.1889648
		c1.3154297,0,2.1767578-0.3286133,2.5830078-0.9873047c0.2792969-0.4897461,0.4199219-1.2314453,0.4199219-2.2255859V24.0517578z"
		/>
	<path d="M436.2753906,13.4677734h10.6474609v-2.7304688h1.5322266v2.7304688h5.7539063v1.3227539h-5.7539063v4.7041016
		c0.2666016,0.8261719,0.3994141,1.6870117,0.3994141,2.5830078c0,2.6040039-0.8955078,4.4521484-2.6884766,5.5439453
		c-1.0917969,0.671875-2.5615234,1.1337891-4.4091797,1.3857422l-0.2314453-1.4697266
		c3.0800781-0.4057617,4.9355469-1.4560547,5.5654297-3.1499023c0.1533203-0.434082,0.2451172-0.9101563,0.2724609-1.4282227
		v-0.2729492h-0.0410156c-0.5605469,0.8261719-1.484375,1.2880859-2.7724609,1.3862305
		c-0.1542969,0.0136719-0.2939453,0.0209961-0.4199219,0.0209961c-1.3447266,0-2.4082031-0.4902344-3.1923828-1.4702148
		c-0.5878906-0.7275391-0.8818359-1.5678711-0.8818359-2.5200195c0-1.315918,0.5039063-2.3588867,1.5126953-3.1289063
		c0.7412109-0.5737305,1.5957031-0.8608398,2.5615234-0.8608398c1.0634766,0.0136719,1.9804688,0.3291016,2.7509766,0.9448242
		h0.0419922v-2.2680664h-10.6474609V13.4677734z M441.6308594,20.1035156c0,0.9238281,0.3847656,1.6381836,1.1542969,2.1420898
		c0.4765625,0.3081055,1.0019531,0.4619141,1.5761719,0.4619141c1.0078125,0,1.7695313-0.3847656,2.2890625-1.1547852
		c0.2929688-0.4482422,0.4404297-0.9311523,0.4404297-1.4492188c0-0.9238281-0.3916016-1.6381836-1.1767578-2.1420898
		c-0.4609375-0.2939453-0.9794922-0.440918-1.5527344-0.440918c-0.9941406,0-1.7578125,0.3852539-2.2890625,1.1552734
		C441.7773438,19.1098633,441.6308594,19.5859375,441.6308594,20.1035156z"/>
	<path d="M457.0234375,26.2353516c0-1.0634766,0.4199219-1.9106445,1.2597656-2.5410156
		c0.5878906-0.4477539,1.2460938-0.671875,1.9746094-0.671875c1.0634766,0,1.9179688,0.4199219,2.5625,1.2602539
		c0.4335938,0.5878906,0.6503906,1.2387695,0.6503906,1.9526367c0,1.0644531-0.4130859,1.9179688-1.2392578,2.5620117
		c-0.5878906,0.4482422-1.2460938,0.6723633-1.9736328,0.6723633c-1.0644531,0-1.9179688-0.4204102-2.5625-1.2602539
		C457.2480469,27.621582,457.0234375,26.9638672,457.0234375,26.2353516z M458.2832031,26.2353516
		c0,0.7285156,0.3085938,1.2885742,0.9238281,1.6801758c0.3359375,0.1958008,0.6865234,0.2939453,1.0507813,0.2939453
		c0.7275391,0,1.28125-0.3081055,1.6582031-0.9238281c0.1972656-0.3359375,0.2949219-0.6860352,0.2949219-1.050293
		c0-0.7416992-0.3085938-1.3017578-0.9238281-1.6796875c-0.3222656-0.1821289-0.6660156-0.2729492-1.0292969-0.2729492
		c-0.7285156,0-1.2890625,0.3081055-1.6796875,0.9238281C458.3808594,25.5288086,458.2832031,25.871582,458.2832031,26.2353516z"/>
	<path d="M76.7348633,55.8105469l5.6069336-15.3300781h1.8901367l5.6069336,15.3300781h-1.8056641L86.5,51.3374023h-6.4677734
		l-1.5541992,4.4731445H76.7348633z M80.4941406,49.9936523h5.5439453l-2.7509766-8.0009766h-0.0419922L80.4941406,49.9936523z"/>
	<path d="M102.2915039,51.4003906c0,2.8842773-1.7709961,4.4169922-5.3129883,4.5991211
		c-0.237793,0.0136719-0.4760742,0.0209961-0.7138672,0.0209961c-1.315918,0-2.6181641-0.1123047-3.9057617-0.3359375v-15.078125
		c1.2314453-0.2236328,2.4638672-0.3359375,3.6958008-0.3359375c3.6821289,0.0141602,5.5297852,1.2529297,5.5439453,3.7167969
		c0,1.2602539-0.5668945,2.2260742-1.7006836,2.8984375c-0.4345703,0.2519531-0.9243164,0.440918-1.4702148,0.5668945v0.0419922
		c1.9179688,0.2939453,3.1289063,1.1411133,3.6328125,2.5410156
		C102.2148438,50.4555664,102.2915039,50.9106445,102.2915039,51.4003906z M96.0546875,41.6357422
		c-0.7138672,0-1.3857422,0.0629883-2.0161133,0.1889648v5.0610352h1.3862305
		c3.0375977-0.0141602,4.5639648-0.9101563,4.578125-2.6879883c0-1.3862305-0.8334961-2.2050781-2.4990234-2.4570313
		C97.0698242,41.6708984,96.5864258,41.6357422,96.0546875,41.6357422z M100.6328125,51.253418
		c0-1.4135742-0.7768555-2.3237305-2.3310547-2.7299805c-0.7558594-0.1958008-1.715332-0.2939453-2.8769531-0.2939453h-1.3862305
		v6.2368164c0.7001953,0.1264648,1.4418945,0.1894531,2.2260742,0.1894531
		C99.0922852,54.5297852,100.5488281,53.3955078,100.6328125,51.253418z"/>
	<path d="M111.7412109,41.6777344c-2.1557617,0-3.7797852,0.7700195-4.8720703,2.3095703
		c-0.7978516,1.1206055-1.1967773,2.5063477-1.1967773,4.1582031c0,2.2680664,0.7275391,3.9970703,2.184082,5.1870117
		c1.0776367,0.8540039,2.3730469,1.28125,3.8847656,1.28125c1.4702148-0.0141602,2.8208008-0.4130859,4.0532227-1.1972656
		l0.5668945,1.2602539c-1.3857422,0.8959961-2.9750977,1.34375-4.7670898,1.34375
		c-2.5341797,0-4.5009766-0.8466797-5.9008789-2.5410156c-1.1479492-1.3999023-1.722168-3.1777344-1.722168-5.3339844
		c0-2.7719727,0.875-4.8647461,2.625-6.2788086c1.3300781-1.0639648,2.9960938-1.5961914,4.9980469-1.5961914
		c1.8061523,0.0141602,3.3950195,0.4619141,4.7670898,1.3442383l-0.5668945,1.2597656
		C114.5483398,42.0766602,113.1972656,41.6777344,111.7412109,41.6777344z"/>
	<path d="M131.2084961,47.9355469c0,3.7797852-1.3789063,6.2441406-4.1367188,7.3920898
		c-1.0922852,0.4619141-2.3730469,0.6928711-3.8432617,0.6928711c-1.2460938,0-2.4853516-0.1123047-3.7167969-0.3359375v-15.078125
		c1.2597656-0.2236328,2.4990234-0.3359375,3.7167969-0.3359375c3.4580078,0,5.8100586,1.1689453,7.0561523,3.5068359
		C130.9003906,44.9399414,131.2084961,46.3256836,131.2084961,47.9355469z M123.2285156,41.6777344
		c-0.7280273,0-1.4067383,0.0629883-2.0371094,0.1889648v12.5576172c0.644043,0.1264648,1.3232422,0.1894531,2.0371094,0.1894531
		c4.2280273-0.0283203,6.3491211-2.2539063,6.3632813-6.6782227c0-3.6396484-1.6313477-5.690918-4.8930664-6.152832
		C124.2363281,41.7128906,123.746582,41.6777344,123.2285156,41.6777344z"/>
	<path d="M135.5131836,41.8876953v4.9980469h6.8671875v1.34375h-6.8671875v6.1738281h7.2871094v1.4072266h-8.9667969V40.4804688
		h8.9667969v1.4072266H135.5131836z"/>
	<path d="M154.9169922,41.8876953h-7.0771484v5.2080078h6.6572266v1.34375h-6.6572266v7.3710938h-1.6796875V40.4804688h8.7568359
		V41.8876953z"/>
	<path d="M165.2695313,41.6357422c-2.3520508,0-4.0878906,0.8188477-5.2080078,2.4570313
		c-0.7558594,1.105957-1.1337891,2.456543-1.1337891,4.0527344c0,2.3662109,0.7905273,4.1303711,2.3730469,5.2919922
		c1.1196289,0.8120117,2.4916992,1.2182617,4.1157227,1.2182617c1.2182617,0,2.3310547-0.2172852,3.3393555-0.6513672
		c0.0419922-0.0136719,0.0698242-0.027832,0.0839844-0.0419922v-5.7329102h-5.3129883v-1.34375h6.9296875v7.9799805
		c-1.5957031,0.7700195-3.3251953,1.1547852-5.1870117,1.1547852c-2.7021484,0-4.7875977-0.8535156-6.2578125-2.5620117
		c-1.1899414-1.3999023-1.7851563-3.1708984-1.7851563-5.3129883c0-2.6879883,0.875-4.7460938,2.625-6.1738281
		c1.3999023-1.1342773,3.1640625-1.7011719,5.2919922-1.7011719c1.777832,0.0141602,3.3603516,0.434082,4.7460938,1.2602539
		l-0.5668945,1.2387695C168.0625,42.0136719,166.7114258,41.6357422,165.2695313,41.6357422z"/>
	<path d="M173.1865234,55.8105469v-1.3652344h2.184082V41.8457031h-2.184082v-1.3652344h2.184082h1.6381836h2.184082v1.3652344
		h-2.184082v12.5996094h2.184082v1.3652344H173.1865234z"/>
	<path d="M185.9125977,44.6806641c1.9458008,0,3.2060547,0.5390625,3.7802734,1.6166992
		c0.3217773,0.6162109,0.4829102,1.4282227,0.4829102,2.4360352v4.137207c0,0.9941406,0.1049805,1.9741211,0.3149414,2.9399414
		h-1.4702148c-0.1259766-0.6298828-0.203125-1.2739258-0.230957-1.9321289h-0.0419922
		c-0.6582031,1.1621094-1.7080078,1.8554688-3.1499023,2.0791016c-0.2939453,0.0419922-0.5878906,0.0629883-0.8818359,0.0629883
		c-1.4003906,0-2.3730469-0.5039063-2.9189453-1.5117188c-0.2661133-0.4760742-0.3994141-1.0219727-0.3994141-1.6381836
		c0-1.5678711,0.8120117-2.6948242,2.4360352-3.3808594c1.0083008-0.40625,2.2329102-0.609375,3.675293-0.609375h1.1337891
		v-0.1049805c0-1.3017578-0.3222656-2.1347656-0.9658203-2.4990234c-0.40625-0.2236328-0.9941406-0.3359375-1.7641602-0.3359375
		c-1.315918,0-2.5410156,0.3222656-3.6748047,0.9663086l-0.2939453-1.2392578
		C183.1474609,45.0097656,184.4707031,44.6806641,185.9125977,44.6806641z M182.909668,52.8076172
		c0,0.9799805,0.4267578,1.6098633,1.2807617,1.8901367c0.2802734,0.0839844,0.5742188,0.1259766,0.8823242,0.1259766
		c1.1054688,0,2.0229492-0.434082,2.7509766-1.3022461c0.5458984-0.671875,0.8188477-1.4350586,0.8188477-2.2890625v-1.1757813
		h-1.1337891c-2.2124023,0-3.6401367,0.5390625-4.2841797,1.6166992
		C183.0146484,52.0234375,182.909668,52.4018555,182.909668,52.8076172z"/>
	<path d="M198.6386719,56.0205078c-1.6103516-0.0141602-2.800293-0.699707-3.5703125-2.0581055h-0.0419922l-0.0209961,1.8481445
		h-1.4697266v-15.75h1.5327148v6.6152344h0.0419922c0.7841797-1.315918,1.9599609-1.980957,3.5283203-1.9951172
		c1.8618164,0,3.1499023,0.847168,3.8637695,2.5410156c0.3637695,0.8818359,0.5458984,1.9248047,0.5458984,3.1289063
		c0,2.4360352-0.7070313,4.1157227-2.1210938,5.0400391C200.269043,55.8105469,199.5063477,56.0205078,198.6386719,56.0205078z
		 M201.5366211,50.3505859c0-2.2260742-0.6582031-3.6191406-1.9741211-4.1791992
		c-0.3920898-0.1538086-0.8120117-0.230957-1.2602539-0.230957c-1.2177734,0-2.1137695,0.5668945-2.6879883,1.7011719
		c-0.3637695,0.7138672-0.5458984,1.5678711-0.5458984,2.5620117v0.2939453c0,1.8623047,0.5532227,3.1362305,1.6591797,3.8217773
		c0.4755859,0.2944336,1.0004883,0.4414063,1.574707,0.4414063c1.3442383,0,2.2890625-0.6650391,2.8354492-1.9951172
		C201.4033203,52.0795898,201.5366211,51.2744141,201.5366211,50.3505859z"/>
	<path d="M210.355957,45.9614258c-1.7216797,0-2.8911133,0.7143555-3.5068359,2.1420898
		c-0.2802734,0.644043-0.4199219,1.3930664-0.4199219,2.2470703c0,1.7080078,0.5668945,2.9541016,1.7011719,3.737793
		c0.6435547,0.4482422,1.3857422,0.6723633,2.2255859,0.6723633c0.9941406-0.0141602,1.9321289-0.2519531,2.8139648-0.7143555
		l0.3994141,1.2392578c-1.050293,0.4902344-2.1420898,0.7348633-3.2763672,0.7348633
		c-1.9038086,0-3.3598633-0.671875-4.3676758-2.0161133c-0.7280273-0.9936523-1.0922852-2.2119141-1.0922852-3.6538086
		c0-2.2817383,0.7773438-3.90625,2.3310547-4.8720703c0.8681641-0.5317383,1.9111328-0.7978516,3.1289063-0.7978516
		c1.1479492,0,2.2397461,0.2451172,3.2763672,0.7348633l-0.3994141,1.28125
		C212.2177734,46.206543,211.2802734,45.9614258,210.355957,45.9614258z"/>
	<path d="M215.8789063,50.3505859c0-2.6176758,0.7773438-4.347168,2.3310547-5.1870117
		c0.6162109-0.3217773,1.309082-0.4829102,2.0791016-0.4829102c1.5820313,0.0141602,2.7578125,0.6791992,3.527832,1.9951172
		h0.0419922v-6.6152344h1.5332031v15.75h-1.4702148l-0.0209961-1.8481445h-0.0419922
		c-0.7841797,1.3583984-1.9736328,2.0439453-3.5698242,2.0581055c-1.7080078,0-2.9472656-0.7558594-3.7167969-2.2680664
		C216.1098633,52.8427734,215.8789063,51.7084961,215.8789063,50.3505859z M217.3911133,50.3505859
		c0,2.0439453,0.5878906,3.3950195,1.7641602,4.0527344c0.4477539,0.2382813,0.9375,0.3574219,1.4697266,0.3574219
		c1.2182617,0,2.1137695-0.5600586,2.6879883-1.6801758c0.3637695-0.7138672,0.5458984-1.5751953,0.5458984-2.5830078v-0.2939453
		c0-1.7919922-0.5249023-3.0517578-1.574707-3.7802734c-0.4902344-0.3217773-1.0429688-0.4829102-1.6591797-0.4829102
		c-1.4980469,0-2.4853516,0.7700195-2.9609375,2.3100586C217.4819336,48.8666992,217.3911133,49.5668945,217.3911133,50.3505859z"/>
	<path d="M229.4658203,50.9384766c0.0419922,1.5825195,0.6435547,2.6953125,1.8061523,3.3388672
		c0.5878906,0.3364258,1.2597656,0.5043945,2.015625,0.5043945c1.105957-0.0141602,2.184082-0.2944336,3.234375-0.840332
		l0.4199219,1.1972656c-1.1904297,0.5878906-2.4501953,0.8818359-3.7802734,0.8818359
		c-1.8476563,0-3.2548828-0.6787109-4.2207031-2.0371094c-0.6860352-0.9794922-1.0292969-2.190918-1.0292969-3.6328125
		c0-2.2539063,0.7143555-3.8710938,2.1420898-4.8510742c0.8120117-0.5458984,1.777832-0.8188477,2.8979492-0.8188477
		c2.1420898,0,3.5703125,0.9238281,4.2841797,2.7719727c0.3076172,0.7978516,0.4619141,1.7290039,0.4619141,2.7929688
		c0,0.3222656-0.0073242,0.5532227-0.0209961,0.6928711H229.4658203z M229.4658203,49.7207031h6.7407227
		c-0.027832-1.8901367-0.6928711-3.0869141-1.9946289-3.5913086c-0.3779297-0.1396484-0.7983398-0.2099609-1.2602539-0.2099609
		c-1.4980469,0-2.5273438,0.644043-3.0869141,1.9321289C229.6264648,48.3974609,229.4936523,49.0205078,229.4658203,49.7207031z"/>
	<path d="M239.7973633,45.3105469h2.8564453v-1.4072266c0.027832-2.4077148,1.1967773-3.6186523,3.5068359-3.6328125
		c0.6435547,0,1.2949219,0.1049805,1.953125,0.3149414l-0.3154297,1.2602539
		c-0.5180664-0.2099609-1.0151367-0.3149414-1.4907227-0.3149414c-1.0078125,0-1.6381836,0.3427734-1.8901367,1.0288086
		c-0.1259766,0.3500977-0.1889648,0.7978516-0.1889648,1.34375v1.4072266h3.7592773v1.2597656h-3.7592773v9.2402344h-1.574707
		v-9.2402344h-2.8564453V45.3105469z"/>
	<path d="M250.5283203,50.140625c0-2.5200195,0.7631836-4.1860352,2.2890625-4.9980469
		c0.6020508-0.3076172,1.2880859-0.4619141,2.0581055-0.4619141c1.6381836,0.0141602,2.8486328,0.6928711,3.6328125,2.0371094
		h0.0419922l0.0419922-1.8271484H260.0625v10.0170898c-0.0283203,3.8076172-1.7363281,5.71875-5.1240234,5.7329102
		c-1.1757813,0-2.3032227-0.2241211-3.3808594-0.671875l0.3359375-1.2392578
		c1.0078125,0.4335938,2.0229492,0.6508789,3.0449219,0.6508789c1.7080078,0,2.7929688-0.6860352,3.2548828-2.0576172
		c0.2099609-0.6303711,0.3149414-1.4145508,0.3149414-2.3520508v-1.3442383h-0.0419922
		c-0.7700195,1.3022461-1.9667969,1.9604492-3.5908203,1.9741211c-1.4702148,0-2.6113281-0.6230469-3.4228516-1.8691406
		C250.8364258,52.765625,250.5283203,51.5683594,250.5283203,50.140625z M252.0405273,50.140625
		c0,1.777832,0.5175781,3.0170898,1.5541992,3.7167969c0.4897461,0.3222656,1.0356445,0.4829102,1.6376953,0.4829102
		c1.2041016,0,2.1069336-0.5317383,2.7089844-1.5957031c0.3779297-0.7001953,0.5668945-1.5332031,0.5668945-2.4990234v-0.2099609
		c0-1.6801758-0.5180664-2.8701172-1.5537109-3.5703125c-0.5039063-0.3496094-1.078125-0.5249023-1.722168-0.5249023
		c-1.4277344,0-2.387207,0.7001953-2.8769531,2.1000977C252.1455078,48.6567383,252.0405273,49.3564453,252.0405273,50.140625z"/>
	<path d="M264.0522461,55.8105469v-15.75h1.6381836v15.75H264.0522461z"/>
	<path d="M274.6572266,55.8105469V42.496582h-0.0419922l-4.1367188,3.8217773l-0.6508789-1.3647461l4.8295898-4.4731445h1.6801758
		v15.3300781H274.6572266z"/>
	<path d="M287.3198242,41.6987305c-1.315918,0-2.6459961,0.4482422-3.9897461,1.34375
		c-0.0703125,0.0419922-0.1259766,0.0771484-0.1679688,0.1049805l-0.5039063-1.34375
		c1.3154297-0.9521484,2.8349609-1.4628906,4.5566406-1.5332031c0.1118164,0,0.2172852,0,0.3149414,0
		c2.1137695,0,3.5351563,0.7280273,4.2631836,2.184082c0.3076172,0.6298828,0.4619141,1.3510742,0.4619141,2.1630859
		c0,1.4560547-0.5668945,2.9262695-1.7006836,4.409668c-1.050293,1.4003906-2.8422852,3.1782227-5.3759766,5.3339844v0.0419922
		h7.1396484v1.4072266h-9.449707v-1.4072266c3.4995117-2.8979492,5.746582-5.1376953,6.7407227-6.7197266
		c0.6162109-0.9941406,0.9243164-1.9741211,0.9243164-2.9399414c0-1.75-0.8125-2.7436523-2.4360352-2.9819336
		C287.8452148,41.7197266,287.5859375,41.6987305,287.3198242,41.6987305z"/>
	<path d="M295.9301758,40.4804688h9.1977539v1.4072266l-5.019043,4.9350586v0.0419922h0.6303711
		c2.3657227,0,3.8217773,0.8681641,4.3676758,2.6040039c0.1538086,0.4760742,0.230957,1.0009766,0.230957,1.574707
		c0,2.2963867-0.9379883,3.8081055-2.8139648,4.5361328c-0.7700195,0.2939453-1.6518555,0.440918-2.6459961,0.440918
		c-1.5117188-0.0141602-2.8422852-0.3779297-3.9897461-1.0917969l0.5039063-1.3652344
		c1.1757813,0.7001953,2.3378906,1.050293,3.4858398,1.050293c2.2397461,0,3.4863281-0.9521484,3.7382813-2.8564453
		c0.027832-0.237793,0.0419922-0.4755859,0.0419922-0.7138672c0-1.5400391-0.8193359-2.4707031-2.4570313-2.7929688
		c-0.5043945-0.0976563-1.0786133-0.1469727-1.722168-0.1469727h-1.5332031v-1.3017578l5.019043-4.8720703v-0.0419922h-7.034668
		V40.4804688z"/>
	<path d="M316.4892578,50.8754883h2.6040039v1.3652344h-2.6040039v3.5698242h-1.6591797v-3.5698242h-7.3500977v-1.3652344
		l7.3500977-10.3950195h1.6591797V50.8754883z M314.8300781,50.8754883V42.9375h-0.0419922l-5.5859375,7.8959961v0.0419922
		H314.8300781z"/>
	<path d="M326.7583008,56.0205078c-2.3100586,0-3.8994141-0.902832-4.7670898-2.7089844
		c-0.434082-0.8959961-0.6513672-1.9741211-0.6513672-3.2338867c0-3.3881836,0.9589844-5.9711914,2.8774414-7.7490234
		c1.3154297-1.1899414,2.9467773-1.8759766,4.8925781-2.0581055l0.2944336,1.4072266
		c-3.2202148,0.3920898-5.2641602,2.2045898-6.1323242,5.4389648l0.0209961,0.0209961
		c0.9799805-1.078125,2.2539063-1.6171875,3.8222656-1.6171875c1.9594727,0,3.3808594,0.6791992,4.2626953,2.0371094
		c0.5458984,0.8398438,0.8193359,1.8408203,0.8193359,3.0029297c0,2.0024414-0.6933594,3.4931641-2.0791016,4.4731445
		C329.1801758,55.6918945,328.0600586,56.0205078,326.7583008,56.0205078z M326.7583008,46.8227539
		c-1.3022461,0-2.3032227,0.4829102-3.003418,1.4487305c-0.4760742,0.6582031-0.7138672,1.4213867-0.7138672,2.2890625
		c0,1.9321289,0.6928711,3.1850586,2.0791016,3.7587891c0.4897461,0.1962891,1.0356445,0.2944336,1.6381836,0.2944336
		c1.7495117,0,2.8979492-0.7211914,3.4438477-2.1630859c0.2099609-0.5600586,0.3149414-1.1899414,0.3149414-1.8901367
		c0-1.5400391-0.5742188-2.625-1.722168-3.2548828C328.2070313,46.9838867,327.527832,46.8227539,326.7583008,46.8227539z"/>
	<path d="M334.8427734,40.4804688h9.8696289v1.4072266c-2.421875,3.9897461-4.4448242,8.6308594-6.0688477,13.9228516h-1.7641602
		c1.6098633-5.0678711,3.6821289-9.6948242,6.2163086-13.8808594v-0.0419922h-8.2529297V40.4804688z"/>
	<path d="M352.6713867,40.2705078c2.2822266,0,3.8642578,0.875,4.7460938,2.625
		c0.4482422,0.8959961,0.6723633,1.9672852,0.6723633,3.2128906c0,3.6962891-1.0996094,6.4125977-3.2973633,8.1479492
		c-1.2739258,0.9946289-2.8349609,1.5820313-4.6831055,1.7641602l-0.2939453-1.4067383
		c3.0244141-0.3364258,5.0332031-1.8339844,6.0273438-4.4941406c0.1259766-0.3081055,0.230957-0.6298828,0.3149414-0.9663086
		l-0.0209961-0.0209961c-0.9941406,1.0922852-2.2680664,1.6381836-3.8222656,1.6381836
		c-1.9599609,0-3.3808594-0.6928711-4.2626953-2.0791016c-0.5463867-0.8535156-0.8193359-1.8759766-0.8193359-3.065918
		c0-1.9321289,0.6860352-3.3876953,2.0581055-4.3681641C350.2148438,40.5996094,351.3413086,40.2705078,352.6713867,40.2705078z
		 M352.6713867,41.6777344c-1.75,0-2.8979492,0.7070313-3.4438477,2.1206055
		c-0.2099609,0.5322266-0.3149414,1.1416016-0.3149414,1.8271484c0,1.6523438,0.6088867,2.7929688,1.8271484,3.4228516
		c0.5595703,0.2802734,1.2036133,0.4204102,1.9316406,0.4204102c1.3022461,0,2.3032227-0.4970703,3.003418-1.4912109
		c0.4755859-0.671875,0.7138672-1.4560547,0.7138672-2.3520508c0-1.8061523-0.6508789-3.0029297-1.953125-3.5908203
		C353.9174805,41.796875,353.3295898,41.6777344,352.6713867,41.6777344z"/>
	<path d="M369.996582,41.8876953h-6.6357422l-0.2944336,4.9560547h0.0419922
		c0.840332-0.4902344,1.7709961-0.7353516,2.793457-0.7353516c2.0996094,0,3.5136719,0.7700195,4.2416992,2.3100586
		c0.3217773,0.671875,0.4829102,1.456543,0.4829102,2.3520508c0,2.7861328-1.2250977,4.4663086-3.6748047,5.0400391
		c-0.6020508,0.1396484-1.2602539,0.2099609-1.9741211,0.2099609c-1.4418945-0.0141602-2.7583008-0.3496094-3.9477539-1.0078125
		l0.4199219-1.3862305c1.1757813,0.6582031,2.3520508,0.9873047,3.527832,0.9873047
		c2.5336914,0,3.8569336-1.1762695,3.9692383-3.5283203c0-0.1118164,0-0.2167969,0-0.3149414
		c0-1.8618164-0.8125-2.9399414-2.4360352-3.2338867c-0.2802734-0.0556641-0.5810547-0.0839844-0.9033203-0.0839844
		c-1.105957,0.0141602-2.0229492,0.3359375-2.7509766,0.9658203h-1.4697266l0.4619141-7.9379883h8.1479492V41.8876953z"/>
	<path d="M378.2915039,41.6357422c-1.5400391,0-2.5058594,0.5039063-2.8979492,1.5117188
		c-0.0981445,0.2802734-0.1469727,0.5810547-0.1469727,0.9033203c0,1.34375,0.9799805,2.3168945,2.9399414,2.9189453
		c0.0136719,0.0141602,0.027832,0.0209961,0.0419922,0.0209961c2.3237305,0.671875,3.7871094,1.6166992,4.3891602,2.8349609
		c0.2797852,0.5742188,0.4199219,1.2387695,0.4199219,1.9946289c0,2.0024414-0.8959961,3.2973633-2.6879883,3.8852539
		c-0.644043,0.2099609-1.3789063,0.3149414-2.2050781,0.3149414c-1.7358398-0.0141602-3.2758789-0.4545898-4.6201172-1.3227539
		l0.5043945-1.3862305c1.2177734,0.8681641,2.5898438,1.3022461,4.1157227,1.3022461
		c1.8061523,0,2.855957-0.6860352,3.1499023-2.0581055c0.0419922-0.237793,0.0629883-0.4829102,0.0629883-0.7353516
		c0-1.0917969-0.4267578-1.9174805-1.2807617-2.4775391c-0.4619141-0.2944336-1.0917969-0.5673828-1.8901367-0.8193359
		c-2.8979492-0.8676758-4.4238281-2.2397461-4.5776367-4.1157227c-0.0141602-0.1259766-0.0209961-0.2451172-0.0209961-0.3569336
		c0-1.4560547,0.6367188-2.5131836,1.9106445-3.1713867c0.7700195-0.4057617,1.7011719-0.6088867,2.7929688-0.6088867
		c1.5820313,0,3.0522461,0.3291016,4.4101563,0.9868164l-0.4199219,1.3022461
		C381.0634766,41.9438477,379.7333984,41.6357422,378.2915039,41.6357422z"/>
	<path d="M390.8071289,40.2705078c2.0717773,0,3.5283203,0.5742188,4.3681641,1.722168
		c0.4057617,0.5742188,0.6088867,1.2250977,0.6088867,1.9526367c0,1.6245117-0.9101563,2.793457-2.7299805,3.5073242
		c-0.0839844,0.0283203-0.1542969,0.0561523-0.2099609,0.0839844v0.0419922
		c2.3100586,0.7001953,3.472168,2.0649414,3.4863281,4.0947266c0,1.6665039-0.7285156,2.8774414-2.184082,3.6333008
		c-0.9243164,0.4760742-2.0371094,0.7138672-3.3393555,0.7138672c-2.2817383,0-3.8847656-0.6577148-4.8085938-1.9741211
		c-0.4760742-0.671875-0.7143555-1.4624023-0.7143555-2.3730469c0-1.4697266,0.7421875-2.6176758,2.2260742-3.4438477
		c0.3920898-0.2099609,0.8120117-0.3847656,1.2602539-0.5249023v-0.0419922
		c-1.5405273-0.5737305-2.4780273-1.4980469-2.8139648-2.7719727c-0.0839844-0.3076172-0.1259766-0.6230469-0.1259766-0.9453125
		c0-1.371582,0.6508789-2.3867188,1.9526367-3.0449219C388.609375,40.4804688,389.6171875,40.2705078,390.8071289,40.2705078z
		 M390.7441406,48.3134766c-2.2539063,0.4619141-3.5209961,1.3793945-3.8007813,2.7509766
		c-0.0419922,0.1821289-0.0629883,0.3642578-0.0629883,0.5458984c0,1.3022461,0.6225586,2.2050781,1.8691406,2.7089844
		c0.5878906,0.2382813,1.2734375,0.3574219,2.0576172,0.3574219c1.7641602,0,2.9472656-0.5463867,3.5493164-1.6381836
		c0.2236328-0.4335938,0.3359375-0.9101563,0.3359375-1.4282227c0-1.6933594-1.3022461-2.7929688-3.90625-3.296875
		C390.7724609,48.3134766,390.7583008,48.3134766,390.7441406,48.3134766z M390.8071289,46.9907227
		c1.7080078-0.3500977,2.7861328-1.0292969,3.234375-2.0371094c0.1118164-0.2797852,0.1679688-0.5668945,0.1679688-0.8608398
		c0-1.0922852-0.5668945-1.8339844-1.7011719-2.2260742c-0.5039063-0.1679688-1.0708008-0.2519531-1.7011719-0.2519531
		c-1.6376953,0-2.6879883,0.4902344-3.1499023,1.4697266c-0.1401367,0.3081055-0.2099609,0.644043-0.2099609,1.0083008
		c0,1.0917969,0.6508789,1.9179688,1.953125,2.4775391C389.8203125,46.7524414,390.2890625,46.8925781,390.8071289,46.9907227z"/>
	<path d="M403.8271484,40.2705078c3.0522461,0,4.8369141,1.7783203,5.3554688,5.3339844
		c0.1118164,0.7700195,0.1679688,1.6171875,0.1679688,2.5410156c0,4.9003906-1.5961914,7.5112305-4.7880859,7.8330078
		c-0.2382813,0.027832-0.4829102,0.0419922-0.7353516,0.0419922c-3.0517578,0-4.8369141-1.777832-5.3549805-5.3339844
		c-0.1118164-0.7695313-0.1679688-1.6171875-0.1679688-2.5410156c0-4.8999023,1.5961914-7.5107422,4.7880859-7.8330078
		C403.3300781,40.284668,403.5751953,40.2705078,403.8271484,40.2705078z M403.8271484,54.6557617
		c1.8339844,0,3.0102539-1.0571289,3.5283203-3.1713867c0.2099609-0.909668,0.3149414-2.0229492,0.3149414-3.3388672
		c0-3.5698242-0.8330078-5.6625977-2.4990234-6.2788086c-0.40625-0.1538086-0.8540039-0.230957-1.3442383-0.230957
		c-1.8339844,0-3.0097656,1.0571289-3.527832,3.1708984c-0.2099609,0.8959961-0.3149414,2.0087891-0.3149414,3.3388672
		c0,3.5698242,0.8330078,5.6630859,2.4990234,6.2788086C402.8891602,54.5786133,403.3374023,54.6557617,403.8271484,54.6557617z"/>
	<path d="M418.6743164,56.0205078c-2.4643555,0-4.3818359-0.8325195-5.7539063-2.4990234
		c-1.1621094-1.4140625-1.7431641-3.2055664-1.7431641-5.3759766c0-2.6318359,0.8193359-4.6689453,2.4570313-6.1108398
		c1.3442383-1.1762695,3.0239258-1.7641602,5.0400391-1.7641602c2.4638672,0,4.3823242,0.8330078,5.753418,2.4990234
		c1.1621094,1.4140625,1.7441406,3.2060547,1.7441406,5.3759766c0,2.6323242-0.8193359,4.6694336-2.4570313,6.1108398
		C422.3710938,55.4326172,420.6904297,56.0205078,418.6743164,56.0205078z M418.6743164,54.6137695
		c2.0019531,0,3.534668-0.7490234,4.5991211-2.2470703c0.7832031-1.1342773,1.1757813-2.5410156,1.1757813-4.2211914
		c0-2.3378906-0.7207031-4.0947266-2.1621094-5.2709961c-0.9951172-0.7978516-2.1987305-1.1967773-3.612793-1.1967773
		c-2.0019531,0-3.5351563,0.7490234-4.5991211,2.246582c-0.7841797,1.1342773-1.1757813,2.5410156-1.1757813,4.2211914
		c0,2.3383789,0.7207031,4.0952148,2.1630859,5.2709961C416.0561523,54.2143555,417.2602539,54.6137695,418.6743164,54.6137695z"/>
	<path d="M429.8457031,60.4306641V38.8007813h1.5546875v21.6298828H429.8457031z"/>
	<path d="M437.0703125,40.4804688h1.9736328l-0.2099609,11.0668945h-1.5546875L437.0703125,40.4804688z M437.1542969,55.8105469
		v-2.5830078h1.8056641v2.5830078H437.1542969z"/>
	<path d="M451.6015625,43.840332c0-1.2875977-0.9726563-1.9946289-2.9179688-2.1206055
		c-0.2109375-0.0141602-0.4277344-0.0209961-0.6523438-0.0209961c-1.4414063,0-2.9257813,0.2451172-4.4511719,0.7348633
		l-0.3359375-1.4282227c1.6660156-0.4897461,3.3320313-0.7348633,4.9980469-0.7348633
		c2.3935547,0,3.9609375,0.6298828,4.703125,1.8901367c0.2666016,0.4482422,0.3994141,0.9589844,0.3994141,1.5327148
		c0,1.246582-0.5244141,2.2890625-1.5751953,3.1293945c-0.2382813,0.1958008-0.5800781,0.440918-1.0292969,0.7348633
		c-0.9648438,0.644043-1.6162109,1.1899414-1.9521484,1.6376953c-0.4619141,0.6445313-0.6933594,1.4003906-0.6933594,2.2680664
		h-1.6796875c0-1.4975586,0.5878906-2.7368164,1.7636719-3.7167969c0.2666016-0.2236328,0.6650391-0.5175781,1.1972656-0.8818359
		c0.9091797-0.6162109,1.5048828-1.1269531,1.7851563-1.5332031
		C451.4550781,44.8837891,451.6015625,44.3867188,451.6015625,43.840332z M446.3515625,55.8105469v-2.5830078h1.8271484v2.5830078
		H446.3515625z"/>
	<path d="M457.5449219,47.6835938v-2.9399414h1.9746094v2.9399414H457.5449219z M457.5449219,55.8105469v-2.9399414h1.9746094
		v2.9399414H457.5449219z"/>
	<path d="M464.0341797,58.1206055l1.5322266-5.1870117H467.6875l-2.0996094,5.1870117H464.0341797z M465.4619141,47.6835938
		v-2.9399414h1.9736328v2.9399414H465.4619141z"/>
	<path d="M472.4121094,55.8105469v-2.9399414h1.9746094v2.9399414H472.4121094z"/>
	<path d="M479.1738281,52.9335938h2.1210938l-2.0996094,5.1870117h-1.5546875L479.1738281,52.9335938z"/>
	<path d="M482.7226563,58.7504883v-1.2597656h12.3066406v1.2597656H482.7226563z"/>
	<path d="M496.6660156,50.3925781v-1.3442383h6.2167969v1.3442383H496.6660156z"/>
	<path d="M511.4082031,50.0146484c-1.3300781-0.6162109-2.2949219-0.9243164-2.8964844-0.9243164
		c-0.7421875,0-1.1835938,0.40625-1.3242188,1.2182617c-0.0410156,0.2661133-0.0625,0.5600586-0.0625,0.8818359h-1.40625
		c0.0136719-2.3237305,0.8730469-3.4926758,2.5820313-3.5068359c0.9375,0.0141602,2.2402344,0.40625,3.90625,1.1757813
		c1.3300781,0.6162109,2.2949219,0.9243164,2.8984375,0.9243164c0.796875,0,1.2460938-0.440918,1.34375-1.3232422
		c0.0273438-0.1816406,0.0410156-0.3706055,0.0410156-0.5668945h1.4082031
		c-0.0566406,2.15625-0.9179688,3.2548828-2.5839844,3.296875C514.3769531,51.1767578,513.0742188,50.784668,511.4082031,50.0146484
		z"/>
	<path d="M525.6679688,49.1953125c0,3.4584961-1.1210938,6.4052734-3.3613281,8.8413086
		c-0.2382813,0.2519531-0.4746094,0.4897461-0.7128906,0.7138672h-1.5957031
		c2.7011719-2.5620117,4.0527344-5.746582,4.0527344-9.5551758c-0.0136719-3.8217773-1.3652344-7.0063477-4.0527344-9.5546875
		h1.5957031c2.421875,2.2402344,3.765625,5.0400391,4.03125,8.3999023
		C525.6523438,48.4326172,525.6679688,48.8173828,525.6679688,49.1953125z"/>
	<path d="M529.0273438,40.9003906V39.640625h2.0996094c1.4140625,0,2.3027344,0.5112305,2.6679688,1.5327148
		c0.1386719,0.4482422,0.2089844,0.9873047,0.2089844,1.6171875v3.1499023
		c0.0136719,1.7084961,0.5957031,2.5693359,1.7441406,2.5830078h0.9238281v1.3442383h-0.9238281
		c-1.1484375,0.0283203-1.7304688,0.8891602-1.7441406,2.5830078v3.1499023c0,1.5961914-0.4902344,2.5756836-1.46875,2.9399414
		c-0.3925781,0.1396484-0.8613281,0.2099609-1.4082031,0.2099609h-2.0996094v-1.2597656h1.40625
		c0.8691406,0,1.4277344-0.1889648,1.6796875-0.5673828c0.2382813-0.3500977,0.3574219-0.9311523,0.3574219-1.7426758v-2.7929688
		c0-1.512207,0.5175781-2.5410156,1.5546875-3.0869141c0.0703125-0.0283203,0.1328125-0.0561523,0.1894531-0.0844727v-0.0419922
		c-1.0917969-0.5039063-1.6738281-1.4555664-1.7441406-2.855957c0-0.1118164,0-0.2167969,0-0.3149414v-2.7929688
		c0-1.1474609-0.2578125-1.8481445-0.7773438-2.1000977c-0.2792969-0.1396484-0.6992188-0.2099609-1.2597656-0.2099609H529.0273438z
		"/>
	<path d="M543.8320313,40.9003906h-4.1152344V39.640625h5.6699219v19.1098633h-5.6699219v-1.2597656h4.1152344V40.9003906z"/>
</g>
<g>
	<path d="M86.2270508,86.0463867h-0.0419922l-2.3310547,12.2431641h-3.4858398l-3.5493164-15.3300781h3.0029297
		l2.3100586,12.2431641h0.0419922l2.2470703-12.2431641h3.6542969l2.246582,12.2431641h0.0419922l2.3100586-12.2431641h2.9189453
		l-3.5488281,15.3300781h-3.4858398L86.2270508,86.0463867z"/>
	<path d="M99.8554688,93.8164063c0.0981445,1.1762695,0.6582031,1.9814453,1.6801758,2.4150391
		c0.4335938,0.1821289,0.909668,0.2729492,1.4277344,0.2729492c1.050293-0.0136719,2.0791016-0.2729492,3.0874023-0.7768555
		l0.6298828,1.9321289c-1.2739258,0.5600586-2.6040039,0.8398438-3.9902344,0.8398438
		c-1.9179688,0-3.3881836-0.6577148-4.409668-1.9741211c-0.7700195-0.9936523-1.1552734-2.2260742-1.1552734-3.6958008
		c0-2.2119141,0.7280273-3.8149414,2.184082-4.809082c0.8681641-0.5737305,1.9038086-0.8608398,3.1079102-0.8608398
		c2.2539063,0,3.7871094,0.8891602,4.5991211,2.6669922c0.3637695,0.8398438,0.5458984,1.8198242,0.5458984,2.9399414
		c0,0.3500977-0.0209961,0.7001953-0.0629883,1.0498047H99.8554688z M99.8554688,91.9477539h5.1240234
		c-0.0141602-1.5541992-0.6230469-2.4638672-1.8266602-2.7299805c-0.2241211-0.0561523-0.4624023-0.0839844-0.7143555-0.0839844
		c-1.2177734,0-2.015625,0.5600586-2.394043,1.6796875C99.9326172,91.1635742,99.8696289,91.5415039,99.8554688,91.9477539z"/>
	<path d="M109.9355469,82.5395508h2.7299805v6.2368164h0.0419922c0.8398438-1.0776367,1.9106445-1.6166992,3.2128906-1.6166992
		c1.8618164,0,3.1425781,0.8608398,3.8427734,2.5830078c0.3500977,0.8540039,0.5253906,1.8828125,0.5253906,3.0869141
		c0,2.3803711-0.6865234,4.0390625-2.0581055,4.9770508c-0.6723633,0.4619141-1.4423828,0.6928711-2.3100586,0.6928711
		c-1.4003906-0.0141602-2.5131836-0.5947266-3.3388672-1.7431641h-0.0419922l-0.0419922,1.5332031h-2.5620117V82.5395508z
		 M117.6635742,92.8295898c0-2.0581055-0.6655273-3.2197266-1.9951172-3.4858398
		c-0.1679688-0.0283203-0.3432617-0.0419922-0.5249023-0.0419922c-1.0083008,0-1.722168,0.5180664-2.1420898,1.5537109
		c-0.2241211,0.5322266-0.3359375,1.1552734-0.3359375,1.8691406v0.2099609c0,1.6240234,0.4829102,2.6811523,1.4487305,3.1708984
		c0.3217773,0.1679688,0.6650391,0.2519531,1.0292969,0.2519531c1.0214844,0,1.7495117-0.5249023,2.1835938-1.574707
		C117.5512695,94.2363281,117.6635742,93.5854492,117.6635742,92.8295898z"/>
	<path d="M122.5566406,83.3793945c5.6557617,0,11.409668-0.1396484,17.2617188-0.4199219l0.1049805,2.5200195
		c-4.5917969,0.3920898-7.6513672,1.6455078-9.1767578,3.7592773c-0.644043,0.8959961-0.9663086,1.8969727-0.9663086,3.0029297
		c0,1.8759766,0.7353516,3.2270508,2.2050781,4.0527344c0.8398438,0.4619141,1.8339844,0.6933594,2.9819336,0.6933594
		c0.8120117,0,1.6660156-0.0844727,2.5620117-0.2524414l0.3149414,2.5620117
		c-1.0498047,0.1962891-2.0576172,0.2939453-3.0239258,0.2939453c-2.828125,0-4.9702148-0.8188477-6.4257813-2.456543
		c-1.078125-1.2319336-1.6171875-2.7719727-1.6171875-4.6201172c0-2.2119141,0.9663086-4.0952148,2.8979492-5.6489258
		c0.5180664-0.4204102,1.0849609-0.7910156,1.7011719-1.1132813v-0.0419922
		c-3.065918,0.1259766-6.0058594,0.1889648-8.8198242,0.1889648V83.3793945z M138.4956055,91.2963867l-2.1630859,1.0292969
		c-0.5600586-1.105957-1.1552734-2.21875-1.7851563-3.3393555l2.1630859-1.0917969
		C137.3681641,89.0844727,137.9633789,90.21875,138.4956055,91.2963867z M141.8974609,90.6245117l-2.2050781,1.0498047
		c-0.6298828-1.2177734-1.2387695-2.3515625-1.8271484-3.4018555l2.2050781-1.112793
		C140.5883789,88.0834961,141.1972656,89.2387695,141.8974609,90.6245117z"/>
	<path d="M144.9003906,83.3164063h15.1201172v14.8261719h-15.1201172v-2.5200195h12.3271484v-9.7861328h-12.3271484V83.3164063z"/>
	<path d="M165.7954102,85.0595703l1.3442383-2.5200195c2.1274414,1.0078125,4.2973633,2.1352539,6.5097656,3.3808594
		l-1.4072266,2.4780273C170.3662109,87.3486328,168.2172852,86.2353516,165.7954102,85.0595703z M179.9702148,84.5556641
		l2.6669922,0.5878906c-1.1201172,6.328125-4.4726563,10.4511719-10.0585938,12.3691406
		c-1.7504883,0.6020508-3.7172852,1.0004883-5.9013672,1.1967773l-0.4199219-2.7299805
		c4.8720703-0.4755859,8.4208984-2.0087891,10.6469727-4.5991211
		C178.3745117,89.6586914,179.3959961,87.3837891,179.9702148,84.5556641z"/>
	<path d="M200.8022461,80.4394531c1.2880859,0,2.3378906,0.4902344,3.1503906,1.4702148
		c0.6298828,0.7700195,0.9448242,1.6450195,0.9448242,2.625c0,1.2880859-0.4902344,2.3378906-1.4702148,3.1499023
		c-0.7700195,0.6298828-1.6450195,0.9448242-2.625,0.9448242h-0.1049805
		c-3.7099609,1.1484375-7.3427734,2.0092773-10.8989258,2.5830078v2.8139648c0,1.0786133,0.1958008,1.7641602,0.5878906,2.0581055
		c0.3500977,0.2519531,0.9731445,0.3779297,1.8691406,0.3779297c3.3178711,0,6.4892578-0.1049805,9.5131836-0.3149414
		l0.0839844,2.6040039c-3.4160156,0.2099609-6.6855469,0.3149414-9.8071289,0.3149414
		c-2.0161133,0-3.3881836-0.40625-4.1162109-1.2177734c-0.6582031-0.7558594-0.9868164-2.0581055-0.9868164-3.90625V82.6865234
		h2.855957v5.8588867c2.5336914-0.4199219,5.0820313-0.9794922,7.644043-1.6796875
		c-0.4902344-0.7001953-0.7348633-1.4770508-0.7348633-2.3310547c0-1.2880859,0.4897461-2.3378906,1.4697266-3.1499023
		C198.9472656,80.7543945,199.8222656,80.4394531,200.8022461,80.4394531z M200.8022461,86.8447266
		c0.8261719,0,1.4628906-0.3432617,1.9111328-1.0292969c0.265625-0.3916016,0.3989258-0.8188477,0.3989258-1.2807617
		c0-0.8261719-0.3432617-1.4628906-1.0288086-1.9111328c-0.3920898-0.265625-0.8188477-0.3989258-1.28125-0.3989258
		c-0.8261719,0-1.4628906,0.3432617-1.9106445,1.0288086c-0.2661133,0.3920898-0.3994141,0.8193359-0.3994141,1.28125
		c0,0.8261719,0.3432617,1.4628906,1.0292969,1.9106445C199.9130859,86.7114258,200.340332,86.8447266,200.8022461,86.8447266z"/>
	<path d="M210.1894531,86.4033203h9.9121094l-0.5673828,9.7231445h3.2133789v2.2890625h-14.2802734v-2.2890625h8.2739258
		l0.4624023-7.434082h-7.0141602V86.4033203z"/>
	<path d="M229.887207,91.9267578l-2.4355469-1.2182617l1.112793-2.3730469l1.5332031,0.7773438
		c0.0136719,0,0.2026367,0.0629883,0.5668945,0.1889648l0.5668945,0.0209961h14.0488281v2.8139648h-14.3217773
		c-0.1123047,0-0.3081055-0.0209961-0.5878906-0.0629883L229.887207,91.9267578z"/>
	<path d="M251.1816406,99.4023438l-0.4414063-2.5200195c3.9619141-0.3916016,6.8041992-1.3505859,8.5263672-2.8769531
		c0.2236328-0.2099609,0.4335938-0.4267578,0.6298828-0.6508789c-1.6665039-0.8535156-3.6049805-1.777832-5.8168945-2.7719727
		l1.3227539-2.4360352c2.2539063,1.0083008,4.2280273,1.9462891,5.921875,2.8139648
		c0.5043945-1.315918,0.8120117-2.9326172,0.9243164-4.8510742h-7.3291016
		c-0.8681641,2.2963867-2.2402344,4.340332-4.1162109,6.1323242l-1.9316406-1.7011719
		c1.9458008-1.9179688,3.2827148-4.2421875,4.0107422-6.972168c0.1679688-0.6577148,0.2939453-1.3085938,0.3779297-1.9526367
		l2.6669922,0.1679688c-0.0698242,0.6860352-0.1611328,1.2880859-0.2729492,1.8056641h9.5761719v0.9033203
		c0,5.0961914-1.2182617,8.8129883-3.6538086,11.1508789C259.3505859,97.7578125,255.8852539,99.0102539,251.1816406,99.4023438z"/>
	<path d="M280.3505859,96.5463867c2.3378906-0.3076172,3.8217773-1.4907227,4.4516602-3.5488281
		c0.2099609-0.6855469,0.3149414-1.4418945,0.3149414-2.2680664c0-1.7919922-0.644043-3.2128906-1.9316406-4.2631836
		c-0.8120117-0.6577148-1.7714844-1.0634766-2.8769531-1.2177734c-0.8544922,6.6362305-2.1420898,10.7519531-3.8642578,12.3481445
		c-0.7001953,0.644043-1.519043,0.9658203-2.4570313,0.9658203c-1.0361328,0-1.9951172-0.5458984-2.8769531-1.6381836
		c-1.1201172-1.3857422-1.6796875-3.0795898-1.6796875-5.081543c0-2.7163086,0.9165039-4.9140625,2.7509766-6.5942383
		c1.8613281-1.7080078,4.2836914-2.5620117,7.265625-2.5620117c2.421875,0,4.4238281,0.7631836,6.0063477,2.2890625
		c1.5537109,1.5258789,2.3305664,3.4438477,2.3305664,5.7539063c0,2.9541016-0.902832,5.1870117-2.7089844,6.6992188
		c-1.1337891,0.9516602-2.5195313,1.4975586-4.1577148,1.6376953L280.3505859,96.5463867z M277.5366211,85.3745117
		c-2.1704102,0.4199219-3.7172852,1.4770508-4.6411133,3.1708984c-0.5322266,0.9804688-0.7978516,2.0791016-0.7978516,3.2973633
		c0,1.3579102,0.3286133,2.4916992,0.9868164,3.4018555c0.3217773,0.434082,0.6225586,0.6582031,0.902832,0.671875
		c0.5458984,0,1.105957-0.706543,1.6801758-2.1210938C276.4233398,91.9194336,277.0463867,89.112793,277.5366211,85.3745117z"/>
	<path d="M297.8222656,84.8496094v-3.4228516h2.6669922v3.4228516h3.3603516v-3.4228516h2.7299805v3.4228516h2.8979492v2.3730469
		h-2.8979492v6.824707h-8.7573242v-6.824707h-2.7929688v9.2397461h13.4609375v2.394043h-13.4609375v1.3862305h-2.8139648V87.2226563
		h-2.4780273v-2.3730469h2.4780273v-3.4228516h2.8139648v3.4228516H297.8222656z M300.4892578,87.2226563v4.6621094h3.3603516
		v-4.6621094H300.4892578z"/>
	<path d="M322.9804688,100.074707v-6.8671875h1.4487305c-1.0361328-0.671875-2.015625-1.4140625-2.9399414-2.2260742h-1.7636719
		c-0.9384766,0.8261719-1.918457,1.5683594-2.9399414,2.2260742h1.6586914v0.3569336
		c0,2.15625-0.5810547,3.7524414-1.7426758,4.7880859c-0.9384766,0.8256836-2.3803711,1.4702148-4.3261719,1.9321289
		l-1.050293-2.3100586c1.8618164-0.5039063,3.059082-1.0151367,3.5913086-1.5332031
		c0.5039063-0.4755859,0.7768555-1.2666016,0.8188477-2.3730469c0-0.0839844,0-0.1538086,0-0.2099609
		c-1.2460938,0.7280273-2.6533203,1.3793945-4.2207031,1.953125l-0.9873047-2.4570313
		c2.1699219-0.7275391,4.0039063-1.519043,5.5019531-2.3730469h-0.8398438h-2.8139648v-9.4287109h16.4638672v9.4287109h-3.6538086
		c1.5117188,0.8540039,3.3457031,1.6455078,5.5019531,2.3730469l-0.9873047,2.4570313
		c-1.2880859-0.4755859-2.5688477-1.0566406-3.8427734-1.7431641v6.0063477H322.9804688z M319.2421875,85.3115234v-1.5332031
		h-4.0527344v1.5332031H319.2421875z M319.2421875,87.2856445h-4.0527344v1.5957031h4.0527344V87.2856445z M321.9726563,85.3115234
		h4.0527344v-1.5332031h-4.0527344V85.3115234z M321.9726563,87.2856445v1.5957031h4.0527344v-1.5957031H321.9726563z"/>
	<path d="M345.387207,91.4223633c0,4.5361328-0.9311523,7.1118164-2.7929688,7.7280273
		c-0.2661133,0.0839844-0.5458984,0.1259766-0.8398438,0.1259766c-1.105957,0-2.4150391-0.2661133-3.9267578-0.7978516
		c-0.1962891-0.0561523-0.3710938-0.1191406-0.5253906-0.1889648l0.7353516-2.4150391
		c1.4697266,0.5322266,2.5200195,0.7978516,3.1499023,0.7978516c0.4619141,0,0.8256836-0.6157227,1.0917969-1.8476563
		c0.2099609-0.9941406,0.3149414-2.2680664,0.3149414-3.8222656c0-1.5957031-0.0629883-2.5478516-0.1889648-2.855957
		c-0.1401367-0.2939453-0.4550781-0.4545898-0.9448242-0.4829102c-0.1401367-0.0136719-0.3710938-0.0209961-0.6928711-0.0209961
		h-2.2470703c-0.9243164,3.9619141-2.184082,7.8959961-3.7802734,11.8017578l-2.3730469-0.8398438
		c1.3720703-3.4155273,2.5341797-7.0698242,3.4863281-10.9619141h-3.1289063v-2.3730469h3.6748047
		c0.3217773-1.5258789,0.5878906-2.9326172,0.7978516-4.2211914l2.5200195,0.2314453
		c-0.1821289,1.3300781-0.4130859,2.659668-0.6928711,3.9897461h1.4702148c1.8193359,0,2.9819336,0.0913086,3.4858398,0.2729492
		c0.6157227,0.2241211,1.0146484,0.7348633,1.1967773,1.5332031
		C345.3173828,87.7338867,345.387207,89.1826172,345.387207,91.4223633z M348.2856445,85.6264648l-2.1630859,1.0292969
		c-0.5600586-1.105957-1.1552734-2.21875-1.7851563-3.3393555l2.1630859-1.0917969
		C347.1582031,83.4145508,347.753418,84.5488281,348.2856445,85.6264648z M349.0205078,95.4125977
		c-0.7558594-2.4780273-1.6523438-5.0048828-2.6879883-7.5810547l2.4780273-0.8818359
		c1.1894531,2.9682617,2.1137695,5.5581055,2.7719727,7.7700195L349.0205078,95.4125977z M351.6875,84.9545898l-2.2050781,1.0498047
		c-0.6298828-1.2177734-1.2387695-2.3520508-1.8271484-3.4018555l2.2050781-1.112793
		C350.378418,82.4135742,350.9873047,83.5683594,351.6875,84.9545898z"/>
	<path d="M364.4555664,83.0644531h7.3286133V85.4375h-14.8046875v4.2841797c0,4.1298828-0.671875,7.3920898-2.0161133,9.7856445
		c-0.1401367,0.2382813-0.2802734,0.4624023-0.4199219,0.6723633l-1.9321289-2.3100586
		c0.840332-1.5820313,1.3579102-3.6821289,1.5541992-6.300293c0.0698242-1.0917969,0.1049805-2.3657227,0.1049805-3.8217773
		v-4.6831055h7.3291016v-2.3100586h2.855957V83.0644531z M365.6313477,92.1787109l2.4150391-1.1762695
		c1.6098633,2.828125,3.0375977,5.5371094,4.2841797,8.1269531l-2.4360352,1.1552734
		c-0.2099609-0.4199219-0.5322266-1.0712891-0.9663086-1.953125c-4.3676758,0.6855469-8.5400391,1.112793-12.515625,1.28125
		l-0.1469727-2.3730469c0.8398438-0.0283203,1.4555664-0.0561523,1.8476563-0.0839844
		c1.5258789-3.4580078,2.8979492-7.1469727,4.1162109-11.0673828l2.7929688,0.609375
		c-1.1479492,3.6401367-2.4223633,7.0488281-3.8222656,10.2265625c2.0161133-0.1816406,4.2211914-0.4267578,6.6152344-0.7348633
		C367.0732422,94.7758789,366.3452148,93.4384766,365.6313477,92.1787109z"/>
	<path d="M387.387207,91.4223633c0,4.5361328-0.9311523,7.1118164-2.7929688,7.7280273
		c-0.2661133,0.0839844-0.5458984,0.1259766-0.8398438,0.1259766c-1.105957,0-2.4150391-0.2661133-3.9267578-0.7978516
		c-0.1962891-0.0561523-0.3710938-0.1191406-0.5253906-0.1889648l0.7353516-2.4150391
		c1.4697266,0.5322266,2.5200195,0.7978516,3.1499023,0.7978516c0.4619141,0,0.8256836-0.6157227,1.0917969-1.8476563
		c0.2099609-0.9941406,0.3149414-2.2680664,0.3149414-3.8222656c0-1.5957031-0.0629883-2.5478516-0.1889648-2.855957
		c-0.1401367-0.2939453-0.4550781-0.4545898-0.9448242-0.4829102c-0.1401367-0.0136719-0.3710938-0.0209961-0.6928711-0.0209961
		h-2.2470703c-0.9243164,3.9619141-2.184082,7.8959961-3.7802734,11.8017578l-2.3730469-0.8398438
		c1.3720703-3.4155273,2.5341797-7.0698242,3.4863281-10.9619141h-3.1289063v-2.3730469h3.6748047
		c0.3217773-1.5258789,0.5878906-2.9326172,0.7978516-4.2211914l2.5200195,0.2314453
		c-0.1821289,1.3300781-0.4130859,2.659668-0.6928711,3.9897461h1.4702148c1.8193359,0,2.9819336,0.0913086,3.4858398,0.2729492
		c0.6157227,0.2241211,1.0146484,0.7348633,1.1967773,1.5332031
		C387.3173828,87.7338867,387.387207,89.1826172,387.387207,91.4223633z M390.2856445,85.6264648l-2.1630859,1.0292969
		c-0.5600586-1.105957-1.1552734-2.21875-1.7851563-3.3393555l2.1630859-1.0917969
		C389.1582031,83.4145508,389.753418,84.5488281,390.2856445,85.6264648z M391.0205078,95.4125977
		c-0.7558594-2.4780273-1.6523438-5.0048828-2.6879883-7.5810547l2.4780273-0.8818359
		c1.1894531,2.9682617,2.1137695,5.5581055,2.7719727,7.7700195L391.0205078,95.4125977z M393.6875,84.9545898l-2.2050781,1.0498047
		c-0.6298828-1.2177734-1.2387695-2.3520508-1.8271484-3.4018555l2.2050781-1.112793
		C392.378418,82.4135742,392.9873047,83.5683594,393.6875,84.9545898z"/>
	<path d="M397.8242188,82.2666016h2.7299805v4.1157227h0.0209961c1.4702148-2.3657227,3.3813477-3.5976563,5.7333984-3.6958008
		c0.0839844,0,0.1679688,0,0.2519531,0c2.1420898,0,3.6958008,0.8818359,4.6621094,2.6459961
		c0.6298828,1.1479492,0.9448242,2.5761719,0.9448242,4.2841797c0,3.9760742-1.3374023,6.7197266-4.0112305,8.2319336
		c-1.9316406,1.0917969-4.6547852,1.6376953-8.1689453,1.6376953l-0.1469727-2.5200195
		c3.6821289,0,6.2163086-0.6508789,7.6020508-1.9526367c1.1899414-1.1342773,1.7851563-2.9331055,1.7851563-5.3969727
		c0-2.6181641-0.8330078-4.0390625-2.4990234-4.2631836c-0.1401367-0.0136719-0.2871094-0.0209961-0.440918-0.0209961
		c-1.3305664,0-2.5551758,0.6298828-3.675293,1.8901367c-1.3017578,1.4697266-2.0161133,3.2900391-2.1420898,5.4599609
		c0,0.0839844,0,0.1611328,0,0.230957l-2.6459961-0.0209961V82.2666016z"/>
	<path d="M417.4174805,83.5263672h8.3364258v-2.0366211h2.6464844v2.0366211h5.3964844v2.3730469h-5.3964844v1.8271484h4.6201172
		v2.3310547h-4.6201172v3.4018555c1.5253906,0.8681641,3.1777344,2.1074219,4.9560547,3.7172852l-1.6591797,1.8476563
		c-1.1484375-1.0634766-2.28125-1.9946289-3.4023438-2.7929688c-0.2792969,1.5825195-1.1191406,2.5830078-2.5195313,3.0029297
		c-0.671875,0.2099609-1.4980469,0.3149414-2.4785156,0.3149414c-2.0576172,0-3.4716797-0.637207-4.2412109-1.9106445
		c-0.3505859-0.5742188-0.5253906-1.2460938-0.5253906-2.0161133c0-1.6518555,0.7773438-2.7578125,2.3310547-3.3178711
		c0.6860352-0.2519531,1.4980469-0.3779297,2.4355469-0.3779297c0.8544922,0,1.6738281,0.1191406,2.4570313,0.3569336v-2.2260742
		h-7.5595703v-2.3310547h7.5595703v-1.8271484h-8.3364258V83.5263672z M425.7539063,94.7617188
		c-0.8261719-0.3359375-1.5537109-0.5043945-2.1835938-0.5043945c-1.4560547,0.1264648-2.2260742,0.581543-2.3100586,1.3652344
		c0,0.8120117,0.4482422,1.309082,1.3442383,1.4912109c0.2236328,0.0419922,0.4541016,0.0629883,0.6923828,0.0629883
		c1.1064453,0,1.8134766-0.2382813,2.1210938-0.7143555C425.6425781,96.0986328,425.7539063,95.5317383,425.7539063,94.7617188z"/>
	<path d="M437.5146484,83.4423828h9.9326172v-2.3100586h2.6669922v2.3100586h5.5859375v2.2470703h-5.5859375v4.1791992
		c0.3505859,0.8261719,0.5322266,1.7636719,0.5458984,2.8139648c0,2.4643555-0.8330078,4.2416992-2.4980469,5.3339844
		c-1.2470703,0.7978516-3.0458984,1.3300781-5.3974609,1.5961914l-0.4208984-2.4360352
		c2.4785156-0.2802734,4.0878906-0.7841797,4.8300781-1.512207c0.3925781-0.3916016,0.6582031-0.909668,0.7988281-1.5541992
		c0.0136719-0.0136719,0.0214844-0.034668,0.0214844-0.0629883v-0.0419922l-0.0214844-0.0209961
		c-0.7421875,0.5883789-1.6660156,0.8823242-2.7724609,0.8823242c-1.5263672,0-2.6943359-0.5322266-3.5068359-1.5961914
		c-0.5458984-0.7275391-0.8183594-1.5751953-0.8183594-2.5410156c0-1.4560547,0.5585938-2.5688477,1.6796875-3.3388672
		c0.7695313-0.5317383,1.6796875-0.7978516,2.7294922-0.7978516c0.7275391,0,1.4345703,0.1679688,2.1210938,0.5039063h0.0419922
		v-1.4072266h-9.9326172V83.4423828z M443.5205078,90.7294922c0,0.7558594,0.3359375,1.3022461,1.0078125,1.6381836
		c0.3359375,0.1679688,0.7001953,0.2519531,1.0927734,0.2519531c0.8671875,0,1.4902344-0.3291016,1.8681641-0.9873047
		c0.1542969-0.2797852,0.2314453-0.5805664,0.2314453-0.902832c0-0.7558594-0.3359375-1.3017578-1.0078125-1.6381836
		c-0.3359375-0.1679688-0.7011719-0.2519531-1.0917969-0.2519531c-0.8691406,0-1.4921875,0.3291016-1.8691406,0.9873047
		C443.5976563,90.0927734,443.5205078,90.3935547,443.5205078,90.7294922z"/>
	<path d="M458.1777344,96.7143555c0-1.0917969,0.4345703-1.9804688,1.3027344-2.6669922
		c0.6435547-0.5039063,1.3574219-0.7558594,2.1425781-0.7558594c1.1054688,0,2.0019531,0.434082,2.6875,1.3022461
		c0.4902344,0.6298828,0.734375,1.3369141,0.734375,2.1206055c0,1.1064453-0.4267578,2.0019531-1.2802734,2.6879883
		c-0.6445313,0.5043945-1.3583984,0.7563477-2.1416016,0.7563477c-1.0927734,0-1.9882813-0.434082-2.6884766-1.3022461
		C458.4306641,98.2128906,458.1777344,97.4985352,458.1777344,96.7143555z M460.1103516,96.7143555
		c0,0.6162109,0.265625,1.0644531,0.7978516,1.3442383c0.2382813,0.1123047,0.4765625,0.1679688,0.7148438,0.1679688
		c0.6015625,0,1.0419922-0.265625,1.3222656-0.7978516c0.1113281-0.2382813,0.1679688-0.4760742,0.1679688-0.7143555
		c0-0.6157227-0.265625-1.0566406-0.7978516-1.3227539c-0.2236328-0.1118164-0.4550781-0.1679688-0.6923828-0.1679688
		c-0.6171875,0-1.0644531,0.2592773-1.3447266,0.7768555C460.1660156,96.2387695,460.1103516,96.4765625,460.1103516,96.7143555z"/>
	<path d="M76.6088867,126.2895508l5.3129883-15.3300781h3.1499023l5.3129883,15.3300781h-3.1289063l-1.0917969-3.6958008h-5.4179688
		l-1.0922852,3.6958008H76.6088867z M81.4179688,120.3466797h4.0742188l-2.0161133-6.8041992H83.434082L81.4179688,120.3466797z"/>
	<path d="M103.2788086,121.8793945c0,2.5200195-1.3652344,4.0112305-4.0952148,4.4731445
		c-0.6298828,0.0976563-1.3369141,0.1469727-2.1210938,0.1469727c-1.5537109,0-3.0239258-0.1049805-4.409668-0.3149414v-15.1201172
		c1.3295898-0.2099609,2.7299805-0.3149414,4.199707-0.3149414c3.7519531,0,5.7050781,1.1689453,5.8588867,3.5068359
		c0.0141602,0.1123047,0.0209961,0.2241211,0.0209961,0.3364258c0,1.2041016-0.5180664,2.1416016-1.5537109,2.8139648
		c-0.4760742,0.3081055-1.0083008,0.5180664-1.5961914,0.6298828v0.0419922
		c1.5400391,0.2099609,2.625,0.8818359,3.2553711,2.0161133
		C103.1318359,120.640625,103.2788086,121.2358398,103.2788086,121.8793945z M95.5507813,117.1337891h0.7768555
		c2.3100586,0,3.534668-0.609375,3.6748047-1.8271484c0.0141602-0.0976563,0.0209961-0.1958008,0.0209961-0.2939453
		c0-1.0361328-0.5952148-1.6591797-1.784668-1.8691406c-0.3642578-0.0698242-0.7841797-0.1049805-1.2602539-0.1049805
		c-0.5180664,0-0.9941406,0.0419922-1.4277344,0.1259766V117.1337891z M95.5507813,119.3173828v4.7670898
		c0.4897461,0.0839844,1.0146484,0.1259766,1.574707,0.1259766c2.0581055,0,3.1713867-0.7207031,3.3393555-2.1630859
		c0.0136719-0.1538086,0.0209961-0.3007813,0.0209961-0.440918c0-1.0917969-0.637207-1.7919922-1.9111328-2.1000977
		c-0.5742188-0.1259766-1.28125-0.1889648-2.1210938-0.1889648H95.5507813z"/>
	<path d="M112.8964844,113.1225586c-1.9458008,0-3.3808594,0.7138672-4.3046875,2.1420898
		c-0.5878906,0.9379883-0.8823242,2.0581055-0.8823242,3.3598633c0,2.0161133,0.6791992,3.527832,2.0371094,4.5361328
		c0.8823242,0.644043,1.9321289,0.9658203,3.1499023,0.9658203c1.2739258-0.0136719,2.5200195-0.3989258,3.7382813-1.1547852
		l0.8818359,2.1630859c-1.4140625,0.9101563-3.0522461,1.3647461-4.9140625,1.3647461
		c-2.6323242,0-4.6689453-0.8398438-6.1108398-2.5200195c-1.1899414-1.4140625-1.7851563-3.1987305-1.7851563-5.3549805
		c0-2.7998047,0.9101563-4.8999023,2.7299805-6.2998047c1.3720703-1.050293,3.0942383-1.5751953,5.1660156-1.5751953
		c1.8759766,0.0141602,3.5141602,0.4692383,4.9140625,1.3652344l-0.8818359,2.1625977
		C115.4023438,113.5078125,114.1567383,113.1225586,112.8964844,113.1225586z"/>
	<path d="M132.6572266,118.4145508c0,3.5419922-1.2460938,5.9428711-3.737793,7.203125
		c-1.2041016,0.5878906-2.6391602,0.8818359-4.3051758,0.8818359c-1.4980469,0-2.8979492-0.1049805-4.199707-0.3149414v-15.1201172
		c1.3154297-0.2099609,2.7158203-0.3149414,4.199707-0.3149414c3.2900391,0,5.6000977,1.078125,6.9301758,3.2338867
		C132.2861328,115.1879883,132.6572266,116.6645508,132.6572266,118.4145508z M129.8642578,118.4145508
		c-0.0283203-3.527832-1.7290039-5.2988281-5.1030273-5.3129883c-0.5322266,0-1.0151367,0.0419922-1.4487305,0.1259766v10.7939453
		c0.4477539,0.0839844,0.9306641,0.1259766,1.4487305,0.1259766c2.9399414,0,4.605957-1.4067383,4.9980469-4.2207031
		C129.8291016,119.4506836,129.8642578,118.9467773,129.8642578,118.4145508z"/>
	<path d="M137.9702148,113.3325195v3.7587891h6.1738281v2.2470703h-6.1738281v4.578125h6.59375v2.3730469h-9.5336914v-15.3300781
		h9.5336914v2.3730469H137.9702148z"/>
	<path d="M147.6723633,110.9594727h9.3027344v2.3730469h-6.362793v4.0322266h5.9428711v2.2675781h-5.9428711v6.6572266h-2.9399414
		V110.9594727z"/>
	<path d="M167.4956055,113.0805664c-2.1835938,0-3.7451172,0.7768555-4.6826172,2.3310547
		c-0.5322266,0.8959961-0.7983398,1.9667969-0.7983398,3.2128906c0,2.1000977,0.7421875,3.6401367,2.2260742,4.6201172
		c0.9379883,0.6162109,2.0717773,0.9238281,3.4023438,0.9238281c0.8818359,0,1.6513672-0.1396484,2.3095703-0.4199219v-4.4101563
		h-4.2836914v-2.2470703h7.0766602v8.2954102c-1.6518555,0.7421875-3.4511719,1.112793-5.3969727,1.112793
		c-2.8139648,0-4.9765625-0.8608398-6.4887695-2.5830078c-1.2177734-1.3999023-1.8271484-3.1635742-1.8271484-5.2919922
		c0-2.7578125,0.9243164-4.84375,2.7719727-6.2578125c1.4282227-1.078125,3.234375-1.6171875,5.4179688-1.6171875
		c1.8618164,0.0141602,3.5,0.4619141,4.9140625,1.3442383l-0.8608398,2.1206055
		C169.9599609,113.4726563,168.699707,113.0947266,167.4956055,113.0805664z"/>
	<path d="M175.0136719,126.2895508v-2.2680664h2.1630859v-10.7939453h-2.1630859v-2.2680664h2.1630859h2.8979492h2.1630859
		v2.2680664h-2.1630859v10.7939453h2.1630859v2.2680664H175.0136719z"/>
	<path d="M188.9155273,115.159668c2.1977539,0,3.6049805,0.6020508,4.2211914,1.8056641
		c0.3076172,0.6025391,0.4619141,1.3793945,0.4619141,2.3310547v4.0532227c0,0.9941406,0.1049805,1.9741211,0.3149414,2.9399414
		h-2.5830078c-0.0839844-0.4755859-0.1469727-1.0146484-0.1889648-1.6171875h-0.0419922
		c-0.6860352,1.0083008-1.7080078,1.6035156-3.065918,1.7851563c-0.2382813,0.027832-0.4692383,0.0419922-0.6928711,0.0419922
		c-1.4423828,0-2.4360352-0.5249023-2.9824219-1.5751953c-0.2519531-0.4755859-0.3779297-1.0214844-0.3779297-1.6376953
		c0-1.5400391,0.7700195-2.659668,2.3100586-3.3598633c0.9941406-0.4482422,2.21875-0.6723633,3.675293-0.6723633h0.902832
		v-0.0629883c0-0.9658203-0.2729492-1.5678711-0.8188477-1.8056641c-0.2939453-0.1259766-0.6933594-0.1889648-1.1972656-0.1889648
		c-1.3720703,0-2.6669922,0.3149414-3.8847656,0.9448242l-0.3989258-2.0371094
		C185.8984375,115.4746094,187.3476563,115.159668,188.9155273,115.159668z M186.5424805,123.0766602
		c0,0.7558594,0.3432617,1.2177734,1.0292969,1.3857422c0.1538086,0.0283203,0.3076172,0.0419922,0.4619141,0.0419922
		c1.0078125,0,1.7919922-0.3847656,2.3520508-1.1547852c0.3217773-0.4760742,0.4829102-1.0009766,0.4829102-1.5751953v-0.7138672
		h-0.902832c-1.7363281,0-2.8212891,0.434082-3.2553711,1.3022461
		C186.5986328,122.5864258,186.5424805,122.824707,186.5424805,123.0766602z"/>
	<path d="M196.7070313,110.5395508h2.7299805v6.2368164h0.0419922c0.8398438-1.0776367,1.9106445-1.6166992,3.2128906-1.6166992
		c1.8618164,0,3.1425781,0.8608398,3.8427734,2.5830078c0.3500977,0.8540039,0.5253906,1.8828125,0.5253906,3.0869141
		c0,2.3803711-0.6865234,4.0390625-2.0581055,4.9770508c-0.6723633,0.4619141-1.4423828,0.6928711-2.3100586,0.6928711
		c-1.4003906-0.0141602-2.5131836-0.5947266-3.3388672-1.7431641h-0.0419922l-0.0419922,1.5332031h-2.5620117V110.5395508z
		 M204.4350586,120.8295898c0-2.0581055-0.6655273-3.2197266-1.9951172-3.4858398
		c-0.1679688-0.0283203-0.3432617-0.0419922-0.5249023-0.0419922c-1.0083008,0-1.722168,0.5180664-2.1420898,1.5537109
		c-0.2241211,0.5322266-0.3359375,1.1552734-0.3359375,1.8691406v0.2099609c0,1.6240234,0.4829102,2.6811523,1.4487305,3.1708984
		c0.3217773,0.1679688,0.6650391,0.2519531,1.0292969,0.2519531c1.0214844,0,1.7495117-0.5249023,2.1835938-1.574707
		C204.3227539,122.2363281,204.4350586,121.5854492,204.4350586,120.8295898z"/>
	<path d="M217.3286133,123.6855469l0.6298828,2.0371094c-1.1479492,0.5180664-2.3383789,0.7768555-3.5703125,0.7768555
		c-2.0859375,0-3.6538086-0.699707-4.7036133-2.1000977c-0.7280273-0.9658203-1.0922852-2.1557617-1.0922852-3.5698242
		c0-2.3100586,0.8261719-3.940918,2.4780273-4.8930664c0.9243164-0.5175781,2.0297852-0.7768555,3.3178711-0.7768555
		c1.2319336,0,2.4223633,0.2592773,3.5703125,0.7768555l-0.6298828,2.0791016
		c-0.8964844-0.5039063-1.8271484-0.7558594-2.7929688-0.7558594c-1.512207,0-2.4921875,0.671875-2.9404297,2.015625
		c-0.1401367,0.4624023-0.2099609,0.9804688-0.2099609,1.5541992c0,1.5117188,0.5112305,2.5761719,1.5332031,3.1918945
		c0.4755859,0.2802734,1.0146484,0.4199219,1.6171875,0.4199219
		C215.543457,124.4277344,216.4741211,124.1757813,217.3286133,123.6855469z"/>
	<path d="M230.3691406,110.5395508v15.75h-2.5620117l-0.0419922-1.5332031h-0.0419922
		c-0.8398438,1.1484375-1.9526367,1.7290039-3.3388672,1.7431641c-1.5961914,0-2.7861328-0.699707-3.5698242-2.1000977
		c-0.5322266-0.9516602-0.7983398-2.1420898-0.7983398-3.5698242c0-2.6738281,0.7983398-4.4169922,2.394043-5.2290039
		c0.5878906-0.2939453,1.2460938-0.440918,1.9741211-0.440918c1.315918,0.0141602,2.3867188,0.5532227,3.2128906,1.6166992
		h0.0419922v-6.2368164H230.3691406z M222.6411133,120.8295898c0,1.6801758,0.4970703,2.7719727,1.4912109,3.2758789
		c0.3217773,0.1679688,0.6645508,0.2519531,1.0288086,0.2519531c1.0219727,0,1.7431641-0.5249023,2.1630859-1.574707
		c0.2099609-0.5322266,0.3149414-1.1479492,0.3149414-1.8481445v-0.2099609c0-1.5541992-0.4550781-2.5966797-1.3647461-3.1289063
		c-0.3359375-0.1958008-0.7070313-0.2939453-1.1132813-0.2939453c-1.34375,0-2.1557617,0.7910156-2.4360352,2.3725586
		C222.6689453,120.0249023,222.6411133,120.409668,222.6411133,120.8295898z"/>
	<path d="M235.3666992,121.8164063c0.0981445,1.1762695,0.6582031,1.9814453,1.6801758,2.4150391
		c0.4335938,0.1821289,0.909668,0.2729492,1.4277344,0.2729492c1.050293-0.0136719,2.0791016-0.2729492,3.0874023-0.7768555
		l0.6298828,1.9321289c-1.2739258,0.5600586-2.6040039,0.8398438-3.9902344,0.8398438
		c-1.9179688,0-3.3881836-0.6577148-4.409668-1.9741211c-0.7700195-0.9936523-1.1552734-2.2260742-1.1552734-3.6958008
		c0-2.2119141,0.7280273-3.8149414,2.184082-4.809082c0.8681641-0.5737305,1.9038086-0.8608398,3.1079102-0.8608398
		c2.2539063,0,3.7871094,0.8891602,4.5991211,2.6669922c0.3637695,0.8398438,0.5458984,1.8198242,0.5458984,2.9399414
		c0,0.3500977-0.0209961,0.7001953-0.0629883,1.0498047H235.3666992z M235.3666992,119.9477539h5.1240234
		c-0.0141602-1.5541992-0.6230469-2.4638672-1.8266602-2.7299805c-0.2241211-0.0561523-0.4624023-0.0839844-0.7143555-0.0839844
		c-1.2177734,0-2.015625,0.5600586-2.394043,1.6796875C235.4438477,119.1635742,235.3808594,119.5415039,235.3666992,119.9477539z"
		/>
	<path d="M244.9213867,117.8266602v-2.0371094h2.625v-0.902832c0-2.3657227,1.0151367-3.7172852,3.0454102-4.0532227
		c0.3217773-0.0556641,0.6577148-0.0839844,1.0078125-0.0839844c0.8256836,0,1.6098633,0.1049805,2.3520508,0.3149414
		l-0.4619141,2.1000977c-0.4902344-0.2099609-0.9946289-0.3149414-1.512207-0.3149414
		c-0.7978516,0-1.3017578,0.2802734-1.5117188,0.8398438c-0.0981445,0.2939453-0.1474609,0.6928711-0.1474609,1.1972656v0.902832
		h3.4233398v2.0371094h-3.4233398v8.4628906h-2.7719727v-8.4628906H244.9213867z"/>
	<path d="M260.4194336,115.159668c1.4140625,0.0141602,2.5478516,0.5952148,3.4018555,1.7426758h0.0419922l0.0629883-1.5327148
		h2.5620117v9.8071289c-0.0283203,3.9477539-1.9458008,5.9287109-5.7539063,5.9428711
		c-1.2739258,0-2.4643555-0.2099609-3.5698242-0.6298828l0.5039063-2.0581055
		c1.0219727,0.4199219,2.0229492,0.6298828,3.0029297,0.6298828c1.3999023,0,2.3100586-0.4829102,2.7299805-1.4487305
		c0.2519531-0.5883789,0.3779297-1.3789063,0.3779297-2.3730469v-0.7773438h-0.0209961
		c-0.8120117,1.078125-1.9248047,1.6171875-3.3388672,1.6171875c-1.3862305,0-2.4853516-0.5947266-3.296875-1.7851563
		c-0.6723633-0.9936523-1.0083008-2.21875-1.0083008-3.6748047c0-2.5200195,0.7631836-4.1860352,2.2890625-4.9980469
		C258.9912109,115.3139648,259.6635742,115.159668,260.4194336,115.159668z M258.7602539,120.6196289
		c0,1.5117188,0.440918,2.5341797,1.3232422,3.065918c0.3496094,0.1962891,0.7207031,0.2939453,1.112793,0.2939453
		c1.0639648,0,1.8129883-0.5107422,2.2470703-1.5327148c0.2099609-0.4902344,0.3149414-1.0639648,0.3149414-1.722168v-0.2099609
		c0-1.4980469-0.4760742-2.4990234-1.4277344-3.0029297c-0.3500977-0.1679688-0.7280273-0.2519531-1.1342773-0.2519531
		c-1.2177734,0-1.980957,0.671875-2.2890625,2.015625C258.809082,119.6816406,258.7602539,120.1298828,258.7602539,120.6196289z"/>
	<path d="M270.0166016,126.2895508v-15.75h2.8979492v15.75H270.0166016z"/>
	<path d="M281.1459961,126.2895508v-11.9072266H281.125l-3.6748047,3.3603516l-0.9868164-2.4360352l4.6826172-4.347168h3.0239258
		v15.3300781H281.1459961z"/>
	<path d="M290.1557617,123.9165039c3.2617188-2.5478516,5.3266602-4.4941406,6.1948242-5.8378906
		c0.5458984-0.8261719,0.8188477-1.6801758,0.8188477-2.5620117c-0.0561523-1.5258789-0.8891602-2.3027344-2.4990234-2.3310547
		c-1.2041016,0.0141602-2.5478516,0.4970703-4.0317383,1.4492188l-0.7768555-2.3520508
		c1.3017578-0.8823242,2.8349609-1.3862305,4.5986328-1.512207c0.2241211-0.0136719,0.434082-0.0209961,0.6303711-0.0209961
		c2.3378906,0,3.8847656,0.7768555,4.640625,2.3310547c0.3081055,0.6162109,0.4619141,1.3300781,0.4619141,2.1420898
		c0,1.3857422-0.4477539,2.6953125-1.34375,3.9267578c-0.9101563,1.246582-2.5063477,2.8212891-4.7880859,4.7250977v0.0419922
		h6.1738281v2.3730469h-10.0795898V123.9165039z"/>
	<path d="M303.5537109,110.9594727h9.8276367v2.3730469l-4.3046875,3.90625v0.0419922h0.3569336
		c1.8061523,0,3.0375977,0.6650391,3.6958008,1.9946289c0.3081055,0.6303711,0.4619141,1.3583984,0.4619141,2.184082
		c0,2.2543945-0.9311523,3.7661133-2.7929688,4.5361328c-0.8120117,0.3359375-1.7709961,0.5039063-2.8769531,0.5039063
		c-1.6376953-0.0141602-3.1289063-0.3847656-4.4726563-1.112793l0.7558594-2.3100586
		c1.3017578,0.7001953,2.4990234,1.0498047,3.5908203,1.0498047c1.5820313,0,2.5200195-0.6157227,2.8139648-1.8481445
		c0.0561523-0.237793,0.0839844-0.496582,0.0839844-0.7768555c0-0.9658203-0.4482422-1.6030273-1.34375-1.9111328
		c-0.5878906-0.1958008-1.4213867-0.2939453-2.4990234-0.2939453h-1.2602539v-2.0996094l4.2001953-3.8222656v-0.0419922h-6.2368164
		V110.9594727z"/>
	<path d="M325.3725586,120.8295898h2.3310547v2.3100586h-2.3310547v3.1499023h-2.855957v-3.1499023h-6.9301758v-2.3100586
		l6.9301758-9.8701172h2.855957V120.8295898z M322.5166016,120.8295898v-6.0268555h-0.0419922l-4.1582031,5.9848633v0.0419922
		H322.5166016z"/>
	<path d="M338.1826172,110.7495117l0.5249023,2.3730469c-2.4501953,0.1542969-4.1723633,1.0498047-5.1660156,2.6879883
		c-0.1962891,0.3359375-0.3710938,0.7001953-0.5249023,1.0917969l0.0209961,0.0209961
		c0.909668-0.6577148,1.9804688-0.9868164,3.2128906-0.9868164c2.2958984,0,3.8217773,0.8681641,4.578125,2.6040039
		c0.3076172,0.7138672,0.4619141,1.5473633,0.4619141,2.4990234c0,1.9462891-0.7070313,3.4160156-2.1210938,4.4101563
		c-0.9941406,0.7001953-2.2050781,1.0498047-3.6328125,1.0498047c-2.5483398,0-4.2563477-0.9799805-5.1240234-2.9399414
		c-0.40625-0.909668-0.609375-1.980957-0.609375-3.2128906c0-3.3041992,0.9731445-5.8168945,2.9194336-7.5390625
		C334.1640625,111.5336914,335.984375,110.8476563,338.1826172,110.7495117z M335.5366211,124.2524414
		c1.581543,0,2.5126953-0.7485352,2.7929688-2.2470703c0.0556641-0.3076172,0.0839844-0.6298828,0.0839844-0.9658203
		c0-1.4560547-0.5463867-2.4008789-1.6381836-2.8349609c-0.3779297-0.1396484-0.7910156-0.2099609-1.2387695-0.2099609
		c-1.2324219,0-2.0791016,0.5039063-2.5410156,1.5117188c-0.1962891,0.4624023-0.2939453,0.9736328-0.2939453,1.5332031
		c0,1.7080078,0.6367188,2.7441406,1.9106445,3.1079102C334.90625,124.2177734,335.2143555,124.2524414,335.5366211,124.2524414z"/>
	<path d="M343.7685547,110.9594727h10.4370117v2.3730469c-2.128418,3.5-3.8852539,7.3154297-5.2709961,11.4448242
		c-0.1679688,0.5043945-0.3291016,1.0083008-0.4833984,1.512207h-3.1079102
		c1.6098633-4.7041016,3.6259766-9.0019531,6.0483398-12.894043v-0.0629883h-7.6230469V110.9594727z"/>
	<path d="M358.9091797,124.1264648c2.4077148-0.1396484,4.1162109-0.909668,5.1240234-2.3100586
		c0.3081055-0.4335938,0.5668945-0.9238281,0.7768555-1.4697266l-0.0209961-0.0209961
		c-0.9238281,0.6582031-1.9946289,0.9868164-3.2128906,0.9868164c-2.3662109,0-3.9057617-0.9238281-4.6196289-2.7719727
		c-0.2802734-0.699707-0.4204102-1.512207-0.4204102-2.4360352c0-1.8481445,0.6860352-3.2685547,2.0581055-4.2631836
		c1.0083008-0.7275391,2.2397461-1.0917969,3.6962891-1.0917969c2.5195313,0,4.2207031,0.9589844,5.1025391,2.8769531
		c0.4204102,0.8959961,0.6303711,1.953125,0.6303711,3.1708984c0,3.5424805-1.078125,6.1674805-3.234375,7.875
		c-1.4418945,1.1206055-3.2270508,1.7290039-5.3549805,1.8271484L358.9091797,124.1264648z M362.2905273,112.996582
		c-1.4423828,0-2.3520508,0.6298828-2.7304688,1.8901367c-0.0976563,0.3779297-0.1469727,0.7841797-0.1469727,1.2177734
		c0,1.5400391,0.5673828,2.5200195,1.7011719,2.9399414c0.3637695,0.1401367,0.7558594,0.2099609,1.1762695,0.2099609
		c1.2456055,0,2.0927734-0.5317383,2.5410156-1.5957031c0.1958008-0.4619141,0.2939453-0.9799805,0.2939453-1.5541992
		c0-1.5820313-0.5952148-2.5688477-1.7851563-2.9609375C363.0180664,113.0458984,362.668457,112.996582,362.2905273,112.996582z"/>
	<path d="M380.3710938,113.3325195h-6.2578125l-0.1679688,3.5488281h0.0419922
		c0.7138672-0.3496094,1.4770508-0.5249023,2.2890625-0.5249023c2.1420898,0,3.5766602,0.7910156,4.3046875,2.3730469
		c0.3081055,0.6860352,0.4624023,1.4770508,0.4624023,2.3730469c-0.0283203,3.5839844-2.0791016,5.3828125-6.1533203,5.3969727
		c-1.4980469,0-2.8979492-0.3007813-4.199707-0.902832l0.6298828-2.3730469
		c1.2739258,0.6020508,2.4360352,0.902832,3.4858398,0.902832c2.2119141-0.027832,3.3251953-1.0356445,3.3388672-3.0239258
		c-0.027832-1.6518555-0.8330078-2.4848633-2.4145508-2.4990234c-0.840332,0.0141602-1.5683594,0.3012695-2.184082,0.8608398
		h-2.5200195l0.4199219-8.5048828h8.9248047V113.3325195z"/>
	<path d="M393.1601563,114.0043945c-1.2880859-0.6298828-2.6533203-0.9448242-4.0952148-0.9448242
		c-1.3017578,0-2.0859375,0.4272461-2.3515625,1.2807617c-0.0561523,0.1821289-0.0839844,0.3710938-0.0839844,0.5673828
		c0,0.9799805,0.706543,1.6728516,2.1206055,2.0786133c0.0141602,0.0141602,0.027832,0.0209961,0.0419922,0.0209961
		c2.5620117,0.7143555,4.1791992,1.6801758,4.8510742,2.8984375c0.3359375,0.6020508,0.5039063,1.315918,0.5039063,2.1416016
		c0,2.2402344-1.0991211,3.640625-3.296875,4.2001953c-0.671875,0.1679688-1.4277344,0.2519531-2.2680664,0.2519531
		c-1.7216797,0-3.296875-0.4125977-4.7246094-1.2387695c-0.0844727-0.0419922-0.1542969-0.0839844-0.2104492-0.1259766
		l0.7353516-2.3520508c1.3574219,0.9101563,2.7788086,1.3647461,4.2626953,1.3647461s2.3168945-0.5527344,2.4990234-1.6586914
		c0.0141602-0.1259766,0.0209961-0.2592773,0.0209961-0.3994141c0-0.7978516-0.3359375-1.3994141-1.0078125-1.8056641
		c-0.3500977-0.1958008-0.8051758-0.3779297-1.3652344-0.5458984c-2.8417969-0.8261719-4.5009766-2.0507813-4.9770508-3.675293
		c-0.0976563-0.3637695-0.1469727-0.7485352-0.1469727-1.1547852c0-1.5678711,0.6933594-2.7231445,2.0791016-3.465332
		c0.8959961-0.4619141,1.980957-0.6928711,3.2548828-0.6928711c1.722168,0,3.3041992,0.3291016,4.7460938,0.9868164
		L393.1601563,114.0043945z"/>
	<path d="M402.0009766,110.7495117c2.2397461,0,3.8144531,0.6020508,4.7246094,1.8061523
		c0.4482422,0.6020508,0.6723633,1.2807617,0.6723633,2.0371094c-0.0283203,1.4697266-0.9033203,2.6040039-2.625,3.4018555
		v0.0419922c2.0297852,0.8681641,3.065918,2.2192383,3.1079102,4.0527344c0,1.6665039-0.7558594,2.8911133-2.2680664,3.675293
		c-0.9799805,0.4902344-2.184082,0.7348633-3.6118164,0.7348633c-2.4501953,0-4.1655273-0.671875-5.1450195-2.0161133
		c-0.4902344-0.6855469-0.7353516-1.4833984-0.7353516-2.394043c0-1.4277344,0.7773438-2.5688477,2.3310547-3.4228516
		c0.237793-0.1259766,0.4760742-0.237793,0.7138672-0.3359375v-0.0419922
		c-1.4418945-0.7138672-2.2749023-1.7290039-2.4985352-3.0449219c-0.0419922-0.2241211-0.0629883-0.440918-0.0629883-0.6508789
		c0-1.3862305,0.6577148-2.421875,1.9736328-3.1083984C399.5019531,110.9946289,400.6425781,110.7495117,402.0009766,110.7495117z
		 M401.7695313,119.2753906c-1.8759766,0.5883789-2.8208008,1.4775391-2.8349609,2.6669922
		c0,0.9804688,0.4692383,1.6801758,1.4072266,2.1000977c0.4897461,0.2099609,1.0429688,0.3149414,1.6591797,0.3149414
		c1.3295898,0,2.2397461-0.4267578,2.7299805-1.2807617c0.1816406-0.3500977,0.2729492-0.7280273,0.2729492-1.1342773
		c0-0.8676758-0.4482422-1.5327148-1.3442383-1.9946289C403.1835938,119.6953125,402.5537109,119.4716797,401.7695313,119.2753906z
		 M402.0639648,117.1757813c1.6933594-0.5180664,2.5478516-1.28125,2.5620117-2.2890625
		c0-0.8823242-0.4555664-1.4838867-1.3652344-1.8061523c-0.3779297-0.1259766-0.7978516-0.1889648-1.2597656-0.1889648
		c-1.3022461,0-2.1210938,0.4199219-2.4570313,1.2597656c-0.0839844,0.2382813-0.1259766,0.4833984-0.1259766,0.7353516
		c0,1.0498047,0.8676758,1.8056641,2.6040039,2.2680664C402.0356445,117.168457,402.0498047,117.1757813,402.0639648,117.1757813z"
		/>
	<path d="M415.4414063,110.7495117c2.7016602,0,4.465332,1.1762695,5.2919922,3.527832
		c0.3916016,1.1484375,0.5878906,2.597168,0.5878906,4.347168c0,4.0039063-1.078125,6.4682617-3.2338867,7.3920898
		c-0.7563477,0.3217773-1.6381836,0.4829102-2.6459961,0.4829102c-2.7021484,0-4.4663086-1.1757813-5.2919922-3.527832
		c-0.3920898-1.1479492-0.5883789-2.5966797-0.5883789-4.347168c0-4.0039063,1.078125-6.4677734,3.234375-7.3920898
		C413.5512695,110.9106445,414.4331055,110.7495117,415.4414063,110.7495117z M415.4414063,124.2104492
		c1.2177734,0,2.043457-0.6435547,2.4780273-1.9321289c0.2797852-0.8676758,0.4199219-2.0854492,0.4199219-3.6538086
		c0-2.8979492-0.5253906-4.6547852-1.5751953-5.2709961c-0.3642578-0.2099609-0.8051758-0.3149414-1.3227539-0.3149414
		c-1.2182617,0-2.0444336,0.644043-2.4780273,1.9321289c-0.2802734,0.8681641-0.4204102,2.0859375-0.4204102,3.6538086
		c0,2.8979492,0.5253906,4.6552734,1.5751953,5.2709961C414.4819336,124.1054688,414.9228516,124.2104492,415.4414063,124.2104492z"
		/>
	<path d="M430.5400391,110.7495117c2.5898438,0,4.578125,0.8540039,5.9638672,2.5620117
		c1.1347656,1.3999023,1.7011719,3.1708984,1.7011719,5.3129883c0,2.7021484-0.8613281,4.7670898-2.5830078,6.1948242
		c-1.34375,1.1206055-3.0380859,1.6801758-5.0820313,1.6801758c-2.5908203,0-4.578125-0.8535156-5.9638672-2.5620117
		c-1.1347656-1.3999023-1.7011719-3.1708984-1.7011719-5.3129883c0-2.7016602,0.8613281-4.7670898,2.5830078-6.1948242
		C426.8027344,111.3095703,428.4960938,110.7495117,430.5400391,110.7495117z M430.5400391,124.0844727
		c1.8339844,0,3.1494141-0.7485352,3.9482422-2.2470703c0.4755859-0.8818359,0.7138672-1.9526367,0.7138672-3.2128906
		c0-2.2958984-0.7216797-3.8989258-2.1630859-4.809082c-0.7138672-0.4335938-1.546875-0.6508789-2.4990234-0.6508789
		c-1.8339844,0-3.1494141,0.7490234-3.9482422,2.2470703c-0.4755859,0.8818359-0.7138672,1.953125-0.7138672,3.2128906
		c0,2.2963867,0.7216797,3.8989258,2.1630859,4.809082C428.7558594,123.8676758,429.5878906,124.0844727,430.5400391,124.0844727z"
		/>
	<path d="M441.6279297,130.909668v-21.6298828h2.6044922v21.6298828H441.6279297z"/>
	<path d="M449.6494141,110.9594727h3.4853516l-0.4199219,10.7099609h-2.6455078L449.6494141,110.9594727z M449.859375,126.2895508
		v-2.9399414h3.0664063v2.9399414H449.859375z"/>
	<path d="M460.0859375,121.6064453c0-1.4418945,0.5878906-2.6669922,1.7636719-3.6748047
		c0.2382813-0.1958008,0.5820313-0.4619141,1.0292969-0.7978516c0.8261719-0.6020508,1.34375-1.078125,1.5546875-1.4282227
		c0.1816406-0.3076172,0.2724609-0.6298828,0.2724609-0.9658203c-0.0283203-1.0639648-0.9169922-1.6030273-2.6669922-1.6171875
		c-1.34375,0-2.8203125,0.2592773-4.4306641,0.7768555l-0.5253906-2.3730469
		c1.8193359-0.5175781,3.6123047-0.7768555,5.3759766-0.7768555c2.3242188,0,3.9130859,0.6088867,4.7675781,1.8271484
		c0.3769531,0.5322266,0.5664063,1.1337891,0.5664063,1.8056641c0,1.246582-0.5253906,2.3032227-1.5742188,3.1713867
		c-0.2382813,0.1821289-0.5673828,0.4199219-0.9873047,0.7138672c-0.8964844,0.6298828-1.4990234,1.1547852-1.8056641,1.5751953
		c-0.3505859,0.5180664-0.5332031,1.105957-0.546875,1.7636719H460.0859375z M459.9394531,126.2895508v-2.9399414h3.0869141
		v2.9399414H459.9394531z"/>
	<path d="M471.7412109,118.246582v-3.5698242h3.3603516v3.5698242H471.7412109z M471.7412109,126.2895508v-3.5698242h3.3603516
		v3.5698242H471.7412109z"/>
	<path d="M479.3642578,128.5996094l1.4072266-5.8798828h3.5058594l-2.3925781,5.8798828H479.3642578z M480.7714844,118.246582
		v-3.5698242h3.359375v3.5698242H480.7714844z"/>
	<path d="M488.7519531,126.2895508v-3.5698242h3.359375v3.5698242H488.7519531z"/>
	<path d="M496.5214844,122.7197266h3.5058594l-2.3925781,5.8798828h-2.5214844L496.5214844,122.7197266z"/>
	<path d="M501.3300781,129.859375v-2.0366211h12.8925781v2.0366211H501.3300781z"/>
	<path d="M515.734375,121.3125v-2.2260742h6.8046875V121.3125H515.734375z"/>
	<path d="M530.75,120.8295898c-1.078125-0.4897461-1.8261719-0.7348633-2.2460938-0.7348633
		c-0.4902344,0-0.7988281,0.2802734-0.9238281,0.8398438c-0.0566406,0.2802734-0.0839844,0.6298828-0.0839844,1.0498047h-2.3730469
		c0.0683594-2.7856445,1.0566406-4.206543,2.9609375-4.2626953c1.1191406,0.0141602,2.4980469,0.3989258,4.1367188,1.1547852
		c1.078125,0.4902344,1.8261719,0.7348633,2.2460938,0.7348633c0.5175781,0,0.8339844-0.2797852,0.9453125-0.8398438
		c0.0429688-0.237793,0.0625-0.5175781,0.0625-0.8398438h2.3730469c-0.0136719,2.6879883-1,4.0390625-2.9609375,4.0527344
		C533.7675781,121.9707031,532.3886719,121.5854492,530.75,120.8295898z"/>
	<path d="M543.7695313,119.9897461c-0.0136719-3.8222656-1.3710938-7.1118164-4.0722656-9.8701172h2.5195313
		c2.1835938,2.0161133,3.5410156,4.5009766,4.0742188,7.4550781c0.1386719,0.7978516,0.2089844,1.6030273,0.2089844,2.4150391
		c0,3.1079102-0.9453125,5.8730469-2.8339844,8.2949219c-0.4492188,0.5737305-0.9316406,1.0986328-1.4492188,1.574707h-2.5195313
		C542.4121094,127.0874023,543.7695313,123.7978516,543.7695313,119.9897461z"/>
	<path d="M549.6074219,110.1196289h2.4355469c1.5410156,0,2.5195313,0.5039063,2.9394531,1.5117188
		c0.1972656,0.4902344,0.2949219,1.1064453,0.2949219,1.8481445v2.9819336c0,1.3442383,0.3769531,2.128418,1.1347656,2.3520508
		c0.2089844,0.0561523,0.4335938,0.0839844,0.671875,0.0839844h0.8398438v2.184082h-0.8398438
		c-0.9394531,0-1.5058594,0.440918-1.7011719,1.3232422c-0.0703125,0.3081055-0.1054688,0.6791992-0.1054688,1.112793v2.9819336
		c0,1.6518555-0.5117188,2.6806641-1.5332031,3.0869141c-0.4609375,0.1821289-1.0292969,0.2729492-1.7011719,0.2729492h-2.4355469
		v-2.0366211h1.1132813c0.8535156,0,1.3925781-0.1259766,1.6171875-0.378418
		c0.2226563-0.2797852,0.3359375-0.8540039,0.3359375-1.7216797v-2.3100586c0-1.3300781,0.3984375-2.2890625,1.1972656-2.8769531
		c0.2792969-0.1958008,0.6074219-0.3710938,0.9863281-0.5249023V119.96875
		c-1.0507813-0.434082-1.7089844-1.0712891-1.9746094-1.9111328c-0.140625-0.4199219-0.2089844-0.9169922-0.2089844-1.4912109
		v-2.3100586c0-0.9936523-0.1542969-1.609375-0.4628906-1.8476563c-0.265625-0.1679688-0.7636719-0.2519531-1.4902344-0.2519531
		h-1.1132813V110.1196289z"/>
	<path d="M564.7070313,127.8227539v-15.6660156h-3.9902344v-2.0371094h6.59375v19.7397461h-6.59375v-2.0366211H564.7070313z"/>
</g>
<g>
	<path fill="#70A0BB" d="M7.1899414,39.4599609V29.3100586c0.8120117-0.1401367,1.6845703-0.2099609,2.6181641-0.2099609
		c1.3066406,0,2.2958984,0.2426758,2.9677734,0.7280273c0.6723633,0.4853516,1.003418,1.1665039,0.9941406,2.0439453
		c0,0.7094727-0.1914063,1.3017578-0.5742188,1.777832s-0.9238281,0.8027344-1.6240234,0.9799805v0.0283203
		c0.4204102,0.2236328,0.8354492,0.8305664,1.2460938,1.8198242l1.2319336,2.9819336h-1.1616211l-1.2041016-2.9541016
		c-0.2802734-0.6625977-0.5415039-1.078125-0.7841797-1.2460938s-0.7329102-0.2519531-1.4697266-0.2519531H8.3100586v4.4521484
		H7.1899414z M8.3100586,34.1118164h1.1201172c1.1103516,0,1.9272461-0.1772461,2.449707-0.5317383
		c0.5229492-0.3544922,0.7841797-0.8911133,0.7841797-1.6103516c0-1.3061523-0.9848633-1.9599609-2.9541016-1.9599609
		c-0.4946289,0-0.9614258,0.0419922-1.3999023,0.1259766V34.1118164z"/>
	<path fill="#70A0BB" d="M16.2758789,36.2119141c0.0185547,0.793457,0.2612305,1.4189453,0.7280273,1.8759766
		c0.4663086,0.4575195,1.0727539,0.6860352,1.8198242,0.6860352c0.7280273,0,1.4467773-0.1865234,2.1557617-0.5600586
		l0.2802734,0.7978516c-0.7841797,0.3920898-1.6240234,0.5883789-2.5200195,0.5883789
		c-1.0454102,0-1.8901367-0.3408203-2.5341797-1.0219727s-0.9658203-1.6005859-0.9658203-2.7583008
		c0-1.1757813,0.3007813-2.1000977,0.902832-2.7719727s1.4208984-1.0078125,2.4570313-1.0078125
		c1.0083008,0,1.7871094,0.3173828,2.3378906,0.9521484S21.7636719,34.5458984,21.7636719,35.75
		c0,0.2148438-0.0048828,0.3686523-0.0141602,0.4619141H16.2758789z M16.2758789,35.3999023h4.4936523
		c-0.0092773-0.8120117-0.2050781-1.4370117-0.5878906-1.8759766c-0.3828125-0.4384766-0.9101563-0.6582031-1.5820313-0.6582031
		c-0.699707,0-1.2553711,0.222168-1.6660156,0.6650391C16.5229492,33.9746094,16.3037109,34.597168,16.2758789,35.3999023z"/>
	<path fill="#70A0BB" d="M23.0234375,35.6801758c0-1.1572266,0.2568359-2.0532227,0.7700195-2.6879883
		s1.2226563-0.9521484,2.1279297-0.9521484c1.0922852,0,1.8994141,0.4526367,2.4223633,1.3579102h0.027832l0.027832-1.2177734
		h0.9799805v6.6777344c0,2.5478516-1.1386719,3.8222656-3.4160156,3.8222656c-0.7836914,0-1.5351563-0.1494141-2.2539063-0.4482422
		l0.2241211-0.8261719c0.6625977,0.2895508,1.3393555,0.434082,2.0297852,0.434082
		c0.8212891,0,1.4233398-0.2285156,1.8061523-0.6860352c0.3828125-0.4570313,0.5742188-1.2084961,0.5742188-2.2539063v-0.8959961
		h-0.0283203c-0.5039063,0.8774414-1.3017578,1.315918-2.394043,1.315918c-0.8491211,0-1.5444336-0.3266602-2.0859375-0.9799805
		C23.2939453,37.6870117,23.0234375,36.7998047,23.0234375,35.6801758z M24.0317383,35.6801758
		c0,0.8583984,0.1958008,1.5395508,0.5878906,2.0439453c0.3920898,0.5039063,0.9052734,0.7558594,1.5400391,0.7558594
		c0.644043,0,1.1708984-0.2426758,1.5820313-0.7280273C28.1523438,37.2666016,28.3525391,36.5996094,28.34375,35.75v-0.1401367
		c0-0.8491211-0.2055664-1.5166016-0.6162109-2.0019531s-0.9335938-0.7280273-1.5678711-0.7280273
		c-0.6630859,0-1.1811523,0.2426758-1.5541992,0.7280273C24.2319336,34.0932617,24.0405273,34.7841797,24.0317383,35.6801758z"/>
	<path fill="#70A0BB" d="M32.4169922,32.1801758v4.5219727c0,0.746582,0.1240234,1.269043,0.3710938,1.5678711
		s0.6601563,0.4477539,1.2392578,0.4477539c0.5410156,0,1.0336914-0.2612305,1.4770508-0.7836914
		c0.4428711-0.5229492,0.6650391-1.1430664,0.6650391-1.8623047v-3.8916016h1.0356445v7.2797852h-0.9799805l-0.027832-1.3017578
		h-0.027832c-0.2802734,0.4477539-0.637207,0.800293-1.0712891,1.0566406
		c-0.434082,0.2568359-0.8984375,0.3852539-1.3930664,0.3852539c-0.7836914,0-1.362793-0.2216797-1.7358398-0.6650391
		c-0.3735352-0.4433594-0.5600586-1.1552734-0.5600586-2.1352539v-4.6196289H32.4169922z"/>
	<path fill="#70A0BB" d="M39.8647461,39.4599609v-10.5h1.0922852v10.5H39.8647461z"/>
	<path fill="#70A0BB" d="M46.2768555,32.0400391c1.0170898,0,1.7451172,0.2099609,2.184082,0.6298828
		c0.4384766,0.4199219,0.6577148,1.1108398,0.6577148,2.0722656V37.5c0,0.6625977,0.0703125,1.315918,0.2104492,1.9599609
		h-0.9799805c-0.09375-0.4106445-0.1450195-0.8398438-0.1542969-1.2880859h-0.027832
		c-0.2519531,0.4482422-0.6137695,0.7978516-1.0849609,1.050293c-0.4716797,0.2519531-1.0058594,0.3779297-1.6030273,0.3779297
		c-0.671875,0-1.2089844-0.1889648-1.6103516-0.5668945C43.4672852,38.6547852,43.2670898,38.144043,43.2670898,37.5
		c0-0.8120117,0.3520508-1.4580078,1.0566406-1.9389648c0.7045898-0.4804688,1.7104492-0.7211914,3.0170898-0.7211914h0.7558594
		v-0.0698242c0-0.7094727-0.1328125-1.2016602-0.3989258-1.4770508c-0.265625-0.2753906-0.7397461-0.4130859-1.4208984-0.4130859
		c-0.8774414,0-1.6938477,0.2148438-2.4501953,0.644043l-0.1958008-0.8261719
		C44.4335938,32.2592773,45.3154297,32.0400391,46.2768555,32.0400391z M44.2749023,37.4580078
		c0,0.4199219,0.1303711,0.7490234,0.3920898,0.9868164c0.2612305,0.2382813,0.6113281,0.3569336,1.0498047,0.3569336
		c0.644043,0,1.2016602-0.230957,1.6733398-0.6928711c0.4707031-0.4619141,0.706543-1.0288086,0.706543-1.7006836v-0.7841797
		h-0.7558594c-0.9799805,0-1.7358398,0.1655273-2.2680664,0.4970703
		C44.5410156,36.4521484,44.2749023,36.8979492,44.2749023,37.4580078z"/>
	<path fill="#70A0BB" d="M51.2885742,32.1801758h1.0083008l0.0136719,1.5537109h0.0283203
		c0.8212891-1.1289063,1.9829102-1.6938477,3.4858398-1.6938477v0.8818359c-1.0361328,0-1.8759766,0.284668-2.5200195,0.8540039
		s-0.9658203,1.3071289-0.9658203,2.2119141v3.472168h-1.050293V32.1801758z"/>
</g>
<g>
	<path fill="#70A0BB" d="M13.8120117,107.0410156c0,2.0532227-1.3393555,3.0800781-4.0180664,3.0800781
		c-0.8681641,0-1.7358398-0.074707-2.6040039-0.2241211V99.8447266c0.8212891-0.1489258,1.6425781-0.2236328,2.4638672-0.2236328
		c2.4643555,0,3.6962891,0.8256836,3.6962891,2.4780273c-0.0092773,0.5693359-0.2006836,1.059082-0.5742188,1.4697266
		c-0.3730469,0.4111328-0.8867188,0.690918-1.5400391,0.840332v0.027832
		c0.8212891,0.121582,1.4560547,0.4106445,1.9042969,0.8681641
		C13.5878906,105.762207,13.8120117,106.3408203,13.8120117,107.0410156z M9.6538086,100.5307617
		c-0.4755859,0-0.9238281,0.0419922-1.34375,0.1259766v3.3740234h0.9238281c2.034668,0,3.0522461-0.597168,3.0522461-1.7919922
		c0-0.5786133-0.2099609-1.0078125-0.6303711-1.2875977C11.2358398,100.6708984,10.5683594,100.5307617,9.6538086,100.5307617z
		 M12.7060547,106.9428711c-0.0092773-0.6904297-0.284668-1.1992188-0.8261719-1.5258789s-1.4233398-0.4902344-2.6459961-0.4902344
		H8.3100586v4.1582031c0.4570313,0.0839844,0.9521484,0.1259766,1.4838867,0.1259766
		C11.7353516,109.2109375,12.7060547,108.4550781,12.7060547,106.9428711z"/>
	<path fill="#70A0BB" d="M20.8540039,109.0991211c-0.6254883,0.6811523-1.4560547,1.0219727-2.4916992,1.0219727
		c-1.0361328,0-1.8671875-0.3408203-2.4921875-1.0219727c-0.6254883-0.6811523-0.9379883-1.6005859-0.9379883-2.7583008
		c0-1.1572266,0.3125-2.0766602,0.9379883-2.7578125c0.625-0.6811523,1.4560547-1.0219727,2.4921875-1.0219727
		c1.0356445,0,1.8662109,0.3408203,2.4916992,1.0219727s0.9379883,1.6005859,0.9379883,2.7578125
		C21.7919922,107.4985352,21.4794922,108.4179688,20.8540039,109.0991211z M20.1049805,104.1777344
		c-0.4248047-0.5175781-1.0058594-0.7768555-1.7426758-0.7768555c-0.737793,0-1.3188477,0.2592773-1.7431641,0.7768555
		c-0.4248047,0.5180664-0.637207,1.2392578-0.637207,2.1630859c0,0.9243164,0.2124023,1.6450195,0.637207,2.1630859
		c0.4243164,0.5180664,1.0053711,0.7768555,1.7431641,0.7768555c0.7368164,0,1.3178711-0.2587891,1.7426758-0.7768555
		s0.637207-1.2387695,0.637207-2.1630859C20.7421875,105.4169922,20.5297852,104.6958008,20.1049805,104.1777344z"/>
	<path fill="#70A0BB" d="M23.9619141,109.980957v-10.5h1.0922852v10.5H23.9619141z"/>
	<path fill="#70A0BB" d="M27.2939453,106.3408203c0-1.2226563,0.2612305-2.1582031,0.7841797-2.8066406
		c0.5224609-0.6489258,1.2412109-0.9731445,2.1557617-0.9731445c1.0546875,0,1.8388672,0.4433594,2.3520508,1.3300781h0.0283203
		V99.480957h1.0219727v10.5H32.65625l-0.0141602-1.2319336h-0.027832c-0.5136719,0.9145508-1.3071289,1.3720703-2.3803711,1.3720703
		c-0.8959961,0-1.6098633-0.3291016-2.1416016-0.9873047C27.5600586,108.4760742,27.2939453,107.5449219,27.2939453,106.3408203z
		 M28.3022461,106.3408203c0,0.9428711,0.1933594,1.668457,0.5810547,2.1772461
		c0.3867188,0.5087891,0.9121094,0.7626953,1.574707,0.7626953c0.6347656,0,1.152832-0.2470703,1.5541992-0.7416992
		c0.4008789-0.4946289,0.6020508-1.1948242,0.6020508-2.1000977v-0.1958008c0-0.8867188-0.2011719-1.5820313-0.6020508-2.0864258
		c-0.4013672-0.5039063-0.9194336-0.7558594-1.5541992-0.7558594c-0.6811523,0-1.2109375,0.2519531-1.5888672,0.7558594
		C28.4912109,104.6611328,28.3022461,105.3891602,28.3022461,106.3408203z"/>
</g>
</svg>
