<?xml version="1.0" encoding="utf-8"?>
<!-- Generator: Adobe Illustrator 16.0.3, SVG Export Plug-In . SVG Version: 6.00 Build 0)  -->
<!DOCTYPE svg PUBLIC "-//W3C//DTD SVG 1.1//EN" "http://www.w3.org/Graphics/SVG/1.1/DTD/svg11.dtd">
<svg version="1.1" id="レイヤー_1" xmlns="http://www.w3.org/2000/svg" xmlns:xlink="http://www.w3.org/1999/xlink" x="0px"
	 y="0px" width="575px" height="150px" viewBox="0 0 575 150" enable-background="new 0 0 575 150" xml:space="preserve">
  <style>path {fill:#222;} @media (prefers-color-scheme: dark) {path {fill:#ddd;}}</style>
<g>
	<path d="M78.6669922,12.4804688l2.6669922,13.5239258h0.0419922l2.7929688-13.5239258h2.184082l2.8139648,13.5239258h0.0419922
		l2.6669922-13.5239258h1.6591797l-3.3603516,15.3300781h-2.0996094l-2.8139648-13.5239258h-0.0419922l-2.8144531,13.5239258
		h-2.0996094l-3.3603516-15.3300781H78.6669922z"/>
	<path d="M96.9370117,22.7705078c0.1118164,2.6743164,1.3789063,4.0180664,3.8007813,4.0322266
		c0.9663086,0,2.0019531-0.230957,3.1083984-0.6933594v1.3862305c-1.1625977,0.3496094-2.2470703,0.5249023-3.2553711,0.5249023
		c-3.0522461,0-4.7807617-1.4418945-5.1870117-4.3261719c-0.0561523-0.4335938-0.0839844-0.8818359-0.0839844-1.34375
		c0-3.1357422,1.1342773-4.9770508,3.4023438-5.5229492c0.4477539-0.0976563,0.9238281-0.1469727,1.4277344-0.1469727
		c2.9257813,0.0283203,4.3959961,1.8686523,4.4101563,5.5229492c0,0.1401367-0.0141602,0.3291016-0.0419922,0.5668945H96.9370117z
		 M96.9370117,21.5317383h6.0478516c-0.0561523-2.4082031-1.0009766-3.6191406-2.8349609-3.6333008
		c-1.987793,0-3.059082,1.1972656-3.2128906,3.5913086C96.9370117,21.503418,96.9370117,21.5175781,96.9370117,21.5317383z"/>
	<path d="M108.8017578,12.0605469v6.2578125h0.0419922c0.9101563-1.0917969,2.0581055-1.6376953,3.4443359-1.6376953
		c1.7636719,0,3.0166016,0.7841797,3.7587891,2.3520508c0.4335938,0.9101563,0.6508789,2.015625,0.6508789,3.3178711
		c0,2.2124023-0.6298828,3.8217773-1.8896484,4.8300781c-0.7285156,0.5600586-1.5683594,0.8398438-2.5200195,0.8398438
		c-1.4282227-0.0141602-2.6040039-0.6015625-3.5283203-1.7641602h-0.0419922l-0.0209961,1.5541992h-1.5117188v-15.75H108.8017578z
		 M115.1020508,22.3505859c-0.0141602-2.9257813-1.0644531-4.3959961-3.1503906-4.4101563
		c-0.9799805,0-1.7988281,0.3779297-2.456543,1.1342773c-0.4624023,0.5180664-0.6933594,1.0708008-0.6933594,1.6586914v3.234375
		c0,0.8261719,0.3920898,1.5327148,1.1762695,2.1206055c0.6157227,0.4482422,1.2734375,0.6723633,1.9736328,0.6723633
		c1.6240234,0,2.625-0.9101563,3.003418-2.7299805C115.0527344,23.5126953,115.1020508,22.9526367,115.1020508,22.3505859z"/>
	<path d="M119.2177734,14.706543v-1.4702148c5.5576172,0,11.2207031-0.1396484,16.9887695-0.4199219l0.0839844,1.4702148
		c-4.5083008,0.40625-7.6650391,1.6660156-9.4711914,3.7797852c-0.9799805,1.1625977-1.4697266,2.4780273-1.4697266,3.9482422
		c0,2.0581055,0.7836914,3.5698242,2.3520508,4.5361328c0.9936523,0.5878906,2.190918,0.8818359,3.5908203,0.8818359
		c0.840332,0,1.7148438-0.0766602,2.625-0.230957l0.1889648,1.4697266
		c-0.9521484,0.1679688-1.9106445,0.2519531-2.8769531,0.2519531c-2.7583008,0-4.815918-0.8188477-6.1738281-2.4570313
		c-0.9521484-1.1616211-1.4282227-2.5966797-1.4282227-4.3046875c0-2.5620117,1.1762695-4.6479492,3.5283203-6.2583008
		c0.7978516-0.5458984,1.7075195-1.0146484,2.7299805-1.4067383l-0.0209961-0.0419922
		C125.6645508,14.6225586,122.1157227,14.706543,119.2177734,14.706543z M131.6494141,17.7724609l1.2392578-0.671875
		c0.6855469,1.1337891,1.3369141,2.2822266,1.953125,3.4438477l-1.2602539,0.6298828
		C132.8955078,19.8867188,132.2514648,18.7524414,131.6494141,17.7724609z M134.5893555,16.9746094l1.2602539-0.6928711
		c0.8256836,1.3579102,1.4980469,2.5336914,2.0161133,3.527832l-1.28125,0.6298828
		C135.9404297,19.25,135.2753906,18.0947266,134.5893555,16.9746094z"/>
	<path d="M140.2177734,13.1733398h14.699707v14.1542969h-14.699707v-1.4702148h13.0830078V14.6435547h-13.0830078V13.1733398z"/>
	<path d="M159.1176758,13.9296875l0.7558594-1.4282227c2.2397461,1.1201172,4.3818359,2.3100586,6.4257813,3.5703125
		l-0.8188477,1.4277344C163.5341797,16.2958984,161.4135742,15.1054688,159.1176758,13.9296875z M175.3505859,14.7485352
		c-1.4423828,8.0639648-6.6152344,12.4882813-15.519043,13.2719727l-0.2519531-1.5751953
		c6.7197266-0.6157227,11.1157227-3.4296875,13.1879883-8.4418945c0.4477539-1.1054688,0.7978516-2.3027344,1.0498047-3.5908203
		L175.3505859,14.7485352z"/>
	<path d="M193.1582031,9.9604492c1.1762695,0,2.1347656,0.4550781,2.8769531,1.3652344
		c0.5322266,0.6860352,0.7983398,1.4560547,0.7983398,2.3100586c0,1.1757813-0.4550781,2.1347656-1.3652344,2.8769531
		c-0.671875,0.5458984-1.4418945,0.8188477-2.3100586,0.8188477h-0.1049805
		c-3.8920898,1.315918-7.9169922,2.3173828-12.074707,3.0029297v3.0239258c0,1.4282227,0.230957,2.359375,0.6928711,2.7929688
		c0.4619141,0.434082,1.3789063,0.6513672,2.7509766,0.6513672c3.2758789,0,6.3979492-0.1049805,9.3662109-0.3154297
		l0.0629883,1.4912109c-3.3325195,0.2099609-6.5102539,0.3149414-9.5341797,0.3149414
		c-1.9321289,0-3.2480469-0.3432617-3.9482422-1.0288086c-0.6860352-0.7138672-1.0288086-2.0229492-1.0288086-3.9272461V12.3334961
		h1.6381836v6.4472656c3.4155273-0.5600586,6.6845703-1.3300781,9.8066406-2.3100586
		c-0.8681641-0.7563477-1.309082-1.7011719-1.3227539-2.8349609c0-1.1762695,0.4545898-2.1279297,1.3647461-2.855957
		C191.5131836,10.2333984,192.2900391,9.9604492,193.1582031,9.9604492z M193.1582031,16.1347656
		c0.8823242,0,1.5678711-0.3642578,2.0581055-1.0922852c0.2797852-0.4335938,0.4199219-0.902832,0.4199219-1.4067383
		c0-0.8959961-0.3642578-1.5820313-1.0917969-2.0581055c-0.4199219-0.2797852-0.8823242-0.4199219-1.3862305-0.4199219
		c-0.8818359,0-1.5678711,0.3569336-2.0581055,1.0708008c-0.2939453,0.434082-0.440918,0.902832-0.440918,1.4072266
		c0,0.8818359,0.3642578,1.5678711,1.0922852,2.0576172C192.1850586,15.9873047,192.6542969,16.1347656,193.1582031,16.1347656z"/>
	<path d="M200.0458984,16.1977539h9.6601563l-0.7773438,10.0795898h3.4023438v1.3862305h-14.0703125v-1.3862305h8.9882813
		l0.6928711-8.6938477h-7.8959961V16.1977539z"/>
	<path d="M216.6777344,20.859375l-2.2470703-1.1967773l0.609375-1.3022461l1.5957031,0.840332
		c0.0136719,0,0.230957,0.0771484,0.6508789,0.230957l0.5673828,0.0209961h13.8388672v1.5957031h-14.1118164
		c-0.1401367,0-0.2944336-0.0136719-0.4624023-0.0419922L216.6777344,20.859375z"/>
	<path d="M235.9555664,28.5874023l-0.230957-1.4697266c4.3681641-0.40625,7.4970703-1.5678711,9.387207-3.4863281
		c0.3916016-0.3916016,0.7416992-0.8188477,1.0498047-1.2807617c-2.3383789-1.2041016-4.6762695-2.3168945-7.0141602-3.3388672
		l0.7353516-1.4072266c2.2958984,0.9941406,4.6479492,2.1074219,7.0556641,3.3388672
		c0.7143555-1.6376953,1.105957-3.6884766,1.1762695-6.152832h-8.5888672c-0.8125,2.5200195-2.184082,4.6904297-4.1162109,6.5102539
		l-1.0917969-1.0083008c2.1137695-1.987793,3.4926758-4.5009766,4.1367188-7.5390625
		c0.0976563-0.4897461,0.1748047-0.9794922,0.230957-1.4697266l1.5332031,0.0839844
		c-0.0419922,0.4902344-0.1469727,1.1411133-0.3149414,1.9526367h9.9121094v0.6303711
		c0,5.1801758-1.3515625,8.9321289-4.0532227,11.2558594C243.550293,27.0830078,240.2817383,28.2094727,235.9555664,28.5874023z"/>
	<path d="M263.8647461,26.8237305c2.1977539-0.2382813,3.737793-1.2739258,4.6201172-3.1083984
		c0.4755859-0.9794922,0.7138672-2.1347656,0.7138672-3.4648438c0-1.9321289-0.6860352-3.4926758-2.0581055-4.6831055
		c-1.1621094-0.9794922-2.5693359-1.4975586-4.2211914-1.5537109c-0.8681641,7.9663086-2.4360352,12.4599609-4.7036133,13.4819336
		c-0.378418,0.1679688-0.7773438,0.2519531-1.1972656,0.2519531c-0.9521484,0-1.8271484-0.5317383-2.625-1.5961914
		c-0.9521484-1.2875977-1.4277344-2.855957-1.4277344-4.7036133c0-2.6181641,0.8955078-4.7529297,2.6879883-6.4052734
		c1.8056641-1.6660156,4.1503906-2.4990234,7.034668-2.4990234c2.3657227,0,4.3120117,0.7490234,5.8383789,2.2470703
		c1.4697266,1.4560547,2.2045898,3.2758789,2.2045898,5.4599609c0,2.828125-0.847168,4.9770508-2.5410156,6.4472656
		c-1.0917969,0.9238281-2.4287109,1.4555664-4.0107422,1.5957031L263.8647461,26.8237305z M261.3237305,14.0976563
		c-2.3803711,0.2939453-4.1933594,1.2739258-5.4389648,2.9399414c-0.9243164,1.2597656-1.3862305,2.7299805-1.3862305,4.4101563
		c0,1.6098633,0.4057617,2.9189453,1.2182617,3.9267578c0.4477539,0.5322266,0.8818359,0.8051758,1.3017578,0.8188477
		c0.7280273,0,1.4282227-0.706543,2.1000977-2.1206055C260.0844727,22.0009766,260.8198242,18.6757813,261.3237305,14.0976563z"/>
	<path d="M281.4199219,14.8325195v-3.7587891h1.5751953v3.7587891h4.578125v-3.7587891h1.6166992v3.7587891h3.3183594v1.4282227
		h-3.3183594v7.034668h-7.7700195v-7.034668h-3.8847656v10.3950195h13.8598633v1.4277344h-13.8598633v1.5541992h-1.6591797
		V16.2607422h-2.6879883v-1.4282227h2.6879883v-3.7587891h1.6591797v3.7587891H281.4199219z M282.9951172,16.2607422v5.7119141
		h4.578125v-5.7119141H282.9951172z"/>
	<path d="M306.8300781,29.3857422v-6.8461914h1.1132813c-0.9804688-0.6298828-1.953125-1.3720703-2.9194336-2.2260742h-2.3515625
		c-0.8964844,0.7841797-1.8203125,1.4912109-2.7724609,2.1210938h1.3232422v0.6508789
		c0,2.1982422-0.6650391,3.8291016-1.9951172,4.8930664c-0.8681641,0.6860352-2.0927734,1.2250977-3.6748047,1.6171875
		l-0.5878906-1.3862305c1.9594727-0.5317383,3.2475586-1.2246094,3.8637695-2.0791016
		c0.5180664-0.699707,0.7768555-1.7148438,0.7768555-3.0449219v-0.4619141
		c-1.4697266,0.9521484-3.1010742,1.7851563-4.8925781,2.4990234l-0.609375-1.4492188
		c2.394043-0.9238281,4.5429688-2.043457,6.4472656-3.3598633h-2.7929688h-1.6381836v-8.9458008h15.4560547v8.9458008h-4.4311523
		c1.9179688,1.3300781,4.0668945,2.4501953,6.4472656,3.3598633l-0.609375,1.4492188
		c-1.7080078-0.6860352-3.2128906-1.4350586-4.5146484-2.2470703v6.5102539H306.8300781z M303.050293,15.168457v-2.4780273
		h-5.2919922v2.4780273H303.050293z M303.050293,16.3867188h-5.2919922v2.6459961h5.2919922V16.3867188z M304.6459961,15.168457
		h5.2919922v-2.4780273h-5.2919922V15.168457z M304.6459961,16.3867188v2.6459961h5.2919922v-2.6459961H304.6459961z"/>
	<path d="M316.175293,16.6176758v-1.4072266h4.0947266c0.3920898-1.7358398,0.6933594-3.2128906,0.9033203-4.4306641
		l1.5117188,0.1679688c-0.1962891,1.2319336-0.4760742,2.652832-0.8398438,4.2626953h1.8061523
		c1.7353516,0,2.8417969,0.0981445,3.3178711,0.2939453c0.5737305,0.2382813,0.9375,0.7631836,1.0917969,1.5751953
		c0.0976563,0.5878906,0.1469727,1.7641602,0.1469727,3.527832c0,3.6123047-0.6020508,6.0200195-1.8056641,7.2241211
		c-0.4624023,0.4477539-0.9594727,0.671875-1.4912109,0.671875c-1.1201172,0-2.4643555-0.3432617-4.0322266-1.0288086
		c-0.0839844-0.0419922-0.1606445-0.0766602-0.230957-0.1049805l0.5253906-1.4072266
		c1.5673828,0.6723633,2.7226563,1.0083008,3.4648438,1.0083008c0.4755859,0,0.8955078-0.4833984,1.2597656-1.4492188
		c0.4624023-1.2456055,0.6933594-2.9536133,0.6933594-5.1240234c0-1.6796875-0.0629883-2.6948242-0.1889648-3.0449219
		c-0.1542969-0.4057617-0.5112305-0.6367188-1.0712891-0.6928711c-0.2519531-0.027832-0.7138672-0.0419922-1.3857422-0.0419922
		h-2.4360352c-1.0361328,4.199707-2.4223633,8.2109375-4.1582031,12.0327148l-1.4277344-0.5668945
		c1.6376953-3.6396484,2.9746094-7.4619141,4.0107422-11.4658203H316.175293z M327.6411133,12.2495117l1.2602539-0.671875
		c0.6855469,1.1337891,1.3364258,2.2822266,1.9526367,3.4438477l-1.2597656,0.6088867
		C329.0341797,14.5805664,328.3828125,13.4536133,327.6411133,12.2495117z M332.828125,24.7446289
		c-0.8959961-2.421875-2.0581055-5.0258789-3.4858398-7.8120117l1.4067383-0.6088867
		c1.4282227,2.7578125,2.6040039,5.4038086,3.5283203,7.9379883L332.828125,24.7446289z M330.5810547,11.4516602l1.28125-0.6928711
		c0.8256836,1.3579102,1.4975586,2.5336914,2.015625,3.527832l-1.3017578,0.6298828
		C331.9321289,13.7265625,331.2670898,12.5717773,330.5810547,11.4516602z"/>
	<path d="M346.8979492,12.8374023h7.6230469v1.4282227h-15.2246094v4.578125c0,4.1020508-0.6303711,7.4335938-1.8901367,9.9956055
		c-0.0839844,0.1679688-0.1679688,0.3364258-0.2519531,0.5043945l-1.2392578-1.2392578
		c1.105957-2.2817383,1.6938477-5.3198242,1.7641602-9.1137695c0.0136719-0.3642578,0.0209961-0.7353516,0.0209961-1.1132813
		v-5.0400391h7.5180664v-2.4990234h1.6796875V12.8374023z M348.8510742,21.5527344l1.3862305-0.7563477
		c1.7216797,2.590332,3.3105469,5.2431641,4.7670898,7.9589844l-1.4072266,0.7353516
		c-0.5322266-0.9663086-0.9169922-1.6591797-1.1547852-2.0791016c-4.9003906,0.8256836-9.4433594,1.3227539-13.6293945,1.4907227
		l-0.0839844-1.4487305c0.5043945-0.0136719,1.2529297-0.0488281,2.2470703-0.1049805
		c1.5961914-3.7802734,3.059082-7.7910156,4.3891602-12.0332031l1.6381836,0.3569336
		c-1.2885742,4.0742188-2.6953125,7.9169922-4.2211914,11.5292969c2.9956055-0.237793,5.9707031-0.5952148,8.9248047-1.0712891
		C350.7270508,24.4648438,349.7753906,22.9384766,348.8510742,21.5527344z"/>
	<path d="M357.965332,16.6176758v-1.4072266h4.0947266c0.3920898-1.7358398,0.6933594-3.2128906,0.9033203-4.4306641
		l1.5117188,0.1679688c-0.1962891,1.2319336-0.4760742,2.652832-0.8398438,4.2626953h1.8061523
		c1.7353516,0,2.8417969,0.0981445,3.3178711,0.2939453c0.5737305,0.2382813,0.9375,0.7631836,1.0917969,1.5751953
		c0.0976563,0.5878906,0.1469727,1.7641602,0.1469727,3.527832c0,3.6123047-0.6020508,6.0200195-1.8056641,7.2241211
		c-0.4624023,0.4477539-0.9594727,0.671875-1.4912109,0.671875c-1.1201172,0-2.4643555-0.3432617-4.0322266-1.0288086
		c-0.0839844-0.0419922-0.1606445-0.0766602-0.230957-0.1049805l0.5253906-1.4072266
		c1.5673828,0.6723633,2.7226563,1.0083008,3.4648438,1.0083008c0.4755859,0,0.8955078-0.4833984,1.2597656-1.4492188
		c0.4624023-1.2456055,0.6933594-2.9536133,0.6933594-5.1240234c0-1.6796875-0.0629883-2.6948242-0.1889648-3.0449219
		c-0.1542969-0.4057617-0.5112305-0.6367188-1.0712891-0.6928711c-0.2519531-0.027832-0.7138672-0.0419922-1.3857422-0.0419922
		h-2.4360352c-1.0361328,4.199707-2.4223633,8.2109375-4.1582031,12.0327148l-1.4277344-0.5668945
		c1.6376953-3.6396484,2.9746094-7.4619141,4.0107422-11.4658203H357.965332z M369.4311523,12.2495117l1.2602539-0.671875
		c0.6855469,1.1337891,1.3364258,2.2822266,1.9526367,3.4438477l-1.2597656,0.6088867
		C370.8242188,14.5805664,370.1728516,13.4536133,369.4311523,12.2495117z M374.6181641,24.7446289
		c-0.8959961-2.421875-2.0581055-5.0258789-3.4858398-7.8120117l1.4067383-0.6088867
		c1.4282227,2.7578125,2.6040039,5.4038086,3.5283203,7.9379883L374.6181641,24.7446289z M372.3710938,11.4516602l1.28125-0.6928711
		c0.8256836,1.3579102,1.4975586,2.5336914,2.015625,3.527832l-1.3017578,0.6298828
		C373.722168,13.7265625,373.0571289,12.5717773,372.3710938,11.4516602z"/>
	<path d="M379.5527344,11.9135742h1.5751953v5.7119141h0.0419922c0.909668-2.1557617,2.2255859-3.6816406,3.9477539-4.578125
		c0.9101563-0.4755859,1.8481445-0.7138672,2.8139648-0.7138672c2.1279297,0,3.6123047,0.9799805,4.4521484,2.9399414
		c0.4335938,1.0361328,0.6508789,2.2963867,0.6508789,3.7802734c0,4.1020508-1.4418945,6.8740234-4.3261719,8.315918
		c-1.7919922,0.8955078-4.199707,1.34375-7.2236328,1.34375l-0.0629883-1.4697266
		c4.0874023,0,6.8735352-0.8959961,8.3579102-2.6879883c1.0498047-1.2880859,1.574707-3.1220703,1.574707-5.5019531
		c0-3.0800781-0.9658203-4.7807617-2.8979492-5.1030273c-0.2241211-0.0419922-0.4482422-0.0629883-0.671875-0.0629883
		c-1.3720703,0-2.6811523,0.6582031-3.9267578,1.9736328c-1.456543,1.5405273-2.3452148,3.465332-2.6669922,5.7753906
		c-0.0419922,0.2939453-0.0703125,0.5810547-0.0839844,0.8608398h-1.5541992V11.9135742z"/>
	<path d="M407.4614258,11.0107422v2.3730469h5.7333984v1.4067383h-5.7333984v2.7929688h5.0400391v1.4072266h-5.0400391v4.2626953
		c1.4980469,0.8120117,3.2553711,2.0864258,5.2714844,3.8222656l-0.9873047,1.112793
		c-1.6098633-1.4140625-3.0449219-2.5126953-4.3051758-3.296875c-0.1118164,1.8198242-0.7700195,3.0029297-1.9736328,3.5488281
		c-0.6582031,0.2797852-1.512207,0.4199219-2.5620117,0.4199219c-1.8764648,0-3.1918945-0.5742188-3.9482422-1.7216797
		c-0.3500977-0.5458984-0.5249023-1.1831055-0.5249023-1.9111328c0-1.4980469,0.7207031-2.4990234,2.1630859-3.0029297
		c0.6577148-0.2236328,1.4277344-0.3359375,2.3100586-0.3359375c0.9375,0,1.9389648,0.2172852,3.0029297,0.6508789v-3.5488281
		h-7.9799805v-1.4072266h7.9799805v-2.7929688h-8.6728516v-1.4067383h8.6728516v-2.3730469H407.4614258z M405.9077148,24.0517578
		c-1.0498047-0.5043945-2.0024414-0.7563477-2.855957-0.7563477c-2.0024414,0.0141602-3.0102539,0.6582031-3.0239258,1.9321289
		c0,1.0219727,0.5175781,1.7011719,1.5537109,2.0371094c0.40625,0.1259766,0.847168,0.1889648,1.3232422,0.1889648
		c1.3154297,0,2.1767578-0.3286133,2.5830078-0.9873047c0.2797852-0.4897461,0.4199219-1.2314453,0.4199219-2.2255859V24.0517578z"
		/>
	<path d="M416.3027344,13.4677734h10.6464844v-2.7304688h1.5332031v2.7304688h5.7539063v1.3227539h-5.7539063v4.7041016
		c0.265625,0.8261719,0.3984375,1.6870117,0.3984375,2.5830078c0,2.6040039-0.8955078,4.4521484-2.6875,5.5439453
		c-1.0917969,0.671875-2.5625,1.1337891-4.409668,1.3857422l-0.230957-1.4697266
		c3.0800781-0.4057617,4.9345703-1.4560547,5.5644531-3.1499023c0.1542969-0.434082,0.2451172-0.9101563,0.2734375-1.4282227
		v-0.2729492h-0.0419922c-0.5595703,0.8261719-1.484375,1.2880859-2.7724609,1.3862305
		c-0.1542969,0.0136719-0.2929688,0.0209961-0.4199219,0.0209961c-1.34375,0-2.4077148-0.4902344-3.1918945-1.4702148
		c-0.5878906-0.7275391-0.8818359-1.5678711-0.8818359-2.5200195c0-1.315918,0.5039063-2.3588867,1.512207-3.1289063
		c0.7412109-0.5737305,1.5957031-0.8608398,2.5615234-0.8608398c1.0644531,0.0136719,1.9804688,0.3291016,2.7519531,0.9448242
		h0.0410156v-2.2680664h-10.6464844V13.4677734z M421.6577148,20.1035156c0,0.9238281,0.3852539,1.6381836,1.1547852,2.1420898
		c0.4755859,0.3081055,1.0009766,0.4619141,1.5751953,0.4619141c1.0078125,0,1.7705078-0.3847656,2.2890625-1.1547852
		c0.2939453-0.4482422,0.4404297-0.9311523,0.4404297-1.4492188c0-0.9238281-0.3916016-1.6381836-1.1757813-2.1420898
		c-0.4619141-0.2939453-0.9804688-0.440918-1.5537109-0.440918c-0.9941406,0-1.7568359,0.3852539-2.2890625,1.1552734
		C421.8046875,19.1098633,421.6577148,19.5859375,421.6577148,20.1035156z"/>
	<path d="M437.0507813,26.2353516c0-1.0634766,0.4199219-1.9106445,1.2597656-2.5410156
		c0.5878906-0.4477539,1.2460938-0.671875,1.9746094-0.671875c1.0625,0,1.9179688,0.4199219,2.5615234,1.2602539
		c0.4335938,0.5878906,0.6513672,1.2387695,0.6513672,1.9526367c0,1.0644531-0.4140625,1.9179688-1.2402344,2.5620117
		c-0.5878906,0.4482422-1.2460938,0.6723633-1.9726563,0.6723633c-1.0644531,0-1.9189453-0.4204102-2.5625-1.2602539
		C437.2744141,27.621582,437.0507813,26.9638672,437.0507813,26.2353516z M438.3105469,26.2353516
		c0,0.7285156,0.3076172,1.2885742,0.9238281,1.6801758c0.3359375,0.1958008,0.6855469,0.2939453,1.0507813,0.2939453
		c0.7265625,0,1.2802734-0.3081055,1.6582031-0.9238281c0.1962891-0.3359375,0.2939453-0.6860352,0.2939453-1.050293
		c0-0.7416992-0.3076172-1.3017578-0.9238281-1.6796875c-0.3222656-0.1821289-0.6650391-0.2729492-1.0283203-0.2729492
		c-0.7285156,0-1.2890625,0.3081055-1.6806641,0.9238281C438.4082031,25.5288086,438.3105469,25.871582,438.3105469,26.2353516z"/>
	<path d="M76.6298828,55.8105469l5.3969727-15.3300781h1.8901367l5.3969727,15.3300781h-1.8061523l-1.4697266-4.4731445h-6.1953125
		l-1.4697266,4.4731445H76.6298828z M80.2841797,49.9936523h5.3129883l-2.625-8.0009766h-0.0419922L80.2841797,49.9936523z"/>
	<path d="M101.6616211,51.4003906c0,2.8842773-1.7709961,4.4169922-5.3129883,4.5991211
		c-0.237793,0.0136719-0.4760742,0.0209961-0.7138672,0.0209961c-1.315918,0-2.6181641-0.1123047-3.9057617-0.3359375v-15.078125
		c1.2314453-0.2236328,2.4638672-0.3359375,3.6958008-0.3359375c3.6821289,0.0141602,5.5297852,1.2529297,5.5439453,3.7167969
		c0,1.2602539-0.5668945,2.2260742-1.7006836,2.8984375c-0.4345703,0.2519531-0.9243164,0.440918-1.4702148,0.5668945v0.0419922
		c1.6938477,0.2519531,2.8486328,0.9868164,3.4648438,2.2050781
		C101.5288086,50.2319336,101.6616211,50.7988281,101.6616211,51.4003906z M93.4086914,46.8857422h1.3862305
		c3.0375977-0.0141602,4.5639648-0.9101563,4.578125-2.6879883c0-1.3862305-0.8334961-2.2050781-2.4990234-2.4570313
		c-0.434082-0.0698242-0.9174805-0.1049805-1.4492188-0.1049805c-0.7138672,0-1.3857422,0.0629883-2.0161133,0.1889648V46.8857422z
		 M100.0029297,51.253418c-0.0283203-2.0019531-1.7641602-3.0097656-5.2080078-3.0239258h-1.3862305v6.2368164
		c0.7001953,0.1264648,1.4418945,0.1894531,2.2260742,0.1894531C98.4624023,54.5297852,99.9189453,53.3955078,100.0029297,51.253418
		z"/>
	<path d="M110.1665039,54.6137695c1.1479492,0,2.2607422-0.1821289,3.3388672-0.5463867
		c0.0698242-0.027832,0.1328125-0.0488281,0.1889648-0.0629883v1.4912109
		c-1.2177734,0.3496094-2.4428711,0.5249023-3.6748047,0.5249023c-2.2963867,0-4.0463867-0.8608398-5.25-2.5830078
		c-0.9521484-1.3720703-1.4282227-3.1357422-1.4282227-5.2919922c0-3.1079102,0.8959961-5.3339844,2.6879883-6.6777344
		c1.078125-0.7983398,2.3867188-1.1972656,3.9272461-1.1972656c1.2875977,0,2.4990234,0.175293,3.6328125,0.5249023v1.4912109
		c-1.1201172-0.3920898-2.1982422-0.5947266-3.2338867-0.6088867c-0.0839844,0-0.1679688,0-0.2519531,0
		c-1.9882813,0-3.4160156,0.8681641-4.2841797,2.6040039c-0.5180664,1.0498047-0.7768555,2.3378906-0.7768555,3.8637695
		c0,2.5761719,0.7275391,4.4174805,2.184082,5.5229492C108.0522461,54.2983398,109.0322266,54.6137695,110.1665039,54.6137695z"/>
	<path d="M128.3525391,47.9355469c-0.0283203,5.3759766-2.5200195,8.0708008-7.4760742,8.0849609
		c-1.2460938,0-2.4853516-0.1123047-3.7167969-0.3359375v-15.078125c1.2597656-0.2236328,2.4990234-0.3359375,3.7167969-0.3359375
		C125.8461914,40.2988281,128.3383789,42.8535156,128.3525391,47.9355469z M126.7563477,47.9355469
		c0-3.2197266-1.1201172-5.1870117-3.3598633-5.9008789c-0.7280273-0.237793-1.5678711-0.3569336-2.5200195-0.3569336
		c-0.7280273,0-1.4067383,0.0629883-2.0371094,0.1889648v12.5576172c0.644043,0.1264648,1.3232422,0.1894531,2.0371094,0.1894531
		c2.6040039,0,4.3261719-0.8823242,5.1660156-2.6459961C126.5180664,50.9458008,126.7563477,49.6015625,126.7563477,47.9355469z"/>
	<path d="M139.9438477,41.8876953h-7.2871094v4.9980469h6.8671875v1.34375h-6.8671875v6.1738281h7.2871094v1.4072266h-8.9667969
		V40.4804688h8.9667969V41.8876953z"/>
	<path d="M152.0610352,41.8876953h-7.0771484v5.2080078h6.6572266v1.34375h-6.6572266v7.3710938h-1.6796875V40.4804688h8.7568359
		V41.8876953z"/>
	<path d="M159.7045898,46.8857422h6.5732422v8.2109375c-1.4140625,0.6020508-2.9262695,0.909668-4.5361328,0.9238281
		c-0.0839844,0-0.1611328,0-0.230957,0c-2.2402344,0-4.0180664-0.7836914-5.3339844-2.3520508
		c-1.2041016-1.4277344-1.8061523-3.2685547-1.8061523-5.5229492c0-2.7998047,0.875-4.9067383,2.625-6.3208008
		c1.3022461-1.0361328,2.9262695-1.5541992,4.8720703-1.5541992c1.3300781,0,2.5688477,0.1611328,3.7172852,0.4829102v1.4702148
		c-1.2182617-0.3920898-2.4082031-0.5878906-3.5703125-0.5878906c-2.4082031,0-4.1020508,0.9169922-5.0820313,2.7509766
		c-0.5600586,1.0219727-0.8398438,2.2749023-0.8398438,3.7587891c0,2.4223633,0.7207031,4.2143555,2.1630859,5.3759766
		c0.9516602,0.7558594,2.0859375,1.1342773,3.4018555,1.1342773c1.0361328,0,2.0371094-0.175293,3.0029297-0.5253906v-5.9008789
		h-4.9560547V46.8857422z"/>
	<path d="M169.9526367,55.8105469v-1.4282227h1.784668V41.9086914h-1.784668v-1.4282227h1.784668h1.6801758h1.7851563v1.4282227
		h-1.7851563v12.4736328h1.7851563v1.4282227H169.9526367z"/>
	<path d="M185.3242188,48.8803711v-0.5668945c0-1.0634766-0.3291016-1.7431641-0.9868164-2.0371094
		c-0.40625-0.1816406-0.9663086-0.2729492-1.6801758-0.2729492c-1.1899414,0-2.4570313,0.2661133-3.8007813,0.7983398v-1.4492188
		c1.2597656-0.4477539,2.5268555-0.671875,3.8007813-0.671875c1.8061523,0,3.0029297,0.3920898,3.5908203,1.1757813
		c0.4624023,0.6162109,0.6933594,1.5751953,0.6933594,2.8769531v7.0771484h-1.512207l-0.0419922-1.8691406h-0.0419922
		c-0.9238281,1.3305664-2.2124023,2.0229492-3.8637695,2.0791016c-1.246582,0-2.1630859-0.4755859-2.7509766-1.4277344
		c-0.3222656-0.5463867-0.4833984-1.1689453-0.4833984-1.8691406c0-1.9038086,1.1132813-3.1010742,3.3393555-3.5913086
		c0.7275391-0.1679688,1.5537109-0.2519531,2.4780273-0.2519531H185.3242188z M185.3242188,50.0356445h-1.2597656
		c-2.4223633,0-3.8012695,0.6582031-4.137207,1.9741211c-0.0419922,0.1958008-0.0629883,0.3920898-0.0629883,0.5878906
		c0,0.9379883,0.3569336,1.574707,1.0708008,1.9111328c0.2802734,0.1259766,0.5742188,0.1889648,0.8823242,0.1889648
		c1.2456055,0,2.1977539-0.4760742,2.855957-1.4282227c0.4335938-0.6435547,0.6508789-1.3930664,0.6508789-2.2470703V50.0356445z"/>
	<path d="M191.7080078,40.0605469v6.2578125H191.75c0.9101563-1.0917969,2.0581055-1.6376953,3.4443359-1.6376953
		c1.7636719,0,3.0166016,0.7841797,3.7587891,2.3520508c0.4335938,0.9101563,0.6508789,2.015625,0.6508789,3.3178711
		c0,2.2124023-0.6298828,3.8217773-1.8896484,4.8300781c-0.7285156,0.5600586-1.5683594,0.8398438-2.5200195,0.8398438
		c-1.4282227-0.0141602-2.6040039-0.6015625-3.5283203-1.7641602h-0.0419922l-0.0209961,1.5541992h-1.5117188v-15.75H191.7080078z
		 M198.0083008,50.3505859c-0.0141602-2.9257813-1.0644531-4.3959961-3.1503906-4.4101563
		c-0.9799805,0-1.7988281,0.3779297-2.456543,1.1342773c-0.4624023,0.5180664-0.6933594,1.0708008-0.6933594,1.6586914v3.234375
		c0,0.8261719,0.3920898,1.5327148,1.1762695,2.1206055c0.6157227,0.4482422,1.2734375,0.6723633,1.9736328,0.6723633
		c1.6240234,0,2.625-0.9101563,3.003418-2.7299805C197.9589844,51.5126953,198.0083008,50.9526367,198.0083008,50.3505859z"/>
	<path d="M206.4291992,45.9824219c-2.2260742,0.0283203-3.3461914,1.484375-3.3598633,4.3681641
		c0,2.4921875,0.8466797,3.9130859,2.5410156,4.2631836c0.3217773,0.0698242,0.6645508,0.1049805,1.0288086,0.1049805
		c0.9521484,0,1.8828125-0.1889648,2.7929688-0.5673828v1.4072266c-0.9941406,0.3076172-1.9599609,0.4619141-2.8979492,0.4619141
		c-2.5058594,0-4.1020508-1.0639648-4.7880859-3.1918945c-0.237793-0.7280273-0.3569336-1.5541992-0.3569336-2.4780273
		c0-2.7299805,0.9169922-4.4799805,2.7509766-5.25c0.644043-0.2797852,1.3720703-0.4199219,2.184082-0.4199219
		c1.0639648,0,2.0649414,0.1259766,3.0029297,0.3779297v1.4067383
		C208.4033203,46.1435547,207.4375,45.9824219,206.4291992,45.9824219z"/>
	<path d="M219.7426758,40.0605469h1.6171875v15.75h-1.512207l-0.0209961-1.5541992h-0.0419922
		c-0.9379883,1.1762695-2.1137695,1.7641602-3.527832,1.7641602c-1.5400391,0-2.7163086-0.671875-3.527832-2.0161133
		c-0.5883789-0.9794922-0.8823242-2.1977539-0.8823242-3.6538086c0-2.4780273,0.7211914-4.1650391,2.1630859-5.0610352
		c0.644043-0.4057617,1.3930664-0.6088867,2.2470703-0.6088867c1.3999023,0.0141602,2.5478516,0.5600586,3.4438477,1.6376953
		h0.0419922V40.0605469z M213.4428711,50.3505859c0,2.4780273,0.7695313,3.9130859,2.3100586,4.3051758
		c0.265625,0.0698242,0.5458984,0.1049805,0.8398438,0.1049805c0.9663086,0,1.7851563-0.3710938,2.4570313-1.1132813
		c0.4619141-0.5317383,0.6928711-1.0917969,0.6928711-1.6796875v-3.234375c0-0.8115234-0.3852539-1.5117188-1.1547852-2.0996094
		c-0.6162109-0.4624023-1.28125-0.6933594-1.9951172-0.6933594C214.5068359,45.96875,213.456543,47.4389648,213.4428711,50.3505859z
		"/>
	<path d="M225.496582,50.7705078c0.1118164,2.6743164,1.3789063,4.0180664,3.8007813,4.0322266
		c0.9663086,0,2.0019531-0.230957,3.1083984-0.6933594v1.3862305c-1.1625977,0.3496094-2.2470703,0.5249023-3.2553711,0.5249023
		c-3.0522461,0-4.7807617-1.4418945-5.1870117-4.3261719c-0.0561523-0.4335938-0.0839844-0.8818359-0.0839844-1.34375
		c0-3.1357422,1.1342773-4.9770508,3.4023438-5.5229492c0.4477539-0.0976563,0.9238281-0.1469727,1.4277344-0.1469727
		c2.9257813,0.0283203,4.3959961,1.8686523,4.4101563,5.5229492c0,0.1401367-0.0141602,0.3291016-0.0419922,0.5668945H225.496582z
		 M225.496582,49.5317383h6.0478516c-0.0561523-2.4082031-1.0009766-3.6191406-2.8349609-3.6333008
		c-1.987793,0-3.059082,1.1972656-3.2128906,3.5913086C225.496582,49.503418,225.496582,49.5175781,225.496582,49.5317383z"/>
	<path d="M235.2192383,45.3105469h2.5830078v-1.1967773c0-1.9321289,0.6162109-3.1220703,1.8481445-3.5703125
		c0.4760742-0.1816406,1.050293-0.2729492,1.722168-0.2729492c0.6435547,0,1.2734375,0.1049805,1.8901367,0.3149414v1.28125
		c-0.5742188-0.2241211-1.1132813-0.3359375-1.6171875-0.3359375c-0.9799805,0-1.6103516,0.2797852-1.8901367,0.8398438
		c-0.1821289,0.3920898-0.2729492,0.9521484-0.2729492,1.6801758v1.2597656h3.5698242v1.2597656h-3.5698242v9.2402344h-1.6801758
		v-9.2402344h-2.5830078V45.3105469z"/>
	<path d="M254.9804688,44.890625v10.2900391c0,2.7158203-0.875,4.409668-2.625,5.0820313
		c-0.671875,0.2519531-1.4770508,0.3779297-2.4150391,0.3779297c-1.105957,0-2.128418-0.1542969-3.065918-0.4619141v-1.4072266
		c0.9936523,0.4057617,2.0161133,0.6088867,3.065918,0.6088867c1.6098633,0,2.6459961-0.6020508,3.1079102-1.8056641
		c0.2236328-0.6020508,0.3359375-1.3793945,0.3359375-2.3310547v-1.050293h-0.0419922
		c-0.8681641,1.0786133-2.0087891,1.6171875-3.4228516,1.6171875c-1.5258789,0-2.6743164-0.6855469-3.4438477-2.0581055
		c-0.5322266-0.9516602-0.7983398-2.1347656-0.7983398-3.5488281c0-2.7158203,0.8330078-4.4448242,2.4990234-5.1870117
		c0.5322266-0.2236328,1.1132813-0.3359375,1.7431641-0.3359375c1.3579102,0,2.4780273,0.5390625,3.3598633,1.6166992
		c0.0556641,0.0561523,0.0981445,0.1049805,0.1259766,0.1469727h0.0419922l0.0209961-1.5537109H254.9804688z
		 M247.2944336,50.2036133c0,2.2119141,0.6367188,3.5908203,1.9111328,4.1367188
		c0.3496094,0.1401367,0.7275391,0.2104492,1.1337891,0.2104492c0.9663086,0,1.7641602-0.3920898,2.394043-1.1762695
		c0.4335938-0.5737305,0.6508789-1.2036133,0.6508789-1.8901367v-2.4360352c0-0.9936523-0.3989258-1.8056641-1.1967773-2.4360352
		c-0.5742188-0.4477539-1.1904297-0.671875-1.8481445-0.671875C248.3232422,45.96875,247.3081055,47.3896484,247.2944336,50.2036133
		z"/>
	<path d="M262.75,55.8525391h-2.1206055c-0.6303711,0-1.1064453-0.2866211-1.4282227-0.8608398
		c-0.1542969-0.2802734-0.230957-0.5742188-0.230957-0.8823242V40.2705078h1.6801758v12.9570313
		c0,0.5180664,0.1679688,0.8261719,0.5039063,0.9238281c0.0556641,0.0141602,0.1606445,0.0351563,0.3149414,0.0629883
		L262.75,54.2983398V55.8525391z"/>
	<path d="M270.9824219,55.8105469V42.3496094h-0.0419922l-4.3051758,3.4858398v-1.8481445l4.347168-3.5068359h1.6796875v15.3300781
		H270.9824219z"/>
	<path d="M283.75,40.2705078c2.1137695,0,3.5351563,0.7280273,4.2631836,2.184082
		c0.3076172,0.6298828,0.4619141,1.3510742,0.4619141,2.1630859c0,1.4560547-0.5668945,2.9262695-1.7006836,4.409668
		c-1.050293,1.4003906-2.8422852,3.1782227-5.3759766,5.3339844v0.0419922h7.1396484v1.4072266h-9.449707v-1.4072266
		c3.4995117-2.8979492,5.746582-5.1376953,6.7407227-6.7197266c0.6162109-0.9941406,0.9243164-1.9741211,0.9243164-2.9399414
		c0-1.75-0.8125-2.7436523-2.4360352-2.9819336c-0.2519531-0.0419922-0.5112305-0.0629883-0.7773438-0.0629883
		c-1.3579102,0.0141602-2.7368164,0.4199219-4.1367188,1.2177734v-1.6381836
		C280.7050781,40.6064453,282.1542969,40.2705078,283.75,40.2705078z"/>
	<path d="M292.1499023,40.4804688h9.1977539v1.4072266l-5.019043,4.9350586v0.0419922h0.6303711
		c2.3657227,0,3.8217773,0.8681641,4.3676758,2.6040039c0.1538086,0.4760742,0.230957,1.0009766,0.230957,1.574707
		c0,2.2963867-0.9379883,3.8081055-2.8139648,4.5361328c-0.7700195,0.2939453-1.6518555,0.440918-2.6459961,0.440918
		c-1.4277344,0-2.6953125-0.265625-3.8007813-0.7978516v-1.6171875c1.0498047,0.6020508,2.21875,0.9379883,3.5068359,1.0083008
		c0.1118164,0,0.2099609,0,0.2939453,0c2.2397461,0,3.4863281-0.9521484,3.7382813-2.8564453
		c0.027832-0.237793,0.0419922-0.4755859,0.0419922-0.7138672c0-1.5400391-0.8193359-2.4707031-2.4570313-2.7929688
		c-0.5043945-0.0976563-1.0786133-0.1469727-1.722168-0.1469727h-1.5332031v-1.3017578l5.019043-4.8720703v-0.0419922h-7.034668
		V40.4804688z"/>
	<path d="M312.7089844,50.8754883h2.6040039v1.3652344h-2.6040039v3.5698242h-1.6591797v-3.5698242h-7.3500977v-1.3652344
		l7.3500977-10.3950195h1.6591797V50.8754883z M311.0498047,50.8754883V42.9375h-0.0419922l-5.5859375,7.8959961v0.0419922
		H311.0498047z"/>
	<path d="M326.9467773,40.753418v1.4912109c-0.9658203-0.3779297-1.9951172-0.5668945-3.0869141-0.5668945
		c-1.7363281,0-2.9960938,0.8188477-3.7802734,2.4570313c-0.40625,0.8959961-0.644043,1.9736328-0.7138672,3.2338867
		l0.0419922,0.0209961c0.7841797-1.0922852,2.0019531-1.6870117,3.6542969-1.7851563
		c0.1396484-0.0136719,0.2797852-0.0209961,0.4199219-0.0209961c1.8618164,0,3.2338867,0.6650391,4.1157227,1.9951172
		c0.5600586,0.8540039,0.840332,1.8691406,0.840332,3.0449219c0,2.1142578-0.7421875,3.6401367-2.2260742,4.578125
		c-0.8823242,0.5458984-1.9321289,0.8188477-3.1499023,0.8188477c-3.6264648-0.0283203-5.4462891-2.3378906-5.4604492-6.9301758
		c0-4.7036133,1.3720703-7.5317383,4.1162109-8.4838867c0.6435547-0.2236328,1.3579102-0.3359375,2.1420898-0.3359375
		C324.9936523,40.2705078,326.0229492,40.4316406,326.9467773,40.753418z M323.0620117,54.6137695
		c1.7636719,0,2.9047852-0.7421875,3.4228516-2.2260742c0.1816406-0.5180664,0.2729492-1.105957,0.2729492-1.7641602
		c0-1.4980469-0.5458984-2.5688477-1.6381836-3.2128906c-0.5742188-0.3500977-1.2387695-0.5249023-1.9946289-0.5249023
		c-1.3583984,0-2.394043,0.4902344-3.1083984,1.4697266c-0.4482422,0.6162109-0.671875,1.3300781-0.671875,2.1420898
		c0,1.2739258,0.3779297,2.3032227,1.1342773,3.0869141C321.1508789,54.2705078,322.0117188,54.6137695,323.0620117,54.6137695z"/>
	<path d="M331.0629883,40.4804688h9.8696289v1.4072266c-2.421875,3.9897461-4.4448242,8.6308594-6.0688477,13.9228516h-1.7641602
		c1.6098633-5.0678711,3.6821289-9.6948242,6.2163086-13.8808594v-0.0419922h-8.2529297V40.4804688z"/>
	<path d="M344.7543945,54.0463867c1.0498047,0.3779297,2.1489258,0.5673828,3.296875,0.5673828
		c1.9179688,0,3.2338867-0.8959961,3.9482422-2.6879883c0.3217773-0.8540039,0.496582-1.8618164,0.5249023-3.0244141
		l-0.0419922-0.0209961c-0.8959961,1.1904297-2.2470703,1.7993164-4.0532227,1.8271484
		c-1.9179688,0-3.3110352-0.706543-4.1787109-2.1210938c-0.5322266-0.8676758-0.7983398-1.9106445-0.7983398-3.1289063
		c0-1.8901367,0.6860352-3.3037109,2.0581055-4.2421875c0.9243164-0.6298828,2.0371094-0.9448242,3.3388672-0.9448242
		c3.262207,0,5.0610352,1.8134766,5.3969727,5.4389648c0.0424805,0.4199219,0.0634766,0.847168,0.0634766,1.28125
		c0,5.6142578-1.8061523,8.6098633-5.418457,8.987793c-0.2797852,0.027832-0.5600586,0.0419922-0.8398438,0.0419922
		c-1.1201172,0-2.2192383-0.1611328-3.296875-0.4829102V54.0463867z M348.8491211,41.6777344
		c-1.5400391,0-2.625,0.5742188-3.2548828,1.7216797c-0.3081055,0.5878906-0.4619141,1.2744141-0.4619141,2.0581055
		c0,1.6523438,0.5737305,2.8071289,1.722168,3.4648438c0.5595703,0.3222656,1.2036133,0.4833984,1.9316406,0.4833984
		c1.4140625,0,2.4638672-0.5322266,3.1503906-1.5961914c0.4057617-0.6298828,0.6088867-1.3720703,0.6088867-2.2260742
		c0-1.105957-0.3432617-2.0439453-1.0292969-2.8139648C350.8300781,42.0419922,349.9414063,41.6777344,348.8491211,41.6777344z"/>
	<path d="M366.2163086,41.8876953h-6.6357422l-0.2944336,4.9560547h0.0419922
		c0.840332-0.4902344,1.7709961-0.7353516,2.793457-0.7353516c2.0996094,0,3.5136719,0.7700195,4.2416992,2.3100586
		c0.3217773,0.671875,0.4829102,1.456543,0.4829102,2.3520508c0,2.7861328-1.2250977,4.4663086-3.6748047,5.0400391
		c-0.6020508,0.1396484-1.2602539,0.2099609-1.9741211,0.2099609c-1.34375,0-2.590332-0.265625-3.737793-0.7978516v-1.5961914
		c1.2734375,0.6582031,2.5200195,0.9873047,3.737793,0.9873047c2.3798828,0,3.6889648-1.050293,3.9272461-3.1503906
		c0.027832-0.2236328,0.0419922-0.4545898,0.0419922-0.6928711c0-1.8618164-0.8125-2.9399414-2.4360352-3.2338867
		c-0.2802734-0.0556641-0.5810547-0.0839844-0.9033203-0.0839844c-1.105957,0.0141602-2.0229492,0.3359375-2.7509766,0.9658203
		h-1.4697266l0.4619141-7.9379883h8.1479492V41.8876953z"/>
	<path d="M374.0493164,40.2705078c1.5400391,0,2.9609375,0.2939453,4.2631836,0.8818359v1.5961914
		c-1.3725586-0.7416992-2.7509766-1.112793-4.137207-1.112793c-1.4560547,0-2.3452148,0.5112305-2.6669922,1.5327148
		c-0.0839844,0.2661133-0.1259766,0.5458984-0.1259766,0.840332c0,1.2739258,0.8051758,2.2255859,2.4150391,2.855957
		c0.1118164,0.0419922,0.2236328,0.0839844,0.3359375,0.1259766c2.2397461,0.7421875,3.6542969,1.6728516,4.2421875,2.7929688
		c0.3076172,0.5742188,0.4619141,1.2529297,0.4619141,2.0366211c0,2.2680664-1.0991211,3.6196289-3.296875,4.0532227
		c-0.4760742,0.0976563-1.0014648,0.1469727-1.5751953,0.1469727c-1.3857422,0-2.6323242-0.2939453-3.737793-0.8818359
		c-0.0981445-0.0419922-0.1821289-0.0839844-0.2519531-0.1259766v-1.6591797
		c1.2036133,0.8261719,2.4916992,1.2460938,3.8637695,1.2602539c2.1279297-0.1401367,3.2338867-1.0712891,3.3178711-2.793457
		c0-1.1196289-0.5532227-1.9873047-1.6586914-2.6040039c-0.3920898-0.2236328-0.8613281-0.4267578-1.4072266-0.6088867
		c-2.6601563-0.8955078-4.0947266-2.2470703-4.3051758-4.0527344c-0.027832-0.1821289-0.0419922-0.3642578-0.0419922-0.5458984
		c0-1.6381836,0.7001953-2.7514648,2.1000977-3.3393555C372.4746094,40.4038086,373.2094727,40.2705078,374.0493164,40.2705078z"/>
	<path d="M386.6069336,40.2705078c2.0717773,0,3.5283203,0.5742188,4.3681641,1.722168
		c0.4057617,0.5742188,0.6088867,1.2250977,0.6088867,1.9526367c0,1.6245117-0.9101563,2.793457-2.7299805,3.5073242
		c-0.0839844,0.0283203-0.1542969,0.0561523-0.2099609,0.0839844v0.0419922
		c2.3100586,0.7001953,3.472168,2.0649414,3.4863281,4.0947266c0,1.6665039-0.7285156,2.8774414-2.184082,3.6333008
		c-0.9243164,0.4760742-2.0371094,0.7138672-3.3393555,0.7138672c-2.2817383,0-3.8847656-0.6577148-4.8085938-1.9741211
		c-0.4760742-0.671875-0.7143555-1.4624023-0.7143555-2.3730469c0-1.4697266,0.7421875-2.6176758,2.2260742-3.4438477
		c0.3920898-0.2099609,0.8120117-0.3847656,1.2602539-0.5249023v-0.0419922
		c-1.5405273-0.5737305-2.4780273-1.4980469-2.8139648-2.7719727c-0.0839844-0.3076172-0.1259766-0.6230469-0.1259766-0.9453125
		c0-1.371582,0.6508789-2.3867188,1.9526367-3.0449219C384.4091797,40.4804688,385.4169922,40.2705078,386.6069336,40.2705078z
		 M386.5439453,48.3134766c-2.2539063,0.4619141-3.5209961,1.3793945-3.8007813,2.7509766
		c-0.0419922,0.1821289-0.0629883,0.3642578-0.0629883,0.5458984c0,1.3022461,0.6225586,2.2050781,1.8691406,2.7089844
		c0.5878906,0.2382813,1.2734375,0.3574219,2.0576172,0.3574219c1.7641602,0,2.9472656-0.5463867,3.5493164-1.6381836
		c0.2236328-0.4335938,0.3359375-0.9101563,0.3359375-1.4282227c0-1.6933594-1.3022461-2.7929688-3.90625-3.296875
		C386.5722656,48.3134766,386.5581055,48.3134766,386.5439453,48.3134766z M386.6069336,46.9907227
		c1.7080078-0.3500977,2.7861328-1.0292969,3.234375-2.0371094c0.1118164-0.2797852,0.1679688-0.5668945,0.1679688-0.8608398
		c0-1.0922852-0.5668945-1.8339844-1.7011719-2.2260742c-0.5039063-0.1679688-1.0708008-0.2519531-1.7011719-0.2519531
		c-1.6376953,0-2.6879883,0.4902344-3.1499023,1.4697266c-0.1401367,0.3081055-0.2099609,0.644043-0.2099609,1.0083008
		c0,1.0917969,0.6508789,1.9179688,1.953125,2.4775391C385.6201172,46.7524414,386.0888672,46.8925781,386.6069336,46.9907227z"/>
	<path d="M399.6269531,40.2705078c3.0522461,0,4.8369141,1.7783203,5.3554688,5.3339844
		c0.1118164,0.7700195,0.1679688,1.6171875,0.1679688,2.5410156c0,4.9003906-1.5961914,7.5112305-4.7880859,7.8330078
		c-0.2382813,0.027832-0.4829102,0.0419922-0.7353516,0.0419922c-3.0517578,0-4.8369141-1.777832-5.3549805-5.3339844
		c-0.1118164-0.7695313-0.1679688-1.6171875-0.1679688-2.5410156c0-4.8999023,1.5961914-7.5107422,4.7880859-7.8330078
		C399.1298828,40.284668,399.375,40.2705078,399.6269531,40.2705078z M396.1621094,51.6943359l6.7832031-7.5805664
		c-0.6020508-1.6381836-1.7084961-2.4643555-3.3183594-2.4780273c-1.8339844,0-3.0097656,1.0571289-3.527832,3.1708984
		c-0.2099609,0.8959961-0.3149414,2.0087891-0.3149414,3.3388672
		C395.7841797,49.5878906,395.9101563,50.7705078,396.1621094,51.6943359z M396.3930664,52.3876953
		c0.6162109,1.4980469,1.6938477,2.2539063,3.2338867,2.2680664c1.8339844,0,3.0102539-1.0571289,3.5283203-3.1713867
		c0.2099609-0.909668,0.3149414-2.0229492,0.3149414-3.3388672s-0.1049805-2.421875-0.3149414-3.3178711L396.3930664,52.3876953z"/>
	<path d="M413.6342773,56.0205078c-2.4643555,0-4.2773438-0.9516602-5.4389648-2.855957
		c-0.8120117-1.3300781-1.2182617-3.0029297-1.2182617-5.019043c0-3.09375,0.8959961-5.3198242,2.6879883-6.6777344
		c1.0922852-0.7983398,2.4150391-1.1972656,3.9692383-1.1972656c2.4638672,0,4.2768555,0.9521484,5.4389648,2.855957
		c0.8115234,1.3300781,1.2177734,3.0029297,1.2177734,5.019043c0,3.0942383-0.8959961,5.3203125-2.6879883,6.6782227
		C416.5112305,55.621582,415.1879883,56.0205078,413.6342773,56.0205078z M413.6342773,41.6777344
		c-2.4780273,0-4.0253906,1.2670898-4.6411133,3.8007813c-0.1962891,0.7841797-0.2939453,1.6733398-0.2939453,2.6669922
		c0,3.472168,1.0991211,5.5512695,3.296875,6.2368164c0.5039063,0.1542969,1.050293,0.2314453,1.6381836,0.2314453
		c2.4780273,0,4.0249023-1.2670898,4.6411133-3.8012695c0.1958008-0.7836914,0.2939453-1.6728516,0.2939453-2.6669922
		c0-3.4716797-1.0991211-5.5507813-3.2973633-6.2368164C414.7680664,41.7548828,414.222168,41.6777344,413.6342773,41.6777344z"/>
	<path d="M423.9658203,60.4306641V38.8007813h1.5537109v21.6298828H423.9658203z"/>
	<path d="M430.7695313,40.4804688h1.9746094l-0.2109375,11.0668945h-1.5537109L430.7695313,40.4804688z M430.8535156,55.8105469
		v-2.5830078h1.8066406v2.5830078H430.8535156z"/>
	<path d="M445.1337891,43.840332c0-1.2875977-0.9736328-1.9946289-2.9189453-2.1206055
		c-0.2099609-0.0141602-0.4277344-0.0209961-0.6513672-0.0209961c-1.4697266,0-3.0097656,0.2592773-4.6201172,0.7768555v-1.5332031
		c1.6103516-0.4477539,3.2207031-0.671875,4.8300781-0.671875c2.3945313,0,3.9619141,0.6298828,4.7041016,1.8901367
		c0.2666016,0.4482422,0.3994141,0.9589844,0.3994141,1.5327148c0,1.246582-0.5253906,2.2890625-1.5751953,3.1293945
		c-0.2382813,0.1958008-0.5810547,0.440918-1.0292969,0.7348633c-0.9658203,0.644043-1.6162109,1.1899414-1.9521484,1.6376953
		c-0.4628906,0.6445313-0.6933594,1.4003906-0.6933594,2.2680664h-1.6796875c0-1.4975586,0.5878906-2.7368164,1.7636719-3.7167969
		c0.265625-0.2236328,0.6640625-0.5175781,1.1972656-0.8818359c0.9091797-0.6162109,1.5039063-1.1269531,1.7851563-1.5332031
		C444.9863281,44.8837891,445.1337891,44.3867188,445.1337891,43.840332z M439.8837891,55.8105469v-2.5830078h1.8271484v2.5830078
		H439.8837891z"/>
	<path d="M451.0761719,47.6206055v-2.8769531h1.9746094v2.8769531H451.0761719z M451.0761719,55.8105469v-2.8769531h1.9746094
		v2.8769531H451.0761719z"/>
	<path d="M457.5654297,58.1206055l1.5322266-5.1870117h2.1210938l-2.0996094,5.1870117H457.5654297z M458.9931641,47.6206055
		v-2.8769531h1.9736328v2.8769531H458.9931641z"/>
	<path d="M465.9433594,55.8105469v-2.8769531h1.9746094v2.8769531H465.9433594z"/>
	<path d="M472.7050781,52.9335938h2.1210938l-2.0996094,5.1870117h-1.5546875L472.7050781,52.9335938z"/>
	<path d="M476.2539063,58.7504883v-1.2597656h11.8867188v1.2597656H476.2539063z"/>
	<path d="M489.7773438,50.4555664v-1.3232422h6.4277344v1.3232422H489.7773438z"/>
	<path d="M502.6308594,48.9643555c-0.9238281,0-1.75,0.4692383-2.4785156,1.4072266
		c-0.0566406,0.0703125-0.1054688,0.1401367-0.1464844,0.2099609l-0.9667969-0.7768555
		c0.9375-1.4418945,2.1347656-2.1699219,3.5917969-2.184082c1.0488281,0.0141602,2.0292969,0.4692383,2.9394531,1.3647461
		c0.7285156,0.7143555,1.4550781,1.0712891,2.1835938,1.0712891c0.9238281,0,1.75-0.46875,2.4785156-1.4072266
		c0.0546875-0.0698242,0.1054688-0.1396484,0.1464844-0.2099609l0.9667969,0.7768555
		c-0.9394531,1.4423828-2.1347656,2.1704102-3.5917969,2.184082c-1.0488281-0.0136719-2.0292969-0.46875-2.9394531-1.3647461
		C504.0859375,49.3217773,503.3574219,48.9643555,502.6308594,48.9643555z"/>
	<path d="M519.1152344,49.1953125c0,3.4584961-1.1191406,6.4052734-3.359375,8.8413086
		c-0.2382813,0.2519531-0.4765625,0.4897461-0.7148438,0.7138672h-1.5957031
		c2.7011719-2.5620117,4.0527344-5.746582,4.0527344-9.5551758c-0.0136719-3.8217773-1.3652344-7.0063477-4.0527344-9.5546875
		h1.5957031c2.421875,2.2402344,3.765625,5.0400391,4.0332031,8.3999023
		C519.1015625,48.4326172,519.1152344,48.8173828,519.1152344,49.1953125z"/>
	<path d="M522.4746094,40.9003906V39.640625h2.1015625c1.4140625,0,2.3027344,0.5112305,2.6660156,1.5327148
		c0.140625,0.4482422,0.2109375,0.9873047,0.2109375,1.6171875v3.1499023
		c0.0136719,1.7084961,0.59375,2.5693359,1.7421875,2.5830078h0.9238281v1.3442383h-0.9238281
		c-1.1484375,0.0283203-1.7285156,0.8891602-1.7421875,2.5830078v3.1499023c0,1.5961914-0.4902344,2.5756836-1.4707031,2.9399414
		c-0.3925781,0.1396484-0.8613281,0.2099609-1.40625,0.2099609h-2.1015625v-1.2597656h1.4082031
		c0.8671875,0,1.4277344-0.1889648,1.6796875-0.5673828c0.2382813-0.3500977,0.3574219-0.9311523,0.3574219-1.7426758v-2.7929688
		c0-1.512207,0.5175781-2.5410156,1.5527344-3.0869141c0.0703125-0.0283203,0.1328125-0.0561523,0.1894531-0.0844727v-0.0419922
		c-1.0917969-0.5039063-1.671875-1.4555664-1.7421875-2.855957c0-0.1118164,0-0.2167969,0-0.3149414v-2.7929688
		c0-1.1474609-0.2597656-1.8481445-0.7773438-2.1000977c-0.28125-0.1396484-0.7011719-0.2099609-1.2597656-0.2099609H522.4746094z"
		/>
	<path d="M537.2792969,40.9003906h-4.1152344V39.640625h5.6699219v19.1098633h-5.6699219v-1.2597656h4.1152344V40.9003906z"/>
</g>
<g>
	<path d="M79.8007813,82.9594727l1.9321289,12.2431641h0.0419922l1.8691406-12.2431641h3.6538086l1.8691406,12.2431641h0.0419922
		l1.9321289-12.2431641h2.8979492l-3.1499023,15.3300781h-3.5073242l-1.9316406-12.2431641h-0.0419922l-1.9321289,12.2431641
		h-3.5068359l-3.1503906-15.3300781H79.8007813z"/>
	<path d="M98.3647461,93.6274414c0.1259766,1.5263672,0.7983398,2.4433594,2.0161133,2.7509766
		c0.3637695,0.0839844,0.7768555,0.1259766,1.2392578,0.1259766c0.8535156,0,1.8964844-0.2099609,3.1289063-0.6298828v2.1420898
		c-1.1904297,0.3217773-2.3452148,0.4829102-3.465332,0.4829102c-2.8417969,0-4.6269531-1.0917969-5.3549805-3.2758789
		c-0.237793-0.7138672-0.3569336-1.512207-0.3569336-2.394043c0-2.9257813,1.0712891-4.7250977,3.2128906-5.3969727
		c0.5883789-0.1816406,1.2319336-0.2729492,1.9321289-0.2729492c3.0942383,0,4.6899414,1.7568359,4.7880859,5.2709961
		c0,0.1123047,0,0.2241211,0,0.3359375c0,0.2802734-0.0209961,0.5668945-0.0629883,0.8608398H98.3647461z M98.3647461,91.8007813
		h4.4941406c-0.0419922-1.777832-0.7421875-2.6743164-2.1000977-2.6879883c-1.1621094,0-1.8969727,0.5390625-2.2050781,1.6166992
		C98.4697266,91.0375977,98.4067383,91.3945313,98.3647461,91.8007813z"/>
	<path d="M110.6918945,82.5395508v5.9428711h0.0419922c0.9936523-0.8535156,2.0507813-1.2944336,3.1708984-1.3227539
		c1.6660156,0,2.8769531,0.7421875,3.6328125,2.2260742c0.4760742,0.9379883,0.7143555,2.0859375,0.7143555,3.4438477
		c0,2.1704102-0.6162109,3.7661133-1.8481445,4.7880859c-0.7280273,0.5878906-1.5615234,0.8818359-2.4990234,0.8818359
		c-1.1762695,0-2.1914063-0.4267578-3.0449219-1.2807617c-0.0981445-0.0981445-0.1889648-0.1962891-0.2729492-0.2944336h-0.0419922
		l-0.0419922,1.3652344h-2.625v-15.75H110.6918945z M115.4794922,92.8295898
		c-0.0136719-2.3657227-0.8188477-3.5561523-2.4145508-3.5698242c-0.840332,0-1.5053711,0.3291016-1.9951172,0.9868164
		c-0.2802734,0.3779297-0.4199219,0.7631836-0.4199219,1.1547852v2.855957c0,0.6865234,0.3286133,1.253418,0.9868164,1.7011719
		c0.4477539,0.2939453,0.9238281,0.440918,1.4282227,0.440918c1.2177734,0,1.9804688-0.7275391,2.2885742-2.184082
		C115.4375,93.7954102,115.4794922,93.3334961,115.4794922,92.8295898z"/>
	<path d="M120.5200195,83.3793945c5.6557617,0,11.409668-0.1396484,17.2617188-0.4199219l0.1049805,2.5200195
		c-4.5917969,0.3920898-7.6513672,1.6455078-9.1767578,3.7592773c-0.644043,0.8959961-0.9663086,1.8969727-0.9663086,3.0029297
		c0,1.8759766,0.7353516,3.2270508,2.2050781,4.0527344c0.8398438,0.4619141,1.8339844,0.6933594,2.9819336,0.6933594
		c0.8120117,0,1.6660156-0.0844727,2.5620117-0.2524414l0.3149414,2.5620117
		c-1.0498047,0.1962891-2.0576172,0.2939453-3.0239258,0.2939453c-2.828125,0-4.9702148-0.8188477-6.4257813-2.456543
		c-1.078125-1.2319336-1.6171875-2.7719727-1.6171875-4.6201172c0-2.2119141,0.9663086-4.0952148,2.8979492-5.6489258
		c0.5180664-0.4204102,1.0849609-0.7910156,1.7011719-1.1132813v-0.0419922
		c-3.065918,0.1259766-6.0058594,0.1889648-8.8198242,0.1889648V83.3793945z M136.4589844,91.2963867l-2.1630859,1.0292969
		c-0.5600586-1.105957-1.1552734-2.21875-1.7851563-3.3393555l2.1630859-1.0917969
		C135.331543,89.0844727,135.9267578,90.21875,136.4589844,91.2963867z M139.8608398,90.6245117l-2.2050781,1.0498047
		c-0.6298828-1.2177734-1.2387695-2.3515625-1.8271484-3.4018555l2.2050781-1.112793
		C138.5517578,88.0834961,139.1606445,89.2387695,139.8608398,90.6245117z"/>
	<path d="M141.6459961,83.3164063h15.1196289v14.8261719h-15.1196289v-2.5200195h12.3266602v-9.7861328h-12.3266602V83.3164063z"/>
	<path d="M160.9658203,85.0595703l1.34375-2.5200195c2.1279297,1.0078125,4.2978516,2.1352539,6.5102539,3.3808594
		l-1.4072266,2.4780273C165.5366211,87.3486328,163.3876953,86.2353516,160.9658203,85.0595703z M175.140625,84.5556641
		l2.6669922,0.5878906c-1.1201172,6.328125-4.4731445,10.4511719-10.059082,12.3691406
		c-1.75,0.6020508-3.7167969,1.0004883-5.9008789,1.1967773l-0.4199219-2.7299805
		c4.8720703-0.4755859,8.4208984-2.0087891,10.6469727-4.5991211
		C173.5444336,89.6586914,174.5664063,87.3837891,175.140625,84.5556641z"/>
	<path d="M195.6572266,80.4394531c1.2880859,0,2.3378906,0.4902344,3.1499023,1.4702148
		c0.6303711,0.7700195,0.9453125,1.6450195,0.9453125,2.625c0,1.2880859-0.4902344,2.3378906-1.4702148,3.1499023
		c-0.7700195,0.6298828-1.6450195,0.9448242-2.625,0.9448242h-0.1049805
		c-3.7099609,1.1484375-7.3427734,2.0092773-10.8989258,2.5830078v2.8139648c0,1.0786133,0.1958008,1.7641602,0.5878906,2.0581055
		c0.3500977,0.2519531,0.9731445,0.3779297,1.8691406,0.3779297c3.3178711,0,6.4887695-0.1049805,9.5131836-0.3149414
		l0.0839844,2.6040039c-3.4165039,0.2099609-6.6855469,0.3149414-9.8071289,0.3149414
		c-2.0161133,0-3.3881836-0.40625-4.1162109-1.2177734c-0.6582031-0.7558594-0.9868164-2.0581055-0.9868164-3.90625V82.6865234
		h2.855957v5.8588867c2.5336914-0.4199219,5.0820313-0.9794922,7.644043-1.6796875
		c-0.4902344-0.7001953-0.7348633-1.4770508-0.7348633-2.3310547c0-1.2880859,0.4897461-2.3378906,1.4697266-3.1499023
		C193.8022461,80.7543945,194.6772461,80.4394531,195.6572266,80.4394531z M195.6572266,86.8447266
		c0.8261719,0,1.4628906-0.3432617,1.9111328-1.0292969c0.265625-0.3916016,0.3989258-0.8188477,0.3989258-1.2807617
		c0-0.8261719-0.3432617-1.4628906-1.0288086-1.9111328c-0.3920898-0.265625-0.8193359-0.3989258-1.28125-0.3989258
		c-0.8261719,0-1.4628906,0.3432617-1.9106445,1.0288086c-0.2661133,0.3920898-0.3994141,0.8193359-0.3994141,1.28125
		c0,0.8261719,0.3432617,1.4628906,1.0292969,1.9106445C194.7680664,86.7114258,195.1953125,86.8447266,195.6572266,86.8447266z"/>
	<path d="M202.7338867,86.4033203h9.9121094l-0.5668945,9.7231445h3.2128906v2.2890625h-14.2802734v-2.2890625h8.2744141
		l0.4619141-7.434082h-7.0141602V86.4033203z"/>
	<path d="M219.8276367,91.9267578l-2.4360352-1.2182617l1.1132813-2.3730469l1.5327148,0.7773438
		c0.0141602,0,0.203125,0.0629883,0.5673828,0.1889648l0.5668945,0.0209961h14.0488281v2.8139648h-14.3217773
		c-0.1123047,0-0.3081055-0.0209961-0.5878906-0.0629883L219.8276367,91.9267578z"/>
	<path d="M240.1557617,99.4023438l-0.440918-2.5200195c3.9619141-0.3916016,6.8041992-1.3505859,8.5263672-2.8769531
		c0.2236328-0.2099609,0.4335938-0.4267578,0.6298828-0.6508789c-1.6665039-0.8535156-3.6049805-1.777832-5.8168945-2.7719727
		l1.3227539-2.4360352c2.2539063,1.0083008,4.2280273,1.9462891,5.921875,2.8139648
		c0.5043945-1.315918,0.8120117-2.9326172,0.9243164-4.8510742h-7.3291016
		c-0.8681641,2.2963867-2.2402344,4.340332-4.1162109,6.1323242l-1.9316406-1.7011719
		c1.9458008-1.9179688,3.2827148-4.2421875,4.0107422-6.972168c0.1679688-0.6577148,0.2939453-1.3085938,0.3779297-1.9526367
		l2.6669922,0.1679688c-0.0703125,0.6860352-0.1611328,1.2880859-0.2729492,1.8056641h9.5761719v0.9033203
		c0,5.0961914-1.2182617,8.8129883-3.6542969,11.1508789C248.3251953,97.7578125,244.8598633,99.0102539,240.1557617,99.4023438z"/>
	<path d="M268.0224609,96.5463867c2.3378906-0.3076172,3.8217773-1.4907227,4.4516602-3.5488281
		c0.2099609-0.6855469,0.3149414-1.4418945,0.3149414-2.2680664c0-1.7919922-0.644043-3.2128906-1.9316406-4.2631836
		c-0.8120117-0.6577148-1.7714844-1.0634766-2.8769531-1.2177734c-0.8544922,6.6362305-2.1420898,10.7519531-3.8642578,12.3481445
		c-0.7001953,0.644043-1.519043,0.9658203-2.4570313,0.9658203c-1.0361328,0-1.9951172-0.5458984-2.8769531-1.6381836
		c-1.1201172-1.3857422-1.6796875-3.0795898-1.6796875-5.081543c0-2.7163086,0.9165039-4.9140625,2.7509766-6.5942383
		c1.8613281-1.7080078,4.2836914-2.5620117,7.265625-2.5620117c2.421875,0,4.4238281,0.7631836,6.0063477,2.2890625
		c1.5537109,1.5258789,2.3305664,3.4438477,2.3305664,5.7539063c0,2.9541016-0.902832,5.1870117-2.7089844,6.6992188
		c-1.1337891,0.9516602-2.5195313,1.4975586-4.1577148,1.6376953L268.0224609,96.5463867z M265.2084961,85.3745117
		c-2.1704102,0.4199219-3.7172852,1.4770508-4.6411133,3.1708984c-0.5322266,0.9804688-0.7978516,2.0791016-0.7978516,3.2973633
		c0,1.3579102,0.3286133,2.4916992,0.9868164,3.4018555c0.3217773,0.434082,0.6225586,0.6582031,0.902832,0.671875
		c0.5458984,0,1.105957-0.706543,1.6801758-2.1210938C264.0952148,91.9194336,264.7182617,89.112793,265.2084961,85.3745117z"/>
	<path d="M285.4941406,84.8496094v-3.4228516h2.6669922v3.4228516h3.3603516v-3.4228516h2.7299805v3.4228516h2.8979492v2.3730469
		h-2.8979492v6.824707h-8.7573242v-6.824707h-2.7929688v9.2397461h13.4609375v2.394043h-13.4609375v1.3862305h-2.8139648V87.2226563
		h-2.4780273v-2.3730469h2.4780273v-3.4228516h2.8139648v3.4228516H285.4941406z M288.1611328,87.2226563v4.6621094h3.3603516
		v-4.6621094H288.1611328z"/>
	<path d="M310.6523438,100.074707v-6.8671875h1.4487305c-1.0361328-0.671875-2.015625-1.4140625-2.9399414-2.2260742h-1.7636719
		c-0.9384766,0.8261719-1.918457,1.5683594-2.9399414,2.2260742h1.6586914v0.3569336
		c0,2.15625-0.5810547,3.7524414-1.7426758,4.7880859c-0.9384766,0.8256836-2.3803711,1.4702148-4.3261719,1.9321289
		l-1.050293-2.3100586c1.8618164-0.5039063,3.059082-1.0151367,3.5913086-1.5332031
		c0.5039063-0.4755859,0.7768555-1.2666016,0.8188477-2.3730469c0-0.0839844,0-0.1538086,0-0.2099609
		c-1.2460938,0.7280273-2.6533203,1.3793945-4.2207031,1.953125l-0.9873047-2.4570313
		c2.1699219-0.7275391,4.0039063-1.519043,5.5019531-2.3730469h-0.8398438h-2.8139648v-9.4287109h16.4638672v9.4287109h-3.6538086
		c1.5117188,0.8540039,3.3457031,1.6455078,5.5019531,2.3730469l-0.9873047,2.4570313
		c-1.2880859-0.4755859-2.5688477-1.0566406-3.8427734-1.7431641v6.0063477H310.6523438z M306.9140625,85.3115234v-1.5332031
		h-4.0527344v1.5332031H306.9140625z M306.9140625,87.2856445h-4.0527344v1.5957031h4.0527344V87.2856445z M309.6445313,85.3115234
		h4.0527344v-1.5332031h-4.0527344V85.3115234z M309.6445313,87.2856445v1.5957031h4.0527344v-1.5957031H309.6445313z"/>
	<path d="M333.059082,91.4223633c0,4.5361328-0.9311523,7.1118164-2.7929688,7.7280273
		C330,99.234375,329.7202148,99.2763672,329.4262695,99.2763672c-1.105957,0-2.4150391-0.2661133-3.9267578-0.7978516
		c-0.1962891-0.0561523-0.3710938-0.1191406-0.5253906-0.1889648l0.7353516-2.4150391
		c1.4697266,0.5322266,2.5200195,0.7978516,3.1499023,0.7978516c0.4619141,0,0.8256836-0.6157227,1.0917969-1.8476563
		c0.2099609-0.9941406,0.3149414-2.2680664,0.3149414-3.8222656c0-1.5957031-0.0629883-2.5478516-0.1889648-2.855957
		c-0.1401367-0.2939453-0.4550781-0.4545898-0.9448242-0.4829102c-0.1401367-0.0136719-0.3710938-0.0209961-0.6928711-0.0209961
		h-2.2470703c-0.9243164,3.9619141-2.184082,7.8959961-3.7802734,11.8017578l-2.3730469-0.8398438
		c1.3720703-3.4155273,2.5341797-7.0698242,3.4863281-10.9619141h-3.1289063v-2.3730469h3.6748047
		c0.3217773-1.5258789,0.5878906-2.9326172,0.7978516-4.2211914l2.5200195,0.2314453
		c-0.1821289,1.3300781-0.4130859,2.659668-0.6928711,3.9897461h1.4702148c1.8193359,0,2.9819336,0.0913086,3.4858398,0.2729492
		c0.6157227,0.2241211,1.0146484,0.7348633,1.1967773,1.5332031
		C332.9892578,87.7338867,333.059082,89.1826172,333.059082,91.4223633z M335.9575195,85.6264648l-2.1630859,1.0292969
		c-0.5600586-1.105957-1.1552734-2.21875-1.7851563-3.3393555l2.1630859-1.0917969
		C334.8300781,83.4145508,335.425293,84.5488281,335.9575195,85.6264648z M336.6923828,95.4125977
		c-0.7558594-2.4780273-1.6523438-5.0048828-2.6879883-7.5810547l2.4780273-0.8818359
		c1.1894531,2.9682617,2.1137695,5.5581055,2.7719727,7.7700195L336.6923828,95.4125977z M339.359375,84.9545898
		l-2.2050781,1.0498047c-0.6298828-1.2177734-1.2387695-2.3520508-1.8271484-3.4018555l2.2050781-1.112793
		C338.050293,82.4135742,338.6591797,83.5683594,339.359375,84.9545898z"/>
	<path d="M352.1274414,83.0644531h7.3286133V85.4375h-14.8046875v4.2841797c0,4.1298828-0.671875,7.3920898-2.0161133,9.7856445
		c-0.1401367,0.2382813-0.2802734,0.4624023-0.4199219,0.6723633l-1.9321289-2.3100586
		c0.840332-1.5820313,1.3579102-3.6821289,1.5541992-6.300293c0.0698242-1.0917969,0.1049805-2.3657227,0.1049805-3.8217773
		v-4.6831055h7.3291016v-2.3100586h2.855957V83.0644531z M353.3032227,92.1787109l2.4150391-1.1762695
		c1.6098633,2.828125,3.0375977,5.5371094,4.2841797,8.1269531l-2.4360352,1.1552734
		c-0.2099609-0.4199219-0.5322266-1.0712891-0.9663086-1.953125c-4.3676758,0.6855469-8.5400391,1.112793-12.515625,1.28125
		L343.9375,97.2397461c0.8398438-0.0283203,1.4555664-0.0561523,1.8476563-0.0839844
		c1.5258789-3.4580078,2.8979492-7.1469727,4.1162109-11.0673828l2.7929688,0.609375
		c-1.1479492,3.6401367-2.4223633,7.0488281-3.8222656,10.2265625c2.0161133-0.1816406,4.2211914-0.4267578,6.6152344-0.7348633
		C354.7451172,94.7758789,354.0170898,93.4384766,353.3032227,92.1787109z"/>
	<path d="M375.059082,91.4223633c0,4.5361328-0.9311523,7.1118164-2.7929688,7.7280273
		C372,99.234375,371.7202148,99.2763672,371.4262695,99.2763672c-1.105957,0-2.4150391-0.2661133-3.9267578-0.7978516
		c-0.1962891-0.0561523-0.3710938-0.1191406-0.5253906-0.1889648l0.7353516-2.4150391
		c1.4697266,0.5322266,2.5200195,0.7978516,3.1499023,0.7978516c0.4619141,0,0.8256836-0.6157227,1.0917969-1.8476563
		c0.2099609-0.9941406,0.3149414-2.2680664,0.3149414-3.8222656c0-1.5957031-0.0629883-2.5478516-0.1889648-2.855957
		c-0.1401367-0.2939453-0.4550781-0.4545898-0.9448242-0.4829102c-0.1401367-0.0136719-0.3710938-0.0209961-0.6928711-0.0209961
		h-2.2470703c-0.9243164,3.9619141-2.184082,7.8959961-3.7802734,11.8017578l-2.3730469-0.8398438
		c1.3720703-3.4155273,2.5341797-7.0698242,3.4863281-10.9619141h-3.1289063v-2.3730469h3.6748047
		c0.3217773-1.5258789,0.5878906-2.9326172,0.7978516-4.2211914l2.5200195,0.2314453
		c-0.1821289,1.3300781-0.4130859,2.659668-0.6928711,3.9897461h1.4702148c1.8193359,0,2.9819336,0.0913086,3.4858398,0.2729492
		c0.6157227,0.2241211,1.0146484,0.7348633,1.1967773,1.5332031
		C374.9892578,87.7338867,375.059082,89.1826172,375.059082,91.4223633z M377.9575195,85.6264648l-2.1630859,1.0292969
		c-0.5600586-1.105957-1.1552734-2.21875-1.7851563-3.3393555l2.1630859-1.0917969
		C376.8300781,83.4145508,377.425293,84.5488281,377.9575195,85.6264648z M378.6923828,95.4125977
		c-0.7558594-2.4780273-1.6523438-5.0048828-2.6879883-7.5810547l2.4780273-0.8818359
		c1.1894531,2.9682617,2.1137695,5.5581055,2.7719727,7.7700195L378.6923828,95.4125977z M381.359375,84.9545898
		l-2.2050781,1.0498047c-0.6298828-1.2177734-1.2387695-2.3520508-1.8271484-3.4018555l2.2050781-1.112793
		C380.050293,82.4135742,380.6591797,83.5683594,381.359375,84.9545898z"/>
	<path d="M384.4042969,82.2666016h2.7299805v4.1157227h0.0209961c1.4702148-2.3657227,3.3808594-3.5976563,5.7329102-3.6958008
		c0.0839844,0,0.1679688,0,0.2519531,0c2.1420898,0,3.6962891,0.8818359,4.6621094,2.6459961
		c0.6298828,1.1479492,0.9448242,2.5761719,0.9448242,4.2841797c0,3.9760742-1.3369141,6.7197266-4.0107422,8.2319336
		c-1.9321289,1.0917969-4.6552734,1.6376953-8.1689453,1.6376953l-0.1469727-2.5200195
		c3.6816406,0,6.2158203-0.6508789,7.6020508-1.9526367c1.1894531-1.1342773,1.784668-2.9331055,1.784668-5.3969727
		c0-2.6181641-0.8330078-4.0390625-2.4990234-4.2631836c-0.1401367-0.0136719-0.2871094-0.0209961-0.440918-0.0209961
		c-1.3300781,0-2.5551758,0.6298828-3.6748047,1.8901367c-1.3022461,1.4697266-2.0161133,3.2900391-2.1420898,5.4599609
		c0,0.0839844,0,0.1611328,0,0.230957l-2.6459961-0.0209961V82.2666016z"/>
	<path d="M402.9477539,83.5263672h8.3369141v-2.0366211h2.6459961v2.0366211h5.3969727v2.3730469h-5.3969727v1.8271484h4.6201172
		v2.3310547h-4.6201172v3.4018555c1.5258789,0.8681641,3.1777344,2.1074219,4.9560547,3.7172852l-1.6591797,1.8476563
		c-1.1479492-1.0634766-2.2822266-1.9946289-3.4018555-2.7929688c-0.2802734,1.5825195-1.1201172,2.5830078-2.5200195,3.0029297
		c-0.671875,0.2099609-1.4985352,0.3149414-2.4780273,0.3149414c-2.0581055,0-3.472168-0.637207-4.2421875-1.9106445
		c-0.3500977-0.5742188-0.5249023-1.2460938-0.5249023-2.0161133c0-1.6518555,0.7768555-2.7578125,2.3310547-3.3178711
		c0.6855469-0.2519531,1.4980469-0.3779297,2.4360352-0.3779297c0.8535156,0,1.6728516,0.1191406,2.4570313,0.3569336v-2.2260742
		h-7.5600586v-2.3310547h7.5600586v-1.8271484h-8.3369141V83.5263672z M411.284668,94.7617188
		c-0.8261719-0.3359375-1.5541992-0.5043945-2.184082-0.5043945c-1.4560547,0.1264648-2.2260742,0.581543-2.3100586,1.3652344
		c0,0.8120117,0.4477539,1.309082,1.3442383,1.4912109c0.2236328,0.0419922,0.4545898,0.0629883,0.6928711,0.0629883
		c1.1054688,0,1.8129883-0.2382813,2.1210938-0.7143555C411.1723633,96.0986328,411.284668,95.5317383,411.284668,94.7617188z"/>
	<path d="M422.3095703,83.4423828h9.9326172v-2.3100586h2.6669922v2.3100586h5.5859375v2.2470703h-5.5859375v4.1791992
		c0.3505859,0.8261719,0.5322266,1.7636719,0.5458984,2.8139648c0,2.4643555-0.8330078,4.2416992-2.4980469,5.3339844
		c-1.2470703,0.7978516-3.0458984,1.3300781-5.3974609,1.5961914l-0.4208984-2.4360352
		c2.4785156-0.2802734,4.0878906-0.7841797,4.8300781-1.512207c0.3925781-0.3916016,0.6582031-0.909668,0.7988281-1.5541992
		c0.0136719-0.0136719,0.0214844-0.034668,0.0214844-0.0629883v-0.0419922l-0.0214844-0.0209961
		c-0.7421875,0.5883789-1.6660156,0.8823242-2.7724609,0.8823242c-1.5263672,0-2.6943359-0.5322266-3.5068359-1.5961914
		c-0.5458984-0.7275391-0.8183594-1.5751953-0.8183594-2.5410156c0-1.4560547,0.5585938-2.5688477,1.6796875-3.3388672
		c0.7695313-0.5317383,1.6796875-0.7978516,2.7294922-0.7978516c0.7275391,0,1.4345703,0.1679688,2.1210938,0.5039063h0.0419922
		v-1.4072266h-9.9326172V83.4423828z M428.3154297,90.7294922c0,0.7558594,0.3359375,1.3022461,1.0078125,1.6381836
		c0.3359375,0.1679688,0.7001953,0.2519531,1.0927734,0.2519531c0.8671875,0,1.4902344-0.3291016,1.8681641-0.9873047
		c0.1542969-0.2797852,0.2314453-0.5805664,0.2314453-0.902832c0-0.7558594-0.3359375-1.3017578-1.0078125-1.6381836
		c-0.3359375-0.1679688-0.7011719-0.2519531-1.0917969-0.2519531c-0.8691406,0-1.4921875,0.3291016-1.8691406,0.9873047
		C428.3925781,90.0927734,428.3154297,90.3935547,428.3154297,90.7294922z"/>
	<path d="M442.9726563,96.7143555c0-1.0917969,0.4345703-1.9804688,1.3027344-2.6669922
		c0.6435547-0.5039063,1.3574219-0.7558594,2.1425781-0.7558594c1.1054688,0,2.0019531,0.434082,2.6875,1.3022461
		c0.4902344,0.6298828,0.734375,1.3369141,0.734375,2.1206055c0,1.1064453-0.4267578,2.0019531-1.2802734,2.6879883
		c-0.6445313,0.5043945-1.3583984,0.7563477-2.1416016,0.7563477c-1.0927734,0-1.9882813-0.434082-2.6884766-1.3022461
		C443.2255859,98.2128906,442.9726563,97.4985352,442.9726563,96.7143555z M444.9052734,96.7143555
		c0,0.6162109,0.265625,1.0644531,0.7978516,1.3442383c0.2382813,0.1123047,0.4765625,0.1679688,0.7148438,0.1679688
		c0.6015625,0,1.0419922-0.265625,1.3222656-0.7978516c0.1113281-0.2382813,0.1679688-0.4760742,0.1679688-0.7143555
		c0-0.6157227-0.265625-1.0566406-0.7978516-1.3227539c-0.2236328-0.1118164-0.4550781-0.1679688-0.6923828-0.1679688
		c-0.6171875,0-1.0644531,0.2592773-1.3447266,0.7768555C444.9609375,96.2387695,444.9052734,96.4765625,444.9052734,96.7143555z"/>
	<path d="M76.5039063,126.2895508l5.1030273-15.3300781h3.1499023l5.1030273,15.3300781H86.730957l-1.0288086-3.6958008H80.578125
		l-1.0292969,3.6958008H76.5039063z M81.2080078,120.3466797h3.8637695l-1.9106445-6.8041992h-0.0419922L81.2080078,120.3466797z"/>
	<path d="M102.6489258,121.8793945c0,2.5200195-1.3652344,4.0112305-4.0952148,4.4731445
		c-0.6298828,0.0976563-1.3369141,0.1469727-2.1210938,0.1469727c-1.5537109,0-3.0239258-0.1049805-4.409668-0.3149414v-15.1201172
		c1.3295898-0.2099609,2.7299805-0.3149414,4.199707-0.3149414c3.7519531,0,5.7050781,1.1689453,5.8588867,3.5068359
		c0.0141602,0.1123047,0.0209961,0.2241211,0.0209961,0.3364258c0,1.2041016-0.5180664,2.1416016-1.5537109,2.8139648
		c-0.4760742,0.3081055-1.0083008,0.5180664-1.5961914,0.6298828v0.0419922
		c1.5400391,0.2099609,2.625,0.8818359,3.2553711,2.0161133
		C102.5019531,120.640625,102.6489258,121.2358398,102.6489258,121.8793945z M94.9208984,117.1337891h0.7768555
		c2.3100586,0,3.534668-0.609375,3.6748047-1.8271484c0.0141602-0.0976563,0.0209961-0.1958008,0.0209961-0.2939453
		c0-1.0361328-0.5952148-1.6591797-1.784668-1.8691406c-0.3642578-0.0698242-0.7841797-0.1049805-1.2602539-0.1049805
		c-0.5180664,0-0.9941406,0.0419922-1.4277344,0.1259766V117.1337891z M94.9208984,119.3173828v4.7670898
		c0.4897461,0.0839844,1.0146484,0.1259766,1.574707,0.1259766c2.0581055,0,3.1713867-0.7207031,3.3393555-2.1630859
		c0.0136719-0.1538086,0.0209961-0.3007813,0.0209961-0.440918c0-1.0917969-0.637207-1.7919922-1.9111328-2.1000977
		c-0.5742188-0.1259766-1.28125-0.1889648-2.1210938-0.1889648H94.9208984z"/>
	<path d="M107.0795898,118.6245117c0,2.2963867,0.6933594,3.90625,2.0791016,4.8300781
		c0.7001953,0.4619141,1.512207,0.6928711,2.4360352,0.6928711c1.050293,0,2.1557617-0.1889648,3.3178711-0.5668945
		c0.0703125-0.027832,0.1401367-0.0488281,0.2099609-0.0629883v2.5200195
		c-1.2177734,0.3076172-2.4985352,0.4619141-3.8427734,0.4619141c-2.6459961,0-4.5991211-0.9375-5.8588867-2.8139648
		c-0.8959961-1.3300781-1.3442383-3.0166016-1.3442383-5.0610352c0-3.121582,0.9663086-5.3549805,2.8979492-6.6987305
		c1.1621094-0.7841797,2.5761719-1.1762695,4.2421875-1.1762695c1.315918,0,2.5756836,0.1542969,3.7797852,0.4619141v2.5200195
		c-1.1899414-0.3916016-2.2539063-0.5947266-3.1918945-0.6088867c-0.0981445,0-0.1889648,0-0.2729492,0
		c-1.8481445,0-3.1362305,0.8051758-3.8637695,2.4150391C107.2758789,116.3916016,107.0795898,117.4208984,107.0795898,118.6245117z
		"/>
	<path d="M130.2421875,118.4145508c0,4.2983398-1.6728516,6.8881836-5.019043,7.7700195
		c-0.8120117,0.2099609-1.7080078,0.3149414-2.6879883,0.3149414c-1.4980469,0-2.8979492-0.1049805-4.199707-0.3149414v-15.1201172
		c1.3154297-0.2099609,2.7158203-0.3149414,4.199707-0.3149414c3.6401367,0,5.9990234,1.3442383,7.0771484,4.0322266
		C130.0322266,115.831543,130.2421875,117.0424805,130.2421875,118.4145508z M127.4492188,118.4145508
		c0-2.8696289-1.0078125-4.5708008-3.0239258-5.1030273c-0.5180664-0.1396484-1.0991211-0.2099609-1.7431641-0.2099609
		c-0.5180664,0-0.9941406,0.0419922-1.4277344,0.1259766v10.7939453c0.4477539,0.0839844,0.9238281,0.1259766,1.4277344,0.1259766
		c2.1000977,0,3.4863281-0.7348633,4.1582031-2.2050781C127.2460938,121.0605469,127.4492188,119.8847656,127.4492188,118.4145508z"
		/>
	<path d="M135.5551758,113.3325195v3.7587891h6.1738281v2.2470703h-6.1738281v4.578125h6.59375v2.3730469h-9.5336914v-15.3300781
		h9.5336914v2.3730469H135.5551758z"/>
	<path d="M145.2573242,110.9594727h9.3027344v2.3730469h-6.362793v4.0322266h5.9428711v2.2675781h-5.9428711v6.6572266h-2.9399414
		V110.9594727z"/>
	<path d="M164.4506836,110.7495117c1.3862305,0,2.6948242,0.1542969,3.9272461,0.4619141v2.4570313
		c-1.3442383-0.3916016-2.5483398-0.5878906-3.6123047-0.5878906c-2.9121094,0-4.5917969,1.34375-5.0400391,4.0322266
		c-0.0839844,0.4760742-0.1259766,0.9799805-0.1259766,1.5117188c0,2.4082031,0.7700195,4.0532227,2.3100586,4.9350586
		c0.7143555,0.40625,1.5400391,0.6088867,2.4780273,0.6088867c0.644043,0,1.2949219-0.1049805,1.953125-0.3149414v-4.5151367
		h-3.90625v-2.2470703h6.7202148v8.5053711c-1.5258789,0.6020508-3.1850586,0.902832-4.9770508,0.902832
		c-2.4501953,0-4.3681641-0.8115234-5.7539063-2.4360352c-1.2041016-1.4135742-1.8061523-3.2265625-1.8061523-5.4389648
		c0-2.9257813,0.9589844-5.0820313,2.8769531-6.4677734C160.8105469,111.21875,162.4628906,110.7495117,164.4506836,110.7495117z"/>
	<path d="M172.3676758,126.2895508v-2.4150391h1.7426758v-10.5h-1.7426758v-2.4150391h1.7426758h2.9399414h1.7431641v2.4150391
		h-1.7431641v10.5h1.7431641v2.4150391H172.3676758z"/>
	<path d="M186.059082,115.159668c2.0581055,0,3.4228516,0.440918,4.0952148,1.3227539
		c0.4897461,0.6723633,0.7348633,1.6801758,0.7348633,3.0239258v6.7832031h-2.6040039l-0.0419922-1.512207h-0.0419922
		c-0.8681641,1.1342773-2.0444336,1.7080078-3.527832,1.722168c-1.2045898,0-2.1142578-0.4619141-2.7299805-1.3857422
		c-0.378418-0.5742188-0.5673828-1.2319336-0.5673828-1.9741211c0-2.0297852,1.2250977-3.262207,3.675293-3.6962891
		c0.6015625-0.0976563,1.2666016-0.1469727,1.9951172-0.1469727h1.0498047v-0.3569336
		c0-0.8398438-0.2871094-1.3647461-0.8608398-1.574707c-0.3081055-0.1123047-0.7211914-0.1679688-1.2392578-0.1679688
		c-1.1757813,0-2.5063477,0.2451172-3.9897461,0.7348633v-2.1420898
		C183.3637695,115.3696289,184.715332,115.159668,186.059082,115.159668z M188.0961914,121.0395508h-1.0498047
		c-1.8623047,0-2.8564453,0.5390625-2.9824219,1.6171875c-0.0141602,0.0839844-0.0209961,0.1611328-0.0209961,0.230957
		c0,0.7001953,0.2802734,1.1689453,0.840332,1.4067383c0.1679688,0.0703125,0.3496094,0.1049805,0.5458984,0.1049805
		c1.1196289,0,1.9038086-0.4477539,2.3520508-1.34375c0.2099609-0.434082,0.3149414-0.9169922,0.3149414-1.4492188V121.0395508z"/>
	<path d="M196.6010742,110.5395508v5.9428711h0.0419922c0.9936523-0.8535156,2.0507813-1.2944336,3.1708984-1.3227539
		c1.6660156,0,2.8769531,0.7421875,3.6328125,2.2260742c0.4760742,0.9379883,0.7143555,2.0859375,0.7143555,3.4438477
		c0,2.1704102-0.6162109,3.7661133-1.8481445,4.7880859c-0.7280273,0.5878906-1.5615234,0.8818359-2.4990234,0.8818359
		c-1.1762695,0-2.1914063-0.4267578-3.0449219-1.2807617c-0.0981445-0.0981445-0.1889648-0.1962891-0.2729492-0.2944336h-0.0419922
		l-0.0419922,1.3652344h-2.625v-15.75H196.6010742z M201.3886719,120.8295898
		c-0.0136719-2.3657227-0.8188477-3.5561523-2.4145508-3.5698242c-0.840332,0-1.5053711,0.3291016-1.9951172,0.9868164
		c-0.2802734,0.3779297-0.4199219,0.7631836-0.4199219,1.1547852v2.855957c0,0.6865234,0.3286133,1.253418,0.9868164,1.7011719
		c0.4477539,0.2939453,0.9238281,0.440918,1.4282227,0.440918c1.2177734,0,1.9804688-0.7275391,2.2885742-2.184082
		C201.3466797,121.7954102,201.3886719,121.3334961,201.3886719,120.8295898z"/>
	<path d="M205.6938477,120.8295898c0-2.6879883,0.9379883-4.4311523,2.8139648-5.2290039
		c0.7001953-0.2939453,1.4980469-0.440918,2.394043-0.440918c0.9799805,0,2.0649414,0.1191406,3.2548828,0.3569336v2.2260742
		c-1.0078125-0.2939453-1.9736328-0.440918-2.8979492-0.440918c-1.4277344,0-2.2749023,0.7631836-2.5410156,2.2885742
		c-0.0556641,0.378418-0.0839844,0.7915039-0.0839844,1.2392578c0,1.9179688,0.5883789,3.0449219,1.7641602,3.3808594
		c0.3217773,0.0981445,0.6787109,0.1469727,1.0708008,0.1469727c0.9243164,0,1.8691406-0.1748047,2.8354492-0.5249023v2.2470703
		c-1.0644531,0.2797852-2.128418,0.4199219-3.1923828,0.4199219c-2.6879883,0-4.3818359-1.0917969-5.0820313-3.2758789
		C205.8056641,122.5234375,205.6938477,121.7255859,205.6938477,120.8295898z"/>
	<path d="M224.0268555,110.5395508h2.8139648v15.75h-2.625l-0.0419922-1.3652344h-0.0419922
		c-0.8540039,0.9663086-1.8339844,1.4838867-2.9399414,1.5541992c-0.1259766,0.0136719-0.2519531,0.0209961-0.3779297,0.0209961
		c-1.4140625,0-2.5273438-0.6157227-3.3388672-1.8481445c-0.6723633-1.0214844-1.0083008-2.2958984-1.0083008-3.8217773
		c0-2.449707,0.7070313-4.1298828,2.1210938-5.0400391c0.644043-0.4199219,1.3862305-0.6298828,2.2260742-0.6298828
		c1.1621094,0,2.184082,0.4130859,3.065918,1.2387695c0.0419922,0.0283203,0.0766602,0.0561523,0.1049805,0.0839844h0.0419922
		V110.5395508z M219.2387695,120.8295898c0,2.0302734,0.6020508,3.1992188,1.8061523,3.5068359
		c0.1958008,0.0419922,0.3989258,0.0629883,0.6088867,0.0629883c0.840332,0,1.5048828-0.3286133,1.9951172-0.9868164
		c0.2797852-0.3779297,0.4199219-0.7626953,0.4199219-1.1552734v-2.855957c0-0.6855469-0.3291016-1.2524414-0.9868164-1.7006836
		c-0.4482422-0.2939453-0.9243164-0.440918-1.4282227-0.440918
		C220.0581055,117.2875977,219.2529297,118.4775391,219.2387695,120.8295898z"/>
	<path d="M231.9018555,121.6274414c0.1259766,1.5263672,0.7983398,2.4433594,2.0161133,2.7509766
		c0.3637695,0.0839844,0.7768555,0.1259766,1.2392578,0.1259766c0.8535156,0,1.8964844-0.2099609,3.1289063-0.6298828v2.1420898
		c-1.1904297,0.3217773-2.3452148,0.4829102-3.465332,0.4829102c-2.8417969,0-4.6269531-1.0917969-5.3549805-3.2758789
		c-0.237793-0.7138672-0.3569336-1.512207-0.3569336-2.394043c0-2.9257813,1.0712891-4.7250977,3.2128906-5.3969727
		c0.5883789-0.1816406,1.2319336-0.2729492,1.9321289-0.2729492c3.0942383,0,4.6899414,1.7568359,4.7880859,5.2709961
		c0,0.1123047,0,0.2241211,0,0.3359375c0,0.2802734-0.0209961,0.5668945-0.0629883,0.8608398H231.9018555z M231.9018555,119.8007813
		h4.4941406c-0.0419922-1.777832-0.7421875-2.6743164-2.1000977-2.6879883c-1.1621094,0-1.8969727,0.5390625-2.2050781,1.6166992
		C232.0068359,119.0375977,231.9438477,119.3945313,231.9018555,119.8007813z"/>
	<path d="M240.8896484,117.8266602v-2.0371094h2.3100586v-0.6928711c0-2.2119141,0.7490234-3.5703125,2.2470703-4.0742188
		c0.5317383-0.1816406,1.1552734-0.2729492,1.8691406-0.2729492c0.7836914,0,1.5327148,0.1049805,2.2470703,0.3149414v2.0581055
		c-0.5322266-0.2099609-1.0712891-0.3149414-1.6171875-0.3149414c-0.8398438,0-1.3789063,0.2241211-1.6171875,0.671875
		c-0.1538086,0.3359375-0.230957,0.847168-0.230957,1.5332031v0.7768555h3.2553711v2.0371094h-3.2553711v8.4628906h-2.8979492
		v-8.4628906H240.8896484z"/>
	<path d="M261.8681641,115.3696289v10.0800781c-0.0283203,3.765625-1.9179688,5.6557617-5.6699219,5.6699219
		c-1.1757813,0-2.2680664-0.1401367-3.2758789-0.4199219v-2.3520508c1.0356445,0.4199219,2.1069336,0.6298828,3.2128906,0.6298828
		c1.4418945,0,2.3520508-0.5458984,2.7299805-1.6381836c0.1679688-0.4760742,0.2519531-1.0844727,0.2519531-1.8266602v-0.6723633
		h-0.0419922c-0.8540039,0.8964844-1.9042969,1.3442383-3.1499023,1.3442383c-1.4423828,0-2.5483398-0.6367188-3.3178711-1.9111328
		c-0.5883789-0.9794922-0.8823242-2.1977539-0.8823242-3.6538086c0-2.394043,0.6933594-4.0249023,2.0791016-4.8930664
		c0.6157227-0.3779297,1.3232422-0.5668945,2.1210938-0.5668945c1.0917969,0,2.0371094,0.3779297,2.8349609,1.1337891
		c0.1396484,0.1401367,0.2797852,0.2871094,0.4199219,0.440918h0.0419922l0.0419922-1.3647461H261.8681641z
		 M254.4970703,120.6196289c0,1.9458008,0.5742188,3.0732422,1.722168,3.3808594
		c0.1958008,0.0561523,0.3916016,0.0839844,0.5878906,0.0839844c0.7983398,0,1.4282227-0.3286133,1.8901367-0.9868164
		c0.2797852-0.3920898,0.4199219-0.8120117,0.4199219-1.2602539v-2.2680664c0-0.8256836-0.3432617-1.4624023-1.0288086-1.9106445
		c-0.3920898-0.2661133-0.8193359-0.3989258-1.28125-0.3989258c-1.3579102,0-2.1137695,0.8608398-2.2680664,2.5830078
		C254.5112305,120.0947266,254.4970703,120.3540039,254.4970703,120.6196289z"/>
	<path d="M269.9111328,126.2895508h-2.2260742c-0.8125,0-1.4423828-0.3496094-1.8901367-1.0498047
		c-0.2661133-0.40625-0.3989258-0.8540039-0.3989258-1.3442383v-13.1459961h2.9399414v12.012207
		c0,0.7700195,0.3706055,1.1831055,1.112793,1.2387695c0.1118164,0.0141602,0.2661133,0.0209961,0.4624023,0.0209961V126.2895508z"
		/>
	<path d="M277.2397461,110.9594727h3.003418v15.3300781h-3.003418v-12.1171875h-0.0419922l-4.0947266,3.1503906v-3.2133789
		L277.2397461,110.9594727z"/>
	<path d="M290.0078125,123.8745117v0.0419922h6.1738281v2.3730469h-10.0795898v-2.3730469
		c3.2475586-2.5336914,5.3056641-4.4658203,6.1738281-5.7958984c0.5595703-0.8398438,0.8398438-1.7080078,0.8398438-2.6040039
		c-0.0561523-1.5258789-0.8891602-2.3027344-2.4990234-2.3310547c-1.2319336,0.0141602-2.6318359,0.4130859-4.199707,1.1967773
		v-2.7299805c1.3999023-0.5878906,2.9399414-0.8886719,4.6201172-0.902832c2.3378906,0,3.8847656,0.7768555,4.640625,2.3310547
		c0.3081055,0.6162109,0.4619141,1.3300781,0.4619141,2.1420898c0,1.3857422-0.4477539,2.6953125-1.34375,3.9267578
		C293.8857422,120.3959961,292.2895508,121.9707031,290.0078125,123.8745117z"/>
	<path d="M305.3798828,117.2807617c1.8061523,0,3.0375977,0.6650391,3.6958008,1.9946289
		c0.3081055,0.6303711,0.4619141,1.3583984,0.4619141,2.184082c0,2.2543945-0.9311523,3.7661133-2.7929688,4.5361328
		c-0.8120117,0.3359375-1.7709961,0.5039063-2.8769531,0.5039063c-1.5678711,0-2.9892578-0.2446289-4.2626953-0.7348633v-2.625
		c1.2875977,0.5742188,2.5688477,0.902832,3.8427734,0.9868164c0.1118164,0,0.2099609,0,0.2939453,0
		c1.5820313,0,2.5200195-0.6157227,2.8139648-1.8481445c0.0561523-0.237793,0.0839844-0.496582,0.0839844-0.7768555
		c0-0.9658203-0.4482422-1.6030273-1.34375-1.9111328c-0.5878906-0.1958008-1.4213867-0.2939453-2.4990234-0.2939453h-1.2602539
		v-2.0996094l4.2001953-3.8222656v-0.0419922H299.5v-2.3730469h9.8276367v2.3730469l-4.3046875,3.90625v0.0419922H305.3798828z"/>
	<path d="M321.3188477,120.8295898h2.3310547v2.3100586h-2.3310547v3.1499023h-2.855957v-3.1499023h-6.9301758v-2.3100586
		l6.9301758-9.8701172h2.855957V120.8295898z M318.4628906,120.8295898v-6.0268555h-0.0419922l-4.1582031,5.9848633v0.0419922
		H318.4628906z"/>
	<path d="M335.5566406,111.1694336v2.3730469c-0.9658203-0.3637695-1.980957-0.5458984-3.0449219-0.5458984
		c-1.5258789,0-2.6181641,0.7001953-3.2758789,2.1000977c-0.2519531,0.5742188-0.4199219,1.2319336-0.5039063,1.9736328
		l0.0419922,0.0209961c0.8115234-0.7275391,1.9248047-1.0917969,3.3388672-1.0917969
		c2.1279297,0,3.6186523,0.7558594,4.4731445,2.2680664c0.4335938,0.7841797,0.6508789,1.7080078,0.6508789,2.7719727
		c0,2.1420898-0.7841797,3.6821289-2.3520508,4.6201172c-0.9521484,0.5600586-2.0864258,0.8398438-3.4018555,0.8398438
		c-3.8085938-0.0283203-5.7192383-2.3378906-5.7333984-6.9301758c0-4.6196289,1.4140625-7.4335938,4.2421875-8.4418945
		c0.7416992-0.2519531,1.5541992-0.3779297,2.4360352-0.3779297
		C333.4916992,110.7495117,334.534668,110.8896484,335.5566406,111.1694336z M331.4829102,124.2524414
		c1.4697266,0,2.3798828-0.6577148,2.7299805-1.9741211c0.0976563-0.3637695,0.1469727-0.7626953,0.1469727-1.1967773
		c0-1.3862305-0.5253906-2.3027344-1.5751953-2.7509766c-0.3920898-0.1679688-0.8261719-0.2519531-1.3017578-0.2519531
		c-1.1762695,0-2.0092773,0.4829102-2.4990234,1.4487305c-0.2241211,0.4624023-0.3359375,0.9804688-0.3359375,1.5541992
		c0,1.3720703,0.4829102,2.3173828,1.4487305,2.8349609C330.5166016,124.140625,330.9785156,124.2524414,331.4829102,124.2524414z"
		/>
	<path d="M339.7148438,110.9594727h10.4370117v2.3730469c-2.128418,3.5-3.8852539,7.3154297-5.2709961,11.4448242
		c-0.1679688,0.5043945-0.3291016,1.0083008-0.4833984,1.512207h-3.1079102
		c1.6098633-4.7041016,3.6259766-9.0019531,6.0483398-12.894043v-0.0629883h-7.6230469V110.9594727z"/>
	<path d="M353.9526367,123.706543c1.0356445,0.3642578,2.1210938,0.5458984,3.2548828,0.5458984
		c1.7080078,0,2.8486328-0.7275391,3.4228516-2.184082c0.2104492-0.5595703,0.3291016-1.1894531,0.3574219-1.8896484
		l-0.0419922-0.0209961c-0.8125,0.7280273-1.925293,1.0917969-3.3393555,1.0917969
		c-2.2119141,0-3.7241211-0.8188477-4.5356445-2.4570313c-0.3920898-0.7978516-0.5883789-1.7290039-0.5883789-2.7929688
		c0-1.9458008,0.7353516-3.3876953,2.2050781-4.3261719c0.9799805-0.6157227,2.1630859-0.9238281,3.5493164-0.9238281
		c3.1777344,0,5.0327148,1.5751953,5.5649414,4.7250977c0.1118164,0.6162109,0.1679688,1.2807617,0.1679688,1.9951172
		c0,5.6279297-1.9394531,8.6240234-5.8168945,8.987793c-0.2802734,0.027832-0.5673828,0.0419922-0.8613281,0.0419922
		c-1.105957,0-2.2192383-0.1401367-3.3388672-0.4199219V123.706543z M358.2368164,112.996582
		c-1.3725586,0-2.2612305,0.5532227-2.6669922,1.6591797c-0.1401367,0.3920898-0.2104492,0.8261719-0.2104492,1.3017578
		c0,1.6240234,0.5952148,2.6391602,1.7851563,3.0449219c0.3359375,0.1123047,0.699707,0.1679688,1.0922852,0.1679688
		c1.2314453,0,2.0786133-0.5317383,2.5410156-1.5957031c0.1958008-0.4760742,0.2939453-1.0151367,0.2939453-1.6171875
		c0-1.2041016-0.4482422-2.0649414-1.3442383-2.5830078C359.2792969,113.1225586,358.7827148,112.996582,358.2368164,112.996582z"/>
	<path d="M372.2021484,116.3564453c2.1420898,0,3.5766602,0.7910156,4.3046875,2.3730469
		c0.3081055,0.6860352,0.4624023,1.4770508,0.4624023,2.3730469c-0.0283203,3.5839844-2.0791016,5.3828125-6.1533203,5.3969727
		c-1.3999023,0-2.6953125-0.2236328-3.8847656-0.671875v-2.5830078c1.4697266,0.5878906,2.7368164,0.8818359,3.8007813,0.8818359
		c2.2119141-0.027832,3.3251953-1.0356445,3.3388672-3.0239258c-0.027832-1.6518555-0.8330078-2.4848633-2.4145508-2.4990234
		c-0.840332,0.0141602-1.5683594,0.3012695-2.184082,0.8608398h-2.5200195l0.4199219-8.5048828h8.9458008v2.3730469h-6.2788086
		l-0.1679688,3.5488281h0.0419922C370.6269531,116.5317383,371.3901367,116.3564453,372.2021484,116.3564453z"/>
	<path d="M388.980957,114.1723633c-1.4282227-0.7416992-2.8632813-1.112793-4.3051758-1.112793
		c-1.2739258,0-1.980957,0.5039063-2.1206055,1.512207c-0.0141602,0.1118164-0.0209961,0.2167969-0.0209961,0.3149414
		c0,0.9521484,0.5947266,1.6518555,1.784668,2.0996094c0.0698242,0.0283203,0.1328125,0.0493164,0.1889648,0.0629883
		c2.3378906,0.7426758,3.8359375,1.6665039,4.4941406,2.7724609c0.3637695,0.6162109,0.5458984,1.3720703,0.5458984,2.2675781
		c-0.0283203,2.9262695-1.8408203,4.3959961-5.4389648,4.4101563c-1.5400391-0.0141602-2.9262695-0.3496094-4.1577148-1.0078125
		v-2.625c1.2456055,0.8540039,2.5620117,1.2807617,3.9477539,1.2807617c1.6518555,0,2.5336914-0.5947266,2.6459961-1.784668
		c0.0136719-0.0844727,0.0209961-0.1611328,0.0209961-0.2314453c0-0.8256836-0.4130859-1.4624023-1.2387695-1.9106445
		c-0.2802734-0.1401367-0.6025391-0.2729492-0.9663086-0.3989258c-2.5483398-0.840332-4.0668945-2.0229492-4.5566406-3.5493164
		c-0.1401367-0.4335938-0.2104492-0.8955078-0.2104492-1.3857422c0-1.7080078,0.7143555-2.9052734,2.1420898-3.5913086
		c0.7700195-0.3637695,1.6801758-0.5458984,2.7299805-0.5458984c1.6518555,0,3.1572266,0.2802734,4.5151367,0.8398438V114.1723633z"
		/>
	<path d="M397.4018555,110.7495117c2.2397461,0,3.8144531,0.6020508,4.7246094,1.8061523
		c0.4482422,0.6020508,0.6723633,1.2807617,0.6723633,2.0371094c-0.0283203,1.4697266-0.9033203,2.6040039-2.625,3.4018555
		v0.0419922c2.0297852,0.8681641,3.065918,2.2192383,3.1079102,4.0527344c0,1.6665039-0.7558594,2.8911133-2.2680664,3.675293
		c-0.9799805,0.4902344-2.184082,0.7348633-3.6118164,0.7348633c-2.4501953,0-4.1655273-0.671875-5.1450195-2.0161133
		c-0.4902344-0.6855469-0.7353516-1.4833984-0.7353516-2.394043c0-1.4277344,0.7773438-2.5688477,2.3310547-3.4228516
		c0.237793-0.1259766,0.4760742-0.237793,0.7138672-0.3359375v-0.0419922
		c-1.4418945-0.7138672-2.2749023-1.7290039-2.4985352-3.0449219c-0.0419922-0.2241211-0.0629883-0.440918-0.0629883-0.6508789
		c0-1.3862305,0.6577148-2.421875,1.9736328-3.1083984C394.902832,110.9946289,396.043457,110.7495117,397.4018555,110.7495117z
		 M397.1704102,119.2753906c-1.8759766,0.5883789-2.8208008,1.4775391-2.8349609,2.6669922
		c0,0.9804688,0.4692383,1.6801758,1.4072266,2.1000977c0.4897461,0.2099609,1.0429688,0.3149414,1.6591797,0.3149414
		c1.3295898,0,2.2397461-0.4267578,2.7299805-1.2807617c0.1816406-0.3500977,0.2729492-0.7280273,0.2729492-1.1342773
		c0-0.8676758-0.4482422-1.5327148-1.3442383-1.9946289C398.5844727,119.6953125,397.9545898,119.4716797,397.1704102,119.2753906z
		 M397.4648438,117.1757813c1.6933594-0.5180664,2.5478516-1.28125,2.5620117-2.2890625
		c0-0.8823242-0.4555664-1.4838867-1.3652344-1.8061523c-0.3779297-0.1259766-0.7978516-0.1889648-1.2597656-0.1889648
		c-1.3022461,0-2.1210938,0.4199219-2.4570313,1.2597656c-0.0839844,0.2382813-0.1259766,0.4833984-0.1259766,0.7353516
		c0,1.0498047,0.8676758,1.8056641,2.6040039,2.2680664C397.4365234,117.168457,397.4506836,117.1757813,397.4648438,117.1757813z"
		/>
	<path d="M410.8417969,110.7495117c2.7016602,0,4.465332,1.1762695,5.2919922,3.527832
		c0.3916016,1.1484375,0.5878906,2.597168,0.5878906,4.347168c0,4.0039063-1.078125,6.4682617-3.2338867,7.3920898
		c-0.7563477,0.3217773-1.6381836,0.4829102-2.6459961,0.4829102c-2.7021484,0-4.4663086-1.1757813-5.2919922-3.527832
		c-0.3920898-1.1479492-0.5883789-2.5966797-0.5883789-4.347168c0-4.0039063,1.078125-6.4677734,3.234375-7.3920898
		C408.9516602,110.9106445,409.8334961,110.7495117,410.8417969,110.7495117z M408.0698242,120.9345703l5.2709961-5.8798828
		c-0.4765625-1.315918-1.3095703-1.987793-2.4990234-2.0161133c-1.2182617,0-2.0444336,0.644043-2.4780273,1.9321289
		c-0.2802734,0.8681641-0.4204102,2.0859375-0.4204102,3.6538086
		C407.9433594,119.5205078,407.9853516,120.2905273,408.0698242,120.9345703z M408.3427734,122.215332
		c0.5317383,1.2744141,1.3647461,1.9394531,2.4990234,1.9951172c1.2177734,0,2.043457-0.6435547,2.4780273-1.9321289
		c0.2797852-0.8676758,0.4199219-2.0854492,0.4199219-3.6538086c0-0.8955078-0.0419922-1.6660156-0.1259766-2.3100586
		L408.3427734,122.215332z"/>
	<path d="M425.2685547,126.4995117c-2.5068359,0-4.3823242-0.9165039-5.6279297-2.7509766
		c-0.9101563-1.34375-1.3652344-3.0517578-1.3652344-5.1240234c0-2.9819336,0.8959961-5.1660156,2.6879883-6.5517578
		c1.1762695-0.8823242,2.6108398-1.3232422,4.3051758-1.3232422c2.5058594,0,4.3818359,0.9169922,5.6279297,2.7509766
		c0.9101563,1.3442383,1.3652344,3.0522461,1.3652344,5.1240234c0,2.9819336-0.8964844,5.1660156-2.6875,6.5522461
		C428.3974609,126.0585938,426.9628906,126.4995117,425.2685547,126.4995117z M425.2685547,113.1645508
		c-2.5761719,0-3.90625,1.7080078-3.9902344,5.1240234c0,0.1123047,0,0.2241211,0,0.3359375
		c0.0839844,3.5839844,1.4140625,5.4042969,3.9902344,5.4599609c2.5751953,0,3.9052734-1.7080078,3.9892578-5.1240234
		c0-0.1118164,0-0.2236328,0-0.3359375C429.1738281,115.0405273,427.84375,113.2207031,425.2685547,113.1645508z"/>
	<path d="M435.6845703,130.909668v-21.6298828h2.6044922v21.6298828H435.6845703z"/>
	<path d="M443.2861328,110.9594727h3.4853516l-0.4199219,10.7099609h-2.6455078L443.2861328,110.9594727z M443.4960938,126.2895508
		v-2.9399414H446.5625v2.9399414H443.4960938z"/>
	<path d="M456.2431641,121.6064453h-2.7929688c0-0.5737305,0.0771484-1.0986328,0.2314453-1.574707
		c0.1533203-0.4760742,0.390625-0.8959961,0.7128906-1.2602539c0.3222656-0.3916016,0.6015625-0.6855469,0.8398438-0.8818359
		c0.2382813-0.1958008,0.5742188-0.4550781,1.0087891-0.7768555c0.8115234-0.5883789,1.3232422-1.0429688,1.5322266-1.3652344
		c0.1972656-0.3217773,0.2949219-0.6577148,0.2949219-1.0078125c-0.0283203-1.0639648-0.9179688-1.6030273-2.6679688-1.6171875
		c-1.4277344,0-2.9882813,0.2729492-4.6816406,0.8188477v-2.5620117c1.7070313-0.4199219,3.4082031-0.6298828,5.1025391-0.6298828
		c2.3232422,0,3.9130859,0.6088867,4.7666016,1.8271484c0.3789063,0.5322266,0.5673828,1.1337891,0.5673828,1.8056641
		c0,1.246582-0.5253906,2.3032227-1.5751953,3.1713867c-0.2382813,0.1821289-0.5664063,0.4199219-0.9863281,0.7138672
		c-0.8964844,0.6298828-1.4990234,1.1547852-1.8066406,1.5751953
		C456.4394531,120.3608398,456.2568359,120.9487305,456.2431641,121.6064453z M453.3027344,126.2895508v-2.9399414h3.0878906
		v2.9399414H453.3027344z"/>
	<path d="M465.1054688,118.246582v-3.5698242h3.359375v3.5698242H465.1054688z M465.1054688,126.2895508v-3.5698242h3.359375
		v3.5698242H465.1054688z"/>
	<path d="M472.7285156,128.5996094l1.40625-5.8798828h3.5068359l-2.3935547,5.8798828H472.7285156z M474.1347656,118.246582
		v-3.5698242h3.359375v3.5698242H474.1347656z"/>
	<path d="M482.1152344,126.2895508v-3.5698242h3.359375v3.5698242H482.1152344z"/>
	<path d="M489.8847656,122.7197266h3.5058594l-2.3925781,5.8798828h-2.5214844L489.8847656,122.7197266z"/>
	<path d="M494.6933594,129.859375v-2.0366211h12.4746094v2.0366211H494.6933594z"/>
	<path d="M508.6796875,121.3125v-2.2260742h7.0136719V121.3125H508.6796875z"/>
	<path d="M522.2246094,119.9477539c-0.6582031,0-1.2734375,0.3291016-1.8476563,0.9868164
		c-0.1542969,0.1962891-0.3222656,0.4199219-0.5039063,0.671875l-1.5957031-1.4277344
		c1.0214844-1.6938477,2.3378906-2.5478516,3.9472656-2.5620117c1.1484375,0.0141602,2.2050781,0.4902344,3.171875,1.4277344
		c0.65625,0.6582031,1.3085938,0.9873047,1.9511719,0.9873047c0.6582031,0,1.2753906-0.3291016,1.8496094-0.9873047
		c0.1523438-0.1958008,0.3203125-0.4199219,0.5039063-0.671875l1.5957031,1.4282227
		c-1.0214844,1.6938477-2.3378906,2.5478516-3.9492188,2.5620117c-1.1464844-0.0141602-2.203125-0.4902344-3.1699219-1.4282227
		C523.5195313,120.2768555,522.8691406,119.9477539,522.2246094,119.9477539z"/>
	<path d="M537.2167969,119.9897461c-0.0136719-3.8222656-1.3710938-7.1118164-4.0722656-9.8701172h2.5195313
		c2.1835938,2.0161133,3.5410156,4.5009766,4.0742188,7.4550781c0.1386719,0.7978516,0.2089844,1.6030273,0.2089844,2.4150391
		c0,3.1079102-0.9453125,5.8730469-2.8339844,8.2949219c-0.4492188,0.5737305-0.9316406,1.0986328-1.4492188,1.574707h-2.5195313
		C535.859375,127.0874023,537.2167969,123.7978516,537.2167969,119.9897461z"/>
	<path d="M543.0546875,110.1196289h2.4375c1.5390625,0,2.5195313,0.5039063,2.9394531,1.5117188
		c0.1953125,0.4902344,0.2929688,1.1064453,0.2929688,1.8481445v2.9819336c0,1.3442383,0.3789063,2.128418,1.1347656,2.3520508
		c0.2109375,0.0561523,0.4335938,0.0839844,0.671875,0.0839844h0.8398438v2.184082H550.53125
		c-0.9375,0-1.5039063,0.440918-1.7011719,1.3232422c-0.0703125,0.3081055-0.1054688,0.6791992-0.1054688,1.112793v2.9819336
		c0,1.6518555-0.5097656,2.6806641-1.53125,3.0869141c-0.4628906,0.1821289-1.0292969,0.2729492-1.7011719,0.2729492h-2.4375
		v-2.0366211h1.1132813c0.8535156,0,1.3925781-0.1259766,1.6171875-0.378418
		c0.2246094-0.2797852,0.3359375-0.8540039,0.3359375-1.7216797v-2.3100586c0-1.3300781,0.3984375-2.2890625,1.1972656-2.8769531
		c0.2792969-0.1958008,0.609375-0.3710938,0.9863281-0.5249023V119.96875
		c-1.0488281-0.434082-1.7070313-1.0712891-1.9726563-1.9111328c-0.140625-0.4199219-0.2109375-0.9169922-0.2109375-1.4912109
		v-2.3100586c0-0.9936523-0.1542969-1.609375-0.4609375-1.8476563c-0.2675781-0.1679688-0.7636719-0.2519531-1.4921875-0.2519531
		h-1.1132813V110.1196289z"/>
	<path d="M558.1542969,127.8227539v-15.6660156h-3.9902344v-2.0371094h6.59375v19.7397461h-6.59375v-2.0366211H558.1542969z"/>
</g>
<g>
	<path fill="#70A0BB" d="M7.1899414,39.4599609V29.3100586c0.8120117-0.1401367,1.6845703-0.2099609,2.6181641-0.2099609
		c1.3066406,0,2.2958984,0.2426758,2.9677734,0.7280273c0.6723633,0.4853516,1.003418,1.1665039,0.9941406,2.0439453
		c0,0.7094727-0.1914063,1.3017578-0.5742188,1.777832s-0.9238281,0.8027344-1.6240234,0.9799805v0.0283203
		c0.4204102,0.2236328,0.8354492,0.8305664,1.2460938,1.8198242l1.2319336,2.9819336h-1.1616211l-1.2041016-2.9541016
		c-0.2802734-0.6625977-0.5415039-1.078125-0.7841797-1.2460938s-0.7329102-0.2519531-1.4697266-0.2519531H8.3100586v4.4521484
		H7.1899414z M8.3100586,34.1118164h1.1201172c1.1103516,0,1.9272461-0.1772461,2.449707-0.5317383
		c0.5229492-0.3544922,0.7841797-0.8911133,0.7841797-1.6103516c0-1.3061523-0.9848633-1.9599609-2.9541016-1.9599609
		c-0.4946289,0-0.9614258,0.0419922-1.3999023,0.1259766V34.1118164z"/>
	<path fill="#70A0BB" d="M16.2758789,36.2119141c0.0185547,0.793457,0.2612305,1.4189453,0.7280273,1.8759766
		c0.4663086,0.4575195,1.0727539,0.6860352,1.8198242,0.6860352c0.7280273,0,1.4467773-0.1865234,2.1557617-0.5600586
		l0.2802734,0.7978516c-0.7841797,0.3920898-1.6240234,0.5883789-2.5200195,0.5883789
		c-1.0454102,0-1.8901367-0.3408203-2.5341797-1.0219727s-0.9658203-1.6005859-0.9658203-2.7583008
		c0-1.1757813,0.3007813-2.1000977,0.902832-2.7719727s1.4208984-1.0078125,2.4570313-1.0078125
		c1.0083008,0,1.7871094,0.3173828,2.3378906,0.9521484S21.7636719,34.5458984,21.7636719,35.75
		c0,0.2148438-0.0048828,0.3686523-0.0141602,0.4619141H16.2758789z M16.2758789,35.3999023h4.4936523
		c-0.0092773-0.8120117-0.2050781-1.4370117-0.5878906-1.8759766c-0.3828125-0.4384766-0.9101563-0.6582031-1.5820313-0.6582031
		c-0.699707,0-1.2553711,0.222168-1.6660156,0.6650391C16.5229492,33.9746094,16.3037109,34.597168,16.2758789,35.3999023z"/>
	<path fill="#70A0BB" d="M23.0234375,35.6801758c0-1.1572266,0.2568359-2.0532227,0.7700195-2.6879883
		s1.2226563-0.9521484,2.1279297-0.9521484c1.0922852,0,1.8994141,0.4526367,2.4223633,1.3579102h0.027832l0.027832-1.2177734
		h0.9799805v6.6777344c0,2.5478516-1.1386719,3.8222656-3.4160156,3.8222656c-0.7836914,0-1.5351563-0.1494141-2.2539063-0.4482422
		l0.2241211-0.8261719c0.6625977,0.2895508,1.3393555,0.434082,2.0297852,0.434082
		c0.8212891,0,1.4233398-0.2285156,1.8061523-0.6860352c0.3828125-0.4570313,0.5742188-1.2084961,0.5742188-2.2539063v-0.8959961
		h-0.0283203c-0.5039063,0.8774414-1.3017578,1.315918-2.394043,1.315918c-0.8491211,0-1.5444336-0.3266602-2.0859375-0.9799805
		C23.2939453,37.6870117,23.0234375,36.7998047,23.0234375,35.6801758z M24.0317383,35.6801758
		c0,0.8583984,0.1958008,1.5395508,0.5878906,2.0439453c0.3920898,0.5039063,0.9052734,0.7558594,1.5400391,0.7558594
		c0.644043,0,1.1708984-0.2426758,1.5820313-0.7280273C28.1523438,37.2666016,28.3525391,36.5996094,28.34375,35.75v-0.1401367
		c0-0.8491211-0.2055664-1.5166016-0.6162109-2.0019531s-0.9335938-0.7280273-1.5678711-0.7280273
		c-0.6630859,0-1.1811523,0.2426758-1.5541992,0.7280273C24.2319336,34.0932617,24.0405273,34.7841797,24.0317383,35.6801758z"/>
	<path fill="#70A0BB" d="M32.4169922,32.1801758v4.5219727c0,0.746582,0.1240234,1.269043,0.3710938,1.5678711
		s0.6601563,0.4477539,1.2392578,0.4477539c0.5410156,0,1.0336914-0.2612305,1.4770508-0.7836914
		c0.4428711-0.5229492,0.6650391-1.1430664,0.6650391-1.8623047v-3.8916016h1.0356445v7.2797852h-0.9799805l-0.027832-1.3017578
		h-0.027832c-0.2802734,0.4477539-0.637207,0.800293-1.0712891,1.0566406
		c-0.434082,0.2568359-0.8984375,0.3852539-1.3930664,0.3852539c-0.7836914,0-1.362793-0.2216797-1.7358398-0.6650391
		c-0.3735352-0.4433594-0.5600586-1.1552734-0.5600586-2.1352539v-4.6196289H32.4169922z"/>
	<path fill="#70A0BB" d="M39.8647461,39.4599609v-10.5h1.0922852v10.5H39.8647461z"/>
	<path fill="#70A0BB" d="M46.2768555,32.0400391c1.0170898,0,1.7451172,0.2099609,2.184082,0.6298828
		c0.4384766,0.4199219,0.6577148,1.1108398,0.6577148,2.0722656V37.5c0,0.6625977,0.0703125,1.315918,0.2104492,1.9599609
		h-0.9799805c-0.09375-0.4106445-0.1450195-0.8398438-0.1542969-1.2880859h-0.027832
		c-0.2519531,0.4482422-0.6137695,0.7978516-1.0849609,1.050293c-0.4716797,0.2519531-1.0058594,0.3779297-1.6030273,0.3779297
		c-0.671875,0-1.2089844-0.1889648-1.6103516-0.5668945C43.4672852,38.6547852,43.2670898,38.144043,43.2670898,37.5
		c0-0.8120117,0.3520508-1.4580078,1.0566406-1.9389648c0.7045898-0.4804688,1.7104492-0.7211914,3.0170898-0.7211914h0.7558594
		v-0.0698242c0-0.7094727-0.1328125-1.2016602-0.3989258-1.4770508c-0.265625-0.2753906-0.7397461-0.4130859-1.4208984-0.4130859
		c-0.8774414,0-1.6938477,0.2148438-2.4501953,0.644043l-0.1958008-0.8261719
		C44.4335938,32.2592773,45.3154297,32.0400391,46.2768555,32.0400391z M44.2749023,37.4580078
		c0,0.4199219,0.1303711,0.7490234,0.3920898,0.9868164c0.2612305,0.2382813,0.6113281,0.3569336,1.0498047,0.3569336
		c0.644043,0,1.2016602-0.230957,1.6733398-0.6928711c0.4707031-0.4619141,0.706543-1.0288086,0.706543-1.7006836v-0.7841797
		h-0.7558594c-0.9799805,0-1.7358398,0.1655273-2.2680664,0.4970703
		C44.5410156,36.4521484,44.2749023,36.8979492,44.2749023,37.4580078z"/>
	<path fill="#70A0BB" d="M51.2885742,32.1801758h1.0083008l0.0136719,1.5537109h0.0283203
		c0.8212891-1.1289063,1.9829102-1.6938477,3.4858398-1.6938477v0.8818359c-1.0361328,0-1.8759766,0.284668-2.5200195,0.8540039
		s-0.9658203,1.3071289-0.9658203,2.2119141v3.472168h-1.050293V32.1801758z"/>
</g>
<g>
	<path fill="#70A0BB" d="M13.8120117,107.0410156c0,2.0532227-1.3393555,3.0800781-4.0180664,3.0800781
		c-0.8681641,0-1.7358398-0.074707-2.6040039-0.2241211V99.8447266c0.8212891-0.1489258,1.6425781-0.2236328,2.4638672-0.2236328
		c2.4643555,0,3.6962891,0.8256836,3.6962891,2.4780273c-0.0092773,0.5693359-0.2006836,1.059082-0.5742188,1.4697266
		c-0.3730469,0.4111328-0.8867188,0.690918-1.5400391,0.840332v0.027832
		c0.8212891,0.121582,1.4560547,0.4106445,1.9042969,0.8681641
		C13.5878906,105.762207,13.8120117,106.3408203,13.8120117,107.0410156z M9.6538086,100.5307617
		c-0.4755859,0-0.9238281,0.0419922-1.34375,0.1259766v3.3740234h0.9238281c2.034668,0,3.0522461-0.597168,3.0522461-1.7919922
		c0-0.5786133-0.2099609-1.0078125-0.6303711-1.2875977C11.2358398,100.6708984,10.5683594,100.5307617,9.6538086,100.5307617z
		 M12.7060547,106.9428711c-0.0092773-0.6904297-0.284668-1.1992188-0.8261719-1.5258789s-1.4233398-0.4902344-2.6459961-0.4902344
		H8.3100586v4.1582031c0.4570313,0.0839844,0.9521484,0.1259766,1.4838867,0.1259766
		C11.7353516,109.2109375,12.7060547,108.4550781,12.7060547,106.9428711z"/>
	<path fill="#70A0BB" d="M20.8540039,109.0991211c-0.6254883,0.6811523-1.4560547,1.0219727-2.4916992,1.0219727
		c-1.0361328,0-1.8671875-0.3408203-2.4921875-1.0219727c-0.6254883-0.6811523-0.9379883-1.6005859-0.9379883-2.7583008
		c0-1.1572266,0.3125-2.0766602,0.9379883-2.7578125c0.625-0.6811523,1.4560547-1.0219727,2.4921875-1.0219727
		c1.0356445,0,1.8662109,0.3408203,2.4916992,1.0219727s0.9379883,1.6005859,0.9379883,2.7578125
		C21.7919922,107.4985352,21.4794922,108.4179688,20.8540039,109.0991211z M20.1049805,104.1777344
		c-0.4248047-0.5175781-1.0058594-0.7768555-1.7426758-0.7768555c-0.737793,0-1.3188477,0.2592773-1.7431641,0.7768555
		c-0.4248047,0.5180664-0.637207,1.2392578-0.637207,2.1630859c0,0.9243164,0.2124023,1.6450195,0.637207,2.1630859
		c0.4243164,0.5180664,1.0053711,0.7768555,1.7431641,0.7768555c0.7368164,0,1.3178711-0.2587891,1.7426758-0.7768555
		s0.637207-1.2387695,0.637207-2.1630859C20.7421875,105.4169922,20.5297852,104.6958008,20.1049805,104.1777344z"/>
	<path fill="#70A0BB" d="M23.9619141,109.980957v-10.5h1.0922852v10.5H23.9619141z"/>
	<path fill="#70A0BB" d="M27.2939453,106.3408203c0-1.2226563,0.2612305-2.1582031,0.7841797-2.8066406
		c0.5224609-0.6489258,1.2412109-0.9731445,2.1557617-0.9731445c1.0546875,0,1.8388672,0.4433594,2.3520508,1.3300781h0.0283203
		V99.480957h1.0219727v10.5H32.65625l-0.0141602-1.2319336h-0.027832c-0.5136719,0.9145508-1.3071289,1.3720703-2.3803711,1.3720703
		c-0.8959961,0-1.6098633-0.3291016-2.1416016-0.9873047C27.5600586,108.4760742,27.2939453,107.5449219,27.2939453,106.3408203z
		 M28.3022461,106.3408203c0,0.9428711,0.1933594,1.668457,0.5810547,2.1772461
		c0.3867188,0.5087891,0.9121094,0.7626953,1.574707,0.7626953c0.6347656,0,1.152832-0.2470703,1.5541992-0.7416992
		c0.4008789-0.4946289,0.6020508-1.1948242,0.6020508-2.1000977v-0.1958008c0-0.8867188-0.2011719-1.5820313-0.6020508-2.0864258
		c-0.4013672-0.5039063-0.9194336-0.7558594-1.5541992-0.7558594c-0.6811523,0-1.2109375,0.2519531-1.5888672,0.7558594
		C28.4912109,104.6611328,28.3022461,105.3891602,28.3022461,106.3408203z"/>
</g>
</svg>
