<?xml version="1.0" encoding="utf-8"?>
<!-- Generator: Adobe Illustrator 16.0.3, SVG Export Plug-In . SVG Version: 6.00 Build 0)  -->
<!DOCTYPE svg PUBLIC "-//W3C//DTD SVG 1.1//EN" "http://www.w3.org/Graphics/SVG/1.1/DTD/svg11.dtd">
<svg version="1.1" id="レイヤー_1" xmlns="http://www.w3.org/2000/svg" xmlns:xlink="http://www.w3.org/1999/xlink" x="0px"
	 y="0px" width="202px" height="185px" viewBox="0 0 202 185" enable-background="new 0 0 202 185" xml:space="preserve">
<rect x="6" y="6" fill="none" stroke="#C9CACA" stroke-width="0.5" stroke-miterlimit="10" width="190" height="159.5"/>
<g>
	<defs>
		<rect id="SVGID_1_" x="20.6147461" y="23" width="140.8852539" height="100"/>
	</defs>
	<clipPath id="SVGID_2_">
		<use xlink:href="#SVGID_1_"  overflow="visible"/>
	</clipPath>
	<g clip-path="url(#SVGID_2_)">
		<path fill="#727171" d="M25.6069336,42V31.855957H25.574707l-3.1518555,2.9121094l-0.4960938-1.0400391l3.6801758-3.4082031
			h1.2797852V42H25.6069336z"/>
		<path fill="#727171" d="M35.4467773,30.1601563c1.3012695,0,2.3144531,0.3837891,3.0400391,1.1518555
			c0.7250977,0.7680664,1.0878906,1.8666992,1.0878906,3.2958984c-0.0107422,2.2294922-0.5493164,4-1.6162109,5.3120117
			c-1.0664063,1.3120117-2.5546875,2.0585938-4.4638672,2.2402344l-0.2241211-1.0722656
			c1.3012695-0.1381836,2.3466797-0.5493164,3.1362305-1.2319336c0.7890625-0.6826172,1.3544922-1.6586914,1.6958008-2.9277344
			l-0.0161133-0.0161133c-0.746582,0.8320313-1.7172852,1.2480469-2.9116211,1.2480469
			c-1.1738281,0-2.1123047-0.3520508-2.815918-1.0561523c-0.7041016-0.7041016-1.0561523-1.6586914-1.0561523-2.8637695
			c0-1.2265625,0.378418-2.2133789,1.1357422-2.9604492C33.1958008,30.5336914,34.1987305,30.1601563,35.4467773,30.1601563z
			 M35.4467773,31.2319336c-0.9067383,0-1.6108398,0.2617188-2.1123047,0.7841797s-0.7519531,1.2636719-0.7519531,2.2241211
			c0,0.9277344,0.2563477,1.6479492,0.7680664,2.159668c0.512207,0.512207,1.2104492,0.7680664,2.0961914,0.7680664
			c0.8212891,0,1.4985352-0.2719727,2.0317383-0.815918s0.800293-1.2480469,0.800293-2.1118164
			c0-0.949707-0.2509766-1.690918-0.7519531-2.2241211C37.0253906,31.4829102,36.3320313,31.2216797,35.4467773,31.2319336z"/>
		<path fill="#727171" d="M45.1748047,31.2480469c-1.0561523,0-2.1123047,0.3681641-3.168457,1.1040039l-0.3837891-1.0239258
			c1.0878906-0.7788086,2.3251953-1.1679688,3.7119141-1.1679688c1.1416016,0,2.0268555,0.2880859,2.65625,0.8637695
			c0.6289063,0.5761719,0.9438477,1.3920898,0.9438477,2.4482422c0,1.0454102-0.3789063,2.1015625-1.1357422,3.1679688
			c-0.7578125,1.0664063-2.1762695,2.4853516-4.2563477,4.2558594v0.0322266h5.4399414V42h-7.199707v-1.0717773
			c2.2719727-1.8881836,3.8129883-3.3544922,4.6240234-4.4003906c0.8105469-1.0449219,1.2158203-2.0317383,1.2158203-2.9599609
			c0-0.7573242-0.2080078-1.3330078-0.6240234-1.7280273C46.5825195,31.4453125,45.9746094,31.2480469,45.1748047,31.2480469z"/>
		<path fill="#727171" d="M52.2304688,31.5517578c0.7358398-0.9277344,1.7705078-1.3916016,3.1040039-1.3916016
			s2.3681641,0.4638672,3.1040039,1.3916016c0.7358398,0.9282227,1.1040039,2.4643555,1.1040039,4.6083984
			s-0.3681641,3.6796875-1.1040039,4.6079102c-0.7358398,0.9277344-1.7705078,1.3920898-3.1040039,1.3920898
			s-2.3681641-0.4643555-3.1040039-1.3920898c-0.7358398-0.9282227-1.1040039-2.4638672-1.1040039-4.6079102
			S51.4946289,32.4799805,52.2304688,31.5517578z M55.3344727,41.1201172
			c0.9814453,0.0107422,1.7172852-0.378418,2.2080078-1.1679688s0.7304688-2.0532227,0.7202148-3.7919922
			c0.0102539-1.7387695-0.2294922-3.0024414-0.7202148-3.7919922s-1.2265625-1.1787109-2.2080078-1.1679688
			c-0.9814453-0.0107422-1.7172852,0.378418-2.2080078,1.1679688s-0.7304688,2.0532227-0.7197266,3.7919922
			c-0.0107422,1.7387695,0.2290039,3.0024414,0.7197266,3.7919922S54.3530273,41.1308594,55.3344727,41.1201172z"/>
		<path fill="#727171" d="M62.5664063,33.6801758l2.1601563,3.3120117h0.0317383l2.1762695-3.3120117h1.34375l-2.8476563,4.0957031
			L68.3583984,42h-1.3920898l-2.2397461-3.4560547h-0.0322266L62.4384766,42h-1.3442383l2.9282227-4.2241211l-2.8481445-4.0957031
			H62.5664063z"/>
		<path fill="#727171" d="M74.1503906,42V31.855957h-0.0322266l-3.1518555,2.9121094l-0.4960938-1.0400391l3.6801758-3.4082031
			h1.2797852V42H74.1503906z"/>
		<path fill="#727171" d="M80.934082,31.5517578c0.7358398-0.9277344,1.7705078-1.3916016,3.1040039-1.3916016
			s2.3681641,0.4638672,3.1040039,1.3916016c0.7358398,0.9282227,1.1040039,2.4643555,1.1040039,4.6083984
			s-0.3681641,3.6796875-1.1040039,4.6079102c-0.7358398,0.9277344-1.7705078,1.3920898-3.1040039,1.3920898
			s-2.3681641-0.4643555-3.1040039-1.3920898c-0.7358398-0.9282227-1.1040039-2.4638672-1.1040039-4.6079102
			S80.1982422,32.4799805,80.934082,31.5517578z M84.0380859,41.1201172
			c0.9814453,0.0107422,1.7172852-0.378418,2.2080078-1.1679688s0.7304688-2.0532227,0.7202148-3.7919922
			c0.0102539-1.7387695-0.2294922-3.0024414-0.7202148-3.7919922s-1.2265625-1.1787109-2.2080078-1.1679688
			c-0.9814453-0.0107422-1.7172852,0.378418-2.2080078,1.1679688s-0.7304688,2.0532227-0.7197266,3.7919922
			c-0.0107422,1.7387695,0.2290039,3.0024414,0.7197266,3.7919922S83.0566406,41.1308594,84.0380859,41.1201172z"/>
		<path fill="#727171" d="M91.1738281,30.9282227c0.6826172-0.512207,1.6108398-0.7680664,2.7841797-0.7680664
			s2.1010742,0.2558594,2.7841797,0.7680664c0.6821289,0.5117188,1.0185547,1.1894531,1.0078125,2.0317383
			c0,1.2910156-0.746582,2.2026367-2.2397461,2.7358398v0.0322266c1.7705078,0.5229492,2.6557617,1.5625,2.6557617,3.1201172
			c0,1.0131836-0.3735352,1.8188477-1.1201172,2.4160156s-1.7758789,0.8959961-3.0878906,0.8959961
			s-2.3413086-0.2988281-3.0878906-0.8959961S89.75,39.8613281,89.75,38.8481445
			c0-0.6826172,0.2294922-1.2905273,0.6879883-1.8242188c0.4584961-0.5332031,1.1147461-0.9331055,1.9682617-1.199707v-0.0322266
			c-0.7148438-0.2666016-1.2641602-0.6450195-1.6484375-1.1362305c-0.3837891-0.4902344-0.5810547-1.0556641-0.5917969-1.6958008
			C90.1552734,32.1176758,90.4912109,31.4399414,91.1738281,30.9282227z M93.9101563,36.2880859
			c-0.9707031,0.1918945-1.7016602,0.5068359-2.1918945,0.9438477c-0.4907227,0.4375-0.7416992,0.9599609-0.7524414,1.5678711
			c0,0.7255859,0.2666016,1.2963867,0.800293,1.7124023c0.5332031,0.4160156,1.2641602,0.6240234,2.1918945,0.6240234
			c0.9282227,0,1.6533203-0.2133789,2.1762695-0.6401367c0.5224609-0.4267578,0.7836914-0.9921875,0.7836914-1.6962891
			C96.9179688,37.5092773,95.9155273,36.671875,93.9101563,36.2880859z M93.9580078,35.2797852
			c0.8320313-0.1704102,1.472168-0.4477539,1.9199219-0.831543c0.4482422-0.3842773,0.671875-0.8427734,0.671875-1.3764648
			c0-0.5756836-0.2236328-1.0341797-0.671875-1.3759766c-0.4477539-0.3408203-1.0878906-0.5117188-1.9199219-0.5117188
			c-0.8105469,0-1.4399414,0.1708984-1.8881836,0.5117188c-0.4477539,0.3417969-0.671875,0.800293-0.671875,1.3759766
			c0,0.5336914,0.2241211,0.9921875,0.671875,1.3764648C92.5180664,34.8320313,93.1474609,35.109375,93.9580078,35.2797852z"/>
		<path fill="#727171" d="M100.7739258,31.5517578c0.7358398-0.9277344,1.7705078-1.3916016,3.1040039-1.3916016
			s2.3681641,0.4638672,3.1040039,1.3916016c0.7358398,0.9282227,1.1040039,2.4643555,1.1040039,4.6083984
			s-0.3681641,3.6796875-1.1040039,4.6079102c-0.7358398,0.9277344-1.7705078,1.3920898-3.1040039,1.3920898
			s-2.3681641-0.4643555-3.1040039-1.3920898c-0.7358398-0.9282227-1.1040039-2.4638672-1.1040039-4.6079102
			S100.0380859,32.4799805,100.7739258,31.5517578z M103.8779297,41.1201172
			c0.9814453,0.0107422,1.7172852-0.378418,2.2080078-1.1679688s0.7304688-2.0532227,0.7202148-3.7919922
			c0.0102539-1.7387695-0.2294922-3.0024414-0.7202148-3.7919922s-1.2265625-1.1787109-2.2080078-1.1679688
			c-0.9814453-0.0107422-1.7172852,0.378418-2.2080078,1.1679688s-0.7304688,2.0532227-0.7197266,3.7919922
			c-0.0107422,1.7387695,0.2290039,3.0024414,0.7197266,3.7919922S102.8964844,41.1308594,103.8779297,41.1201172z"/>
		<path fill="#727171" d="M113.9257813,42.1601563c-1.2055664,0-2.1015625-0.4853516-2.6879883-1.4560547h-0.0317383v4.815918
			h-1.1679688V33.6801758h1.1196289l0.0161133,1.4077148h0.0322266c0.5864258-1.0449219,1.4931641-1.5678711,2.7197266-1.5678711
			c1.0454102,0,1.8666992,0.3706055,2.4638672,1.1118164c0.5976563,0.7416992,0.8964844,1.8110352,0.8964844,3.2080078
			c0,1.3657227-0.3071289,2.4267578-0.9204102,3.184082C115.7524414,41.7817383,114.9389648,42.1601563,113.9257813,42.1601563z
			 M116.1337891,37.8398438c0-1.0878906-0.2158203-1.9199219-0.6479492-2.4956055
			c-0.4321289-0.5761719-1.0375977-0.8642578-1.815918-0.8642578c-0.7358398,0-1.3305664,0.2880859-1.7841797,0.8642578
			c-0.453125,0.5756836-0.6796875,1.3706055-0.6796875,2.3837891v0.2241211c0,1.034668,0.2290039,1.8344727,0.6879883,2.3999023
			c0.4584961,0.5654297,1.050293,0.8481445,1.7758789,0.8481445c0.7573242,0,1.3574219-0.2905273,1.7998047-0.8720703
			C115.9125977,39.746582,116.1337891,38.9174805,116.1337891,37.8398438z"/>
		<path fill="#727171" d="M124.4858398,42V30.3198242h1.3759766V42H124.4858398z"/>
		<path fill="#727171" d="M129.5415039,42V30h1.2480469v12H129.5415039z"/>
		<path fill="#727171" d="M134.4692383,42V30h1.2480469v12H134.4692383z"/>
		<path fill="#727171" d="M139.8291016,33.6801758v5.1679688c0,0.8535156,0.1411133,1.4506836,0.4238281,1.7919922
			s0.7548828,0.5117188,1.4160156,0.5117188c0.6186523,0,1.1816406-0.2983398,1.6879883-0.8959961
			c0.5068359-0.597168,0.7602539-1.3061523,0.7602539-2.1279297v-4.4477539h1.184082V42h-1.1201172l-0.0322266-1.487793h-0.0317383
			c-0.3198242,0.5117188-0.7280273,0.9145508-1.2241211,1.2080078c-0.4960938,0.2929688-1.0268555,0.4399414-1.5917969,0.4399414
			c-0.8959961,0-1.5576172-0.253418-1.984375-0.7602539c-0.4267578-0.5063477-0.6396484-1.3198242-0.6396484-2.4399414v-5.2797852
			H139.8291016z"/>
		<path fill="#727171" d="M150.453125,33.5200195c1.0239258,0,1.9677734,0.2133789,2.8320313,0.6401367l-0.2719727,0.9438477
			c-0.8217773-0.4160156-1.6748047-0.6240234-2.5600586-0.6240234c-0.6191406,0-1.0883789,0.1118164-1.4082031,0.3359375
			s-0.4799805,0.5390625-0.4799805,0.9438477c0,0.3842773,0.1386719,0.6884766,0.4160156,0.9121094
			c0.2773438,0.2241211,0.7890625,0.3999023,1.5361328,0.5283203c1.0981445,0.1811523,1.8823242,0.4799805,2.3520508,0.8959961
			c0.4692383,0.4160156,0.7036133,0.9863281,0.7036133,1.7119141c0,0.7148438-0.2773438,1.2851563-0.831543,1.7119141
			c-0.5551758,0.4267578-1.3178711,0.6401367-2.2880859,0.6401367c-1.1416016,0-2.1655273-0.2666016-3.0722656-0.800293
			l0.2719727-0.9438477c0.8745117,0.5229492,1.8081055,0.7841797,2.800293,0.7841797
			c0.6181641,0,1.0932617-0.1176758,1.4238281-0.3520508c0.3305664-0.2348633,0.4960938-0.581543,0.4960938-1.0400391
			c0.0102539-0.4267578-0.1337891-0.7573242-0.4321289-0.9921875c-0.2988281-0.234375-0.815918-0.4160156-1.5517578-0.5439453
			c-1.0561523-0.1811523-1.8188477-0.4746094-2.2880859-0.8798828c-0.4697266-0.4052734-0.7094727-0.9492188-0.7202148-1.6323242
			c0.0107422-0.6821289,0.2827148-1.2260742,0.815918-1.6318359
			C148.7304688,33.7226563,149.4824219,33.5200195,150.453125,33.5200195z"/>
		<path fill="#727171" d="M158.2924805,30.9599609V34h3.1523438v0.9599609h-3.1523438v4.3681641
			c0,0.746582,0.1015625,1.2456055,0.3041992,1.4960938s0.5810547,0.3759766,1.1357422,0.3759766
			c0.4907227,0,0.9604492-0.0908203,1.4082031-0.2719727l0.1918945,0.9438477
			c-0.5439453,0.1918945-1.1308594,0.2880859-1.7597656,0.2880859c-0.9067383,0-1.546875-0.1948242-1.9199219-0.5839844
			c-0.3735352-0.3896484-0.5600586-1.0639648-0.5600586-2.0244141v-4.5917969h-1.840332V34h1.840332v-3.0400391H158.2924805z"/>
		<path fill="#727171" d="M163.8447266,33.6801758h1.1518555l0.0161133,1.7758789h0.0317383
			c0.9384766-1.2905273,2.2666016-1.9360352,3.9838867-1.9360352v1.0078125c-1.1835938,0-2.1435547,0.3256836-2.8798828,0.9760742
			c-0.7358398,0.6508789-1.1040039,1.4936523-1.1040039,2.5283203V42h-1.199707V33.6801758z"/>
		<path fill="#727171" d="M174.1489258,33.5200195c1.1621094,0,1.9941406,0.2397461,2.4956055,0.7202148
			c0.5014648,0.4799805,0.7519531,1.269043,0.7519531,2.3676758v3.1518555c0,0.7578125,0.0800781,1.5043945,0.2402344,2.2402344
			h-1.1201172c-0.1064453-0.4692383-0.1655273-0.9599609-0.1757813-1.472168h-0.0322266
			c-0.2880859,0.512207-0.7011719,0.9121094-1.2397461,1.2001953c-0.5390625,0.2880859-1.1494141,0.4321289-1.8320313,0.4321289
			c-0.7680664,0-1.3818359-0.2163086-1.840332-0.6479492c-0.4584961-0.4321289-0.6879883-1.0161133-0.6879883-1.7524414
			c0-0.9277344,0.402832-1.6665039,1.2080078-2.2158203c0.8056641-0.5493164,1.9545898-0.8237305,3.4482422-0.8237305h0.8637695
			v-0.0800781c0-0.8105469-0.1518555-1.3735352-0.4560547-1.6879883c-0.3037109-0.3144531-0.8452148-0.472168-1.6235352-0.472168
			c-1.0029297,0-1.9360352,0.2456055-2.800293,0.7358398l-0.2241211-0.9438477
			C172.0419922,33.7705078,173.0498047,33.5200195,174.1489258,33.5200195z M171.8608398,39.7119141
			c0,0.4799805,0.1489258,0.855957,0.4477539,1.1279297s0.6987305,0.4082031,1.2001953,0.4082031
			c0.7358398,0,1.3730469-0.2641602,1.9121094-0.7919922c0.5380859-0.527832,0.8076172-1.1762695,0.8076172-1.9438477v-0.8959961
			h-0.8637695c-1.1201172,0-1.9838867,0.1894531-2.5922852,0.5678711
			C172.1645508,38.5629883,171.8608398,39.0717773,171.8608398,39.7119141z"/>
		<path fill="#727171" d="M182.5161133,30.9599609V34h3.1523438v0.9599609h-3.1523438v4.3681641
			c0,0.746582,0.1015625,1.2456055,0.3041992,1.4960938s0.5810547,0.3759766,1.1357422,0.3759766
			c0.4907227,0,0.9604492-0.0908203,1.4082031-0.2719727l0.1918945,0.9438477
			c-0.5439453,0.1918945-1.1308594,0.2880859-1.7597656,0.2880859c-0.9067383,0-1.546875-0.1948242-1.9199219-0.5839844
			c-0.3735352-0.3896484-0.5600586-1.0639648-0.5600586-2.0244141v-4.5917969h-1.840332V34h1.840332v-3.0400391H182.5161133z"/>
		<path fill="#727171" d="M188.7080078,31.7597656V30h1.2480469v1.7597656H188.7080078z M188.7080078,42v-8.3198242h1.2480469V42
			H188.7080078z"/>
		<path fill="#727171" d="M199.2045898,40.9921875c-0.7148438,0.7783203-1.6640625,1.1679688-2.8481445,1.1679688
			s-2.1337891-0.3896484-2.8481445-1.1679688c-0.7148438-0.7788086-1.0717773-1.8295898-1.0717773-3.1523438
			c0-1.3222656,0.3569336-2.3730469,1.0717773-3.1518555c0.7143555-0.7783203,1.6640625-1.1679688,2.8481445-1.1679688
			s2.1333008,0.3896484,2.8481445,1.1679688c0.7143555,0.7788086,1.0717773,1.8295898,1.0717773,3.1518555
			C200.2763672,39.1625977,199.9189453,40.2133789,199.2045898,40.9921875z M198.3481445,35.3681641
			c-0.4853516-0.5922852-1.1494141-0.8881836-1.9916992-0.8881836c-0.8427734,0-1.5068359,0.2958984-1.9921875,0.8881836
			c-0.4853516,0.5917969-0.7280273,1.4160156-0.7280273,2.4716797c0,1.0561523,0.2426758,1.8803711,0.7280273,2.472168
			s1.1494141,0.8881836,1.9921875,0.8881836c0.8422852,0,1.5063477-0.2963867,1.9916992-0.8881836
			s0.7280273-1.4160156,0.7280273-2.472168C199.0761719,36.7841797,198.8334961,35.9599609,198.3481445,35.3681641z"/>
		<path fill="#727171" d="M202.1166992,33.6801758h1.1196289l0.0161133,1.487793h0.0322266
			c0.3198242-0.512207,0.7280273-0.9145508,1.2236328-1.2080078c0.4960938-0.2929688,1.0322266-0.4399414,1.6083984-0.4399414
			c0.9384766,0,1.6342773,0.2905273,2.0878906,0.8720703c0.453125,0.581543,0.6796875,1.5014648,0.6796875,2.7597656V42h-1.1518555
			v-4.7519531c0-1.034668-0.1494141-1.7519531-0.4477539-2.1518555c-0.2988281-0.4003906-0.8110352-0.6000977-1.5361328-0.6000977
			c-0.6186523,0-1.184082,0.3066406-1.6958008,0.9199219c-0.512207,0.6132813-0.7680664,1.3256836-0.7680664,2.1357422V42
			h-1.1679688V33.6801758z"/>
		<path fill="#727171" d="M213.956543,33.5200195c1.0239258,0,1.9677734,0.2133789,2.8320313,0.6401367l-0.2719727,0.9438477
			c-0.8217773-0.4160156-1.6748047-0.6240234-2.5600586-0.6240234c-0.6191406,0-1.0883789,0.1118164-1.4082031,0.3359375
			s-0.4799805,0.5390625-0.4799805,0.9438477c0,0.3842773,0.1386719,0.6884766,0.4160156,0.9121094
			c0.2773438,0.2241211,0.7890625,0.3999023,1.5361328,0.5283203c1.0981445,0.1811523,1.8823242,0.4799805,2.3520508,0.8959961
			c0.4692383,0.4160156,0.7036133,0.9863281,0.7036133,1.7119141c0,0.7148438-0.2773438,1.2851563-0.831543,1.7119141
			c-0.5551758,0.4267578-1.3178711,0.6401367-2.2880859,0.6401367c-1.1416016,0-2.1655273-0.2666016-3.0722656-0.800293
			l0.2719727-0.9438477c0.8745117,0.5229492,1.8081055,0.7841797,2.800293,0.7841797
			c0.6181641,0,1.0932617-0.1176758,1.4238281-0.3520508c0.3305664-0.2348633,0.4960938-0.581543,0.4960938-1.0400391
			c0.0102539-0.4267578-0.1337891-0.7573242-0.4321289-0.9921875c-0.2988281-0.234375-0.815918-0.4160156-1.5517578-0.5439453
			c-1.0561523-0.1811523-1.8188477-0.4746094-2.2880859-0.8798828c-0.4697266-0.4052734-0.7094727-0.9492188-0.7202148-1.6323242
			c0.0107422-0.6821289,0.2827148-1.2260742,0.815918-1.6318359
			C212.2338867,33.7226563,212.9858398,33.5200195,213.956543,33.5200195z"/>
		<path fill="#727171" d="M24.390625,52.0878906c-0.4584961,1.6538086-0.6879883,3.4243164-0.6879883,5.3120117
			c0,1.3867188,0.2451172,2.5498047,0.7363281,3.4882813c0.4902344,0.9384766,0.9863281,1.4130859,1.487793,1.4238281
			c0.3413086-0.0107422,0.7783203-0.3574219,1.3120117-1.0400391c0.5332031-0.6826172,1.0454102-1.6586914,1.5361328-2.9277344
			l1.1196289,0.4316406c-0.5117188,1.4829102-1.1518555,2.6455078-1.9199219,3.4882813
			c-0.7680664,0.8422852-1.4775391,1.2636719-2.1279297,1.2636719c-0.8320313,0-1.6000977-0.597168-2.3037109-1.7919922
			c-0.7041016-1.1943359-1.0561523-2.6396484-1.0561523-4.3359375c0-2.0161133,0.2397461-3.8398438,0.7197266-5.4716797
			L24.390625,52.0878906z M31.8305664,52.2319336l1.1201172-0.3837891c0.7143555,1.3334961,1.2641602,2.8745117,1.6479492,4.6240234
			c0.3842773,1.7495117,0.5761719,3.5517578,0.5761719,5.4077148h-1.2319336
			c-0.0107422-1.7490234-0.1977539-3.4716797-0.5600586-5.1679688
			C33.0200195,55.0161133,32.5029297,53.5229492,31.8305664,52.2319336z"/>
		<path fill="#727171" d="M48.9985352,52.3759766l-6.2719727,3.855957l0.0161133,0.0322266
			c1.0986328-0.3413086,2.1333008-0.512207,3.1040039-0.512207c3.1572266,0,4.7358398,1.1254883,4.7358398,3.3759766
			c0,2.9228516-2.1386719,4.3842773-6.4160156,4.3842773c-0.9277344,0-1.9785156-0.0639648-3.1518555-0.1923828l0.0161133-1.1196289
			c1.034668,0.1279297,2.0532227,0.1918945,3.0561523,0.1918945c3.4453125,0,5.1679688-1.0507813,5.1679688-3.1518555
			c0-0.8427734-0.3041992-1.4667969-0.9121094-1.8720703s-1.5678711-0.6083984-2.8798828-0.6083984
			c-0.9599609,0-2.0322266,0.1816406-3.2163086,0.5444336c-1.1835938,0.362793-2.3466797,0.8691406-3.487793,1.5200195
			l-0.4638672-0.8803711l8.527832-5.5839844V52.328125h-7.1679688v-1.0400391h9.2797852L48.9985352,52.3759766z"/>
		<path fill="#727171" d="M56.1186523,50.8720703c-0.5224609,1.9838867-0.7836914,4.1064453-0.7836914,6.3681641
			c0,2.2612305,0.2612305,4.3837891,0.7836914,6.3676758l-1.1518555,0.1601563
			c-0.5336914-2.0263672-0.800293-4.2026367-0.800293-6.527832c0-2.3256836,0.2666016-4.5014648,0.800293-6.5283203
			L56.1186523,50.8720703z M67.4628906,54.2001953h-2.8320313v5.2319336
			c0.7783203,0.5332031,1.7280273,1.3598633,2.8476563,2.4799805l-0.815918,0.7998047
			c-0.7680664-0.7783203-1.4453125-1.4077148-2.0317383-1.8876953c-0.074707,1.9516602-1.1254883,2.9277344-3.1523438,2.9277344
			C60.3691406,63.7412109,59.5161133,63.4907227,58.9189453,63c-0.5976563-0.4907227-0.8959961-1.184082-0.8959961-2.0800781
			c0-0.8320313,0.2983398-1.4716797,0.8959961-1.9199219c0.597168-0.4482422,1.4501953-0.6772461,2.5595703-0.6879883
			c0.6723633,0,1.3334961,0.144043,1.984375,0.4321289v-4.5439453h-5.0239258v-1.0722656h5.0239258V50.472168h1.1679688v2.6557617
			h2.8320313V54.2001953z M63.4628906,59.9921875c-0.6831055-0.3945313-1.3603516-0.5922852-2.0322266-0.5922852
			c-1.4936523,0-2.2397461,0.5068359-2.2397461,1.5200195c0,1.1733398,0.7460938,1.7602539,2.2397461,1.7602539
			c0.7143555,0,1.2319336-0.1708984,1.5522461-0.512207c0.3198242-0.3413086,0.4799805-0.8798828,0.4799805-1.6162109V59.9921875z"
			/>
		<path fill="#727171" d="M72.534668,50.8720703c-0.5117188,1.9414063-0.7680664,4.0639648-0.7680664,6.3681641
			c0,2.3037109,0.2563477,4.4267578,0.7680664,6.3676758l-1.199707,0.1601563
			c-0.5336914-2.0263672-0.800293-4.2026367-0.800293-6.527832c0-2.3256836,0.2666016-4.5014648,0.800293-6.5283203
			L72.534668,50.8720703z M82.7265625,61.4638672l0.1762695,1.0722656
			c-1.2910156,0.3305664-2.5175781,0.4960938-3.6801758,0.4960938c-1.4614258,0-2.6186523-0.2666016-3.4716797-0.800293
			c-0.8535156-0.5332031-1.2749023-1.253418-1.2641602-2.1601563c0.0102539-0.4584961,0.1972656-0.9863281,0.5600586-1.5839844
			c0.3623047-0.597168,0.8583984-1.1518555,1.487793-1.6635742l0.8642578,0.7358398
			c-0.5229492,0.4267578-0.9335938,0.8745117-1.2324219,1.34375c-0.2983398,0.4697266-0.453125,0.8588867-0.4638672,1.1679688
			c0,0.5869141,0.3041992,1.0400391,0.9121094,1.3603516c0.6079102,0.3198242,1.4770508,0.4799805,2.6079102,0.4799805
			C80.3320313,61.9121094,81.5,61.7626953,82.7265625,61.4638672z M75.7026367,53.2402344v-1.0883789h6.800293v1.0883789H75.7026367
			z"/>
		<path fill="#727171" d="M88.1186523,50.8720703c-0.5224609,1.9838867-0.7836914,4.1064453-0.7836914,6.3681641
			c0,2.2612305,0.2612305,4.3837891,0.7836914,6.3676758l-1.1518555,0.1601563
			c-0.5336914-2.0263672-0.800293-4.2026367-0.800293-6.527832c0-2.3256836,0.2666016-4.5014648,0.800293-6.5283203
			L88.1186523,50.8720703z M99.3989258,52.2480469h-2.8803711v2.5600586h2.8803711v1.0400391h-2.8803711v3.7919922
			c0.8320313,0.5332031,1.8188477,1.3706055,2.9599609,2.5117188l-0.815918,0.7841797
			c-0.8745117-0.8745117-1.5893555-1.5253906-2.144043-1.9521484c-0.1064453,1.855957-1.1196289,2.7841797-3.0400391,2.7841797
			c-1.0878906,0-1.9199219-0.2294922-2.4956055-0.6879883c-0.5761719-0.4584961-0.8642578-1.1147461-0.8642578-1.9682617
			c0-0.6821289,0.2558594-1.2583008,0.7680664-1.7280273c0.512207-0.4692383,1.3759766-0.7036133,2.5917969-0.7036133
			c0.6723633,0,1.2963867,0.1171875,1.8720703,0.3520508v-3.184082h-4.7998047v-1.0400391h4.7998047v-2.5600586h-4.7998047
			v-1.0561523h8.8481445V52.2480469z M95.3505859,60.2319336c-0.6293945-0.3198242-1.2695313-0.4799805-1.9199219-0.4799805
			c-1.418457,0-2.1279297,0.4536133-2.1279297,1.3598633c0,1.0668945,0.6933594,1.6000977,2.0800781,1.6000977
			c0.6826172,0,1.184082-0.1704102,1.5039063-0.5117188s0.4746094-0.8852539,0.4638672-1.6323242V60.2319336z"/>
		<path fill="#727171" d="M102.1347656,60.1362305l-0.9121094-0.8320313
			c1.2055664-1.3759766,2.1811523-2.5283203,2.9282227-3.4560547c0.8637695-1.0664063,1.4560547-1.7333984,1.7758789-2
			s0.7358398-0.3999023,1.2480469-0.3999023c0.4692383,0,0.8745117,0.1171875,1.2158203,0.3515625
			c0.3413086,0.2348633,1.0615234,0.8803711,2.1601563,1.9360352c1.8984375,1.8134766,3.7119141,3.4775391,5.4399414,4.9921875
			l-0.8320313,0.9599609c-1.8452148-1.6318359-3.78125-3.4130859-5.8081055-5.34375
			c-0.7680664-0.7363281-1.2695313-1.1894531-1.5039063-1.3603516c-0.2348633-0.1704102-0.4692383-0.2558594-0.7041016-0.2558594
			c-0.2451172,0-0.4746094,0.0961914-0.6879883,0.2880859s-0.6347656,0.6772461-1.2636719,1.4560547
			C103.9960938,57.9545898,102.9770508,59.1757813,102.1347656,60.1362305z"/>
		<path fill="#727171" d="M120.7265625,50.6479492l1.2480469-0.1918945
			c0.2988281,1.7705078,0.6616211,3.4936523,1.0883789,5.1679688c1.6850586-0.7783203,3.8984375-1.4824219,6.6396484-2.1118164
			l0.2402344,1.1040039c-3.2319336,0.7358398-5.6479492,1.5571289-7.2480469,2.4638672s-2.3999023,1.8666992-2.3999023,2.8798828
			c0,1.7070313,1.5839844,2.5600586,4.7519531,2.5600586c1.4609375,0,3.0932617-0.1225586,4.8959961-0.3681641l0.1279297,1.1201172
			c-1.8134766,0.2451172-3.4882813,0.3681641-5.0239258,0.3681641c-1.9736328,0-3.472168-0.3095703-4.4960938-0.9282227
			s-1.5361328-1.5200195-1.5361328-2.7041016c0-1.418457,0.9599609-2.6821289,2.8798828-3.7919922
			C121.4038086,54.2641602,121.0146484,52.4082031,120.7265625,50.6479492z"/>
		<path fill="#727171" d="M134.2626953,53.512207v-1.0722656h3.7602539
			c0.0849609-0.3837891,0.2182617-1.1201172,0.3999023-2.2080078l1.184082,0.0961914
			c-0.0961914,0.6503906-0.2348633,1.3544922-0.4160156,2.1118164h7.7758789v1.0722656h-8.0322266
			c-0.3413086,1.2475586-0.8051758,2.4956055-1.3916016,3.7436523l0.015625,0.0322266
			c0.597168-0.2880859,1.2744141-0.5283203,2.0322266-0.7202148c0.7573242-0.1918945,1.4345703-0.2880859,2.0317383-0.2880859
			c1.4614258,0,2.5654297,0.2988281,3.3120117,0.8959961c0.746582,0.5976563,1.1201172,1.4560547,1.1201172,2.5761719
			c0,1.184082-0.5224609,2.1279297-1.5678711,2.8320313s-2.4428711,1.0561523-4.1918945,1.0561523
			c-1.2910156,0-2.5761719-0.1230469-3.855957-0.3681641l0.1918945-1.0717773
			c1.2797852,0.2451172,2.5009766,0.3676758,3.6640625,0.3676758c1.3862305,0,2.4848633-0.2612305,3.2958984-0.7836914
			c0.8105469-0.5224609,1.2211914-1.2211914,1.2319336-2.0961914c0-1.5571289-1.0825195-2.3359375-3.2480469-2.3359375
			c-0.7680664,0-1.5893555,0.1333008-2.4638672,0.3999023c-0.875,0.2666016-1.6269531,0.6137695-2.2558594,1.0400391
			l-1.0244141-0.4799805c0.8535156-1.6743164,1.4936523-3.2744141,1.9204102-4.7998047H134.2626953z"/>
		<path fill="#727171" d="M151.7827148,50.8881836h1.2001953v4.3520508h0.0317383
			c0.5439453-1.2587891,1.2744141-2.2456055,2.1918945-2.9604492c0.9174805-0.7143555,1.9042969-1.0717773,2.9599609-1.0717773
			c1.2265625,0,2.1816406,0.4428711,2.8642578,1.328125s1.0239258,2.1494141,1.0239258,3.7919922
			c0,2.527832-0.7094727,4.3891602-2.1279297,5.5839844c-1.4189453,1.1943359-3.6425781,1.7866211-6.671875,1.7758789
			l-0.0483398-1.1201172c2.6772461,0,4.6083984-0.4902344,5.7919922-1.4716797
			c1.184082-0.9814453,1.7763672-2.5708008,1.7763672-4.7680664c0-1.3012695-0.2348633-2.2827148-0.7041016-2.9443359
			c-0.4697266-0.6611328-1.1416016-0.9916992-2.0161133-0.9916992c-1.184082,0-2.2988281,0.6401367-3.34375,1.9199219
			c-1.0458984,1.2797852-1.6269531,2.8266602-1.7441406,4.6401367h-1.184082V50.8881836z"/>
		<path fill="#727171" d="M167.6069336,50.9199219l1.0556641-0.2397461c0.2988281,1.3012695,0.5175781,2.21875,0.65625,2.7519531
			c1.0878906-0.5546875,2.2929688-0.8320313,3.6157227-0.8320313c0.3945313,0,0.8427734,0.0375977,1.3442383,0.1118164
			c0.2983398-0.8852539,0.5654297-1.7597656,0.7998047-2.6240234l1.1040039,0.2241211
			c-0.2236328,0.8212891-0.4907227,1.706543-0.7998047,2.6557617c1.1943359,0.3950195,2.1333008,1.0507813,2.815918,1.9682617
			s1.0239258,2.0053711,1.0239258,3.2641602c0,0.9814453-0.1118164,1.8291016-0.3359375,2.5439453
			c0.3305664,0.3413086,0.7041016,0.7895508,1.1201172,1.34375l-0.815918,0.6240234
			c-0.1499023-0.2026367-0.3950195-0.5063477-0.7363281-0.9121094c-0.671875,1.2265625-1.6054688,1.840332-2.7998047,1.840332
			c-0.7255859,0-1.3334961-0.2138672-1.8242188-0.6401367s-0.7358398-0.9760742-0.7358398-1.6479492
			s0.234375-1.2104492,0.7041016-1.6162109c0.4692383-0.4052734,1.1040039-0.6132813,1.9038086-0.6240234
			c0.8105469,0,1.5571289,0.2563477,2.2402344,0.7680664c0.0742188-0.4477539,0.1118164-1.0078125,0.1118164-1.6796875
			c0-0.9814453-0.2719727-1.8344727-0.815918-2.5600586s-1.2856445-1.253418-2.2241211-1.5839844
			c-1.0454102,2.9545898-2.1547852,5.1894531-3.328125,6.7036133c-1.1733398,1.5151367-2.234375,2.2773438-3.1835938,2.2880859
			c-0.7363281-0.0107422-1.3603516-0.3676758-1.8720703-1.0717773c-0.512207-0.7041016-0.7734375-1.6801758-0.7841797-2.9282227
			c0-1.0239258,0.21875-1.9677734,0.65625-2.8320313c0.4370117-0.8637695,1.0556641-1.5942383,1.855957-2.1918945
			C168.0600586,52.9145508,167.809082,51.8798828,167.6069336,50.9199219z M170.3745117,60.6000977
			c-0.6186523-1.7705078-1.1835938-3.5678711-1.6958008-5.3920898c-1.1416016,1.0029297-1.7119141,2.2827148-1.7119141,3.8398438
			c0,0.8642578,0.1542969,1.5522461,0.4638672,2.0639648c0.3095703,0.512207,0.6665039,0.7680664,1.0722656,0.7680664
			C169.0361328,61.8798828,169.6601563,61.4536133,170.3745117,60.6000977z M171.1425781,59.5600586
			c0.9814453-1.472168,1.9042969-3.3974609,2.7680664-5.7758789c-0.2666016-0.0424805-0.5917969-0.0639648-0.9760742-0.0639648
			c-1.2587891,0-2.3676758,0.2719727-3.3276367,0.815918C170.0439453,56.1469727,170.5561523,57.8212891,171.1425781,59.5600586z
			 M177.6708984,60.9838867c-0.6298828-0.5756836-1.3017578-0.8637695-2.0161133-0.8637695
			c-0.4589844,0-0.8217773,0.1171875-1.0878906,0.3520508c-0.2670898,0.234375-0.4003906,0.527832-0.4003906,0.8798828
			c-0.0107422,0.3735352,0.1225586,0.6772461,0.4003906,0.9121094c0.2773438,0.234375,0.6396484,0.3574219,1.0878906,0.3676758
			C176.5932617,62.6318359,177.2651367,62.0825195,177.6708984,60.9838867z"/>
		<path fill="#727171" d="M190.5986328,62.4399414c1.8242188-0.4262695,2.7363281-1.5039063,2.7363281-3.2319336
			c0-0.8852539-0.3041992-1.5463867-0.9121094-1.9838867s-1.5576172-0.65625-2.8481445-0.65625
			c-2.1655273,0-4.4213867,0.6616211-6.7680664,1.9838867l-0.4638672-0.8637695l8.6401367-5.4560547v-0.0317383h-7.4882813
			v-1.0400391h9.6479492l0.0639648,1.0556641l-6.2719727,3.7919922l0.0161133,0.0161133
			c1.0664063-0.2880859,2.0639648-0.4321289,2.9921875-0.4321289c3.1357422,0,4.7041016,1.1630859,4.7041016,3.4882813
			c-0.0107422,1.4829102-0.5390625,2.6186523-1.5839844,3.4077148c-1.0458984,0.7895508-2.5551758,1.1894531-4.5283203,1.2001953
			c-3.0185547,0-4.527832-0.8530273-4.527832-2.5600586c0-0.6186523,0.3037109-1.1464844,0.9121094-1.5839844
			c0.6079102-0.4370117,1.4770508-0.6557617,2.6079102-0.6557617c2.2397461,0,3.3598633,0.7675781,3.3598633,2.3037109
			C190.8867188,61.5654297,190.7905273,61.9814453,190.5986328,62.4399414z M189.3828125,62.6162109
			c0.2666016-0.5014648,0.3999023-0.9443359,0.3999023-1.328125c0-0.9174805-0.7734375-1.3759766-2.3198242-1.3759766
			c-0.7255859,0.0107422-1.2802734,0.1333008-1.6640625,0.3676758c-0.3842773,0.2348633-0.5761719,0.5175781-0.5761719,0.8481445
			c0,0.4589844,0.2773438,0.8266602,0.8320313,1.1040039s1.3813477,0.4160156,2.4799805,0.4160156
			C188.7373047,62.6479492,189.0200195,62.6376953,189.3828125,62.6162109z"/>
		<path fill="#727171" d="M209.9589844,63.3198242c-1.2695313,0.2133789-2.6083984,0.3203125-4.0161133,0.3203125
			c-1.9521484,0-3.3657227-0.2241211-4.2402344-0.6723633c-0.8745117-0.4477539-1.3066406-1.1679688-1.2958984-2.159668
			c0-1.6962891,1.6054688-2.9975586,4.815918-3.9042969c-0.1494141-0.4902344-0.3520508-0.8320313-0.6079102-1.0239258
			s-0.5761719-0.2880859-0.9599609-0.2880859c-0.6401367,0-1.3657227,0.3095703-2.1762695,0.9282227
			s-1.6210938,1.5092773-2.4316406,2.671875l-0.9760742-0.6240234c1.3120117-1.8237305,2.3837891-3.6689453,3.2158203-5.5356445
			h-3.1201172v-1.0244141h3.5522461c0.2451172-0.597168,0.4853516-1.2480469,0.7202148-1.9516602l1.1518555,0.2719727
			c-0.2133789,0.5654297-0.4267578,1.1254883-0.6401367,1.6796875h6.9438477v1.0244141h-7.3759766
			c-0.3520508,0.7998047-0.7412109,1.6264648-1.1679688,2.4799805l0.0161133,0.015625
			c0.9282227-0.6396484,1.7602539-0.9599609,2.4960938-0.9599609c1.2583008,0,2.0961914,0.6831055,2.5117188,2.0483398
			c1.0776367-0.2456055,2.2988281-0.4536133,3.6640625-0.6240234l0.1123047,1.0400391
			c-1.4506836,0.1918945-2.6347656,0.3945313-3.5522461,0.6079102c0.1386719,0.7998047,0.2080078,1.8398438,0.2080078,3.1196289
			h-1.2319336c0-1.1518555-0.0478516-2.090332-0.144043-2.815918c-2.5385742,0.7363281-3.8081055,1.6586914-3.8081055,2.7680664
			c0,0.2880859,0.0532227,0.5336914,0.1601563,0.7363281c0.1064453,0.2026367,0.3041992,0.3999023,0.5917969,0.5917969
			c0.2880859,0.1918945,0.730957,0.3305664,1.328125,0.4160156c0.597168,0.0957031,1.3442383,0.144043,2.2402344,0.144043
			c1.184082,0,2.4853516-0.1171875,3.9038086-0.3520508L209.9589844,63.3198242z"/>
		<path fill="#727171" d="M22.5668945,73.6801758v-1.0883789H35.206543v1.0883789
			c-0.3198242,1.1411133-0.8637695,2.1704102-1.6318359,3.0878906s-1.706543,1.6425781-2.815918,2.1757813l-0.6401367-0.9916992
			c1.9521484-0.9707031,3.2104492-2.3945313,3.7758789-4.2719727H22.5668945z M27.2866211,75.2001953h1.2163086
			c0,2.7304688-0.3364258,4.7944336-1.0083008,6.1918945s-1.8188477,2.4428711-3.4399414,3.1357422l-0.5761719-1.0239258
			c1.3974609-0.5864258,2.3842773-1.4985352,2.9604492-2.7358398
			C27.0146484,79.5307617,27.2973633,77.6748047,27.2866211,75.2001953z"/>
		<path fill="#727171" d="M48.3266602,72.4799805c0-0.5546875,0.2026367-1.034668,0.6079102-1.4399414
			s0.8852539-0.6079102,1.4399414-0.6079102s1.034668,0.2026367,1.4404297,0.6079102
			c0.4052734,0.4052734,0.6079102,0.8852539,0.6079102,1.4399414s-0.2026367,1.034668-0.6079102,1.4399414
			c-0.4057617,0.4057617-0.8857422,0.6079102-1.4404297,0.6079102c-0.1494141,0-0.2558594-0.0048828-0.3198242-0.015625
			c-0.2026367,3.0825195-1.1308594,5.4345703-2.7841797,7.0556641c-1.6533203,1.621582-4.1171875,2.6079102-7.3916016,2.9599609
			l-0.2080078-1.1357422c3.0400391-0.3413086,5.2905273-1.2480469,6.7519531-2.7202148
			c1.4609375-1.4716797,2.2558594-3.6689453,2.3837891-6.5917969H38.2148438v-1.1679688h10.144043
			C48.3374023,72.815918,48.3266602,72.671875,48.3266602,72.4799805z M51.190918,73.2958984
			c0.2236328-0.2241211,0.3359375-0.4960938,0.3359375-0.815918s-0.1123047-0.5917969-0.3359375-0.815918
			c-0.2241211-0.2241211-0.4960938-0.3359375-0.8164063-0.3359375c-0.3198242,0-0.5917969,0.1118164-0.815918,0.3359375
			c-0.2236328,0.2241211-0.3359375,0.4960938-0.3359375,0.815918s0.1123047,0.5917969,0.3359375,0.815918
			c0.2241211,0.2241211,0.4960938,0.3359375,0.815918,0.3359375C50.6948242,73.6318359,50.9667969,73.5200195,51.190918,73.2958984z
			"/>
		<path fill="#727171" d="M55.7827148,79.1518555v-7.0400391h1.2802734v7.0400391H55.7827148z M64.1347656,72.1118164h1.3120117
			v4.0961914c0,2.6879883-0.6079102,4.6987305-1.8242188,6.0322266c-1.2158203,1.3334961-3.199707,2.1860352-5.9516602,2.5595703
			l-0.2719727-1.1679688c2.4848633-0.3730469,4.2290039-1.1040039,5.2319336-2.1918945
			c1.0024414-1.0878906,1.5039063-2.8212891,1.5039063-5.199707V72.1118164z"/>
		<path fill="#727171" d="M83.4467773,73.8081055v1.1201172h-4.0639648c-0.0107422,2.9013672-0.527832,5.109375-1.5522461,6.6235352
			c-1.0239258,1.5151367-2.6503906,2.4907227-4.8798828,2.9282227l-0.3359375-1.0878906
			c1.9624023-0.4052734,3.3706055-1.2587891,4.2241211-2.5600586c0.8530273-1.3012695,1.2851563-3.269043,1.2958984-5.9038086
			h-5.184082c-0.5332031,1.4824219-1.328125,2.815918-2.3837891,4l-0.9599609-0.65625
			c1.6210938-1.8774414,2.5864258-4.1650391,2.8959961-6.8637695l1.199707,0.0639648
			c-0.0854492,0.8427734-0.21875,1.6210938-0.3999023,2.3359375H83.4467773z"/>
		<path fill="#727171" d="M86.1025391,78.8481445v-1.2163086h13.0244141v1.2163086H86.1025391z"/>
		<path fill="#727171" d="M102.6787109,77.0878906l0.2241211-1.1357422c1.8662109,0.3198242,3.6000977,0.6455078,5.199707,0.9760742
			l-0.2236328,1.1518555C105.3398438,77.5786133,103.6069336,77.2480469,102.6787109,77.0878906z M103.3188477,83.3120117
			c3.4023438-0.309082,5.925293-1.1572266,7.5678711-2.5439453s2.7358398-3.6054688,3.2797852-6.65625l1.168457,0.1923828
			c-0.5976563,3.3066406-1.8134766,5.7495117-3.6484375,7.3276367c-1.8344727,1.5791016-4.5595703,2.5283203-8.1757813,2.8481445
			L103.3188477,83.3120117z M103.3666992,73.1518555L103.5908203,72c1.855957,0.2988281,3.6689453,0.6293945,5.4399414,0.9921875
			l-0.2241211,1.1357422C107.3027344,73.8188477,105.4892578,73.4936523,103.3666992,73.1518555z"/>
		<path fill="#727171" d="M119.8466797,75.0239258h9.3442383v8.9921875h-9.3442383v-1.0561523h8.0961914v-3.2319336h-7.472168
			v-1.0400391h7.472168v-2.6079102h-8.0961914V75.0239258z"/>
		<path fill="#727171" d="M134.9667969,73.4238281l0.5761719-1.0878906
			c1.7060547,0.8535156,3.3383789,1.7602539,4.8959961,2.7202148l-0.6240234,1.0878906
			C138.3427734,75.2265625,136.7265625,74.3198242,134.9667969,73.4238281z M147.3349609,74.0478516
			c-1.0776367,6.144043-5.019043,9.5151367-11.8242188,10.1123047l-0.1918945-1.2001953
			c3.125-0.2880859,5.5839844-1.1894531,7.3759766-2.7041016c1.7919922-1.5141602,2.9492188-3.6689453,3.4716797-6.4638672
			L147.3349609,74.0478516z"/>
		<path fill="#727171" d="M34.4545898,105H22.7749023V93.3198242h11.6796875V105z M23.5268555,94.0717773v10.1762695h10.1757813
			V94.0717773H23.5268555z"/>
		<path fill="#727171" d="M43.9746094,99.3681641h1.2802734v1.34375h6.2397461v1.0400391h-5.6796875
			c1.418457,1.2265625,3.4663086,2.3413086,6.144043,3.3442383l-0.4482422,1.0400391
			c-2.7094727-1.0776367-4.7949219-2.2666016-6.2558594-3.5683594v3.8242188h-1.2802734v-3.8242188
			c-1.4614258,1.3017578-3.5463867,2.4907227-6.2558594,3.5683594l-0.4482422-1.0400391
			c2.6772461-1.0029297,4.7255859-2.1176758,6.144043-3.3442383h-5.6796875v-1.0400391h6.2397461V99.3681641z
			 M45.1748047,95.0800781v0.9916992h-2.4960938c1.2158203,0.9819336,2.1118164,1.7124023,2.6879883,2.1923828l-0.9121094,0.7836914
			c-1.1303711-1.1088867-1.9731445-1.9199219-2.527832-2.4316406v3.3120117h-1.1201172v-3.184082
			c-0.6616211,1.109375-1.5786133,2.0908203-2.7519531,2.9438477l-0.671875-1.0561523
			c1.2583008-0.8212891,2.1865234-1.6743164,2.7836914-2.5600586h-2.5117188v-0.9916992h3.1201172v-1.3120117
			c-0.9282227,0.0957031-1.8510742,0.1757813-2.7680664,0.2397461l-0.1123047-0.9755859
			c2.21875-0.1494141,4.5014648-0.4267578,6.8481445-0.8320313l0.3041992,0.9599609
			c-0.9174805,0.159668-1.9521484,0.3198242-3.1040039,0.4799805v1.4399414H45.1748047z M46.0546875,97.8320313v-5.0722656
			h1.2001953v5.0722656H46.0546875z M50.0068359,92.3598633h1.2158203v5.6479492
			c0,0.8217773-0.1015625,1.3388672-0.3037109,1.5522461c-0.203125,0.2133789-0.6938477,0.3198242-1.472168,0.3198242
			c-0.3837891,0-1.0722656-0.0263672-2.0639648-0.0800781l-0.0478516-1.0078125
			c0.9169922,0.0537109,1.5463867,0.0800781,1.8876953,0.0800781c0.3735352,0.0107422,0.597168-0.0263672,0.671875-0.1123047
			c0.074707-0.0849609,0.1123047-0.309082,0.1123047-0.671875V92.3598633z"/>
		<path fill="#727171" d="M66.4545898,105H54.7749023V93.3198242h11.6796875V105z M55.5268555,94.0717773v10.1762695h10.1757813
			V94.0717773H55.5268555z"/>
		<path fill="#727171" d="M75.7827148,105.3041992l-1.0078125,0.2080078
			c-0.1279297-0.8535156-0.3520508-1.8564453-0.6723633-3.0083008l0.9282227-0.2080078
			c-0.0537109-0.1704102-0.1118164-0.3461914-0.1757813-0.527832l-1.4882813,0.0800781v4.5917969h-1.2001953v-4.527832
			l-2.671875,0.159668L69.4628906,101l1.0878906-0.0478516c0.4262695-0.3842773,0.7412109-0.6772461,0.9438477-0.8803711
			c-0.7041016-0.7783203-1.3598633-1.4716797-1.9677734-2.0795898l0.671875-0.9443359
			c0.2983398,0.2988281,0.527832,0.5336914,0.6879883,0.7041016c0.5014648-0.5864258,1.0078125-1.2641602,1.5200195-2.0317383
			l1.0078125,0.5117188c-0.5654297,0.8320313-1.1625977,1.6054688-1.7919922,2.3198242
			c0.2988281,0.3417969,0.5175781,0.5869141,0.65625,0.7363281c0.7998047-0.8320313,1.5517578-1.6962891,2.2558594-2.5922852
			l0.9921875,0.5761719c-0.949707,1.1948242-2.0483398,2.3896484-3.2958984,3.5839844l2.2397461-0.1118164
			c-0.1176758-0.2773438-0.2988281-0.6772461-0.5439453-1.2001953l0.9282227-0.3837891
			c0.4692383,0.9067383,0.8530273,1.8720703,1.1518555,2.8959961l-0.8798828,0.3198242
			C75.4145508,103.3466797,75.6333008,104.3227539,75.7827148,105.3041992z M69.5268555,105.671875
			c0.4160156-1.0664063,0.6879883-2.1489258,0.815918-3.2480469l1.0239258,0.1279297
			c-0.1069336,1.1098633-0.3837891,2.2299805-0.8320313,3.3603516L69.5268555,105.671875z M71.3349609,95.5917969h-1.2324219
			v-3.1835938h13.0244141v3.1835938H71.3349609z M74.0229492,94.6640625v-1.2958984h-2.6879883v1.2958984H74.0229492z
			 M75.8789063,100.2641602l-0.815918-0.9760742c0.8959961-1.034668,1.6264648-2.2241211,2.1918945-3.5678711l1.1196289,0.3676758
			c-0.1704102,0.4482422-0.3574219,0.8696289-0.5595703,1.2641602h2.3676758
			c0.3305664-0.512207,0.6186523-1.0561523,0.8642578-1.6318359l1.1357422,0.3676758
			c-0.2348633,0.5229492-0.4536133,0.9443359-0.6557617,1.2641602h2.1279297v0.9599609H81.206543v1.487793h2.1762695v0.9443359
			H81.206543v1.5356445h2.1762695v0.9443359H81.206543v1.5839844h2.6879883v1.0239258h-6.2875977v0.6079102h-1.2001953v-6.7998047
			L75.8789063,100.2641602z M78.0546875,94.6640625v-1.2958984h-2.8798828v1.2958984H78.0546875z M80.0546875,99.7998047v-1.487793
			h-2.4477539v1.487793H80.0546875z M80.0546875,102.2797852v-1.5356445h-2.4477539v1.5356445H80.0546875z M80.0546875,103.2241211
			h-2.4477539v1.5839844h2.4477539V103.2241211z M79.206543,94.6640625h2.6879883v-1.2958984H79.206543V94.6640625z"/>
		<path fill="#727171" d="M85.4145508,100.1040039c2.4003906-1.3012695,4.5444336-2.8530273,6.4321289-4.6557617h1.5361328
			c1.8876953,1.8027344,4.0317383,3.3544922,6.4321289,4.6557617l-0.5444336,1.0400391
			c-0.6079102-0.3305664-1.1196289-0.6240234-1.5356445-0.8798828v6.0639648h-1.2480469v-0.8481445h-7.7441406v0.8481445h-1.2480469
			v-6.0639648c-0.4160156,0.2558594-0.9277344,0.5493164-1.5356445,0.8798828L85.4145508,100.1040039z M85.5429688,96.0561523
			c1.8876953-1.0454102,3.3808594-2.2773438,4.4799805-3.6962891l0.8637695,0.7041016
			c-1.1308594,1.5361328-2.7148438,2.8535156-4.7519531,3.9521484L85.5429688,96.0561523z M88.3105469,99.7519531h8.6083984
			c-1.5361328-1.0131836-2.9711914-2.1704102-4.3041992-3.472168C91.28125,97.581543,89.8466797,98.7387695,88.3105469,99.7519531z
			 M96.4868164,104.472168v-3.6801758h-7.7441406v3.6801758H96.4868164z M98.6948242,96.9677734
			c-1.3974609-1.3759766-2.9545898-2.6611328-4.671875-3.855957l0.7036133-0.8959961
			c1.7919922,1.237793,3.3706055,2.5390625,4.7363281,3.9042969L98.6948242,96.9677734z"/>
		<path fill="#727171" d="M130.4545898,105h-11.6796875V93.3198242h11.6796875V105z M119.5268555,94.0717773v10.1762695h10.1757813
			V94.0717773H119.5268555z"/>
		<path fill="#727171" d="M139.9746094,92.0878906h1.2802734v3.5839844c0,2.0908203,0.5625,3.9599609,1.6879883,5.6079102
			c1.125,1.6484375,2.7119141,2.9521484,4.7597656,3.9121094l-0.6557617,0.9760742
			c-1.5039063-0.6826172-2.815918-1.6401367-3.9360352-2.8720703s-1.9360352-2.6103516-2.4482422-4.1357422
			c-0.5224609,1.5253906-1.3520508,2.9038086-2.487793,4.1357422c-1.1362305,1.2319336-2.4667969,2.1894531-3.9921875,2.8720703
			l-0.6557617-0.9760742c2.0478516-0.9599609,3.6342773-2.2636719,4.7597656-3.9121094
			c1.1254883-1.6479492,1.6879883-3.5170898,1.6879883-5.6079102V92.0878906z M137.190918,94.8242188
			c-0.3735352,2.090332-1.0776367,3.9306641-2.1123047,5.5200195l-1.0078125-0.5283203
			c0.9921875-1.5361328,1.6533203-3.2797852,1.9838867-5.2319336L137.190918,94.8242188z M146.0546875,94.3120117
			l1.1201172,0.2880859c-0.512207,1.9946289-1.3549805,3.7495117-2.527832,5.2636719l-0.9760742-0.6079102
			C144.7797852,97.8374023,145.574707,96.1894531,146.0546875,94.3120117z"/>
		<path fill="#727171" d="M151.0629883,104.8720703v1.4077148h-1.168457v-7.7119141h2.4003906V95.527832h-2.9921875v-1.0878906
			h2.9921875v-2.3520508h1.2319336v2.3520508h2.9277344v1.0878906h-2.9277344v3.0400391h2.3999023v6.3041992H151.0629883z
			 M151.0629883,103.8320313h3.7436523v-4.1918945h-3.7436523V103.8320313z M161.8945313,106.1679688
			c-0.3413086,0-1.0878906-0.0268555-2.2397461-0.0800781L159.6069336,105
			c0.9384766,0.0532227,1.5517578,0.0800781,1.8398438,0.0800781c0.3413086,0.0102539,0.5439453-0.0268555,0.6079102-0.1123047
			c0.0639648-0.0849609,0.090332-0.3569336,0.0800781-0.815918v-2.8637695h-3.855957
			c-0.2133789,1.9946289-0.800293,3.6694336-1.7602539,5.0239258l-0.9277344-0.7041016
			c0.6186523-0.8959961,1.0454102-1.8720703,1.2797852-2.9277344c0.2348633-1.0561523,0.3520508-2.5068359,0.3520508-4.3520508
			v-5.8081055h6.1123047v11.6318359c0,0.9282227-0.0751953,1.4985352-0.2241211,1.7119141
			C162.9614258,106.0771484,162.5561523,106.1787109,161.8945313,106.1679688z M158.4067383,97.3198242v1.472168
			c0,0.512207-0.0161133,0.9975586-0.0478516,1.4560547h3.7758789v-2.9282227H158.4067383z M158.4067383,96.2797852h3.7280273
			v-2.6879883h-3.7280273V96.2797852z"/>
		<path fill="#727171" d="M178.4545898,105h-11.6796875V93.3198242h11.6796875V105z M167.5268555,94.0717773v10.1762695h10.1757813
			V94.0717773H167.5268555z"/>
	</g>
</g>
<linearGradient id="SVGID_3_" gradientUnits="userSpaceOnUse" x1="101" y1="184.4501953" x2="101" y2="136.0869904">
	<stop  offset="0" style="stop-color:#FFFFFF;stop-opacity:0"/>
	<stop  offset="1" style="stop-color:#000000;stop-opacity:0.5"/>
</linearGradient>
<polygon fill="url(#SVGID_3_)" points="6,165.5 196,165.5 196,179 "/>
<g>
	<path fill="#B5B5B6" d="M22.4501953,120.8935547h6.4257813v0.6298828h-2.8530273v4.8061523h3.1230469v0.6298828h-6.9658203
		v-0.6298828h3.1230469v-4.8061523h-2.8530273V120.8935547z"/>
	<path fill="#B5B5B6" d="M36.0668945,123.6113281l0.6303711-0.296875c0.7016602,1.355957,1.3256836,2.625,1.871582,3.8071289
		l-0.6479492,0.2788086c-0.0419922-0.0957031-0.1137695-0.2490234-0.2158203-0.4589844
		c-0.0898438-0.1918945-0.15625-0.3359375-0.1977539-0.4321289c-2.4003906,0.3662109-4.6230469,0.5854492-6.6694336,0.6572266
		l-0.0175781-0.6298828c0.2036133-0.0058594,0.5219727-0.0209961,0.9536133-0.0449219
		c0.75-1.9379883,1.3740234-3.9780273,1.8720703-6.1201172l0.7021484,0.1347656
		c-0.4741211,2.0644531-1.0712891,4.0410156-1.7910156,5.9311523c1.5058594-0.1079102,3.0600586-0.2817383,4.6621094-0.5219727
		C36.7451172,124.9433594,36.3608398,124.1757813,36.0668945,123.6113281z"/>
	<path fill="#B5B5B6" d="M46.4892578,119.5166016c0.5039063,0,0.9145508,0.1948242,1.2329102,0.5849609
		c0.2338867,0.2939453,0.3510742,0.6269531,0.3510742,0.9990234c0,0.5039063-0.1953125,0.9121094-0.5849609,1.2241211
		c-0.2519531,0.1977539-0.5371094,0.3120117-0.8549805,0.3417969c-0.3183594,2.0517578-1.3535156,3.4467773-3.1049805,4.1850586
		c-0.7202148,0.3061523-1.5634766,0.5097656-2.5292969,0.6118164l-0.1166992-0.6386719
		c2.027832-0.222168,3.4379883-0.90625,4.2299805-2.0522461c0.4077148-0.59375,0.6806641-1.3291016,0.8188477-2.2050781
		c-0.4262695-0.1621094-0.7231445-0.4467773-0.8911133-0.8549805c-0.0180664-0.0478516-0.0332031-0.0898438-0.0449219-0.1259766
		h-4.9321289v-0.6567383h4.8598633c0.0483398-0.4863281,0.2763672-0.8671875,0.684082-1.1430664
		C45.8769531,119.6064453,46.1708984,119.5166016,46.4892578,119.5166016z M46.4892578,122.1625977
		c0.3779297,0,0.671875-0.1533203,0.8818359-0.4589844c0.1259766-0.1860352,0.1889648-0.387207,0.1889648-0.6030273
		c0-0.3779297-0.15625-0.671875-0.4677734-0.8823242c-0.1860352-0.1259766-0.387207-0.1889648-0.6030273-0.1889648
		c-0.3779297,0-0.6723633,0.15625-0.8823242,0.4682617c-0.1201172,0.1860352-0.1796875,0.3867188-0.1796875,0.6030273
		c0,0.3837891,0.1557617,0.6782227,0.4677734,0.8818359C46.0751953,122.1025391,46.2729492,122.1625977,46.4892578,122.1625977z"/>
	<path fill="#B5B5B6" d="M49.1533203,122.918457h6.9477539v0.152832c0,2.7124023-1.8417969,4.1972656-5.5258789,4.4550781H50.565918
		h-0.0087891l-0.1079102-0.6298828c3.0600586-0.2216797,4.7006836-1.3378906,4.9228516-3.3481445h-6.21875V122.918457z
		 M49.8461914,121.253418v-0.6298828h5.6337891v0.6298828H49.8461914z"/>
	<path fill="#B5B5B6" d="M58.8730469,121.3613281v-0.6479492h5.5800781v0.6479492
		c-0.4262695,1.0322266-1.0742188,2.0131836-1.9438477,2.9433594c0.8696289,0.8100586,1.7636719,1.6918945,2.6816406,2.6459961
		l-0.4858398,0.4677734c-0.8759766-0.9238281-1.7641602-1.8056641-2.6640625-2.6459961
		c-1.0200195,0.9780273-2.2319336,1.8242188-3.6357422,2.5380859l-0.3061523-0.5761719
		c2.0878906-1.0800781,3.684082-2.402832,4.7880859-3.96875c0.3237305-0.4619141,0.59375-0.9301758,0.8100586-1.4042969H58.8730469z
		"/>
	<path fill="#B5B5B6" d="M76.3330078,120.8393555h6.6870117v0.144043c0,2.4599609-0.7319336,4.2001953-2.1958008,5.2202148
		c-0.8881836,0.6181641-2.0732422,1.0078125-3.5551758,1.1699219l-0.1171875-0.6391602
		c2.0039063-0.2216797,3.4052734-0.8911133,4.203125-2.0068359c0.5639648-0.8041992,0.8759766-1.8808594,0.9360352-3.230957
		h-5.9580078V120.8393555z"/>
	<path fill="#B5B5B6" d="M85.7919922,122.6396484h3.6542969v-1.1342773h0.6386719v1.1342773h1.5932617v0.5756836h-1.5932617
		v3.1860352c0,0.4321289-0.0629883,0.7050781-0.1889648,0.8193359c-0.1201172,0.1015625-0.3837891,0.152832-0.7919922,0.152832
		c-0.3779297,0-0.7827148-0.0239258-1.2148438-0.0722656l0.0449219-0.5849609
		c0.4741211,0.0483398,0.8461914,0.0722656,1.1162109,0.0722656c0.2036133,0,0.3237305-0.0361328,0.3598633-0.1079102
		c0.0239258-0.0600586,0.0361328-0.15625,0.0361328-0.2880859v-2.4931641
		c-1.0380859,1.0620117-2.1542969,1.9350586-3.3481445,2.6191406l-0.296875-0.5219727
		c1.2416992-0.7021484,2.3876953-1.6108398,3.4379883-2.7270508c0.0180664-0.0239258,0.0327148-0.0419922,0.0449219-0.0541992
		h-3.4921875V122.6396484z"/>
	<path fill="#B5B5B6" d="M94.4863281,121.2172852l0.3237305-0.6118164c0.9599609,0.4799805,1.8779297,0.9902344,2.7539063,1.5302734
		l-0.3510742,0.6118164C96.3789063,122.2314453,95.4702148,121.7216797,94.4863281,121.2172852z M101.4428711,121.5683594
		c-0.6176758,3.4560547-2.8349609,5.3520508-6.6508789,5.6879883l-0.1079102-0.6748047
		c2.8798828-0.2641602,4.7641602-1.4702148,5.6518555-3.6181641c0.1918945-0.4736328,0.3422852-0.9868164,0.4501953-1.5390625
		L101.4428711,121.5683594z"/>
	<path fill="#B5B5B6" d="M105.1601563,120.2636719v2.6279297c1.6557617,0.3959961,3.3330078,0.9121094,5.0307617,1.5478516
		l-0.2158203,0.6572266c-1.7041016-0.6362305-3.309082-1.137207-4.8149414-1.503418v3.9960938h-0.7202148v-7.3256836H105.1601563z"
		/>
</g>
<g>
	<g>
		<g>
			<path d="M32.6000977,137.4384766h-0.0371094l-2.3564453,5.1547852H27.371582l-2.3569336-5.1547852h-0.0366211v8.2294922
				h-2.9638672v-13.4399414h3.203125l3.5532227,7.9169922h0.0371094l3.5532227-7.9169922h3.2768555v13.4399414h-3.0375977
				V137.4384766z"/>
			<path d="M55.612793,132.2280273h8.4135742v2.5224609h-5.2841797v3.0561523h4.9160156v2.3564453h-4.9160156v5.5048828H55.612793
				V132.2280273z"/>
			<path d="M67.5698242,133.9038086c1.2333984-1.2397461,2.887207-1.8598633,4.9619141-1.8598633
				c2.0737305,0,3.7280273,0.6201172,4.9614258,1.8598633s1.8500977,2.9208984,1.8500977,5.0444336
				s-0.6166992,3.8046875-1.8500977,5.0444336s-2.8876953,1.859375-4.9614258,1.859375
				c-2.074707,0-3.7285156-0.6196289-4.9619141-1.859375s-1.8500977-2.9208984-1.8500977-5.0444336
				S66.3364258,135.1435547,67.5698242,133.9038086z M69.8710938,142.1699219
				c0.6323242,0.7363281,1.519043,1.1044922,2.6606445,1.1044922c1.1411133,0,2.027832-0.3681641,2.6601563-1.1044922
				c0.6318359-0.7363281,0.9482422-1.8100586,0.9482422-3.2216797s-0.3164063-2.4853516-0.9482422-3.222168
				c-0.6323242-0.7363281-1.519043-1.1044922-2.6601563-1.1044922c-1.1416016,0-2.0283203,0.3681641-2.6606445,1.1044922
				c-0.6323242,0.7368164-0.9482422,1.8105469-0.9482422,3.222168S69.2387695,141.4335938,69.8710938,142.1699219z"/>
			<path d="M81.3134766,145.6679688v-13.4399414h3.0561523l4.7866211,8.2480469h0.0366211v-8.2480469h3.0561523v13.4399414
				h-3.0561523l-4.7866211-8.2480469h-0.0366211v8.2480469H81.3134766z"/>
			<path d="M105.2651367,132.2280273v2.5961914h-3.7373047v10.84375h-3.2036133v-10.84375h-3.7373047v-2.5961914H105.2651367z"/>
			<path d="M116.0170898,135.3579102c-1.1665039-0.5766602-2.3935547-0.8652344-3.6821289-0.8652344
				c-0.6386719,0-1.1230469,0.1230469-1.4545898,0.3681641c-0.331543,0.2456055-0.4970703,0.5771484-0.4970703,0.9941406
				c0,0.6875,0.515625,1.1782227,1.5463867,1.4731445c1.8286133,0.503418,3.1142578,1.1044922,3.8569336,1.8041992
				s1.1137695,1.6015625,1.1137695,2.7060547c0,1.3012695-0.4414063,2.2954102-1.3251953,2.9829102
				s-2.190918,1.0307617-3.9213867,1.0307617c-0.7734375,0-1.5776367-0.1196289-2.4121094-0.3588867
				s-1.5341797-0.5493164-2.0986328-0.9296875l0.7363281-2.4487305c1.2519531,0.859375,2.5527344,1.2885742,3.9033203,1.2885742
				c0.6376953,0,1.1196289-0.1318359,1.4448242-0.3955078c0.3251953-0.2641602,0.4882813-0.6352539,0.4882813-1.1137695
				c0-0.3930664-0.1323242-0.7119141-0.3959961-0.9575195c-0.2641602-0.2456055-0.7270508-0.4663086-1.3901367-0.6630859
				c-1.6816406-0.4907227-2.8876953-1.0888672-3.6176758-1.7949219c-0.7304688-0.7055664-1.0952148-1.5800781-1.0952148-2.6235352
				c0-1.1655273,0.4355469-2.0922852,1.3071289-2.7797852c0.8710938-0.6875,2.0986328-1.03125,3.6821289-1.03125
				c1.6938477,0,3.1601563,0.2949219,4.3999023,0.8837891L116.0170898,135.3579102z"/>
		</g>
		<g>
			<path d="M43.4003906,128.2250977v4.1606445h4.2163086v2.3569336h-4.2163086v4.1606445h-2.5039063v-4.1606445h-4.2158203
				v-2.3569336h4.2158203v-4.1606445H43.4003906z"/>
		</g>
	</g>
	<g>
		<g>
			<path fill="#898989" d="M32.6000977,137.4384766h-0.0371094l-2.3564453,5.1547852H27.371582l-2.3569336-5.1547852h-0.0366211
				v8.2294922h-2.9638672v-13.4399414h3.203125l3.5532227,7.9169922h0.0371094l3.5532227-7.9169922h3.2768555v13.4399414h-3.0375977
				V137.4384766z"/>
			<path fill="#898989" d="M55.612793,132.2280273h8.4135742v2.5224609h-5.2841797v3.0561523h4.9160156v2.3564453h-4.9160156
				v5.5048828H55.612793V132.2280273z"/>
			<path fill="#898989" d="M67.5698242,133.9038086c1.2333984-1.2397461,2.887207-1.8598633,4.9619141-1.8598633
				c2.0737305,0,3.7280273,0.6201172,4.9614258,1.8598633s1.8500977,2.9208984,1.8500977,5.0444336
				s-0.6166992,3.8046875-1.8500977,5.0444336s-2.8876953,1.859375-4.9614258,1.859375
				c-2.074707,0-3.7285156-0.6196289-4.9619141-1.859375s-1.8500977-2.9208984-1.8500977-5.0444336
				S66.3364258,135.1435547,67.5698242,133.9038086z M69.8710938,142.1699219
				c0.6323242,0.7363281,1.519043,1.1044922,2.6606445,1.1044922c1.1411133,0,2.027832-0.3681641,2.6601563-1.1044922
				c0.6318359-0.7363281,0.9482422-1.8100586,0.9482422-3.2216797s-0.3164063-2.4853516-0.9482422-3.222168
				c-0.6323242-0.7363281-1.519043-1.1044922-2.6601563-1.1044922c-1.1416016,0-2.0283203,0.3681641-2.6606445,1.1044922
				c-0.6323242,0.7368164-0.9482422,1.8105469-0.9482422,3.222168S69.2387695,141.4335938,69.8710938,142.1699219z"/>
			<path fill="#898989" d="M81.3134766,145.6679688v-13.4399414h3.0561523l4.7866211,8.2480469h0.0366211v-8.2480469h3.0561523
				v13.4399414h-3.0561523l-4.7866211-8.2480469h-0.0366211v8.2480469H81.3134766z"/>
			<path fill="#898989" d="M105.2651367,132.2280273v2.5961914h-3.7373047v10.84375h-3.2036133v-10.84375h-3.7373047v-2.5961914
				H105.2651367z"/>
			<path fill="#898989" d="M116.0170898,135.3579102c-1.1665039-0.5766602-2.3935547-0.8652344-3.6821289-0.8652344
				c-0.6386719,0-1.1230469,0.1230469-1.4545898,0.3681641c-0.331543,0.2456055-0.4970703,0.5771484-0.4970703,0.9941406
				c0,0.6875,0.515625,1.1782227,1.5463867,1.4731445c1.8286133,0.503418,3.1142578,1.1044922,3.8569336,1.8041992
				s1.1137695,1.6015625,1.1137695,2.7060547c0,1.3012695-0.4414063,2.2954102-1.3251953,2.9829102
				s-2.190918,1.0307617-3.9213867,1.0307617c-0.7734375,0-1.5776367-0.1196289-2.4121094-0.3588867
				s-1.5341797-0.5493164-2.0986328-0.9296875l0.7363281-2.4487305c1.2519531,0.859375,2.5527344,1.2885742,3.9033203,1.2885742
				c0.6376953,0,1.1196289-0.1318359,1.4448242-0.3955078c0.3251953-0.2641602,0.4882813-0.6352539,0.4882813-1.1137695
				c0-0.3930664-0.1323242-0.7119141-0.3959961-0.9575195c-0.2641602-0.2456055-0.7270508-0.4663086-1.3901367-0.6630859
				c-1.6816406-0.4907227-2.8876953-1.0888672-3.6176758-1.7949219c-0.7304688-0.7055664-1.0952148-1.5800781-1.0952148-2.6235352
				c0-1.1655273,0.4355469-2.0922852,1.3071289-2.7797852c0.8710938-0.6875,2.0986328-1.03125,3.6821289-1.03125
				c1.6938477,0,3.1601563,0.2949219,4.3999023,0.8837891L116.0170898,135.3579102z"/>
		</g>
		<g>
			<path fill="#898989" d="M43.4003906,128.2250977v4.1606445h4.2163086v2.3569336h-4.2163086v4.1606445h-2.5039063v-4.1606445
				h-4.2158203v-2.3569336h4.2158203v-4.1606445H43.4003906z"/>
		</g>
	</g>
</g>
</svg>
