<?xml version="1.0" encoding="utf-8"?>
<!-- Generator: Adobe Illustrator 16.0.3, SVG Export Plug-In . SVG Version: 6.00 Build 0)  -->
<!DOCTYPE svg PUBLIC "-//W3C//DTD SVG 1.1//EN" "http://www.w3.org/Graphics/SVG/1.1/DTD/svg11.dtd">
<svg version="1.1" id="レイヤー_2" xmlns="http://www.w3.org/2000/svg" xmlns:xlink="http://www.w3.org/1999/xlink" x="0px"
	 y="0px" width="202px" height="185px" viewBox="0 0 202 185" enable-background="new 0 0 202 185" xml:space="preserve">
<rect x="6" y="6" fill="none" stroke="#C9CACA" stroke-width="0.5" stroke-miterlimit="10" width="190" height="159.5"/>
<g>
	<defs>
		<rect id="SVGID_1_" x="20.6152344" y="23" width="140.8847656" height="100"/>
	</defs>
	<clipPath id="SVGID_2_">
		<use xlink:href="#SVGID_1_"  overflow="visible"/>
	</clipPath>
	<g clip-path="url(#SVGID_2_)">
		<path fill="#727171" d="M24.1850586,41.1875v-9.5703125c-0.4013672,0.2709961-0.9609375,0.5576172-1.6796875,0.859375V31.1875
			c0.8330078-0.3071289,1.5048828-0.7080078,2.015625-1.203125h0.9765625V41.1875H24.1850586z"/>
		<path fill="#727171" d="M30.8881836,38.59375c0.1298828,1.1616211,0.6796875,1.7421875,1.6484375,1.7421875
			c1.4375,0,2.1484375-1.5283203,2.1328125-4.5859375c-0.5991211,0.8803711-1.3515625,1.3203125-2.2578125,1.3203125
			c-1.0991211,0-1.921875-0.5126953-2.46875-1.5390625c-0.3076172-0.5986328-0.4609375-1.2915039-0.4609375-2.078125
			c0-1,0.2705078-1.8671875,0.8125-2.6015625c0.5830078-0.7915039,1.3305664-1.1875,2.2421875-1.1875
			c2.1977539,0,3.296875,1.8569336,3.296875,5.5703125c0,4.1826172-1.09375,6.2734375-3.28125,6.2734375
			c-1,0-1.7890625-0.4321289-2.3671875-1.296875c-0.296875-0.4477539-0.5-0.9868164-0.609375-1.6171875H30.8881836z
			 M32.5913086,30.765625c-1.2607422,0-1.890625,0.8857422-1.890625,2.65625c0,0.65625,0.1118164,1.2006836,0.3359375,1.6328125
			c0.3330078,0.640625,0.8515625,0.9609375,1.5546875,0.9609375c0.4477539,0,0.8461914-0.1977539,1.1953125-0.59375
			c0.4477539-0.5102539,0.671875-1.1767578,0.671875-2c0-0.8227539-0.1772461-1.4736328-0.53125-1.953125
			C33.5883789,31,33.1430664,30.765625,32.5913086,30.765625z"/>
		<path fill="#727171" d="M43.8647461,41.1875h-6.625c0.3173828-2.046875,1.3828125-3.8203125,3.1953125-5.3203125
			c0.7236328-0.5883789,1.2133789-1.0727539,1.46875-1.453125c0.3330078-0.4736328,0.5-1.0336914,0.5-1.6796875
			c0-0.5258789-0.1171875-0.953125-0.3515625-1.28125c-0.3022461-0.4580078-0.7553711-0.6875-1.359375-0.6875
			c-1.2294922,0-1.9013672,0.90625-2.015625,2.71875h-1.2578125c0.0625-1.0830078,0.3173828-1.9345703,0.765625-2.5546875
			c0.5883789-0.8330078,1.4345703-1.25,2.5390625-1.25c0.7705078,0,1.421875,0.2241211,1.953125,0.671875
			c0.671875,0.578125,1.0078125,1.3671875,1.0078125,2.3671875c0,1.3959961-0.7890625,2.6928711-2.3671875,3.890625
			C39.96875,37.6357422,39.1586914,38.765625,38.8881836,40h4.9765625V41.1875z"/>
		<path fill="#727171" d="M48.6147461,29.6640625c2.0727539,0,3.109375,1.9741211,3.109375,5.921875
			c0,3.9482422-1.0366211,5.921875-3.109375,5.921875c-2.0678711,0-3.1015625-1.9736328-3.1015625-5.921875
			C45.5131836,31.6381836,46.546875,29.6640625,48.6147461,29.6640625z M47.0522461,38.3671875l2.859375-6.5234375
			c-0.3022461-0.71875-0.7397461-1.078125-1.3125-1.078125c-1.1826172,0-1.7734375,1.6069336-1.7734375,4.8203125
			C46.8256836,36.6796875,46.9008789,37.6069336,47.0522461,38.3671875z M47.3178711,39.3125
			c0.2915039,0.7294922,0.7236328,1.09375,1.296875,1.09375c1.1977539,0,1.796875-1.6118164,1.796875-4.8359375
			c0-1.0673828-0.0756836-1.9868164-0.2265625-2.7578125L47.3178711,39.3125z"/>
		<path fill="#727171" d="M53.7944336,33.5859375h1.4609375l1.359375,2.4921875l1.359375-2.4921875h1.453125l-2.140625,3.40625
			l2.640625,4.1953125h-1.5546875l-1.7578125-3.15625l-1.7578125,3.15625h-1.5546875l2.640625-4.1953125L53.7944336,33.5859375z"/>
		<path fill="#727171" d="M64.1850586,41.1875v-9.5703125c-0.4013672,0.2709961-0.9609375,0.5576172-1.6796875,0.859375V31.1875
			c0.8330078-0.3071289,1.5048828-0.7080078,2.015625-1.203125h0.9765625V41.1875H64.1850586z"/>
		<path fill="#727171" d="M72.6147461,29.6640625c2.0727539,0,3.109375,1.9741211,3.109375,5.921875
			c0,3.9482422-1.0366211,5.921875-3.109375,5.921875c-2.0678711,0-3.1015625-1.9736328-3.1015625-5.921875
			C69.5131836,31.6381836,70.546875,29.6640625,72.6147461,29.6640625z M71.0522461,38.3671875l2.859375-6.5234375
			c-0.3022461-0.71875-0.7397461-1.078125-1.3125-1.078125c-1.1826172,0-1.7734375,1.6069336-1.7734375,4.8203125
			C70.8256836,36.6796875,70.9008789,37.6069336,71.0522461,38.3671875z M71.3178711,39.3125
			c0.2915039,0.7294922,0.7236328,1.09375,1.296875,1.09375c1.1977539,0,1.796875-1.6118164,1.796875-4.8359375
			c0-1.0673828-0.0756836-1.9868164-0.2265625-2.7578125L71.3178711,39.3125z"/>
		<path fill="#727171" d="M79.2397461,35.1484375c-1.078125-0.5258789-1.6171875-1.3671875-1.6171875-2.5234375
			c0-0.5571289,0.1328125-1.0649414,0.3984375-1.5234375c0.5625-0.9580078,1.4267578-1.4375,2.59375-1.4375
			c0.5830078,0,1.1274414,0.1538086,1.6328125,0.4609375c0.90625,0.5576172,1.359375,1.390625,1.359375,2.5
			c0,1.15625-0.5390625,1.9975586-1.6171875,2.5234375c1.3798828,0.53125,2.0703125,1.53125,2.0703125,3
			c0,0.8388672-0.234375,1.5576172-0.703125,2.15625c-0.625,0.8022461-1.5390625,1.203125-2.7421875,1.203125
			c-1.0209961,0-1.8413086-0.2939453-2.4609375-0.8828125c-0.6513672-0.6196289-0.9765625-1.4453125-0.9765625-2.4765625
			C77.1772461,36.6796875,77.8647461,35.6796875,79.2397461,35.1484375z M80.5991211,35.7578125
			c-0.6928711,0-1.2451172,0.2553711-1.65625,0.765625c-0.34375,0.4428711-0.515625,0.984375-0.515625,1.625
			c0,0.6147461,0.1665039,1.1279297,0.5,1.5390625c0.4111328,0.5107422,0.9736328,0.765625,1.6875,0.765625
			c0.71875,0,1.2861328-0.2548828,1.703125-0.765625c0.328125-0.4111328,0.4921875-0.9243164,0.4921875-1.5390625
			c0-0.8017578-0.2451172-1.4165039-0.734375-1.84375C81.6796875,35.9404297,81.1875,35.7578125,80.5991211,35.7578125z
			 M80.6147461,30.6875c-0.5366211,0-0.9741211,0.1928711-1.3125,0.578125
			c-0.3076172,0.359375-0.4609375,0.8076172-0.4609375,1.34375c0,0.3544922,0.0649414,0.6748047,0.1953125,0.9609375
			c0.3173828,0.6928711,0.8486328,1.0390625,1.59375,1.0390625c0.4267578,0,0.7890625-0.1328125,1.0859375-0.3984375
			c0.4477539-0.3852539,0.671875-0.9189453,0.671875-1.6015625c0-0.6665039-0.2241211-1.1845703-0.671875-1.5546875
			C81.4086914,30.8100586,81.0415039,30.6875,80.6147461,30.6875z"/>
		<path fill="#727171" d="M88.6147461,29.6640625c2.0727539,0,3.109375,1.9741211,3.109375,5.921875
			c0,3.9482422-1.0366211,5.921875-3.109375,5.921875c-2.0678711,0-3.1015625-1.9736328-3.1015625-5.921875
			C85.5131836,31.6381836,86.546875,29.6640625,88.6147461,29.6640625z M87.0522461,38.3671875l2.859375-6.5234375
			c-0.3022461-0.71875-0.7397461-1.078125-1.3125-1.078125c-1.1826172,0-1.7734375,1.6069336-1.7734375,4.8203125
			C86.8256836,36.6796875,86.9008789,37.6069336,87.0522461,38.3671875z M87.3178711,39.3125
			c0.2915039,0.7294922,0.7236328,1.09375,1.296875,1.09375c1.1977539,0,1.796875-1.6118164,1.796875-4.8359375
			c0-1.0673828-0.0756836-1.9868164-0.2265625-2.7578125L87.3178711,39.3125z"/>
		<path fill="#727171" d="M94.6850586,33.5859375l0.1953125,1.0078125c0.7133789-0.875,1.453125-1.3125,2.21875-1.3125
			c0.78125,0,1.421875,0.3466797,1.921875,1.0390625c0.53125,0.7451172,0.796875,1.7084961,0.796875,2.890625
			c0,1.1044922-0.2138672,2.0263672-0.640625,2.765625c-0.5053711,0.875-1.203125,1.3125-2.09375,1.3125
			c-0.7709961,0-1.46875-0.3515625-2.09375-1.0546875v3.25h-1.1875v-9.8984375H94.6850586z M96.8256836,34.4140625
			c-0.5209961,0-0.9638672,0.2607422-1.328125,0.78125c-0.3701172,0.5366211-0.5546875,1.2138672-0.5546875,2.03125
			c0,0.7451172,0.1274414,1.3647461,0.3828125,1.859375c0.3486328,0.703125,0.8540039,1.0546875,1.515625,1.0546875
			c0.5258789,0,0.9423828-0.25,1.25-0.75c0.3071289-0.5415039,0.4609375-1.2626953,0.4609375-2.1640625
			c0-0.8227539-0.1435547-1.484375-0.4296875-1.984375C97.8046875,34.6904297,97.3725586,34.4140625,96.8256836,34.4140625z"/>
		<path fill="#727171" d="M113.3022461,31.171875V40h1.6015625v1.1875h-4.578125V40h1.6015625v-8.828125h-1.6015625v-1.1875
			h4.578125v1.1875H113.3022461z"/>
		<path fill="#727171" d="M121.2397461,39.4375c0,0.4584961,0.21875,0.6875,0.65625,0.6875
			c0.359375,0,0.7524414-0.0415039,1.1796875-0.125v1.1953125c-0.6303711,0.0888672-1.09375,0.1328125-1.390625,0.1328125
			c-1.1303711,0-1.6953125-0.5546875-1.6953125-1.6640625V29.984375h1.25V39.4375z"/>
		<path fill="#727171" d="M129.2397461,39.4375c0,0.4584961,0.21875,0.6875,0.65625,0.6875
			c0.359375,0,0.7524414-0.0415039,1.1796875-0.125v1.1953125c-0.6303711,0.0888672-1.09375,0.1328125-1.390625,0.1328125
			c-1.1303711,0-1.6953125-0.5546875-1.6953125-1.6640625V29.984375h1.25V39.4375z"/>
		<path fill="#727171" d="M133.7866211,33.5859375h1.1875v5.15625c0,1.0991211,0.4345703,1.6484375,1.3046875,1.6484375
			c0.5625,0,1.0571289-0.2080078,1.484375-0.625c0.3852539-0.3696289,0.578125-0.8564453,0.578125-1.4609375v-4.71875h1.1875
			V41.1875h-0.8828125l-0.2109375-0.8984375c-0.6982422,0.8125-1.5053711,1.21875-2.421875,1.21875
			c-0.796875,0-1.3959961-0.3046875-1.796875-0.9140625c-0.2866211-0.4477539-0.4296875-1.0234375-0.4296875-1.7265625V33.5859375z"
			/>
		<path fill="#727171" d="M142.8413086,38.828125c0.140625,1.0678711,0.7626953,1.6015625,1.8671875,1.6015625
			c1.109375,0,1.6640625-0.390625,1.6640625-1.171875c0-0.375-0.1279297-0.6665039-0.3828125-0.875
			c-0.2709961-0.2236328-0.7553711-0.4580078-1.453125-0.703125l-0.2265625-0.0859375
			c-0.7709961-0.265625-1.3310547-0.53125-1.6796875-0.796875c-0.5-0.390625-0.75-0.8618164-0.75-1.4140625
			c0-0.6611328,0.2890625-1.1923828,0.8671875-1.59375c0.5-0.34375,1.1064453-0.515625,1.8203125-0.515625
			c1.609375,0,2.5415039,0.7319336,2.796875,2.1953125h-1.2421875c-0.1303711-0.78125-0.6538086-1.171875-1.5703125-1.171875
			c-0.9794922,0-1.46875,0.3466797-1.46875,1.0390625c0,0.453125,0.65625,0.9116211,1.96875,1.375
			c0.7392578,0.2607422,1.2705078,0.5078125,1.59375,0.7421875c0.6298828,0.4482422,0.9453125,1.0390625,0.9453125,1.7734375
			c0,0.7138672-0.28125,1.2788086-0.84375,1.6953125c-0.53125,0.3857422-1.2216797,0.578125-2.0703125,0.578125
			c-1.859375,0-2.8935547-0.890625-3.1015625-2.671875H142.8413086z"/>
		<path fill="#727171" d="M151.7241211,31.5234375h1.21875v2.0625h1.8828125v1.1484375h-1.8828125v4.84375
			c0,0.3647461,0.203125,0.546875,0.609375,0.546875c0.4946289,0,0.9555664-0.0415039,1.3828125-0.125v1.1953125
			c-0.6303711,0.0888672-1.171875,0.1328125-1.625,0.1328125c-1.0576172,0-1.5859375-0.5283203-1.5859375-1.5859375V34.734375
			h-1.5078125v-1.1484375h1.5078125V31.5234375z"/>
		<path fill="#727171" d="M160.1694336,33.5859375V35.1875c0.921875-0.9736328,1.9086914-1.609375,2.9609375-1.90625v1.390625
			c-1.2084961,0.2919922-2.1953125,0.9482422-2.9609375,1.96875V41.1875h-1.21875v-7.6015625H160.1694336z"/>
		<path fill="#727171" d="M165.7241211,35.8046875c0.2080078-1.6875,1.1743164-2.53125,2.8984375-2.53125
			c1.734375,0,2.6015625,0.9296875,2.6015625,2.7890625v3.8203125c0,0.3022461,0.1376953,0.453125,0.4140625,0.453125
			c0.09375,0,0.2211914-0.0180664,0.3828125-0.0546875v1.125c-0.2138672,0.0522461-0.46875,0.078125-0.765625,0.078125
			c-0.703125,0-1.1015625-0.3930664-1.1953125-1.1796875c-0.7241211,0.7866211-1.5185547,1.1796875-2.3828125,1.1796875
			c-0.5678711,0-1.0341797-0.1484375-1.3984375-0.4453125c-0.4794922-0.3852539-0.71875-0.9555664-0.71875-1.7109375
			c0-1.7548828,1.5048828-2.7368164,4.515625-2.9453125V36.0625c0-1.1455078-0.484375-1.71875-1.453125-1.71875
			c-1,0-1.5390625,0.4873047-1.6171875,1.4609375H165.7241211z M170.0756836,37.390625
			c-2.2294922,0.109375-3.34375,0.734375-3.34375,1.875c0,0.765625,0.3774414,1.1484375,1.1328125,1.1484375
			c0.515625,0,1.0180664-0.1977539,1.5078125-0.59375c0.46875-0.3696289,0.703125-0.828125,0.703125-1.375V37.390625z"/>
		<path fill="#727171" d="M175.7241211,31.5234375h1.21875v2.0625h1.8828125v1.1484375h-1.8828125v4.84375
			c0,0.3647461,0.203125,0.546875,0.609375,0.546875c0.4946289,0,0.9555664-0.0415039,1.3828125-0.125v1.1953125
			c-0.6303711,0.0888672-1.171875,0.1328125-1.625,0.1328125c-1.0576172,0-1.5859375-0.5283203-1.5859375-1.5859375V34.734375
			h-1.5078125v-1.1484375h1.5078125V31.5234375z"/>
		<path fill="#727171" d="M183.9116211,29.984375h1.40625v1.4375h-1.40625V29.984375z M183.9897461,33.5859375h1.25V41.1875h-1.25
			V33.5859375z"/>
		<path fill="#727171" d="M192.6303711,33.28125c0.9790039,0,1.7470703,0.4326172,2.3046875,1.296875
			c0.4790039,0.71875,0.71875,1.65625,0.71875,2.8125c0,0.8701172-0.1435547,1.6328125-0.4296875,2.2890625
			c-0.53125,1.21875-1.40625,1.828125-2.625,1.828125c-0.9428711,0-1.6953125-0.4008789-2.2578125-1.203125
			c-0.5107422-0.734375-0.765625-1.7055664-0.765625-2.9140625c0-1.3017578,0.2939453-2.3251953,0.8828125-3.0703125
			C191.0209961,33.6279297,191.7446289,33.28125,192.6303711,33.28125z M192.5991211,34.3984375
			c-0.5732422,0-1.0209961,0.2998047-1.34375,0.8984375c-0.2866211,0.5263672-0.4296875,1.2241211-0.4296875,2.09375
			c0,0.8022461,0.1171875,1.4560547,0.3515625,1.9609375c0.3227539,0.6928711,0.8017578,1.0390625,1.4375,1.0390625
			c0.5830078,0,1.0361328-0.2993164,1.359375-0.8984375c0.2861328-0.5258789,0.4296875-1.2211914,0.4296875-2.0859375
			c0-0.9008789-0.1484375-1.609375-0.4453125-2.125C193.640625,34.6928711,193.1875,34.3984375,192.5991211,34.3984375z"/>
		<path fill="#727171" d="M198.7319336,33.5859375l0.1796875,0.9765625c0.8017578-0.8540039,1.59375-1.28125,2.375-1.28125
			c0.8696289,0,1.5048828,0.3828125,1.90625,1.1484375c0.2236328,0.4326172,0.3359375,0.9560547,0.3359375,1.5703125v5.1875h-1.1875
			v-4.8359375c0-1.2915039-0.4140625-1.9375-1.2421875-1.9375c-0.5625,0-1.0522461,0.203125-1.46875,0.609375
			c-0.4375,0.4375-0.65625,0.9404297-0.65625,1.5078125v4.65625h-1.1875v-7.6015625H198.7319336z"/>
		<path fill="#727171" d="M206.8413086,38.828125c0.140625,1.0678711,0.7626953,1.6015625,1.8671875,1.6015625
			c1.109375,0,1.6640625-0.390625,1.6640625-1.171875c0-0.375-0.1279297-0.6665039-0.3828125-0.875
			c-0.2709961-0.2236328-0.7553711-0.4580078-1.453125-0.703125l-0.2265625-0.0859375
			c-0.7709961-0.265625-1.3310547-0.53125-1.6796875-0.796875c-0.5-0.390625-0.75-0.8618164-0.75-1.4140625
			c0-0.6611328,0.2890625-1.1923828,0.8671875-1.59375c0.5-0.34375,1.1064453-0.515625,1.8203125-0.515625
			c1.609375,0,2.5415039,0.7319336,2.796875,2.1953125h-1.2421875c-0.1303711-0.78125-0.6538086-1.171875-1.5703125-1.171875
			c-0.9794922,0-1.46875,0.3466797-1.46875,1.0390625c0,0.453125,0.65625,0.9116211,1.96875,1.375
			c0.7392578,0.2607422,1.2705078,0.5078125,1.59375,0.7421875c0.6298828,0.4482422,0.9453125,1.0390625,0.9453125,1.7734375
			c0,0.7138672-0.28125,1.2788086-0.84375,1.6953125c-0.53125,0.3857422-1.2216797,0.578125-2.0703125,0.578125
			c-1.859375,0-2.8935547-0.890625-3.1015625-2.671875H206.8413086z"/>
		<path fill="#727171" d="M28.7944336,59.3828125c-0.7709961,2.2084961-1.6796875,3.3125-2.7265625,3.3125
			c-0.5209961,0-1.046875-0.2993164-1.578125-0.8984375c-0.7294922-0.8017578-1.2319336-2.0390625-1.5078125-3.7109375
			c-0.2553711-1.5361328-0.3828125-3.4921875-0.3828125-5.8671875h1.328125
			c-0.015625,3.1147461,0.1875,5.4194336,0.609375,6.9140625c0.4111328,1.4482422,0.921875,2.171875,1.53125,2.171875
			c0.5673828,0,1.1064453-0.9267578,1.6171875-2.78125L28.7944336,59.3828125z M33.8178711,59.765625
			c-0.8022461-2.2705078-1.921875-4.3671875-3.359375-6.2890625l1.1328125-0.5546875
			c1.4423828,1.765625,2.6040039,3.8232422,3.484375,6.171875L33.8178711,59.765625z"/>
		<path fill="#727171" d="M47.6850586,52.0234375l-4.3046875,4.75c1.0830078-0.53125,2.1508789-0.796875,3.203125-0.796875
			c0.890625,0,1.6533203,0.203125,2.2890625,0.609375c0.9477539,0.59375,1.421875,1.4638672,1.421875,2.609375
			c0,2.8178711-2.5859375,4.25-7.7578125,4.296875l-0.59375-1.2109375c0.296875,0.0107422,0.5571289,0.015625,0.78125,0.015625
			c4.1821289,0,6.2734375-1.0336914,6.2734375-3.1015625c0-0.640625-0.234375-1.1640625-0.703125-1.5703125
			s-1.09375-0.609375-1.875-0.609375c-0.71875,0-1.5341797,0.1928711-2.4453125,0.578125
			c-1.3701172,0.578125-2.6538086,1.4194336-3.8515625,2.5234375L39.2397461,59.125
			c1.9790039-1.625,4.15625-3.8852539,6.53125-6.78125c-1.4951172,0.2607422-3.2397461,0.4741211-5.234375,0.640625
			L40.2006836,51.6875c2.2446289-0.0830078,4.4892578-0.265625,6.734375-0.546875L47.6850586,52.0234375z"/>
		<path fill="#727171" d="M55.1147461,63.125c-0.34375-1.8696289-0.515625-3.5205078-0.515625-4.953125
			c0-2.0361328,0.3774414-4.4970703,1.1328125-7.3828125l1.203125,0.3046875c-0.765625,2.8647461-1.1484375,5.25-1.1484375,7.15625
			c0,0.5522461,0.03125,1.2138672,0.09375,1.984375c0.4736328-1,0.8461914-1.7421875,1.1171875-2.2265625l0.8046875,0.4765625
			c-0.984375,1.8178711-1.4765625,3.2060547-1.4765625,4.1640625c0,0.1147461,0.0048828,0.2319336,0.015625,0.3515625
			L55.1147461,63.125z M62.7709961,50.8046875h1.1875l0.046875,2.765625c0.7446289-0.078125,1.5986328-0.2211914,2.5625-0.4296875
			l0.09375,1.1875c-0.6044922,0.1201172-1.484375,0.2421875-2.640625,0.3671875l0.078125,4.703125
			c0.84375,0.2607422,1.9580078,0.8310547,3.34375,1.7109375l-0.6875,1.109375
			c-0.9428711-0.671875-1.8178711-1.2109375-2.625-1.6171875v0.21875c0,0.9584961-0.2553711,1.5888672-0.765625,1.890625
			c-0.359375,0.2138672-0.8388672,0.3203125-1.4375,0.3203125c-2.2294922,0-3.34375-0.7158203-3.34375-2.1484375
			c0-0.6508789,0.2939453-1.1665039,0.8828125-1.546875c0.5361328-0.34375,1.1977539-0.515625,1.984375-0.515625
			c0.3798828,0,0.8798828,0.0654297,1.5,0.1953125l-0.09375-4.2421875c-0.6826172,0.03125-1.296875,0.046875-1.84375,0.046875
			c-0.7241211,0-1.453125-0.0258789-2.1875-0.078125L58.7709961,53.59375c0.8071289,0.0732422,1.6352539,0.109375,2.484375,0.109375
			c0.484375,0,1.0126953-0.015625,1.5859375-0.046875L62.7709961,50.8046875z M62.9663086,60.1171875
			c-0.640625-0.1821289-1.1640625-0.2734375-1.5703125-0.2734375c-1.109375,0-1.6640625,0.3413086-1.6640625,1.0234375
			c0,0.2607422,0.1274414,0.484375,0.3828125,0.671875c0.3798828,0.3022461,0.9086914,0.453125,1.5859375,0.453125
			c0.84375,0,1.265625-0.375,1.265625-1.125V60.1171875z"/>
		<path fill="#727171" d="M71.3334961,63.09375c-0.2763672-1.9375-0.4140625-3.703125-0.4140625-5.296875
			c0-1.9008789,0.3408203-4.1611328,1.0234375-6.78125l1.203125,0.2734375
			c-0.703125,2.6201172-1.0546875,4.8544922-1.0546875,6.703125c0,0.5732422,0.0415039,1.25,0.125,2.03125
			c0.234375-0.4267578,0.5859375-1.0571289,1.0546875-1.890625l0.78125,0.546875
			c-0.9897461,1.6826172-1.484375,2.9794922-1.484375,3.890625c0,0.15625,0.0048828,0.2944336,0.015625,0.4140625
			L71.3334961,63.09375z M82.7397461,62.359375c-1.0107422,0.140625-1.9428711,0.2109375-2.796875,0.2109375
			c-1.5107422,0-2.6147461-0.21875-3.3125-0.65625c-0.7763672-0.4790039-1.1640625-1.3984375-1.1640625-2.7578125
			c0-0.1875,0.0048828-0.3618164,0.015625-0.5234375l1.2109375-0.1484375c0,0.0991211-0.0053711,0.2421875-0.015625,0.4296875
			c-0.0053711,0.1044922-0.0078125,0.1694336-0.0078125,0.1953125c0,0.8701172,0.21875,1.4584961,0.65625,1.765625
			c0.4321289,0.2866211,1.2265625,0.4296875,2.3828125,0.4296875c0.7548828,0,1.7133789-0.0703125,2.875-0.2109375
			L82.7397461,62.359375z M75.6850586,52.7890625c1.890625-0.3486328,3.9501953-0.5234375,6.1796875-0.5234375l0.109375,1.2265625
			c-2.296875-0.015625-4.3491211,0.1616211-6.15625,0.53125L75.6850586,52.7890625z"/>
		<path fill="#727171" d="M87.0991211,63.2265625c-0.3959961-1.8330078-0.59375-3.5126953-0.59375-5.0390625
			c0-1.765625,0.3359375-4.2578125,1.0078125-7.4765625l1.25,0.2265625
			c-0.7138672,3.015625-1.0703125,5.5859375-1.0703125,7.7109375c0,0.546875,0.0205078,1.1171875,0.0625,1.7109375
			c0.3852539-0.9790039,0.7265625-1.7626953,1.0234375-2.3515625l0.796875,0.546875
			c-0.84375,1.765625-1.265625,3.0756836-1.265625,3.9296875c0,0.0625,0.0126953,0.2397461,0.0390625,0.53125L87.0991211,63.2265625
			z M90.7084961,51.53125c0.9008789,0.0522461,1.6533203,0.078125,2.2578125,0.078125
			c1.6977539,0,3.4086914-0.1611328,5.1328125-0.484375l0.1171875,1.0625
			c-0.9897461,0.171875-1.7685547,0.2841797-2.3359375,0.3359375l0.046875,2.3359375
			c0.890625-0.09375,1.7861328-0.234375,2.6875-0.421875l0.09375,1.09375c-0.8022461,0.171875-1.71875,0.2998047-2.75,0.3828125
			l0.09375,3.6015625c1.0517578,0.3701172,2.1455078,0.890625,3.28125,1.5625l-0.703125,1.0703125
			c-0.8022461-0.5883789-1.6513672-1.078125-2.546875-1.46875v0.3359375c0,0.84375-0.1694336,1.421875-0.5078125,1.734375
			c-0.359375,0.3071289-0.9404297,0.4609375-1.7421875,0.4609375c-2.3491211,0-3.5234375-0.7158203-3.5234375-2.1484375
			c0-0.6298828,0.2705078-1.1298828,0.8125-1.5C91.6953125,59.1875,92.4584961,59,93.4116211,59
			c0.46875,0,0.9765625,0.0654297,1.5234375,0.1953125l-0.109375-3.203125c-0.6982422,0.03125-1.2763672,0.046875-1.734375,0.046875
			c-0.9897461,0-1.890625-0.0361328-2.703125-0.109375L90.3100586,54.875c0.9111328,0.0732422,1.8486328,0.109375,2.8125,0.109375
			c0.5205078,0,1.0751953-0.015625,1.6640625-0.046875l-0.078125-2.3359375
			c-0.640625,0.03125-1.2421875,0.046875-1.8046875,0.046875c-0.7919922,0-1.5078125-0.0205078-2.1484375-0.0625
			L90.7084961,51.53125z M94.9506836,60.296875c-0.578125-0.1821289-1.1225586-0.2734375-1.6328125-0.2734375
			c-1.2138672,0-1.8203125,0.3466797-1.8203125,1.0390625c0,0.28125,0.1767578,0.5185547,0.53125,0.7109375
			c0.40625,0.2138672,0.9267578,0.3203125,1.5625,0.3203125c0.90625,0,1.359375-0.359375,1.359375-1.078125V60.296875z"/>
		<path fill="#727171" d="M101.6538086,57.9453125c1.5205078-1.0986328,3.0024414-2.4580078,4.4453125-4.078125
			c0.3330078-0.3642578,0.6533203-0.546875,0.9609375-0.546875c0.3125,0,0.6821289,0.2138672,1.109375,0.640625
			c2.4423828,2.4482422,4.9165039,4.2763672,7.421875,5.484375l-0.8984375,1.1875
			c-2.5419922-1.5048828-4.8413086-3.2734375-6.8984375-5.3046875c-0.328125-0.3330078-0.578125-0.5-0.75-0.5
			c-0.1513672,0-0.3803711,0.1748047-0.6875,0.5234375c-1.3232422,1.4897461-2.625,2.7373047-3.90625,3.7421875
			L101.6538086,57.9453125z"/>
		<path fill="#727171" d="M129.6225586,62.859375c-1.703125,0.2133789-3.1796875,0.3203125-4.4296875,0.3203125
			c-1.6201172,0-2.8779297-0.1538086-3.7734375-0.4609375c-1.2607422-0.4321289-1.890625-1.25-1.890625-2.453125
			c0-1.5986328,1.2578125-3.0234375,3.7734375-4.2734375c-0.75-1.7758789-1.3203125-3.5258789-1.7109375-5.25l1.296875-0.2578125
			c0.3330078,1.6875,0.8305664,3.3569336,1.4921875,5.0078125c1.1611328-0.4892578,2.6118164-0.9790039,4.3515625-1.46875
			l0.5546875,1.171875c-5.6616211,1.359375-8.4921875,3.0185547-8.4921875,4.9765625
			c0,1.2138672,1.359375,1.8203125,4.078125,1.8203125c1.3383789,0,2.8486328-0.1328125,4.53125-0.3984375L129.6225586,62.859375z"
			/>
		<path fill="#727171" d="M134.3256836,52.7890625c0.9423828,0.078125,2.046875,0.1171875,3.3125,0.1171875h0.3046875
			l0.09375-0.46875c0.1665039-0.8071289,0.2993164-1.546875,0.3984375-2.21875l1.203125,0.171875
			c-0.1669922,0.9169922-0.328125,1.7397461-0.484375,2.46875c1.6821289-0.078125,3.3149414-0.28125,4.8984375-0.609375
			l0.1484375,1.1484375c-1.640625,0.296875-3.4116211,0.484375-5.3125,0.5625
			c-0.265625,1.1303711-0.6513672,2.453125-1.15625,3.96875c1.5517578-1.0258789,3.1430664-1.5390625,4.7734375-1.5390625
			c0.9423828,0,1.7211914,0.1826172,2.3359375,0.546875c0.9267578,0.5263672,1.390625,1.3256836,1.390625,2.3984375
			c0,2.5522461-2.5185547,3.90625-7.5546875,4.0625l-0.546875-1.1328125
			c4.5571289-0.0830078,6.8359375-1.0649414,6.8359375-2.9453125c0-1.2705078-0.8857422-1.90625-2.65625-1.90625
			c-0.9428711,0-1.9296875,0.2607422-2.9609375,0.78125c-0.9326172,0.4794922-1.7060547,0.9921875-2.3203125,1.5390625
			L136.0053711,59c0.6875-1.6821289,1.2470703-3.3461914,1.6796875-4.9921875c-1.5107422,0-2.6147461-0.0205078-3.3125-0.0625
			L134.3256836,52.7890625z"/>
		<path fill="#727171" d="M156.1538086,56.296875c-0.9116211,1.8647461-1.8076172,2.796875-2.6875,2.796875
			c-0.8857422,0-1.328125-1.2734375-1.328125-3.8203125c0-1.1821289,0.1171875-2.6328125,0.3515625-4.3515625l1.296875,0.15625
			c-0.2553711,1.8076172-0.3828125,3.2685547-0.3828125,4.3828125c0,1.3857422,0.1328125,2.078125,0.3984375,2.078125
			c0.09375,0,0.2109375-0.0805664,0.3515625-0.2421875c0.4111328-0.4736328,0.7890625-1.1118164,1.1328125-1.9140625
			L156.1538086,56.296875z M154.9194336,62.6796875c1.7446289-0.625,2.9453125-1.5048828,3.6015625-2.640625
			c0.5102539-0.8798828,0.765625-2.3720703,0.765625-4.4765625c0-1.4946289-0.078125-3.1220703-0.234375-4.8828125h1.359375
			c0.125,1.5209961,0.1875,3.1484375,0.1875,4.8828125c0,2.4326172-0.3359375,4.2084961-1.0078125,5.328125
			c-0.7397461,1.234375-1.9921875,2.1767578-3.7578125,2.828125L154.9194336,62.6796875z"/>
		<path fill="#727171" d="M167.7006836,51.765625c0.3227539,1.1357422,0.6484375,2.1069336,0.9765625,2.9140625
			c1.203125-0.9267578,2.46875-1.5024414,3.796875-1.7265625c0.15625-0.859375,0.2680664-1.6689453,0.3359375-2.4296875
			l1.2109375,0.125c0,0.0263672-0.0053711,0.0834961-0.015625,0.171875c-0.0263672,0.1982422-0.046875,0.375-0.0625,0.53125
			c-0.0625,0.5522461-0.1748047,1.0546875-0.3359375,1.5078125c1.625,0.0625,2.890625,0.515625,3.796875,1.359375
			c0.9580078,0.8803711,1.4375,2.03125,1.4375,3.453125c0,0.9326172-0.1826172,1.8076172-0.546875,2.625
			c0.5727539,0.421875,1.0595703,0.8046875,1.4609375,1.1484375l-0.7890625,1.0078125l-0.1875-0.1875l-0.2265625-0.2265625
			c-0.1357422-0.1455078-0.3022461-0.3227539-0.5-0.53125c-0.1459961-0.1508789-0.2397461-0.25-0.28125-0.296875
			c-0.78125,1.0625-1.7841797,1.59375-3.0078125,1.59375c-0.5263672,0-0.984375-0.1064453-1.375-0.3203125
			c-0.6513672-0.3486328-0.9765625-0.8798828-0.9765625-1.59375c0-0.5673828,0.21875-1.0361328,0.65625-1.40625
			c0.4423828-0.3955078,1.0126953-0.59375,1.7109375-0.59375c0.7392578,0,1.5751953,0.2607422,2.5078125,0.78125
			c0.234375-0.609375,0.3515625-1.2758789,0.3515625-2c0-1.5986328-0.6982422-2.734375-2.09375-3.40625
			c-0.5366211-0.2602539-1.2241211-0.4165039-2.0625-0.46875c-0.5888672,2.359375-1.3413086,4.2866211-2.2578125,5.78125
			c0.046875,0.0834961,0.2290039,0.3388672,0.546875,0.765625l-0.8046875,0.9140625
			c-0.0991211-0.125-0.2216797-0.3071289-0.3671875-0.546875l-0.078125-0.125
			c-0.9794922,1.234375-1.9194336,1.8515625-2.8203125,1.8515625c-0.5522461,0-1-0.265625-1.34375-0.796875
			c-0.3178711-0.5-0.4765625-1.1508789-0.4765625-1.953125c0-1.421875,0.65625-2.8305664,1.96875-4.2265625
			c-0.4794922-1.1352539-0.8803711-2.2055664-1.203125-3.2109375L167.7006836,51.765625z M168.2788086,56.4375l-0.015625,0.015625
			c-0.0107422,0.0107422-0.0263672,0.0209961-0.046875,0.03125c0.0102539,0,0.015625,0.0078125,0.015625,0.0234375
			c-0.8022461,1.0366211-1.203125,2.1015625-1.203125,3.1953125c0,1.0678711,0.2446289,1.6015625,0.734375,1.6015625
			c0.5625,0,1.2783203-0.5703125,2.1484375-1.7109375C169.359375,58.6357422,168.8149414,57.5834961,168.2788086,56.4375z
			 M172.2631836,53.9453125c-1.0732422,0.234375-2.1381836,0.7998047-3.1953125,1.6953125
			C169.5,56.625,170,57.6015625,170.5678711,58.5703125C171.2602539,57.3623047,171.8256836,55.8203125,172.2631836,53.9453125z
			 M176.8100586,60.6171875c-0.7866211-0.5102539-1.4638672-0.765625-2.03125-0.765625
			c-0.7138672,0-1.1513672,0.265625-1.3125,0.796875c-0.0107422,0.0107422-0.015625,0.0366211-0.015625,0.078125V60.84375
			c0.03125,0.6357422,0.46875,0.953125,1.3125,0.953125C175.5288086,61.796875,176.2109375,61.4038086,176.8100586,60.6171875z"/>
		<path fill="#727171" d="M191.5913086,52.0078125l-4.4453125,4.53125c1.0205078-0.375,1.9765625-0.5625,2.8671875-0.5625
			c0.8383789,0,1.5883789,0.1538086,2.25,0.4609375c1.21875,0.59375,1.828125,1.5444336,1.828125,2.8515625
			c0,1.2138672-0.5703125,2.2216797-1.7109375,3.0234375c-1.0576172,0.734375-2.4350586,1.1015625-4.1328125,1.1015625
			c-0.8232422,0-1.4951172-0.1538086-2.015625-0.4609375c-0.640625-0.3852539-0.9609375-0.9243164-0.9609375-1.6171875
			c0-0.4477539,0.171875-0.84375,0.515625-1.1875c0.4375-0.4375,0.9970703-0.65625,1.6796875-0.65625
			c1.28125,0,2.3461914,0.8125,3.1953125,2.4375c1.421875-0.5883789,2.1328125-1.4736328,2.1328125-2.65625
			c0-0.8173828-0.3359375-1.4267578-1.0078125-1.828125c-0.5053711-0.3071289-1.1616211-0.4609375-1.96875-0.4609375
			c-2.09375,0-4.1303711,0.9975586-6.109375,2.9921875l-0.8671875-0.9296875c2.578125-2.2548828,4.8173828-4.5048828,6.71875-6.75
			c-1.640625,0.2607422-3.2998047,0.4428711-4.9765625,0.546875l-0.2734375-1.21875
			c1.859375-0.046875,4.0517578-0.2236328,6.578125-0.53125L191.5913086,52.0078125z M189.5913086,62.25
			c-0.578125-1.2080078-1.2944336-1.8125-2.1484375-1.8125c-0.546875,0-0.8779297,0.1875-0.9921875,0.5625
			c-0.03125,0.125-0.046875,0.2084961-0.046875,0.25c0,0.75,0.5986328,1.125,1.796875,1.125
			C188.5961914,62.375,189.0600586,62.3334961,189.5913086,62.25z"/>
		<path fill="#727171" d="M199.3491211,52.34375c0.75,0.0625,1.8046875,0.09375,3.1640625,0.09375
			c0.3696289-0.8486328,0.6533203-1.6328125,0.8515625-2.3515625l1.1875,0.3359375l-0.1171875,0.3203125
			c-0.2241211,0.6147461-0.4482422,1.1538086-0.671875,1.6171875c1.09375-0.0517578,2.2890625-0.2211914,3.5859375-0.5078125
			l0.15625,1.1015625c-1.2553711,0.25-2.671875,0.4140625-4.25,0.4921875c-0.4428711,0.8959961-0.9404297,1.75-1.4921875,2.5625
			C202.5493164,55.3359375,203.3022461,55,204.0209961,55c1.125,0,1.8720703,0.6826172,2.2421875,2.046875
			c1.1611328-0.5048828,2.3930664-0.9790039,3.6953125-1.421875l0.59375,1.0546875
			c-1.5576172,0.4584961-2.9194336,0.9326172-4.0859375,1.421875c0.0673828,0.4638672,0.1118164,1.2373047,0.1328125,2.3203125
			l-1.203125,0.1015625c0-0.7758789-0.015625-1.4111328-0.046875-1.90625c-1.84375,0.9326172-2.765625,1.75-2.765625,2.453125
			c0,0.8857422,1.2993164,1.328125,3.8984375,1.328125c0.984375,0,2.0102539-0.0703125,3.078125-0.2109375l0.09375,1.1640625
			c-1.203125,0.1298828-2.3022461,0.1953125-3.296875,0.1953125c-3.3076172,0-4.9609375-0.7993164-4.9609375-2.3984375
			c0-1.203125,1.2626953-2.4033203,3.7890625-3.6015625c-0.2709961-1.0258789-0.7294922-1.5390625-1.375-1.5390625
			c-1.0678711,0-2.4584961,1.1459961-4.171875,3.4375l-0.9296875-0.6875c1.3125-1.6977539,2.4165039-3.453125,3.3125-5.265625
			c-1.0678711,0-1.9638672-0.0205078-2.6875-0.0625L199.3491211,52.34375z"/>
		<path fill="#727171" d="M34.0834961,72.609375l0.8984375,0.8984375c-1.109375,1.9584961-2.5498047,3.6328125-4.3203125,5.0234375
			l-0.9296875-0.8984375c1.453125-1.0517578,2.6484375-2.3383789,3.5859375-3.859375L22.7397461,73.96875V72.75
			L34.0834961,72.609375z M23.6538086,83.359375c1.8383789-0.9267578,3.0048828-2.1196289,3.5-3.578125
			c0.3017578-0.8486328,0.453125-2.4658203,0.453125-4.8515625h1.2890625
			c-0.015625,2.7451172-0.2265625,4.6381836-0.6328125,5.6796875c-0.6044922,1.5419922-1.8256836,2.7998047-3.6640625,3.7734375
			L23.6538086,83.359375z"/>
		<path fill="#727171" d="M48.7944336,73.265625l0.75,0.6875c-0.4013672,2.6982422-1.2709961,4.8779297-2.609375,6.5390625
			c-1.3125,1.6201172-3.140625,2.8701172-5.484375,3.75l-0.9140625-1.125c4.2446289-1.296875,6.7680664-4.1875,7.5703125-8.671875
			l-8.9609375,0.1640625v-1.21875L48.7944336,73.265625z M50.6225586,70.2421875c0.484375,0,0.9111328,0.1928711,1.28125,0.578125
			C52.2109375,71.1591797,52.3647461,71.5522461,52.3647461,72c0,0.3388672-0.0966797,0.6538086-0.2890625,0.9453125
			c-0.3544922,0.5419922-0.8515625,0.8125-1.4921875,0.8125c-0.2866211,0-0.5522461-0.0703125-0.796875-0.2109375
			c-0.6303711-0.3383789-0.9453125-0.859375-0.9453125-1.5625c0-0.59375,0.25-1.0673828,0.75-1.421875
			C49.9038086,70.3491211,50.2475586,70.2421875,50.6225586,70.2421875z M50.6069336,70.9453125
			c-0.1616211,0-0.328125,0.0419922-0.5,0.125c-0.375,0.1982422-0.5625,0.5078125-0.5625,0.9296875
			c0,0.1875,0.0595703,0.375,0.1796875,0.5625c0.203125,0.328125,0.4970703,0.4921875,0.8828125,0.4921875
			c0.2548828,0,0.4892578-0.0908203,0.703125-0.2734375c0.234375-0.203125,0.3515625-0.4633789,0.3515625-0.78125
			c0-0.3173828-0.1225586-0.5830078-0.3671875-0.796875C51.0913086,71.03125,50.8618164,70.9453125,50.6069336,70.9453125z"/>
		<path fill="#727171" d="M56.8100586,72.03125h1.359375V79.25h-1.359375V72.03125z M62.8256836,71.7265625h1.359375v5.390625
			c0,1.984375-0.3984375,3.6171875-1.1953125,4.8984375c-0.7084961,1.125-1.8569336,2.0805664-3.4453125,2.8671875
			l-0.9453125-1.078125c1.5673828-0.6923828,2.6611328-1.5390625,3.28125-2.5390625
			c0.6298828-1.0205078,0.9453125-2.3828125,0.9453125-4.0859375V71.7265625z"/>
		<path fill="#727171" d="M82.9038086,75.8125h-3.6484375c-0.0625,2.171875-0.4296875,3.8725586-1.1015625,5.1015625
			c-0.828125,1.5209961-2.1513672,2.7631836-3.96875,3.7265625l-0.9609375-0.9921875
			c1.9423828-0.8955078,3.265625-2.1484375,3.96875-3.7578125c0.4423828-1.03125,0.6875-2.390625,0.734375-4.078125h-3.875
			c-0.671875,1.3647461-1.609375,2.6069336-2.8125,3.7265625l-0.9453125-0.859375
			c1.9790039-1.7915039,3.265625-4.15625,3.859375-7.09375l1.2265625,0.2734375
			c-0.2084961,0.9584961-0.4794922,1.8857422-0.8125,2.78125h8.3359375V75.8125z"/>
		<path fill="#727171" d="M86.0834961,77.28125h13.0546875v1.28125H86.0834961V77.28125z"/>
		<path fill="#727171" d="M105.6225586,78.3203125c-1.0107422-0.8642578-2.0444336-1.5571289-3.1015625-2.078125l0.75-1.0703125
			c1.125,0.5419922,2.1875,1.21875,3.1875,2.03125L105.6225586,78.3203125z M103.3491211,82.765625
			c4.6352539-0.9892578,8.1142578-3.5102539,10.4375-7.5625l0.875,0.9921875
			c-2.3178711,4.046875-5.8203125,6.6538086-10.5078125,7.8203125L103.3491211,82.765625z M107.5131836,75.1875
			c-1.015625-0.875-2.0288086-1.5649414-3.0390625-2.0703125l0.75-1.0546875c0.984375,0.484375,2.03125,1.1513672,3.140625,2
			L107.5131836,75.1875z"/>
		<path fill="#727171" d="M120.6850586,75.328125h7.5625V84h-1.203125v-0.734375h-6.5390625v-1.1484375h6.5390625v-2.453125
			h-6.0078125V78.578125h6.0078125v-2.1484375h-6.359375V75.328125z"/>
		<path fill="#727171" d="M138.7241211,76.2890625c-1.046875-0.953125-2.203125-1.7861328-3.46875-2.5l0.8125-1.0859375
			c1.1352539,0.5522461,2.3305664,1.3515625,3.5859375,2.3984375L138.7241211,76.2890625z M135.3647461,82.4765625
			c4.8071289-0.828125,8.2368164-3.5102539,10.2890625-8.046875l1.0078125,0.8984375
			c-2.0107422,4.4584961-5.4975586,7.2631836-10.4609375,8.4140625L135.3647461,82.4765625z"/>
		<path fill="#727171" d="M24.5444336,95.78125v10.3359375h-1.1328125v-7.96875
			c-0.3647461,0.6826172-0.8388672,1.4140625-1.421875,2.1953125l-0.625-0.9765625
			c1.4946289-2.109375,2.5751953-4.6015625,3.2421875-7.4765625l1.109375,0.2578125
			C25.3671875,93.5234375,24.9765625,94.734375,24.5444336,95.78125z M25.0600586,105.3828125
			c1.3173828-0.5883789,2.5234375-1.46875,3.6171875-2.640625l0.8984375,0.6875
			c-1.03125,1.1616211-2.2709961,2.1220703-3.71875,2.8828125L25.0600586,105.3828125z M25.4116211,101.4609375h10.4140625
			v0.9921875H25.4116211V101.4609375z M34.1147461,92.5390625v7.8671875h-7.265625v-7.8671875H34.1147461z M27.9194336,93.5v1.375
			h5.125V93.5H27.9194336z M27.9194336,95.7734375v1.3671875h5.125v-1.3671875H27.9194336z M27.9194336,98.0546875v1.421875h5.125
			v-1.421875H27.9194336z M34.7866211,106.171875c-1.1303711-1.0576172-2.3359375-1.9814453-3.6171875-2.7734375l0.8046875-0.6875
			c1.421875,0.8232422,2.6845703,1.6772461,3.7890625,2.5625L34.7866211,106.171875z"/>
		<path fill="#727171" d="M46.2006836,101.2890625c1.4790039,1.3178711,3.3540039,2.3359375,5.625,3.0546875l-0.7265625,1.0859375
			c-2.453125-0.921875-4.4428711-2.2158203-5.96875-3.8828125v4.5703125h-1.1328125v-4.5390625
			c-1.3076172,1.71875-3.25,3.1044922-5.828125,4.15625l-0.78125-1.0390625c2.34375-0.84375,4.2055664-1.9790039,5.5859375-3.40625
			h-5.0078125v-0.9921875h6.03125v-1.6484375h1.1328125v1.6484375h6.1015625v0.9921875H46.2006836z M41.2788086,96.40625
			c-0.6772461,1-1.6015625,1.9091797-2.7734375,2.7265625L37.7709961,98.3125
			c1.421875-0.8486328,2.4946289-1.8251953,3.21875-2.9296875h-2.8828125V94.453125h3.171875V93.28125
			c-0.8022461,0.09375-1.65625,0.1748047-2.5625,0.2421875l-0.390625-0.84375
			c2.4892578-0.1923828,4.4165039-0.4658203,5.78125-0.8203125l0.65625,0.8828125
			c-0.859375,0.1616211-1.6694336,0.2998047-2.4296875,0.4140625v1.296875h3.0078125v0.9296875h-3.0078125v0.4765625
			c1.125,0.5263672,2.1376953,1.0678711,3.0390625,1.625l-0.6875,0.890625
			c-0.84375-0.6040039-1.6279297-1.1274414-2.3515625-1.5703125v2.7421875h-1.0546875V96.40625z M46.3491211,92.6484375h1.0859375
			v4.65625h-1.0859375V92.6484375z M49.6616211,92.0546875h1.0859375v6.125c0,0.4951172-0.1279297,0.8203125-0.3828125,0.9765625
			c-0.203125,0.1201172-0.5234375,0.1796875-0.9609375,0.1796875c-0.484375,0-1.0444336-0.03125-1.6796875-0.09375
			l-0.2265625-1.078125c0.6767578,0.1201172,1.2265625,0.1796875,1.6484375,0.1796875c0.34375,0,0.515625-0.1875,0.515625-0.5625
			V92.0546875z"/>
		<path fill="#727171" d="M56.8725586,103.09375c0.2861328,0.3701172,0.6875,0.7060547,1.203125,1.0078125
			c0.7392578,0.4272461,2.2421875,0.640625,4.5078125,0.640625c1.1611328,0,2.9580078-0.0727539,5.390625-0.21875
			c-0.1982422,0.3544922-0.3310547,0.7524414-0.3984375,1.1953125c-1.6772461,0.0625-3.03125,0.09375-4.0625,0.09375
			c-2.53125,0-4.2553711-0.1591797-5.171875-0.4765625c-0.8647461-0.296875-1.5078125-0.75-1.9296875-1.359375
			c-0.5888672,0.7084961-1.3154297,1.4165039-2.1796875,2.125l-0.6875-1.1796875
			c0.8330078-0.5,1.5751953-1.0493164,2.2265625-1.6484375v-2.9453125h-2.1953125v-1.0390625h3.296875V103.09375z
			 M55.9272461,97.8828125c-0.6875-0.671875-1.4716797-1.28125-2.3515625-1.828125l0.703125-0.859375
			c0.7915039,0.453125,1.609375,1.0390625,2.453125,1.7578125L55.9272461,97.8828125z M56.2944336,94.875
			c-0.7451172-0.734375-1.484375-1.3227539-2.21875-1.765625l0.75-0.84375c0.859375,0.5625,1.6118164,1.1484375,2.2578125,1.7578125
			L56.2944336,94.875z M61.4350586,95.1796875h-1.359375l-0.015625,0.2890625c-0.03125,3.75-0.6982422,6.46875-2,8.15625
			l-0.7890625-0.78125c0.828125-1.0883789,1.3461914-2.4711914,1.5546875-4.1484375
			c0.0986328-0.6875,0.1743164-1.8383789,0.2265625-3.453125h-1.6171875V94.25h1.6328125v-2.53125h1.0390625v2.484375h2.3828125
			c-0.015625,4.2709961-0.1591797,7.0703125-0.4296875,8.3984375c-0.1459961,0.6826172-0.5522461,1.0234375-1.21875,1.0234375
			c-0.421875,0-0.8647461-0.0415039-1.328125-0.125l-0.171875-1.09375c0.4165039,0.140625,0.7993164,0.2109375,1.1484375,0.2109375
			c0.3383789,0,0.5415039-0.1875,0.609375-0.5625c0.1767578-0.9892578,0.2890625-3.0517578,0.3359375-6.1875V95.1796875z
			 M67.1616211,93.796875v9.6953125h-1.0390625v-0.953125h-1.8125v0.953125h-1.0390625V93.796875H67.1616211z
			 M64.3100586,94.7734375V101.5625h1.8125v-6.7890625H64.3100586z"/>
		<path fill="#727171" d="M75.4428711,99.609375c1.015625-1.046875,1.8095703-2.4111328,2.3828125-4.09375l1,0.3515625
			C78.5961914,96.4506836,78.34375,97.015625,78.0678711,97.5625h1.8203125
			c0.3227539-0.671875,0.5805664-1.328125,0.7734375-1.96875l1.0546875,0.3203125
			C81.4921875,96.4506836,81.21875,97,80.8959961,97.5625h2.53125v0.8984375h-2.625v1.40625h2.1328125v0.8515625h-2.1328125
			v1.3984375h2.1328125v0.8515625h-2.1328125v1.453125h2.9921875v0.9140625h-5.96875v0.78125h-1.0234375V99.609375
			c-0.2866211,0.3857422-0.5703125,0.734375-0.8515625,1.046875c0.0830078,0.15625,0.1743164,0.3569336,0.2734375,0.6015625
			l-0.9609375,0.4140625c-0.0888672-0.25-0.2006836-0.5258789-0.3359375-0.828125
			c-0.3178711,0.046875-0.84375,0.1069336-1.578125,0.1796875v5.09375h-1.0078125v-5.015625
			c-0.6147461,0.0419922-1.5,0.0888672-2.65625,0.140625l-0.2890625-1.0078125c0.6196289,0,1.0517578-0.0048828,1.296875-0.015625
			h0.5546875l0.7109375-0.734375c-0.703125-0.84375-1.4296875-1.5361328-2.1796875-2.078125l0.734375-0.71875
			c0.2861328,0.2294922,0.5517578,0.46875,0.796875,0.71875c0.5102539-0.6040039,0.9609375-1.265625,1.3515625-1.984375h-2.2734375
			v-3.125h12.4140625v3.125h-10.078125L73.6225586,96c-0.5625,0.7763672-1.1303711,1.4584961-1.703125,2.046875
			c0.2133789,0.2241211,0.4345703,0.4794922,0.6640625,0.765625c0.0102539-0.0205078,0.0361328-0.0517578,0.078125-0.09375
			c0.5517578-0.5986328,1.1533203-1.3461914,1.8046875-2.2421875l0.9453125,0.5625
			C74.5,98.1381836,73.4921875,99.1928711,72.3881836,100.203125c0.5830078-0.015625,1.2758789-0.046875,2.078125-0.09375h0.125
			c-0.2607422-0.4790039-0.4560547-0.8305664-0.5859375-1.0546875l0.875-0.3203125
			C75.015625,98.9116211,75.203125,99.203125,75.4428711,99.609375z M69.5053711,105.015625
			c0.5205078-0.9321289,0.8955078-2.0258789,1.125-3.28125l1.0078125,0.2734375
			c-0.2709961,1.4482422-0.6616211,2.6591797-1.171875,3.6328125L69.5053711,105.015625z M71.4897461,93.1640625v1.40625h2.6875
			v-1.40625H71.4897461z M74.9350586,104.90625c-0.2294922-1.0673828-0.5888672-2.0546875-1.078125-2.9609375l0.9140625-0.3828125
			c0.4477539,0.7451172,0.8540039,1.6982422,1.21875,2.859375L74.9350586,104.90625z M75.2163086,93.1640625v1.40625h2.6796875
			v-1.40625H75.2163086z M79.8100586,98.4609375h-1.984375v1.40625h1.984375V98.4609375z M79.8100586,102.1171875V100.71875
			h-1.984375v1.3984375H79.8100586z M79.8100586,104.421875v-1.453125h-1.984375v1.453125H79.8100586z M81.7006836,94.5703125
			v-1.40625h-2.75v1.40625H81.7006836z"/>
		<path fill="#727171" d="M89.2631836,105.2421875v0.875h-1.1875v-5.609375
			c-0.4794922,0.3232422-1.0991211,0.6904297-1.859375,1.1015625l-0.78125-0.9609375
			c2.78125-1.296875,4.9243164-3.2314453,6.4296875-5.8046875h1.328125c1.65625,2.3701172,3.890625,4.1513672,6.703125,5.34375
			l-0.734375,1.0703125c-0.7397461-0.3798828-1.40625-0.7548828-2-1.125v5.984375h-1.1875v-0.875H89.2631836z M86.1694336,95.78125
			c1.390625-0.8125,2.6220703-1.9633789,3.6953125-3.453125l1.0234375,0.578125
			c-1.1147461,1.5625-2.3725586,2.8154297-3.7734375,3.7578125L86.1694336,95.78125z M88.8100586,99.9921875h8.125
			c-1.6669922-1.1196289-3.1279297-2.4790039-4.3828125-4.078125C91.515625,97.5444336,90.2680664,98.9038086,88.8100586,99.9921875
			z M95.9741211,100.984375h-6.7109375V104.25h6.7109375V100.984375z M97.9272461,96.40625
			c-1.1303711-1.2236328-2.4296875-2.4189453-3.8984375-3.5859375l0.859375-0.6875
			c1.3642578,1.0263672,2.671875,2.1640625,3.921875,3.4140625L97.9272461,96.40625z"/>
		<path fill="#727171" d="M119.7944336,92.6484375h4.8046875V93.53125h-2.7890625
			c0.1455078,0.2709961,0.3071289,0.5600586,0.484375,0.8671875l-1.0390625,0.4296875
			c-0.1513672-0.484375-0.3334961-0.9165039-0.546875-1.296875h-1.328125
			c-0.3334961,0.6201172-0.7451172,1.1904297-1.234375,1.7109375l-0.796875-0.75
			c0.8017578-0.8173828,1.3876953-1.7836914,1.7578125-2.8984375l1.0078125,0.1875
			C119.9790039,92.1982422,119.8725586,92.4873047,119.7944336,92.6484375z M125.0288086,99.3046875v0.6875h4.4140625v1.4609375
			h2.1015625v0.78125h-2.1015625v0.8359375h2.3671875v0.796875h-2.3671875v1.0546875
			c0,0.6923828-0.3959961,1.0390625-1.1875,1.0390625c-0.5678711,0-1.3388672-0.0341797-2.3125-0.1015625l-0.2421875-1.1328125
			c0.75,0.1201172,1.46875,0.1796875,2.15625,0.1796875c0.34375,0,0.515625-0.1376953,0.515625-0.4140625v-0.625h-7.4921875
			v2.265625h-1.0703125v-2.265625h-2.3984375v-0.796875h2.3984375v-0.8359375h-2.109375v-0.78125h2.109375v-1.4609375h4.1953125
			v-0.6875h-6.546875v-0.78125h4.2734375V97.75h-2.9140625v-0.78125h2.9140625v-0.7109375h-3.6953125v-0.78125h3.6953125v-0.75
			h1.0703125v0.75h3.5234375v-0.828125h1.0703125v0.828125h3.828125v0.78125h-3.828125V96.96875h3.0546875V97.75h-3.0546875
			v0.7734375h4.3671875v0.78125H125.0288086z M124.0053711,100.7578125h-3.125v0.7578125h3.125V100.7578125z
			 M124.0053711,102.234375h-3.125v0.8359375h3.125V102.234375z M126.3256836,96.2578125h-3.5234375V96.96875h3.5234375V96.2578125z
			 M126.3256836,97.75h-3.5234375v0.7734375h3.5234375V97.75z M126.3725586,92.6484375h5.21875V93.53125h-3.328125
			c0.21875,0.28125,0.4477539,0.6328125,0.6875,1.0546875l-1.0390625,0.3828125
			c-0.171875-0.4423828-0.4248047-0.921875-0.7578125-1.4375h-1.1953125c-0.3125,0.6044922-0.6591797,1.1381836-1.0390625,1.6015625
			l-0.8515625-0.625c0.65625-0.828125,1.1743164-1.8095703,1.5546875-2.9453125l1.0703125,0.21875
			C126.609375,92.0419922,126.5024414,92.3310547,126.3725586,92.6484375z M125.0288086,100.7578125v0.7578125h3.34375v-0.7578125
			H125.0288086z M125.0288086,102.234375v0.8359375h3.34375v-0.8359375H125.0288086z"/>
		<path fill="#727171" d="M141.1772461,92.1328125v2.75c0,4.5732422,2.1274414,7.7788086,6.3828125,9.6171875l-0.9453125,1.1015625
			c-3.1826172-1.6142578-5.1669922-3.9711914-5.953125-7.0703125c-0.5263672,3.7084961-2.5263672,6.1772461-6,7.40625
			l-0.859375-1.0546875c2.2861328-0.65625,3.8852539-1.8227539,4.796875-3.5c0.8852539-1.625,1.328125-3.7265625,1.328125-6.3046875
			v-2.9453125H141.1772461z M134.5991211,99.640625c0.8852539-1.3486328,1.4946289-2.84375,1.828125-4.484375l1.25,0.2578125
			c-0.4951172,1.984375-1.1459961,3.6328125-1.953125,4.9453125L134.5991211,99.640625z M143.0366211,99.140625
			c1.015625-1.4321289,1.8564453-2.9453125,2.5234375-4.5390625l1.28125,0.5546875
			c-0.8334961,1.71875-1.7607422,3.234375-2.78125,4.546875L143.0366211,99.140625z"/>
		<path fill="#727171" d="M153.6147461,98.953125h2.1796875v5.53125h-4.4453125v0.9453125h-1.0703125V98.953125h2.234375v-2.8828125
			h-3.0859375V95.03125h3.0859375v-3.0703125h1.1015625V95.03125h3.078125v1.0390625h-3.078125V98.953125z M154.7241211,99.9296875
			h-3.375v3.578125h3.375V99.9296875z M162.9663086,92.6796875v11.96875c0,0.484375-0.1123047,0.8149414-0.3359375,0.9921875
			c-0.2084961,0.1611328-0.5654297,0.2421875-1.0703125,0.2421875c-0.5678711,0-1.1616211-0.0288086-1.78125-0.0859375
			l-0.1875-1.1796875c0.671875,0.078125,1.2524414,0.1171875,1.7421875,0.1171875c0.375,0,0.5625-0.1875,0.5625-0.5625V100.9375
			h-3.25c-0.1303711,2.2241211-0.7373047,3.96875-1.8203125,5.234375l-0.9140625-0.8046875
			c1.1196289-1.2290039,1.6796875-3.0673828,1.6796875-5.515625v-7.171875H162.9663086z M161.8959961,93.65625h-3.234375v2.609375
			h3.234375V93.65625z M161.8959961,97.2265625h-3.234375v2.75h3.234375V97.2265625z"/>
		<path fill="#727171" d="M167.7163086,94.6015625V91.71875h0.9609375v2.8828125h1.9921875v5.5h-1.9921875v3.171875l0.09375-0.03125
			c0.6665039-0.1923828,1.03125-0.2993164,1.09375-0.3203125l-0.0625-0.2265625c-0.1303711-0.390625-0.3125-0.875-0.546875-1.453125
			l0.8203125-0.328125c0.4321289,0.9375,0.8359375,2.0053711,1.2109375,3.203125l-0.890625,0.609375
			c-0.140625-0.5-0.2373047-0.8515625-0.2890625-1.0546875c-1.25,0.5366211-2.75,1.0498047-4.5,1.5390625l-0.3828125-1.0390625
			c1.0727539-0.2446289,1.9033203-0.4555664,2.4921875-0.6328125v-3.4375h-1.03125V101.0625h-0.9140625v-6.4609375H167.7163086z
			 M166.6850586,95.546875v3.59375h1.0703125v-3.59375H166.6850586z M169.7709961,99.140625v-3.59375h-1.1015625v3.59375
			H169.7709961z M174.9663086,102.0703125c-0.7866211,1.40625-1.90625,2.6069336-3.359375,3.6015625l-0.71875-0.8359375
			c1.4736328-0.8696289,2.6455078-1.9658203,3.515625-3.2890625h-3.3046875v-0.9296875h3.8671875v-1.328125h-2.5390625v-4.15625
			h-1.328125V94.21875h1.328125v-2.2578125h0.9765625V94.21875h1.4375v-2.5h0.9609375v2.5h1.375v-2.5h0.9609375v2.5h1.546875
			v0.9140625h-1.546875v2.2890625h-3.296875v-2.2890625h-1.4375V98.375h5.9453125v0.9140625h-3.390625v1.328125h3.921875v0.9296875
			h-3.265625c0.9423828,1.1616211,2.0830078,2.125,3.421875,2.890625l-0.71875,0.9765625
			c-1.5419922-1.09375-2.6616211-2.21875-3.359375-3.375v4.078125h-0.9921875V102.0703125z M177.1772461,95.1328125h-1.375v1.4375
			h1.375V95.1328125z"/>
	</g>
</g>
<linearGradient id="SVGID_3_" gradientUnits="userSpaceOnUse" x1="101" y1="184.4501953" x2="101" y2="136.0869904">
	<stop  offset="0" style="stop-color:#FFFFFF;stop-opacity:0"/>
	<stop  offset="1" style="stop-color:#000000;stop-opacity:0.5"/>
</linearGradient>
<polygon fill="url(#SVGID_3_)" points="6,165.5 196,165.5 196,179 "/>
<g>
	<path fill="#B5B5B6" d="M21.7128906,124.2666016v-0.6118164h7.1098633v0.6118164
		c-0.2880859,1.0380859-0.8818359,1.8813477-1.7822266,2.5292969c-0.2280273,0.1621094-0.4677734,0.3056641-0.7197266,0.4316406
		l-0.3598633-0.5576172c1.0917969-0.5522461,1.7998047-1.3530273,2.1240234-2.4033203H21.7128906z M24.3676758,125.121582h0.684082
		c0,1.7402344-0.2519531,3.0151367-0.7558594,3.8251953c-0.3842773,0.6118164-0.9663086,1.0859375-1.7460938,1.421875
		l-0.3242188-0.5756836c0.7802734-0.3300781,1.3320313-0.8374023,1.65625-1.5209961
		C24.2055664,127.5698242,24.3676758,126.5200195,24.3676758,125.121582z"/>
	<path fill="#B5B5B6" d="M30.487793,126.6967773c1.6499023-0.2280273,3.2041016-0.7832031,4.6621094-1.6650391
		c0.8398438-0.5097656,1.5390625-1.0678711,2.0966797-1.6738281l0.4414063,0.4858398
		c-0.7021484,0.762207-1.5991211,1.4370117-2.6914063,2.0249023v4.6079102h-0.7290039v-4.2387695
		c-1.199707,0.5581055-2.4238281,0.9267578-3.671875,1.1069336L30.487793,126.6967773z"/>
	<path fill="#B5B5B6" d="M45.8779297,122.421875c0.5039063,0,0.9145508,0.1948242,1.2329102,0.5849609
		c0.2280273,0.2939453,0.3417969,0.6240234,0.3417969,0.9897461c0,0.5043945-0.1948242,0.9150391-0.5849609,1.2333984
		c-0.2880859,0.2338867-0.6181641,0.3505859-0.9897461,0.3505859h-0.0454102
		c-1.6679688,0.5644531-3.3925781,0.9931641-5.1748047,1.2871094v1.2958984c0,0.6123047,0.0991211,1.0112305,0.296875,1.1972656
		c0.1982422,0.1860352,0.5908203,0.2788086,1.1791992,0.2788086c1.4038086,0,2.7416992-0.0449219,4.0141602-0.1347656
		l0.0268555,0.6386719c-1.4282227,0.090332-2.7900391,0.1352539-4.0859375,0.1352539
		c-0.828125,0-1.3920898-0.1469727-1.6918945-0.440918c-0.2944336-0.3061523-0.4414063-0.8671875-0.4414063-1.6831055v-4.7158203
		h0.7021484v2.7626953c1.4638672-0.2397461,2.8647461-0.5698242,4.203125-0.9897461
		c-0.3720703-0.3242188-0.5610352-0.7290039-0.5668945-1.215332c0-0.5039063,0.1948242-0.9116211,0.5849609-1.2236328
		C45.1728516,122.5385742,45.5058594,122.421875,45.8779297,122.421875z M45.8779297,125.0678711
		c0.3779297,0,0.671875-0.15625,0.8818359-0.4682617c0.1201172-0.1855469,0.1801758-0.3867188,0.1801758-0.6030273
		c0-0.3837891-0.15625-0.6777344-0.4682617-0.8818359c-0.1801758-0.1201172-0.3779297-0.1801758-0.59375-0.1801758
		c-0.378418,0-0.6723633,0.1533203-0.8823242,0.4589844c-0.1259766,0.1860352-0.1889648,0.387207-0.1889648,0.6030273
		c0,0.378418,0.15625,0.6723633,0.4682617,0.8823242C45.4604492,125.0048828,45.6616211,125.0678711,45.8779297,125.0678711z"/>
	<path fill="#B5B5B6" d="M49.3427734,127.0927734l-0.9628906-0.5131836l0.2607422-0.5576172l0.684082,0.3598633
		c0.0058594,0,0.0991211,0.0332031,0.2788086,0.0991211l0.2431641,0.0087891h5.9311523v0.684082h-6.0478516
		c-0.0600586,0-0.1264648-0.0058594-0.1982422-0.0180664L49.3427734,127.0927734z"/>
	<path fill="#B5B5B6" d="M57.9018555,123.7988281h6.4257813v0.6298828h-2.8530273v4.8061523h3.1230469v0.6298828h-6.9658203
		v-0.6298828h3.1230469v-4.8061523h-2.8530273V123.7988281z"/>
	<path fill="#B5B5B6" d="M67.3427734,127.0927734l-0.9628906-0.5131836l0.2607422-0.5576172l0.684082,0.3598633
		c0.0058594,0,0.0991211,0.0332031,0.2788086,0.0991211l0.2431641,0.0087891h5.9311523v0.684082h-6.0478516
		c-0.0600586,0-0.1264648-0.0058594-0.1982422-0.0180664L67.3427734,127.0927734z"/>
</g>
<g>
	<g>
		<path fill="#727171" d="M24.1533203,146.7866211h-1.6728516v-13.449707h1.6728516V146.7866211z"/>
		<path fill="#727171" d="M27.8496094,133.3369141h3.9160156c3.4257813,0,5.1396484,1.2871094,5.1396484,3.8608398
			c0,2.7216797-1.7470703,4.0820313-5.2402344,4.0820313h-2.1611328v5.5068359h-1.6542969V133.3369141z M29.5039063,139.965332
			h1.8486328c2.5488281,0,3.8242188-0.9165039,3.8242188-2.7490234c0-1.6977539-1.1826172-2.5463867-3.5488281-2.5463867h-2.1240234
			V139.965332z"/>
		<path fill="#727171" d="M49.6845703,146.7866211h-1.8027344l-1.4892578-3.9624023h-5.4052734l-1.4619141,3.9624023h-1.7929688
			l5.3320313-13.5419922h1.3330078L49.6845703,146.7866211z M45.9238281,141.4912109l-1.3603516-3.5761719
			c-0.3740234-0.9990234-0.65625-1.902832-0.8457031-2.7119141h-0.0556641
			c-0.2207031,0.8579102-0.5087891,1.762207-0.8642578,2.7119141l-1.3330078,3.5761719H45.9238281z"/>
		<path fill="#727171" d="M51.7060547,134.6791992h11.859375v11.9331055h-1.5068359v-1.2963867H51.4951172v-1.4526367h10.5634766
			v-7.75H51.7060547V134.6791992z M64.21875,134.9916992c-0.4902344-0.8706055-1.0664063-1.6459961-1.7285156-2.3261719
			l1.0019531-0.6987305c0.6005859,0.5639648,1.2011719,1.3237305,1.8017578,2.2802734L64.21875,134.9916992z
			 M65.9560547,133.9433594c-0.5576172-0.8823242-1.1494141-1.6362305-1.7744141-2.2617188l1.0019531-0.6801758
			c0.6191406,0.5883789,1.2226563,1.3237305,1.8115234,2.206543L65.9560547,133.9433594z"/>
		<path fill="#727171" d="M72.2080078,140.2871094c-1.1894531-1.0175781-2.40625-1.8325195-3.6503906-2.4458008l0.8828125-1.2592773
			c1.3242188,0.6376953,2.5742188,1.434082,3.7509766,2.3901367L72.2080078,140.2871094z M69.5322266,145.5180664
			c5.4550781-1.1645508,9.5488281-4.1308594,12.2832031-8.8994141l1.0292969,1.1674805
			c-2.7275391,4.7626953-6.8496094,7.8300781-12.3652344,9.203125L69.5322266,145.5180664z M74.4326172,136.6005859
			c-1.1953125-1.0297852-2.3876953-1.8417969-3.5761719-2.4365234l0.8828125-1.2412109
			c1.1582031,0.5703125,2.3896484,1.3549805,3.6953125,2.3535156L74.4326172,136.6005859z"/>
		<path fill="#727171" d="M86.4121094,141.1328125c-0.4345703-1.3359375-0.9248047-2.503418-1.4707031-3.5029297l1.296875-0.6342773
			c0.625,1.0297852,1.1455078,2.1879883,1.5625,3.4750977L86.4121094,141.1328125z M86.8632813,145.8764648
			c2.2861328-0.7290039,4.0537109-1.902832,5.3046875-3.5209961c1.0664063-1.3603516,1.7890625-3.2788086,2.1689453-5.7548828
			l1.4892578,0.3491211c-0.4716797,2.8071289-1.4121094,5.050293-2.8222656,6.7294922
			c-1.1953125,1.4282227-2.9111328,2.5683594-5.1484375,3.4204102L86.8632813,145.8764648z M90.0253906,140.2133789
			c-0.3740234-1.3359375-0.8457031-2.4853516-1.4160156-3.4472656l1.3427734-0.6254883
			c0.6123047,1.0112305,1.109375,2.1484375,1.4892578,3.4111328L90.0253906,140.2133789z"/>
		<path fill="#727171" d="M109.7548828,134.6420898l1.0019531,0.7353516
			c-1.109375,5.7431641-4.2050781,9.828125-9.2851563,12.2553711l-1.0947266-1.2045898
			c2.3173828-0.9619141,4.2382813-2.375,5.7646484-4.2382813c1.4589844-1.7773438,2.4238281-3.8427734,2.8955078-6.1962891
			h-5.359375c-1.1650391,2.0595703-2.5957031,3.796875-4.2929688,5.2128906l-1.1132813-1.0297852
			c2.5380859-2.046875,4.3642578-4.7070313,5.4794922-7.9799805l1.453125,0.4135742
			c-0.1230469,0.4106445-0.3984375,1.0878906-0.828125,2.0317383H109.7548828z"/>
	</g>
	<g>
		<path fill="none" stroke="#727171" stroke-width="0.75" d="M24.1533203,146.7866211h-1.6728516v-13.449707h1.6728516V146.7866211z
			"/>
		<path fill="none" stroke="#727171" stroke-width="0.75" d="M27.8496094,133.3369141h3.9160156
			c3.4257813,0,5.1396484,1.2871094,5.1396484,3.8608398c0,2.7216797-1.7470703,4.0820313-5.2402344,4.0820313h-2.1611328v5.5068359
			h-1.6542969V133.3369141z M29.5039063,139.965332h1.8486328c2.5488281,0,3.8242188-0.9165039,3.8242188-2.7490234
			c0-1.6977539-1.1826172-2.5463867-3.5488281-2.5463867h-2.1240234V139.965332z"/>
		<path fill="none" stroke="#727171" stroke-width="0.75" d="M49.6845703,146.7866211h-1.8027344l-1.4892578-3.9624023h-5.4052734
			l-1.4619141,3.9624023h-1.7929688l5.3320313-13.5419922h1.3330078L49.6845703,146.7866211z M45.9238281,141.4912109
			l-1.3603516-3.5761719c-0.3740234-0.9990234-0.65625-1.902832-0.8457031-2.7119141h-0.0556641
			c-0.2207031,0.8579102-0.5087891,1.762207-0.8642578,2.7119141l-1.3330078,3.5761719H45.9238281z"/>
		<path fill="none" stroke="#727171" stroke-width="0.75" d="M51.7060547,134.6791992h11.859375v11.9331055h-1.5068359v-1.2963867
			H51.4951172v-1.4526367h10.5634766v-7.75H51.7060547V134.6791992z M64.21875,134.9916992
			c-0.4902344-0.8706055-1.0664063-1.6459961-1.7285156-2.3261719l1.0019531-0.6987305
			c0.6005859,0.5639648,1.2011719,1.3237305,1.8017578,2.2802734L64.21875,134.9916992z M65.9560547,133.9433594
			c-0.5576172-0.8823242-1.1494141-1.6362305-1.7744141-2.2617188l1.0019531-0.6801758
			c0.6191406,0.5883789,1.2226563,1.3237305,1.8115234,2.206543L65.9560547,133.9433594z"/>
		<path fill="none" stroke="#727171" stroke-width="0.75" d="M72.2080078,140.2871094
			c-1.1894531-1.0175781-2.40625-1.8325195-3.6503906-2.4458008l0.8828125-1.2592773
			c1.3242188,0.6376953,2.5742188,1.434082,3.7509766,2.3901367L72.2080078,140.2871094z M69.5322266,145.5180664
			c5.4550781-1.1645508,9.5488281-4.1308594,12.2832031-8.8994141l1.0292969,1.1674805
			c-2.7275391,4.7626953-6.8496094,7.8300781-12.3652344,9.203125L69.5322266,145.5180664z M74.4326172,136.6005859
			c-1.1953125-1.0297852-2.3876953-1.8417969-3.5761719-2.4365234l0.8828125-1.2412109
			c1.1582031,0.5703125,2.3896484,1.3549805,3.6953125,2.3535156L74.4326172,136.6005859z"/>
		<path fill="none" stroke="#727171" stroke-width="0.75" d="M86.4121094,141.1328125
			c-0.4345703-1.3359375-0.9248047-2.503418-1.4707031-3.5029297l1.296875-0.6342773
			c0.625,1.0297852,1.1455078,2.1879883,1.5625,3.4750977L86.4121094,141.1328125z M86.8632813,145.8764648
			c2.2861328-0.7290039,4.0537109-1.902832,5.3046875-3.5209961c1.0664063-1.3603516,1.7890625-3.2788086,2.1689453-5.7548828
			l1.4892578,0.3491211c-0.4716797,2.8071289-1.4121094,5.050293-2.8222656,6.7294922
			c-1.1953125,1.4282227-2.9111328,2.5683594-5.1484375,3.4204102L86.8632813,145.8764648z M90.0253906,140.2133789
			c-0.3740234-1.3359375-0.8457031-2.4853516-1.4160156-3.4472656l1.3427734-0.6254883
			c0.6123047,1.0112305,1.109375,2.1484375,1.4892578,3.4111328L90.0253906,140.2133789z"/>
		<path fill="none" stroke="#727171" stroke-width="0.75" d="M109.7548828,134.6420898l1.0019531,0.7353516
			c-1.109375,5.7431641-4.2050781,9.828125-9.2851563,12.2553711l-1.0947266-1.2045898
			c2.3173828-0.9619141,4.2382813-2.375,5.7646484-4.2382813c1.4589844-1.7773438,2.4238281-3.8427734,2.8955078-6.1962891
			h-5.359375c-1.1650391,2.0595703-2.5957031,3.796875-4.2929688,5.2128906l-1.1132813-1.0297852
			c2.5380859-2.046875,4.3642578-4.7070313,5.4794922-7.9799805l1.453125,0.4135742
			c-0.1230469,0.4106445-0.3984375,1.0878906-0.828125,2.0317383H109.7548828z"/>
	</g>
</g>
</svg>
