<?xml version="1.0" encoding="utf-8"?>
<!-- Generator: Adobe Illustrator 16.0.3, SVG Export Plug-In . SVG Version: 6.00 Build 0)  -->
<!DOCTYPE svg PUBLIC "-//W3C//DTD SVG 1.1//EN" "http://www.w3.org/Graphics/SVG/1.1/DTD/svg11.dtd">
<svg version="1.1" id="レイヤー_4" xmlns="http://www.w3.org/2000/svg" xmlns:xlink="http://www.w3.org/1999/xlink" x="0px"
	 y="0px" width="202px" height="185px" viewBox="0 0 202 185" enable-background="new 0 0 202 185" xml:space="preserve">
<g>
	<g>
		<path fill="#898989" d="M33.1484375,137.4384766h-0.0371094l-2.3564453,5.1547852h-2.8349609l-2.3569336-5.1547852h-0.0366211
			v8.2294922H22.5625v-13.4399414h3.203125l3.5532227,7.9169922h0.0371094l3.5532227-7.9169922h3.2768555v13.4399414h-3.0375977
			V137.4384766z"/>
		<path fill="#898989" d="M39.2607422,134.253418v-2.3935547h3.0932617v2.3935547H39.2607422z M39.2607422,145.6679688v-9.5732422
			h3.0932617v9.5732422H39.2607422z"/>
		<path fill="#898989" d="M48.4658203,135.9101563c1.1660156,0,2.1357422,0.503418,2.9086914,1.5097656h0.0371094
			l0.0551758-1.3251953h2.7246094v8.5239258c0,3.5224609-1.7856445,5.2836914-5.3574219,5.2836914
			c-1.1293945,0-2.203125-0.184082-3.2216797-0.5522461l0.4785156-2.1357422
			c0.8588867,0.355957,1.7304688,0.5341797,2.6142578,0.5341797c0.9326172,0,1.6015625-0.2304688,2.0068359-0.6904297
			c0.4047852-0.4604492,0.6074219-1.2612305,0.6074219-2.402832v-0.5151367h-0.0366211
			c-0.699707,0.8959961-1.6386719,1.34375-2.8168945,1.34375c-1.0800781,0-1.9790039-0.4296875-2.6972656-1.2885742
			c-0.7177734-0.859375-1.0771484-2.0253906-1.0771484-3.4980469c0-1.5219727,0.3408203-2.7001953,1.0219727-3.5351563
			C46.3945313,136.3276367,47.3120117,135.9101563,48.4658203,135.9101563z M47.4902344,140.6972656
			c0,0.8100586,0.1713867,1.4423828,0.5151367,1.8959961c0.34375,0.4545898,0.7919922,0.6811523,1.3442383,0.6811523
			c0.5766602,0,1.0371094-0.2143555,1.3808594-0.644043c0.3432617-0.4296875,0.5151367-1.043457,0.5151367-1.8413086v-0.184082
			c0-0.7851563-0.171875-1.3959961-0.5151367-1.831543c-0.34375-0.4355469-0.8041992-0.6538086-1.3808594-0.6538086
			c-0.5893555,0-1.046875,0.2182617-1.371582,0.6538086C47.6523438,139.2089844,47.4902344,139.8500977,47.4902344,140.6972656z"/>
		<path fill="#898989" d="M59.4379883,136.0947266v5.5229492c0,0.7612305,0.0922852,1.2734375,0.2763672,1.5371094
			c0.184082,0.2641602,0.5029297,0.3959961,0.9575195,0.3959961c0.4663086,0,0.8862305-0.2421875,1.2607422-0.7270508
			s0.5615234-1.0522461,0.5615234-1.703125v-5.0258789h2.9458008v9.5732422h-2.7431641l-0.0551758-1.3256836h-0.0366211
			c-0.3564453,0.4667969-0.7983398,0.8349609-1.3256836,1.1049805c-0.527832,0.2695313-1.0678711,0.4047852-1.6201172,0.4047852
			c-1.0927734,0-1.887207-0.2973633-2.3842773-0.8930664c-0.4970703-0.5952148-0.7456055-1.6044922-0.7456055-3.0283203v-5.8359375
			H59.4379883z"/>
		<path fill="#898989" d="M68.4951172,133.2324219h12.4482422v0.4160156c0,3.7973633-0.8696289,6.6396484-2.6079102,8.527832
			c-1.7387695,1.8881836-4.4375,2.9921875-8.0961914,3.3120117l-0.4799805-2.3837891
			c2.7304688-0.2456055,4.746582-0.9360352,6.0478516-2.0722656c1.3012695-1.1357422,2.074707-2.9199219,2.3203125-5.3520508
			h-9.6323242V133.2324219z"/>
		<path fill="#898989" d="M81.9194336,136.4960938h6.1757813V134.65625h2.1918945v1.8398438h2.3203125v1.9682617h-2.3203125
			v4.5917969c0,0.5976563-0.0185547,1.034668-0.0556641,1.3120117c-0.0375977,0.277832-0.1523438,0.5068359-0.3442383,0.6879883
			s-0.4321289,0.2880859-0.7197266,0.3203125c-0.2880859,0.0317383-0.7416992,0.0478516-1.3603516,0.0478516
			c-0.5439453,0-1.253418-0.0429688-2.1279297-0.1279297l0.1279297-1.8720703
			c0.8535156,0.0854492,1.4453125,0.1279297,1.7763672,0.1279297c0.234375,0,0.378418-0.0263672,0.4316406-0.0800781
			c0.0532227-0.0532227,0.0800781-0.1972656,0.0800781-0.4316406v-2.65625
			c-1.6855469,1.4399414-3.4399414,2.6777344-5.2641602,3.7119141l-1.0400391-1.7597656
			c1.7924805-0.9814453,3.5786133-2.2719727,5.3603516-3.8720703h-5.2319336V136.4960938z"/>
		<path fill="#898989" d="M93.8388672,134.9604492l1.2324219-2.3203125
			c1.5571289,0.7041016,3.2211914,1.5307617,4.9916992,2.4799805l-1.2958984,2.3203125
			C96.9853516,136.4912109,95.3432617,135.6640625,93.8388672,134.9604492z M104.4472656,134.2084961l2.4477539,0.5439453
			c-0.5654297,3.2211914-1.8535156,5.6879883-3.8637695,7.3999023c-2.0107422,1.7119141-4.8295898,2.7280273-8.4560547,3.0478516
			l-0.3999023-2.5117188c3.0717773-0.3095703,5.4101563-1.128418,7.015625-2.4560547
			C102.7963867,138.9042969,103.8813477,136.8964844,104.4472656,134.2084961z"/>
		<path fill="#898989" d="M109.4233398,132.3681641h2.7197266v4.4160156
			c2.890625,0.7041016,5.7602539,1.5737305,8.6079102,2.6079102l-0.8320313,2.4482422
			c-2.6987305-0.9707031-5.2905273-1.7705078-7.7758789-2.3999023v6.2719727h-2.7197266V132.3681641z"/>
	</g>
</g>
<g>
	<path fill="#B5B5B6" d="M22.296875,126.734375l0.0361328-0.7016602c2.1962891,0.0776367,4.4160156,0.3178711,6.6601563,0.7197266
		l-0.0898438,0.7021484C26.6831055,127.0527344,24.480957,126.8125,22.296875,126.734375z M22.7202148,121.2172852
		l0.0356445-0.6835938c2.0161133,0.0717773,3.9990234,0.2519531,5.9492188,0.5400391l-0.0810547,0.6835938
		C26.6621094,121.4697266,24.6938477,121.2895508,22.7202148,121.2172852z M23.0532227,123.8364258l0.0449219-0.7021484
		c1.7338867,0.0722656,3.4526367,0.2583008,5.1567383,0.5581055l-0.0986328,0.7021484
		C26.3979492,124.0883789,24.6967773,123.902832,23.0532227,123.8364258z"/>
	<path fill="#B5B5B6" d="M36.5800781,120.1103516l0.4951172-0.2607422c0.2519531,0.4082031,0.5039063,0.8549805,0.7558594,1.3408203
		l-0.3149414,0.152832c-0.0058594,2.1782227-0.5878906,3.7563477-1.7460938,4.734375
		c-0.9482422,0.7861328-2.3461914,1.2597656-4.1938477,1.421875l-0.0991211-0.6298828
		c1.8959961-0.1743164,3.2519531-0.6782227,4.0678711-1.512207c0.75-0.7797852,1.1611328-1.9467773,1.2333984-3.5009766h-3.5102539
		c-0.3481445,0.984375-0.9360352,1.8632813-1.7641602,2.637207l-0.4770508-0.4321289
		c1.0683594-1.0019531,1.7041016-2.237793,1.9082031-3.7080078c0.0058594-0.0541992,0.012207-0.1049805,0.0180664-0.152832
		l0.6748047,0.0449219c-0.0356445,0.3598633-0.0927734,0.6870117-0.1708984,0.980957h3.762207
		C37.0029297,120.8183594,36.7900391,120.4467773,36.5800781,120.1103516z M37.7949219,119.9575195l0.5043945-0.2612305
		c0.2695313,0.4443359,0.527832,0.9003906,0.7739258,1.3681641l-0.5043945,0.2519531
		C38.3051758,120.8183594,38.046875,120.3657227,37.7949219,119.9575195z"/>
</g>
<rect x="6" y="6" fill="none" stroke="#C9CACA" stroke-width="0.5" stroke-miterlimit="10" width="190" height="159.5"/>
<g>
	<defs>
		<rect id="SVGID_1_" x="20.6147461" y="23" width="140.8852539" height="100"/>
	</defs>
	<clipPath id="SVGID_2_">
		<use xlink:href="#SVGID_1_"  overflow="visible"/>
	</clipPath>
	<g clip-path="url(#SVGID_2_)">
		<path fill="#595757" d="M25.6865234,42V31.7441406h-0.0317383l-3.2802734,2.6557617v-1.4077148l3.3120117-2.6723633h1.2802734V42
			H25.6865234z"/>
		<path fill="#595757" d="M32.2944336,40.6557617c0.800293,0.2880859,1.6376953,0.4321289,2.512207,0.4321289
			c1.4614258,0,2.4638672-0.6826172,3.0078125-2.0478516c0.2456055-0.6503906,0.3789063-1.418457,0.4003906-2.3041992
			l-0.0322266-0.015625C37.5,37.6269531,36.4707031,38.0908203,35.0947266,38.1118164
			c-1.4614258,0-2.5229492-0.5380859-3.184082-1.6157227c-0.4052734-0.6611328-0.6079102-1.4560547-0.6079102-2.3842773
			c0-1.4399414,0.5224609-2.5170898,1.5678711-3.2319336c0.7041016-0.4799805,1.5522461-0.7197266,2.5439453-0.7197266
			c2.4853516,0,3.855957,1.3813477,4.1123047,4.144043c0.0317383,0.3198242,0.0478516,0.6455078,0.0478516,0.9755859
			c0,4.277832-1.3759766,6.5600586-4.1279297,6.8481445c-0.2133789,0.0214844-0.4267578,0.0322266-0.6401367,0.0322266
			c-0.8535156,0-1.690918-0.1230469-2.512207-0.3681641V40.6557617z M35.4145508,31.2319336
			c-1.1733398,0-2,0.4375-2.4799805,1.3120117c-0.2348633,0.4482422-0.3520508,0.9707031-0.3520508,1.5678711
			c0,1.2587891,0.4375,2.1391602,1.3120117,2.6401367c0.4267578,0.2456055,0.9174805,0.3681641,1.472168,0.3681641
			c1.0771484,0,1.8774414-0.4052734,2.3999023-1.2163086c0.309082-0.4799805,0.4638672-1.0449219,0.4638672-1.6958008
			c0-0.8422852-0.2612305-1.5571289-0.7836914-2.144043C36.9238281,31.5092773,36.246582,31.2319336,35.4145508,31.2319336z"/>
		<path fill="#595757" d="M45.3344727,30.1601563c1.6108398,0,2.6933594,0.5546875,3.2480469,1.6640625
			c0.234375,0.4799805,0.3520508,1.0292969,0.3520508,1.6479492c0,1.109375-0.4321289,2.2294922-1.2958984,3.3598633
			c-0.800293,1.0668945-2.1655273,2.4213867-4.0961914,4.0639648v0.0322266h5.4399414V42h-7.199707v-1.0717773
			c2.6665039-2.2080078,4.378418-3.9145508,5.1357422-5.1201172c0.4692383-0.7573242,0.7041016-1.5039063,0.7041016-2.2402344
			c0-1.3330078-0.6186523-2.090332-1.855957-2.2719727c-0.1918945-0.0317383-0.3896484-0.0478516-0.5917969-0.0478516
			c-1.0351563,0.0107422-2.0859375,0.3198242-3.1523438,0.9277344v-1.2475586
			C43.0146484,30.4160156,44.1186523,30.1601563,45.3344727,30.1601563z"/>
		<path fill="#595757" d="M55.3344727,30.1601563c2.3251953,0,3.6850586,1.3544922,4.0800781,4.0639648
			c0.0854492,0.5864258,0.1279297,1.2319336,0.1279297,1.9360352c0,3.7333984-1.2158203,5.7226563-3.6479492,5.9677734
			c-0.1816406,0.0214844-0.3681641,0.0322266-0.5600586,0.0322266c-2.3256836,0-3.6855469-1.3544922-4.0800781-4.0639648
			c-0.0854492-0.5869141-0.1279297-1.2324219-0.1279297-1.9360352c0-3.7333984,1.2158203-5.7226563,3.6479492-5.9682617
			C54.9555664,30.1708984,55.1425781,30.1601563,55.3344727,30.1601563z M52.6943359,38.8637695l5.1679688-5.7758789
			c-0.4584961-1.2480469-1.3012695-1.8769531-2.527832-1.8876953c-1.3974609,0-2.293457,0.8051758-2.6879883,2.4160156
			c-0.1601563,0.6826172-0.2397461,1.5307617-0.2397461,2.5439453
			C52.4067383,37.2587891,52.5024414,38.1601563,52.6943359,38.8637695z M52.8706055,39.3920898
			c0.4692383,1.1416016,1.2905273,1.7172852,2.4638672,1.7280273c1.3974609,0,2.293457-0.8051758,2.6879883-2.4160156
			c0.1601563-0.6933594,0.2402344-1.5415039,0.2402344-2.5439453s-0.0800781-1.8452148-0.2402344-2.5283203L52.8706055,39.3920898z"
			/>
		<path fill="#595757" d="M62.5664063,33.6801758l2.0800781,3.3120117h0.0317383l2.0961914-3.3120117h1.3442383
			l-2.7680664,4.0957031L68.1982422,42h-1.3916016l-2.1601563-3.4399414h-0.0322266L62.4384766,42h-1.3442383l2.8481445-4.2241211
			l-2.7680664-4.0957031H62.5664063z"/>
		<path fill="#595757" d="M74.0703125,42V31.7441406h-0.0317383l-3.2802734,2.6557617v-1.4077148l3.3120117-2.6723633h1.2802734V42
			H74.0703125z"/>
		<path fill="#595757" d="M83.878418,30.1601563c2.3251953,0,3.6850586,1.3544922,4.0800781,4.0639648
			c0.0854492,0.5864258,0.1279297,1.2319336,0.1279297,1.9360352c0,3.7333984-1.2158203,5.7226563-3.6479492,5.9677734
			c-0.1816406,0.0214844-0.3681641,0.0322266-0.5600586,0.0322266c-2.3256836,0-3.6855469-1.3544922-4.0800781-4.0639648
			c-0.0854492-0.5869141-0.1279297-1.2324219-0.1279297-1.9360352c0-3.7333984,1.2158203-5.7226563,3.6479492-5.9682617
			C83.4995117,30.1708984,83.6865234,30.1601563,83.878418,30.1601563z M81.2382813,38.8637695l5.1679688-5.7758789
			c-0.4584961-1.2480469-1.3012695-1.8769531-2.527832-1.8876953c-1.3974609,0-2.293457,0.8051758-2.6879883,2.4160156
			c-0.1601563,0.6826172-0.2397461,1.5307617-0.2397461,2.5439453
			C80.9506836,37.2587891,81.0463867,38.1601563,81.2382813,38.8637695z M81.4145508,39.3920898
			c0.4692383,1.1416016,1.2905273,1.7172852,2.4638672,1.7280273c1.3974609,0,2.293457-0.8051758,2.6879883-2.4160156
			c0.1601563-0.6933594,0.2402344-1.5415039,0.2402344-2.5439453s-0.0800781-1.8452148-0.2402344-2.5283203L81.4145508,39.3920898z"
			/>
		<path fill="#595757" d="M93.7983398,30.1601563c1.5786133,0,2.6879883,0.4375,3.328125,1.3120117
			c0.309082,0.4375,0.4638672,0.9331055,0.4638672,1.487793c0,1.2373047-0.6933594,2.1279297-2.0800781,2.671875
			c-0.0639648,0.0214844-0.1171875,0.0429688-0.159668,0.0639648v0.0322266
			c1.7597656,0.5336914,2.6450195,1.5732422,2.6557617,3.1201172c0,1.2695313-0.5546875,2.1918945-1.6640625,2.7680664
			c-0.7041016,0.3623047-1.5517578,0.5439453-2.5439453,0.5439453c-1.7387695,0-2.9599609-0.5014648-3.6640625-1.5043945
			c-0.362793-0.5117188-0.5439453-1.1142578-0.5439453-1.8076172c0-1.1201172,0.5654297-1.9946289,1.6962891-2.6240234
			c0.2983398-0.1601563,0.6181641-0.293457,0.9599609-0.3999023v-0.0322266
			c-1.1738281-0.4370117-1.8881836-1.1411133-2.144043-2.1118164c-0.0639648-0.2348633-0.0961914-0.4746094-0.0961914-0.7202148
			c0-1.0454102,0.4960938-1.8183594,1.487793-2.3198242C92.1235352,30.3198242,92.8916016,30.1601563,93.7983398,30.1601563z
			 M93.7504883,36.2880859c-1.7177734,0.3520508-2.6826172,1.0507813-2.8959961,2.0957031
			c-0.0322266,0.1391602-0.0483398,0.277832-0.0483398,0.4160156c0,0.9921875,0.4746094,1.6801758,1.4243164,2.0639648
			c0.4477539,0.1816406,0.9702148,0.2724609,1.5678711,0.2724609c1.3442383,0,2.2451172-0.4160156,2.7041016-1.2480469
			c0.1704102-0.3305664,0.2558594-0.6933594,0.2558594-1.0883789c0-1.2905273-0.9916992-2.1279297-2.9760742-2.5117188
			C93.7714844,36.2880859,93.7607422,36.2880859,93.7504883,36.2880859z M93.7983398,35.2797852
			c1.3012695-0.2661133,2.1225586-0.7836914,2.4638672-1.5517578c0.0854492-0.2133789,0.1279297-0.4321289,0.1279297-0.65625
			c0-0.831543-0.4316406-1.3969727-1.2958984-1.6958008c-0.3837891-0.1279297-0.815918-0.1918945-1.2958984-0.1918945
			c-1.2480469,0-2.0478516,0.3735352-2.3999023,1.1201172c-0.1069336,0.234375-0.1601563,0.4907227-0.1601563,0.7675781
			c0,0.8320313,0.4960938,1.4619141,1.4882813,1.8881836C93.0463867,35.0986328,93.4038086,35.2055664,93.7983398,35.2797852z"/>
		<path fill="#595757" d="M103.7182617,30.1601563c2.3251953,0,3.6850586,1.3544922,4.0800781,4.0639648
			c0.0854492,0.5864258,0.1279297,1.2319336,0.1279297,1.9360352c0,3.7333984-1.2158203,5.7226563-3.6479492,5.9677734
			c-0.1816406,0.0214844-0.3681641,0.0322266-0.5600586,0.0322266c-2.3256836,0-3.6855469-1.3544922-4.0800781-4.0639648
			c-0.0854492-0.5869141-0.1279297-1.2324219-0.1279297-1.9360352c0-3.7333984,1.2158203-5.7226563,3.6479492-5.9682617
			C103.3393555,30.1708984,103.5263672,30.1601563,103.7182617,30.1601563z M101.078125,38.8637695l5.1679688-5.7758789
			c-0.4584961-1.2480469-1.3012695-1.8769531-2.527832-1.8876953c-1.3974609,0-2.293457,0.8051758-2.6879883,2.4160156
			c-0.1601563,0.6826172-0.2397461,1.5307617-0.2397461,2.5439453
			C100.7905273,37.2587891,100.8862305,38.1601563,101.078125,38.8637695z M101.2543945,39.3920898
			c0.4692383,1.1416016,1.2905273,1.7172852,2.4638672,1.7280273c1.3974609,0,2.293457-0.8051758,2.6879883-2.4160156
			c0.1601563-0.6933594,0.2402344-1.5415039,0.2402344-2.5439453s-0.0800781-1.8452148-0.2402344-2.5283203L101.2543945,39.3920898z
			"/>
		<path fill="#595757" d="M109.878418,33.6801758h1.1518555l0.0317383,1.199707h0.0322266
			c0.7143555-0.90625,1.6103516-1.3598633,2.6879883-1.3598633c1.3442383,0,2.2983398,0.5976563,2.8637695,1.7919922
			c0.3305664,0.6933594,0.4960938,1.5361328,0.4960938,2.527832c0,1.6855469-0.4799805,2.9121094-1.4399414,3.6801758
			c-0.5546875,0.4267578-1.1948242,0.6401367-1.9199219,0.6401367c-1.109375-0.0107422-1.9897461-0.4267578-2.6401367-1.2480469
			h-0.0317383v4.6079102h-1.2319336V33.6801758z M115.9101563,37.8398438
			c-0.0107422-2.2290039-0.8105469-3.3491211-2.3999023-3.3598633c-0.7680664,0-1.402832,0.2988281-1.9038086,0.8959961
			c-0.3310547,0.4057617-0.4960938,0.8481445-0.4960938,1.328125v2.2719727c0,0.7148438,0.3144531,1.2958984,0.9438477,1.7441406
			c0.4482422,0.3198242,0.9331055,0.4799805,1.4560547,0.4799805c1.1625977,0,1.9091797-0.6347656,2.2397461-1.9042969
			C115.8569336,38.8696289,115.9101563,38.3837891,115.9101563,37.8398438z"/>
		<path fill="#595757" d="M123.7016602,42v-1.0878906h1.3598633v-9.5039063h-1.3598633v-1.0883789h1.3598633h1.2802734h1.3598633
			v1.0883789h-1.3598633v9.5039063h1.3598633V42H123.7016602z"/>
		<path fill="#595757" d="M133.9414063,42.0322266h-1.6162109c-0.4799805,0-0.8427734-0.21875-1.0878906-0.65625
			c-0.1176758-0.2133789-0.1762695-0.4370117-0.1762695-0.671875V30.1601563h1.2802734v9.8720703
			c0,0.3945313,0.1279297,0.6293945,0.3837891,0.7036133c0.0424805,0.0107422,0.1225586,0.0268555,0.2402344,0.0483398
			l0.9760742,0.0639648V42.0322266z"/>
		<path fill="#595757" d="M139.8613281,42.0322266h-1.6162109c-0.4799805,0-0.8427734-0.21875-1.0878906-0.65625
			c-0.1176758-0.2133789-0.1762695-0.4370117-0.1762695-0.671875V30.1601563h1.2802734v9.8720703
			c0,0.3945313,0.1279297,0.6293945,0.3837891,0.7036133c0.0424805,0.0107422,0.1225586,0.0268555,0.2402344,0.0483398
			l0.9760742,0.0639648V42.0322266z"/>
		<path fill="#595757" d="M142.1811523,33.6801758h1.199707v5.0078125c0,1.2695313,0.2880859,2.0478516,0.8642578,2.3359375
			c0.2451172,0.1176758,0.5600586,0.1762695,0.9438477,0.1762695c0.6293945,0,1.2050781-0.2827148,1.7280273-0.8481445
			c0.4375-0.4799805,0.6611328-0.9863281,0.671875-1.5200195v-5.1518555h1.2319336V42h-1.1518555l-0.0161133-1.2480469h-0.0317383
			c-0.7358398,0.9282227-1.6533203,1.3974609-2.7519531,1.4082031c-1.2587891,0-2.0698242-0.4907227-2.4321289-1.472168
			c-0.1708984-0.4799805-0.2558594-1.0932617-0.2558594-1.8398438V33.6801758z"/>
		<path fill="#595757" d="M154.1328125,34.4799805c-1.2587891,0.0214844-1.8984375,0.4321289-1.9199219,1.2319336
			c0,0.5439453,0.2988281,0.949707,0.8959961,1.2163086c0.2451172,0.1064453,0.5385742,0.1972656,0.8798828,0.2719727
			c1.4189453,0.3198242,2.3203125,0.7734375,2.7041016,1.3598633c0.2133789,0.3413086,0.3203125,0.7788086,0.3203125,1.3120117
			c0,1.0136719-0.5175781,1.6958008-1.5522461,2.0478516c-0.4584961,0.1601563-0.9916992,0.2402344-1.6000977,0.2402344
			c-0.9916992,0-1.8984375-0.1762695-2.7197266-0.5283203v-1.0239258c0.8530273,0.3950195,1.7280273,0.5922852,2.6240234,0.5922852
			c1.3330078-0.0107422,2.0048828-0.4536133,2.015625-1.328125c0-0.5654297-0.2983398-0.9863281-0.8959961-1.2641602
			c-0.2773438-0.1279297-0.6186523-0.2397461-1.0239258-0.3359375c-1.5463867-0.3623047-2.4638672-0.9331055-2.7519531-1.7119141
			c-0.0854492-0.2241211-0.1279297-0.4746094-0.1279297-0.7519531c0-0.9921875,0.4907227-1.6748047,1.472168-2.0483398
			c0.4584961-0.159668,0.9863281-0.2397461,1.5839844-0.2397461c0.8959961,0,1.7919922,0.144043,2.6879883,0.4321289v1.0239258
			C155.8393555,34.6455078,154.9755859,34.4799805,154.1328125,34.4799805z"/>
		<path fill="#595757" d="M161.78125,30.9599609V34h3.0239258v0.9599609H161.78125v4.3681641
			c0,0.8959961,0.159668,1.4560547,0.4799805,1.6796875c0.2133789,0.128418,0.5439453,0.1923828,0.9916992,0.1923828
			c0.4907227,0,0.9335938-0.074707,1.328125-0.2241211v0.9916992c-0.5014648,0.128418-1.0131836,0.1923828-1.5361328,0.1923828
			c-1.0556641,0-1.7495117-0.2563477-2.0795898-0.7680664c-0.2670898-0.4160156-0.4003906-1.0664063-0.4003906-1.9521484v-4.4799805
			h-1.7919922V34h1.7919922v-3.0400391H161.78125z"/>
		<path fill="#595757" d="M167.2055664,33.6801758h1.2158203v1.855957h0.0322266
			c0.5224609-0.8852539,1.3330078-1.4614258,2.4316406-1.7280273c0.3735352-0.0854492,0.746582-0.1279297,1.1201172-0.1279297
			h0.3198242v1.0717773h-0.3198242c-1.6000977,0-2.6669922,0.5708008-3.2001953,1.7119141
			c-0.2133789,0.4589844-0.3198242,0.9921875-0.3198242,1.6000977V42h-1.2797852V33.6801758z"/>
		<path fill="#595757" d="M179.3974609,36.7202148v-0.4321289c0-0.8105469-0.2504883-1.328125-0.7519531-1.5522461
			c-0.3095703-0.1381836-0.7358398-0.2080078-1.2797852-0.2080078c-0.9067383,0-1.8720703,0.203125-2.8959961,0.6083984v-1.1040039
			c0.9599609-0.3413086,1.925293-0.512207,2.8959961-0.512207c1.3759766,0,2.2880859,0.2988281,2.7358398,0.8959961
			c0.3520508,0.4697266,0.527832,1.2001953,0.527832,2.1918945V42h-1.1518555l-0.0317383-1.4238281h-0.0322266
			c-0.7041016,1.0131836-1.6855469,1.5410156-2.9438477,1.5839844c-0.949707,0-1.6479492-0.362793-2.0961914-1.0883789
			c-0.2456055-0.4160156-0.3681641-0.8901367-0.3681641-1.4238281c0-1.4506836,0.8481445-2.3623047,2.5444336-2.7358398
			c0.5541992-0.1279297,1.1835938-0.1918945,1.8876953-0.1918945H179.3974609z M179.3974609,37.6000977H178.4375
			c-1.8452148,0-2.8959961,0.5014648-3.1518555,1.5039063c-0.0322266,0.1494141-0.0478516,0.2988281-0.0478516,0.4477539
			c0,0.7148438,0.2719727,1.2001953,0.815918,1.4560547c0.2128906,0.0961914,0.4370117,0.144043,0.671875,0.144043
			c0.9492188,0,1.6743164-0.3623047,2.1757813-1.0878906c0.3305664-0.4902344,0.4960938-1.0610352,0.4960938-1.7119141V37.6000977z"
			/>
		<path fill="#595757" d="M185.5576172,30.9599609V34h3.0239258v0.9599609h-3.0239258v4.3681641
			c0,0.8959961,0.159668,1.4560547,0.4799805,1.6796875c0.2133789,0.128418,0.5439453,0.1923828,0.9916992,0.1923828
			c0.4907227,0,0.9335938-0.074707,1.328125-0.2241211v0.9916992c-0.5014648,0.128418-1.0131836,0.1923828-1.5361328,0.1923828
			c-1.0556641,0-1.7495117-0.2563477-2.0795898-0.7680664c-0.2670898-0.4160156-0.4003906-1.0664063-0.4003906-1.9521484v-4.4799805
			h-1.7919922V34h1.7919922v-3.0400391H185.5576172z"/>
		<path fill="#595757" d="M191.621582,31.7119141V30h1.2802734v1.7119141H191.621582z M191.621582,42v-8.3198242h1.2802734V42
			H191.621582z"/>
		<path fill="#595757" d="M199.1899414,33.5200195c1.5888672,0,2.6982422,0.6401367,3.3276367,1.9199219
			c0.3203125,0.671875,0.4799805,1.472168,0.4799805,2.3999023c0,1.8774414-0.6079102,3.1577148-1.8237305,3.840332
			c-0.5654297,0.3198242-1.2270508,0.4799805-1.9838867,0.4799805c-1.5898438,0-2.6992188-0.6401367-3.328125-1.9199219
			c-0.3203125-0.6723633-0.4799805-1.472168-0.4799805-2.4003906c0-1.8769531,0.6079102-3.1572266,1.8237305-3.8398438
			C197.7709961,33.6801758,198.4321289,33.5200195,199.1899414,33.5200195z M199.1899414,41.2001953
			c1.5571289,0,2.4047852-0.9335938,2.5439453-2.800293c0.0102539-0.1811523,0.015625-0.3676758,0.015625-0.5600586
			c0-2.144043-0.7836914-3.2636719-2.3520508-3.3598633c-0.074707,0-0.1435547,0-0.2075195,0
			c-1.5576172,0-2.4057617,0.9335938-2.5444336,2.7998047c-0.0107422,0.1816406-0.015625,0.3681641-0.015625,0.5600586
			c0,2.144043,0.7836914,3.2641602,2.3520508,3.3603516C199.0561523,41.2001953,199.1254883,41.2001953,199.1899414,41.2001953z"/>
		<path fill="#595757" d="M205.9897461,33.6801758l0.0161133,1.2480469h0.0317383
			c0.7680664-0.9282227,1.6855469-1.3974609,2.7519531-1.4082031c1.2480469,0,2.0639648,0.4638672,2.4482422,1.3920898
			c0.2133789,0.5332031,0.3198242,1.2426758,0.3198242,2.1279297V42h-1.199707v-4.7998047
			c0-1.3120117-0.2509766-2.1333008-0.7524414-2.4643555c-0.2773438-0.1704102-0.6557617-0.2558594-1.1357422-0.2558594
			c-0.5976563,0-1.1679688,0.2880859-1.7119141,0.8642578c-0.4482422,0.5014648-0.6777344,1.0024414-0.6879883,1.5039063V42
			h-1.2319336v-8.3198242H205.9897461z"/>
		<path fill="#595757" d="M216.7890625,34.4799805c-1.2587891,0.0214844-1.8984375,0.4321289-1.9199219,1.2319336
			c0,0.5439453,0.2988281,0.949707,0.8959961,1.2163086c0.2451172,0.1064453,0.5385742,0.1972656,0.8798828,0.2719727
			c1.4189453,0.3198242,2.3203125,0.7734375,2.7041016,1.3598633c0.2133789,0.3413086,0.3203125,0.7788086,0.3203125,1.3120117
			c0,1.0136719-0.5175781,1.6958008-1.5522461,2.0478516c-0.4584961,0.1601563-0.9916992,0.2402344-1.6000977,0.2402344
			c-0.9916992,0-1.8984375-0.1762695-2.7197266-0.5283203v-1.0239258c0.8530273,0.3950195,1.7280273,0.5922852,2.6240234,0.5922852
			c1.3330078-0.0107422,2.0048828-0.4536133,2.015625-1.328125c0-0.5654297-0.2983398-0.9863281-0.8959961-1.2641602
			c-0.2773438-0.1279297-0.6186523-0.2397461-1.0239258-0.3359375c-1.5463867-0.3623047-2.4638672-0.9331055-2.7519531-1.7119141
			c-0.0854492-0.2241211-0.1279297-0.4746094-0.1279297-0.7519531c0-0.9921875,0.4907227-1.6748047,1.472168-2.0483398
			c0.4584961-0.159668,0.9863281-0.2397461,1.5839844-0.2397461c0.8959961,0,1.7919922,0.144043,2.6879883,0.4321289v1.0239258
			C218.4956055,34.6455078,217.6318359,34.4799805,216.7890625,34.4799805z"/>
		<path fill="#595757" d="M23.71875,52.0878906c-0.4482422,1.6855469-0.6777344,3.4560547-0.6879883,5.3120117
			c0,1.6430664,0.3466797,2.9814453,1.0400391,4.0161133c0.4052734,0.5869141,0.7998047,0.8852539,1.184082,0.8959961
			c0.4052734,0,0.9008789-0.4213867,1.487793-1.2641602c0.4907227-0.7250977,0.9438477-1.6264648,1.3598633-2.7036133
			l1.1201172,0.4316406c-0.6826172,1.9306641-1.5576172,3.3173828-2.6240234,4.1601563
			c-0.5117188,0.3945313-0.9868164,0.5917969-1.4238281,0.5917969c-0.7148438,0-1.3920898-0.4584961-2.0322266-1.3759766
			c-0.8427734-1.2050781-1.2851563-2.7143555-1.3276367-4.527832c0-0.0854492,0-0.1601563,0-0.2241211
			c0-2.0263672,0.2397461-3.8505859,0.7197266-5.4716797L23.71875,52.0878906z M31.1586914,52.2319336l1.1201172-0.3837891
			c1.2480469,2.3466797,1.9731445,5.1733398,2.1757813,8.4799805c0.0322266,0.5224609,0.0483398,1.0400391,0.0483398,1.5517578
			h-1.2324219c0-3.0610352-0.5063477-5.8505859-1.5195313-8.3676758
			C31.5585938,53.0537109,31.3613281,52.6269531,31.1586914,52.2319336z"/>
		<path fill="#595757" d="M47.6064453,52.3759766l-6.2719727,3.855957l0.0161133,0.0322266
			c1.0986328-0.3413086,2.1333008-0.512207,3.1040039-0.512207c3.0400391,0,4.6186523,1.0454102,4.7358398,3.1362305
			c0,0.0854492,0,0.1655273,0,0.2397461c0,2.8056641-1.9677734,4.2666016-5.9038086,4.3842773c-0.1708984,0-0.3413086,0-0.512207,0
			c-0.9384766,0-1.9892578-0.0639648-3.1518555-0.1923828l0.0161133-1.1196289
			c1.0454102,0.1279297,2.0639648,0.1918945,3.0561523,0.1918945c3.434082-0.0107422,5.1572266-1.0615234,5.1679688-3.1518555
			c0-1.3227539-0.7841797-2.1176758-2.3520508-2.3842773c-0.4267578-0.0639648-0.9067383-0.0961914-1.4399414-0.0961914
			c-1.7387695,0-3.6694336,0.5283203-5.7919922,1.5844727c-0.3095703,0.1494141-0.6137695,0.309082-0.9121094,0.4799805
			l-0.4638672-0.8803711l8.527832-5.5839844V52.328125h-7.1679688v-1.0400391h9.2797852L47.6064453,52.3759766z"/>
		<path fill="#595757" d="M53.8945313,50.8720703c-0.5224609,1.9946289-0.7836914,4.1171875-0.7836914,6.3681641
			c0,2.2719727,0.2612305,4.3945313,0.7836914,6.3676758l-1.1518555,0.1601563
			c-0.5336914-2.0371094-0.800293-4.2133789-0.800293-6.527832c0-2.3364258,0.2666016-4.512207,0.800293-6.5283203
			L53.8945313,50.8720703z M65.2387695,54.2001953h-2.8320313v5.2319336
			c0.7890625,0.5439453,1.7382813,1.3706055,2.8476563,2.4799805l-0.815918,0.7998047
			c-0.7680664-0.7783203-1.4453125-1.4077148-2.0317383-1.8876953c-0.0961914,1.9414063-1.1469727,2.9169922-3.1523438,2.9277344
			c-1.6533203,0-2.7250977-0.5336914-3.2158203-1.6000977c-0.1601563-0.3623047-0.2397461-0.7729492-0.2397461-1.2319336
			c0-1.2265625,0.6181641-2.0263672,1.855957-2.3999023c0.4692383-0.1386719,1.0024414-0.2080078,1.5996094-0.2080078
			c0.6723633,0,1.3334961,0.144043,1.984375,0.4321289v-4.5439453h-5.0239258v-1.0722656h5.0239258V50.472168h1.1679688v2.6557617
			h2.8320313V54.2001953z M61.2387695,59.9921875c-0.6938477-0.3945313-1.3710938-0.5922852-2.0322266-0.5922852
			c-1.4829102,0.0107422-2.2294922,0.5175781-2.2397461,1.5200195c0,1.0454102,0.597168,1.6269531,1.7919922,1.7441406
			c0.1489258,0.0107422,0.2983398,0.0161133,0.4477539,0.0161133c1.0454102,0,1.6801758-0.3789063,1.9042969-1.1362305
			c0.0849609-0.2773438,0.1279297-0.6079102,0.1279297-0.9921875V59.9921875z"/>
		<path fill="#595757" d="M69.5908203,50.8720703c-0.512207,1.9521484-0.7680664,4.074707-0.7680664,6.3681641
			c0,2.3037109,0.2558594,4.4267578,0.7680664,6.3676758l-1.2001953,0.1601563
			c-0.5336914-2.0371094-0.7998047-4.2133789-0.7998047-6.527832c0-2.3364258,0.2661133-4.512207,0.7998047-6.5283203
			L69.5908203,50.8720703z M79.7827148,61.4638672l0.1757813,1.0722656
			c-1.2905273,0.3305664-2.5175781,0.4960938-3.6796875,0.4960938c-1.9311523,0-3.3017578-0.4482422-4.1123047-1.3442383
			c-0.4160156-0.4692383-0.6240234-1.0078125-0.6240234-1.6162109c0-0.7358398,0.3999023-1.5463867,1.2001953-2.4316406
			c0.2558594-0.2988281,0.5385742-0.5708008,0.8481445-0.815918l0.8637695,0.7358398
			c-0.8745117,0.7255859-1.4189453,1.4345703-1.6318359,2.1279297c-0.0429688,0.1494141-0.0639648,0.2773438-0.0639648,0.3837891
			c0,0.9604492,0.7519531,1.546875,2.2558594,1.7602539c0.3837891,0.0537109,0.8051758,0.0800781,1.2641602,0.0800781
			C77.3984375,61.9121094,78.5664063,61.7626953,79.7827148,61.4638672z M72.7587891,53.2402344v-1.0883789h6.7998047v1.0883789
			H72.7587891z"/>
		<path fill="#595757" d="M84.6625977,50.8720703c-0.5224609,1.9946289-0.7836914,4.1171875-0.7836914,6.3681641
			c0,2.2719727,0.2612305,4.3945313,0.7836914,6.3676758l-1.1518555,0.1601563
			c-0.5336914-2.0371094-0.800293-4.2133789-0.800293-6.527832c0-2.3364258,0.2666016-4.512207,0.800293-6.5283203
			L84.6625977,50.8720703z M95.9428711,52.2480469H93.0625v2.5600586h2.8803711v1.0400391H93.0625v3.7919922
			c0.8427734,0.5439453,1.8295898,1.3813477,2.9599609,2.5117188l-0.815918,0.7841797
			c-0.8745117-0.8745117-1.5893555-1.5253906-2.144043-1.9521484c-0.1279297,1.8457031-1.1411133,2.7734375-3.0400391,2.7841797
			c-1.7495117,0-2.8212891-0.5654297-3.2158203-1.6962891c-0.0961914-0.2983398-0.144043-0.6181641-0.144043-0.9599609
			c0-1.2260742,0.671875-1.9941406,2.0161133-2.3037109c0.3945313-0.0854492,0.8422852-0.1279297,1.34375-0.1279297
			c0.6826172,0,1.3066406,0.1171875,1.8720703,0.3520508v-3.184082h-4.7998047v-1.0400391h4.7998047v-2.5600586h-4.7998047
			v-1.0561523h8.8481445V52.2480469z M91.8945313,60.2319336c-0.6293945-0.3198242-1.2695313-0.4799805-1.9199219-0.4799805
			c-1.4077148,0.0107422-2.1171875,0.4638672-2.1279297,1.3598633c0,0.9707031,0.5810547,1.4990234,1.7441406,1.5839844
			c0.1171875,0.0107422,0.2290039,0.0161133,0.3359375,0.0161133c1.0454102,0,1.6689453-0.4213867,1.8720703-1.2636719
			c0.0639648-0.2563477,0.0957031-0.5493164,0.0957031-0.8803711V60.2319336z"/>
		<path fill="#595757" d="M98.6787109,60.1362305l-0.9121094-0.8320313
			c1.2055664-1.3867188,2.1811523-2.5385742,2.9282227-3.4560547c0.9169922-1.1201172,1.5249023-1.7973633,1.8237305-2.0322266
			c0.3305664-0.2451172,0.7304688-0.3676758,1.2001953-0.3676758c0.4692383,0,0.8852539,0.1279297,1.2480469,0.3837891
			c0.3305664,0.2348633,1.0400391,0.8696289,2.1279297,1.9038086c1.9091797,1.8242188,3.7226563,3.4882813,5.4399414,4.9921875
			l-0.8320313,0.9599609c-1.855957-1.6318359-3.7919922-3.4130859-5.8081055-5.34375
			c-0.9174805-0.8852539-1.487793-1.3867188-1.7119141-1.5043945c-0.1601563-0.0742188-0.3251953-0.1118164-0.4960938-0.1118164
			c-0.2773438,0-0.5546875,0.144043-0.8320313,0.4321289c-0.2026367,0.2133789-0.5756836,0.6503906-1.1196289,1.3120117
			C100.5292969,57.965332,99.5107422,59.1865234,98.6787109,60.1362305z"/>
		<path fill="#595757" d="M116.0708008,50.6479492l1.2480469-0.1918945c0.2983398,1.78125,0.6611328,3.5039063,1.0878906,5.1679688
			c1.6958008-0.7783203,3.9091797-1.4824219,6.6401367-2.1118164l0.2397461,1.1040039
			c-5.8774414,1.34375-9.0717773,2.9545898-9.5839844,4.8320313c-0.0424805,0.1704102-0.0639648,0.3413086-0.0639648,0.5117188
			c0.0214844,1.6958008,1.6054688,2.5493164,4.7519531,2.5600586c1.472168,0,3.1040039-0.1225586,4.8959961-0.3681641
			l0.1279297,1.1201172c-1.8237305,0.2451172-3.4985352,0.3681641-5.0239258,0.3681641
			c-3.2211914,0-5.1572266-0.800293-5.8081055-2.3999023c-0.1494141-0.3842773-0.2236328-0.7949219-0.2236328-1.2324219
			c0.0209961-1.418457,0.980957-2.6821289,2.8798828-3.7919922
			C116.7480469,54.253418,116.3588867,52.3974609,116.0708008,50.6479492z"/>
		<path fill="#595757" d="M127.8149414,53.512207v-1.0722656h3.7597656
			c0.0961914-0.3945313,0.2294922-1.1303711,0.3999023-2.2080078l1.184082,0.0961914
			c-0.0957031,0.6503906-0.2348633,1.3544922-0.4160156,2.1118164h7.7758789v1.0722656h-8.0317383
			c-0.3417969,1.2475586-0.8056641,2.4956055-1.3920898,3.7436523l0.0161133,0.0322266
			c1.1518555-0.5654297,2.3461914-0.8959961,3.5839844-0.9921875c0.1704102-0.0102539,0.3305664-0.0161133,0.4799805-0.0161133
			c2.3891602,0,3.8129883,0.7788086,4.2719727,2.3364258c0.1064453,0.3515625,0.1601563,0.7304688,0.1601563,1.1357422
			c0,1.3120117-0.6298828,2.3198242-1.8881836,3.0239258c-1.0239258,0.5761719-2.3149414,0.8642578-3.8720703,0.8642578
			c-1.3012695,0-2.5869141-0.1230469-3.855957-0.3681641l0.1918945-1.0717773
			c1.2802734,0.2451172,2.5014648,0.3676758,3.6640625,0.3676758c1.8452148,0,3.1572266-0.4370117,3.9360352-1.3120117
			c0.3945313-0.4477539,0.5917969-0.9702148,0.5917969-1.5678711c-0.0214844-1.5463867-1.1040039-2.3251953-3.2475586-2.3359375
			c-1.3017578,0-2.6030273,0.3198242-3.9042969,0.9599609c-0.2988281,0.1601563-0.5708008,0.3198242-0.815918,0.4799805
			l-1.0239258-0.4799805c0.8530273-1.6850586,1.4931641-3.2851563,1.9199219-4.7998047H127.8149414z"/>
		<path fill="#595757" d="M143.7182617,50.8881836h1.2001953v4.3520508h0.0317383
			c0.6933594-1.6425781,1.6962891-2.8056641,3.0083008-3.4882813c0.6928711-0.3623047,1.4077148-0.5439453,2.1435547-0.5439453
			c1.621582,0,2.7524414,0.746582,3.3920898,2.2402344c0.3305664,0.7890625,0.4960938,1.7490234,0.4960938,2.8798828
			c0,3.1254883-1.0986328,5.2373047-3.2958984,6.3359375c-1.3657227,0.6826172-3.2001953,1.0239258-5.5039063,1.0239258
			l-0.0483398-1.1201172c3.1147461,0,5.2373047-0.6821289,6.3681641-2.0478516
			c0.7998047-0.9814453,1.2001953-2.378418,1.2001953-4.1918945c0-2.3466797-0.7363281-3.6425781-2.2080078-3.8881836
			c-0.1708984-0.0317383-0.3417969-0.0478516-0.512207-0.0478516c-1.0454102,0-2.0424805,0.5014648-2.9921875,1.5039063
			c-1.109375,1.1733398-1.7866211,2.6401367-2.0317383,4.3999023c-0.0322266,0.2241211-0.0537109,0.4428711-0.0639648,0.65625
			h-1.184082V50.8881836z"/>
		<path fill="#595757" d="M158.9501953,50.9199219l1.0561523-0.2397461c0.2983398,1.3012695,0.5170898,2.21875,0.6557617,2.7519531
			c1.0986328-0.5546875,2.3041992-0.8320313,3.6162109-0.8320313c0.3945313,0,0.8422852,0.0375977,1.34375,0.1118164
			c0.2988281-0.8852539,0.5654297-1.7597656,0.800293-2.6240234l1.1040039,0.2241211
			c-0.2241211,0.8212891-0.4907227,1.706543-0.800293,2.6557617c1.5576172,0.512207,2.6616211,1.4458008,3.3120117,2.800293
			c0.3520508,0.746582,0.5283203,1.5576172,0.5283203,2.4321289c0,0.9814453-0.1123047,1.8291016-0.3359375,2.5439453
			c0.3300781,0.3520508,0.7036133,0.7998047,1.1196289,1.34375l-0.815918,0.6240234
			c-0.1601563-0.2133789-0.4052734-0.5170898-0.7358398-0.9121094c-0.6186523,1.1308594-1.4667969,1.7387695-2.5439453,1.8242188
			c-0.0961914,0.0102539-0.1816406,0.0161133-0.2563477,0.0161133c-0.9384766,0-1.6479492-0.3256836-2.1279297-0.9760742
			c-0.2880859-0.3842773-0.4316406-0.8212891-0.4316406-1.3120117c0-0.8642578,0.378418-1.4985352,1.1357422-1.9038086
			c0.4267578-0.2241211,0.9174805-0.3364258,1.472168-0.3364258c0.8105469,0.0107422,1.5571289,0.2670898,2.2397461,0.7680664
			c0.074707-0.4584961,0.1123047-1.0185547,0.1123047-1.6796875c0-1.4296875-0.5444336-2.5600586-1.6323242-3.3920898
			c-0.4160156-0.3203125-0.8852539-0.5708008-1.4077148-0.7519531c-1.3867188,3.8828125-2.8911133,6.5546875-4.512207,8.015625
			c-0.7148438,0.6508789-1.3813477,0.9760742-2,0.9760742c-0.8320313,0-1.4985352-0.4160156-2-1.2480469
			c-0.4375-0.7250977-0.6557617-1.6420898-0.6557617-2.7519531c0-1.8129883,0.6450195-3.3276367,1.9360352-4.5439453
			c0.1811523-0.1704102,0.3730469-0.3305664,0.5756836-0.4799805
			C159.4033203,52.9145508,159.152832,51.8798828,158.9501953,50.9199219z M161.7182617,60.6000977
			c-0.6186523-1.7705078-1.184082-3.5678711-1.6958008-5.3920898c-1.1416016,1.0136719-1.7124023,2.293457-1.7124023,3.8398438
			c0,1.1948242,0.2827148,2.0429688,0.8481445,2.5439453c0.2241211,0.1923828,0.453125,0.2880859,0.6879883,0.2880859
			C160.3901367,61.8696289,161.0141602,61.4428711,161.7182617,60.6000977z M162.4863281,59.5600586
			c0.980957-1.4824219,1.9038086-3.4082031,2.7680664-5.7758789c-0.277832-0.0424805-0.6030273-0.0639648-0.9760742-0.0639648
			c-1.2695313,0-2.3789063,0.2719727-3.328125,0.815918C161.3876953,56.1577148,161.8994141,57.8320313,162.4863281,59.5600586z
			 M169.0141602,60.9838867c-0.6616211-0.5649414-1.3334961-0.8530273-2.0161133-0.8637695
			c-0.7036133,0-1.1679688,0.2504883-1.3916016,0.7519531c-0.0644531,0.1494141-0.0961914,0.3095703-0.0961914,0.4799805
			c0,0.5546875,0.2612305,0.9384766,0.7841797,1.1518555c0.2128906,0.0854492,0.4477539,0.1279297,0.7036133,0.1279297
			C167.9365234,62.6108398,168.6088867,62.0615234,169.0141602,60.9838867z"/>
		<path fill="#595757" d="M181.4140625,62.4399414c1.8129883-0.4477539,2.7250977-1.5253906,2.7358398-3.2319336
			c0-1.4614258-0.8476563-2.3144531-2.5439453-2.5600586c-0.3735352-0.0532227-0.7788086-0.0800781-1.2158203-0.0800781
			c-2.1762695,0.0107422-4.4321289,0.6723633-6.7680664,1.9838867l-0.4638672-0.8637695l8.6396484-5.4560547v-0.0317383h-7.487793
			v-1.0400391h9.6479492l0.0639648,1.0556641L177.75,56.0078125l0.0161133,0.0161133
			c1.0664063-0.2880859,2.0639648-0.4321289,2.9916992-0.4321289c3.1254883,0.0107422,4.6933594,1.1738281,4.7041016,3.4882813
			c0,2.0161133-0.9384766,3.3813477-2.815918,4.0957031c-0.9174805,0.3413086-2.0161133,0.512207-3.2958984,0.512207
			c-2.9975586-0.0214844-4.5068359-0.8745117-4.5283203-2.5600586c0-0.7358398,0.3842773-1.3120117,1.1523438-1.7280273
			c0.6289063-0.3413086,1.418457-0.5117188,2.3676758-0.5117188c2.2294922,0.0107422,3.3496094,0.7788086,3.3603516,2.3037109
			C181.7021484,61.5654297,181.605957,61.9814453,181.4140625,62.4399414z M180.1982422,62.6162109
			c0.2661133-0.512207,0.3999023-0.9545898,0.3999023-1.328125c-0.0214844-0.9067383-0.7949219-1.3652344-2.3203125-1.3759766
			c-1.0771484,0-1.78125,0.2612305-2.1118164,0.7836914c-0.0854492,0.1391602-0.1279297,0.2827148-0.1279297,0.4321289
			c0,0.8427734,0.7890625,1.3388672,2.3681641,1.4882813c0.2983398,0.0214844,0.612793,0.0317383,0.9438477,0.0317383
			C179.5634766,62.6479492,179.8461914,62.6376953,180.1982422,62.6162109z"/>
		<path fill="#595757" d="M199.7495117,63.3198242c-1.2695313,0.2133789-2.6079102,0.3203125-4.0161133,0.3203125
			c-2.8051758,0-4.5332031-0.5014648-5.1835938-1.5039063c-0.2348633-0.3735352-0.3520508-0.8164063-0.3520508-1.328125
			c0-1.6855469,1.5942383-2.9814453,4.7836914-3.8881836l0.0161133-0.0161133h0.0161133
			c-0.2241211-0.7568359-0.6186523-1.1835938-1.184082-1.2797852c-0.1176758-0.0214844-0.2456055-0.0322266-0.3837891-0.0322266
			c-1.0351563,0-2.203125,0.7363281-3.5043945,2.2080078c-0.3730469,0.4160156-0.7412109,0.8803711-1.1040039,1.3920898
			l-0.9755859-0.6240234c1.3120117-1.8237305,2.3837891-3.6689453,3.2158203-5.5356445h-3.1201172v-1.0244141h3.5522461
			c0.2451172-0.6079102,0.4848633-1.2583008,0.7197266-1.9516602l1.1523438,0.2719727
			c-0.2138672,0.5756836-0.4267578,1.1357422-0.6401367,1.6796875h6.9438477v1.0244141h-7.3759766
			c-0.3520508,0.8105469-0.7412109,1.637207-1.1679688,2.4799805l0.0161133,0.015625
			c0.9384766-0.6396484,1.7705078-0.9599609,2.4960938-0.9599609c1.1411133,0,1.9301758,0.5498047,2.3676758,1.6479492
			c0.0532227,0.1391602,0.1015625,0.2719727,0.144043,0.4003906c1.0878906-0.2456055,2.3095703-0.4536133,3.6640625-0.6240234
			l0.1118164,1.0400391c-1.4506836,0.1918945-2.6347656,0.3945313-3.5517578,0.6079102
			c0.1386719,0.8105469,0.2080078,1.8505859,0.2080078,3.1196289h-1.2319336c0-1.1621094-0.0483398-2.1010742-0.144043-2.815918
			c-2.4960938,0.7578125-3.765625,1.6801758-3.8081055,2.7680664c0,0.6826172,0.3305664,1.1625977,0.9921875,1.4399414
			c0.7041016,0.2988281,1.8129883,0.4482422,3.3276367,0.4482422c1.184082,0,2.4853516-0.1171875,3.9042969-0.3520508
			L199.7495117,63.3198242z"/>
		<path fill="#595757" d="M22.5668945,73.6801758v-1.0883789H35.206543v1.0883789
			c-0.5117188,1.8452148-1.5678711,3.34375-3.1679688,4.4956055c-0.4052734,0.2880859-0.8320313,0.5444336-1.2797852,0.7680664
			l-0.6401367-0.9916992c1.9414063-0.9814453,3.2001953-2.4052734,3.7758789-4.2719727H22.5668945z M27.2866211,75.2001953
			h1.2163086c0,3.0932617-0.4482422,5.3598633-1.3442383,6.7998047c-0.6826172,1.0878906-1.7172852,1.9306641-3.1040039,2.527832
			l-0.5761719-1.0239258c1.3867188-0.5864258,2.3681641-1.487793,2.9443359-2.7041016
			C26.9985352,79.5517578,27.2866211,77.6855469,27.2866211,75.2001953z"/>
		<path fill="#595757" d="M49.6386719,70.3999023c0.8959961,0,1.6264648,0.3466797,2.1918945,1.0400391
			c0.4160156,0.5229492,0.6240234,1.1147461,0.6240234,1.7758789c0,0.8959961-0.3466797,1.621582-1.0400391,2.1762695
			C50.9667969,75.7441406,50.4599609,75.9467773,49.8945313,76c-0.5654297,3.6479492-2.4052734,6.1279297-5.5200195,7.4399414
			c-1.2797852,0.5439453-2.7783203,0.9067383-4.4956055,1.0878906l-0.2080078-1.1357422
			c3.6049805-0.3945313,6.1118164-1.6103516,7.5200195-3.6479492c0.7250977-1.0561523,1.2104492-2.362793,1.4560547-3.9199219
			c-0.7578125-0.2880859-1.2856445-0.7949219-1.5839844-1.5200195c-0.0322266-0.0854492-0.059082-0.1601563-0.0800781-0.2241211
			h-8.7680664v-1.1679688h8.6401367c0.0849609-0.8642578,0.4902344-1.5415039,1.2158203-2.0322266
			C48.5507813,70.5600586,49.0732422,70.3999023,49.6386719,70.3999023z M49.6386719,75.1040039
			c0.671875,0,1.1943359-0.2719727,1.5678711-0.815918c0.2241211-0.3305664,0.3364258-0.6879883,0.3364258-1.0722656
			c0-0.671875-0.277832-1.1943359-0.8320313-1.5678711c-0.3310547-0.2241211-0.6879883-0.3359375-1.0722656-0.3359375
			c-0.671875,0-1.1948242,0.2773438-1.5678711,0.8320313c-0.2133789,0.3305664-0.3198242,0.6879883-0.3198242,1.0717773
			c0,0.6831055,0.2768555,1.2055664,0.831543,1.5683594C48.902832,74.9975586,49.2548828,75.1040039,49.6386719,75.1040039z"/>
		<path fill="#595757" d="M55.7827148,79.1518555v-7.0400391h1.2802734v7.0400391H55.7827148z M64.1347656,72.1118164h1.3120117
			v4.0961914c0,2.9438477-0.7416992,5.0878906-2.2241211,6.4321289c-1.2265625,1.109375-3.0776367,1.8291016-5.5517578,2.159668
			l-0.2719727-1.1679688c2.4848633-0.3730469,4.2236328-1.0981445,5.2158203-2.1757813
			c0.9921875-1.1733398,1.4985352-2.9121094,1.5200195-5.2158203V72.1118164z"/>
		<path fill="#595757" d="M83.4467773,73.8081055v1.1201172h-4.0639648
			c-0.0107422,3.5732422-0.8110352,6.1171875-2.3999023,7.6318359c-0.9921875,0.9384766-2.3359375,1.5786133-4.0322266,1.9199219
			l-0.3359375-1.0878906C74.7158203,82.965332,76.1879883,82,77.0307617,80.4960938
			c0.7250977-1.3012695,1.0932617-3.1572266,1.1040039-5.5678711h-5.184082c-0.5439453,1.4931641-1.3388672,2.8266602-2.3837891,4
			l-0.9599609-0.65625c1.4824219-1.7172852,2.4101563-3.7543945,2.7836914-6.1118164
			c0.0424805-0.2456055,0.0800781-0.4960938,0.1123047-0.7519531l1.199707,0.0639648
			c-0.0854492,0.8535156-0.21875,1.6318359-0.3999023,2.3359375H83.4467773z"/>
		<path fill="#595757" d="M87.6865234,78.7041016l-1.7119141-0.9121094l0.4643555-0.9921875l1.2158203,0.6401367
			c0.0102539,0,0.1757813,0.0585938,0.4960938,0.1762695l0.4316406,0.015625h10.5444336v1.2163086H88.3745117
			c-0.1064453,0-0.2236328-0.0107422-0.3515625-0.0322266L87.6865234,78.7041016z"/>
		<path fill="#595757" d="M102.6787109,77.0878906l0.2241211-1.1357422c1.8769531,0.3305664,3.6103516,0.6557617,5.199707,0.9760742
			l-0.2236328,1.1518555C105.3398438,77.5786133,103.6069336,77.2480469,102.6787109,77.0878906z M103.3188477,83.3120117
			c3.3920898-0.2983398,5.9091797-1.1362305,7.5517578-2.512207c1.6000977-1.3544922,2.6772461-3.4663086,3.2319336-6.3359375
			c0.0214844-0.1171875,0.0424805-0.234375,0.0639648-0.3520508l1.168457,0.1923828
			c-0.5976563,3.4023438-1.8671875,5.8930664-3.8081055,7.4716797c-1.8457031,1.4936523-4.5175781,2.3945313-8.0161133,2.7041016
			L103.3188477,83.3120117z M103.3666992,73.1518555L103.5908203,72c1.8662109,0.2988281,3.6796875,0.6293945,5.4399414,0.9921875
			l-0.2241211,1.1357422C107.2919922,73.8188477,105.4785156,73.4936523,103.3666992,73.1518555z"/>
		<path fill="#595757" d="M119.8466797,75.0239258h9.3442383v8.9921875h-9.3442383v-1.0561523h8.0961914v-3.2319336h-7.472168
			v-1.0400391h7.472168v-2.6079102h-8.0961914V75.0239258z"/>
		<path fill="#595757" d="M134.9667969,73.4238281l0.5761719-1.0878906
			c1.7060547,0.8535156,3.3383789,1.7602539,4.8959961,2.7202148l-0.6240234,1.0878906
			C138.3320313,75.2265625,136.7158203,74.3198242,134.9667969,73.4238281z M147.3349609,74.0478516
			c-1.0991211,6.144043-5.0400391,9.5151367-11.8242188,10.1123047l-0.1918945-1.2001953
			c5.1201172-0.4692383,8.4692383-2.6132813,10.0478516-6.4321289c0.3413086-0.8422852,0.6079102-1.7543945,0.7998047-2.7358398
			L147.3349609,74.0478516z"/>
		<path fill="#595757" d="M24.0068359,96.2001953v10.1918945h-1.2319336v-7.8881836
			c-0.4482422,0.8427734-0.9389648,1.5947266-1.472168,2.2558594l-0.4799805-1.34375
			c1.5039063-2.0800781,2.5546875-4.5385742,3.1518555-7.3759766l1.1679688,0.2241211
			C24.8759766,93.6826172,24.4970703,94.9946289,24.0068359,96.2001953z M24.6948242,103.1118164v-1.0239258h11.2797852v1.0239258
			h-4.0800781c1.4936523,0.6938477,2.8212891,1.4882813,3.984375,2.3842773l-0.6879883,0.9760742
			c-1.0776367-0.8642578-2.4321289-1.7016602-4.0639648-2.512207l0.527832-0.8481445h-2.7841797l0.6079102,0.7519531
			c-0.9067383,0.8959961-2.1704102,1.6748047-3.7919922,2.3364258c-0.1279297,0.0639648-0.2558594,0.1171875-0.3837891,0.159668
			l-0.527832-1.0556641c1.5888672-0.6186523,2.8691406-1.3496094,3.8398438-2.1923828H24.6948242z M25.8945313,92.472168h8.9121094
			v8.6557617h-7.6796875h-1.2324219V92.472168z M27.1269531,95.0478516h6.4477539v-1.5678711h-6.4477539V95.0478516z
			 M27.1269531,95.9760742v1.6157227h6.4477539v-1.6157227H27.1269531z M27.1269531,98.5039063v1.6640625h6.4477539v-1.6640625
			H27.1269531z"/>
		<path fill="#595757" d="M43.9746094,99.3681641h1.2802734v1.34375h6.2397461v1.0400391h-5.6796875
			c1.4291992,1.2265625,3.4770508,2.3413086,6.144043,3.3442383l-0.4482422,1.0400391
			c-2.7094727-1.0776367-4.7949219-2.2666016-6.2558594-3.5683594v3.8242188h-1.2802734v-3.8242188
			c-1.4716797,1.3120117-3.5571289,2.5014648-6.2558594,3.5683594l-0.4482422-1.0400391
			c2.6772461-1.0029297,4.7255859-2.1176758,6.144043-3.3442383h-5.6796875v-1.0400391h6.2397461V99.3681641z
			 M45.1748047,95.0800781v0.9916992h-2.4960938c1.2158203,0.9819336,2.1118164,1.7124023,2.6879883,2.1923828l-0.9121094,0.7836914
			c-1.1303711-1.1088867-1.9731445-1.9199219-2.527832-2.4316406v3.3120117h-1.1201172v-3.184082
			c-0.671875,1.109375-1.5893555,2.0908203-2.7519531,2.9438477l-0.671875-1.0561523
			c1.2583008-0.8320313,2.1865234-1.6850586,2.7836914-2.5600586h-2.5117188v-0.9916992h3.1201172v-1.3120117
			c-0.9389648,0.0957031-1.8618164,0.1757813-2.7680664,0.2397461l-0.1123047-0.9755859
			c2.2294922-0.1494141,4.512207-0.4267578,6.8481445-0.8320313l0.3041992,0.9599609
			c-0.9174805,0.1704102-1.9521484,0.3305664-3.1040039,0.4799805v1.4399414H45.1748047z M46.0546875,97.8320313v-5.0722656
			h1.2001953v5.0722656H46.0546875z M50.0068359,92.3598633h1.2158203v5.6479492
			c0,0.8320313-0.1064453,1.3549805-0.3198242,1.5683594c-0.2133789,0.2026367-0.6987305,0.3037109-1.4560547,0.3037109
			c-0.4057617,0-1.09375-0.0263672-2.0639648-0.0800781l-0.0478516-1.0078125
			c0.9169922,0.0537109,1.5463867,0.0800781,1.8876953,0.0800781c0.4052734,0,0.6455078-0.0585938,0.7202148-0.1762695
			c0.0424805-0.0957031,0.0639648-0.2983398,0.0639648-0.6079102V92.3598633z"/>
		<path fill="#595757" d="M53.3349609,99.8481445h3.2475586v3.199707c0.3842773,0.7041016,0.9121094,1.184082,1.5839844,1.4399414
			c0.8212891,0.3203125,2.3041992,0.4799805,4.4482422,0.4799805h5.1518555l-0.0639648,1.0722656h-5.1357422
			c-2.5175781,0-4.2719727-0.2558594-5.2641602-0.7680664c-0.4697266-0.2558594-0.8588867-0.5864258-1.1679688-0.9921875
			c-0.6401367,0.7041016-1.4345703,1.3813477-2.3837891,2.0322266l-0.5922852-1.0239258
			c0.8959961-0.597168,1.6479492-1.2163086,2.2558594-1.855957h-0.0317383v-2.512207h-2.0478516V99.8481445z M56.8706055,94.2641602
			l-0.7519531,0.8320313c-1.0024414-0.8535156-1.8720703-1.5576172-2.6079102-2.1123047l0.7680664-0.7998047
			C55.2597656,92.9199219,56.1240234,93.6132813,56.8706055,94.2641602z M56.9506836,97.8637695l-0.7519531,0.8320313
			c-0.8852539-0.7675781-1.78125-1.4985352-2.6879883-2.1918945l0.7680664-0.7998047
			C55.1640625,96.3759766,56.0546875,97.0961914,56.9506836,97.8637695z M61.3349609,95.3999023v-0.4477539h-1.6962891
			c-0.0854492,3.1040039-0.3945313,5.3867188-0.9277344,6.8476563c-0.2348633,0.6401367-0.5444336,1.2641602-0.9282227,1.8720703
			l-0.8637695-0.9121094c0.6503906-1.0981445,1.0825195-2.394043,1.2958984-3.8876953
			c0.1489258-1.0239258,0.2451172-2.3305664,0.2880859-3.9199219h-1.3759766v-1.0722656h1.3916016
			c0.0107422-0.4052734,0.0161133-1.0341797,0.0161133-1.8876953h1.1518555c0,0.8637695-0.0053711,1.4931641-0.015625,1.8876953
			h2.815918v0.9121094c0,4.2773438-0.1547852,6.9013672-0.4638672,7.8720703
			c-0.1601563,0.5117188-0.4267578,0.7998047-0.800293,0.8637695c-0.0957031,0.0214844-0.2026367,0.0322266-0.3198242,0.0322266
			c-0.5439453,0-1.1738281-0.0532227-1.8881836-0.1601563l-0.0478516-1.0717773
			c0.5654297,0.1064453,1.034668,0.159668,1.4077148,0.159668c0.2773438,0,0.4746094-0.1972656,0.5922852-0.5917969
			C61.2119141,101.0961914,61.3349609,98.9306641,61.3349609,95.3999023z M64.3427734,103.4482422h-1.1201172V92.9521484h4.3842773
			v10.4960938H64.3427734z M64.3427734,102.3920898h2.1118164v-8.3842773h-2.1118164V102.3920898z"/>
		<path fill="#595757" d="M75.7827148,105.3041992l-1.0078125,0.2080078
			c-0.1279297-0.8535156-0.3520508-1.8564453-0.6723633-3.0083008l0.9282227-0.2080078
			c-0.0537109-0.1704102-0.1118164-0.3461914-0.1757813-0.527832l-1.4882813,0.0800781v4.5917969h-1.2001953v-4.527832
			l-2.671875,0.159668L69.4628906,101l1.0878906-0.0478516c0.4262695-0.3842773,0.7412109-0.6772461,0.9438477-0.8803711
			c-0.7148438-0.7890625-1.3706055-1.4824219-1.9677734-2.0795898l0.671875-0.9443359
			c0.2983398,0.2988281,0.527832,0.5336914,0.6879883,0.7041016c0.512207-0.597168,1.0185547-1.2744141,1.5200195-2.0317383
			l1.0078125,0.5117188c-0.5756836,0.8320313-1.1733398,1.6054688-1.7919922,2.3198242
			c0.2988281,0.3417969,0.5175781,0.5869141,0.65625,0.7363281c0.7998047-0.8320313,1.5517578-1.6962891,2.2558594-2.5922852
			l0.9921875,0.5761719c-0.9599609,1.2055664-2.059082,2.3999023-3.2958984,3.5839844l2.2397461-0.1118164
			c-0.1176758-0.2773438-0.293457-0.6723633-0.527832-1.184082l-0.0161133-0.0161133l0.9282227-0.3837891
			c0.4584961,0.9174805,0.8422852,1.8828125,1.1518555,2.8959961l-0.8798828,0.3198242
			C75.4145508,103.3466797,75.6333008,104.3227539,75.7827148,105.3041992z M69.5268555,105.671875
			c0.4160156-1.0771484,0.6879883-2.159668,0.815918-3.2480469l1.0239258,0.1279297
			c-0.1176758,1.1098633-0.3945313,2.2299805-0.8320313,3.3603516L69.5268555,105.671875z M71.3349609,95.5917969h-1.2324219
			v-3.1835938h13.0244141v3.1835938H71.3349609z M74.0229492,94.6640625v-1.2958984h-2.6879883v1.2958984H74.0229492z
			 M75.8789063,100.2641602l-0.815918-0.9760742c0.90625-1.0454102,1.637207-2.234375,2.1918945-3.5678711l1.1196289,0.3676758
			c-0.1811523,0.4482422-0.3676758,0.8696289-0.5595703,1.2641602h2.3676758
			c0.3305664-0.512207,0.6186523-1.0561523,0.8642578-1.6318359l1.1357422,0.3676758
			c-0.2348633,0.5229492-0.4536133,0.9443359-0.6557617,1.2641602h2.1279297v0.9599609H81.206543v1.487793h2.1762695v0.9443359
			H81.206543v1.5356445h2.1762695v0.9443359H81.206543v1.5839844h2.6879883v1.0239258h-6.2875977v0.6079102h-1.2001953v-6.7998047
			C76.3852539,99.671875,76.2094727,99.8798828,75.8789063,100.2641602z M78.0546875,94.6640625v-1.2958984h-2.8798828v1.2958984
			H78.0546875z M80.0546875,99.7998047v-1.487793h-2.4477539v1.487793H80.0546875z M80.0546875,102.2797852v-1.5356445h-2.4477539
			v1.5356445H80.0546875z M80.0546875,103.2241211h-2.4477539v1.5839844h2.4477539V103.2241211z M79.206543,94.6640625h2.6879883
			v-1.2958984H79.206543V94.6640625z"/>
		<path fill="#595757" d="M85.4145508,100.1040039c2.4003906-1.3120117,4.5444336-2.8637695,6.4321289-4.6557617h1.5361328
			c1.8984375,1.8027344,4.0424805,3.3544922,6.4321289,4.6557617l-0.5444336,1.0400391
			c-0.6079102-0.3305664-1.1196289-0.6240234-1.5356445-0.8798828v6.0639648h-1.2480469v-0.8481445h-7.7441406v0.8481445h-1.2480469
			v-6.0639648c-0.4267578,0.2558594-0.9384766,0.5493164-1.5356445,0.8798828L85.4145508,100.1040039z M85.5429688,96.0561523
			C87.4306641,95,88.9238281,93.7680664,90.0229492,92.3598633l0.8637695,0.7041016
			c-1.1308594,1.5361328-2.7148438,2.8535156-4.7519531,3.9521484L85.5429688,96.0561523z M88.3105469,99.7519531h8.6083984
			c-1.546875-1.0239258-2.9819336-2.1811523-4.3041992-3.472168C91.28125,97.581543,89.8466797,98.7387695,88.3105469,99.7519531z
			 M96.4868164,104.472168v-3.6801758h-7.7441406v3.6801758H96.4868164z M98.6948242,96.9677734
			c-1.3974609-1.3759766-2.9545898-2.6611328-4.671875-3.855957l0.7036133-0.8959961
			c1.7919922,1.237793,3.3706055,2.5390625,4.7363281,3.9042969L98.6948242,96.9677734z"/>
		<path fill="#595757" d="M130.4228516,104.8881836c0,0.5649414-0.0961914,0.9223633-0.2880859,1.0717773
			c-0.2241211,0.1601563-0.7680664,0.2402344-1.6318359,0.2402344c-0.3520508,0-1.0991211-0.0268555-2.2402344-0.0800781
			l-0.0478516-0.9599609c1.0986328,0.0532227,1.8022461,0.0800781,2.1118164,0.0800781
			c0.4799805,0,0.7519531-0.0483398,0.815918-0.144043c0.0424805-0.0854492,0.0639648-0.2612305,0.0639648-0.5283203v-0.3676758
			h-9.1835938v2.0478516h-1.2163086v-2.0478516h-1.6640625v-0.9921875h1.6640625v-0.8481445h-1.6640625v-0.9277344h1.6640625
			v-1.5839844h5.0400391v-0.5761719h-6.2719727v-0.8798828h3.7602539v-0.6879883h-3.0083008v-0.815918h3.0083008v-0.6879883
			h-3.328125v-0.8481445h3.328125v-0.5600586h0.3515625c-0.0532227-0.1064453-0.1435547-0.2773438-0.2719727-0.512207
			c-0.1279297-0.234375-0.21875-0.4052734-0.2719727-0.5117188h-1.4077148
			c-0.4697266,0.5117188-1.0029297,0.9868164-1.6000977,1.4238281l-0.8642578-0.7836914
			c1.109375-0.7788086,1.9306641-1.6533203,2.4643555-2.6240234c0.0317383-0.0532227,0.0585938-0.1015625,0.0800781-0.144043
			l1.199707,0.1918945c-0.1816406,0.3837891-0.3520508,0.6987305-0.5117188,0.9438477h4.3520508v0.65625
			c0.7250977-0.5761719,1.2958984-1.1787109,1.7119141-1.8081055l1.184082,0.2080078
			c-0.203125,0.3520508-0.4160156,0.6665039-0.6401367,0.9438477h4.6557617v0.9921875h-2.7998047
			c0.0532227,0.1064453,0.1386719,0.2719727,0.2558594,0.4960938c0.1494141,0.2773438,0.2558594,0.4853516,0.3203125,0.6240234
			l-1.168457,0.2558594c-0.3623047-0.7143555-0.597168-1.1733398-0.7036133-1.3759766h-1.5200195
			c-0.5761719,0.5117188-1.2319336,0.9760742-1.9682617,1.3920898l-0.8476563-0.7202148
			c0.3623047-0.2026367,0.7197266-0.4262695,1.0717773-0.671875h-1.9521484
			c0.1923828,0.3520508,0.3842773,0.7304688,0.5761719,1.1357422l-0.4482422,0.1123047v0.3359375h4.0644531v-0.7202148h1.2475586
			v0.7202148h3.328125v0.8481445h-3.328125v0.6879883h3.0083008v0.815918h-3.0083008v0.6879883h3.7602539v0.8798828h-6.6079102
			v0.5761719h5.3759766v1.5839844h1.6640625v0.9277344h-1.6640625v0.8481445h1.6640625v0.9921875h-1.6640625V104.8881836z
			 M120.0229492,101.5600586h3.8237305v-0.8481445h-3.8237305V101.5600586z M120.0229492,102.3598633v0.8481445h3.8237305
			v-0.8481445H120.0229492z M122.5825195,96.8881836h4.0644531v-0.6879883h-4.0644531V96.8881836z M122.5825195,97.7041016
			v0.6879883h4.0644531v-0.6879883H122.5825195z M129.206543,101.5600586v-0.8481445h-4.159668v0.8481445H129.206543z
			 M129.206543,102.3598633h-4.159668v0.8481445h4.159668V102.3598633z"/>
		<path fill="#595757" d="M139.9746094,92.0878906h1.2802734v3.5839844c0,2.8481445,1.0078125,5.2480469,3.0239258,7.2001953
			c0.9599609,0.9277344,2.1010742,1.7016602,3.4238281,2.3198242l-0.6557617,0.9760742
			c-2.1230469-0.9707031-3.8242188-2.4321289-5.1040039-4.3837891c-0.5439453-0.8320313-0.9707031-1.706543-1.2802734-2.6240234
			c-0.746582,2.1865234-2.0693359,4.015625-3.9677734,5.487793c-0.7788086,0.6079102-1.6162109,1.1147461-2.512207,1.5200195
			l-0.6557617-0.9760742c2.6240234-1.2265625,4.4692383-2.980957,5.5361328-5.2636719
			c0.6079102-1.3227539,0.9116211-2.7416992,0.9116211-4.2563477V92.0878906z M137.190918,94.8242188
			c-0.3735352,2.090332-1.0776367,3.9306641-2.1123047,5.5200195l-1.0078125-0.5283203
			c0.980957-1.5463867,1.6425781-3.2905273,1.9838867-5.2319336L137.190918,94.8242188z M146.0546875,94.3120117
			l1.1201172,0.2880859c-0.512207,2.0053711-1.3549805,3.7597656-2.527832,5.2636719l-0.9760742-0.6079102
			C144.7797852,97.8266602,145.574707,96.1787109,146.0546875,94.3120117z"/>
		<path fill="#595757" d="M151.0629883,104.8720703v1.4077148h-1.168457v-7.7119141h2.4003906V95.527832h-2.9921875v-1.0878906
			h2.9921875v-2.3520508h1.2319336v2.3520508h2.9277344v1.0878906h-2.9277344v3.0400391h2.3999023v6.3041992H151.0629883z
			 M151.0629883,103.8320313h3.7436523v-4.1918945h-3.7436523V103.8320313z M161.8945313,106.1679688
			c-0.3515625,0-1.0986328-0.0268555-2.2397461-0.0800781L159.6069336,105
			c0.9384766,0.0532227,1.5517578,0.0800781,1.8398438,0.0800781c0.3520508,0,0.5546875-0.0429688,0.6079102-0.1279297
			c0.0532227-0.0961914,0.0800781-0.362793,0.0800781-0.800293v-2.8637695h-3.855957
			c-0.2133789,1.9946289-0.800293,3.6694336-1.7602539,5.0239258l-0.9277344-0.7041016
			c0.7783203-1.1303711,1.2641602-2.4638672,1.4560547-4c0.1171875-0.8745117,0.1757813-1.9677734,0.1757813-3.2797852v-5.8081055
			h6.1123047v11.6318359c0,0.9174805-0.0644531,1.4775391-0.1923828,1.6801758
			c-0.1386719,0.2133789-0.4853516,0.3251953-1.0400391,0.3359375
			C162.027832,106.1679688,161.9589844,106.1679688,161.8945313,106.1679688z M158.4067383,97.3198242v1.472168
			c0,0.512207-0.0161133,0.9975586-0.0478516,1.4560547h3.7758789v-2.9282227H158.4067383z M158.4067383,96.2797852h3.7280273
			v-2.6879883h-3.7280273V96.2797852z"/>
		<path fill="#595757" d="M174.902832,102.8242188c-0.8959961,1.1835938-2.1386719,2.2875977-3.7280273,3.3120117
			l-0.2080078-0.5761719l-0.5761719,0.1601563c-0.0424805-0.2348633-0.1279297-0.6347656-0.2558594-1.2001953
			c-1.7709961,0.6826172-3.4345703,1.1625977-4.9921875,1.4399414l-0.1279297-1.1357422
			c0.6611328-0.1176758,1.4453125-0.2988281,2.3520508-0.5444336v-4.1279297h-0.9921875v1.0083008h-1.0395508v-7.0400391h1.0395508
			h0.9921875v-2.0322266h1.2802734v2.0322266h0.9755859h0.7519531v-0.7202148h1.0400391v-1.3120117h1.2324219v1.3120117h1.487793
			v-1.3120117h1.2001953v1.3120117h2.2875977v-1.3120117h1.2324219v1.3120117h1.199707v1.0722656h-1.199707v2.8476563h-1.2324219
			h-3.487793V94.472168h-1.487793v4h6.9755859v1.0400391h-3.487793v1.1679688h3.8081055v1.0717773h-3.3603516
			c0.8320313,1.184082,2.0537109,2.2880859,3.6640625,3.3120117l-0.3837891,1.0722656
			c-1.6000977-1.0351563-2.8427734-2.1386719-3.7280273-3.3120117v3.5678711h-1.2319336V102.8242188z M166.3745117,95.1918945
			v3.9199219h1.0400391v-3.9199219H166.3745117z M169.6225586,95.1918945h-1.0400391v3.9199219h1.0400391V95.1918945z
			 M169.2226563,101.0800781l1.0083008-0.2880859c0.3730469,1.1625977,0.7089844,2.4907227,1.0078125,3.9838867
			c1.3974609-0.9492188,2.4692383-1.9570313,3.2158203-3.0239258h-3.7280273v-1.0717773h4.1762695V99.512207h-3.4882813V94.472168
			h-0.7998047v5.6796875h-1.9677734v3.7280273l1.2475586-0.4316406
			C169.6918945,102.6479492,169.4677734,101.8588867,169.2226563,101.0800781z M177.6225586,96.3120117V94.472168h-2.2875977
			v1.8398438H177.6225586z"/>
	</g>
</g>
<linearGradient id="SVGID_3_" gradientUnits="userSpaceOnUse" x1="101" y1="184.4501953" x2="101" y2="136.0869904">
	<stop  offset="0" style="stop-color:#FFFFFF;stop-opacity:0"/>
	<stop  offset="1" style="stop-color:#000000;stop-opacity:0.5"/>
</linearGradient>
<polygon fill="url(#SVGID_3_)" points="6,165.5 196,165.5 196,179 "/>
</svg>
