<?xml version="1.0" encoding="utf-8"?>
<!-- Generator: Adobe Illustrator 16.0.3, SVG Export Plug-In . SVG Version: 6.00 Build 0)  -->
<!DOCTYPE svg PUBLIC "-//W3C//DTD SVG 1.1//EN" "http://www.w3.org/Graphics/SVG/1.1/DTD/svg11.dtd">
<svg version="1.1" id="レイヤー_2" xmlns="http://www.w3.org/2000/svg" xmlns:xlink="http://www.w3.org/1999/xlink" x="0px"
	 y="0px" width="236.6650391px" height="41.5073242px" viewBox="0 0 236.6650391 41.5073242"
	 enable-background="new 0 0 236.6650391 41.5073242" xml:space="preserve">
  <style>path.bwf {fill:#222;} path.bws {stroke:#222;} @media (prefers-color-scheme: dark) {path.bwf {fill:#bbb;} path.bws {stroke:#bbb;}</style>
<g>
	<path class="bwf" d="M20.2138672,20.1669922h-0.0439453l-2.815918,6.1601563h-3.3876953l-2.8164063-6.1601563H11.105957v9.8339844H7.5639648
		V13.940918h3.828125l4.2460938,9.4599609h0.0439453l4.2460938-9.4599609h3.9160156v16.0600586h-3.6303711V20.1669922z"/>
</g>
<g>
	<path class="bwf" d="M32.8168945,8.9287109v4.9716797h5.0380859v2.815918h-5.0380859v4.972168h-2.9916992v-4.972168h-5.0380859v-2.815918
		h5.0380859V8.9287109H32.8168945z"/>
</g>
<g>
	<path fill="#73A6C3" d="M42.6523438,15.5092773l2.6030273-0.3989258c0.2661133,1.6088867,0.6459961,3.4458008,1.1401367,5.5102539
		c1.9125977-0.8359375,4.3764648-1.5961914,7.3911133-2.2802734l0.4750977,2.2802734
		c-3.5595703,0.7978516-6.2353516,1.690918-8.027832,2.6787109c-1.7924805,0.9882813-2.6884766,1.9760742-2.6884766,2.9643555
		c0,1.6464844,1.4755859,2.4697266,4.4272461,2.4697266c1.8364258,0,3.8823242-0.1708984,6.1367188-0.5126953L54.3754883,30.5
		c-2.1914063,0.3417969-4.3256836,0.5136719-6.402832,0.5136719c-2.34375,0-4.1108398-0.3925781-5.3012695-1.1782227
		c-1.1904297-0.7851563-1.7856445-1.9316406-1.7856445-3.4389648c0-1.6845703,1.0258789-3.1855469,3.0776367-4.5029297
		C43.4570313,19.7910156,43.0200195,17.6630859,42.6523438,15.5092773z"/>
</g>
<g>
	<path fill="#73A6C3" d="M108.3027344,28.4863281c1.3803711-0.1772461,2.4443359-0.715332,3.1918945-1.6147461
		c0.7470703-0.8994141,1.1210938-2.1152344,1.1210938-3.6479492c0-1.3173828-0.4023438-2.4287109-1.206543-3.3344727
		c-0.8046875-0.9057617-1.8525391-1.4472656-3.1445313-1.6245117c-0.3041992,2.4067383-0.6621094,4.4238281-1.0737305,6.0512695
		c-0.4116211,1.6279297-0.8676758,2.8662109-1.3676758,3.7143555c-0.5004883,0.8491211-1.0073242,1.4414063-1.5200195,1.7768555
		c-0.5131836,0.3354492-1.0991211,0.503418-1.7578125,0.503418c-1.0258789,0-1.9697266-0.5888672-2.8310547-1.7670898
		s-1.2919922-2.6152344-1.2919922-4.3129883c0-2.4570313,0.8364258-4.4521484,2.5083008-5.9848633
		s3.8569336-2.2993164,6.5546875-2.2993164c2.1787109,0,3.980957,0.684082,5.4057617,2.0522461
		s2.1376953,3.1098633,2.1376953,5.2250977c0,2.2036133-0.5605469,3.9707031-1.6816406,5.3007813
		s-2.6313477,2.0771484-4.5317383,2.2421875L108.3027344,28.4863281z M105.7563477,18.378418
		c-1.5327148,0.2915039-2.7358398,0.956543-3.6098633,1.9951172s-1.3110352,2.324707-1.3110352,3.8569336
		c0,0.9628906,0.1962891,1.8178711,0.5893555,2.5649414c0.3920898,0.7475586,0.7661133,1.1210938,1.1206055,1.1210938
		c0.1772461,0,0.3613281-0.0854492,0.5512695-0.2563477c0.1899414-0.1713867,0.4018555-0.4848633,0.6362305-0.940918
		c0.234375-0.4555664,0.4658203-1.0322266,0.6938477-1.7290039c0.2280273-0.6962891,0.4589844-1.6147461,0.6933594-2.7548828
		C105.3544922,21.0957031,105.5664063,19.8100586,105.7563477,18.378418z"/>
</g>
<g>
	<path fill="#73A6C3" d="M135.2163086,18.8691406v1.4072266H123.456543v-1.4072266
		c-0.8544922,0.5458984-1.7851563,1.078125-2.7929688,1.5961914l-1.0917969-2.2890625
		c1.6240234-0.8823242,3.0585938-1.7817383,4.3046875-2.6987305c1.2460938-0.9165039,2.4775391-1.9770508,3.6962891-3.1816406
		h3.5273438c1.21875,1.2045898,2.4501953,2.2651367,3.6962891,3.1816406
		c1.2460938,0.9169922,2.6806641,1.8164063,4.3046875,2.6987305l-1.0917969,2.2890625
		C137.0014648,19.9472656,136.0698242,19.4150391,135.2163086,18.8691406z M124.5698242,30.2724609v0.9863281h-2.7929688v-9.0927734
		h15.1191406v9.0927734h-2.7929688v-0.9863281H124.5698242z M134.1030273,28.109375v-3.7172852h-9.5332031v3.7172852H134.1030273z
		 M133.9770508,18.0292969c-1.6513672-1.1479492-3.1992188-2.4638672-4.640625-3.9482422
		c-1.4423828,1.484375-2.9892578,2.800293-4.640625,3.9482422H133.9770508z"/>
	<path fill="#73A6C3" d="M149.3286133,18.6171875c0,1.5117188-0.0068359,2.7265625-0.0214844,3.6435547
		c-0.0136719,0.9169922-0.0595703,1.7358398-0.1357422,2.4570313c-0.0771484,0.7211914-0.1582031,1.2460938-0.2421875,1.574707
		c-0.0839844,0.3291016-0.234375,0.5981445-0.4511719,0.809082c-0.2167969,0.2089844-0.4267578,0.3320313-0.6298828,0.3671875
		s-0.5078125,0.0527344-0.9130859,0.0527344c-0.4482422,0-1.3798828-0.0488281-2.7939453-0.1474609l-0.2939453-2.2470703
		c0.9804688,0.0981445,1.6806641,0.1469727,2.1005859,0.1469727c0.4335938,0,0.6962891-0.2060547,0.7871094-0.6191406
		s0.1367188-1.6977539,0.1367188-3.8535156h-2.9824219v0.3359375c0,2.2260742-0.1953125,4.1367188-0.5878906,5.7329102
		c-0.3916016,1.5957031-1.0146484,3.0800781-1.8691406,4.4521484l-1.9101563-2.4785156
		c0.6572266-1.3017578,1.1025391-2.6142578,1.3330078-3.9370117c0.2314453-1.3232422,0.3466797-3.2446289,0.3466797-5.7646484
		v-4.9350586h8.3369141c-0.0283203-0.8955078-0.0419922-1.5957031-0.0419922-2.1000977h2.625
		c0,0.5043945,0.0136719,1.2045898,0.0419922,2.1000977h2.4355469c-0.4482422-0.5458984-0.9521484-1.1196289-1.5117188-1.7216797
		l2.1425781-0.9033203c0.7978516,0.8540039,1.5253906,1.7294922,2.1835938,2.625h1.2597656v2.3100586h-6.3623047
		c0.2099609,2.2822266,0.5878906,4.3613281,1.1337891,6.2368164c0.8398438-1.4277344,1.4697266-3.0585938,1.8896484-4.8925781
		l2.4150391,0.671875c-0.6162109,2.6879883-1.7011719,5.0610352-3.2548828,7.1191406
		c0.3496094,0.7700195,0.6962891,1.3720703,1.0390625,1.8056641c0.34375,0.4345703,0.5917969,0.6513672,0.7460938,0.6513672
		c0.4052734,0,0.7138672-1.1894531,0.9238281-3.5703125l2.3095703,0.9243164
		c-0.1259766,1.9321289-0.4550781,3.3706055-0.9863281,4.3149414c-0.5322266,0.9453125-1.1621094,1.4179688-1.890625,1.4179688
		c-0.6162109,0-1.2802734-0.2939453-1.9951172-0.8818359c-0.7138672-0.5878906-1.3925781-1.4423828-2.0361328-2.5625
		c-1.5410156,1.4140625-3.2695313,2.4638672-5.1875,3.1503906l-1.1132813-2.2265625
		c2.0302734-0.7275391,3.7597656-1.840332,5.1875-3.3388672c-0.9521484-2.5058594-1.5615234-5.4458008-1.8271484-8.8198242
		h-5.7753906v2.1000977H149.3286133z"/>
	<path fill="#73A6C3" d="M162.5161133,14.3120117h16.1074219v0.5039063c0,4.8583984-1.1269531,8.515625-3.3808594,10.9726563
		c-2.2539063,2.4575195-5.7470703,3.909668-10.4794922,4.3579102l-0.5039063-2.6044922
		c3.7246094-0.3642578,6.4785156-1.3647461,8.2636719-3.0029297c1.7851563-1.6376953,2.8105469-4.1577148,3.0761719-7.5600586
		h-13.0830078V14.3120117z"/>
	<path fill="#73A6C3" d="M180.4926758,18.5541992h8.2314453v-2.4780273h2.4570313v2.4780273h3.2548828v2.2260742h-3.2548828
		v6.4257813c0,1.3164063-0.1611328,2.1279297-0.4824219,2.4365234c-0.3222656,0.3076172-1.1484375,0.4619141-2.4785156,0.4619141
		c-0.7695313,0-1.7011719-0.0566406-2.7929688-0.1679688l0.1259766-2.1630859
		c1.0634766,0.1123047,1.8691406,0.1679688,2.4150391,0.1679688c0.3359375,0,0.5458984-0.0419922,0.6298828-0.1259766
		s0.1259766-0.2939453,0.1259766-0.6298828v-4.137207c-2.2675781,2.0439453-4.6552734,3.7871094-7.1611328,5.2290039
		l-1.1542969-1.9741211c2.5898438-1.4282227,5.0605469-3.269043,7.4130859-5.5229492h-7.3291016V18.5541992z"/>
	<path fill="#73A6C3" d="M196.284668,16.1391602l1.34375-2.5200195c2.1132813,1.0078125,4.2841797,2.1352539,6.5097656,3.3808594
		l-1.4072266,2.4780273C200.8549805,18.4282227,198.706543,17.3149414,196.284668,16.1391602z M210.4594727,15.6352539
		l2.6669922,0.5878906c-0.7421875,4.1582031-2.4228516,7.3574219-5.0400391,9.597168
		c-2.6181641,2.2402344-6.2578125,3.5625-10.9199219,3.96875l-0.4199219-2.7304688
		c4.0595703-0.3911133,7.1777344-1.5009766,9.3554688-3.328125
		C208.2788086,21.9038086,209.730957,19.2050781,210.4594727,15.6352539z"/>
	<path fill="#73A6C3" d="M216.003418,13.1362305h2.9404297v5.8798828c3.6396484,0.8818359,7.4472656,2.0512695,11.4238281,3.5068359
		l-0.8818359,2.6459961c-3.5-1.3017578-7.0136719-2.394043-10.5419922-3.2758789v8.5893555h-2.9404297V13.1362305z"/>
</g>
<g>
	<path class="bwf bws" d="M64.2148438,30.5961914h-1.8662109V15.5947266h1.8662109V30.5961914z"/>
	<path class="bwf bws" d="M68.3369141,15.5947266h4.3681641c3.8212891,0,5.7319336,1.4355469,5.7319336,4.3066406
		c0,3.0351563-1.9482422,4.5527344-5.8447266,4.5527344h-2.409668v6.1420898h-1.8457031V15.5947266z M70.1826172,22.987793
		h2.0610352c2.84375,0,4.265625-1.0219727,4.265625-3.065918c0-1.8935547-1.3193359-2.840332-3.9580078-2.840332h-2.3686523
		V22.987793z"/>
	<path class="bwf bws" d="M92.2700195,30.5961914h-2.0097656l-1.6611328-4.4194336h-6.0292969l-1.6303711,4.4194336h-1.9995117
		l5.9472656-15.1040039h1.4868164L92.2700195,30.5961914z M88.0761719,24.6899414l-1.5175781-3.9887695
		c-0.4169922-1.1142578-0.7314453-2.1225586-0.9433594-3.0249023h-0.0615234
		c-0.2460938,0.9570313-0.5673828,1.965332-0.9638672,3.0249023l-1.4868164,3.9887695H88.0761719z"/>
</g>
</svg>
